<svg width="596" height="424" viewBox="0 0 596 424" fill="none" xmlns="http://www.w3.org/2000/svg">
<path d="M435 371.608C435.613 372.006 436.204 372.436 436.77 372.898C436.77 372.898 435.58 335.638 473.77 356.218C475.77 357.278 477.77 358.458 479.93 359.838C479.93 359.838 488.33 332.148 511.49 336.248C516.237 337.126 520.776 338.89 524.87 341.448C535.12 347.448 541.46 352.638 545.29 356.858C553.57 365.858 550.62 370.858 550.29 371.348C551.66 370.628 581.86 354.728 595.29 404.078C595.29 404.078 513.16 435.588 396.29 402.178C396.29 402.178 390.38 372.458 419.29 384.348C419.24 384.348 418.85 360.218 435 371.608Z" fill="#FCCCF4"/>
<path d="M545.28 356.858C541.45 352.638 535.11 347.468 524.86 341.448C520.766 338.89 516.227 337.126 511.48 336.248C480.22 162.248 334.6 29.8282 158.41 28.1482C-25.7899 26.3882 -179.25 168.148 -204.49 353.348C-204.683 353.328 -204.877 353.328 -205.07 353.348C-206.64 353.413 -208.206 353.564 -209.76 353.798C-242.1 358.688 -238.42 383.228 -238.42 383.228C-238.85 382.998 -239.27 382.758 -239.66 382.598C-211.76 161.898 -53.29 -0.981781 155.57 1.01822C354.56 2.90822 510.26 151.478 545.28 356.858Z" fill="#01C8FF"/>
<path d="M511.48 336.248C488.32 332.148 479.92 359.838 479.92 359.838C477.77 358.458 475.73 357.278 473.76 356.218C465.28 194.218 327.29 64.6083 157.03 62.9883C-19.77 61.2983 -164.4 198.248 -166.03 368.898V370.598C-171.945 372.869 -177.246 376.492 -181.51 381.178C-181.51 381.178 -177.9 352.638 -204.51 353.348C-179.27 168.098 -25.81 26.3483 158.39 28.1483C334.6 29.8283 480.22 162.228 511.48 336.248Z" fill="#FFC001"/>
<path d="M473.76 356.218C435.58 335.638 436.76 372.898 436.76 372.898C436.194 372.436 435.603 372.006 434.99 371.608C435.39 366.458 435.64 361.278 435.69 356.048C437.05 213.158 310.18 96.048 152.35 94.578C-5.48 93.108 -126.14 211.158 -127.51 354.098C-127.59 362.029 -127.069 369.955 -125.95 377.808C-129.123 378.721 -132.206 379.923 -135.16 381.398C-146.27 368.088 -157.42 367.598 -166.04 370.648V368.948C-164.41 198.298 -19.78 61.3479 157.02 63.0379C327.29 64.6079 465.28 194.228 473.76 356.218Z" fill="#FF334A"/>
<path d="M550.21 371.388C551.58 370.668 581.78 354.768 595.21 404.118C595.21 404.118 513.08 435.628 396.21 402.218C396.21 402.218 390.3 372.498 419.21 384.388C419.21 384.388 418.82 360.258 434.97 371.648C435.583 372.046 436.174 372.476 436.74 372.938C436.74 372.938 435.55 335.868 473.42 356.098C475.42 357.198 477.62 358.418 479.89 359.878C479.89 359.878 488.25 332.388 511.21 336.248C516.041 337.117 520.662 338.896 524.83 341.488C535.08 347.488 541.42 352.678 545.25 356.898C553.53 365.898 550.58 370.898 550.25 371.388" stroke="#030D78" stroke-miterlimit="10"/>
<path d="M473.49 356.488C473.51 356.346 473.51 356.201 473.49 356.058C466.34 192.878 328.22 64.6181 157.07 62.9881C-19.73 61.2981 -164.36 198.248 -165.99 368.898V371.728" stroke="#030D78" stroke-miterlimit="10"/>
<path d="M511.32 336.548C511.32 336.438 511.32 336.318 511.24 336.208C480.38 161.568 335.02 29.828 158.41 28.148C-25.7899 26.388 -179.25 168.148 -204.45 353.348C-204.53 353.778 -204.61 354.238 -204.65 354.668" stroke="#030D78" stroke-miterlimit="10"/>
<path d="M545.72 359.338C545.57 358.528 545.43 357.678 545.28 356.858C510.22 151.478 354.53 2.85822 155.57 1.01822C-53.29 -0.981781 -211.76 161.898 -239.66 382.558C-239.66 382.718 -239.66 382.908 -239.74 383.068" stroke="#030D78" stroke-miterlimit="10"/>
<path d="M434.87 373.468C434.87 372.808 434.96 372.188 435 371.608C435.55 363.058 435.65 361.278 435.7 356.048C436.79 213.158 310.19 96.048 152.36 94.578C-5.46999 93.108 -126.14 211.158 -127.51 354.098C-127.727 362.051 -127.282 370.009 -126.18 377.888C-126.18 378.038 -126.18 378.198 -126.11 378.348" stroke="#030D78" stroke-miterlimit="10"/>
</svg>



