<svg width="759" height="424" viewBox="0 0 759 424" fill="none" xmlns="http://www.w3.org/2000/svg">
<path d="M725 371.608C725.613 372.006 726.204 372.436 726.77 372.898C726.77 372.898 725.58 335.638 763.77 356.218C765.77 357.278 767.77 358.458 769.93 359.838C769.93 359.838 778.33 332.148 801.49 336.248C806.237 337.126 810.776 338.89 814.87 341.448C825.12 347.448 831.46 352.638 835.29 356.858C843.57 365.858 840.62 370.858 840.29 371.348C841.66 370.628 871.86 354.728 885.29 404.078C885.29 404.078 803.16 435.588 686.29 402.178C686.29 402.178 680.38 372.458 709.29 384.348C709.24 384.348 708.85 360.218 725 371.608Z" fill="#FCCCF4"/>
<path d="M835.28 356.858C831.45 352.638 825.11 347.468 814.86 341.448C810.766 338.89 806.227 337.126 801.48 336.248C770.22 162.248 624.6 29.8282 448.41 28.1482C264.21 26.3882 110.75 168.148 85.51 353.348C85.3172 353.328 85.1228 353.328 84.93 353.348C83.3597 353.413 81.7941 353.564 80.24 353.798C47.9 358.688 51.58 383.228 51.58 383.228C51.15 382.998 50.73 382.758 50.34 382.598C78.24 161.898 236.71 -0.981781 445.57 1.01822C644.56 2.90822 800.26 151.478 835.28 356.858Z" fill="#01C8FF"/>
<path d="M801.48 336.248C778.32 332.148 769.92 359.838 769.92 359.838C767.77 358.458 765.73 357.278 763.76 356.218C755.28 194.218 617.29 64.6081 447.03 62.9881C270.23 61.2981 125.6 198.248 123.97 368.898V370.598C118.055 372.869 112.754 376.492 108.49 381.178C108.49 381.178 112.1 352.638 85.49 353.348C110.73 168.098 264.19 26.3482 448.39 28.1482C624.6 29.8282 770.22 162.228 801.48 336.248Z" fill="#FFC001"/>
<path d="M763.76 356.218C725.58 335.638 726.76 372.898 726.76 372.898C726.194 372.436 725.603 372.006 724.99 371.608C725.39 366.458 725.64 361.278 725.69 356.048C727.05 213.158 600.18 96.048 442.35 94.578C284.52 93.108 163.86 211.158 162.49 354.098C162.41 362.029 162.931 369.955 164.05 377.808C160.877 378.721 157.794 379.923 154.84 381.398C143.73 368.088 132.58 367.598 123.96 370.648V368.948C125.59 198.298 270.22 61.3479 447.02 63.0379C617.29 64.6079 755.28 194.228 763.76 356.218Z" fill="#FF334A"/>
<path d="M123.96 370.598C132.58 367.598 143.73 368.038 154.84 381.348C157.794 379.873 160.877 378.671 164.05 377.758C177.33 373.898 199.53 373.258 192.38 415.558C192.38 415.558 87.2 436.558 1 407.258C1 407.258 14.05 363.258 50.34 382.598C50.73 382.758 51.15 382.998 51.58 383.228C51.58 383.228 47.9 358.688 80.24 353.798C81.794 353.563 83.3597 353.413 84.93 353.348C85.1228 353.328 85.3172 353.328 85.51 353.348C112.09 352.638 108.51 381.178 108.51 381.178C112.765 376.496 118.056 372.873 123.96 370.598Z" fill="#FCCCF4"/>
<path d="M85.24 353.348H85.55C112.09 352.678 108.48 381.178 108.48 381.178C112.744 376.492 118.045 372.869 123.96 370.598C132.58 367.598 143.73 368.038 154.84 381.348C157.732 379.918 160.743 378.743 163.84 377.838C177.08 373.938 199.59 372.988 192.4 415.558C192.4 415.558 87.22 436.558 1.02002 407.258C1.02002 407.258 14.07 363.258 50.36 382.558C50.75 382.758 51.17 382.998 51.6 383.228C51.6 383.228 47.92 358.688 80.26 353.798C81.78 353.588 83.21 353.448 84.57 353.378" stroke="#030D78" stroke-miterlimit="10"/>
<path d="M84.55 353.378C84.7796 353.358 85.0105 353.358 85.24 353.378" stroke="#030D78" stroke-miterlimit="10"/>
<path d="M840.21 371.388C841.58 370.668 871.78 354.768 885.21 404.118C885.21 404.118 803.08 435.628 686.21 402.218C686.21 402.218 680.3 372.498 709.21 384.388C709.21 384.388 708.82 360.258 724.97 371.648C725.583 372.046 726.174 372.476 726.74 372.938C726.74 372.938 725.55 335.868 763.42 356.098C765.42 357.198 767.62 358.418 769.89 359.878C769.89 359.878 778.25 332.388 801.21 336.248C806.041 337.117 810.662 338.896 814.83 341.488C825.08 347.488 831.42 352.678 835.25 356.898C843.53 365.898 840.58 370.898 840.25 371.388" stroke="#030D78" stroke-miterlimit="10"/>
<path d="M763.49 356.488C763.51 356.346 763.51 356.201 763.49 356.058C756.34 192.878 618.22 64.6181 447.07 62.9881C270.27 61.2981 125.64 198.248 124.01 368.898V371.728" stroke="#030D78" stroke-miterlimit="10"/>
<path d="M801.32 336.548C801.32 336.438 801.32 336.318 801.24 336.208C770.38 161.568 625.02 29.8282 448.41 28.1482C264.21 26.3882 110.75 168.148 85.55 353.348C85.47 353.778 85.39 354.238 85.35 354.668" stroke="#030D78" stroke-miterlimit="10"/>
<path d="M835.72 359.338C835.57 358.528 835.43 357.678 835.28 356.858C800.22 151.478 644.53 2.85822 445.57 1.01822C236.71 -0.981781 78.24 161.898 50.34 382.558C50.34 382.718 50.34 382.908 50.26 383.068" stroke="#030D78" stroke-miterlimit="10"/>
<path d="M724.87 373.468C724.87 372.808 724.96 372.188 725 371.608C725.55 363.058 725.65 361.278 725.7 356.048C726.79 213.158 600.19 96.0482 442.36 94.5782C284.53 93.1082 163.86 211.158 162.49 354.098C162.273 362.051 162.718 370.009 163.82 377.888C163.82 378.038 163.82 378.198 163.89 378.348" stroke="#030D78" stroke-miterlimit="10"/>
</svg>
