<svg width="827" height="355" viewBox="0 0 827 355" fill="none" xmlns="http://www.w3.org/2000/svg">
<path d="M818.559 138.083C817.936 137.202 811.031 128.663 814.559 125.385C818.088 122.107 826.054 133.217 826.054 133.217L824.335 139.631C824.335 139.631 819.73 139.701 818.559 138.083Z" fill="#2B2525"/>
<path d="M818.559 138.083C817.936 137.202 811.031 128.663 814.559 125.385C818.088 122.107 826.054 133.217 826.054 133.217L824.335 139.631C824.335 139.631 819.73 139.701 818.559 138.083Z" stroke="#1100A5" stroke-miterlimit="10"/>
<path d="M779.345 153.219C779.345 153.219 774.007 150.464 772.632 154.589C771.258 158.713 777.562 159.875 777.562 159.875C777.562 159.875 783.85 158.122 779.345 153.219Z" fill="#2B2525"/>
<path d="M779.345 153.219C779.345 153.219 774.007 150.464 772.632 154.589C771.258 158.713 777.562 159.875 777.562 159.875C777.562 159.875 783.85 158.122 779.345 153.219Z" stroke="#1100A5" stroke-miterlimit="10"/>
<path d="M744.266 125.071C744.266 125.071 740.875 124.162 740.674 126.883C740.473 129.604 741.37 128.457 742.927 130.065C744.484 131.673 747.56 132.093 748.592 128.901C749.623 125.709 744.266 125.071 744.266 125.071Z" fill="#2B2525"/>
<path d="M744.266 125.071C744.266 125.071 740.875 124.162 740.674 126.883C740.473 129.604 741.37 128.457 742.927 130.065C744.484 131.673 747.56 132.093 748.592 128.901C749.623 125.709 744.266 125.071 744.266 125.071Z" stroke="#1100A5" stroke-miterlimit="10"/>
<path d="M791.678 82.8124C791.475 83.0454 791.322 83.3174 791.228 83.6117C791.134 83.906 791.101 84.2164 791.131 84.524C791.161 84.8315 791.253 85.1297 791.403 85.4002C791.552 85.6708 791.755 85.908 791.999 86.0973C793.769 87.6068 796.496 90.874 797.621 89.1876C798.746 87.5013 801.284 80.2305 791.678 82.8124Z" fill="#2B2525"/>
<path d="M794.677 95.3042C794.677 95.3042 791.523 98.9625 793.445 99.902C795.368 100.842 801.363 98.4828 800.11 95.7765C798.858 93.0701 794.677 95.3042 794.677 95.3042Z" fill="#2B2525"/>
<path d="M792.227 90.8895C791.721 91.1746 791.307 91.5966 791.031 92.1069C790.755 92.6173 790.629 93.1952 790.667 93.7741C790.898 95.6167 793.976 94.3294 793.976 94.3294C793.976 94.3294 796.186 92.1471 795.375 91.7332C795.375 91.7332 796.215 89.8359 794.296 89.8497L792.227 90.8895Z" fill="#2B2525"/>
<path d="M791.835 82.8854C791.637 83.1182 791.488 83.3886 791.397 83.6804C791.306 83.9721 791.275 84.2792 791.306 84.5833C791.337 84.8873 791.428 85.182 791.576 85.4497C791.723 85.7175 791.923 85.9527 792.163 86.1413C793.943 87.6534 796.67 90.9206 797.795 89.2342C798.919 87.5479 801.469 80.3525 791.835 82.8854Z" stroke="#1100A5" stroke-miterlimit="10"/>
<path d="M794.844 95.3798C794.844 95.3798 791.68 99.0355 793.612 99.9776C795.544 100.92 801.529 98.5583 800.267 95.8494C799.005 93.1405 794.844 95.3798 794.844 95.3798Z" stroke="#1100A5" stroke-miterlimit="10"/>
<path d="M792.412 90.9702C791.904 91.252 791.486 91.6727 791.208 92.183C790.93 92.6934 790.803 93.2724 790.843 93.8522C791.074 95.6948 794.152 94.4076 794.152 94.4076C794.152 94.4076 796.371 92.2278 795.551 91.8114C795.551 91.8114 796.391 89.914 794.472 89.9279L792.412 90.9702Z" stroke="#1100A5" stroke-miterlimit="10"/>
<path d="M659.868 40.8475C659.117 41.6814 650.664 46.5701 651.202 51.4767C651.74 56.3832 655.572 56.8819 655.572 56.8819L657.517 59.4737L661.12 58.8551C661.12 58.8551 667.644 61.131 669.871 57.7628L671.028 53.4451C671.028 53.4451 676.255 50.7047 675.614 48.193C675.614 48.193 672.773 43.9948 671.975 42.9941L669.647 43.9544C669.647 43.9544 668.61 39.7114 666.359 38.839L659.868 40.8475Z" fill="#2B2525"/>
<path d="M659.868 40.8475C659.117 41.6814 650.664 46.5701 651.202 51.4767C651.74 56.3832 655.572 56.8819 655.572 56.8819L657.517 59.4737L661.12 58.8551C661.12 58.8551 667.644 61.131 669.871 57.7628L671.028 53.4451C671.028 53.4451 676.255 50.7047 675.614 48.193C675.614 48.193 672.773 43.9948 671.975 42.9941L669.647 43.9544C669.647 43.9544 668.61 39.7114 666.359 38.839L659.868 40.8475Z" stroke="#1100A5" stroke-miterlimit="10"/>
<path d="M582.369 287.576C582.369 287.576 577.718 299.023 581.457 304.776C585.195 310.53 592.186 310.829 592.186 310.829L603.783 318.161C603.783 318.161 611.441 319.177 614.437 317.848C617.434 316.518 625.739 311.175 627.279 305.428L629.658 296.551C629.658 296.551 628.189 280.318 626.478 278.824L618.73 268.29L612.703 266.675C612.703 266.675 606.407 257.058 600.151 260.662C600.151 260.662 598.348 257.539 593.542 263.653C593.552 263.614 578.851 261.259 582.369 287.576Z" fill="#2B2525"/>
<path opacity="0.6" d="M629.164 298.396L629.658 296.551C629.658 296.551 628.189 280.318 626.478 278.824L618.73 268.29L612.703 266.675C612.703 266.675 606.407 257.058 600.151 260.662C600.151 260.662 598.348 257.539 593.542 263.653C592.272 263.525 590.99 263.658 589.774 264.044C588.557 264.431 587.433 265.062 586.47 265.899L590.577 266.026L594.032 266.424L597.263 264.256L599.772 267.527C599.772 267.527 600.631 267.758 600.088 264.838C600.088 264.838 600.935 262.683 603.157 270.153L603.645 265.397C603.645 265.397 606.798 264.524 611.127 269.773L612.422 270.12L611.787 267.31L613.421 268.938L613.998 271.733C613.998 271.733 611.28 276.429 613.336 277.643L615.298 277.237L616.732 274.318L615.943 269.883L617.493 271.478L618.596 275.087L617.327 279.323L619.411 279.271L620.514 275.156L619.589 272.309L617.956 270.019L620.7 272.607L622.188 276.443L621.394 280.371L624.255 284.492C624.255 284.492 624.62 279.693 625.753 282.378L625.777 288.202L627.247 287.313L628.363 292.498L629.164 298.396Z" fill="#6D3DFF"/>
<path d="M582.369 287.576C582.369 287.576 577.718 299.023 581.457 304.776C585.195 310.53 592.186 310.829 592.186 310.829L603.783 318.161C603.783 318.161 611.441 319.177 614.437 317.848C617.434 316.518 625.739 311.175 627.279 305.428L629.658 296.551C629.658 296.551 628.189 280.318 626.478 278.824L618.73 268.29L612.703 266.675C612.703 266.675 606.407 257.058 600.151 260.662C600.151 260.662 598.348 257.539 593.542 263.653C593.552 263.614 578.851 261.259 582.369 287.576Z" stroke="#1100A5" stroke-miterlimit="10"/>
<path d="M699.535 237.029C699.535 237.029 688.267 251.454 679.393 241.146C670.518 230.838 663.779 221.64 668.932 215.66C674.086 209.68 672.119 210.685 679.694 200.571C680.101 200.018 685.146 195.023 686.102 192.112C687.058 189.2 693.583 187.376 693.583 187.376L698.427 182.587C698.427 182.587 714.31 181.035 717.268 191.207L720.447 197.08L720.025 204.1C719.568 205.11 718.831 205.969 717.902 206.575C716.053 208.067 717.754 213.544 713.926 217.011C710.098 220.479 712.041 227.832 699.535 237.029Z" fill="#2B2525"/>
<path opacity="0.6" d="M714.913 215.837C717.427 212.369 716.211 207.902 717.874 206.526C718.803 205.92 719.54 205.061 719.997 204.051L720.418 197.031L717.24 191.158C714.282 180.986 698.399 182.538 698.399 182.538L693.554 187.327C693.554 187.327 688.446 188.733 686.61 191.067L689.762 190.276L693.754 190.021L699.321 187.019L703.88 188.241L704.054 191.455L702.259 195.602L696.964 198.946L701.046 197.658L703.723 195.86L705.934 191.276L706.836 188.878L708.106 189.083L707.844 191.529L706.926 196.459L704.58 199.268L701.805 203.017L705.43 201.079L707.846 197.896L710.202 192.968L710.455 191.058L710.419 188.14L710.75 186.903L712.764 187.847L714.001 191.615L712.8 197.102L715.169 197.612L717.965 199.541L713.438 205.078L715 209.369L714.913 215.837Z" fill="#6D3DFF"/>
<path d="M699.535 237.029C699.535 237.029 688.267 251.454 679.393 241.146C670.518 230.838 663.779 221.64 668.932 215.66C674.086 209.68 672.119 210.685 679.694 200.571C680.101 200.018 685.146 195.023 686.102 192.112C687.058 189.2 693.583 187.376 693.583 187.376L698.427 182.587C698.427 182.587 714.31 181.035 717.268 191.207L720.447 197.08L720.025 204.1C719.568 205.11 718.831 205.969 717.902 206.575C716.053 208.067 717.754 213.544 713.926 217.011C710.098 220.479 712.041 227.832 699.535 237.029Z" stroke="#1100A5" stroke-miterlimit="10"/>
<path d="M716.012 175.766C716.048 176.366 716.832 179.35 716.832 179.35L720.532 180.341L729.1 179.273C729.1 179.273 735.972 174.374 734.925 170.129C734.662 168.769 734.678 167.369 734.973 166.015C735.268 164.661 735.836 163.382 736.642 162.255L731.634 150.809L733.47 149.095C733.47 149.095 731.271 138.795 726.14 137.814C721.009 136.832 702.817 134.329 701.655 146.316C701.287 147.945 700.807 149.546 700.216 151.107L704.031 159.666C704.031 159.666 705.345 161.406 706.337 160.678L709.495 167.518C709.495 167.518 710.953 169.493 711.52 168.847L716.012 175.766Z" fill="#2B2525"/>
<path opacity="0.6" d="M735.365 164.78C735.687 163.886 736.13 163.04 736.68 162.265L731.672 150.819L733.47 149.095C733.47 149.095 731.271 138.795 726.14 137.814C721.708 136.968 707.318 134.955 702.9 142.364L706.952 140.996L712.771 142.462L713.416 140.057L716.363 139.76L717.848 143.025L719.51 140.996L722.602 141.628L722.604 147.571L724.411 147.703L725.092 141.84L728.228 144.585L728.761 149.283L731.53 154.094L730.775 158.032L726.434 162.408L723.512 162.919L726.992 163.262L730.472 161.016L732.354 157.855L732.841 159.673L731.973 162.909L730.19 165.816L726.845 166.4L729.434 167.094L731.07 166.549L732.622 163.694L733.862 162.659L733.888 165.151L735.365 164.78Z" fill="#6D3DFF"/>
<path d="M716.012 175.766C716.048 176.366 716.832 179.35 716.832 179.35L720.532 180.341L729.1 179.273C729.1 179.273 735.972 174.374 734.925 170.129C734.662 168.769 734.678 167.369 734.973 166.015C735.268 164.661 735.836 163.382 736.642 162.255L731.634 150.809L733.47 149.095C733.47 149.095 731.271 138.795 726.14 137.814C721.009 136.832 702.817 134.329 701.655 146.316C701.287 147.945 700.807 149.546 700.216 151.107L704.031 159.666C704.031 159.666 705.345 161.406 706.337 160.678L709.495 167.518C709.495 167.518 710.953 169.493 711.52 168.847L716.012 175.766Z" stroke="#1100A5" stroke-miterlimit="10"/>
<path d="M512.731 348.219C512.283 348.886 514.048 354.121 514.048 354.121L519.631 354.033C519.631 354.033 524.551 352.442 526.395 349.499C526.395 349.499 534.749 335.09 531.548 330.268L527.194 324.069C527.194 324.069 522.776 320.815 518.131 327.987C517.253 329.336 516.346 334.652 516.346 334.652L508.757 341.336C508.757 341.336 508.271 344.115 509.83 345.06L512.731 348.219Z" fill="#2B2525"/>
<path opacity="0.6" d="M530.507 340.838C532.022 336.844 533.039 332.51 531.548 330.268L527.194 324.07C527.194 324.07 523.445 321.294 519.217 326.487L521.361 326.213L523.738 325.069L525.903 326.415L525.724 328.552L526.921 328.8L527.547 327.932L528.956 329.821L528.464 333.396L524.852 336.983L527.157 337.27L528.746 336.515L529.342 337.265L528.906 339.86L527.544 340.769L530.507 340.838Z" fill="#6D3DFF"/>
<path d="M508.757 341.336L510.461 342.124L510.656 343.367L517.123 339.944L518.034 338.283L516.189 337.788L515.969 334.976L508.757 341.336Z" fill="#6D3DFF"/>
<path d="M512.731 348.219C512.283 348.886 514.048 354.121 514.048 354.121L519.631 354.033C519.631 354.033 524.551 352.442 526.395 349.499C526.395 349.499 534.749 335.09 531.548 330.268L527.194 324.069C527.194 324.069 522.776 320.815 518.131 327.987C517.253 329.336 516.346 334.652 516.346 334.652L508.757 341.336C508.757 341.336 508.271 344.115 509.83 345.06L512.731 348.219Z" stroke="#1100A5" stroke-miterlimit="10"/>
<path d="M602.506 193.917C601.642 195.818 601.507 197.971 602.128 199.965C603.192 203.221 605.291 210.917 605.291 210.917C605.291 210.917 609.155 211.952 609.888 210.761C610.622 209.571 619.339 212.507 621.095 209.623L626.569 208.512C626.569 208.512 631.314 203.437 631.392 201.677C631.392 201.677 636.416 195.487 637.722 192.079C637.722 192.079 638.693 186.987 637.562 185.296C637.562 185.296 644.073 179.504 643.706 177.822C643.706 177.822 643.615 172.248 642.52 171.158C642.52 171.158 643.439 163.867 642.881 163.127C642.881 163.127 639.921 160.15 636.534 160.93C636.534 160.93 631.059 154.007 627.196 154.359C627.196 154.359 623.653 153.286 616.127 156.684L610.478 156.516L606.385 162.945L600.09 165.224L599.988 167.578L600.926 169.485C600.926 169.485 599.272 172.22 599.803 173.677C600.334 175.135 603.559 176.93 603.559 176.93C603.559 176.93 602.057 178.091 602.052 178.69C602.047 179.289 601.579 181.421 601.579 181.421L604.947 183.649L602.42 185.353C602.42 185.353 601.592 186.974 602.161 187.789C602.729 188.604 602.506 193.917 602.506 193.917Z" fill="#2B2525"/>
<path opacity="0.6" d="M639.616 183.31C641.486 181.471 643.919 178.842 643.702 177.8C643.702 177.8 643.611 172.226 642.516 171.136C642.516 171.136 643.434 163.845 642.877 163.106C642.877 163.106 639.916 160.128 636.529 160.908C636.529 160.908 631.054 153.985 627.192 154.337C627.192 154.337 623.649 153.264 616.123 156.662L610.478 156.516L606.385 162.945L600.09 165.224L599.988 167.578L600.926 169.485C600.681 169.903 600.462 170.335 600.269 170.779L603.731 169.45L607.29 170L610.578 164.141L613.709 164.318C613.709 164.318 616.088 162.315 615.533 160.448C615.921 160.583 616.278 160.794 616.584 161.068C616.89 161.342 617.139 161.675 617.316 162.045C617.492 162.416 617.594 162.818 617.615 163.229C617.635 163.639 617.574 164.05 617.435 164.436L619.039 164.866L620.259 160.814L617.51 158.4L620.959 159.013L622.787 162.547L621.24 167.816L624.726 172.581L626.64 170.847L630.526 172.147L631.276 175.257L633.877 171.461L634.917 164.607L632.057 161.987L635.414 163.021L636.937 164.755L635.515 172.034L637.09 177.478L639.128 172.847L640.352 172.14L641.103 175.25L639.616 183.31Z" fill="#6D3DFF"/>
<path d="M602.506 193.917C601.642 195.818 601.507 197.971 602.128 199.965C603.192 203.221 605.291 210.917 605.291 210.917C605.291 210.917 609.155 211.952 609.888 210.761C610.622 209.571 619.339 212.507 621.095 209.623L626.569 208.512C626.569 208.512 631.314 203.437 631.392 201.677C631.392 201.677 636.416 195.487 637.722 192.079C637.722 192.079 638.693 186.987 637.562 185.296C637.562 185.296 644.073 179.504 643.706 177.822C643.706 177.822 643.615 172.248 642.52 171.158C642.52 171.158 643.439 163.867 642.881 163.127C642.881 163.127 639.921 160.15 636.534 160.93C636.534 160.93 631.059 154.007 627.196 154.359C627.196 154.359 623.653 153.286 616.127 156.684L610.478 156.516L606.385 162.945L600.09 165.224L599.988 167.578L600.926 169.485C600.926 169.485 599.272 172.22 599.803 173.677C600.334 175.135 603.559 176.93 603.559 176.93C603.559 176.93 602.057 178.091 602.052 178.69C602.047 179.289 601.579 181.421 601.579 181.421L604.947 183.649L602.42 185.353C602.42 185.353 601.592 186.974 602.161 187.789C602.729 188.604 602.506 193.917 602.506 193.917Z" stroke="#1100A5" stroke-miterlimit="10"/>
<path d="M532.138 116.258C531.907 114.726 529.874 103.228 529.972 100.273C530.07 97.3174 525.979 87.8975 525.979 87.8975L529.393 80.9131C529.393 80.9131 532.071 67.0541 537.601 62.3345C537.601 62.3345 538.682 51.847 541.175 50.4651C541.175 50.4651 554.353 44.2853 558.987 44.6883C563.62 45.0913 572.217 37.0419 583.429 61.6525C594.641 86.263 600.187 87.6662 598.465 95.4456C596.743 103.225 591.831 118.235 593.659 129.802C595.488 141.37 582.716 142.399 582.716 142.399C582.716 142.399 585.576 152.048 571.378 152.064L559.303 154.357C559.303 154.357 543.668 146.254 542.136 140.574L540.373 134.635C540.373 134.635 535.211 136.472 532.138 116.258Z" fill="#2B2525"/>
<path opacity="0.6" d="M598.384 90.3405C597.019 85.5025 591.807 80.1098 583.4 61.6447C572.217 37.0419 563.623 45.0816 558.958 44.6805C554.293 44.2794 541.146 50.4573 541.146 50.4573C538.648 51.8585 537.572 62.3268 537.572 62.3268C535.759 64.0552 534.318 66.1348 533.336 68.4386L536.38 66.0035L539.037 64.469L544.068 58.0212L546.028 57.1179C546.028 57.1179 549.222 57.0212 548.849 64.3236C548.477 71.626 547.9 73.3142 547.9 73.3142C547.9 73.3142 555.273 60.0921 551.316 56.1226L550.345 52.8291L553.764 51.8921L556.266 54.4157L557.752 53.7785L561.43 56.6275L560.507 61.0388L563.839 61.9317C563.839 61.9317 566.069 69.3725 564.447 73.9589C562.825 78.5453 568.954 68.0335 568.954 68.0335L570.137 63.6192L572.45 66.3094L574.668 77.3497L586.054 79.2102L582.185 92.1808L588.1 94.2936L591.155 90.6191L598.384 90.3405Z" fill="#6D3DFF"/>
<path d="M532.138 116.258C531.907 114.726 529.874 103.228 529.972 100.273C530.07 97.3174 525.979 87.8975 525.979 87.8975L529.393 80.9131C529.393 80.9131 532.071 67.0541 537.601 62.3345C537.601 62.3345 538.682 51.847 541.175 50.4651C541.175 50.4651 554.353 44.2853 558.987 44.6883C563.62 45.0913 572.217 37.0419 583.429 61.6525C594.641 86.263 600.187 87.6662 598.465 95.4456C596.743 103.225 591.831 118.235 593.659 129.802C595.488 141.37 582.716 142.399 582.716 142.399C582.716 142.399 585.576 152.048 571.378 152.064L559.303 154.357C559.303 154.357 543.668 146.254 542.136 140.574L540.373 134.635C540.373 134.635 535.211 136.472 532.138 116.258Z" stroke="#1100A5" stroke-miterlimit="10"/>
<path d="M668.723 7.80318L665.491 9.00775C665.491 9.00775 663.492 13.4932 662.536 15.0902C661.58 16.6872 665.089 21.3648 665.089 21.3648C665.089 21.3648 665.589 27.845 667.604 29.441C667.604 29.441 666.919 34.2785 671.604 35.5337C671.604 35.5337 679.731 41.6765 682.038 37.0046L688.971 36.5536C688.971 36.5536 696.829 33.0375 695.667 30.8834L698.722 27.2089C698.05 25.1698 697.526 23.0849 697.153 20.9703C697.153 20.9703 698.373 18.388 692.951 12.97L682.737 2.13719C682.737 2.13719 677.109 1.8509 675.673 3.84736L670.982 1.26512C670.033 2.03551 669.318 3.05616 668.919 4.2116C668.519 5.36703 668.451 6.61114 668.723 7.80318V7.80318Z" fill="#2B2525"/>
<path opacity="0.6" d="M697.404 28.9987L698.642 27.5083C697.967 25.4856 697.438 23.4168 697.06 21.318C697.06 21.318 698.28 18.7358 692.858 13.3177L682.643 2.48494C682.643 2.48494 677.016 2.19862 675.58 4.19508L670.889 1.61284C669.937 2.38055 669.219 3.39934 668.816 4.55389C668.414 5.70845 668.342 6.95269 668.61 8.14575L665.378 9.35032L664.743 10.7538L665.872 10.4041L668.992 10.0806L670.58 5.39175L674.132 7.20285L674.234 10.2634C674.234 10.2634 676.032 11.9358 677.718 9.35414C679.403 6.77244 680.875 10.1277 679.15 13.6305C677.424 17.1333 688.62 16.4993 688.62 16.4993L691.715 24.2651L687.699 30.1356L693.014 26.7975L693.765 23.9963L693.32 19.0113L695.499 23.4361C695.397 25.1179 695.194 26.7921 694.891 28.4495C694.673 28.5259 689.868 32.1248 689.868 32.1248L694.815 30.9345L696.109 28.5791L697.422 28.9311" fill="#6D3DFF"/>
<path d="M668.723 7.80318L665.491 9.00775C665.491 9.00775 663.492 13.4932 662.536 15.0902C661.58 16.6872 665.089 21.3648 665.089 21.3648C665.089 21.3648 665.589 27.845 667.604 29.441C667.604 29.441 666.919 34.2785 671.604 35.5337C671.604 35.5337 679.731 41.6765 682.038 37.0046L688.971 36.5536C688.971 36.5536 696.829 33.0375 695.667 30.8834L698.722 27.2089C698.05 25.1698 697.526 23.0849 697.153 20.9703C697.153 20.9703 698.373 18.388 692.951 12.97L682.737 2.13719C682.737 2.13719 677.109 1.8509 675.673 3.84736L670.982 1.26512C670.033 2.03551 669.318 3.05616 668.919 4.2116C668.519 5.36703 668.451 6.61114 668.723 7.80318V7.80318Z" stroke="#1100A5" stroke-miterlimit="10"/>
<path d="M234.491 78.6083C234.491 78.6083 227.814 75.6701 225.042 76.8945C222.271 78.119 218.381 83.0917 218.381 83.0917L217.763 88.1025L215.254 94.5321C215.254 94.5321 215.151 96.9269 216.653 96.4185L213.623 101.352C213.623 101.352 215.548 105.181 216.4 104.705C217.252 104.23 213.951 108.087 213.951 108.087C213.951 108.087 216.775 116.867 224.079 114.993L230.637 114.162L234.701 108.232C234.701 108.232 237.6 104.868 238.889 104.696C240.177 104.523 242.537 100.818 242.458 100.61C242.379 100.403 247.735 89.839 244.634 87.1549C241.533 84.4709 241.279 82.56 234.491 78.6083Z" fill="#2B2525"/>
<path d="M420.614 254.98C419.938 254.799 414.851 252.691 412.37 255.38C409.889 258.07 408.934 260.94 414.326 264.383C419.719 267.826 423.284 260.779 423.284 260.779C423.284 260.779 423.187 255.732 420.614 254.98Z" fill="#2B2525"/>
<path d="M420.614 254.98C419.938 254.799 414.851 252.691 412.37 255.38C409.889 258.07 408.934 260.94 414.326 264.383C419.719 267.826 423.284 260.779 423.284 260.779C423.284 260.779 423.187 255.732 420.614 254.98Z" stroke="#1100A5" stroke-miterlimit="10"/>
<path d="M124.785 150.887C124.785 150.887 120.109 156.053 125.049 156.393C129.99 156.734 130.867 150.602 130.867 150.602C129.963 149.973 128.877 149.661 127.778 149.712C126.678 149.764 125.626 150.177 124.785 150.887V150.887Z" fill="#2B2525"/>
<path d="M124.785 150.887C124.785 150.887 120.109 156.053 125.049 156.393C129.99 156.734 130.867 150.602 130.867 150.602C129.963 149.973 128.877 149.661 127.778 149.712C126.678 149.764 125.626 150.177 124.785 150.887V150.887Z" stroke="#1100A5" stroke-miterlimit="10"/>
<path d="M240.589 199.579C240.589 199.579 237.511 198.857 237.2 201.486C236.889 204.116 235.79 208.294 239.242 207.697C240.095 207.491 240.868 207.038 241.466 206.396C242.063 205.753 242.458 204.949 242.602 204.083C242.746 203.218 242.631 202.329 242.273 201.528C241.915 200.727 241.33 200.049 240.589 199.579V199.579Z" fill="#2B2525"/>
<path d="M247.956 199.979C247.677 200.018 246.636 199.884 246.138 200.776C245.808 201.502 245.626 202.288 245.602 203.086L245.261 204.361C245.261 204.361 247.952 208.188 249.252 208.784C250.551 209.381 252.606 205.035 252.606 205.035C252.606 205.035 252.978 199.358 247.956 199.979Z" fill="#2B2525"/>
<path d="M240.605 199.945C240.605 199.945 237.527 199.224 237.218 201.843C236.91 204.463 235.793 208.708 239.258 208.063C240.111 207.857 240.884 207.405 241.481 206.762C242.079 206.12 242.474 205.315 242.618 204.45C242.761 203.584 242.647 202.696 242.289 201.895C241.931 201.094 241.345 200.416 240.605 199.945V199.945Z" stroke="#1100A5" stroke-miterlimit="10"/>
<path d="M247.972 200.346C247.693 200.385 246.664 200.244 246.154 201.142C245.823 201.869 245.641 202.654 245.618 203.452L245.276 204.727C245.276 204.727 247.967 208.554 249.267 209.151C250.567 209.748 252.622 205.401 252.622 205.401C252.622 205.401 252.994 199.724 247.972 200.346Z" stroke="#1100A5" stroke-miterlimit="10"/>
<path d="M490.908 103.451C491.065 103.375 491.197 103.256 491.289 103.109C491.382 102.962 491.431 102.792 491.432 102.618C491.375 102.212 491.237 101.823 491.024 101.473L490.828 100.851C489.9 100.464 488.919 100.218 487.918 100.123C487.2 100.252 487.573 102.609 487.573 102.609C487.573 102.609 488.976 105.097 490.908 103.451Z" fill="#2B2525"/>
<path d="M494.033 101.565C494.033 101.565 495.507 101.008 494.908 99.8429C494.309 98.6782 493.597 96.6238 492.339 97.8397C492.043 98.1607 491.848 98.562 491.778 98.9933C491.709 99.4247 491.768 99.8669 491.949 100.265C492.13 100.662 492.424 100.998 492.795 101.229C493.165 101.461 493.596 101.577 494.033 101.565V101.565Z" fill="#2B2525"/>
<path d="M494.033 101.565C494.033 101.565 495.507 101.008 494.908 99.8429C494.309 98.6782 493.597 96.6238 492.339 97.8397C492.043 98.1607 491.848 98.562 491.778 98.9933C491.709 99.4247 491.768 99.8669 491.949 100.265C492.13 100.662 492.424 100.998 492.795 101.229C493.165 101.461 493.596 101.577 494.033 101.565V101.565Z" stroke="#1100A5" stroke-miterlimit="10"/>
<path d="M490.908 103.451C491.065 103.375 491.197 103.256 491.289 103.109C491.382 102.962 491.431 102.792 491.432 102.618C491.375 102.212 491.237 101.823 491.024 101.473L490.828 100.851C489.9 100.464 488.919 100.218 487.918 100.123C487.2 100.252 487.573 102.609 487.573 102.609C487.573 102.609 488.976 105.097 490.908 103.451Z" stroke="#1100A5" stroke-miterlimit="10"/>
<path d="M53.3953 96.6315C54.1347 95.6494 60.9714 85.2029 65.7336 87.9077C70.4959 90.6124 61.2438 103.041 61.2438 103.041L53.7203 103.417C53.7203 103.417 52.0482 98.4136 53.3953 96.6315Z" fill="#2B2525"/>
<path d="M53.3953 96.6315C54.1347 95.6494 60.9714 85.2029 65.7336 87.9077C70.4959 90.6124 61.2438 103.041 61.2438 103.041L53.7203 103.417C53.7203 103.417 52.0482 98.4136 53.3953 96.6315Z" stroke="#1100A5" stroke-miterlimit="10"/>
<path d="M103.809 48.4271C103.489 48.2923 103.145 48.2237 102.798 48.2255C102.451 48.2273 102.108 48.2995 101.789 48.4376C101.471 48.5758 101.183 48.777 100.945 49.0293C100.706 49.2815 100.521 49.5795 100.401 49.9052C99.4257 52.3461 96.8004 56.4256 99.0117 57.0595C101.223 57.6934 109.923 57.9126 103.809 48.4271Z" fill="#2B2525"/>
<path d="M91.3423 56.0087C91.3423 56.0087 86.2966 53.8596 85.9407 56.2696C85.5848 58.6796 90.2224 64.3222 92.682 62.0203C95.1416 59.7185 91.3423 56.0087 91.3423 56.0087Z" fill="#2B2525"/>
<path d="M95.2695 51.8225C94.7885 51.3723 94.1892 51.0684 93.5418 50.9462C92.8943 50.8241 92.2255 50.8888 91.6135 51.1328C89.6967 52.0272 92.1565 54.9018 92.1565 54.9018C92.1565 54.9018 95.28 56.5359 95.45 55.5151C95.45 55.5151 97.7841 55.7678 97.0986 53.6896L95.2695 51.8225Z" fill="#2B2525"/>
<path d="M103.787 48.628C103.467 48.4932 103.123 48.4247 102.775 48.4265C102.428 48.4283 102.085 48.5004 101.766 48.6386C101.448 48.7767 101.16 48.978 100.922 49.2302C100.683 49.4825 100.498 49.7804 100.378 50.1062C99.4028 52.547 96.7775 56.6265 98.9791 57.2579C101.181 57.8892 109.9 58.1135 103.787 48.628Z" stroke="#1100A5" stroke-miterlimit="10"/>
<path d="M91.3098 56.2071C91.3098 56.2071 86.2642 54.0579 85.9179 56.4705C85.5717 58.8831 90.1997 64.5231 92.6592 62.2213C95.1188 59.9194 91.3098 56.2071 91.3098 56.2071Z" stroke="#1100A5" stroke-miterlimit="10"/>
<path d="M95.2468 52.0235C94.7639 51.5731 94.1631 51.269 93.5142 51.1464C92.8653 51.0239 92.195 51.0879 91.581 51.3311C89.6739 52.2281 92.1337 55.1027 92.1337 55.1027C92.1337 55.1027 95.2573 56.7368 95.4272 55.716C95.4272 55.716 97.7614 55.9688 97.0759 53.8905L95.2468 52.0235Z" stroke="#1100A5" stroke-miterlimit="10"/>
<path d="M509.096 73.166C509.27 73.0553 509.419 72.9107 509.535 72.7409C509.652 72.571 509.732 72.3795 509.773 72.1777C509.814 71.976 509.813 71.7681 509.771 71.5665C509.73 71.365 509.648 71.1739 509.53 71.0048C508.659 69.736 507.569 67.0421 506.512 67.8976C505.454 68.7531 502.398 72.9345 509.096 73.166Z" fill="#2B2525"/>
<path d="M510.333 67.8552C510.715 67.7732 511.065 67.5844 511.344 67.3108C511.623 67.0372 511.818 66.69 511.907 66.3098C512.124 65.0739 509.891 65.2935 509.891 65.2935C509.891 65.2935 508.036 66.2665 508.48 66.696C508.48 66.696 507.577 67.7481 508.812 68.1206L510.333 67.8552Z" fill="#2B2525"/>
<path d="M509.623 64.5175C509.623 64.5175 512.373 62.7906 511.323 61.8051C510.272 60.8196 505.948 61.1519 506.221 63.1504C506.493 65.1489 509.623 64.5175 509.623 64.5175Z" fill="#2B2525"/>
<path d="M509.096 73.166C509.27 73.0553 509.419 72.9107 509.535 72.7409C509.652 72.571 509.732 72.3795 509.773 72.1777C509.814 71.976 509.813 71.7681 509.771 71.5665C509.73 71.365 509.648 71.1739 509.53 71.0048C508.659 69.736 507.569 67.0421 506.512 67.8976C505.454 68.7531 502.398 72.9345 509.096 73.166Z" stroke="#1100A5" stroke-miterlimit="10"/>
<path d="M509.623 64.5175C509.623 64.5175 512.373 62.7906 511.323 61.8051C510.272 60.8196 505.948 61.1519 506.221 63.1504C506.493 65.1489 509.623 64.5175 509.623 64.5175Z" stroke="#1100A5" stroke-miterlimit="10"/>
<path d="M510.333 67.8552C510.715 67.7732 511.065 67.5844 511.344 67.3108C511.623 67.0372 511.818 66.69 511.907 66.3098C512.124 65.0739 509.891 65.2935 509.891 65.2935C509.891 65.2935 508.036 66.2665 508.48 66.696C508.48 66.696 507.577 67.7481 508.812 68.1206L510.333 67.8552Z" stroke="#1100A5" stroke-miterlimit="10"/>
<path d="M497.582 143.337C497.902 143.226 501.21 140.23 499.498 139.202L499.1 137.211C499.1 137.211 498.263 136.469 497.885 137.03L497.676 135.297L496.53 134.669L494.021 133.293L493.552 132.298C493.552 132.298 490.623 131.637 489.886 134.08C489.149 136.522 485.321 143.002 485.321 143.002C485.321 143.002 485.052 145.901 486.543 147.367C487.38 148.208 488.353 148.902 489.419 149.422L491.333 147.998C491.333 147.998 491.406 149.001 492.929 148.147C494.452 147.292 497.582 143.337 497.582 143.337Z" fill="#2B2525"/>
<path opacity="0.6" d="M489.832 149.118L491.333 147.998C491.333 147.998 491.406 149.001 492.929 148.147C494.452 147.292 497.582 143.337 497.582 143.337C497.902 143.226 501.21 140.23 499.498 139.202L499.1 137.211C499.1 137.211 498.263 136.469 497.885 137.03L497.676 135.297L496.53 134.669L494.021 133.293L493.552 132.298C493.221 132.224 492.882 132.192 492.542 132.203L493.031 132.852L492.981 134.236C492.981 134.236 494.943 136.418 494.973 137.079C495.151 137.883 495.226 138.707 495.196 139.53C495.196 139.53 498.063 140.112 495.061 141.968L495.846 142.323L495.747 142.69L493.985 143.936L488.17 148.248C488.17 148.248 489.314 149.507 489.832 149.118Z" fill="#6D3DFF"/>
<path d="M497.582 143.337C497.902 143.226 501.21 140.23 499.498 139.202L499.1 137.211C499.1 137.211 498.263 136.469 497.885 137.03L497.676 135.297L496.53 134.669L494.021 133.293L493.552 132.298C493.552 132.298 490.623 131.637 489.886 134.08C489.149 136.522 485.321 143.002 485.321 143.002C485.321 143.002 485.052 145.901 486.543 147.367C487.38 148.208 488.353 148.902 489.419 149.422L491.333 147.998C491.333 147.998 491.406 149.001 492.929 148.147C494.452 147.292 497.582 143.337 497.582 143.337Z" stroke="#1100A5" stroke-miterlimit="10"/>
<path d="M414.767 68.3166L415.366 62.8349L411.751 57.9737C411.751 57.9737 411.703 55.4865 402.838 49.1252C393.972 42.7638 386.485 34.6597 384.163 39.2659C382.784 41.9099 382.002 44.825 381.875 47.8047L379.299 49.6922L379.895 58.2479C379.895 58.2479 378.331 60.4897 380.51 63.9102C382.689 67.3307 393.474 88.0893 402.482 88.5877C411.49 89.0861 415.423 78.928 415.423 78.928L414.767 68.3166Z" fill="#2B2525"/>
<path opacity="0.6" d="M406.51 88.083C412.705 86.0575 415.481 78.9435 415.481 78.9435L414.767 68.3166L415.366 62.8349L411.751 57.9737C411.751 57.9737 411.703 55.4865 402.838 49.1252C393.972 42.7638 386.485 34.6597 384.163 39.2659L383.799 40.0069C383.799 40.0069 399.524 51.8711 400.498 53.9954C401.854 56.6945 402.559 59.6739 402.556 62.6946L407.309 67.7157C407.309 67.7157 405.176 73.0455 406.938 75.7846L405.407 82.3835L406.96 82.9651L406.22 85.7276L406.51 88.083Z" fill="#6D3DFF"/>
<path d="M414.767 68.3166L415.366 62.8349L411.751 57.9737C411.751 57.9737 411.703 55.4865 402.838 49.1252C393.972 42.7638 386.485 34.6597 384.163 39.2659C382.784 41.9099 382.002 44.825 381.875 47.8047L379.299 49.6922L379.895 58.2479C379.895 58.2479 378.331 60.4897 380.51 63.9102C382.689 67.3307 393.474 88.0893 402.482 88.5877C411.49 89.0861 415.423 78.928 415.423 78.928L414.767 68.3166Z" stroke="#1100A5" stroke-miterlimit="10"/>
<path d="M406.087 135.561C406.567 135.472 406.972 133.728 406.972 133.728C406.972 133.728 402.54 131.567 401.27 131.827C399.999 132.087 399.033 134.261 399.033 134.261L398.804 135.774C398.804 135.774 399.397 140.747 400.155 140.856C400.912 140.966 404.01 140.958 405.576 138.706C407.142 136.455 406.552 136.763 406.552 136.763L406.087 135.561Z" fill="#2B2525"/>
<path d="M404.283 128.773C404.622 128.667 407.304 128.123 407.579 126.323C407.854 124.523 407.418 123.06 404.29 123.143C401.162 123.226 401.586 127.129 401.586 127.129C401.586 127.129 403.024 129.181 404.283 128.773Z" fill="#2B2525"/>
<path d="M409.184 113.418C409.184 113.418 411.336 112.494 410.781 110.471C410.226 108.449 408.002 105.658 405.204 107.331C402.405 109.004 404.696 112.278 404.696 112.278C404.696 112.278 407.848 114.541 409.184 113.418Z" fill="#2B2525"/>
<path d="M428.045 124.125C428.276 123.959 429.548 122.768 428.975 121.506C428.867 121.165 428.676 120.856 428.419 120.607C428.163 120.358 427.848 120.176 427.505 120.077L427.657 119.507C427.657 119.507 424.538 117.74 424.083 118.705C423.628 119.67 424.686 122.407 424.686 122.407L425.257 124.755L426.504 124.737L428.045 124.125Z" fill="#2B2525"/>
<path d="M430.411 117.46C430.411 117.46 432.475 116.056 432.655 114.842C432.836 113.627 431.839 110.161 428.582 110.996C425.324 111.832 427.264 115.913 427.264 115.913L430.411 117.46Z" fill="#2B2525"/>
<path d="M409.184 113.418C409.184 113.418 411.336 112.494 410.781 110.471C410.226 108.449 408.002 105.658 405.204 107.331C402.405 109.004 404.696 112.278 404.696 112.278C404.696 112.278 407.848 114.541 409.184 113.418Z" stroke="#1100A5" stroke-miterlimit="10"/>
<path d="M430.411 117.46C430.411 117.46 432.475 116.056 432.655 114.842C432.836 113.627 431.839 110.161 428.582 110.996C425.324 111.832 427.264 115.913 427.264 115.913L430.411 117.46Z" stroke="#1100A5" stroke-miterlimit="10"/>
<path d="M404.283 128.773C404.622 128.667 407.304 128.123 407.579 126.323C407.854 124.523 407.418 123.06 404.29 123.143C401.162 123.226 401.586 127.129 401.586 127.129C401.586 127.129 403.024 129.181 404.283 128.773Z" stroke="#1100A5" stroke-miterlimit="10"/>
<path d="M428.045 124.125C428.276 123.959 429.548 122.768 428.975 121.506C428.867 121.165 428.676 120.856 428.419 120.607C428.163 120.358 427.848 120.176 427.505 120.077L427.657 119.507C427.657 119.507 424.538 117.74 424.083 118.705C423.628 119.67 424.686 122.407 424.686 122.407L425.257 124.755L426.504 124.737L428.045 124.125Z" stroke="#1100A5" stroke-miterlimit="10"/>
<path opacity="0.6" d="M401.893 140.743C400.949 141.525 404.615 140.012 405.568 138.621C407.131 136.379 406.544 136.678 406.544 136.678L406.098 135.523C406.577 135.434 406.982 133.689 406.982 133.689C406.982 133.689 405.149 132.805 403.55 132.242C403.973 132.752 404.334 133.311 404.626 133.907C404.626 133.907 404.674 135.348 404.232 135.799L404.45 137.421C403.682 138.59 402.827 139.7 401.893 140.743V140.743Z" fill="#6D3DFF"/>
<path d="M406.087 135.561C406.567 135.472 406.972 133.728 406.972 133.728C406.972 133.728 402.54 131.567 401.27 131.827C399.999 132.087 399.033 134.261 399.033 134.261L398.804 135.774C398.804 135.774 399.397 140.747 400.155 140.856C400.912 140.966 404.01 140.958 405.576 138.706C407.142 136.455 406.552 136.763 406.552 136.763L406.087 135.561Z" stroke="#1100A5" stroke-miterlimit="10"/>
<path d="M402.169 153.353C402.169 153.353 405.309 147.776 399.137 142.375C392.965 136.973 398.633 141.204 398.633 141.204L398.114 136.686L392.626 131.861C392.626 131.861 388.125 125.479 384.681 125.891L379.283 122.623C379.283 122.623 366.656 122.801 362.145 126.075C361.852 126.291 361.579 126.533 361.33 126.799C357.811 130.774 358.966 132.377 358.966 132.377L357.718 139.776C357.718 139.776 358.961 145.068 361.72 147.329C361.778 148.868 362.314 150.351 363.254 151.571L364.078 154.483C364.078 154.483 365.363 157.84 368.182 157.095C369.298 156.793 373.821 158.305 373.821 158.305L373.004 160.312L377.306 162.997L384.316 162.101L387.007 160.638C387.007 160.638 392.724 161.786 395.753 161.148L402.012 156.49L402.169 153.353Z" fill="#2B2525"/>
<path opacity="0.6" d="M388.746 161.217C391.069 161.646 393.444 161.72 395.789 161.438L402.045 156.789L402.184 153.72C402.184 153.72 405.325 148.143 399.15 142.751C392.975 137.359 398.646 141.581 398.646 141.581L398.127 137.062L392.642 132.228C392.642 132.228 388.14 125.845 384.694 126.268L380.321 123.616C380.321 123.616 382.689 127.066 382.273 129.118L385.828 136.562L389.322 138.202L391.214 144.279C391.214 144.279 394.804 148.347 393.929 151.032L395.153 153.803L394.018 155.569L390.06 156.196L390.713 157.624L388.746 161.217Z" fill="#6D3DFF"/>
<path d="M402.187 153.71C402.187 153.71 405.328 148.133 399.153 142.741C392.978 137.349 398.648 141.571 398.648 141.571L398.13 137.053L392.644 132.218C392.644 132.218 388.143 125.836 384.696 126.258L379.298 122.99C379.298 122.99 366.672 123.168 362.161 126.442C361.866 126.655 361.593 126.898 361.346 127.165C357.827 131.14 358.981 132.744 358.981 132.744L357.731 140.152C357.731 140.152 358.977 145.435 361.735 147.696C361.794 149.235 362.33 150.717 363.27 151.937L364.091 154.86C364.091 154.86 365.376 158.217 368.195 157.471C369.312 157.169 373.834 158.682 373.834 158.682L373.017 160.688L377.321 163.364L384.332 162.468L387.023 161.004C387.023 161.004 392.74 162.153 395.768 161.515L402.025 156.866L402.187 153.71Z" stroke="#1100A5" stroke-miterlimit="10"/>
<path d="M281.431 126.323C280.764 126.145 271.908 127.436 273.608 131.06L272.061 134.786C272.061 134.786 272.605 136.93 273.886 136.435L272.294 139.559L273.524 142.001L276.164 147.098L275.836 149.288C275.836 149.288 279.957 153.653 283.939 150.423C287.92 147.194 301.52 140.64 301.52 140.64C301.52 140.64 305.217 136.113 304.369 132.014C303.907 129.673 303.062 127.425 301.866 125.359L297.094 125.592C297.094 125.592 298.104 123.792 294.602 123.568C291.101 123.345 281.431 126.323 281.431 126.323Z" fill="#2B2525"/>
<path opacity="0.6" d="M288.313 147.506C293.819 144.302 301.471 140.627 301.471 140.627C301.471 140.627 305.169 136.1 304.321 132.001C303.859 129.66 303.013 127.412 301.818 125.347L297.045 125.579C297.045 125.579 298.056 123.779 294.554 123.555C292.951 123.55 291.352 123.741 289.795 124.123C289.795 124.123 293.987 125.402 292.802 127.776L297.288 129.154L297.907 131.442L296.818 132.879L297.525 134.104C296.85 134.6 296.372 135.319 296.174 136.133L294.694 139.878C294.694 139.878 291.192 141.01 290.772 142.616L290.988 144.051C290.988 144.051 289.315 142.567 289.334 144.353L288.811 145.683L287.468 146.255L288.347 146.49L288.313 147.506Z" fill="#6D3DFF"/>
<path d="M281.431 126.323C280.764 126.145 271.908 127.436 273.608 131.06L272.061 134.786C272.061 134.786 272.605 136.93 273.886 136.435L272.294 139.559L273.524 142.001L276.164 147.098L275.836 149.288C275.836 149.288 279.957 153.653 283.939 150.423C287.92 147.194 301.52 140.64 301.52 140.64C301.52 140.64 305.217 136.113 304.369 132.014C303.907 129.673 303.062 127.425 301.866 125.359L297.094 125.592C297.094 125.592 298.104 123.792 294.602 123.568C291.101 123.345 281.431 126.323 281.431 126.323Z" stroke="#1100A5" stroke-miterlimit="10"/>
<path d="M451.993 215.766C451.993 215.766 440.527 221.545 444.788 237.439C449.049 253.334 444.26 239.99 444.26 239.99L440.084 248.116L443.812 262.294C443.812 262.294 444.151 277.913 450.394 281.119L455.75 292.617C455.75 292.617 476.988 306.434 488.175 306.026C488.901 306.001 489.622 305.9 490.327 305.722C500.64 303.05 500.451 299.118 500.451 299.118L510.769 288.196C510.769 288.196 514.628 278.008 512.555 271.137C512.555 271.137 515.376 266.716 514.743 262.354L516.63 256.586C516.63 256.586 518.248 249.545 512.713 247.637C510.506 246.87 504.671 239.322 504.671 239.322L508.275 236.882L504.104 227.606L491.415 221.256L485.303 220.653C485.303 220.653 477.062 212.347 471.296 210.026L455.669 210.777L451.993 215.766Z" fill="#2B2525"/>
<path opacity="0.6" d="M493.05 304.909C500.596 302.324 500.436 299.134 500.436 299.134L510.769 288.196C510.769 288.196 514.628 278.008 512.555 271.137C512.555 271.137 515.376 266.716 514.743 262.354L516.63 256.586C516.63 256.586 518.248 249.545 512.713 247.637C510.506 246.87 504.671 239.322 504.671 239.322L508.275 236.882L504.104 227.606L491.415 221.256L485.303 220.653C485.303 220.653 477.062 212.347 471.296 210.026L464.208 210.363L469.558 213.153L478.495 223.188L484.355 227.398L494.653 230.385C494.653 230.385 491.457 239.105 492.612 242.096L497.973 241.834L505.744 249.652C505.744 249.652 511.756 256.967 510.109 261.837L510.009 265.61L507.417 266.592L509.036 270.132L507.44 273.11L507.049 276.888L501.616 284.532L504.426 289.499L500.843 293.29L493.05 304.909Z" fill="#6D3DFF"/>
<path d="M451.993 215.766C451.993 215.766 440.527 221.545 444.788 237.439C449.049 253.334 444.26 239.99 444.26 239.99L440.084 248.116L443.812 262.294C443.812 262.294 444.151 277.913 450.394 281.119L455.75 292.617C455.75 292.617 476.988 306.434 488.175 306.026C488.901 306.001 489.622 305.9 490.327 305.722C500.64 303.05 500.451 299.118 500.451 299.118L510.769 288.196C510.769 288.196 514.628 278.008 512.555 271.137C512.555 271.137 515.376 266.716 514.743 262.354L516.63 256.586C516.63 256.586 518.248 249.545 512.713 247.637C510.506 246.87 504.671 239.322 504.671 239.322L508.275 236.882L504.104 227.606L491.415 221.256L485.303 220.653C485.303 220.653 477.062 212.347 471.296 210.026L455.669 210.777L451.993 215.766Z" stroke="#1100A5" stroke-miterlimit="10"/>
<path d="M364.41 244.621C364.41 244.621 359.403 244.646 357.709 246.449C356.015 248.252 353.779 255.127 360.182 257.464C366.586 259.801 367.907 250.775 367.907 250.775L364.41 244.621Z" fill="#2B2525"/>
<path d="M375.82 236.155C375.242 236.187 371.781 236.74 371.34 239.469C371.162 240.155 371.151 240.875 371.31 241.566C371.469 242.258 371.793 242.901 372.253 243.44L371.424 244.254C371.424 244.254 374.644 250.707 376.472 249.602C378.3 248.498 379.622 242.754 379.622 242.754L381.287 238.2L379.195 236.853L375.82 236.155Z" fill="#2B2525"/>
<path d="M364.41 244.621C364.41 244.621 359.403 244.646 357.709 246.449C356.015 248.252 353.779 255.127 360.182 257.464C366.586 259.801 367.907 250.775 367.907 250.775L364.41 244.621Z" stroke="#1100A5" stroke-miterlimit="10"/>
<path opacity="0.6" d="M377.042 249.061C378.551 247.292 379.62 242.723 379.62 242.723L381.285 238.168L379.183 236.818L378.43 236.617L378.987 239.095L378.203 239.548C378.203 239.548 377.91 243.465 377.554 243.981L377.719 244.833L377.059 246.136L377.09 249.074" fill="#6D3DFF"/>
<path d="M375.82 236.155C375.242 236.187 371.781 236.74 371.34 239.469C371.162 240.155 371.151 240.875 371.31 241.566C371.469 242.258 371.793 242.901 372.253 243.44L371.424 244.254C371.424 244.254 374.644 250.707 376.472 249.602C378.3 248.498 379.622 242.754 379.622 242.754L381.287 238.2L379.195 236.853L375.82 236.155Z" stroke="#1100A5" stroke-miterlimit="10"/>
<path opacity="0.6" d="M221.481 115.26C222.352 115.326 223.227 115.245 224.071 115.022L230.63 114.191L234.693 108.261C234.693 108.261 237.592 104.897 238.881 104.725C240.17 104.552 242.529 100.847 242.45 100.639C242.371 100.432 247.728 89.8679 244.627 87.1839C241.91 84.8411 241.382 83.0639 236.745 80.0095L238.955 84.0491C238.955 84.0491 239.782 87.4905 239.443 88.0209C239.443 88.0209 243.106 90.0376 236.366 100.934L235.578 102.639L236.203 103.552L233.759 107.224C233.759 107.224 233.64 103.807 232.405 105.981C232.405 105.981 229.818 106.323 229.859 107.37C230.069 107.82 230.198 108.303 230.242 108.797L227.727 111.229L225.39 110.758L225.236 112.218L224.282 113.422L222.404 113.592L222.66 114.375L221.481 115.26Z" fill="#6D3DFF"/>
<path d="M234.491 78.6083C234.491 78.6083 227.814 75.6701 225.042 76.8945C222.271 78.119 218.381 83.0917 218.381 83.0917L217.763 88.1025L215.254 94.5321C215.254 94.5321 215.151 96.9269 216.653 96.4185L213.623 101.352C213.623 101.352 215.548 105.181 216.4 104.705C217.252 104.23 213.951 108.087 213.951 108.087C213.951 108.087 216.775 116.867 224.079 114.993L230.637 114.162L234.701 108.232C234.701 108.232 237.6 104.868 238.889 104.696C240.177 104.523 242.537 100.818 242.458 100.61C242.379 100.403 247.735 89.839 244.634 87.1549C241.533 84.4709 241.279 82.56 234.491 78.6083Z" stroke="#1100A5" stroke-miterlimit="10"/>
<path d="M96.2391 94.8392C96.9174 93.7373 101.904 85.29 103.523 83.4567C105.143 81.6234 107.668 73.3967 107.668 73.3967L113.638 70.7828C113.638 70.7828 122.869 63.3796 128.938 63.3701C128.938 63.3701 135.319 57.2531 137.695 57.7345C137.695 57.7345 149.47 60.8895 152.207 63.6936C154.945 66.4977 164.782 66.0276 158.597 87.7573C152.412 109.487 155.21 113.456 149.878 117.515C144.546 121.573 133.258 128.425 128.166 136.802C123.074 145.18 114.345 138.928 114.345 138.928C114.345 138.928 110.946 146.63 101.865 138.948L92.9213 133.881C92.9213 133.881 87.3245 120.227 89.4298 115.77L91.518 111.029C91.518 111.029 87.2395 109.417 96.2391 94.8392Z" fill="#2B2525"/>
<path opacity="0.6" d="M118.235 140.715C121.209 141.595 125.323 141.579 128.239 136.801C133.35 128.429 144.612 121.518 149.932 117.467C155.252 113.416 152.445 109.517 158.641 87.7071C164.837 65.8975 155.026 66.4262 152.249 63.653C151.047 62.6475 149.688 61.8462 148.226 61.281C148.226 61.281 150.733 65.2552 150.138 66.5866C150.138 66.5866 155.844 67.4321 148.29 91.0623L146.346 104.849L142.905 110.232L145.444 113.159L139.947 118.218L133.475 122.012L135.033 122.803L133.437 125.709L129.832 128.884L132.316 129.197L128.982 132.445C128.982 132.445 125.364 138.722 124.241 138.546C123.119 138.369 118.235 140.715 118.235 140.715Z" fill="#6D3DFF"/>
<path d="M95.5981 94.8745C96.279 93.7629 101.263 85.3252 102.882 83.492C104.502 81.6587 107.03 73.4223 107.03 73.4223L112.997 70.8181C112.997 70.8181 122.23 63.4052 128.3 63.3957C128.3 63.3957 134.678 57.2884 137.057 57.7602C137.057 57.7602 148.818 60.9635 151.569 63.7192C154.319 66.475 164.156 66.005 157.961 87.7733C151.766 109.542 154.564 113.47 149.242 117.531C143.92 121.591 132.627 128.463 127.523 136.847C122.418 145.232 113.704 138.963 113.704 138.963C113.704 138.963 110.302 146.675 101.221 138.993L92.232 133.903C92.232 133.903 86.6448 120.252 88.7475 115.805L90.8384 111.054C90.8384 111.054 86.5818 109.437 95.5981 94.8745Z" stroke="#1100A5" stroke-miterlimit="10"/>
<path d="M220.41 238.181C220.41 238.181 200.052 221.742 184.811 224.646C169.57 227.551 158.139 256.416 158.139 256.416L164.919 264.765L162.588 294.598C162.588 294.598 193.721 323.915 206.429 317.33L234.114 310.057C234.114 310.057 241.839 284.475 242.845 273.957L220.41 238.181Z" fill="#2B2525"/>
<path opacity="0.6" d="M202.634 318.394C203.947 318.345 205.234 318.012 206.406 317.417L234.091 310.144C234.091 310.144 241.816 284.562 242.822 274.044L220.369 238.336C220.369 238.336 219.177 237.375 217.163 235.965L219.021 240.045L222.896 251.198L219.188 256.654L219.649 262.389L216.402 267.513L225.125 272.398L221.364 289.331L215.443 289.908L215.062 293.802L218.12 295.45L224.682 292.715L227.381 289.442L227.437 293.598L224.419 296.786L218.623 299.56L212.202 298.875L215.442 301.079L218.892 302.5L222.637 300.346L222.931 303.769L218.648 305.458L212.484 305.473L207.077 299.997L204.125 301.701L196.309 298.571L203.788 303.578L209.252 306.367L211.357 308.328L218.838 308.998L224.987 305.831L228.603 302.307L230.152 305.217L225.049 309.347L213.05 312.789L204.362 310.129L202.632 318.403" fill="#6D3DFF"/>
<path d="M220.41 238.181C220.41 238.181 200.052 221.742 184.811 224.646C169.57 227.551 158.139 256.416 158.139 256.416L164.919 264.765L162.588 294.598C162.588 294.598 193.721 323.915 206.429 317.33L234.114 310.057C234.114 310.057 241.839 284.475 242.845 273.957L220.41 238.181Z" stroke="#1100A5" stroke-miterlimit="10"/>
<path d="M420.466 241.161C419.536 240.767 416.869 243.303 416.869 243.303C416.869 243.303 421.819 251.876 424.3 252.893C426.781 253.91 430.752 251.34 430.752 251.34L432.823 249.058C432.823 249.058 437.388 240.136 436.246 239.105C435.104 238.074 429.942 234.621 424.812 236.611C419.682 238.601 421.006 238.759 421.006 238.759L420.466 241.161Z" fill="#2B2525"/>
<path opacity="0.6" d="M425.129 253.084C427.557 253.373 430.779 251.316 430.779 251.316L432.847 249.044C432.847 249.044 437.412 240.122 436.282 239.084C434.105 237.301 431.435 236.225 428.63 235.998L432.309 239.117L432.675 241.109L430.605 242.19L431.549 243.613C431.438 244.736 431.2 245.843 430.841 246.912L429.614 249.638L427.819 249.612L426.785 250.805L427.159 251.226L426.459 251.908L425.129 253.084Z" fill="#6D3DFF"/>
<path d="M420.466 241.161C419.536 240.767 416.869 243.303 416.869 243.303C416.869 243.303 421.819 251.876 424.3 252.893C426.781 253.91 430.752 251.34 430.752 251.34L432.823 249.058C432.823 249.058 437.388 240.136 436.246 239.105C435.104 238.074 429.942 234.621 424.812 236.611C419.682 238.601 421.006 238.759 421.006 238.759L420.466 241.161Z" stroke="#1100A5" stroke-miterlimit="10"/>
<path d="M1.53046 193.447C1.53046 193.447 9.67349 187.823 10.4505 186.043C11.2276 184.264 23.7743 179.592 29.5516 185.115L22.9263 204.046C22.9263 204.046 16.5991 211.316 12.1373 208.919C7.67552 206.523 -0.34461 202.531 1.53046 193.447Z" fill="#2B2525"/>
<path opacity="0.6" d="M15.3268 209.225C19.1154 208.377 22.9341 204.017 22.9341 204.017L29.5593 185.086C27.8382 183.556 25.6465 182.658 23.3463 182.542L25.6993 184.694L26.7285 186.533L24.4178 194.113C24.4178 194.113 21.6939 193.383 21.5124 194.37L21.0917 199.185L19.0002 200.809L18.6879 203.365L12.1803 205.204L13.7584 206.424C13.7584 206.424 18.7095 206.839 19.7025 204.911L19.7499 205.7L15.3268 209.225Z" fill="#6D3DFF"/>
<path d="M1.53229 193.478C1.53229 193.478 9.6728 187.864 10.4595 186.087C11.2462 184.31 23.7736 179.633 29.5605 185.159L22.9211 204.065C22.9211 204.065 16.5965 211.325 12.1321 208.939C7.66775 206.552 -0.342773 202.563 1.53229 193.478Z" stroke="#1100A5" stroke-miterlimit="10"/>
</svg>