<svg width="705" height="629" viewBox="0 0 705 629" fill="none" xmlns="http://www.w3.org/2000/svg">
<g clip-path="url(#clip0_226_6038)">
<path d="M637.559 294.083C636.936 293.202 630.031 284.663 633.56 281.385C637.088 278.107 645.054 289.217 645.054 289.217L643.336 295.631C643.336 295.631 638.73 295.701 637.559 294.083Z" fill="#2B2525"/>
<path d="M637.559 294.083C636.936 293.202 630.031 284.663 633.56 281.385C637.088 278.107 645.054 289.217 645.054 289.217L643.336 295.631C643.336 295.631 638.73 295.701 637.559 294.083Z" stroke="#1100A5" stroke-miterlimit="10"/>
<path d="M598.346 309.219C598.346 309.219 593.007 306.464 591.632 310.589C590.258 314.713 596.562 315.875 596.562 315.875C596.562 315.875 602.85 314.122 598.346 309.219Z" fill="#2B2525"/>
<path d="M598.346 309.219C598.346 309.219 593.007 306.464 591.632 310.589C590.258 314.713 596.562 315.875 596.562 315.875C596.562 315.875 602.85 314.122 598.346 309.219Z" stroke="#1100A5" stroke-miterlimit="10"/>
<path d="M563.266 281.071C563.266 281.071 559.875 280.163 559.674 282.883C559.473 285.604 560.371 284.457 561.928 286.065C563.485 287.673 566.561 288.093 567.592 284.901C568.623 281.709 563.266 281.071 563.266 281.071Z" fill="#2B2525"/>
<path d="M563.266 281.071C563.266 281.071 559.875 280.163 559.674 282.883C559.473 285.604 560.371 284.457 561.928 286.065C563.485 287.673 566.561 288.093 567.592 284.901C568.623 281.709 563.266 281.071 563.266 281.071Z" stroke="#1100A5" stroke-miterlimit="10"/>
<path d="M610.678 238.812C610.475 239.045 610.322 239.317 610.228 239.612C610.134 239.906 610.101 240.216 610.131 240.524C610.161 240.832 610.253 241.13 610.402 241.4C610.552 241.671 610.755 241.908 610.999 242.097C612.769 243.607 615.496 246.874 616.621 245.188C617.745 243.501 620.284 236.231 610.678 238.812Z" fill="#2B2525"/>
<path d="M613.678 251.304C613.678 251.304 610.523 254.963 612.446 255.902C614.368 256.842 620.363 254.483 619.11 251.777C617.858 249.07 613.678 251.304 613.678 251.304Z" fill="#2B2525"/>
<path d="M611.226 246.889C610.721 247.175 610.307 247.597 610.031 248.107C609.755 248.617 609.629 249.195 609.667 249.774C609.898 251.617 612.976 250.329 612.976 250.329C612.976 250.329 615.186 248.147 614.375 247.733C614.375 247.733 615.215 245.836 613.296 245.85L611.226 246.889Z" fill="#2B2525"/>
<path d="M610.835 238.885C610.637 239.118 610.488 239.389 610.397 239.68C610.306 239.972 610.275 240.279 610.306 240.583C610.336 240.887 610.428 241.182 610.576 241.45C610.723 241.718 610.923 241.953 611.163 242.141C612.942 243.653 615.67 246.921 616.794 245.234C617.919 243.548 620.468 236.353 610.835 238.885Z" stroke="#1100A5" stroke-miterlimit="10"/>
<path d="M613.843 251.38C613.843 251.38 610.679 255.035 612.611 255.977C614.543 256.92 620.529 254.558 619.267 251.849C618.005 249.14 613.843 251.38 613.843 251.38Z" stroke="#1100A5" stroke-miterlimit="10"/>
<path d="M611.412 246.97C610.904 247.252 610.486 247.673 610.208 248.183C609.93 248.693 609.803 249.272 609.842 249.852C610.073 251.695 613.151 250.407 613.151 250.407C613.151 250.407 615.371 248.228 614.551 247.811C614.551 247.811 615.391 245.914 613.472 245.928L611.412 246.97Z" stroke="#1100A5" stroke-miterlimit="10"/>
<path d="M478.869 196.848C478.117 197.682 469.664 202.57 470.202 207.477C470.741 212.383 474.572 212.882 474.572 212.882L476.518 215.474L480.12 214.855C480.12 214.855 486.644 217.131 488.871 213.763L490.028 209.445C490.028 209.445 495.256 206.705 494.614 204.193C494.614 204.193 491.774 199.995 490.975 198.994L488.648 199.954C488.648 199.954 487.61 195.711 485.36 194.839L478.869 196.848Z" fill="#2B2525"/>
<path d="M478.869 196.848C478.117 197.682 469.664 202.57 470.202 207.477C470.741 212.383 474.572 212.882 474.572 212.882L476.518 215.474L480.12 214.855C480.12 214.855 486.644 217.131 488.871 213.763L490.028 209.445C490.028 209.445 495.256 206.705 494.614 204.193C494.614 204.193 491.774 199.995 490.975 198.994L488.648 199.954C488.648 199.954 487.61 195.711 485.36 194.839L478.869 196.848Z" stroke="#1100A5" stroke-miterlimit="10"/>
<path d="M401.37 443.576C401.37 443.576 396.719 455.023 400.457 460.776C404.195 466.53 411.186 466.829 411.186 466.829L422.783 474.161C422.783 474.161 430.441 475.177 433.438 473.848C436.434 472.518 444.74 467.175 446.28 461.428L448.658 452.551C448.658 452.551 447.19 436.318 445.478 434.824L437.73 424.29L431.703 422.675C431.703 422.675 425.407 413.058 419.152 416.662C419.152 416.662 417.348 413.538 412.542 419.653C412.553 419.614 397.851 417.259 401.37 443.576Z" fill="#2B2525"/>
<path opacity="0.6" d="M448.164 454.396L448.658 452.551C448.658 452.551 447.19 436.318 445.478 434.824L437.73 424.29L431.703 422.675C431.703 422.675 425.408 413.058 419.152 416.662C419.152 416.662 417.349 413.538 412.542 419.653C411.273 419.525 409.99 419.658 408.774 420.044C407.557 420.431 406.433 421.062 405.47 421.899L409.577 422.026L413.032 422.424L416.263 420.256L418.772 423.527C418.772 423.527 419.631 423.758 419.089 420.838C419.089 420.838 419.935 418.683 422.158 426.153L422.645 421.397C422.645 421.397 425.799 420.524 430.128 425.773L431.422 426.12L430.787 423.31L432.422 424.938L432.998 427.733C432.998 427.733 430.28 432.429 432.336 433.643L434.298 433.236L435.732 430.318L434.943 425.883L436.493 427.478L437.597 431.087L436.327 435.323L438.412 435.271L439.514 431.156L438.589 428.309L436.957 426.019L439.7 428.607L441.188 432.443L440.394 436.371L443.255 440.492C443.255 440.492 443.62 435.693 444.753 438.378L444.777 444.202L446.247 443.313L447.363 448.498L448.164 454.396Z" fill="#6D3DFF"/>
<path d="M401.37 443.576C401.37 443.576 396.719 455.023 400.457 460.776C404.195 466.53 411.186 466.829 411.186 466.829L422.783 474.161C422.783 474.161 430.441 475.177 433.438 473.848C436.434 472.518 444.74 467.175 446.28 461.428L448.658 452.551C448.658 452.551 447.19 436.318 445.478 434.824L437.73 424.29L431.703 422.675C431.703 422.675 425.407 413.058 419.152 416.662C419.152 416.662 417.348 413.538 412.542 419.653C412.553 419.614 397.851 417.259 401.37 443.576Z" stroke="#1100A5" stroke-miterlimit="10"/>
<path d="M518.534 393.029C518.534 393.029 507.267 407.454 498.392 397.146C489.518 386.838 482.779 377.64 487.932 371.66C493.085 365.68 491.118 366.685 498.694 356.571C499.101 356.018 504.146 351.023 505.102 348.112C506.058 345.2 512.582 343.376 512.582 343.376L517.427 338.587C517.427 338.587 533.31 337.035 536.268 347.207L539.446 353.08L539.025 360.1C538.568 361.11 537.831 361.969 536.902 362.575C535.053 364.067 536.753 369.544 532.926 373.011C529.098 376.479 531.041 383.832 518.534 393.029Z" fill="#2B2525"/>
<path opacity="0.6" d="M533.913 371.837C536.427 368.369 535.211 363.902 536.874 362.526C537.803 361.92 538.54 361.061 538.997 360.051L539.418 353.031L536.24 347.158C533.282 336.986 517.399 338.538 517.399 338.538L512.554 343.327C512.554 343.327 507.447 344.733 505.61 347.067L508.762 346.276L512.754 346.021L518.321 343.019L522.88 344.241L523.054 347.455L521.259 351.602L515.964 354.946L520.046 353.658L522.723 351.86L524.934 347.276L525.836 344.878L527.106 345.083L526.844 347.529L525.927 352.46L523.58 355.268L520.805 359.017L524.43 357.08L526.846 353.896L529.202 348.968L529.455 347.059L529.419 344.14L529.75 342.904L531.765 343.847L533.001 347.616L531.801 353.102L534.169 353.612L536.965 355.541L532.438 361.078L534 365.369L533.913 371.837Z" fill="#6D3DFF"/>
<path d="M518.534 393.029C518.534 393.029 507.267 407.454 498.392 397.146C489.518 386.838 482.779 377.64 487.932 371.66C493.085 365.68 491.118 366.685 498.694 356.571C499.101 356.018 504.146 351.023 505.102 348.112C506.058 345.2 512.582 343.376 512.582 343.376L517.427 338.587C517.427 338.587 533.31 337.035 536.268 347.207L539.446 353.08L539.025 360.1C538.568 361.11 537.831 361.969 536.902 362.575C535.053 364.067 536.753 369.544 532.926 373.011C529.098 376.479 531.041 383.832 518.534 393.029Z" stroke="#1100A5" stroke-miterlimit="10"/>
<path d="M535.012 331.766C535.048 332.366 535.832 335.35 535.832 335.35L539.532 336.341L548.1 335.273C548.1 335.273 554.972 330.374 553.925 326.129C553.662 324.769 553.678 323.369 553.973 322.015C554.268 320.661 554.836 319.382 555.642 318.255L550.634 306.809L552.47 305.095C552.47 305.095 550.27 294.795 545.14 293.814C540.009 292.832 521.817 290.329 520.655 302.316C520.287 303.945 519.807 305.546 519.216 307.107L523.03 315.666C523.03 315.666 524.345 317.406 525.337 316.678L528.494 323.518C528.494 323.518 529.953 325.493 530.519 324.847L535.012 331.766Z" fill="#2B2525"/>
<path opacity="0.6" d="M554.365 320.78C554.688 319.886 555.13 319.04 555.68 318.265L550.672 306.819L552.47 305.095C552.47 305.095 550.271 294.795 545.14 293.814C540.708 292.968 526.318 290.955 521.9 298.364L525.952 296.996L531.771 298.462L532.416 296.057L535.363 295.76L536.848 299.026L538.51 296.997L541.602 297.628L541.604 303.571L543.411 303.704L544.092 297.84L547.228 300.585L547.761 305.283L550.53 310.094L549.775 314.032L545.434 318.408L542.512 318.919L545.992 319.262L549.472 317.016L551.354 313.855L551.841 315.673L550.973 318.909L549.19 321.816L545.845 322.401L548.434 323.094L550.071 322.549L551.622 319.694L552.862 318.659L552.888 321.151L554.365 320.78Z" fill="#6D3DFF"/>
<path d="M535.012 331.766C535.048 332.366 535.832 335.35 535.832 335.35L539.532 336.341L548.1 335.273C548.1 335.273 554.972 330.374 553.925 326.129C553.662 324.769 553.678 323.369 553.973 322.015C554.268 320.661 554.836 319.382 555.642 318.255L550.634 306.809L552.47 305.095C552.47 305.095 550.27 294.795 545.14 293.814C540.009 292.832 521.817 290.329 520.655 302.316C520.287 303.945 519.807 305.546 519.216 307.107L523.03 315.666C523.03 315.666 524.345 317.406 525.337 316.678L528.494 323.518C528.494 323.518 529.953 325.493 530.519 324.847L535.012 331.766Z" stroke="#1100A5" stroke-miterlimit="10"/>
<path d="M331.731 504.219C331.283 504.886 333.049 510.121 333.049 510.121L338.632 510.033C338.632 510.033 343.551 508.442 345.396 505.499C345.396 505.499 353.749 491.09 350.549 486.268L346.194 480.07C346.194 480.07 341.776 476.815 337.132 483.987C336.253 485.336 335.346 490.652 335.346 490.652L327.757 497.336C327.757 497.336 327.272 500.115 328.83 501.061L331.731 504.219Z" fill="#2B2525"/>
<path opacity="0.6" d="M349.507 496.838C351.022 492.844 352.039 488.51 350.548 486.268L346.194 480.069C346.194 480.069 342.445 477.294 338.217 482.487L340.361 482.213L342.738 481.069L344.903 482.415L344.724 484.552L345.921 484.8L346.547 483.932L347.956 485.821L347.464 489.396L343.852 492.983L346.157 493.269L347.746 492.515L348.342 493.265L347.906 495.86L346.544 496.769L349.507 496.838Z" fill="#6D3DFF"/>
<path d="M327.757 497.336L329.462 498.124L329.657 499.367L336.123 495.944L337.034 494.283L335.189 493.788L334.969 490.976L327.757 497.336Z" fill="#6D3DFF"/>
<path d="M331.731 504.219C331.283 504.886 333.049 510.121 333.049 510.121L338.632 510.033C338.632 510.033 343.551 508.442 345.396 505.499C345.396 505.499 353.749 491.09 350.549 486.268L346.194 480.07C346.194 480.07 341.776 476.815 337.132 483.987C336.253 485.336 335.346 490.652 335.346 490.652L327.757 497.336C327.757 497.336 327.272 500.115 328.83 501.061L331.731 504.219Z" stroke="#1100A5" stroke-miterlimit="10"/>
<path d="M421.507 349.917C420.642 351.818 420.507 353.971 421.128 355.965C422.192 359.221 424.291 366.917 424.291 366.917C424.291 366.917 428.155 367.952 428.888 366.761C429.622 365.571 438.339 368.507 440.095 365.623L445.569 364.512C445.569 364.512 450.314 359.437 450.392 357.678C450.392 357.678 455.416 351.487 456.722 348.079C456.722 348.079 457.693 342.987 456.562 341.296C456.562 341.296 463.073 335.504 462.706 333.822C462.706 333.822 462.616 328.248 461.52 327.158C461.52 327.158 462.439 319.867 461.881 319.128C461.881 319.128 458.921 316.15 455.534 316.93C455.534 316.93 450.059 310.007 446.196 310.359C446.196 310.359 442.653 309.286 435.127 312.684L429.478 312.516L425.385 318.945L419.09 321.224L418.988 323.578L419.926 325.485C419.926 325.485 418.272 328.22 418.803 329.678C419.334 331.135 422.559 332.93 422.559 332.93C422.559 332.93 421.057 334.091 421.052 334.69C421.047 335.29 420.579 337.421 420.579 337.421L423.947 339.649L421.42 341.353C421.42 341.353 420.592 342.974 421.161 343.789C421.729 344.604 421.507 349.917 421.507 349.917Z" fill="#2B2525"/>
<path opacity="0.6" d="M458.616 339.31C460.486 337.472 462.92 334.842 462.702 333.8C462.702 333.8 462.611 328.227 461.516 327.136C461.516 327.136 462.434 319.845 461.877 319.106C461.877 319.106 458.917 316.128 455.529 316.908C455.529 316.908 450.055 309.985 446.192 310.337C446.192 310.337 442.649 309.264 435.123 312.662L429.478 312.516L425.385 318.945L419.091 321.224L418.988 323.578L419.926 325.485C419.681 325.903 419.462 326.335 419.269 326.779L422.731 325.45L426.29 326L429.578 320.141L432.709 320.318C432.709 320.318 435.089 318.315 434.533 316.448C434.921 316.583 435.278 316.794 435.584 317.068C435.89 317.343 436.139 317.675 436.316 318.045C436.493 318.416 436.594 318.819 436.615 319.229C436.635 319.639 436.574 320.05 436.436 320.436L438.039 320.866L439.259 316.814L436.51 314.4L439.959 315.014L441.787 318.547L440.24 323.816L443.726 328.581L445.64 326.847L449.526 328.147L450.276 331.257L452.878 327.461L453.917 320.607L451.058 317.987L454.414 319.021L455.938 320.755L454.515 328.035L456.09 333.478L458.128 328.847L459.352 328.14L460.103 331.25L458.616 339.31Z" fill="#6D3DFF"/>
<path d="M421.507 349.917C420.642 351.818 420.507 353.971 421.128 355.965C422.192 359.221 424.291 366.917 424.291 366.917C424.291 366.917 428.155 367.952 428.888 366.761C429.622 365.571 438.339 368.507 440.095 365.623L445.569 364.512C445.569 364.512 450.314 359.437 450.392 357.678C450.392 357.678 455.416 351.487 456.722 348.079C456.722 348.079 457.693 342.987 456.562 341.296C456.562 341.296 463.073 335.504 462.706 333.822C462.706 333.822 462.616 328.248 461.52 327.158C461.52 327.158 462.439 319.867 461.881 319.128C461.881 319.128 458.921 316.15 455.534 316.93C455.534 316.93 450.059 310.007 446.196 310.359C446.196 310.359 442.653 309.286 435.127 312.684L429.478 312.516L425.385 318.945L419.09 321.224L418.988 323.578L419.926 325.485C419.926 325.485 418.272 328.22 418.803 329.678C419.334 331.135 422.559 332.93 422.559 332.93C422.559 332.93 421.057 334.091 421.052 334.69C421.047 335.29 420.579 337.421 420.579 337.421L423.947 339.649L421.42 341.353C421.42 341.353 420.592 342.974 421.161 343.789C421.729 344.604 421.507 349.917 421.507 349.917Z" stroke="#1100A5" stroke-miterlimit="10"/>
<path d="M351.138 272.258C350.907 270.726 348.874 259.228 348.972 256.273C349.07 253.317 344.979 243.897 344.979 243.897L348.393 236.913C348.393 236.913 351.071 223.054 356.601 218.334C356.601 218.334 357.682 207.847 360.175 206.465C360.175 206.465 373.353 200.285 377.987 200.688C382.62 201.091 391.217 193.042 402.429 217.652C413.641 242.263 419.187 243.666 417.465 251.446C415.743 259.225 410.831 274.235 412.659 285.802C414.488 297.37 401.716 298.399 401.716 298.399C401.716 298.399 404.576 308.048 390.378 308.064L378.303 310.357C378.303 310.357 362.668 302.254 361.136 296.574L359.373 290.635C359.373 290.635 354.211 292.472 351.138 272.258Z" fill="#2B2525"/>
<path opacity="0.6" d="M417.384 246.341C416.019 241.503 410.807 236.11 402.4 217.645C391.217 193.042 382.623 201.082 377.958 200.681C373.293 200.279 360.146 206.457 360.146 206.457C357.648 207.859 356.572 218.327 356.572 218.327C354.759 220.055 353.318 222.135 352.336 224.439L355.38 222.003L358.037 220.469L363.068 214.021L365.028 213.118C365.028 213.118 368.222 213.021 367.849 220.324C367.477 227.626 366.9 229.314 366.9 229.314C366.9 229.314 374.274 216.092 370.316 212.123L369.345 208.829L372.764 207.892L375.267 210.416L376.752 209.778L380.43 212.627L379.507 217.039L382.839 217.932C382.839 217.932 385.069 225.373 383.447 229.959C381.825 234.545 387.954 224.034 387.954 224.034L389.137 219.619L391.45 222.309L393.668 233.35L405.054 235.21L401.185 248.181L407.1 250.294L410.155 246.619L417.384 246.341Z" fill="#6D3DFF"/>
<path d="M351.138 272.258C350.907 270.726 348.874 259.228 348.972 256.273C349.07 253.317 344.979 243.897 344.979 243.897L348.393 236.913C348.393 236.913 351.071 223.054 356.601 218.334C356.601 218.334 357.682 207.847 360.175 206.465C360.175 206.465 373.353 200.285 377.987 200.688C382.62 201.091 391.217 193.042 402.429 217.652C413.641 242.263 419.187 243.666 417.465 251.446C415.743 259.225 410.831 274.235 412.659 285.802C414.488 297.37 401.716 298.399 401.716 298.399C401.716 298.399 404.576 308.048 390.378 308.064L378.303 310.357C378.303 310.357 362.668 302.254 361.136 296.574L359.373 290.635C359.373 290.635 354.211 292.472 351.138 272.258Z" stroke="#1100A5" stroke-miterlimit="10"/>
<path d="M487.722 163.803L484.49 165.008C484.49 165.008 482.491 169.493 481.535 171.09C480.58 172.687 484.088 177.365 484.088 177.365C484.088 177.365 484.588 183.845 486.604 185.441C486.604 185.441 485.919 190.278 490.603 191.534C490.603 191.534 498.73 197.677 501.038 193.005L507.971 192.554C507.971 192.554 515.829 189.038 514.667 186.883L517.722 183.209C517.05 181.17 516.525 179.085 516.153 176.97C516.153 176.97 517.373 174.388 511.951 168.97L501.736 158.137C501.736 158.137 496.109 157.851 494.673 159.847L489.981 157.265C489.032 158.036 488.318 159.056 487.918 160.212C487.519 161.367 487.451 162.611 487.722 163.803Z" fill="#2B2525"/>
<path opacity="0.6" d="M516.404 184.999L517.642 183.508C516.966 181.486 516.438 179.417 516.06 177.318C516.06 177.318 517.28 174.736 511.858 169.318L501.643 158.485C501.643 158.485 496.016 158.199 494.58 160.195L489.888 157.613C488.937 158.381 488.219 159.399 487.816 160.554C487.414 161.709 487.342 162.953 487.61 164.146L484.378 165.35L483.743 166.754L484.872 166.404L487.992 166.081L489.58 161.392L493.132 163.203L493.234 166.264C493.234 166.264 495.032 167.936 496.718 165.354C498.403 162.773 499.875 166.128 498.15 169.631C496.424 173.133 507.62 172.499 507.62 172.499L510.715 180.265L506.699 186.136L512.014 182.798L512.765 179.996L512.32 175.011L514.499 179.436C514.397 181.118 514.194 182.792 513.89 184.45C513.673 184.526 508.868 188.125 508.868 188.125L513.815 186.935L515.108 184.579L516.422 184.931" fill="#6D3DFF"/>
<path d="M487.722 163.803L484.49 165.008C484.49 165.008 482.491 169.493 481.535 171.09C480.58 172.687 484.088 177.365 484.088 177.365C484.088 177.365 484.588 183.845 486.604 185.441C486.604 185.441 485.919 190.278 490.603 191.534C490.603 191.534 498.73 197.677 501.038 193.005L507.971 192.554C507.971 192.554 515.829 189.038 514.667 186.883L517.722 183.209C517.05 181.17 516.525 179.085 516.153 176.97C516.153 176.97 517.373 174.388 511.951 168.97L501.736 158.137C501.736 158.137 496.109 157.851 494.673 159.847L489.981 157.265C489.032 158.036 488.318 159.056 487.918 160.212C487.519 161.367 487.451 162.611 487.722 163.803V163.803Z" stroke="#1100A5" stroke-miterlimit="10"/>
<path d="M53.4908 234.608C53.4908 234.608 46.8137 231.67 44.0424 232.894C41.271 234.119 37.3814 239.092 37.3814 239.092L36.7635 244.102L34.2539 250.532C34.2539 250.532 34.1505 252.927 35.6533 252.418L32.6231 257.352C32.6231 257.352 34.5478 261.181 35.3999 260.705C36.2521 260.23 32.9513 264.087 32.9513 264.087C32.9513 264.087 35.7751 272.867 43.0788 270.993L49.6373 270.162L53.7007 264.232C53.7007 264.232 56.6002 260.868 57.8888 260.695C59.1773 260.523 61.5367 256.817 61.4578 256.61C61.3788 256.402 66.7353 245.839 63.6344 243.155C60.5334 240.471 60.2793 238.56 53.4908 234.608Z" fill="#2B2525"/>
<path d="M239.614 410.98C238.938 410.799 233.851 408.691 231.37 411.38C228.889 414.07 227.934 416.94 233.327 420.383C238.719 423.826 242.285 416.779 242.285 416.779C242.285 416.779 242.188 411.732 239.614 410.98Z" fill="#2B2525"/>
<path d="M239.614 410.98C238.938 410.799 233.851 408.691 231.37 411.38C228.889 414.07 227.934 416.94 233.327 420.383C238.719 423.826 242.285 416.779 242.285 416.779C242.285 416.779 242.188 411.732 239.614 410.98Z" stroke="#1100A5" stroke-miterlimit="10"/>
<path d="M59.5889 355.579C59.5889 355.579 56.5107 354.857 56.1996 357.487C55.8886 360.116 54.7898 364.294 58.2419 363.697C59.0948 363.491 59.8681 363.038 60.4655 362.396C61.063 361.753 61.4581 360.949 61.6017 360.083C61.7453 359.218 61.6311 358.329 61.2731 357.528C60.9152 356.727 60.3295 356.049 59.5889 355.579Z" fill="#2B2525"/>
<path d="M66.9566 355.979C66.677 356.018 65.6362 355.884 65.1385 356.776C64.8079 357.502 64.6256 358.288 64.6023 359.086L64.2607 360.361C64.2607 360.361 66.9519 364.188 68.2517 364.784C69.5516 365.381 71.6065 361.035 71.6065 361.035C71.6065 361.035 71.9785 355.358 66.9566 355.979Z" fill="#2B2525"/>
<path d="M59.6049 355.945C59.6049 355.945 56.5267 355.224 56.2182 357.843C55.9097 360.463 54.7928 364.708 58.2579 364.063C59.1107 363.857 59.884 363.405 60.4814 362.762C61.0789 362.12 61.4741 361.316 61.6177 360.45C61.7613 359.585 61.647 358.696 61.2891 357.895C60.9312 357.094 60.3454 356.416 59.6049 355.945V355.945Z" stroke="#1100A5" stroke-miterlimit="10"/>
<path d="M66.9722 356.346C66.6926 356.385 65.664 356.244 65.1541 357.142C64.8235 357.869 64.6412 358.654 64.618 359.452L64.2763 360.727C64.2763 360.727 66.9675 364.554 68.2674 365.151C69.5672 365.748 71.6221 361.401 71.6221 361.401C71.6221 361.401 71.9942 355.724 66.9722 356.346Z" stroke="#1100A5" stroke-miterlimit="10"/>
<path d="M309.909 259.451C310.065 259.374 310.197 259.256 310.289 259.109C310.382 258.962 310.431 258.791 310.432 258.618C310.376 258.212 310.237 257.823 310.024 257.473L309.829 256.851C308.9 256.464 307.919 256.218 306.918 256.123C306.2 256.252 306.573 258.608 306.573 258.608C306.573 258.608 307.977 261.097 309.909 259.451Z" fill="#2B2525"/>
<path d="M313.033 257.565C313.033 257.565 314.507 257.008 313.909 255.843C313.31 254.678 312.597 252.624 311.339 253.84C311.043 254.161 310.848 254.562 310.779 254.993C310.709 255.425 310.769 255.867 310.949 256.265C311.13 256.662 311.424 256.998 311.795 257.229C312.166 257.461 312.596 257.577 313.033 257.565Z" fill="#2B2525"/>
<path d="M313.033 257.565C313.033 257.565 314.507 257.008 313.909 255.843C313.31 254.678 312.597 252.624 311.339 253.84C311.043 254.161 310.848 254.562 310.779 254.993C310.709 255.425 310.769 255.867 310.949 256.265C311.13 256.662 311.424 256.998 311.795 257.229C312.166 257.461 312.596 257.577 313.033 257.565V257.565Z" stroke="#1100A5" stroke-miterlimit="10"/>
<path d="M309.909 259.451C310.065 259.374 310.197 259.256 310.289 259.109C310.382 258.962 310.431 258.791 310.432 258.618C310.376 258.212 310.237 257.823 310.024 257.473L309.829 256.851C308.9 256.464 307.919 256.218 306.918 256.123C306.2 256.252 306.573 258.608 306.573 258.608C306.573 258.608 307.977 261.097 309.909 259.451Z" stroke="#1100A5" stroke-miterlimit="10"/>
<path d="M328.096 229.166C328.27 229.055 328.419 228.911 328.535 228.741C328.652 228.571 328.733 228.38 328.773 228.178C328.814 227.976 328.813 227.768 328.771 227.567C328.73 227.365 328.648 227.174 328.53 227.005C327.659 225.736 326.569 223.042 325.512 223.898C324.454 224.753 321.398 228.934 328.096 229.166Z" fill="#2B2525"/>
<path d="M329.333 223.855C329.715 223.773 330.065 223.584 330.344 223.311C330.622 223.037 330.818 222.69 330.906 222.31C331.124 221.074 328.891 221.293 328.891 221.293C328.891 221.293 327.036 222.267 327.48 222.696C327.48 222.696 326.577 223.748 327.812 224.121L329.333 223.855Z" fill="#2B2525"/>
<path d="M328.623 220.517C328.623 220.517 331.374 218.791 330.323 217.805C329.272 216.819 324.949 217.152 325.221 219.15C325.493 221.149 328.623 220.517 328.623 220.517Z" fill="#2B2525"/>
<path d="M328.096 229.166C328.27 229.055 328.419 228.911 328.535 228.741C328.652 228.571 328.733 228.38 328.773 228.178C328.814 227.976 328.813 227.768 328.771 227.567C328.73 227.365 328.648 227.174 328.53 227.005C327.659 225.736 326.569 223.042 325.512 223.898C324.454 224.753 321.398 228.934 328.096 229.166Z" stroke="#1100A5" stroke-miterlimit="10"/>
<path d="M328.623 220.517C328.623 220.517 331.374 218.791 330.323 217.805C329.272 216.819 324.949 217.152 325.221 219.15C325.493 221.149 328.623 220.517 328.623 220.517Z" stroke="#1100A5" stroke-miterlimit="10"/>
<path d="M329.333 223.855C329.715 223.773 330.065 223.584 330.344 223.311C330.622 223.037 330.818 222.69 330.906 222.31C331.124 221.074 328.891 221.293 328.891 221.293C328.891 221.293 327.036 222.267 327.48 222.696C327.48 222.696 326.577 223.748 327.812 224.121L329.333 223.855Z" stroke="#1100A5" stroke-miterlimit="10"/>
<path d="M316.582 299.337C316.902 299.226 320.21 296.23 318.498 295.202L318.099 293.211C318.099 293.211 317.263 292.469 316.885 293.03L316.676 291.297L315.53 290.669L313.02 289.293L312.552 288.298C312.552 288.298 309.623 287.637 308.886 290.08C308.149 292.522 304.321 299.002 304.321 299.002C304.321 299.002 304.052 301.901 305.543 303.367C306.38 304.208 307.353 304.902 308.419 305.422L310.333 303.998C310.333 303.998 310.406 305.001 311.929 304.147C313.452 303.292 316.582 299.337 316.582 299.337Z" fill="#2B2525"/>
<path opacity="0.6" d="M308.832 305.118L310.333 303.998C310.333 303.998 310.406 305.001 311.929 304.147C313.452 303.292 316.582 299.337 316.582 299.337C316.902 299.226 320.21 296.23 318.498 295.202L318.099 293.211C318.099 293.211 317.263 292.469 316.885 293.03L316.676 291.297L315.53 290.669L313.02 289.293L312.552 288.298C312.221 288.224 311.881 288.192 311.542 288.203L312.031 288.852L311.981 290.236C311.981 290.236 313.943 292.418 313.973 293.079C314.151 293.883 314.226 294.707 314.196 295.53C314.196 295.53 317.063 296.112 314.061 297.968L314.846 298.323L314.747 298.69L312.985 299.936L307.17 304.248C307.17 304.248 308.314 305.507 308.832 305.118Z" fill="#6D3DFF"/>
<path d="M316.582 299.337C316.902 299.226 320.21 296.23 318.498 295.202L318.099 293.211C318.099 293.211 317.263 292.469 316.885 293.03L316.676 291.297L315.53 290.669L313.02 289.293L312.552 288.298C312.552 288.298 309.623 287.637 308.886 290.08C308.149 292.522 304.321 299.002 304.321 299.002C304.321 299.002 304.052 301.901 305.543 303.367C306.38 304.208 307.353 304.902 308.419 305.422L310.333 303.998C310.333 303.998 310.406 305.001 311.929 304.147C313.452 303.292 316.582 299.337 316.582 299.337Z" stroke="#1100A5" stroke-miterlimit="10"/>
<path d="M233.767 224.317L234.366 218.835L230.751 213.974C230.751 213.974 230.703 211.486 221.838 205.125C212.972 198.764 205.485 190.66 203.163 195.266C201.784 197.91 201.002 200.825 200.875 203.805L198.299 205.692L198.895 214.248C198.895 214.248 197.331 216.49 199.51 219.91C201.689 223.331 212.474 244.089 221.482 244.588C230.49 245.086 234.423 234.928 234.423 234.928L233.767 224.317Z" fill="#2B2525"/>
<path opacity="0.6" d="M225.51 244.083C231.705 242.057 234.481 234.944 234.481 234.944L233.767 224.317L234.366 218.835L230.751 213.974C230.751 213.974 230.703 211.487 221.838 205.125C212.972 198.764 205.484 190.66 203.163 195.266L202.799 196.007C202.799 196.007 218.524 207.871 219.497 209.995C220.854 212.694 221.559 215.674 221.556 218.695L226.308 223.716C226.308 223.716 224.176 229.046 225.937 231.785L224.407 238.383L225.96 238.965L225.22 241.728L225.51 244.083Z" fill="#6D3DFF"/>
<path d="M233.767 224.317L234.366 218.835L230.751 213.974C230.751 213.974 230.703 211.486 221.838 205.125C212.972 198.764 205.485 190.66 203.163 195.266C201.784 197.91 201.002 200.825 200.875 203.805L198.299 205.692L198.895 214.248C198.895 214.248 197.331 216.49 199.51 219.91C201.689 223.331 212.474 244.089 221.482 244.588C230.49 245.086 234.423 234.928 234.423 234.928L233.767 224.317Z" stroke="#1100A5" stroke-miterlimit="10"/>
<path d="M225.087 291.561C225.567 291.472 225.972 289.728 225.972 289.728C225.972 289.728 221.54 287.567 220.27 287.827C218.999 288.087 218.033 290.261 218.033 290.261L217.804 291.774C217.804 291.774 218.397 296.747 219.155 296.856C219.912 296.966 223.01 296.958 224.576 294.706C226.142 292.455 225.552 292.763 225.552 292.763L225.087 291.561Z" fill="#2B2525"/>
<path d="M223.282 284.773C223.621 284.667 226.304 284.123 226.579 282.323C226.854 280.523 226.418 279.06 223.29 279.143C220.162 279.226 220.586 283.129 220.586 283.129C220.586 283.129 222.024 285.181 223.282 284.773Z" fill="#2B2525"/>
<path d="M228.184 269.418C228.184 269.418 230.336 268.494 229.781 266.471C229.226 264.449 227.002 261.658 224.204 263.331C221.405 265.004 223.696 268.278 223.696 268.278C223.696 268.278 226.848 270.541 228.184 269.418Z" fill="#2B2525"/>
<path d="M247.045 280.125C247.276 279.959 248.548 278.768 247.975 277.506C247.867 277.165 247.676 276.856 247.419 276.607C247.163 276.358 246.848 276.176 246.505 276.077L246.657 275.507C246.657 275.507 243.538 273.74 243.083 274.705C242.628 275.67 243.686 278.407 243.686 278.407L244.257 280.755L245.504 280.737L247.045 280.125Z" fill="#2B2525"/>
<path d="M249.411 273.46C249.411 273.46 251.475 272.056 251.655 270.842C251.836 269.627 250.839 266.161 247.582 266.996C244.325 267.832 246.264 271.913 246.264 271.913L249.411 273.46Z" fill="#2B2525"/>
<path d="M228.184 269.418C228.184 269.418 230.336 268.494 229.781 266.471C229.226 264.449 227.002 261.658 224.204 263.331C221.405 265.004 223.696 268.278 223.696 268.278C223.696 268.278 226.848 270.541 228.184 269.418Z" stroke="#1100A5" stroke-miterlimit="10"/>
<path d="M249.411 273.46C249.411 273.46 251.475 272.056 251.655 270.842C251.836 269.627 250.839 266.161 247.582 266.996C244.325 267.832 246.264 271.913 246.264 271.913L249.411 273.46Z" stroke="#1100A5" stroke-miterlimit="10"/>
<path d="M223.282 284.773C223.621 284.667 226.304 284.123 226.579 282.323C226.854 280.523 226.418 279.06 223.29 279.143C220.162 279.226 220.586 283.129 220.586 283.129C220.586 283.129 222.024 285.181 223.282 284.773Z" stroke="#1100A5" stroke-miterlimit="10"/>
<path d="M247.045 280.125C247.276 279.959 248.548 278.768 247.975 277.506C247.867 277.165 247.676 276.856 247.419 276.607C247.163 276.358 246.848 276.176 246.505 276.077L246.657 275.507C246.657 275.507 243.538 273.74 243.083 274.705C242.628 275.67 243.686 278.407 243.686 278.407L244.257 280.755L245.504 280.737L247.045 280.125Z" stroke="#1100A5" stroke-miterlimit="10"/>
<path opacity="0.6" d="M220.893 296.742C219.949 297.525 223.615 296.012 224.568 294.621C226.131 292.379 225.544 292.678 225.544 292.678L225.098 291.523C225.577 291.434 225.982 289.689 225.982 289.689C225.982 289.689 224.149 288.805 222.55 288.242C222.973 288.752 223.334 289.311 223.626 289.907C223.626 289.907 223.674 291.348 223.232 291.799L223.45 293.421C222.682 294.59 221.827 295.7 220.893 296.742Z" fill="#6D3DFF"/>
<path d="M225.087 291.561C225.567 291.472 225.972 289.728 225.972 289.728C225.972 289.728 221.54 287.567 220.27 287.827C218.999 288.087 218.033 290.261 218.033 290.261L217.804 291.774C217.804 291.774 218.397 296.747 219.155 296.856C219.912 296.966 223.01 296.958 224.576 294.706C226.142 292.455 225.552 292.763 225.552 292.763L225.087 291.561Z" stroke="#1100A5" stroke-miterlimit="10"/>
<path d="M221.169 309.353C221.169 309.353 224.309 303.776 218.137 298.375C211.965 292.973 217.633 297.204 217.633 297.204L217.114 292.686L211.626 287.861C211.626 287.861 207.125 281.479 203.68 281.891L198.282 278.623C198.282 278.623 185.656 278.801 181.145 282.075C180.852 282.291 180.579 282.533 180.33 282.799C176.811 286.774 177.966 288.377 177.966 288.377L176.718 295.776C176.718 295.776 177.961 301.068 180.72 303.329C180.778 304.868 181.314 306.351 182.254 307.571L183.078 310.483C183.078 310.483 184.363 313.84 187.182 313.095C188.298 312.793 192.821 314.305 192.821 314.305L192.004 316.312L196.305 318.997L203.316 318.101L206.007 316.637C206.007 316.637 211.724 317.786 214.752 317.148L221.012 312.49L221.169 309.353Z" fill="#2B2525"/>
<path opacity="0.6" d="M207.746 317.217C210.069 317.646 212.444 317.72 214.789 317.438L221.045 312.789L221.184 309.72C221.184 309.72 224.325 304.143 218.15 298.751C211.975 293.359 217.646 297.581 217.646 297.581L217.127 293.062L211.642 288.228C211.642 288.228 207.14 281.845 203.694 282.268L199.321 279.616C199.321 279.616 201.689 283.066 201.273 285.118L204.828 292.562L208.322 294.202L210.214 300.279C210.214 300.279 213.804 304.347 212.929 307.032L214.153 309.803L213.017 311.569L209.06 312.196L209.713 313.624L207.746 317.217Z" fill="#6D3DFF"/>
<path d="M221.187 309.71C221.187 309.71 224.327 304.133 218.152 298.741C211.978 293.349 217.648 297.571 217.648 297.571L217.13 293.053L211.644 288.218C211.644 288.218 207.143 281.836 203.696 282.258L198.298 278.99C198.298 278.99 185.672 279.168 181.161 282.442C180.866 282.655 180.593 282.898 180.346 283.165C176.827 287.14 177.981 288.744 177.981 288.744L176.731 296.153C176.731 296.153 177.976 301.435 180.735 303.696C180.793 305.235 181.33 306.717 182.27 307.938L183.091 310.86C183.091 310.86 184.376 314.217 187.195 313.471C188.311 313.17 192.834 314.682 192.834 314.682L192.017 316.689L196.321 319.364L203.332 318.468L206.022 317.004C206.022 317.004 211.74 318.153 214.768 317.515L221.025 312.866L221.187 309.71Z" stroke="#1100A5" stroke-miterlimit="10"/>
<path d="M100.431 282.323C99.7641 282.144 90.9079 283.436 92.608 287.06L91.0608 290.786C91.0608 290.786 91.6045 292.93 92.8863 292.435L91.2934 295.559L92.5234 298.001L95.1642 303.098L94.8363 305.288C94.8363 305.288 98.9568 309.653 102.938 306.423C106.92 303.194 120.519 296.64 120.519 296.64C120.519 296.64 124.217 292.113 123.369 288.014C122.907 285.673 122.062 283.425 120.866 281.359L116.093 281.592C116.093 281.592 117.104 279.792 113.602 279.568C110.101 279.344 100.431 282.323 100.431 282.323Z" fill="#2B2525"/>
<path opacity="0.6" d="M107.313 303.506C112.82 300.302 120.471 296.627 120.471 296.627C120.471 296.627 124.169 292.1 123.321 288.001C122.859 285.66 122.014 283.412 120.818 281.346L116.045 281.579C116.045 281.579 117.056 279.779 113.554 279.555C111.951 279.55 110.352 279.741 108.795 280.123C108.795 280.123 112.987 281.402 111.802 283.776L116.288 285.154L116.907 287.442L115.818 288.879L116.525 290.104C115.85 290.6 115.372 291.319 115.174 292.133L113.694 295.878C113.694 295.878 110.192 297.01 109.772 298.616L109.988 300.051C109.988 300.051 108.315 298.567 108.334 300.353L107.812 301.683L106.468 302.255L107.347 302.49L107.313 303.506Z" fill="#6D3DFF"/>
<path d="M100.431 282.323C99.7641 282.144 90.9079 283.436 92.608 287.06L91.0608 290.786C91.0608 290.786 91.6045 292.93 92.8863 292.435L91.2934 295.559L92.5234 298.001L95.1642 303.098L94.8363 305.288C94.8363 305.288 98.9568 309.653 102.938 306.423C106.92 303.194 120.519 296.64 120.519 296.64C120.519 296.64 124.217 292.113 123.369 288.014C122.907 285.673 122.062 283.424 120.866 281.359L116.093 281.592C116.093 281.592 117.104 279.792 113.602 279.568C110.101 279.344 100.431 282.323 100.431 282.323Z" stroke="#1100A5" stroke-miterlimit="10"/>
<path d="M270.993 371.766C270.993 371.766 259.527 377.545 263.788 393.439C268.049 409.334 263.26 395.989 263.26 395.989L259.085 404.116L262.812 418.294C262.812 418.294 263.151 433.913 269.394 437.119L274.751 448.617C274.751 448.617 295.988 462.434 307.175 462.026C307.901 462.001 308.622 461.9 309.327 461.722C319.64 459.05 319.451 455.118 319.451 455.118L329.77 444.196C329.77 444.196 333.628 434.008 331.556 427.137C331.556 427.137 334.376 422.716 333.743 418.354L335.631 412.586C335.631 412.586 337.248 405.545 331.713 403.637C329.507 402.87 323.671 395.322 323.671 395.322L327.276 392.882L323.104 383.606L310.415 377.256L304.303 376.653C304.303 376.653 296.062 368.347 290.296 366.026L274.67 366.777L270.993 371.766Z" fill="#2B2525"/>
<path opacity="0.6" d="M312.05 460.909C319.596 458.324 319.436 455.134 319.436 455.134L329.769 444.196C329.769 444.196 333.628 434.008 331.555 427.137C331.555 427.137 334.376 422.716 333.743 418.354L335.63 412.586C335.63 412.586 337.248 405.545 331.713 403.637C329.506 402.87 323.671 395.322 323.671 395.322L327.275 392.882L323.104 383.606L310.415 377.256L304.303 376.653C304.303 376.653 296.062 368.348 290.296 366.026L283.207 366.363L288.558 369.153L297.495 379.188L303.355 383.398L313.653 386.385C313.653 386.385 310.457 395.105 311.612 398.096L316.973 397.834L324.744 405.652C324.744 405.652 330.756 412.967 329.109 417.837L329.009 421.61L326.417 422.592L328.036 426.132L326.44 429.11L326.049 432.888L320.616 440.532L323.426 445.499L319.843 449.29L312.05 460.909Z" fill="#6D3DFF"/>
<path d="M270.993 371.766C270.993 371.766 259.527 377.545 263.788 393.439C268.049 409.334 263.26 395.989 263.26 395.989L259.085 404.116L262.812 418.294C262.812 418.294 263.151 433.913 269.394 437.119L274.751 448.617C274.751 448.617 295.988 462.434 307.175 462.026C307.901 462.001 308.622 461.9 309.327 461.722C319.64 459.05 319.451 455.118 319.451 455.118L329.77 444.196C329.77 444.196 333.628 434.008 331.556 427.137C331.556 427.137 334.376 422.716 333.743 418.354L335.631 412.586C335.631 412.586 337.248 405.545 331.713 403.637C329.507 402.87 323.671 395.322 323.671 395.322L327.276 392.882L323.104 383.606L310.415 377.256L304.303 376.653C304.303 376.653 296.062 368.347 290.296 366.026L274.67 366.777L270.993 371.766Z" stroke="#1100A5" stroke-miterlimit="10"/>
<path d="M183.41 400.621C183.41 400.621 178.403 400.646 176.709 402.449C175.015 404.252 172.779 411.127 179.182 413.464C185.586 415.801 186.907 406.775 186.907 406.775L183.41 400.621Z" fill="#2B2525"/>
<path d="M194.82 392.155C194.242 392.187 190.781 392.74 190.34 395.469C190.161 396.155 190.151 396.875 190.31 397.566C190.469 398.258 190.793 398.901 191.253 399.44L190.424 400.254C190.424 400.254 193.644 406.707 195.472 405.602C197.3 404.498 198.622 398.754 198.622 398.754L200.287 394.2L198.195 392.853L194.82 392.155Z" fill="#2B2525"/>
<path d="M183.41 400.621C183.41 400.621 178.403 400.646 176.709 402.449C175.015 404.252 172.779 411.127 179.182 413.464C185.586 415.801 186.907 406.775 186.907 406.775L183.41 400.621Z" stroke="#1100A5" stroke-miterlimit="10"/>
<path opacity="0.6" d="M196.042 405.061C197.551 403.292 198.62 398.723 198.62 398.723L200.285 394.169L198.183 392.818L197.43 392.617L197.987 395.095L197.203 395.548C197.203 395.548 196.909 399.465 196.554 399.981L196.719 400.833L196.059 402.136L196.09 405.074" fill="#6D3DFF"/>
<path d="M194.82 392.155C194.242 392.187 190.781 392.74 190.34 395.469C190.161 396.155 190.151 396.875 190.31 397.566C190.469 398.258 190.793 398.901 191.253 399.44L190.424 400.254C190.424 400.254 193.644 406.707 195.472 405.602C197.3 404.498 198.622 398.754 198.622 398.754L200.287 394.2L198.195 392.853L194.82 392.155Z" stroke="#1100A5" stroke-miterlimit="10"/>
<path opacity="0.6" d="M40.4814 271.26C41.3519 271.325 42.2272 271.245 43.0712 271.022L49.6298 270.191L53.6931 264.261C53.6931 264.261 56.5926 260.897 57.8812 260.724C59.1697 260.552 61.5291 256.846 61.4502 256.639C61.3712 256.431 66.7277 245.868 63.6268 243.184C60.9106 240.841 60.3826 239.064 55.7451 236.009L57.9548 240.049C57.9548 240.049 58.7823 243.49 58.4435 244.021C58.4435 244.021 62.1064 246.038 55.3664 256.934L54.5785 258.639L55.2035 259.551L52.7597 263.224C52.7597 263.224 52.6401 259.807 51.4052 261.981C51.4052 261.981 48.8185 262.323 48.8591 263.369C49.0688 263.82 49.1986 264.303 49.2426 264.797L46.7275 267.229L44.3898 266.758L44.2367 268.218L43.2825 269.422L41.4046 269.592L41.6607 270.375L40.4814 271.26Z" fill="#6D3DFF"/>
<path d="M53.4908 234.608C53.4908 234.608 46.8137 231.67 44.0424 232.894C41.271 234.119 37.3814 239.092 37.3814 239.092L36.7635 244.102L34.2539 250.532C34.2539 250.532 34.1505 252.927 35.6533 252.418L32.6231 257.352C32.6231 257.352 34.5478 261.181 35.3999 260.705C36.2521 260.23 32.9513 264.087 32.9513 264.087C32.9513 264.087 35.7751 272.867 43.0788 270.993L49.6373 270.162L53.7007 264.232C53.7007 264.232 56.6002 260.868 57.8888 260.695C59.1773 260.523 61.5367 256.817 61.4578 256.61C61.3788 256.402 66.7353 245.839 63.6344 243.155C60.5334 240.471 60.2793 238.56 53.4908 234.608Z" stroke="#1100A5" stroke-miterlimit="10"/>
<path d="M39.4105 394.181C39.4105 394.181 19.0516 377.742 3.81063 380.646C-11.4304 383.551 -22.8607 412.416 -22.8607 412.416L-16.0807 420.765L-18.4115 450.598C-18.4115 450.598 12.7216 479.915 25.429 473.33L53.1146 466.057C53.1146 466.057 60.839 440.475 61.8455 429.957L39.4105 394.181Z" fill="#2B2525"/>
<path opacity="0.6" d="M21.634 474.394C22.9471 474.345 24.234 474.012 25.4054 473.417L53.091 466.144C53.091 466.144 60.8154 440.562 61.8219 430.044L39.3688 394.336C39.3688 394.336 38.177 393.375 36.1631 391.966L38.0205 396.045L41.8959 407.198L38.1874 412.654L38.6488 418.389L35.4019 423.514L44.1251 428.398L40.3642 445.331L34.443 445.908L34.0622 449.803L37.12 451.45L43.6814 448.715L46.3805 445.442L46.4367 449.598L43.4189 452.786L37.6233 455.56L31.2018 454.875L34.4419 457.079L37.8916 458.5L41.6367 456.346L41.9309 459.769L37.6478 461.458L31.4838 461.473L26.0769 455.997L23.1252 457.701L15.3089 454.571L22.788 459.578L28.2523 462.367L30.3563 464.328L37.8381 464.998L43.9871 461.831L47.6025 458.307L49.1521 461.217L44.0493 465.347L32.0497 468.789L23.3619 466.129L21.6314 474.404" fill="#6D3DFF"/>
<path d="M39.4105 394.181C39.4105 394.181 19.0516 377.742 3.81063 380.646C-11.4304 383.551 -22.8607 412.416 -22.8607 412.416L-16.0807 420.765L-18.4115 450.598C-18.4115 450.598 12.7216 479.915 25.429 473.33L53.1146 466.057C53.1146 466.057 60.839 440.475 61.8455 429.957L39.4105 394.181Z" stroke="#1100A5" stroke-miterlimit="10"/>
<path d="M239.466 397.161C238.536 396.767 235.869 399.303 235.869 399.303C235.869 399.303 240.819 407.876 243.3 408.893C245.782 409.91 249.752 407.34 249.752 407.34L251.823 405.059C251.823 405.059 256.388 396.136 255.246 395.105C254.104 394.075 248.942 390.621 243.812 392.611C238.682 394.601 240.006 394.759 240.006 394.759L239.466 397.161Z" fill="#2B2525"/>
<path opacity="0.6" d="M244.129 409.084C246.557 409.373 249.779 407.316 249.779 407.316L251.848 405.044C251.848 405.044 256.413 396.122 255.283 395.084C253.105 393.301 250.436 392.225 247.631 391.998L251.309 395.117L251.676 397.109L249.605 398.19L250.549 399.613C250.438 400.736 250.2 401.843 249.841 402.912L248.614 405.638L246.819 405.612L245.785 406.805L246.159 407.226L245.459 407.908L244.129 409.084Z" fill="#6D3DFF"/>
<path d="M239.466 397.161C238.536 396.767 235.869 399.303 235.869 399.303C235.869 399.303 240.819 407.876 243.3 408.893C245.782 409.91 249.752 407.34 249.752 407.34L251.823 405.059C251.823 405.059 256.388 396.136 255.246 395.105C254.104 394.075 248.942 390.621 243.812 392.611C238.682 394.601 240.006 394.759 240.006 394.759L239.466 397.161Z" stroke="#1100A5" stroke-miterlimit="10"/>
</g>
<defs>
<clipPath id="clip0_226_6038">
<rect width="431.37" height="818.49" fill="white" transform="translate(-198 416.671) rotate(-75)"/>
</clipPath>
</defs>
</svg>



