<svg width="53" height="50" viewBox="0 0 53 50" fill="none" xmlns="http://www.w3.org/2000/svg">
<g clip-path="url(#clip0_725_223)">
<path d="M52.9104 3.70333L43.2578 43.475C43.15 43.9142 42.944 44.3232 42.6553 44.6714C42.3666 45.0196 42.0028 45.2978 41.5911 45.4851C41.1794 45.6724 40.7306 45.764 40.2784 45.753C39.8262 45.7419 39.3824 45.6286 38.9804 45.4214L26.7721 39.1226L20.999 48.5648C19.4286 51.1384 15.454 50.0225 15.454 47.0131V36.4917C15.4554 36.0873 15.5383 35.6874 15.6977 35.3158C15.8571 34.9443 16.0899 34.6086 16.382 34.329L40.1755 11.6209C40.156 11.3376 39.851 11.091 39.5503 11.2965L11.1582 31.0612L1.61917 26.1411C-0.61417 24.9873 -0.518996 21.7509 1.79005 20.7485L48.8233 0.253863C51.075 -0.730155 53.4977 1.29411 52.9115 3.69793L52.9104 3.70333Z" fill="black"/>
</g>
<defs>
<clipPath id="clip0_725_223">
<rect width="53" height="50" fill="white"/>
</clipPath>
</defs>
</svg>
