<svg width="711" height="504" viewBox="0 0 711 504" fill="none" xmlns="http://www.w3.org/2000/svg">
<path d="M6.7537 132.648C6.7537 132.648 0.258319 127.508 1.07023 118.851C1.33904 113.442 2.71598 113.173 3.1 109.525C6.07336 110.2 13.2434 112.498 13.9237 123.728" stroke="#023AEC" stroke-miterlimit="10"/>
<path d="M12.8374 117.908C12.8374 117.908 13.3861 110.469 16.7599 106.678C18.4232 104.894 19.961 102.996 21.3625 101C21.3625 101 25.5538 105.328 25.5538 110.469C25.5538 115.609 23.7928 122.368 23.7928 122.368" stroke="#023AEC" stroke-miterlimit="10"/>
<path d="M19.0585 129.132C19.0585 129.132 21.39 121.72 27.4245 120.623C33.459 119.526 35.4065 117.644 35.4065 117.644C35.4065 117.644 39.0601 129.954 28.2364 134.42" stroke="#023AEC" stroke-miterlimit="10"/>
<path d="M680.754 439.648C680.754 439.648 674.258 434.508 675.07 425.851C675.339 420.442 676.716 420.173 677.1 416.525C680.073 417.2 687.243 419.498 687.924 430.728" stroke="#023AEC" stroke-miterlimit="10"/>
<path d="M686.837 424.908C686.837 424.908 687.386 417.469 690.76 413.678C692.423 411.894 693.961 409.996 695.363 408C695.363 408 699.554 412.328 699.554 417.469C699.554 422.609 697.793 429.368 697.793 429.368" stroke="#023AEC" stroke-miterlimit="10"/>
<path d="M693.059 436.132C693.059 436.132 695.39 428.72 701.425 427.623C707.459 426.526 709.407 424.644 709.407 424.644C709.407 424.644 713.06 436.954 702.237 441.42" stroke="#023AEC" stroke-miterlimit="10"/>
<ellipse rx="79.6628" ry="10.9715" transform="matrix(-0.998653 -0.0518905 -0.0518905 0.998653 473.473 486.706)" fill="#00C587"/>
<path d="M491.909 60.3747C491.909 60.3747 507.072 44.1378 528.347 75.6418C549.622 107.146 688.219 315.875 477.639 334.133C477.639 334.133 289.578 327.711 426.236 100.147C426.266 100.149 460.703 32.6089 491.909 60.3747Z" fill="#A2FF81"/>
<path d="M486.907 184.122C486.907 184.122 506.634 185.829 508.265 173.167C509.895 160.505 492.418 168.868 492.418 168.868C492.418 168.868 484.586 172.675 477.452 167.63C470.319 162.584 462.207 163.417 464.069 170.903C465.764 177.713 479.273 184.408 486.907 184.122Z" fill="#C74557"/>
<path d="M495.561 58.4459C495.561 58.4459 497.045 41.5458 506.819 22.3938C506.819 22.3938 506.119 13.849 495.023 10.6691C495.023 10.6691 489.821 22.5583 490.98 44.3022C490.98 44.3022 485.727 51.125 474.321 48.302C474.321 48.302 451.821 -2.52071 376.635 44.639C301.448 91.7986 332.46 211.353 336.268 215.202C336.268 215.202 340.996 173.152 405.683 138.384C470.37 103.616 474.153 51.5316 474.153 51.5316C474.153 51.5316 485.37 54.551 491.256 48.7771C491.256 48.7771 490.146 57.7597 492.057 60.9782L495.561 58.4459Z" fill="#037578"/>
<path d="M485.45 188.276C485.92 188.301 486.367 188.324 486.803 188.283C494.843 188.971 510.296 186.742 511.919 173.357C512.429 169.145 511.505 166.065 509.164 164.206C503.685 159.849 492.739 164.709 491.505 165.28L491.391 165.33C489.22 166.35 486.836 166.738 484.484 166.454C482.133 166.17 479.899 165.224 478.015 163.714C473.134 159.929 467.319 159.15 463.541 161.772C460.726 163.721 459.584 167.122 460.389 171.061C462.236 180.268 476.621 187.81 485.45 188.276ZM486.904 184.32L486.785 184.314C479.003 184.703 465.426 177.164 464.001 170.193C463.673 168.588 463.669 166.366 465.531 165.073C467.525 163.685 471.586 163.674 475.763 166.907C478.2 168.847 481.087 170.054 484.123 170.401C487.16 170.749 490.233 170.225 493.023 168.883C495.673 167.672 503.753 164.861 506.913 167.375C508.105 168.317 508.54 170.174 508.213 172.871C506.631 185.893 487.21 184.336 487.024 184.318L486.904 184.32Z" fill="#037578"/>
<path d="M476.295 167.038C476.295 167.038 477.261 171.747 472.76 170.148C468.26 168.549 470.871 164.208 470.871 164.208C472.868 164.678 474.728 165.648 476.295 167.038Z" fill="white"/>
<path d="M505.493 178.873C505.493 178.873 490.838 170.635 473.565 180.127C477.736 182.934 482.611 184.345 487.562 184.18C495.628 183.805 499.775 183.576 505.493 178.873Z" fill="#B82F5E"/>
<path d="M588.075 200.229C588.075 200.229 604.254 216.546 594.477 323.83C594.477 323.83 594.067 341.794 589.713 343.544C589.713 343.544 587.946 343.603 588.086 338.594C588.086 338.594 588.077 344.673 584.717 343.285C584.717 343.285 583.749 342.623 584.544 340.99C585.34 339.356 585.016 337.522 584.284 337.801C583.551 338.081 581.616 342.227 580.105 341.084C578.594 339.942 579.358 338.911 580.349 336.383C581.341 333.855 579.773 329.916 578.099 332.773C576.425 335.631 573.496 336.026 574.134 331.956C574.724 328.225 581.375 312.609 580.456 286.838C580.456 286.838 591.921 267.678 592.636 246.135C592.995 230.676 591.462 215.245 588.075 200.229Z" fill="#C74557"/>
<path d="M384.935 189.419C384.935 189.419 338.371 256.766 302.527 215.385C302.527 215.385 303.387 209.755 300.277 207.164C300.277 207.164 297.741 204.596 296.851 210.63C296.851 210.63 293.675 201.956 291.506 203.264C289.337 204.572 291.191 209.327 291.191 209.327L290.218 210.071C290.218 210.071 287.218 205.049 285.429 206.377C285.429 206.377 282.849 208.267 286.788 213.337L284.184 216.242C284.184 216.242 280.564 211.799 279.307 213.964C279.307 213.964 307.029 284.885 378.712 215.772C378.741 215.789 381.342 198.693 384.935 189.419Z" fill="#C74557"/>
<path d="M528.983 460.459C543.415 428.953 544.03 394.38 541.868 369.79C540.46 353.826 537.575 338.058 533.254 322.713L540.255 319.806C544.807 335.763 547.832 352.175 549.285 368.794C551.554 394.191 550.932 429.772 536.257 462.662L528.983 460.459Z" fill="#C74557"/>
<path d="M406.864 455.574C428.793 405.274 422.008 340.132 418.632 317.027L426.834 321.509C428.684 335.79 429.685 350.186 429.829 364.612C430.095 390.722 427.47 426.262 414.337 457.391L406.864 455.574Z" fill="#C74557"/>
<path d="M532.958 461.673C532.958 461.673 538.785 463.492 540.327 465.62C541.869 467.748 536.597 474.951 536.597 474.951C536.597 474.951 550.116 479.296 552.898 490.084C552.898 490.084 540.46 494.295 517.421 482.058C517.421 482.058 521.364 465.039 525.024 460.666C527.708 460.459 530.401 460.801 532.958 461.673Z" fill="#FF6500"/>
<path d="M400.231 456.293C400.231 456.293 408.525 452.39 420.473 460.766L413.981 471.445C413.981 471.445 424.484 475.959 431.039 490.269C431.039 490.269 416.521 494.221 396.449 483.606L400.231 456.293Z" fill="#FF6500"/>
<path d="M494.987 10.6355C494.987 10.6355 493.35 17.2413 497.85 19.2926C497.85 19.2926 490.981 40.9687 493.903 59.566L491.993 60.9193C491.993 60.9193 490.215 56.5648 491.199 48.7186C489.223 50.565 486.755 51.7109 484.142 51.995C481.992 50.0563 479.313 48.897 476.492 48.6846C476.492 48.6846 484.894 50.6133 490.753 44.338C490.753 44.338 490.301 31.4567 491.203 28.4875C491.204 28.4796 492.191 14.9507 494.987 10.6355Z" fill="#0139F2"/>
<path d="M397.271 156.209C403.363 152.09 409.647 148.302 416.099 144.862C480.784 110.125 484.577 58.0097 484.577 58.0097C484.675 57.4164 484.707 56.8132 484.67 56.2129C484.67 56.2129 476.824 53.2178 473.547 54.4047C473.547 54.4047 469.309 87.3292 440.586 113.108C430.064 123.214 418.274 131.722 405.556 138.385L397.271 156.209Z" fill="#0139F2"/>
<path d="M369.905 223.799C369.905 223.799 370.209 212.473 359.276 216.365C368.38 208.638 376.815 200.061 384.477 190.737C384.477 190.737 378.429 208.416 378.579 216.035C378.579 216.035 371.5 222.461 369.905 223.799Z" fill="#0139F2"/>
<path d="M428.658 340.938C428.658 340.938 422.872 343.495 421.717 347.586C421.717 347.586 420.476 333.489 420.299 331.702C420.123 329.915 418.646 317.028 418.646 317.028L426.652 321.262C426.652 321.262 428.275 335.077 428.658 340.938Z" fill="#0139F2"/>
<path d="M418.632 317.027C418.632 317.027 397.087 293.882 389.484 269.676C382.422 247.276 387.611 210.155 387.773 209.354C387.904 208.702 403.199 163.01 406.778 149.401C406.899 148.947 397.516 154.952 397.315 155.378L383.141 193.715L378.085 219.065C378.085 219.065 371.048 259.797 388.557 286.931C388.588 286.908 396.172 302.565 418.632 317.027Z" fill="#0139F2"/>
<path d="M473.579 54.3671C479.655 53.7224 485.888 55.5067 491.992 60.9431C491.992 60.9431 507.155 44.7063 528.43 76.2103C549.705 107.714 688.302 316.443 477.722 334.701C477.722 334.701 310.936 328.996 405.674 138.264" stroke="#030D78" stroke-width="0.940416" stroke-miterlimit="10"/>
<path d="M528.968 460.736C543.4 429.222 544.014 394.68 541.853 370.067C540.445 354.101 537.561 338.33 533.24 322.982L540.24 320.083C544.791 336.038 547.817 352.447 549.271 369.063C551.54 394.468 550.917 430.049 536.242 462.939L528.968 460.736Z" stroke="#030D78" stroke-width="0.940416" stroke-miterlimit="10"/>
<path d="M406.683 455.327C428.619 405.027 421.826 339.885 418.45 316.78L426.69 321.263C428.537 335.545 429.537 349.941 429.684 364.366C429.95 390.476 427.333 426.017 414.2 457.146L406.683 455.327Z" stroke="#030D78" stroke-width="0.940416" stroke-miterlimit="10"/>
<path d="M495.531 58.4442C495.531 58.4442 497.007 41.5437 506.789 22.3921C506.789 22.3921 506.089 13.8473 494.985 10.6671C494.985 10.6671 489.784 22.5562 490.949 44.3005C490.949 44.3005 485.697 51.1233 474.29 48.3003C474.29 48.3003 451.791 -2.52241 376.597 44.6369C301.403 91.7962 332.423 211.351 336.231 215.2C336.231 215.2 340.966 173.15 405.645 138.382C470.325 103.613 474.123 51.5298 474.123 51.5298C474.123 51.5298 485.339 54.5493 491.225 48.7754C491.225 48.7754 490.115 57.758 492.02 60.9761L495.531 58.4442Z" stroke="#030D78" stroke-width="0.940416" stroke-miterlimit="10"/>
<path d="M384.794 189.666C384.794 189.666 338.231 257.012 302.387 215.632C302.387 215.632 303.254 210.01 300.144 207.412C300.144 207.412 297.6 204.851 296.718 210.885C296.718 210.885 293.543 202.203 291.373 203.511C289.204 204.819 291.058 209.575 291.058 209.575L290.085 210.318C290.085 210.318 287.078 205.296 285.289 206.624C285.289 206.624 282.708 208.522 286.648 213.584L284.051 216.489C284.051 216.489 280.431 212.046 279.167 214.211C279.167 214.211 306.889 285.132 378.58 216.019C378.579 216.035 381.179 198.947 384.794 189.666Z" stroke="#030D78" stroke-width="0.940416" stroke-miterlimit="10"/>
<path d="M587.821 200.215C587.821 200.215 603.999 216.533 594.222 323.817C594.222 323.817 593.812 341.781 589.459 343.531C589.459 343.531 587.691 343.59 587.832 338.581C587.832 338.581 587.823 344.66 584.463 343.271C584.463 343.271 583.495 342.61 584.29 340.976C585.086 339.343 584.762 337.509 584.03 337.788C583.297 338.067 581.362 342.213 579.851 341.071C578.34 339.929 579.104 338.897 580.095 336.369C581.087 333.841 579.519 329.902 577.845 332.76C576.171 335.618 573.242 336.013 573.88 331.943C574.47 328.211 581.121 312.596 580.202 286.824" stroke="#030D78" stroke-width="0.940416" stroke-miterlimit="10"/>
<path d="M532.936 461.673C532.936 461.673 538.756 463.491 540.269 465.602C541.782 467.712 536.539 474.932 536.539 474.932C536.539 474.932 550.065 479.278 552.839 490.066C552.839 490.066 540.402 494.277 517.363 482.04C517.363 482.04 521.306 465.021 524.965 460.648C527.662 460.443 530.369 460.791 532.936 461.673V461.673Z" stroke="#030D78" stroke-width="0.940416" stroke-miterlimit="10"/>
<path d="M400.229 456.333C400.229 456.333 408.515 452.43 420.471 460.806L413.971 471.484C413.971 471.484 424.475 475.999 431.037 490.309C431.037 490.309 416.512 494.261 396.447 483.646L400.229 456.333Z" stroke="#030D78" stroke-width="0.940416" stroke-miterlimit="10"/>
<path d="M541.559 167.064C538.56 166.908 536.289 163.706 536.486 159.911C536.684 156.116 539.274 153.167 542.273 153.322C545.271 153.478 547.542 156.681 547.345 160.475C547.147 164.27 544.557 167.22 541.559 167.064Z" fill="#030D78"/>
<path d="M429.836 162.846C426.838 162.69 424.567 159.488 424.764 155.693C424.961 151.898 427.552 148.949 430.55 149.104C433.549 149.26 435.82 152.463 435.622 156.257C435.425 160.052 432.835 163.002 429.836 162.846Z" fill="#030D78"/>
<path d="M485.506 188.065C485.976 188.09 486.424 188.113 486.851 188.08C494.899 188.768 510.344 186.538 511.975 173.154C512.485 168.942 511.553 165.862 509.213 163.994C503.741 159.646 492.787 164.506 491.562 165.069L491.446 165.127C489.276 166.147 486.892 166.535 484.54 166.251C482.188 165.967 479.955 165.021 478.07 163.511C473.182 159.725 467.368 158.947 463.59 161.56C460.782 163.51 459.633 166.91 460.445 170.858C462.285 180.057 476.676 187.607 485.506 188.065ZM486.953 184.109L486.834 184.102C479.052 184.492 465.482 176.953 464.057 169.982C463.722 168.377 463.726 166.147 465.588 164.855C467.581 163.474 471.643 163.455 475.819 166.696C478.256 168.635 481.144 169.841 484.18 170.189C487.216 170.537 490.289 170.013 493.079 168.672C495.73 167.46 503.81 164.65 506.97 167.156C508.161 168.106 508.596 169.955 508.269 172.66C506.687 185.682 487.266 184.125 487.073 184.107L486.953 184.109Z" stroke="#030D78" stroke-width="0.940416" stroke-miterlimit="10"/>
<path d="M505.493 178.873C505.493 178.873 489.144 171 473.558 180.127" stroke="#030D78" stroke-width="0.940416" stroke-miterlimit="10"/>
<path d="M476.295 167.038C476.295 167.038 477.261 171.747 472.76 170.148C468.26 168.549 470.871 164.208 470.871 164.208C472.868 164.678 474.728 165.648 476.295 167.038V167.038Z" stroke="#030D78" stroke-width="0.940416" stroke-miterlimit="10"/>
<path d="M550.856 485.494C550.856 485.494 531.862 485.063 518.336 478.138" stroke="#030D78" stroke-width="0.940416" stroke-miterlimit="10"/>
<path d="M428.33 485.263C428.33 485.263 410.694 487.33 396.997 479.531" stroke="#030D78" stroke-width="0.940416" stroke-miterlimit="10"/>
<path d="M474.095 51.4966C474.095 51.4966 331.135 59.2676 336.225 215.168" stroke="#030D78" stroke-width="0.940416" stroke-miterlimit="10"/>
<path d="M399.482 77.2482C399.482 77.2482 372.434 61.4371 344.906 77.0157" stroke="#030D78" stroke-width="0.940416" stroke-miterlimit="10"/>
<path d="M388.091 85.5059C388.091 85.5059 356.707 75.1445 340.079 86.0193" stroke="#030D78" stroke-width="0.940416" stroke-miterlimit="10"/>
<path d="M105.253 309.89C105.253 309.89 87.5021 259.822 105.253 233.152C105.253 233.152 74.1297 214.388 89.047 185.748C89.047 185.748 110.65 201.341 109.112 228.092C109.112 228.092 116.311 218.316 120.939 217.29C120.939 217.29 122.741 222.694 127.369 221.669C127.369 221.669 116.824 229.387 113.74 233.246C113.74 233.246 130.715 220.643 154.12 234.272C154.12 234.272 138.177 251.509 110.907 238.9C110.907 238.9 94.9638 264.369 115.022 306.037C115.035 306.031 113.74 312.717 105.253 309.89Z" fill="#036B5A" stroke="#1100A5" stroke-miterlimit="10"/>
<path d="M117.036 210.498C91.5295 213.169 86.2256 241.246 86.2256 241.246C112.17 248.17 121.333 221.856 122.146 221.231L122.446 221.906C109.718 244.26 131.296 261.786 131.296 261.786C152.018 244.573 137.507 225.04 137.463 224.014H137.57C153.951 243.854 178 229.881 178 229.881C169.243 204.4 145.069 211.299 144.093 210.973L143.912 210.467C164.402 195.043 150.873 171 150.873 171C125.104 178.556 130.859 202.967 130.521 203.924L129.895 203.468C125.824 178.149 97.3713 177.167 97.3713 177.167C92.0236 203.48 116.273 209.572 116.948 210.317C116.992 210.31 117.361 210.46 117.036 210.498Z" fill="#B93D00" stroke="#1100A5" stroke-linecap="square" stroke-linejoin="round"/>
<path d="M130.652 225.265C138.431 225.265 144.737 218.959 144.737 211.18C144.737 203.401 138.431 197.094 130.652 197.094C122.873 197.094 116.567 203.401 116.567 211.18C116.567 218.959 122.873 225.265 130.652 225.265Z" fill="#E7B000" stroke="#1100A5" stroke-miterlimit="10"/>
<path d="M89.0461 185.748C89.0461 185.748 92.0609 207.083 100.611 217.078" stroke="#1100A5" stroke-linejoin="round"/>
<path d="M85 201.417L93.5376 203.743" stroke="#1100A5" stroke-linejoin="round"/>
<path d="M85.2881 197.094L92.7436 201.416" stroke="#1100A5" stroke-linejoin="round"/>
<path d="M97.291 212.212L104.29 204.587" stroke="#1100A5" stroke-linejoin="round"/>
<path d="M98.7727 214.657L106.178 209.028" stroke="#1100A5" stroke-linejoin="round"/>
<path d="M112.001 235.61C112.001 235.61 118.443 235.073 118.443 235.61" stroke="#1100A5" stroke-linejoin="round"/>
<path d="M141.93 235.373C141.93 235.373 152.106 234.747 153.713 234.034" stroke="#1100A5" stroke-linejoin="round"/>
<path d="M142.462 229.306L141.636 234.034" stroke="#1100A5" stroke-linejoin="round"/>
<path d="M144.738 230.394L144.006 235.229" stroke="#1100A5" stroke-linejoin="round"/>
<path d="M124.235 206.896C124.22 206.692 124.145 206.497 124.02 206.336C123.895 206.174 123.726 206.052 123.534 205.985C123.341 205.917 123.132 205.908 122.934 205.957C122.736 206.006 122.557 206.112 122.418 206.262C122.279 206.412 122.186 206.599 122.152 206.8C122.118 207.001 122.143 207.208 122.224 207.395C122.305 207.583 122.44 207.742 122.61 207.855C122.781 207.967 122.98 208.027 123.185 208.028C123.474 208.016 123.747 207.891 123.944 207.678C124.141 207.466 124.246 207.185 124.235 206.896Z" fill="#1100A5"/>
<path d="M126.049 217.71C122.415 215.652 122.659 213.425 123.122 212.281C123.587 211.279 124.424 210.498 125.455 210.104C126.975 209.604 128.676 210.26 130.459 212.074C130.565 212.169 130.683 212.251 130.809 212.318C131.145 212.516 131.533 212.61 131.922 212.587C132.835 212.515 133.749 212.686 134.574 213.081C135.2 213.425 136.451 214.507 135.069 216.99C133.417 219.905 130.24 219.523 128.758 218.898C127.819 218.588 126.913 218.19 126.049 217.71Z" fill="#A2FF5C"/>
<path d="M127.857 211.78C127.572 211.587 127.25 211.457 126.912 211.398C126.573 211.339 126.226 211.352 125.893 211.436C125.249 211.709 124.725 212.204 124.417 212.831C123.91 214.082 124.692 215.333 126.744 216.484C127.527 216.923 128.353 217.284 129.208 217.56H129.277C129.402 217.61 132.404 218.81 133.843 216.265C134.706 214.739 134.105 214.388 133.88 214.276C133.292 214.012 132.646 213.904 132.004 213.963C131.348 214 130.695 213.844 130.127 213.513C129.9 213.381 129.69 213.221 129.502 213.037C129.013 212.546 128.46 212.123 127.857 211.78Z" fill="#FDB300"/>
<path d="M124.303 213.901C125.748 213.432 129.051 213.012 131.058 217.929C131.058 217.929 125.811 217.46 124.335 214.126L124.303 213.901Z" fill="#7EFF5C" stroke="#28F2B5" stroke-miterlimit="10"/>
<path d="M126.018 217.754C122.346 215.677 122.59 213.432 123.059 212.275C123.533 211.268 124.375 210.482 125.411 210.079C126.95 209.573 128.67 210.236 130.477 212.068C130.584 212.163 130.702 212.245 130.828 212.312C131.158 212.509 131.538 212.605 131.922 212.587C132.845 212.509 133.771 212.68 134.605 213.082C135.231 213.432 136.519 214.52 135.1 217.028C133.436 219.974 130.227 219.58 128.732 218.955C127.791 218.642 126.882 218.24 126.018 217.754V217.754Z" stroke="#1100A5" stroke-linecap="round" stroke-linejoin="round"/>
<path d="M127.838 211.768C127.55 211.573 127.225 211.442 126.883 211.383C126.542 211.323 126.191 211.337 125.855 211.424C125.205 211.698 124.677 212.198 124.366 212.831C123.86 214.082 124.642 215.333 126.718 216.515C127.514 216.96 128.352 217.325 129.22 217.603L129.295 217.634C129.42 217.684 132.422 218.885 133.898 216.327C134.768 214.789 134.167 214.451 133.942 214.319C133.354 214.056 132.708 213.948 132.066 214.007C131.41 214.037 130.758 213.878 130.189 213.55C129.96 213.419 129.749 213.257 129.564 213.069C129.051 212.557 128.47 212.119 127.838 211.768V211.768Z" stroke="#1100A5" stroke-linecap="round" stroke-linejoin="round"/>
<path d="M124.254 213.913C125.711 213.438 129.045 213.012 131.072 217.972" stroke="#1100A5" stroke-linecap="round" stroke-linejoin="round"/>
<path d="M140.51 214.651C140.51 214.372 140.399 214.105 140.202 213.908C140.005 213.711 139.738 213.6 139.459 213.6C139.181 213.6 138.913 213.711 138.716 213.908C138.519 214.105 138.409 214.372 138.409 214.651C138.392 214.799 138.408 214.948 138.453 215.089C138.499 215.231 138.573 215.361 138.672 215.472C138.772 215.582 138.893 215.671 139.028 215.731C139.164 215.792 139.311 215.823 139.459 215.823C139.608 215.823 139.755 215.792 139.89 215.731C140.026 215.671 140.147 215.582 140.246 215.472C140.345 215.361 140.42 215.231 140.466 215.089C140.511 214.948 140.526 214.799 140.51 214.651Z" fill="#1100A5"/>
<path d="M106.903 187.056C108.529 188.684 110.275 190.187 112.126 191.553L118.531 196.519C118.919 196.856 119.363 197.12 119.844 197.301C121.333 197.758 122.896 196.35 123.09 194.799C123.284 193.248 122.465 191.759 121.495 190.558C119.331 187.932 116.26 186.249 113.264 184.629L104.589 179.944C102.713 178.919 100.123 178.162 101.994 180.983C103.454 183.144 105.096 185.175 106.903 187.056Z" fill="#D94E09"/>
<path d="M150.767 174.609C152.487 179.6 153.049 184.918 152.41 190.158C151.77 195.399 149.946 200.425 147.077 204.857C146.845 205.201 146.495 205.588 146.101 205.482C145.928 205.415 145.779 205.3 145.669 205.15C144.149 203.449 140.609 200.891 141.291 198.552C142.004 196.05 144.418 193.329 145.544 190.902C146.789 188.265 147.861 185.549 148.753 182.771C149.297 180.976 151.361 176.385 150.767 174.609Z" fill="#D94E09"/>
<path d="M147.377 218.504C157.677 219.307 167.501 223.174 175.585 229.606C176.292 227.654 174.753 225.659 173.265 224.208C169.69 220.563 165.567 217.5 161.043 215.133C157.703 213.475 151.862 210.98 148.04 212.112C145.488 212.868 143.806 218.216 147.377 218.504Z" fill="#D94E09"/>
<path d="M135.375 238.056C135.01 239.323 134.825 240.635 134.825 241.953L134.293 253.136L136.995 250.916C137.699 250.367 138.356 249.761 138.959 249.102C140.579 247.226 141.173 244.624 141.379 242.134C141.536 240.258 141.48 238.313 140.548 236.699C138.878 233.809 136.182 235.692 135.375 238.056Z" fill="#D94E09"/>
<path d="M114.253 216.171C114.622 216.797 115.191 217.51 114.784 218.048C114.569 218.286 114.281 218.446 113.965 218.504C108.351 220.207 103.1 222.934 98.4786 226.548C96.8462 227.799 95.1699 229.269 93.1184 229.531C93.5559 226.908 94.7517 224.471 96.5585 222.52C100.532 218.489 105.192 215.198 110.319 212.8C110.955 212.505 111.658 212.38 112.358 212.437C114.409 212.8 113.408 214.814 114.253 216.171Z" fill="#D94E09"/>
<path d="M130.19 202.367C130.565 202.136 131.072 201.948 131.403 202.23C131.735 202.511 131.641 202.98 131.616 203.393C131.597 203.86 131.68 204.326 131.86 204.758C132.039 205.19 132.31 205.578 132.654 205.895C132.982 205.293 133.164 204.622 133.186 203.937C133.223 204.577 133.349 205.209 133.561 205.813C133.667 206.112 133.833 206.385 134.048 206.617C134.263 206.849 134.523 207.036 134.812 207.164C135.106 206.437 135.193 205.643 135.062 204.869L135.863 205.394C135.607 206.298 135.692 207.264 136.1 208.109C136.232 208.384 136.451 208.678 136.757 208.678C136.879 208.667 136.997 208.626 137.101 208.56C137.204 208.493 137.29 208.403 137.351 208.297C137.583 207.969 137.731 207.589 137.781 207.191C137.831 206.793 137.783 206.388 137.639 206.014C137.93 206.831 138.408 207.57 139.034 208.171C139.203 208.334 139.447 208.497 139.659 208.39C139.744 208.34 139.811 208.266 139.853 208.178C140.028 207.865 140.103 207.505 140.067 207.149C140.031 206.792 139.887 206.455 139.653 206.183" fill="#E7B000"/>
<path d="M130.19 202.367C130.565 202.136 131.072 201.948 131.403 202.23C131.735 202.511 131.641 202.98 131.616 203.393C131.597 203.86 131.68 204.326 131.86 204.758C132.039 205.19 132.31 205.578 132.654 205.895C132.982 205.293 133.164 204.622 133.186 203.937C133.223 204.577 133.349 205.209 133.561 205.813C133.667 206.112 133.833 206.385 134.048 206.617C134.263 206.849 134.523 207.036 134.812 207.164C135.106 206.437 135.193 205.643 135.062 204.869L135.863 205.394C135.607 206.298 135.692 207.264 136.1 208.109C136.232 208.384 136.451 208.678 136.757 208.678C136.879 208.667 136.997 208.626 137.101 208.56C137.204 208.493 137.29 208.403 137.351 208.297C137.583 207.969 137.731 207.589 137.781 207.191C137.831 206.793 137.783 206.388 137.639 206.014C137.93 206.831 138.408 207.57 139.034 208.171C139.203 208.334 139.447 208.497 139.659 208.39C139.744 208.34 139.811 208.266 139.853 208.178C140.028 207.865 140.103 207.505 140.067 207.149C140.031 206.792 139.887 206.455 139.653 206.183" stroke="#1100A5" stroke-width="0.75" stroke-miterlimit="10"/>
<path d="M101.237 264.2C101.043 277.085 102.84 289.923 106.566 302.26C107.004 303.717 107.511 305.231 108.624 306.269C109.737 307.307 111.645 307.645 112.752 306.6C106.948 289.319 101.069 271.03 104.728 253.167C105.584 248.983 107.955 244.705 108.48 240.614C105.197 240.451 103.37 248.314 102.757 250.753C101.739 255.163 101.229 259.674 101.237 264.2Z" fill="#085246"/>
</svg>
