<svg width="1319" height="631" viewBox="0 0 1319 631" fill="none" xmlns="http://www.w3.org/2000/svg">
<path d="M14.7 626.879C14.7 626.879 5.39052 621.707 4.62192 610.554C3.83904 603.635 5.53027 603.008 5.25947 598.299C9.17232 598.538 18.7474 599.964 21.9439 614.071" stroke="#023AEC" stroke-miterlimit="10"/>
<path d="M19.3563 606.912C19.3563 606.912 18.5068 597.359 21.9999 591.848C23.7395 589.239 25.2965 586.512 26.6599 583.688C26.6599 583.688 32.8773 588.309 33.9454 594.831C35.0135 601.353 34.1834 610.294 34.1834 610.294" stroke="#023AEC" stroke-miterlimit="10"/>
<path d="M29.5819 619.86C29.5819 619.86 31.0001 609.972 38.4288 607.326C45.8575 604.68 47.9376 601.888 47.9376 601.888C47.9376 601.888 55.1312 616.748 42.3258 624.663" stroke="#023AEC" stroke-miterlimit="10"/>
<path d="M1313.03 255.38C1313.03 255.38 1318.86 250.77 1318.13 243.008C1317.89 238.157 1316.65 237.916 1316.31 234.645C1313.64 235.25 1307.21 237.311 1306.6 247.381" stroke="#023AEC" stroke-miterlimit="10"/>
<path d="M1307.58 242.161C1307.58 242.161 1307.09 235.491 1304.06 232.092C1302.57 230.492 1301.19 228.79 1299.93 227C1299.93 227 1296.17 230.881 1296.17 235.491C1296.17 240.1 1297.75 246.161 1297.75 246.161" stroke="#023AEC" stroke-miterlimit="10"/>
<path d="M1302 252.226C1302 252.226 1299.91 245.58 1294.5 244.597C1289.09 243.613 1287.34 241.925 1287.34 241.925C1287.34 241.925 1284.06 252.964 1293.77 256.969" stroke="#023AEC" stroke-miterlimit="10"/>
<path d="M785.643 158.649C785.643 158.649 810.946 114.138 797.897 65.3805C797.897 65.3805 790.145 92.4046 769.738 86.3465C769.738 86.3465 772.184 61.2033 795.846 58.1076C795.846 58.1076 793.805 44.7874 790.518 43.189C790.518 43.189 799.23 47.6806 801.606 43.189C801.606 43.189 803.172 50.9733 803.577 54.6337C803.577 54.6337 811.878 41.3135 821.4 43.189C821.4 43.189 822.162 58.5818 804.803 59.5142C804.803 59.5142 823.984 110.131 799.906 158.686C799.927 158.649 796.661 163.956 785.643 158.649Z" fill="#036B5A" stroke="#1100A5" stroke-miterlimit="10"/>
<path d="M783.362 39.6993C757.089 37.5681 745 66.2492 745 66.2492C769.408 78.5891 784.961 52.5401 785.92 52.0339L786.058 52.8065C767.884 73.9803 785.376 96.6833 785.376 96.6833C810.344 82.4946 800.46 59.0403 800.668 57.9428H800.78C812.464 82.0737 840 71.9503 840 71.9503C837.336 43.3224 811.372 45.9385 810.472 45.4057L810.408 44.8356C834.715 32.4904 826.925 4.45399 826.925 4.45399C799.219 7.45903 799.155 34.3872 798.553 35.3303L798.052 34.7282C800.05 7.17132 771.699 0.628418 771.699 0.628418C759.977 27.4128 782.888 38.5432 783.389 39.4916C783.368 39.4969 783.703 39.726 783.362 39.6993Z" fill="#0084E0" stroke="#1100A5" stroke-linecap="square" stroke-linejoin="round"/>
<path d="M795.792 56.2752C801.398 56.2752 805.942 51.7309 805.942 46.1252C805.942 40.5195 801.398 35.9752 795.792 35.9752C790.186 35.9752 785.642 40.5195 785.642 46.1252C785.642 51.7309 790.186 56.2752 795.792 56.2752Z" fill="#FF8286" stroke="#1100A5" stroke-miterlimit="10"/>
<path d="M797.2 47.0577C796.092 47.5323 794.872 47.6784 793.683 47.4786C793.534 47.4503 793.402 47.364 793.317 47.2386C793.231 47.1132 793.199 46.959 793.228 46.8099C793.256 46.6608 793.342 46.529 793.468 46.4436C793.593 46.3582 793.747 46.3261 793.896 46.3543C794.019 46.3543 796.853 46.8872 798.116 44.7559C798.155 44.6908 798.206 44.634 798.266 44.5886C798.326 44.5432 798.395 44.5102 798.468 44.4914C798.542 44.4726 798.618 44.4684 798.693 44.479C798.768 44.4897 798.84 44.515 798.905 44.5534C798.97 44.5919 799.027 44.6428 799.072 44.7033C799.117 44.7638 799.15 44.8325 799.169 44.9058C799.188 44.979 799.192 45.0552 799.182 45.1301C799.171 45.2049 799.146 45.2769 799.107 45.342C798.66 46.0944 797.995 46.6929 797.2 47.0577Z" fill="#4C9534"/>
<path d="M797.263 47.0783C796.141 47.5569 794.907 47.7048 793.704 47.5046C793.572 47.4593 793.46 47.3679 793.39 47.2473C793.32 47.1266 793.296 46.9847 793.322 46.8476C793.347 46.7104 793.422 46.5872 793.531 46.5004C793.641 46.4136 793.777 46.3691 793.917 46.375C794.039 46.375 796.906 46.9079 798.179 44.75C798.258 44.6171 798.386 44.5209 798.535 44.4824C798.685 44.444 798.843 44.4664 798.976 44.5448C799.109 44.6233 799.205 44.7513 799.243 44.9006C799.282 45.05 799.259 45.2086 799.181 45.3414C798.732 46.1008 798.063 46.7063 797.263 47.0783Z" stroke="#1100A5" stroke-linecap="round" stroke-linejoin="round"/>
<path d="M793.815 46.9404C793.815 46.9404 797.161 47.5424 798.691 45.0329" stroke="#1100A5" stroke-linecap="round" stroke-linejoin="round"/>
<path d="M790.423 46.711C790.41 46.5487 790.351 46.3935 790.251 46.2645C790.152 46.1355 790.017 46.0383 789.863 45.9848C789.71 45.9314 789.543 45.924 789.385 45.9635C789.228 46.0031 789.085 46.0879 788.974 46.2076C788.864 46.3273 788.791 46.4765 788.764 46.6372C788.737 46.7978 788.758 46.9627 788.823 47.1118C788.889 47.2609 788.996 47.3876 789.133 47.4763C789.269 47.5651 789.429 47.6121 789.592 47.6115C789.705 47.6074 789.817 47.5808 789.921 47.5332C790.024 47.4857 790.118 47.4181 790.195 47.3344C790.272 47.2507 790.332 47.1525 790.371 47.0455C790.41 46.9385 790.428 46.8249 790.423 46.711Z" fill="#1100A5"/>
<path d="M802.586 42.0647C802.574 41.9024 802.514 41.7472 802.415 41.6182C802.315 41.4892 802.181 41.392 802.027 41.3385C801.873 41.2851 801.707 41.2777 801.549 41.3173C801.391 41.3568 801.248 41.4416 801.137 41.5613C801.027 41.6809 800.954 41.8303 800.927 41.9909C800.9 42.1515 800.921 42.3164 800.986 42.4655C801.052 42.6146 801.16 42.7413 801.296 42.83C801.433 42.9188 801.592 42.9657 801.755 42.9652C801.869 42.9611 801.981 42.9345 802.084 42.8869C802.188 42.8393 802.281 42.7718 802.358 42.6881C802.435 42.6044 802.495 42.5062 802.534 42.3992C802.574 42.2922 802.591 42.1785 802.586 42.0647Z" fill="#1100A5"/>
<path d="M783.597 18.4026C786.847 22.9848 788.589 28.4727 789.697 33.982C789.889 34.9357 790.449 36.1665 791.397 35.948C792.106 35.7882 792.335 34.9091 792.404 34.1844C792.721 30.6455 792.248 27.0803 791.019 23.7467C788.951 18.1575 783.943 10.0801 778.828 6.76073C775.754 4.7627 777.299 8.97722 778.141 10.7248C779.499 13.5647 781.79 15.8558 783.597 18.4026Z" fill="#3BA0E6"/>
<path d="M810.717 29.1391C812.678 26.606 814.406 23.9007 815.879 21.0564C817.798 17.0869 818.783 12.5847 821.57 9.16405C821.68 9.00118 821.839 8.87649 822.023 8.80708C822.132 8.79076 822.243 8.79801 822.348 8.82835C822.454 8.85868 822.552 8.9114 822.636 8.98292C823.978 9.92066 823.85 11.9134 823.552 13.5278C822.678 18.1685 821.554 22.804 819.519 27.0665C817.483 31.329 814.473 35.2291 810.461 37.7227C808.793 38.751 805.335 39.2039 805.666 36.2308C805.921 34.1475 809.491 30.8281 810.717 29.1391Z" fill="#3BA0E6"/>
<path d="M830.282 63.239C831.88 63.5213 833.633 63.6758 834.96 64.6509C836.286 65.6259 836.899 67.7945 835.69 68.9134C834.896 69.638 833.697 69.6327 832.621 69.5581C827.122 69.1851 821.575 68.1728 816.636 65.6686C813.263 63.995 810.34 61.5377 808.111 58.5023C806.939 56.8452 803.098 50.8724 807.946 52.3803C811.58 53.5099 815.235 56.9838 818.602 58.8326C822.289 60.8307 826.152 62.525 830.282 63.239Z" fill="#3BA0E6"/>
<path d="M784.177 86.011C784.177 87.7692 784.311 89.6287 785.275 91.1046C785.513 91.5246 785.89 91.8486 786.341 92.021C787.523 92.362 788.44 90.9874 788.85 89.8259C790.342 85.5634 790.869 81.0238 791.386 76.5056L792.958 62.8923C793.123 62.054 793.087 61.1883 792.851 60.3668C791.535 56.8396 789.697 61.166 789.122 62.4981C785.827 69.9003 784.145 77.9191 784.188 86.0216L784.177 86.011Z" fill="#3BA0E6"/>
<path d="M779.59 46.8391C770.378 47.4784 762.285 53.0037 755.081 58.774C753.253 60.2339 751.293 62.0241 751.234 64.3632C751.234 64.9546 751.485 65.6952 752.076 65.7272C752.333 65.7121 752.58 65.6253 752.79 65.4767C759.466 61.5233 765.045 55.5878 772.344 52.993C775.738 51.7889 779.409 51.3466 782.622 49.7216C786.805 47.5957 781.444 46.7059 779.59 46.8391Z" fill="#3BA0E6"/>
<path d="M769.723 86.3522L778.099 78.5519" stroke="#1100A5" stroke-linejoin="round"/>
<path d="M821.421 43.1572L817.728 46.125" stroke="#1100A5" stroke-linejoin="round"/>
<path d="M793.752 160.04C793.752 160.04 814.249 133.975 805.351 69.5848C805.351 69.5848 814.174 91.7124 810.541 118.177C806.907 144.642 799.549 157.813 799.549 157.813C799.549 157.813 795.579 160.242 793.752 160.04Z" fill="#085246"/>
<path d="M774.754 172.648C774.754 172.648 768.258 167.508 769.07 158.851C769.339 153.442 770.716 153.173 771.1 149.525C774.073 150.2 781.243 152.499 781.924 163.728" fill="#04D493"/>
<path d="M774.754 172.648C774.754 172.648 768.258 167.508 769.07 158.851C769.339 153.442 770.716 153.173 771.1 149.525C774.073 150.2 781.243 152.499 781.924 163.728" stroke="#023AEC" stroke-miterlimit="10"/>
<path d="M780.837 157.908C780.837 157.908 781.386 150.469 784.76 146.678C786.423 144.894 787.961 142.996 789.363 141C789.363 141 793.554 145.328 793.554 150.469C793.554 155.609 791.793 162.368 791.793 162.368" fill="#04D493"/>
<path d="M780.837 157.908C780.837 157.908 781.386 150.469 784.76 146.678C786.423 144.894 787.961 142.996 789.363 141C789.363 141 793.554 145.328 793.554 150.469C793.554 155.609 791.793 162.368 791.793 162.368" stroke="#023AEC" stroke-miterlimit="10"/>
<path d="M787.058 169.132C787.058 169.132 789.39 161.72 795.424 160.623C801.459 159.526 803.407 157.644 803.407 157.644C803.407 157.644 807.06 169.954 796.236 174.42" fill="#04D493"/>
<path d="M787.058 169.132C787.058 169.132 789.39 161.72 795.424 160.623C801.459 159.526 803.407 157.644 803.407 157.644C803.407 157.644 807.06 169.954 796.236 174.42" stroke="#023AEC" stroke-miterlimit="10"/>
<path d="M631.754 57.6483C631.754 57.6483 625.258 52.508 626.07 43.8512C626.339 38.4421 627.716 38.1733 628.1 34.5251C631.073 35.1999 638.243 37.4985 638.924 48.7282" stroke="#023AEC" stroke-miterlimit="10"/>
<path d="M637.837 42.9076C637.837 42.9076 638.386 35.4687 641.76 31.6779C643.423 29.8936 644.961 27.9965 646.363 26C646.363 26 650.554 30.3284 650.554 35.4687C650.554 40.609 648.793 47.3676 648.793 47.3676" stroke="#023AEC" stroke-miterlimit="10"/>
<path d="M644.059 54.1315C644.059 54.1315 646.39 46.7201 652.425 45.6229C658.459 44.5257 660.407 42.644 660.407 42.644C660.407 42.644 664.06 54.9544 653.236 59.42" stroke="#023AEC" stroke-miterlimit="10"/>
</svg>
