<svg width="429" height="110" viewBox="0 0 429 110" fill="none" xmlns="http://www.w3.org/2000/svg">
<g filter="url(#filter0_d_422_402)">
<path d="M0 25C0 11.1929 11.1929 0 25 0L393.5 0C407.307 0 418.5 11.1929 418.5 25V75C418.5 88.8071 407.307 100 393.5 100H25C11.1929 100 0 88.8071 0 75V25Z" fill="white"/>
<path d="M1.19425 25C1.19425 11.8524 11.8524 1.19425 25 1.19425H393.5C406.648 1.19425 417.306 11.8524 417.306 25V75C417.306 88.1476 406.648 98.8058 393.5 98.8058H25C11.8524 98.8058 1.19425 88.1476 1.19425 75V25Z" stroke="black" stroke-width="2.38849"/>
</g>
<defs>
<filter id="filter0_d_422_402" x="0" y="0" width="428.239" height="109.739" filterUnits="userSpaceOnUse" color-interpolation-filters="sRGB">
<feFlood flood-opacity="0" result="BackgroundImageFix"/>
<feColorMatrix in="SourceAlpha" type="matrix" values="0 0 0 0 0 0 0 0 0 0 0 0 0 0 0 0 0 0 127 0" result="hardAlpha"/>
<feOffset dx="9.73948" dy="9.73948"/>
<feComposite in2="hardAlpha" operator="out"/>
<feColorMatrix type="matrix" values="0 0 0 0 0 0 0 0 0 0 0 0 0 0 0 0 0 0 1 0"/>
<feBlend mode="normal" in2="BackgroundImageFix" result="effect1_dropShadow_422_402"/>
<feBlend mode="normal" in="SourceGraphic" in2="effect1_dropShadow_422_402" result="shape"/>
</filter>
</defs>
</svg>


