<svg width="312" height="306" viewBox="0 0 312 306" fill="none" xmlns="http://www.w3.org/2000/svg">
<g id="box_cards02">
<path id="Rectangle 241" d="M53 15.2185H272C293.418 15.2185 310.781 32.5816 310.781 54V266C310.781 287.418 293.418 304.781 272 304.781H53C31.5816 304.781 14.2185 287.418 14.2185 266V54C14.2185 32.5816 31.5816 15.2185 53 15.2185Z" fill="black" stroke="black" stroke-width="2.43708"/>
<path id="Rectangle 169" d="M40 1.5H259C280.263 1.5 297.5 18.737 297.5 40V252C297.5 273.263 280.263 290.5 259 290.5H40C18.737 290.5 1.5 273.263 1.5 252V40C1.5 18.737 18.737 1.5 40 1.5Z" fill="white" stroke="black" stroke-width="3"/>
</g>
</svg>
