<svg width="473" height="412" viewBox="0 0 473 412" fill="none" xmlns="http://www.w3.org/2000/svg">
<g filter="url(#filter0_d_491_158)">
<rect x="3" y="3.3418" width="453" height="386.007" rx="37.3341" fill="white"/>
<rect x="1.5" y="1.8418" width="456" height="389.007" rx="38.8341" stroke="black" stroke-width="3"/>
</g>
<rect x="33.9014" y="64.5496" width="395.185" height="301.873" rx="22.4671" fill="#023AEC" stroke="black" stroke-width="2"/>
<rect width="21.8077" height="4.08894" transform="matrix(0.707105 -0.707109 0.707105 0.707109 416.123 37.9031)" fill="#1F1F1F"/>
<rect width="21.8077" height="4.08894" transform="matrix(0.707112 0.707101 -0.707112 0.707101 419.015 22.4831)" fill="#1F1F1F"/>
<circle cx="44.0031" cy="33.977" r="8.16833" fill="#FF532B" stroke="black" stroke-width="1.86671"/>
<circle cx="65.7463" cy="33.977" r="8.16833" fill="#A2FF5C" stroke="black" stroke-width="1.86671"/>
<circle cx="87.9945" cy="33.977" r="8.16833" fill="#864AE5" stroke="black" stroke-width="1.86671"/>
<path d="M200.152 26.1753C201.378 26.1753 202.269 25.2681 202.269 24.1593C202.269 23.0337 201.378 22.1264 200.152 22.1264C198.926 22.1264 198.018 23.0337 198.018 24.1593C198.018 25.2681 198.926 26.1753 200.152 26.1753ZM197.279 39.4308C200.454 39.4308 202.202 38.1708 202.202 35.3315V26.4945H198.119V35.1299C198.119 35.7515 197.615 36.0035 196.826 36.0035C196.574 36.0035 196.238 35.9531 196.036 35.8691V39.2796C196.422 39.3804 196.96 39.4308 197.279 39.4308ZM206.584 35.7347C208.365 35.7347 209.424 34.7435 209.726 33.4667H209.877V35.4827H213.96V26.4945H209.877V31.417C209.877 32.4923 209.34 33.1139 208.55 33.1139C207.777 33.1139 207.189 32.5259 207.189 31.5682V26.4945H203.09V32.2907C203.09 34.2227 204.4 35.7347 206.584 35.7347ZM216.934 26.1753C218.16 26.1753 219.068 25.2681 219.068 24.1593C219.068 23.0337 218.16 22.1264 216.934 22.1264C215.708 22.1264 214.8 23.0337 214.8 24.1593C214.8 25.2681 215.708 26.1753 216.934 26.1753ZM214.868 35.4827H218.967V26.4945H214.868V35.4827ZM225.417 35.7347C226.577 35.7347 227.988 35.4155 228.693 35.0963V31.7194C228.105 32.1227 226.862 32.4755 225.905 32.4755C224.712 32.4755 223.888 31.8874 223.888 30.9298C223.888 30.1066 224.644 29.485 225.737 29.485C226.677 29.485 227.215 29.7202 227.82 30.157L228.576 27.1161C227.753 26.5113 226.274 26.2425 225.249 26.2425C221.906 26.2425 219.705 28.3594 219.705 30.9634C219.705 33.7355 222.141 35.7347 225.417 35.7347ZM234.126 39.4308C238.477 39.4308 240.711 36.7932 240.711 34.3571V26.4945H236.629V31.2826C236.629 32.3579 236.091 32.9795 235.302 32.9795C234.529 32.9795 233.941 32.3915 233.941 31.4338V26.4945H229.841V32.2403C229.841 34.1723 231.152 35.4827 233.336 35.4827C235.117 35.4827 236.175 34.5083 236.478 33.2315H236.629V33.2483C236.629 34.5923 235.47 35.9699 233.605 35.9699C232.378 35.9699 231.404 35.7683 230.278 35.0963L229.472 38.5572C230.648 39.0612 232.698 39.4308 234.126 39.4308ZM243.845 35.7347C244.886 35.7347 245.777 34.9283 245.777 33.7691C245.777 32.6435 244.886 31.8202 243.845 31.8202C242.77 31.8202 241.879 32.6435 241.879 33.7691C241.879 34.9283 242.77 35.7347 243.845 35.7347ZM251.632 35.7347C254.421 35.7347 255.849 34.4747 255.849 32.6603C255.849 31.165 254.891 30.2074 252.674 29.8378C251.632 29.653 251.347 29.5186 251.347 29.2666C251.347 28.9978 251.683 28.9138 252.371 28.9138C253.094 28.9138 254.337 29.1994 254.824 29.5186V26.8305C254.051 26.5113 253.144 26.2425 251.279 26.2425C248.642 26.2425 247.247 27.4858 247.247 29.1322C247.247 30.6778 248.39 31.6522 250.322 32.0219C251.498 32.2403 251.716 32.3579 251.716 32.5763C251.716 32.8115 251.431 32.9123 250.557 32.9123C249.633 32.9123 248.155 32.5091 247.247 31.8538L246.474 34.7267C247.886 35.3987 249.683 35.7347 251.632 35.7347ZM256.577 39.1788H260.659V32.8619H260.827C260.995 34.4747 262.054 35.7347 263.885 35.7347C266.271 35.7347 267.883 33.8027 267.883 30.997C267.883 28.393 266.019 26.2425 263.28 26.2425C261.634 26.2425 260.34 26.9481 259.55 28.0402H259.483L256.946 26.4945H256.577V39.1788ZM262.003 32.5931C261.062 32.5931 260.407 31.8202 260.407 30.9298C260.407 30.0394 261.046 29.2834 261.97 29.2834C262.927 29.2834 263.582 30.0562 263.582 30.9466C263.582 31.837 262.944 32.5931 262.003 32.5931ZM272.346 35.7347C274.177 35.7347 275.387 34.3907 275.571 32.7779H275.723V35.4827H279.822V26.4945H279.452L276.899 28.0402H276.848C276.042 26.9481 274.748 26.2425 273.119 26.2425C270.38 26.2425 268.515 28.393 268.515 30.997C268.515 33.8027 269.96 35.7347 272.346 35.7347ZM274.395 32.5931C273.455 32.5931 272.816 31.837 272.816 30.9466C272.816 30.0562 273.471 29.2834 274.412 29.2834C275.353 29.2834 275.975 30.0394 275.975 30.9298C275.975 31.8202 275.336 32.5931 274.395 32.5931ZM286.384 35.7347C287.543 35.7347 288.955 35.4155 289.66 35.0963V31.7194C289.072 32.1227 287.829 32.4755 286.871 32.4755C285.679 32.4755 284.855 31.8874 284.855 30.9298C284.855 30.1066 285.611 29.485 286.703 29.485C287.644 29.485 288.182 29.7202 288.787 30.157L289.543 27.1161C288.72 26.5113 287.241 26.2425 286.216 26.2425C282.873 26.2425 280.672 28.3594 280.672 30.9634C280.672 33.7355 283.108 35.7347 286.384 35.7347ZM295.729 35.7347C297.022 35.7347 298.232 35.4827 299.021 35.2811L298.669 32.4251C297.795 32.7275 297.022 32.8619 296.081 32.8619C294.855 32.8619 294.267 32.4755 293.998 31.9546H299.979C300.046 31.7194 300.13 31.081 300.13 30.8122C300.13 28.393 298.131 26.2425 295.325 26.2425C292.352 26.2425 290.336 28.3594 290.336 30.9634C290.336 33.1139 291.814 35.7347 295.729 35.7347ZM293.864 30.3922C294.032 29.6026 294.569 29.149 295.393 29.149C296.266 29.149 296.821 29.8714 296.72 30.3922H293.864Z" fill="black"/>
<rect x="437.792" y="131.083" width="10.2689" height="32.5174" rx="5.05323" fill="#FCFF3F" stroke="black" stroke-width="1.86671"/>
<rect x="61.97" y="110.962" width="105.37" height="106.965" rx="27.2506" fill="white" stroke="black" stroke-width="1.5"/>
<rect x="71.2831" y="126.524" width="86.7427" height="75.9375" rx="27.2506" fill="#864AE5" stroke="black" stroke-width="1.5"/>
<rect x="180.005" y="110.962" width="106.167" height="106.965" rx="27.2506" fill="white" stroke="black" stroke-width="1.5"/>
<rect x="295.648" y="110.962" width="105.37" height="106.965" rx="27.2506" fill="white" stroke="black" stroke-width="1.5"/>
<rect x="61.97" y="228.199" width="105.37" height="106.965" rx="27.2506" fill="white" stroke="black" stroke-width="1.5"/>
<rect x="180.005" y="228.199" width="106.167" height="106.965" rx="27.2506" fill="white" stroke="black" stroke-width="1.5"/>
<rect x="189.24" y="126.524" width="86.7427" height="75.9375" rx="27.2506" fill="#FF532B" stroke="black" stroke-width="1.5"/>
<rect x="305.396" y="126.524" width="86.7427" height="75.9375" rx="27.2506" fill="#A2FF5C" stroke="black" stroke-width="1.5"/>
<rect x="295.648" y="228.199" width="105.37" height="106.965" rx="27.2506" fill="white" stroke="black" stroke-width="1.5"/>
<rect x="71.2831" y="243.581" width="86.7427" height="75.9375" rx="27.2506" fill="#FCFF3F" stroke="black" stroke-width="1.5"/>
<rect x="189.24" y="243.581" width="86.7427" height="75.9375" rx="27.2506" fill="#FA5E85" stroke="black" stroke-width="1.5"/>
<rect x="305.396" y="243.581" width="86.7427" height="75.9375" rx="27.2506" fill="#023AEC" stroke="black" stroke-width="1.5"/>
<path d="M266.382 303.245C269.357 311.187 272.847 309.047 272.847 309.047C272.922 309.002 273.009 308.97 273.086 308.928C274.027 308.402 274.814 307.638 275.368 306.713C276.018 305.629 276.492 304.449 276.773 303.216C277.128 301.744 277.35 300.242 277.437 298.73C277.547 297.006 277.565 295.277 277.492 293.55C277.421 291.687 277.273 289.828 277.073 287.974C276.873 286.121 276.606 284.184 276.309 282.299C276.019 280.466 275.697 278.639 275.342 276.819C275.015 275.154 274.666 273.492 274.295 271.833C273.981 270.43 273.652 269.033 273.308 267.643C273.034 266.531 272.777 265.413 272.461 264.314C272.438 264.23 272.412 264.149 272.387 264.066C272.217 263.466 271.909 262.914 271.487 262.454C271.033 262.007 270.651 261.491 270.356 260.926C270.179 260.602 270.055 260.252 269.989 259.888C269.989 259.818 269.989 259.566 269.96 259.515C268.993 258.161 268.206 257.152 268.206 257.152C267.683 256.58 267.21 255.964 266.791 255.312C266.598 255.055 266.506 254.736 266.53 254.416C266.765 252.985 268.622 254.345 269.183 254.773C269.473 254.996 270.127 255.811 270.533 255.718C271.42 255.515 268.622 249.939 270.585 250.657C271.623 251.038 272.267 252.591 272.748 253.474C272.918 253.797 273.341 254.361 273.76 254.119C274.179 253.877 274.017 253.065 274.668 252.801C276.019 252.253 276.876 253.523 277.427 255.141C277.998 256.807 278.249 258.841 278.394 259.631C288.222 311.829 275.171 315.174 275.171 315.174C270.459 316.873 266.62 312.999 264.126 309.186L266.382 303.245Z" fill="#7FFFAA"/>
<path d="M264.077 309.337C264.077 309.337 266.333 303.758 266.381 302.865C266.381 302.865 267.422 306.375 269.282 308.122C269.282 308.122 266.923 310.543 266.846 312.635C265.785 311.659 264.854 310.551 264.077 309.337V309.337Z" fill="#0139F2"/>
<path d="M264.099 309.147L264.138 309.205" stroke="#0000CA" stroke-width="0.596348" stroke-linecap="round" stroke-linejoin="round"/>
<path d="M264.139 309.205C266.634 313.018 270.472 316.892 275.184 315.193C275.184 315.193 288.222 311.848 278.408 259.65C278.259 258.86 278.008 256.826 277.441 255.16C276.889 253.548 276.032 252.259 274.682 252.82C274.037 253.084 274.201 253.9 273.773 254.138C273.344 254.377 272.932 253.816 272.761 253.494C272.28 252.601 271.636 251.057 270.598 250.677C268.635 249.958 271.433 255.534 270.546 255.737C270.14 255.83 269.486 255.015 269.196 254.793C268.635 254.364 266.779 253.004 266.543 254.435C266.519 254.755 266.612 255.074 266.804 255.331C267.223 255.983 267.696 256.599 268.219 257.171C268.219 257.171 269.009 258.18 269.973 259.534C270.015 259.592 269.989 259.837 270.002 259.908C270.069 260.271 270.193 260.621 270.369 260.945C270.664 261.511 271.046 262.026 271.5 262.473C271.922 262.933 272.23 263.485 272.4 264.085C272.425 264.169 272.451 264.249 272.474 264.333C272.796 265.432 273.048 266.55 273.321 267.662C273.665 269.057 273.994 270.454 274.308 271.852C274.679 273.509 275.029 275.171 275.355 276.839C275.71 278.661 276.032 280.487 276.322 282.318C276.619 284.203 276.88 286.095 277.086 287.994C277.292 289.892 277.434 291.707 277.505 293.57C277.579 295.296 277.56 297.025 277.45 298.749C277.363 300.261 277.141 301.763 276.786 303.236C276.505 304.468 276.031 305.648 275.381 306.733C274.827 307.658 274.04 308.421 273.099 308.947C273.022 308.989 272.935 309.021 272.861 309.066C272.861 309.066 269.37 311.197 266.395 303.265" stroke="#0000CA" stroke-width="0.596348" stroke-linecap="round" stroke-linejoin="round"/>
<path d="M270.786 259.083C270.815 258.935 271.521 257.697 271.963 256.665C272.404 255.634 273.761 256.727 273.291 258.522C273.291 258.522 274.232 260.585 273.113 262.39" stroke="#0000CA" stroke-width="0.596348" stroke-linecap="round" stroke-linejoin="round"/>
<path d="M274.004 253.832C274.004 253.832 273.594 256.54 274.716 256.501C275.837 256.462 275.36 254.654 275.834 254.654" stroke="#0000CA" stroke-width="0.596348" stroke-linecap="round" stroke-linejoin="round"/>
<path d="M264.138 309.205C264.099 309.147 265.662 306.095 266.394 303.245" stroke="#0000CA" stroke-width="0.596348" stroke-linecap="round" stroke-linejoin="round"/>
<path d="M211.051 319.651C207.538 316.427 204.75 312.493 202.874 308.109C200.997 303.726 200.074 298.994 200.165 294.227C200.257 289.459 201.361 284.766 203.404 280.458C205.447 276.15 208.384 272.325 212.018 269.238C212.018 269.238 220.224 261.119 230.112 261.761C231.914 261.877 233.715 261.993 235.52 262.045C237.177 262.096 238.882 261.919 240.506 262.322C241.261 262.509 241.989 262.757 242.727 263.008C244.316 263.546 245.886 264.156 247.446 264.778C250.508 265.999 254.027 267.417 256.309 269.89C262.543 276.658 267.423 284.957 267.423 294.872C267.447 299.57 266.476 304.219 264.573 308.514C262.669 312.809 259.877 316.652 256.38 319.789" fill="#A6EB71"/>
<path d="M233.832 293.161C234.976 293.228 236.11 293.331 237.213 293.454C238.324 293.571 239.425 293.769 240.507 294.047C240.939 294.163 241.599 294.269 241.947 294.582C242.331 294.971 242.668 295.403 242.95 295.871L243.043 295.987C256.019 311.593 264.216 284.706 264.216 284.706C241.08 280.952 242.418 294.24 242.418 294.24C240.85 293.584 239.203 293.136 237.519 292.909C233.219 292.3 228.646 292.113 224.494 293.589C224.494 293.589 226.638 280.41 203.319 282.744C203.319 282.744 209.861 310.072 223.766 295.285C223.795 295.249 223.83 295.214 223.866 295.175C224.173 294.723 224.534 294.311 224.942 293.947C225.249 293.775 225.586 293.663 225.935 293.618C226.709 293.439 227.494 293.311 228.285 293.235C230.129 293.061 231.984 293.036 233.832 293.161Z" fill="#0000CA"/>
<path d="M209.575 282.499C209.575 282.499 209.278 286.299 212.753 289.538C216.227 292.777 213.613 299.271 213.613 299.271C213.613 299.271 216.418 300.628 220.208 298.305C221.578 297.463 221.645 295.813 221.313 294.398C221.019 293.189 220.549 292.029 219.918 290.956C219.173 289.667 217.784 288.584 217.523 287.046C217.446 286.533 217.478 286.009 217.618 285.509C217.757 285.01 218 284.545 218.332 284.146C218.332 284.146 214.858 282.499 209.575 282.499Z" fill="#2E2ECA"/>
<path d="M246.83 286.279C246.83 286.279 250.527 284.11 254.688 284.11C254.688 284.11 251.448 288.8 255.558 291.668C259.667 294.537 258.649 295.997 258.649 295.997C258.649 295.997 256.605 299.11 253.263 300.461C253.263 300.461 254.771 296.367 250.588 294.069C246.404 291.771 246.83 286.279 246.83 286.279Z" fill="#2E2ECA"/>
<path d="M215.621 266.344C215.621 266.344 224.001 268.835 222.905 272.922C222.905 272.922 228.258 266.006 233.006 272.922C233.006 272.922 236.551 267.421 243.365 271.507C243.365 271.507 247.974 267.127 252.216 269.632C252.216 269.632 252.309 267.098 254.188 267.927C254.188 267.927 242.585 261.58 234.904 262.025C234.904 262.025 227.056 261.013 223.04 262.65C219.024 264.288 216.752 265.416 215.621 266.344Z" fill="#FFFFDB"/>
<path d="M230.396 300.851C229.439 300.363 228.548 299.757 227.743 299.046C227.39 298.716 227.179 298.261 227.158 297.778C227.136 297.294 227.305 296.822 227.628 296.462C227.951 296.102 228.402 295.883 228.885 295.852C229.367 295.821 229.843 295.981 230.209 296.297C230.402 296.467 234.895 300.377 238.589 297.293C238.775 297.137 238.99 297.019 239.222 296.947C239.453 296.874 239.696 296.847 239.938 296.869C240.18 296.89 240.415 296.959 240.63 297.071C240.845 297.183 241.036 297.337 241.192 297.523C241.348 297.709 241.465 297.924 241.538 298.155C241.611 298.387 241.637 298.63 241.616 298.872C241.594 299.114 241.525 299.349 241.413 299.564C241.301 299.779 241.147 299.97 240.961 300.126C237.371 303.126 233.287 302.337 230.396 300.851Z" fill="#26FF7D"/>
<path d="M228.951 297.721C228.951 297.721 234.753 302.936 239.742 298.755" stroke="#0000CA" stroke-width="0.596348" stroke-linecap="round" stroke-linejoin="round"/>
<path d="M230.376 300.893C229.418 300.406 228.526 299.799 227.72 299.088C227.367 298.758 227.156 298.302 227.135 297.819C227.113 297.336 227.282 296.864 227.605 296.504C227.928 296.143 228.379 295.924 228.862 295.894C229.344 295.863 229.82 296.022 230.186 296.338C230.38 296.509 234.873 300.419 238.566 297.334C238.752 297.179 238.967 297.061 239.199 296.988C239.43 296.915 239.674 296.889 239.915 296.91C240.157 296.932 240.392 297.001 240.607 297.113C240.822 297.225 241.013 297.379 241.169 297.565C241.325 297.751 241.442 297.966 241.515 298.197C241.588 298.429 241.614 298.672 241.593 298.914C241.571 299.155 241.502 299.391 241.39 299.606C241.278 299.821 241.124 300.012 240.938 300.167C237.348 303.162 233.264 302.378 230.376 300.893Z" stroke="#0000CA" stroke-width="0.596348" stroke-linecap="round" stroke-linejoin="round"/>
<path d="M256.406 319.69C257.198 318.986 257.944 318.232 258.639 317.433C258.639 317.433 265.302 310.146 266.375 303.252C267.448 296.358 268.228 292.796 265.956 285.886C265.956 285.886 263.29 276.677 255.748 269.419C248.206 262.161 252.061 267.582 252.061 267.582C252.061 267.582 267.693 279.942 265.253 295.832C263.871 304.857 259.207 313.53 252.722 319.709" fill="#0139F2"/>
<path d="M256.406 319.69C259.855 316.542 262.609 312.708 264.492 308.435C266.374 304.161 267.344 299.542 267.339 294.872C267.339 284.958 262.456 276.645 256.226 269.89C253.94 267.418 250.424 266 247.362 264.778C245.802 264.156 244.232 263.547 242.64 263.009C241.902 262.757 241.174 262.509 240.42 262.322C238.808 261.919 237.093 262.096 235.437 262.045C233.632 261.993 231.83 261.877 230.028 261.761C220.137 261.117 211.931 269.239 211.931 269.239C208.278 272.34 205.33 276.187 203.284 280.521C201.239 284.854 200.143 289.575 200.071 294.367C199.999 299.158 200.951 303.91 202.865 308.304C204.779 312.697 207.609 316.631 211.167 319.841L256.406 319.69Z" stroke="#0000CA" stroke-width="0.596348" stroke-linecap="round" stroke-linejoin="round"/>
<path d="M266.614 263.833V267.105C266.614 267.105 265.621 269.4 261.083 269.223C256.545 269.045 244.922 266.676 243.05 266.57" fill="#023AEC"/>
<path d="M233.922 245.194C237.497 245.839 244.197 248.369 247.495 258.238C247.495 258.238 268.383 260.9 266.491 264.546C264.599 268.191 246.276 266.87 246.276 266.87C246.276 266.87 222.854 264.613 215.454 266.576C215.454 266.576 209.433 248.975 231.569 244.982" fill="#FFA219"/>
<path d="M231.955 245.771C231.955 245.771 231.365 246.216 230.476 247.015" stroke="#0000CA" stroke-width="0.596348" stroke-miterlimit="10"/>
<path d="M227.804 249.694C225.226 252.595 222.396 256.839 222.406 261.484" stroke="#0000CA" stroke-width="0.596348" stroke-miterlimit="10" stroke-dasharray="7 7"/>
<path d="M222.57 263.366C222.682 264.002 222.848 264.628 223.066 265.235" stroke="#0000CA" stroke-width="0.596348" stroke-miterlimit="10"/>
<path d="M233.928 246.078C233.928 246.078 243.801 254.78 242.308 263.286" stroke="#0000CA" stroke-width="0.596348" stroke-miterlimit="10" stroke-dasharray="7.16 7.16"/>
<path d="M247.53 258.257C247.53 258.257 245.596 268.023 223.962 265.348" stroke="#0000CA" stroke-width="0.596348" stroke-miterlimit="10" stroke-dasharray="7.16 7.16"/>
<path d="M233.964 245.213C237.538 245.858 244.239 248.388 247.536 258.257C247.536 258.257 268.425 260.92 266.533 264.565C264.641 268.21 246.318 266.892 246.318 266.892C246.318 266.892 222.896 264.636 215.496 266.595C215.496 266.595 209.475 248.994 231.611 245.001" stroke="#0000CA" stroke-width="0.596348" stroke-linecap="round" stroke-linejoin="round"/>
<path d="M234.17 246.123V232.479L234.267 232.112L233.99 231.919L234.128 231.358C234.128 231.358 233.851 231.145 233.864 231.203C233.877 231.261 233.919 230.6 233.919 230.6H233.545L233.667 230.001L233.265 230.136L233.348 229.492C233.348 229.492 232.443 227.999 231.008 227.864C230.005 227.792 228.998 227.825 228.001 227.961C228.001 227.961 227.557 227.883 227.473 228.927C227.41 229.509 227.506 230.097 227.75 230.629C227.75 230.629 230.535 230.339 231.079 230.981L231.315 231.303L231.092 231.999L231.482 231.748L231.26 232.25L231.692 232.173L231.331 232.66H231.788L231.524 233.182L231.788 233.317L231.843 245.926L234.17 246.123Z" fill="#FF6C98"/>
<path d="M233.767 246.078V232.496L233.403 232.205L233.583 231.529L233.3 231.326L233.377 230.733L232.936 230.652L233.113 229.824C233.113 229.824 232.426 227.516 228.017 228.36" stroke="#FFE48C" stroke-width="0.596348" stroke-miterlimit="10"/>
<path d="M232.552 245.984V233.375L232.188 233.088L232.369 232.412L231.927 232.367L232.162 231.612L231.866 231.422L232.12 230.62C232.12 230.62 231.369 229.414 228.046 229.778" stroke="#FFE48C" stroke-width="0.596348" stroke-miterlimit="10"/>
<path d="M232.081 245.942C232.081 245.942 232.11 233.272 232.081 233.272C231.963 233.225 231.847 233.169 231.737 233.104L231.949 232.573L231.627 232.492L231.843 232.102L231.582 232.009L231.669 231.532L231.347 231.619L231.575 231.035C231.575 231.035 231.224 229.595 228.011 230.11C228.011 230.11 228.433 228.798 227.956 227.951C227.956 227.951 227.311 228.566 227.811 230.529L227.766 230.613C227.766 230.613 230.344 230.291 231.008 230.893L231.331 231.29L231.108 231.989L231.485 231.735L231.276 232.241L231.695 232.16L231.353 232.637H231.811L231.546 233.159L231.798 233.295L231.866 245.903L232.081 245.942Z" fill="#00009F"/>
<path d="M234.17 246.123V232.483L234.267 232.115L233.989 231.922L234.128 231.358C234.128 231.358 233.851 231.145 233.864 231.203C233.877 231.261 233.918 230.604 233.918 230.604H233.545L233.667 230.004L233.264 230.139L233.348 229.479C233.348 229.479 232.442 227.99 231.008 227.867C230.005 227.796 228.997 227.828 228.001 227.964C228.001 227.964 227.556 227.886 227.472 228.931C227.409 229.514 227.506 230.104 227.753 230.636C227.753 230.636 230.537 230.346 231.079 230.984L231.314 231.306L231.092 232.006L231.482 231.754L231.259 232.257L231.691 232.18L231.33 232.663H231.788L231.524 233.185L231.788 233.321V239.851L231.843 245.929L234.17 246.123Z" stroke="#0E00F2" stroke-width="0.447261" stroke-linecap="round" stroke-linejoin="round"/>
<path d="M266.614 263.833V267.105C266.614 267.105 265.621 269.4 261.083 269.223C256.545 269.045 244.922 266.676 243.05 266.57" stroke="#0000CA" stroke-width="0.596348" stroke-linecap="round" stroke-linejoin="round"/>
<path d="M208.156 305.937C208.659 301.989 209.333 299.082 212.694 299.491L219.785 300.342C223.688 300.812 222.664 304.722 222.077 309.621L221.242 316.551C221.104 317.711 220.988 318.826 220.842 319.845L206.558 319.796C206.558 319.364 206.609 318.907 206.658 318.43L207.641 310.217" fill="#001043"/>
<path d="M200.015 294.498C198.226 294.727 196.756 295.027 194.997 295.413C192.586 295.939 190.114 296.483 187.793 297.392C185.598 298.25 182.858 299.568 181.756 301.779C181.666 301.959 181.588 302.144 181.521 302.333C180.734 304.609 181.685 307.139 183.11 308.947C184.721 310.984 187.077 312.299 189.466 313.205C190.885 313.735 192.34 314.166 193.82 314.494C194.075 314.555 194.329 314.61 194.587 314.665C198.51 315.5 202.503 315.89 206.49 316.309C207.602 316.425 208.865 316.573 209.887 316.012C210.419 315.719 210.738 315.235 210.274 314.707C209.81 314.178 208.985 314.136 208.308 313.946C207.425 313.688 206.509 312.873 207.315 311.974C207.728 311.51 208.756 311.919 209.323 311.912C209.89 311.906 210.977 311.945 211.37 311.384C212.533 309.727 208.756 309.885 208.147 309.45C206.928 308.583 210.055 308.074 210.558 307.735C213.068 306.053 208.243 305.289 207.899 306.659L208.115 305.801C205.929 306.54 203.77 307.349 201.597 308.119C200.099 308.647 198.11 308.467 196.524 308.396C194.78 308.346 193.048 308.084 191.367 307.616C189.601 307.087 187.764 306.088 187.103 304.251C186.098 301.515 189.836 300.196 191.77 299.603C194.458 298.782 197.278 298.408 200.066 298.147L200.015 294.498Z" fill="#7FFFAA"/>
<path d="M200.015 294.498C198.226 294.727 196.756 295.027 194.997 295.413C192.586 295.939 190.114 296.483 187.793 297.392C185.598 298.25 182.858 299.568 181.756 301.779C181.666 301.959 181.588 302.144 181.521 302.333C180.734 304.609 181.685 307.139 183.11 308.947C184.721 310.984 187.077 312.299 189.466 313.205C190.885 313.735 192.34 314.166 193.82 314.494C194.075 314.555 194.329 314.61 194.587 314.665C198.51 315.5 202.503 315.89 206.49 316.309C207.602 316.425 208.865 316.573 209.887 316.012C210.419 315.719 210.738 315.235 210.274 314.707C209.81 314.178 208.985 314.136 208.308 313.946C207.425 313.688 206.509 312.873 207.315 311.974C207.728 311.51 208.756 311.919 209.323 311.912C209.89 311.906 210.977 311.945 211.37 311.384C212.533 309.727 208.756 309.885 208.147 309.45C206.928 308.583 210.055 308.074 210.558 307.735C213.068 306.053 208.243 305.289 207.899 306.659L208.115 305.801C205.929 306.54 203.77 307.349 201.597 308.119C200.099 308.647 198.11 308.467 196.524 308.396C194.78 308.346 193.048 308.084 191.367 307.616C189.601 307.087 187.764 306.088 187.103 304.251C186.098 301.515 189.836 300.196 191.77 299.603C194.458 298.782 197.372 298.382 200.15 298.124L200.015 294.498Z" stroke="#0000CA" stroke-width="0.596348" stroke-linecap="round" stroke-linejoin="round"/>
<path d="M215.525 304.86C216.256 304.86 216.849 304.267 216.849 303.536C216.849 302.804 216.256 302.211 215.525 302.211C214.793 302.211 214.2 302.804 214.2 303.536C214.2 304.267 214.793 304.86 215.525 304.86Z" fill="#96AFFF"/>
<path d="M376.181 318.77C376.892 314.551 377.119 309.556 376.689 303.649C373.66 262.231 364.582 263.432 348.81 261.705L347.854 261.74C347.854 261.74 324.277 259.352 322.364 293.763C321.796 304.047 321.821 312.226 322.805 318.709" fill="#FF9D00"/>
<path d="M341.135 229.458C341.135 229.458 339.944 223.731 344.714 217.525C348.023 220.196 350.267 223.964 351.038 228.146C351.038 228.146 356.05 224.325 357.721 223.49C357.721 223.49 358.431 230.531 355.691 234.825C355.691 234.825 359.391 234.946 364.403 230.41C364.403 230.41 363.209 239.599 356.885 243.178C360.136 242.483 363.118 240.868 365.477 238.525C365.477 238.525 362.018 261.911 354.024 263.582C354.024 263.582 348.056 265.49 343.641 263.582C339.226 261.673 336.361 257.973 330.517 242.464C333.413 242.625 336.249 243.35 338.867 244.597C338.867 244.597 333.738 241.376 332.067 234.214C335.024 234.84 337.876 235.885 340.538 237.317C340.538 237.317 334.573 233.499 333.261 226.579C333.261 226.593 338.046 228.263 341.135 229.458Z" fill="#04FF93"/>
<path d="M383.245 314.106C381.164 307.861 379.915 306.612 376.503 301.491C376.503 301.491 374.516 304.69 376.858 311.49C376.858 311.49 377.397 312.484 378.25 317.02" fill="#FFF432"/>
<path d="M340.268 303.72C340.268 303.72 339.557 305.142 341.828 305.142C341.828 305.142 342.667 304.825 342.561 304.431L340.268 303.72Z" fill="white"/>
<path d="M340.621 314.486C342.899 312.043 345.867 310.351 349.13 309.634C352.37 308.91 355.743 309.047 358.912 310.032L355.496 310.811C355.496 310.811 352.859 311.408 352.152 311.628L350.019 312.187L347.531 313.114C347.531 313.114 344.388 314.181 342.654 314.301" fill="#FF7090"/>
<path d="M344.64 217.713C344.64 217.713 349.858 224.136 348.906 229.93L350.95 228.331C350.95 228.331 350.075 222.025 344.64 217.713Z" fill="#0139F2"/>
<path d="M357.647 223.678C357.647 223.678 355.653 233.51 351.561 235.81L355.617 235.014C355.617 235.014 358.532 230.72 357.647 223.678Z" fill="#0139F2"/>
<path d="M364.329 230.599C364.329 230.599 358.123 242.457 352.329 242.286L356.306 243.562C356.306 243.562 359.171 242.019 360.312 240.306C360.312 240.306 363.639 235.955 364.329 230.599Z" fill="#0139F2"/>
<path d="M365.417 238.714C365.417 238.714 358.759 261.282 350.395 264.307L349.873 264.616C349.873 264.616 353.63 264.168 355.204 263.166C355.204 263.166 357.956 262.181 359.872 257.727C361.247 254.937 362.344 252.017 363.145 249.011C363.145 249.011 365.353 240.338 365.417 238.714Z" fill="#0139F2"/>
<path d="M376.048 318.77C376.464 316.392 376.702 313.986 376.758 311.572C376.758 311.572 376.915 307.463 379.517 306.343C379.517 306.343 377.221 302.511 376.428 301.818C376.428 301.818 375.738 292.533 375.361 290.799C375.361 290.799 373.303 276.581 369.457 270.388C369.457 270.388 365.842 263.429 356.124 262.568L355.182 263.155C355.182 263.155 373.666 263.592 374.86 303.706C375.023 308.756 374.589 313.807 373.566 318.756" fill="#0139F2"/>
<path d="M342.258 314.472C340.43 314.442 338.645 313.915 337.093 312.947C335.501 311.899 334.381 310.214 334.409 308.454C334.442 307.784 334.609 307.126 334.899 306.521C335.19 305.915 335.599 305.374 336.101 304.928C336.82 304.313 337.655 303.849 338.557 303.564C339.46 303.279 340.41 303.18 341.352 303.272C343.484 303.514 345.468 304.178 347.483 304.143C349.897 304.1 352.374 303.286 354.692 302.721C356.8 302.216 359.437 300.915 361.638 301.484C364.837 302.312 365.064 305.906 363.664 308.373C362.924 309.674 361.335 310.171 359.953 310.452C358.001 310.847 356.007 310.96 354.084 311.518C352.012 312.105 350.039 312.997 347.956 313.559C346.221 314.024 344.128 314.551 342.258 314.472Z" fill="#FF5C00"/>
<path d="M308.799 257.873C308.799 257.873 309.972 258.175 309.549 260.482C309.642 279.097 318.827 294.542 321.948 301.132C322.406 304.612 322.122 312.357 322.108 312.702C304.335 296.017 302.487 260.4 302.487 260.4C302.487 259.863 302.455 259.398 302.44 259C302.44 259 301.605 255.356 302.44 255.292C303.276 255.228 303.628 257.18 303.628 257.18C304.001 257.308 304.409 257.285 304.765 257.116C304.765 257.116 304.897 255.847 305.906 256.007C306.133 256.041 306.342 256.149 306.501 256.314C306.659 256.479 306.759 256.692 306.784 256.92L307.1 256.885C307.1 256.885 306.848 253.408 307.694 253.568C308.54 253.728 308.64 257.745 308.799 257.873Z" fill="#FFF432"/>
<path d="M370.809 292.957H366.747L357.597 293.668C357.51 292.778 357.604 291.879 357.873 291.027C358.142 290.174 358.581 289.384 359.164 288.706C359.746 288.028 360.46 287.474 361.263 287.079C362.065 286.684 362.939 286.456 363.832 286.408C364.725 286.36 365.618 286.493 366.458 286.8C367.298 287.106 368.067 287.58 368.719 288.192C369.371 288.804 369.893 289.542 370.252 290.36C370.611 291.179 370.801 292.063 370.809 292.957Z" fill="#0A00CA"/>
<path d="M366.746 292.957H370.809C370.792 294.641 370.134 296.256 368.969 297.473C367.804 298.69 366.219 299.418 364.537 299.509C362.854 299.599 361.2 299.046 359.911 297.961C358.622 296.876 357.795 295.341 357.597 293.668L366.746 292.957Z" fill="#0A00CA"/>
<path d="M340.143 293.909C340.143 294.073 340.136 294.236 340.122 294.4L326.892 293.909C326.892 292.152 327.59 290.467 328.832 289.224C330.075 287.981 331.76 287.283 333.518 287.283C335.275 287.283 336.96 287.981 338.203 289.224C339.445 290.467 340.143 292.152 340.143 293.909V293.909Z" fill="#0A00CA"/>
<path d="M326.892 293.909L340.122 294.4C339.985 296.102 339.197 297.686 337.92 298.821C336.644 299.956 334.979 300.554 333.272 300.491C331.565 300.428 329.949 299.708 328.76 298.482C327.571 297.255 326.902 295.617 326.892 293.909Z" fill="#0A00CA"/>
<path d="M341.246 262.579C334.136 264.524 323.473 271.231 322.221 293.859C322.072 296.554 322.015 298.69 321.955 301.1" stroke="#0A00CA" stroke-width="0.674988" stroke-miterlimit="10" stroke-linecap="round"/>
<path d="M376.436 301.68C376.08 297.471 375.693 293.725 375.22 290.39C372.042 267.996 365.815 264.047 356.313 262.583" stroke="#0A00CA" stroke-width="0.674988" stroke-miterlimit="10"/>
<path d="M322.097 312.581C322.229 314.6 322.424 316.914 322.691 318.674H376.081C376.462 316.322 376.687 313.947 376.756 311.565" stroke="#0A00CA" stroke-width="0.674988" stroke-miterlimit="10"/>
<path d="M340.463 237.52C340.282 237.402 334.481 233.61 333.19 226.785C333.19 226.785 337.961 228.456 341.064 229.65C341.064 229.65 339.873 223.92 344.643 217.717C347.952 220.387 350.195 224.154 350.967 228.335C350.967 228.335 355.979 224.517 357.65 223.682C357.65 223.682 358.36 230.723 355.62 235.017C355.62 235.017 359.32 235.138 364.332 230.603C364.332 230.603 363.138 239.791 356.814 243.371C360.069 242.676 363.055 241.06 365.416 238.714C365.416 238.714 362.64 257.464 356.32 262.583C355.641 263.163 354.831 263.571 353.96 263.77C353.96 263.77 347.995 265.679 343.58 263.77C342.772 263.428 342.004 262.997 341.291 262.484C338.021 260.116 335.249 255.332 330.457 242.649C333.351 242.813 336.185 243.537 338.803 244.782" stroke="#0A00CA" stroke-width="0.674988" stroke-miterlimit="10"/>
<path d="M338.793 244.799C338.637 244.7 333.643 241.468 331.997 234.42C334.952 235.046 337.803 236.089 340.464 237.519" stroke="#0A00CA" stroke-width="0.674988" stroke-miterlimit="10"/>
<path d="M383.245 314.106C381.164 307.861 379.915 306.612 376.428 301.679C376.428 301.679 374.459 304.846 376.762 311.575C376.772 311.61 376.784 311.645 376.798 311.678C376.798 311.678 377.417 312.857 378.25 317.02" stroke="#0A00CA" stroke-width="0.674988" stroke-miterlimit="10"/>
<path d="M308.799 257.873C308.799 257.873 309.972 258.175 309.549 260.482C309.642 279.097 318.827 294.542 321.948 301.132C322.406 304.612 322.122 312.357 322.108 312.702C304.335 296.017 302.487 260.4 302.487 260.4C302.487 259.863 302.455 259.398 302.44 259C302.44 259 301.605 255.356 302.44 255.292C303.276 255.228 303.628 257.18 303.628 257.18C304.001 257.308 304.276 257.329 304.633 257.16C304.633 257.16 304.897 255.847 305.906 256.007C306.133 256.041 306.342 256.149 306.501 256.314C306.659 256.479 306.759 256.692 306.784 256.92L307.1 256.885C307.1 256.885 306.848 253.408 307.694 253.568C308.54 253.728 308.64 257.745 308.799 257.873Z" stroke="#0A00CA" stroke-width="0.674988" stroke-miterlimit="10"/>
<path d="M375.209 290.39L375.643 290.138" stroke="#0A00CA" stroke-width="0.674988" stroke-miterlimit="10"/>
<path d="M322.448 291.162L326.891 293.909L340.121 294.4L342.72 294.496C342.72 294.496 347.653 285.09 354.336 293.909L357.596 293.66L366.745 292.95H370.808L375.212 290.383" stroke="#0A00CA" stroke-width="3.37494" stroke-miterlimit="10" stroke-linecap="round"/>
<path d="M308.788 258.158C308.788 258.158 306.513 258.239 306.36 258.965C306.342 259.075 306.363 259.188 306.421 259.285C306.421 259.285 306.421 259.313 306.446 259.331C307.096 260.397 308.301 259.86 308.301 259.86" stroke="#0A00CA" stroke-width="0.674988" stroke-miterlimit="10" stroke-linecap="round"/>
<path d="M304.633 257.16C304.633 257.16 304.615 259.874 305.849 259.874C306.364 259.874 306.46 259.633 306.421 259.298C306.408 259.191 306.388 259.084 306.361 258.979C306.261 258.566 306.098 258.086 306.247 257.749" stroke="#0A00CA" stroke-width="0.674988" stroke-miterlimit="10" stroke-linecap="round"/>
<path d="M360.856 301.374C361.217 301.371 361.576 301.419 361.923 301.516C362.422 301.667 362.881 301.928 363.267 302.28C363.652 302.632 363.953 303.066 364.148 303.55C364.427 304.208 364.561 304.919 364.542 305.634C364.523 306.349 364.351 307.051 364.038 307.694C363.481 308.786 362.546 309.639 361.407 310.094C360.392 310.428 359.336 310.627 358.269 310.684C357.778 310.737 357.273 310.787 356.761 310.861C354.394 311.217 352.176 311.981 350.029 312.731C349.091 313.058 348.117 313.396 347.185 313.684C345.546 314.203 343.84 314.479 342.12 314.501C341.918 314.501 341.711 314.501 341.516 314.501C339.77 314.469 338.075 313.913 336.65 312.905C335.196 311.839 334.311 310.193 334.332 308.64C334.38 307.403 334.887 306.228 335.754 305.345C336.89 304.151 338.451 303.454 340.098 303.404H340.194C341.166 303.434 342.133 303.552 343.083 303.759C344.251 304.019 345.442 304.165 346.638 304.197H346.848C349.89 304.136 352.809 303.411 355.304 302.736C355.859 302.586 356.42 302.405 356.968 302.231C358.286 301.811 359.651 301.378 360.849 301.378L360.856 301.374ZM360.849 299.6C358.827 299.6 356.729 300.51 354.846 301.022C352.222 301.733 349.546 302.369 346.816 302.423H346.642C344.463 302.423 342.376 301.612 340.194 301.612H340.073C337.949 301.668 335.933 302.563 334.467 304.101C333.291 305.308 332.609 306.912 332.555 308.597C332.523 310.84 333.788 312.987 335.59 314.323C337.298 315.542 339.333 316.22 341.431 316.268C341.662 316.268 341.889 316.268 342.12 316.268C344.014 316.242 345.894 315.942 347.701 315.376C350.808 314.43 353.815 313.076 357.028 312.61C358.724 312.365 360.48 312.365 362.072 311.736C363.612 311.119 364.876 309.963 365.627 308.483C367.212 305.341 366.05 300.859 362.427 299.8C361.912 299.654 361.378 299.582 360.842 299.586L360.849 299.6Z" fill="#0AC2CA"/>
<path d="M341.434 316.264C339.337 316.216 337.302 315.539 335.594 314.32C333.792 312.983 332.526 310.836 332.558 308.593C332.612 306.908 333.294 305.304 334.471 304.097C335.937 302.559 337.952 301.664 340.076 301.609C342.355 301.577 344.537 302.465 346.83 302.419C349.56 302.366 352.237 301.729 354.86 301.019C357.241 300.375 359.964 299.088 362.449 299.814C366.078 300.88 367.24 305.355 365.648 308.497C364.897 309.977 363.634 311.133 362.093 311.75C360.501 312.379 358.745 312.379 357.049 312.624C353.85 313.09 350.829 314.444 347.722 315.39C345.691 316.034 343.565 316.33 341.434 316.264V316.264Z" stroke="#0A00CA" stroke-width="0.674988" stroke-miterlimit="10"/>
<path d="M342.185 314.472C340.357 314.442 338.572 313.915 337.02 312.947C335.428 311.899 334.308 310.214 334.336 308.454C334.37 307.784 334.537 307.127 334.828 306.521C335.118 305.916 335.526 305.374 336.028 304.928C336.747 304.313 337.582 303.849 338.484 303.564C339.387 303.279 340.337 303.18 341.279 303.272C343.411 303.514 345.395 304.178 347.41 304.143C349.824 304.1 352.301 303.286 354.619 302.721C356.727 302.216 359.364 300.915 361.565 301.484C364.764 302.312 364.991 305.906 363.591 308.373C362.851 309.674 361.262 310.171 359.88 310.452C357.932 310.847 355.934 310.96 354.011 311.518C351.939 312.105 349.966 312.997 347.883 313.559C346.134 314.024 344.058 314.551 342.185 314.472Z" stroke="#0A00CA" stroke-width="0.674988" stroke-miterlimit="10"/>
<path d="M342.188 304.971C341.477 304.925 341.022 304.744 340.862 304.449C340.815 304.335 340.795 304.211 340.804 304.088C340.813 303.964 340.85 303.845 340.912 303.738V303.713L340.972 303.414L343.066 303.749L342.874 304.296C342.818 304.453 342.727 304.595 342.608 304.712C342.49 304.829 342.346 304.918 342.188 304.971Z" fill="white"/>
<path d="M341.125 303.624L342.842 303.898L342.721 304.253C342.674 304.379 342.599 304.493 342.504 304.586C342.408 304.68 342.293 304.752 342.166 304.797C341.551 304.754 341.146 304.602 341.018 304.374C340.986 304.287 340.974 304.194 340.982 304.102C340.99 304.01 341.018 303.921 341.064 303.841L341.093 303.791V303.734L341.114 303.631L341.125 303.624ZM340.837 303.226L340.744 303.663C340.744 303.663 339.948 305.021 342.195 305.156C342.388 305.101 342.566 305 342.714 304.863C342.862 304.726 342.975 304.556 343.044 304.367L343.307 303.621L340.837 303.226Z" fill="#0A00CA"/>
<path opacity="0.7" d="M328.886 289.289L334.186 300.329C335.815 300.13 337.315 299.341 338.402 298.111L331.087 287.845C330.249 288.146 329.495 288.64 328.886 289.289Z" fill="#01BDF2"/>
<path opacity="0.7" d="M359.658 288.25L364.958 299.294C366.59 299.097 368.093 298.306 369.181 297.073L361.862 286.807C361.024 287.107 360.268 287.602 359.658 288.25V288.25Z" fill="#01BDF2"/>
<path d="M342.518 314.341C341.508 314.356 340.504 314.189 339.554 313.847C339.524 313.835 339.498 313.816 339.478 313.791C339.458 313.766 339.445 313.736 339.44 313.705C339.434 313.674 339.438 313.642 339.449 313.612C339.46 313.583 339.479 313.557 339.504 313.538C339.554 313.498 344.551 309.684 350.878 309.684C352.724 309.68 354.556 310.014 356.281 310.669L356.153 311C356.126 310.995 356.099 310.995 356.072 311C355.982 311.006 355.893 311.025 355.809 311.056L355.652 311.099C355.51 311.132 355.367 311.158 355.222 311.177L354.934 311.224C353.7 311.486 352.49 311.851 351.316 312.315C350.217 312.713 349.041 313.086 347.711 313.459C346.029 313.989 344.281 314.285 342.518 314.341V314.341Z" fill="#B92F00"/>
<path d="M350.871 309.862C352.692 309.858 354.499 310.187 356.203 310.833C356.156 310.815 356.107 310.807 356.057 310.808C355.9 310.825 355.746 310.861 355.598 310.914C355.364 310.968 355.122 310.989 354.887 311.035C353.644 311.302 352.424 311.669 351.24 312.134C350.057 312.56 348.862 312.933 347.65 313.275C345.984 313.803 344.254 314.102 342.507 314.163C341.519 314.177 340.536 314.013 339.606 313.68C339.606 313.68 344.529 309.862 350.864 309.862H350.871ZM350.864 309.507C344.483 309.507 339.592 313.239 339.389 313.399C339.339 313.438 339.3 313.489 339.276 313.548C339.253 313.606 339.245 313.67 339.254 313.733C339.264 313.796 339.29 313.855 339.33 313.905C339.37 313.954 339.422 313.992 339.482 314.014C340.452 314.362 341.476 314.533 342.507 314.519C344.286 314.458 346.049 314.154 347.746 313.616C349.079 313.26 350.263 312.866 351.361 312.468C352.527 312.015 353.728 311.659 354.951 311.401L355.232 311.355C355.378 311.334 355.527 311.312 355.676 311.277C355.733 311.264 355.789 311.249 355.844 311.231C355.912 311.205 355.984 311.189 356.057 311.181H356.078C356.118 311.195 356.16 311.203 356.203 311.202C356.285 311.202 356.365 311.172 356.428 311.119C356.491 311.066 356.534 310.993 356.549 310.912C356.564 310.831 356.551 310.747 356.511 310.675C356.471 310.603 356.407 310.547 356.33 310.516C354.584 309.854 352.731 309.517 350.864 309.521V309.507Z" fill="#0A00CA"/>
<path d="M144.431 182.024C144.431 182.024 148.304 190.291 154.667 189.833C157.375 189.637 159.582 188.091 160.454 185.495C160.682 184.812 160.821 184.102 160.865 183.383C160.906 182.441 160.824 181.498 160.622 180.578C160.516 180.036 160.389 179.11 161.246 179.332C162.18 179.562 162.202 180.382 162.539 181.114C162.819 180.868 163.034 180.55 163.312 180.298C163.742 179.905 163.891 179.363 164.165 178.877C164.324 178.593 164.761 177.699 165.215 177.901C165.904 178.213 165.527 179.506 165.215 180.042C165.438 180.135 165.655 180.239 165.867 180.354C165.867 180.354 166.49 178.634 166.976 178.671C167.462 178.708 167.97 179.438 166.976 181.042C167.203 181.174 167.399 181.354 167.549 181.569C167.549 181.569 168.363 180.594 168.749 180.88C169.135 181.167 169.31 181.338 168.391 182.974C167.472 184.61 164.72 193.301 156.113 194.965C147.507 196.629 143.942 185.268 143.942 185.268C143.942 185.268 144.406 182.23 144.431 182.024Z" fill="#F6FF7F"/>
<path d="M89.8091 202.796C89.8091 202.796 66.3075 166.415 105.034 142.858C105.034 142.858 112.722 138.52 114.345 134.289C115.969 130.057 124.915 140.003 125.875 144.606C125.875 144.606 158.837 162.679 137.554 202.796H89.8091Z" fill="#FFEC4E"/>
<path d="M125.722 137.669C121.817 137.744 118.57 140.222 118.57 140.222C114.033 146.918 115.501 156.425 115.501 156.425C117.221 154.244 118.714 155.163 118.714 155.163C116.305 159.526 118.714 165.375 118.714 165.375C119.631 164.127 120.712 163.008 121.926 162.047C120.434 167.325 124.45 169.161 124.45 169.161C124.566 167.441 125.659 165.032 125.659 165.032C128.935 165.605 132.368 172.648 132.368 172.648C135.796 167.973 135.584 160.317 135.584 160.317C137.516 161.801 140.629 162.277 140.629 162.277C140.165 159.469 138.94 156.843 137.086 154.683C137.398 154.715 137.691 154.739 137.968 154.755C137.968 154.755 132.359 143.091 129.368 140.184C126.376 137.277 125.722 137.669 125.722 137.669Z" fill="#0139F2"/>
<mask id="mask0_491_158" style="mask-type:alpha" maskUnits="userSpaceOnUse" x="73" y="171" width="29" height="28">
<rect x="73.9221" y="171.476" width="27.3909" height="27.3909" rx="13.6955" fill="#C4C4C4"/>
</mask>
<g mask="url(#mask0_491_158)">
<path d="M83.0375 183.523C83.0375 183.523 74.2252 188.736 73.066 202.805H79.6098C79.6098 202.805 77.8337 193.569 83.7698 187.608C83.7792 187.608 83.4364 185.623 83.0375 183.523Z" fill="#F6FF7F"/>
<path d="M83.0375 183.523C83.0375 183.523 74.2252 188.736 73.066 202.805H79.6098C79.6098 202.805 77.8337 193.569 83.7698 187.608C83.7792 187.608 83.4364 185.623 83.0375 183.523Z" stroke="#1100A5" stroke-width="0.8" stroke-miterlimit="10"/>
</g>
<path d="M94.0065 179.55C94.0065 179.55 98.5716 175.256 101.65 180.132" stroke="#0000E2" stroke-width="0.8" stroke-linecap="round" stroke-linejoin="round"/>
<path d="M95.5176 178.5L94.7198 177.412" stroke="#0000E2" stroke-width="0.8" stroke-linecap="round" stroke-linejoin="round"/>
<path d="M98.6649 177.861L98.8394 176.409" stroke="#0000E2" stroke-width="0.8" stroke-linecap="round" stroke-linejoin="round"/>
<path d="M100.824 179.067L101.955 178.051" stroke="#0000E2" stroke-width="0.8" stroke-linecap="round" stroke-linejoin="round"/>
<path d="M134.827 180.36C134.827 180.36 130.259 176.066 127.18 180.946" stroke="#0000E2" stroke-width="0.8" stroke-linecap="round" stroke-linejoin="round"/>
<path d="M133.313 179.294L134.11 178.21" stroke="#0000E2" stroke-width="0.8" stroke-linecap="round" stroke-linejoin="round"/>
<path d="M130.165 178.655L129.991 177.203" stroke="#0000E2" stroke-width="0.8" stroke-linecap="round" stroke-linejoin="round"/>
<path d="M128.006 179.861L126.875 178.849" stroke="#0000E2" stroke-width="0.8" stroke-linecap="round" stroke-linejoin="round"/>
<path d="M115.168 184.663C111.69 184.663 108.967 182.644 108.936 182.613C108.79 182.489 108.697 182.313 108.676 182.123C108.655 181.932 108.707 181.741 108.823 181.588C108.938 181.435 109.108 181.332 109.297 181.3C109.486 181.268 109.68 181.31 109.839 181.416V181.416C110.051 181.578 115.115 185.299 119.826 181.435C119.9 181.358 119.99 181.297 120.089 181.257C120.188 181.217 120.294 181.198 120.401 181.203C120.508 181.207 120.613 181.234 120.708 181.283C120.803 181.331 120.887 181.399 120.955 181.482C121.022 181.565 121.07 181.662 121.097 181.765C121.124 181.868 121.128 181.976 121.11 182.082C121.092 182.187 121.051 182.287 120.991 182.376C120.931 182.464 120.853 182.538 120.761 182.594C119.202 183.926 117.219 184.659 115.168 184.663V184.663Z" fill="#F69538"/>
<path d="M109.378 182.008C109.378 182.008 115.049 186.305 120.284 182.008" stroke="#0000E2" stroke-width="0.8" stroke-linecap="round" stroke-linejoin="round"/>
<path d="M115.168 184.663C111.69 184.663 108.967 182.644 108.936 182.613C108.79 182.489 108.697 182.313 108.676 182.123C108.655 181.932 108.707 181.741 108.823 181.588C108.938 181.435 109.108 181.332 109.297 181.3C109.486 181.268 109.68 181.31 109.839 181.416V181.416C110.051 181.578 115.115 185.299 119.826 181.435C119.9 181.358 119.99 181.297 120.089 181.257C120.188 181.217 120.294 181.198 120.401 181.203C120.508 181.207 120.613 181.234 120.708 181.283C120.803 181.331 120.887 181.399 120.955 181.482C121.022 181.565 121.07 181.662 121.097 181.765C121.124 181.868 121.128 181.976 121.11 182.082C121.092 182.187 121.051 182.287 120.991 182.376C120.931 182.464 120.853 182.538 120.761 182.594C119.202 183.926 117.219 184.659 115.168 184.663V184.663Z" stroke="#0000E2" stroke-width="0.8" stroke-miterlimit="10"/>
<path d="M145.836 189.319C145.93 189.359 146.388 186.386 147.803 186.692C147.803 186.692 145.151 183.819 144.431 182.018C144.431 182.018 144.179 184.299 143.901 185.501C143.901 185.508 145.553 189.191 145.836 189.319Z" fill="#0139F2"/>
<path d="M144.431 182.024C144.431 182.024 148.304 190.291 154.667 189.833C157.375 189.637 159.582 188.091 160.454 185.495C160.682 184.812 160.821 184.102 160.865 183.383C160.906 182.441 160.824 181.498 160.622 180.578C160.516 180.036 160.389 179.11 161.246 179.332C162.18 179.562 162.202 180.382 162.539 181.114C162.819 180.868 163.034 180.55 163.312 180.298C163.742 179.905 163.891 179.363 164.165 178.877C164.324 178.593 164.761 177.699 165.215 177.901C165.904 178.213 165.527 179.506 165.215 180.042C165.438 180.135 165.655 180.239 165.867 180.354C165.867 180.354 166.49 178.634 166.976 178.671C167.462 178.708 167.97 179.438 166.976 181.042C167.203 181.174 167.399 181.354 167.549 181.569C167.549 181.569 168.363 180.594 168.749 180.88C169.135 181.167 169.31 181.338 168.391 182.974C167.472 184.61 164.72 193.301 156.113 194.965C147.507 196.629 143.942 185.268 143.942 185.268C143.942 185.268 144.406 182.23 144.431 182.024Z" stroke="#1100A5" stroke-width="0.8" stroke-miterlimit="10"/>
<path d="M110.93 141.948C110.307 142.051 84.2001 158.279 89.4507 166.877C94.7013 175.474 110.93 141.948 110.93 141.948Z" fill="#FFEC9D"/>
<path d="M139.648 159.834C139.813 159.435 150.766 178.581 134.827 202.799H137.554C137.554 202.799 143.041 192.179 143.901 185.502C143.901 185.502 147.279 171.847 139.648 158.575V159.834Z" fill="#0139F2"/>
<path d="M89.8091 202.796C89.8091 202.796 66.3075 166.415 105.034 142.858C105.034 142.858 112.722 138.52 114.345 134.289C115.969 130.057 124.915 140.003 125.875 144.606C125.875 144.606 158.837 162.679 137.554 202.796H89.8091Z" stroke="#1100A5" stroke-width="0.8" stroke-miterlimit="10"/>
<path d="M114.925 133.516C114.925 133.516 115.747 122.684 112.983 118.668C112.983 118.668 114.464 116.832 116.411 117.867C116.411 117.867 117.994 122.806 117.763 125.532C117.747 125.732 117.718 125.931 117.676 126.127C117.676 126.127 123.182 125.093 125.466 132.322C125.466 132.322 134.531 132.438 140.614 143.107C139.062 143.31 137.491 143.31 135.94 143.107C135.94 143.107 141.081 145.977 142.917 150.336C141.736 150.483 140.542 150.483 139.361 150.336C141.22 152.492 142.451 155.117 142.92 157.924C142.92 157.924 139.804 157.447 137.875 155.964C137.875 155.964 138.102 163.636 134.659 168.294C134.659 168.294 131.231 161.249 127.953 160.676C127.953 160.676 126.856 163.087 126.741 164.808C126.741 164.808 122.727 162.972 124.217 157.693C123.002 158.654 121.922 159.774 121.004 161.021C121.004 161.021 118.595 155.169 121.004 150.81C121.004 150.81 119.515 149.891 117.792 152.072C117.792 152.072 115.152 140.116 122.727 133.528C122.727 133.528 123.185 130.041 118.137 128.779L117.611 134.553C117.111 134.648 116.595 134.6 116.12 134.417C115.645 134.234 115.231 133.922 114.925 133.516V133.516Z" fill="#32FF81" stroke="#1100A5" stroke-width="0.8" stroke-miterlimit="10"/>
<path d="M124.588 133.164C124.588 133.164 137.286 152.53 134.684 168.282" stroke="#1100A5" stroke-width="0.8" stroke-miterlimit="10"/>
<path d="M131.281 146.479C131.281 146.479 134.97 146.323 139.383 150.336" stroke="#1100A5" stroke-width="0.8" stroke-miterlimit="10"/>
<path d="M128.956 141.125C131.501 141.301 133.977 142.027 136.214 143.254" stroke="#1100A5" stroke-width="0.8" stroke-miterlimit="10"/>
<path d="M130.125 161.841C130.171 161.882 132.147 158.485 134.59 158.314" stroke="#1100A5" stroke-width="0.8" stroke-miterlimit="10"/>
<path d="M132.029 163.954C132.007 163.926 132.964 161.221 134.908 160.928" stroke="#1100A5" stroke-width="0.8" stroke-miterlimit="10"/>
<path d="M232.001 131.274C232.001 131.274 211.676 131.439 202.259 145.153C192.842 158.868 207.051 202.791 207.051 202.791H256.79C257.392 200.684 257.929 198.558 258.453 196.432C259.709 191.332 260.808 186.197 261.751 181.025C262.933 174.757 263.737 168.423 264.158 162.059C264.482 156.415 264.527 150.545 263.139 145.024C262.492 142.435 261.521 140.348 259.466 138.649C258.07 137.519 256.55 136.551 254.935 135.766C249.049 132.827 242.315 131.73 235.82 131.387C234.551 131.32 233.279 131.282 232.001 131.274Z" fill="#FF9A06"/>
<path d="M214.261 178.252C215.493 178.252 216.491 177.254 216.491 176.022C216.491 174.791 215.493 173.793 214.261 173.793C213.03 173.793 212.032 174.791 212.032 176.022C212.032 177.254 213.03 178.252 214.261 178.252Z" fill="#1100A5"/>
<path d="M250.14 178.252C251.371 178.252 252.369 177.254 252.369 176.022C252.369 174.791 251.371 173.793 250.14 173.793C248.908 173.793 247.91 174.791 247.91 176.022C247.91 177.254 248.908 178.252 250.14 178.252Z" fill="#1100A5"/>
<path d="M259.217 195.19C259.217 195.19 259.599 194.889 260.466 195.19" stroke="#1100A5" stroke-width="0.8" stroke-linecap="round" stroke-linejoin="round"/>
<path d="M239.681 176.459C239.951 176.457 240.22 176.493 240.48 176.566C240.857 176.671 241.199 176.875 241.471 177.156C241.744 177.436 241.936 177.785 242.03 178.165C242.188 179.013 241.545 179.828 240.917 180.326C238.409 182.317 235.127 183.116 231.856 183.116C229.756 183.109 227.668 182.803 225.655 182.207C225.353 182.118 225.06 181.998 224.782 181.851C223.937 181.385 223.4 180.631 223.753 179.504C223.867 179.065 224.147 178.686 224.532 178.446C224.792 178.308 225.083 178.239 225.377 178.246C226.024 178.246 226.746 178.514 227.319 178.65C229.066 179.058 230.88 179.088 232.639 178.737C234.493 178.369 236.056 177.42 237.817 176.828C238.41 176.607 239.035 176.482 239.668 176.459H239.681ZM239.668 175.165C238.894 175.188 238.13 175.334 237.402 175.598C236.668 175.848 235.982 176.142 235.318 176.43C234.377 176.88 233.391 177.228 232.377 177.469C230.799 177.782 229.173 177.755 227.607 177.391C227.471 177.359 227.315 177.317 227.15 177.272C226.569 177.082 225.965 176.973 225.354 176.948C224.843 176.941 224.339 177.065 223.888 177.307C223.207 177.707 222.707 178.355 222.494 179.116C221.999 180.699 222.613 182.145 224.138 182.98C224.496 183.174 224.873 183.329 225.264 183.443C227.396 184.077 229.608 184.404 231.833 184.414C235.762 184.414 239.176 183.352 241.703 181.346C242.917 180.375 243.506 179.106 243.286 177.932C243.146 177.319 242.844 176.755 242.411 176.299C241.979 175.844 241.431 175.513 240.826 175.343C240.448 175.235 240.057 175.181 239.664 175.184L239.668 175.165Z" fill="#FF1F00"/>
<path d="M224.775 181.85C223.931 181.384 223.394 180.63 223.746 179.504C223.861 179.065 224.14 178.686 224.526 178.446C225.371 177.98 226.468 178.446 227.329 178.65C229.076 179.058 230.889 179.087 232.649 178.737C234.506 178.368 236.066 177.42 237.827 176.828C238.658 176.547 239.61 176.314 240.477 176.566C240.854 176.671 241.196 176.875 241.468 177.155C241.741 177.436 241.933 177.785 242.027 178.165C242.186 179.012 241.542 179.828 240.914 180.326C236.768 183.617 230.507 183.647 225.646 182.206C225.345 182.117 225.053 181.998 224.775 181.85V181.85Z" fill="#C74536"/>
<path d="M227.012 180.035C226.777 180.019 226.548 179.963 226.332 179.87C226.306 179.86 226.283 179.845 226.263 179.826C226.244 179.806 226.228 179.783 226.219 179.757C226.092 179.469 226.261 178.857 226.377 178.53L227.636 178.776C227.659 179.323 227.581 179.695 227.403 179.886C227.352 179.937 227.291 179.977 227.223 180.003C227.156 180.028 227.084 180.039 227.012 180.035V180.035Z" fill="white"/>
<path d="M226.484 178.718L227.477 178.909C227.477 179.469 227.361 179.689 227.283 179.773C227.249 179.81 227.206 179.838 227.159 179.855C227.112 179.873 227.061 179.879 227.011 179.873C226.796 179.855 226.586 179.804 226.387 179.721C226.378 179.713 226.371 179.703 226.367 179.692C226.32 179.364 226.36 179.029 226.484 178.721V178.718ZM226.273 178.349C226.273 178.349 225.685 179.805 226.273 180.025C226.507 180.127 226.757 180.186 227.011 180.2C227.468 180.2 227.872 179.896 227.791 178.644L226.273 178.349V178.349Z" fill="#1100A5"/>
<path d="M239.681 176.459C239.951 176.457 240.22 176.493 240.48 176.566C240.857 176.671 241.199 176.875 241.471 177.156C241.744 177.436 241.937 177.785 242.03 178.165C242.189 179.013 241.545 179.828 240.917 180.326C238.409 182.317 235.128 183.116 231.856 183.116C229.756 183.109 227.669 182.803 225.656 182.207C225.354 182.118 225.062 181.999 224.785 181.851C223.937 181.385 223.4 180.631 223.753 179.504C223.868 179.065 224.147 178.686 224.533 178.446C224.792 178.308 225.083 178.239 225.377 178.246C226.024 178.246 226.746 178.514 227.319 178.65C229.066 179.058 230.88 179.088 232.639 178.737C234.497 178.369 236.056 177.42 237.817 176.828C238.41 176.607 239.035 176.482 239.668 176.459H239.681ZM239.668 175.165C238.894 175.188 238.13 175.334 237.402 175.598C236.668 175.848 235.982 176.142 235.318 176.43C234.377 176.88 233.391 177.228 232.377 177.469C230.799 177.782 229.173 177.755 227.607 177.391C227.471 177.359 227.316 177.317 227.151 177.272C226.57 177.082 225.965 176.973 225.355 176.948C224.843 176.941 224.339 177.065 223.889 177.307C223.207 177.707 222.707 178.355 222.494 179.116C222.002 180.699 222.614 182.145 224.138 182.98C224.496 183.174 224.873 183.329 225.264 183.443C227.396 184.077 229.608 184.404 231.833 184.414C235.762 184.414 239.176 183.352 241.703 181.346C242.917 180.375 243.506 179.106 243.289 177.932C243.148 177.319 242.846 176.755 242.412 176.3C241.979 175.844 241.431 175.514 240.826 175.343C240.449 175.235 240.057 175.181 239.664 175.184L239.668 175.165Z" stroke="#1100A5" stroke-width="0.8" stroke-miterlimit="10"/>
<path d="M226.319 182.391C228.199 181.041 230.411 180.229 232.718 180.043C235.025 179.856 237.34 180.302 239.412 181.333C237.537 182.295 235.49 182.88 233.39 183.054C229.976 183.313 226.319 182.391 226.319 182.391Z" fill="#A62D21" stroke="#1100A5" stroke-width="0.8" stroke-miterlimit="10"/>
<path d="M259.217 195.19C259.217 195.19 260.116 194.911 260.715 195.19" stroke="#1100A5" stroke-width="0.8" stroke-linecap="round" stroke-linejoin="round"/>
<path d="M246.793 133.51C246.793 133.51 262.744 137.888 262.003 154.247C261.262 170.605 253.156 202.956 253.156 202.956H256.79C256.79 202.956 261.505 185.63 261.997 179.812C261.997 179.812 263.75 169.411 263.87 166.068C263.99 162.725 266.411 143.209 258.667 138.193C258.667 138.193 254.259 134.652 246.855 133.041C246.855 133.057 247.227 133.199 246.793 133.51Z" fill="#0139F2"/>
<path d="M232.002 131.439C232.002 131.439 211.679 131.604 202.259 145.318C192.839 159.033 207.051 202.956 207.051 202.956H256.79C257.392 200.853 257.929 198.727 258.453 196.601C259.709 191.5 260.808 186.365 261.751 181.194C262.933 174.925 263.737 168.592 264.158 162.227C264.482 156.58 264.527 150.713 263.139 145.192C262.492 142.603 261.521 140.516 259.466 138.817C258.07 137.686 256.55 136.718 254.936 135.931C249.049 132.995 242.315 131.898 235.82 131.552C234.552 131.49 233.279 131.452 232.002 131.439Z" stroke="#1100A5" stroke-width="0.8" stroke-miterlimit="10"/>
<path d="M262.553 176.472C262.553 176.472 276.468 185.892 274.472 194.652C272.475 203.412 261.087 199.94 261.087 199.94C261.087 199.94 257.945 201.18 257.039 200.021C256.133 198.863 260.424 197.626 260.424 197.626C260.424 197.626 256.398 198.636 259.217 195.199C259.217 195.199 255.249 193.4 255.499 191.543C255.748 189.685 258.628 192.966 260.424 193.028C261.82 193.037 263.194 193.369 264.44 193.999C264.44 193.999 274.167 194.277 261.997 179.825L262.553 176.472Z" fill="#FF8100"/>
<path d="M264.385 182.834C264.385 182.834 264.573 179.537 266.935 179.922L262.634 176.469L261.945 179.737L264.385 182.834Z" fill="#0139F2"/>
<path d="M262.553 176.472C262.553 176.472 276.468 185.892 274.472 194.652C272.475 203.412 261.087 199.94 261.087 199.94C261.087 199.94 257.945 201.18 257.039 200.021C256.133 198.863 260.424 197.626 260.424 197.626C260.424 197.626 256.398 198.636 259.217 195.199C259.217 195.199 255.249 193.4 255.499 191.543C255.748 189.685 258.628 192.966 260.424 193.028C261.82 193.037 263.194 193.369 264.44 193.999C264.44 193.999 274.167 194.277 261.997 179.825L262.553 176.472Z" stroke="#1100A5" stroke-width="0.8" stroke-linejoin="round"/>
<path d="M239.357 124.967C239.357 124.967 243.784 125.614 245.182 129.306C245.182 129.306 247.473 131.29 246.8 133.513C246.127 135.736 225.607 137.72 225.607 137.72C225.607 137.72 219.782 153.337 207.304 147.636C194.826 141.934 198.052 124.171 212.676 113.595C227.3 103.02 239.357 124.967 239.357 124.967Z" fill="#7981BD"/>
<path d="M233.94 130.675C234.704 130.999 234.875 132.054 234.587 132.837C234.299 133.62 233.727 134.251 233.341 134.986C233.255 135.122 233.213 135.281 233.222 135.442C233.255 135.59 233.338 135.721 233.458 135.814C234.034 136.306 234.901 136.167 235.642 135.999L243.542 134.196C244.229 134.085 244.888 133.842 245.483 133.481C246.053 133.083 246.454 132.387 246.328 131.711C246.15 130.86 245.241 130.394 244.778 129.659C244.237 128.808 244.257 127.539 243.16 127.119C242.257 126.769 241.348 127.494 240.571 127.876C239.477 128.405 238.37 128.905 237.251 129.378C236.713 129.601 234.439 130.889 233.94 130.675Z" fill="#585E8A"/>
<path d="M223.002 132.772C222.74 133.206 222.333 133.532 221.853 133.694C221.114 134.027 220.348 134.298 219.565 134.507C219.889 135.5 220.144 136.72 219.423 137.468C219.317 137.549 219.241 137.663 219.206 137.791C219.199 137.904 219.225 138.016 219.28 138.115C219.565 138.798 219.462 139.578 219.31 140.306C218.94 142.094 218.323 143.821 217.475 145.438C217.271 145.833 217.09 146.409 217.475 146.648C217.62 146.711 217.776 146.743 217.934 146.743C218.092 146.743 218.249 146.711 218.394 146.648C219.805 146.001 220.766 145.008 221.782 143.84C222.696 142.809 223.5 141.685 224.18 140.487C224.953 139.17 225.798 137.138 225.775 135.61C225.753 134.083 225.079 132.53 223.834 131.633C223.578 131.449 222.769 130.986 222.643 131.468C222.542 131.831 223.277 132.18 223.002 132.772Z" fill="#585E8A"/>
<path d="M225.591 137.723C225.591 137.723 227.161 130.691 221.416 131.274C215.672 131.856 217.054 133.772 218.443 133.675" stroke="#1100A5" stroke-width="0.8" stroke-miterlimit="10" stroke-linecap="round"/>
<path d="M239.357 124.967C239.357 124.967 243.784 125.614 245.182 129.306C245.182 129.306 247.473 131.29 246.8 133.513C246.127 135.736 225.607 137.72 225.607 137.72C225.607 137.72 219.782 153.337 207.304 147.636C194.826 141.934 198.052 124.171 212.676 113.595C227.3 103.02 239.357 124.967 239.357 124.967Z" stroke="#1100A5" stroke-width="0.8" stroke-miterlimit="10"/>
<path d="M213.083 115.084C212.585 115.333 208.598 117.521 204.158 125.329C199.718 133.138 201.928 139.212 203.663 139.707C205.398 140.202 210.025 139.383 208.951 130.287C208.316 124.876 209.797 119.429 213.083 115.084V115.084Z" fill="#8A93D4"/>
<path d="M200.932 178.249C200.932 178.249 180.778 193.908 188.46 200.254C196.143 206.6 210.605 197.445 210.935 197.28C211.265 197.115 214.281 195.296 214.258 194.099C214.235 192.902 210.563 194.552 210.563 194.552C210.563 194.552 211.43 192.115 208.993 192.115C208.993 192.115 211.967 187.653 211.058 187.035C210.148 186.417 206.886 190.562 206.886 190.562C206.886 190.562 206.563 189.465 205.864 189.837C205.165 190.209 204.226 191.433 204.246 192.348C204.265 193.264 201.061 194.866 201.061 194.866C201.061 194.866 184.493 201.144 201.644 181.951L200.932 178.249Z" fill="#FF8100"/>
<path d="M200.932 178.249C200.932 178.249 180.778 193.908 188.46 200.254C196.143 206.6 210.605 197.445 210.935 197.28C211.265 197.115 214.281 195.296 214.258 194.099C214.235 192.902 210.563 194.552 210.563 194.552C210.563 194.552 211.43 192.115 208.993 192.115C208.993 192.115 211.967 187.653 211.058 187.035C210.148 186.417 206.886 190.562 206.886 190.562C206.886 190.562 206.563 189.465 205.864 189.837C205.165 190.209 204.226 191.433 204.246 192.348C204.265 193.264 201.061 194.866 201.061 194.866C201.061 194.866 184.493 201.144 201.644 181.951L200.932 178.249Z" stroke="#1100A5" stroke-width="0.8" stroke-linejoin="round"/>
<path d="M332.617 202.343C334.826 197.95 337.049 193.64 337.075 193.59C337.151 193.433 337.261 193.295 337.396 193.185C337.531 193.074 337.689 192.995 337.858 192.952C338.027 192.909 338.204 192.903 338.376 192.935C338.547 192.967 338.71 193.037 338.852 193.138C339.158 193.35 339.38 193.664 339.477 194.025C339.573 194.385 339.539 194.768 339.379 195.105C339.356 195.148 337.616 198.521 335.688 202.316" fill="#FF724F"/>
<path d="M362.627 202.195C363.109 200.117 363.767 198.084 364.594 196.118C366.777 190.873 365.181 189.25 365.167 189.234C365.182 189.25 365.199 189.264 365.217 189.277L366.656 186.982C367.016 187.264 370.104 189.968 366.983 197.439C366.32 199.03 365.772 200.666 365.344 202.336" fill="#FF724F"/>
<path d="M336.606 194.888C335.869 196.324 334.394 199.202 332.889 202.195H335.964C337.167 199.819 338.258 197.665 338.885 196.465" stroke="#1100A5" stroke-width="0.8" stroke-miterlimit="10"/>
<path d="M365.836 190.758C365.954 191.82 365.8 193.528 364.722 196.111C363.895 198.081 363.237 200.117 362.755 202.198H365.521C365.937 200.575 366.471 198.984 367.121 197.439C369.609 191.466 368.131 188.536 367.256 187.464" stroke="#1100A5" stroke-width="0.8" stroke-miterlimit="10"/>
<path d="M323.701 175.132C323.701 175.132 319.42 184.238 312.428 183.734C309.442 183.517 307.013 181.816 306.052 178.954C305.802 178.202 305.65 177.421 305.6 176.63C305.555 175.597 305.644 174.562 305.866 173.552C305.984 172.956 306.128 171.933 305.174 172.166C304.141 172.421 304.122 173.326 303.751 174.132C303.424 173.86 303.207 173.513 302.899 173.234C302.427 172.805 302.243 172.215 301.958 171.671C301.784 171.343 301.303 170.359 300.801 170.595C300.044 170.923 300.526 172.274 300.863 172.864C300.863 172.864 300.021 173.306 299.811 173.434C299.811 173.434 298.736 171.743 298.172 171.795C297.608 171.848 297.448 172.506 298.543 174.277C298.416 174.381 298.305 174.504 298.215 174.64C298.215 174.64 297.254 173.687 296.904 173.883C296.435 174.136 296.287 174.388 297.297 176.178C298.307 177.968 301.342 187.549 310.819 189.381C320.295 191.214 325.061 178.177 325.061 178.177C325.061 178.177 323.734 175.368 323.701 175.132Z" fill="#FF724F"/>
<path d="M332.02 130.729C332.02 130.729 326.881 130.319 323.386 133.607C319.892 136.894 315.985 137.924 313.313 137.514C310.641 137.104 324.825 148.004 332.02 139.979C339.216 131.955 340.871 136.826 340.871 136.826C340.871 136.826 335.954 144.503 351.361 154.779C351.361 154.779 357.733 140.186 351.361 136.075C351.361 136.075 364.312 144.709 373.979 128.863C373.979 128.863 369.661 130.919 366.374 128.863C366.374 128.863 359.818 122.006 350.135 129.893C350.135 129.893 353.629 127.015 352.6 119.403C352.6 119.403 348.696 109.333 344.995 106.865C344.995 106.865 345.283 113.65 343.497 116.322L342.09 119.836C342.09 119.836 339.625 127.765 342.297 131.715C341.48 131.577 340.646 131.577 339.829 131.715C338.803 131.964 342.503 124.153 329.339 115.109C329.339 115.109 330.162 120.452 329.955 122.92C329.749 125.389 328.936 128.673 332.02 130.729Z" fill="#77FF89"/>
<path d="M368.531 135.255C371.74 137.819 374.352 142.159 376.247 149.436C381.59 169.992 366.174 200.415 350.961 202.264C335.748 204.113 318.482 171.638 319.102 154.989C319.282 150.121 321.567 146.138 324.717 142.926C324.717 142.926 328.788 143.087 330.772 141.133L333.912 138.038C333.912 138.038 338.829 133.033 340.858 136.826C340.858 136.826 336.062 144.693 351.479 154.779C351.479 154.779 356.723 141.254 352.114 136.521C355.178 138.077 358.637 138.681 362.047 138.255C362.047 138.255 366.482 137.173 368.531 135.255Z" fill="#FF454F" stroke="#1100A5" stroke-width="0.8" stroke-miterlimit="10"/>
<path d="M337.364 118.19C337.364 118.19 337.593 115.171 339.947 115.109L344.46 128.411L342.31 130.155C342.31 130.155 343.303 125.989 337.364 118.19Z" fill="#77FF89"/>
<path d="M347.614 179.387C347.614 179.387 345.558 177.676 348.207 177.119C348.207 177.119 352.678 177.81 355.337 176.135C355.337 176.135 356.999 175.417 357.287 177.187C357.287 177.187 357.52 178.4 354.353 179.22C354.353 179.233 349.108 180.383 347.614 179.387Z" fill="#77FF89"/>
<path d="M339.674 115.132C339.674 115.132 340.163 116.771 339.17 117.351C339.17 117.351 344.188 128.539 344.46 132.974L350.338 129.696C350.338 129.696 347.624 130.942 345.309 130.165L340.819 118.017L339.947 115.119L339.674 115.132Z" fill="#0139F2"/>
<path d="M345.211 107.058C345.211 107.058 355.799 129.388 345.791 130.833L349.698 130.106C349.698 130.106 353.881 127.12 352.573 119.423C352.58 119.423 348.856 109.474 345.211 107.058Z" fill="#0139F2"/>
<path d="M340.012 139.963C338.701 140.379 336.852 141.602 334.341 144.404C330.935 148.2 325.96 147.754 321.947 146.279L324.684 142.923C324.684 142.923 329.274 143.477 333.096 138.845C333.096 138.845 338.534 132.4 340.858 136.826" fill="#0139F2"/>
<path d="M351.341 136.075C356.586 140.104 353.032 149.708 352.744 150.826C352.455 151.944 351.479 154.776 351.479 154.776L351.134 154.658C348.512 152.865 344.27 148.895 344.27 148.895C345.614 151.793 348.532 155.369 354.471 159.326C354.471 159.326 360.844 144.732 354.471 140.622C354.471 140.622 363.322 147.354 372.071 139.438L368.531 135.252C361.506 140.746 355.491 138.075 353.072 136.757L351.341 136.075Z" fill="#0139F2"/>
<path opacity="0.7" d="M326.832 169.209L333.912 180.098C333.912 180.098 339.193 179.043 339.812 174.906L329.257 166.731C329.257 166.731 328.844 166.731 326.832 169.209Z" fill="#77D9F2"/>
<path opacity="0.7" d="M362.348 168.799L370.061 180.144C370.061 180.144 374.65 178.302 375.283 174.165L365.413 166.544C365.413 166.544 363.03 167.553 362.348 168.799Z" fill="#77D9F2"/>
<path d="M335.482 172.946C335.49 172.506 335.368 172.074 335.13 171.705C334.891 171.335 334.549 171.045 334.145 170.871C333.741 170.697 333.295 170.647 332.863 170.728C332.431 170.809 332.033 171.017 331.719 171.325C331.405 171.633 331.191 172.027 331.102 172.457C331.014 172.888 331.055 173.335 331.222 173.742C331.389 174.149 331.673 174.497 332.038 174.741C332.403 174.986 332.833 175.116 333.272 175.116C333.56 175.118 333.845 175.064 334.112 174.957C334.379 174.849 334.621 174.69 334.827 174.488C335.032 174.287 335.195 174.047 335.308 173.782C335.42 173.517 335.479 173.233 335.482 172.946V172.946Z" fill="#110059"/>
<path d="M369.812 173.08C369.821 172.641 369.698 172.209 369.46 171.839C369.222 171.47 368.879 171.179 368.475 171.005C368.072 170.832 367.625 170.782 367.193 170.863C366.761 170.943 366.363 171.151 366.049 171.459C365.736 171.767 365.521 172.161 365.433 172.592C365.344 173.022 365.386 173.47 365.552 173.876C365.719 174.283 366.003 174.631 366.368 174.876C366.733 175.12 367.163 175.251 367.603 175.25C367.89 175.253 368.176 175.199 368.442 175.091C368.709 174.983 368.952 174.824 369.157 174.623C369.362 174.421 369.525 174.181 369.638 173.917C369.75 173.652 369.809 173.368 369.812 173.08V173.08Z" fill="#110059"/>
<path opacity="0.2" d="M367.901 180.42C371.831 180.42 375.018 177.233 375.018 173.303C375.018 169.373 371.831 166.187 367.901 166.187C363.971 166.187 360.785 169.373 360.785 173.303C360.785 177.233 363.971 180.42 367.901 180.42Z" fill="#CFD9F2" stroke="#1100A5" stroke-width="0.8" stroke-miterlimit="10"/>
<path d="M329.345 115.109C329.345 115.109 332.702 120.072 333.345 122.648C333.987 125.225 335.311 131.433 339.828 131.732" stroke="#1100A5" stroke-width="0.8" stroke-miterlimit="10"/>
<path d="M373.467 129.08C373.467 129.08 368.445 134.521 365.302 131.702C362.158 128.883 355.976 126.785 344.46 132.961C344.46 132.961 351.016 144.667 351.344 154.766" stroke="#1100A5" stroke-width="0.8" stroke-linecap="round" stroke-linejoin="round"/>
<path d="M352.577 119.426L347.329 121" stroke="#1100A5" stroke-width="0.8" stroke-miterlimit="10"/>
<path d="M347.329 123.048L352.744 122.924" stroke="#1100A5" stroke-width="0.8" stroke-miterlimit="10"/>
<path d="M343.47 116.342L346.942 117.109" stroke="#1100A5" stroke-width="0.8" stroke-miterlimit="10"/>
<path d="M344.487 114.132L346.525 114.765" stroke="#1100A5" stroke-width="0.8" stroke-miterlimit="10"/>
<path d="M333.348 122.632L329.995 122.291" stroke="#1100A5" stroke-width="0.8" stroke-miterlimit="10"/>
<path d="M334.249 125.877C334.249 125.877 330.571 126.736 329.719 125.671" stroke="#1100A5" stroke-width="0.8" stroke-miterlimit="10"/>
<path d="M324.435 138.432C324.435 138.432 325.537 141.405 324.435 142.913" stroke="#1100A5" stroke-width="0.8" stroke-miterlimit="10"/>
<path d="M327.258 137.33C327.669 138.159 327.897 139.066 327.926 139.99C327.955 140.915 327.784 141.834 327.425 142.687" stroke="#1100A5" stroke-width="0.8" stroke-miterlimit="10"/>
<path d="M343.965 148.184L348.83 142.913" stroke="#1100A5" stroke-width="0.8" stroke-miterlimit="10"/>
<path d="M345.506 150.17L349.374 144.542" stroke="#1100A5" stroke-width="0.8" stroke-miterlimit="10"/>
<path d="M357.294 128.978C357.294 128.978 360.506 135.072 358.172 138.484" stroke="#1100A5" stroke-width="0.8" stroke-miterlimit="10"/>
<path d="M360.775 129.352C360.775 129.352 363.764 135.58 362.434 138.134" stroke="#1100A5" stroke-width="0.8" stroke-miterlimit="10"/>
<path d="M323.701 175.132C323.701 175.132 319.42 184.238 312.428 183.734C309.442 183.517 307.013 181.816 306.052 178.954C305.802 178.202 305.65 177.421 305.6 176.63C305.555 175.597 305.644 174.562 305.866 173.552C305.984 172.956 306.128 171.933 305.174 172.166C304.141 172.421 304.122 173.326 303.751 174.132C303.424 173.86 303.207 173.513 302.899 173.234C302.427 172.805 302.243 172.215 301.958 171.671C301.784 171.343 301.303 170.359 300.801 170.595C300.044 170.923 300.526 172.274 300.863 172.864C300.863 172.864 300.021 173.306 299.811 173.434C299.811 173.434 298.736 171.743 298.172 171.795C297.608 171.848 297.448 172.506 298.543 174.277C298.416 174.381 298.305 174.504 298.215 174.64C298.215 174.64 297.254 173.687 296.904 173.883C296.435 174.136 296.287 174.388 297.297 176.178C298.307 177.968 301.342 187.549 310.819 189.381C320.295 191.214 325.061 178.177 325.061 178.177C325.061 178.177 323.734 175.368 323.701 175.132Z" stroke="#1100A5" stroke-width="0.8" stroke-linejoin="round"/>
<path d="M368.531 135.255C367.974 135.703 367.386 136.109 366.771 136.472C366.771 136.472 378.607 145.109 374.31 170.15C374.902 171.273 375.099 172.562 374.87 173.811C374.87 173.811 376.021 169.442 376.083 169.222C376.146 169.002 381.328 152.019 370.934 137.734C370.937 137.721 369.147 135.534 368.531 135.255Z" fill="#0139F2"/>
<path opacity="0.2" d="M332.856 180.062C336.787 180.062 339.973 176.876 339.973 172.946C339.973 169.015 336.787 165.829 332.856 165.829C328.926 165.829 325.74 169.015 325.74 172.946C325.74 176.876 328.926 180.062 332.856 180.062Z" fill="#CFD9F2" stroke="#1100A5" stroke-width="0.8" stroke-miterlimit="10"/>
<path d="M368.498 135.255C371.707 137.816 374.32 142.139 376.214 149.436C381.557 169.992 366.141 200.412 350.931 202.264C339.766 203.621 327.497 186.49 322 170.697C320.01 164.97 318.905 159.417 319.069 154.986C319.249 150.118 321.534 146.135 324.684 142.923" stroke="#1100A5" stroke-width="0.8" stroke-miterlimit="10"/>
<path d="M345.041 107.107C345.067 107.478 344.998 108.192 344.998 108.304C344.998 109.287 344.946 110.271 344.87 111.254C344.621 114.319 343.231 117.02 342.104 119.833C342.104 119.833 341.966 120.278 341.776 121.016" stroke="#1100A5" stroke-width="0.8" stroke-linejoin="round"/>
<path d="M344.972 106.891C345.013 106.954 345.032 107.028 345.027 107.103" stroke="#1100A5" stroke-width="0.8" stroke-linejoin="round"/>
<path d="M351.341 136.075C351.353 136.085 351.368 136.093 351.383 136.098C352.039 136.518 360.378 141.608 368.498 135.256C370.36 133.797 372.212 131.735 373.952 128.88C373.831 129.083 373.067 129.208 372.861 129.29C371.965 129.578 371.034 129.746 370.094 129.788C366.816 129.912 364.849 127.195 361.82 126.428C358.542 125.599 355.176 126.546 352.357 128.293C351.575 128.784 350.824 129.322 350.108 129.906C352.635 127.847 353.166 123.743 352.773 120.727C352.39 117.777 350.57 114.709 349.112 112.149C348.05 110.277 346.817 108.124 344.968 106.904" stroke="#1100A5" stroke-width="0.8" stroke-linejoin="round"/>
<path d="M341.179 124.432C340.91 126.88 340.986 129.778 342.297 131.715C341.481 131.577 340.648 131.577 339.832 131.715C338.803 131.964 342.503 124.153 329.342 115.106C329.342 115.106 330.165 120.452 329.962 122.917C329.759 125.382 328.933 128.673 332.017 130.729C332.017 130.729 326.877 130.319 323.383 133.607C319.889 136.894 315.981 137.924 313.31 137.514C311.402 137.219 318.086 142.687 324.681 142.923C327.326 143.018 329.959 142.267 332.017 139.972C339.209 131.958 340.868 136.816 340.868 136.816C340.868 136.816 335.951 144.496 351.357 154.773C351.357 154.773 357.703 140.241 351.4 136.088" stroke="#1100A5" stroke-width="0.8" stroke-linejoin="round"/>
<path d="M348.178 178.348C348.178 178.348 352.606 179.171 356.045 177.201" stroke="#1100A5" stroke-width="0.8" stroke-miterlimit="10" stroke-linecap="round"/>
<path d="M350.41 179.754C349.586 179.76 348.764 179.696 347.951 179.564C347.63 179.505 347.345 179.32 347.159 179.051C346.973 178.782 346.902 178.45 346.961 178.128C347.02 177.806 347.205 177.521 347.474 177.336C347.743 177.15 348.075 177.079 348.397 177.138C349.064 177.238 349.738 177.287 350.413 177.282C351.842 177.282 353.796 177.073 355.441 176.129C355.582 176.048 355.737 175.996 355.898 175.975C356.058 175.955 356.221 175.966 356.378 176.009C356.534 176.051 356.68 176.124 356.809 176.223C356.937 176.322 357.044 176.445 357.125 176.586C357.205 176.726 357.257 176.881 357.278 177.042C357.298 177.203 357.287 177.366 357.245 177.522C357.202 177.679 357.129 177.825 357.03 177.953C356.931 178.081 356.808 178.189 356.667 178.269C354.546 179.479 352.154 179.754 350.41 179.754Z" stroke="#1100A5" stroke-width="0.8" stroke-miterlimit="10"/>
<path d="M322.003 170.697L325.881 171.88" stroke="#1100A5" stroke-width="0.8" stroke-miterlimit="10" stroke-linecap="round"/>
<path d="M340.094 172.946C340.081 171.535 339.651 170.16 338.858 168.994C338.065 167.827 336.945 166.921 335.638 166.391C334.331 165.86 332.896 165.728 331.514 166.011C330.132 166.294 328.865 166.979 327.872 167.981C326.88 168.983 326.206 170.257 325.935 171.641C325.665 173.025 325.81 174.459 326.353 175.761C326.895 177.063 327.811 178.175 328.985 178.957C330.159 179.74 331.538 180.157 332.948 180.157C334.852 180.147 336.673 179.382 338.013 178.03C339.353 176.678 340.101 174.849 340.094 172.946V172.946Z" stroke="#1100A5" stroke-width="0.8" stroke-miterlimit="10"/>
<path d="M340.094 172.647H345.555C345.555 172.647 350.393 164.711 356.045 172.946H360.814" stroke="#1100A5" stroke-width="0.8" stroke-miterlimit="10"/>
<path d="M345.041 107.107C345.575 109.13 349.433 124.481 345.804 130.834C344.778 129.749 343.084 125.012 341.789 121.019C340.746 117.826 339.96 115.119 339.96 115.119C337.813 115.119 337.377 118.203 337.377 118.203C338.892 120.12 340.173 122.211 341.192 124.432C343.297 129.217 342.31 131.715 342.31 131.715L342.333 133.567C341.84 133.445 341.34 133.353 340.835 133.292V133.292C334.322 132.45 329.005 136.439 329.005 136.439C319.171 141.972 313.326 137.514 313.326 137.514" stroke="#1100A5" stroke-width="0.8" stroke-linecap="round" stroke-linejoin="round"/>
<path d="M344.972 106.891C344.972 106.914 344.998 106.983 345.027 107.103" stroke="#1100A5" stroke-width="0.8" stroke-linecap="round" stroke-linejoin="round"/>
<path d="M364.525 199.016C364.525 199.016 365.302 198.907 367.105 198.534C368.908 198.16 370.897 202.952 374.166 201.441C377.434 199.93 373.153 191.23 372.143 189.552C371.134 187.874 370.462 188.083 370.462 188.083L367.406 188.667C367.406 188.667 366.171 188.634 365.767 189.25C365.508 189.636 365.147 189.942 364.725 190.135L362.952 190.499L362.844 190.519L361.05 190.775C360.588 190.736 360.145 190.569 359.772 190.293C359.195 189.847 358.045 190.293 358.045 190.293L354.97 190.775C354.97 190.775 354.268 190.804 353.881 192.741C353.495 194.679 352.41 204.293 355.996 204.614C359.582 204.936 359.834 199.75 361.66 199.494C363.486 199.238 364.25 199.078 364.25 199.078L364.525 199.016Z" fill="#110059"/>
<path d="M355.664 190.621L355.504 189.595C355.504 189.595 355.376 189.083 355.986 188.988C356.595 188.893 357.874 188.634 357.874 188.634C357.874 188.634 358.579 188.346 358.641 189.244L358.801 190.044L355.664 190.621Z" fill="#FF9A06"/>
<path d="M364.525 199.016C364.525 199.016 365.302 198.907 367.105 198.534C368.908 198.16 370.897 202.952 374.166 201.441C377.434 199.93 373.153 191.23 372.143 189.552C371.134 187.874 370.462 188.083 370.462 188.083L367.406 188.667C367.406 188.667 366.171 188.634 365.767 189.25C365.508 189.636 365.147 189.942 364.725 190.135L362.952 190.499L362.844 190.519L361.05 190.775C360.588 190.736 360.145 190.569 359.772 190.293C359.195 189.847 358.045 190.293 358.045 190.293L354.97 190.775C354.97 190.775 354.268 190.804 353.881 192.741C353.495 194.679 352.41 204.293 355.996 204.614C359.582 204.936 359.834 199.75 361.66 199.494C363.486 199.238 364.25 199.078 364.25 199.078L364.525 199.016Z" stroke="#1100A5" stroke-width="0.8" stroke-miterlimit="10"/>
<path d="M366.613 188.791L366.452 187.765C366.452 187.765 366.324 187.254 366.934 187.159C367.544 187.064 368.822 186.808 368.822 186.808C368.822 186.808 369.524 186.52 369.589 187.415L369.75 188.215L366.613 188.791Z" fill="#FF9A06"/>
<path d="M355.664 190.621L355.504 189.595C355.504 189.595 355.376 189.083 355.986 188.988C356.595 188.893 357.874 188.634 357.874 188.634C357.874 188.634 358.579 188.346 358.641 189.244L358.801 190.044L355.664 190.621Z" stroke="#1100A5" stroke-width="0.8" stroke-miterlimit="10"/>
<path d="M366.613 188.791L366.452 187.765C366.452 187.765 366.324 187.254 366.934 187.159C367.544 187.064 368.822 186.808 368.822 186.808C368.822 186.808 369.524 186.52 369.589 187.415L369.75 188.215L366.613 188.791Z" stroke="#1100A5" stroke-width="0.8" stroke-miterlimit="10"/>
<path d="M378.522 182.681C379.421 183.915 380.22 185.218 380.912 186.579C381.774 188.313 382.682 190.545 381.987 192.479C381.371 194.197 379.364 195.118 377.63 194.885C376.519 194.738 375.932 193.741 375.008 193.168C374.506 192.839 373.967 192.571 373.402 192.371C373.041 192.051 372.658 191.757 372.254 191.493C371.773 191.165 371.196 190.765 370.615 191.04C370.538 191.071 370.472 191.125 370.425 191.195C370.379 191.265 370.355 191.347 370.357 191.43C370.368 191.515 370.403 191.595 370.458 191.66C370.697 191.988 371.088 192.145 371.402 192.394C371.902 192.867 372.318 193.421 372.631 194.033C372.631 194.033 372.389 194.977 372.389 194.977C372.389 194.977 371.927 194.551 370.035 195.193C369.458 195.39 368.665 195.947 368.836 196.668C369.049 197.573 370.052 196.698 370.491 196.511C371.317 196.164 372.291 196.57 372.877 197.167C372.912 197.193 372.935 197.232 372.943 197.275C372.943 197.344 372.884 197.396 372.828 197.429C372.54 197.586 372.242 197.724 371.937 197.842C371.461 198.058 370.815 198.294 370.625 198.825C370.586 198.931 370.586 199.047 370.625 199.153C370.665 199.226 370.72 199.29 370.787 199.339C370.854 199.388 370.931 199.422 371.012 199.438C371.472 199.516 371.945 199.471 372.382 199.307C372.848 199.189 373.306 199.042 373.752 198.865C373.907 198.802 374.451 199.025 374.618 199.061C374.995 199.14 375.369 199.206 375.749 199.261C376.654 199.4 377.567 199.47 378.483 199.471C380.505 199.471 382.61 199.068 384.285 197.871C388.402 194.921 387.802 189.136 385.675 185.159C384.421 182.884 382.851 180.798 381.01 178.964C380.092 178.027 379.122 177.138 378.125 176.283C377.188 175.48 376.159 174.427 375.08 173.85C374.631 174.834 374.579 176.227 374.382 177.299C374.346 177.496 375.221 178.351 375.365 178.531C375.732 178.99 376.096 179.456 376.46 179.918C377.165 180.849 377.857 181.754 378.522 182.681Z" fill="#FF724F"/>
<path d="M376.837 180.603C376.837 180.603 377.129 177.112 379.62 177.594L375.159 173.811L374.336 177.256L376.837 180.603Z" fill="#0139F2"/>
<path d="M378.522 182.681C379.421 183.915 380.22 185.218 380.912 186.579C381.774 188.313 382.682 190.545 381.987 192.479C381.371 194.197 379.364 195.118 377.63 194.885C376.519 194.738 375.932 193.741 375.008 193.168C374.506 192.839 373.967 192.571 373.402 192.371C373.041 192.051 372.658 191.757 372.254 191.493C371.773 191.165 371.196 190.765 370.615 191.04C370.538 191.071 370.472 191.125 370.425 191.195C370.379 191.265 370.355 191.347 370.357 191.43C370.368 191.515 370.403 191.595 370.458 191.66C370.697 191.988 371.088 192.145 371.402 192.394C371.902 192.867 372.318 193.421 372.631 194.033C372.631 194.033 372.389 194.977 372.389 194.977C372.389 194.977 371.927 194.551 370.035 195.193C369.458 195.39 368.665 195.947 368.836 196.668C369.049 197.573 370.052 196.698 370.491 196.511C371.317 196.164 372.291 196.57 372.877 197.167C372.912 197.193 372.935 197.232 372.943 197.275C372.943 197.344 372.884 197.396 372.828 197.429C372.54 197.586 372.242 197.724 371.937 197.842C371.461 198.058 370.815 198.294 370.625 198.825C370.586 198.931 370.586 199.047 370.625 199.153C370.665 199.226 370.72 199.29 370.787 199.339C370.854 199.388 370.931 199.422 371.012 199.438C371.472 199.516 371.945 199.471 372.382 199.307C372.848 199.189 373.306 199.042 373.752 198.865C373.907 198.802 374.451 199.025 374.618 199.061C374.995 199.14 375.369 199.206 375.749 199.261C376.654 199.4 377.567 199.47 378.483 199.471C380.505 199.471 382.61 199.068 384.285 197.871C388.402 194.921 387.802 189.136 385.675 185.159C384.421 182.884 382.851 180.798 381.01 178.964C380.092 178.027 379.122 177.138 378.125 176.283C377.188 175.48 376.159 174.427 375.08 173.85C374.631 174.834 374.579 176.227 374.382 177.299C374.346 177.496 375.221 178.351 375.365 178.531C375.732 178.99 376.096 179.456 376.46 179.918C377.165 180.849 377.857 181.754 378.522 182.681Z" stroke="#1100A5" stroke-width="0.8" stroke-linejoin="round"/>
<path d="M374.939 173.08C374.926 171.67 374.496 170.295 373.703 169.128C372.91 167.962 371.79 167.056 370.483 166.525C369.176 165.994 367.741 165.862 366.359 166.145C364.977 166.428 363.71 167.114 362.717 168.116C361.725 169.118 361.051 170.391 360.78 171.775C360.51 173.16 360.655 174.593 361.198 175.895C361.74 177.197 362.656 178.309 363.83 179.092C365.004 179.874 366.383 180.292 367.793 180.292C369.697 180.282 371.519 179.517 372.859 178.165C374.199 176.813 374.947 174.984 374.939 173.08V173.08Z" stroke="#1100A5" stroke-width="0.8" stroke-miterlimit="10"/>
<path d="M138.451 288.157C138.451 288.157 154.441 294.908 160.754 280.798C161.487 278.937 161.761 276.927 161.553 274.937C161.206 271.656 159.77 270.046 161.619 270.745C162.185 271.16 162.589 271.76 162.759 272.442C162.759 272.442 164.292 267.662 165.224 267.905C166.156 268.148 165.224 270.512 165.224 270.512C165.224 270.512 165.822 270.446 166.024 270.644C166.024 270.644 166.986 268.183 167.72 268.315C168.453 268.447 168.186 269.914 167.487 271.145C167.487 271.145 168.092 271.493 168.154 271.677C168.154 271.677 169.083 269.681 169.785 269.713C171.304 269.786 168.088 276.947 167.765 277.645C165.77 282.008 163.99 298.057 140.227 292.124C140.227 292.124 140.397 290.924 138.451 288.157Z" fill="#04FF93"/>
<path d="M144.047 292.923C144.103 292.923 144.464 290.253 145.618 289.728C145.618 289.728 141.099 289.284 138.451 288.157C138.451 288.157 139.956 290.358 140.227 292.124C140.227 292.124 143.314 293.093 144.047 292.923Z" fill="#0139F2"/>
<path d="M101.77 260.296C101.204 261.426 91.9187 260.028 91.9187 265.086C91.9187 270.144 92.8503 268.284 92.8503 268.284C92.8503 268.284 83.9305 275.073 90.7194 280.398C90.7194 280.398 83.9896 280.663 87.9385 290.114C87.9385 290.114 85.1089 298.634 89.7704 300.633C89.7704 300.633 80.0421 309.908 88.8298 318.359C88.8298 318.359 141.028 318.542 141.823 318.542C141.823 318.542 148.615 306.758 138.346 298.902C138.346 298.902 145.003 291.567 134.87 284.785C134.87 284.785 138.732 279.199 130.744 272.81C130.744 272.81 134.738 263.223 123.02 257.633C111.302 252.043 113.836 257.897 113.436 257.633C113.036 257.369 106.028 251.776 101.77 260.296Z" fill="#864AE5"/>
<path d="M127.87 283.064C128.95 282.844 129.682 281.959 129.504 281.088C129.326 280.217 128.307 279.689 127.227 279.909C126.147 280.13 125.415 281.015 125.593 281.886C125.771 282.757 126.791 283.284 127.87 283.064Z" fill="#1100A5"/>
<path d="M106.317 267.526L107.631 268.284L106.317 267.526Z" fill="#0000E2"/>
<path d="M138.451 288.157C138.451 288.157 154.441 294.908 160.754 280.798C161.487 278.937 161.761 276.927 161.553 274.937C161.206 271.656 159.77 270.046 161.619 270.745C162.185 271.16 162.589 271.76 162.759 272.442C162.759 272.442 164.292 267.662 165.224 267.905C166.156 268.148 165.224 270.512 165.224 270.512C165.224 270.512 165.822 270.446 166.024 270.644C166.024 270.644 166.986 268.183 167.72 268.315C168.453 268.447 168.186 269.914 167.487 271.145C167.487 271.145 168.092 271.493 168.154 271.677C168.154 271.677 169.083 269.681 169.785 269.713C171.304 269.786 168.088 276.947 167.765 277.645C165.77 282.008 163.99 298.057 140.227 292.124C140.227 292.124 140.397 290.924 138.451 288.157Z" stroke="#1100A5" stroke-width="0.8" stroke-linejoin="round"/>
<path d="M100.588 287.393C100.764 286.522 100.032 285.638 98.9517 285.419C97.8716 285.2 96.853 285.729 96.6766 286.601C96.5001 287.472 97.2326 288.355 98.3127 288.574C99.3927 288.793 100.411 288.264 100.588 287.393Z" fill="#1100A5"/>
<path d="M112.685 287.924C111.618 287.914 110.56 287.721 109.557 287.354H109.529C109.243 287.277 108.995 287.099 108.832 286.853C108.668 286.607 108.599 286.309 108.639 286.016C108.679 285.723 108.824 285.455 109.047 285.261C109.27 285.067 109.556 284.961 109.852 284.963C110.029 284.966 110.203 285.003 110.367 285.07C111.688 285.536 114.166 286.037 115.88 284.128C116.101 283.908 116.398 283.78 116.71 283.772C117.023 283.764 117.326 283.876 117.558 284.085C117.79 284.294 117.934 284.584 117.958 284.895C117.983 285.207 117.887 285.516 117.691 285.759C117.061 286.457 116.287 287.012 115.424 287.386C114.56 287.76 113.626 287.943 112.685 287.924V287.924Z" fill="#04FF93"/>
<path d="M109.855 286.169C109.953 286.169 114.027 287.987 116.808 284.931" stroke="#1100A5" stroke-width="0.8" stroke-linecap="round" stroke-linejoin="round"/>
<path d="M112.685 287.924C111.618 287.914 110.56 287.721 109.557 287.354H109.529C109.243 287.277 108.995 287.099 108.832 286.853C108.668 286.607 108.599 286.309 108.639 286.016C108.679 285.723 108.824 285.455 109.047 285.261C109.27 285.067 109.556 284.961 109.852 284.963C110.029 284.966 110.203 285.003 110.367 285.07C111.688 285.536 114.166 286.037 115.88 284.128C116.101 283.908 116.398 283.78 116.71 283.772C117.023 283.764 117.326 283.876 117.558 284.085C117.79 284.294 117.934 284.584 117.958 284.895C117.983 285.207 117.887 285.516 117.691 285.759C117.061 286.457 116.287 287.012 115.424 287.386C114.56 287.76 113.626 287.943 112.685 287.924V287.924Z" stroke="#1100A5" stroke-width="0.8" stroke-miterlimit="10"/>
<path d="M132.054 274.11L130.775 276.735C130.775 276.735 134.801 281.254 132.054 285.324C132.054 285.324 142.114 290.737 135.103 299.966C135.103 299.966 144.954 310.884 135.902 318.518L141.628 318.542C141.628 318.542 146.682 310.742 142.014 303.143C142.014 303.143 139.452 299.747 138.165 298.902C138.165 298.902 140.905 295.447 140.31 293.424C140.31 293.424 140.282 291.046 139.365 289.6C139.365 289.6 137.654 286.075 135.148 285.143L134.703 284.796C134.703 284.796 135.597 283.569 135.44 282.988C135.284 282.408 136.417 280.433 134.512 277.242C134.516 277.232 132.604 274.28 132.054 274.11Z" fill="#0139F2"/>
<path d="M101.555 260.296C100.988 261.426 91.7032 260.028 91.7032 265.086C91.7032 270.144 92.6348 268.284 92.6348 268.284C92.6348 268.284 83.7149 275.073 90.5039 280.398C90.5039 280.398 83.7775 280.663 87.7403 290.114C87.7403 290.114 84.9142 298.634 89.5723 300.633C89.5723 300.633 80.3882 310.092 89.1725 318.542C89.1725 318.542 141.127 319.043 141.628 318.542C141.628 318.542 148.417 306.758 138.152 298.902C138.152 298.902 144.809 291.567 134.676 284.785C134.676 284.785 138.538 279.199 130.549 272.81C130.549 272.81 134.543 263.223 122.829 257.633C111.114 252.043 113.641 257.897 113.241 257.633C112.842 257.369 105.813 251.776 101.555 260.296Z" stroke="#1100A5" stroke-width="0.8" stroke-linejoin="round"/>
<path d="M87.0104 297.275C86.9791 297.216 86.9513 297.157 86.9235 297.098C85.7972 294.748 85.7172 293.368 85.7172 293.368C84.876 291.307 84.9942 288.477 86.3256 287.945C87.6569 287.413 87.5561 288.811 87.5561 288.811C87.5561 288.811 86.1657 290.938 87.5909 292.071C89.0161 293.205 88.8562 291.971 88.8562 291.971C88.8562 291.971 87.4658 288.31 88.5086 288.112C88.5086 288.112 90.1077 287.577 90.2467 290.841C90.2467 290.841 93.9071 293.9 93.6394 296.896C93.3718 299.893 93.7055 305.416 88.1158 314.67C82.5261 323.924 74.67 314.27 79.9294 306.675C85.1889 299.079 85.9258 298.353 85.9258 298.353C85.9258 298.353 86.8539 297.348 87.0417 297.23" fill="#04FF93"/>
<path d="M87.0104 297.098C86.9791 297.039 86.9513 296.98 86.9235 296.921C85.7972 294.578 85.7172 293.187 85.7172 293.187C84.876 291.126 84.9942 288.296 86.3256 287.764C87.6569 287.233 87.5561 288.63 87.5561 288.63C87.5561 288.63 86.1657 290.757 87.5909 291.891C89.0161 293.024 88.8562 291.79 88.8562 291.79C88.8562 291.79 87.4658 288.129 88.5086 287.931C88.5086 287.931 90.1077 287.396 90.2467 290.66C90.2467 290.66 93.9071 293.723 93.6394 296.716C93.3718 299.709 93.7055 305.236 88.1158 314.489C82.5261 323.743 74.67 314.089 79.9294 306.494C85.1889 298.899 85.9258 298.176 85.9258 298.176C85.9258 298.176 86.8539 297.167 87.0417 297.049" stroke="#1100A5" stroke-width="0.8" stroke-linejoin="round"/>
<path d="M82.5087 310.012C83.9756 306.15 87.8793 298.693 87.8793 298.693C87.5572 298.151 87.2791 297.644 87.0451 297.171" stroke="#1100A5" stroke-width="0.8" stroke-linejoin="round"/>
<path d="M110.878 260.835C110.878 260.835 105.962 268.239 114.006 273.762C122.05 279.286 123.044 283.496 121.063 286.078C119.081 288.661 132.711 280.089 132.913 269.702C133.115 259.315 125.589 257.789 125.589 257.789L110.878 260.835Z" fill="#04FF93"/>
<path d="M114.761 262.427C114.842 262.649 114.993 262.839 115.192 262.969C115.318 263.014 115.454 263.032 115.588 263.021L117.611 262.983C117.74 262.973 117.871 262.989 117.993 263.031C118.133 263.117 118.241 263.246 118.299 263.399C118.357 263.552 118.364 263.719 118.317 263.876C118.215 264.187 118.13 264.502 118.063 264.822C117.948 266.118 119.884 266.821 119.93 268.124C120.382 268.19 120.802 268.401 121.125 268.725C121.448 269.048 121.658 269.468 121.723 269.921C121.722 270.056 121.762 270.188 121.838 270.3C121.949 270.399 122.093 270.451 122.241 270.446C123.256 270.557 125.053 271.371 125.495 272.292C125.679 272.674 125.495 273.126 125.651 273.512C126.03 274.35 126.496 274.339 127.33 274.729L129.201 275.601C129.498 275.766 129.828 275.864 130.167 275.89C130.664 275.89 131.269 275.789 131.557 275.372C131.828 274.86 132.042 274.32 132.197 273.762C132.937 271.545 132.948 269.824 132.892 267.898C132.797 265.981 132.228 264.116 131.238 262.472C130.247 260.827 128.866 259.452 127.216 258.471C126.934 259.43 125.905 259.166 125.175 259.295C122.888 259.701 120.872 259.955 118.57 260.209C117.402 260.334 116.234 260.588 115.063 260.675C113.311 260.803 114.183 261.339 114.761 262.427Z" fill="#03BF6E"/>
<path d="M120.006 258.944C120.006 258.944 132.068 275.309 121.153 286.517" stroke="#1100A5" stroke-width="0.8" stroke-linejoin="round"/>
<path d="M114.006 273.762C114.006 273.762 116.641 265.044 122.429 263.007" stroke="#1100A5" stroke-width="0.8" stroke-linejoin="round"/>
<path d="M116.676 275.747C116.676 275.747 118.087 268.486 123.35 264.943" stroke="#1100A5" stroke-width="0.8" stroke-linejoin="round"/>
<path d="M125.495 272.167C125.495 272.167 129.976 275.528 130.014 278.108" stroke="#1100A5" stroke-width="0.8" stroke-linejoin="round"/>
<path d="M125.012 269.761C125.012 269.761 130.063 271.454 131.776 274.826" stroke="#1100A5" stroke-width="0.8" stroke-linejoin="round"/>
<path d="M110.878 260.835C110.878 260.835 105.962 268.239 114.006 273.762C122.05 279.286 123.044 283.496 121.063 286.078C119.081 288.661 132.711 280.089 132.913 269.702C133.115 259.315 125.589 257.789 125.589 257.789L110.878 260.835Z" stroke="#1100A5" stroke-width="0.8" stroke-linejoin="round"/>
<path d="M88.8629 268.284C88.5813 268.284 79.3208 268.461 84.8479 260.473C90.375 252.485 100.755 249.909 100.755 249.909C100.755 249.909 97.7375 246.45 99.6007 246.005C101.464 245.56 103.153 249.04 103.153 249.04C103.153 249.04 119.797 240.697 126.207 247.622C132.617 254.546 127.028 256.597 127.028 256.597C127.028 256.597 127.49 258.092 126.85 259.069C126.85 259.069 116.377 260.577 109.543 261.377C109.543 261.36 97.9148 268.663 88.8629 268.284Z" fill="#FF532B"/>
<path d="M117.263 244.869C117.263 244.869 122.895 252.516 120.013 255.683C120.013 255.683 121.911 259.27 120.503 259.955L126.868 259.051C127.107 258.689 127.248 258.271 127.279 257.839C127.31 257.406 127.23 256.972 127.045 256.58C127.045 256.58 129.896 255.77 129.131 251.908C129.131 251.908 126.767 245.383 120.611 244.983L117.263 244.869Z" fill="#0139F2"/>
<path d="M99.9485 245.967C99.9485 245.967 99.5557 247.114 102.486 249.28C102.545 249.315 102.612 249.336 102.68 249.342C102.749 249.348 102.818 249.338 102.882 249.313C102.946 249.288 103.004 249.249 103.051 249.199C103.098 249.149 103.133 249.088 103.154 249.023C103.352 248.512 103.154 248.88 103.154 248.88C103.154 248.88 101.937 246.582 99.9485 245.967Z" fill="#0139F2"/>
<path d="M88.8629 268.284C88.5813 268.284 79.3208 268.461 84.8479 260.473C90.375 252.485 100.755 249.909 100.755 249.909C100.755 249.909 97.7375 246.45 99.6007 246.005C101.464 245.56 103.153 249.04 103.153 249.04C103.153 249.04 119.797 240.697 126.207 247.622C132.617 254.546 127.028 256.597 127.028 256.597C127.028 256.597 127.49 258.092 126.85 259.069C126.85 259.069 116.377 260.577 109.543 261.377C109.543 261.36 97.9148 268.663 88.8629 268.284Z" stroke="#1100A5" stroke-width="0.8" stroke-linejoin="round"/>
<path d="M89.7984 273.658C89.4322 274.627 89.3704 275.684 89.6211 276.689C89.7515 277.189 90.0186 277.643 90.3925 278C90.7665 278.357 91.2324 278.602 91.7381 278.709C92.1971 278.755 92.6606 278.728 93.1112 278.629C93.8968 278.494 94.7276 278.316 95.2942 277.757C96.2119 276.86 96.0868 275.323 95.6001 274.148C95.1134 272.973 94.3278 271.882 94.088 270.623C93.4345 267.175 90.1669 272.539 89.7984 273.658Z" fill="#9969E5"/>
<path d="M88.6304 282.279C88.2339 282.519 87.8975 282.846 87.6466 283.235C87.5227 283.43 87.4404 283.649 87.4051 283.877C87.3698 284.106 87.3822 284.339 87.4415 284.563C87.5145 284.788 87.6328 284.997 87.7891 285.175C88.2148 285.631 88.7934 285.916 89.4149 285.974C90.0365 286.032 90.6578 285.861 91.161 285.491C91.5251 285.178 91.8352 284.807 92.0787 284.393C92.5584 283.663 94.2479 281.664 92.7392 281.316C91.4495 281.021 89.6732 281.584 88.6304 282.279Z" fill="#9969E5"/>
<path d="M84.2221 263.709C83.9927 264.22 83.7667 264.797 83.951 265.326C84.2047 266.045 85.0738 266.313 85.8281 266.424C90.1094 267.047 94.4637 265.959 97.9495 263.397C98.1828 263.255 98.3681 263.047 98.4814 262.799C98.5064 262.736 98.5187 262.67 98.5175 262.603C98.5163 262.536 98.5017 262.47 98.4745 262.408C98.4472 262.347 98.408 262.292 98.359 262.246C98.31 262.2 98.2523 262.165 98.1893 262.142C95.4745 261.561 92.6275 263.039 89.9126 262.451C89.706 262.42 89.5122 262.332 89.3529 262.197C89.2444 262.056 89.174 261.889 89.1485 261.712C89.1229 261.536 89.143 261.356 89.2069 261.189C89.711 259.284 91.8453 258.203 92.5128 256.347C92.9577 255.102 90.8929 255.603 90.4271 255.961C89.5938 256.566 88.7953 257.217 88.0355 257.911C86.353 259.528 85.1746 261.606 84.2221 263.709Z" fill="#FF613D"/>
<defs>
<filter id="filter0_d_491_158" x="0" y="0.341797" width="473" height="410.674" filterUnits="userSpaceOnUse" color-interpolation-filters="sRGB">
<feFlood flood-opacity="0" result="BackgroundImageFix"/>
<feColorMatrix in="SourceAlpha" type="matrix" values="0 0 0 0 0 0 0 0 0 0 0 0 0 0 0 0 0 0 127 0" result="hardAlpha"/>
<feOffset dx="14.0003" dy="18.6671"/>
<feComposite in2="hardAlpha" operator="out"/>
<feColorMatrix type="matrix" values="0 0 0 0 0 0 0 0 0 0 0 0 0 0 0 0 0 0 1 0"/>
<feBlend mode="normal" in2="BackgroundImageFix" result="effect1_dropShadow_491_158"/>
<feBlend mode="normal" in="SourceGraphic" in2="effect1_dropShadow_491_158" result="shape"/>
</filter>
</defs>
</svg>
