<svg width="268" height="423" viewBox="0 0 268 423" fill="none" xmlns="http://www.w3.org/2000/svg">
<g filter="url(#filter0_d_1_9630)">
<rect width="253.721" height="408.7" rx="30" transform="matrix(0.999998 -0.0021022 0.00190243 0.999998 2 2.53339)" fill="white"/>
<rect x="-0.607618" y="-0.60519" width="254.934" height="409.913" rx="30.6065" transform="matrix(0.999998 -0.0021022 0.00190243 0.999998 2.00115 2.53211)" stroke="black" stroke-width="1.21293"/>
</g>
<rect x="-0.607618" y="-0.60519" width="197.282" height="319.079" rx="20.6065" transform="matrix(0.999998 -0.0021022 0.00190243 0.999998 31.0178 66.4109)" fill="#023AEC" stroke="black" stroke-width="1.21293"/>
<rect x="39.2897" y="89.5133" width="84.5696" height="85.8471" rx="18.65" fill="white" stroke="black" stroke-width="1.02658"/>
<rect x="46.7486" y="101.978" width="69.6504" height="60.9961" rx="18.65" fill="#864AE5" stroke="black" stroke-width="1.02658"/>
<path d="M105.594 145.833C105.594 145.833 108.696 152.454 113.792 152.087C115.961 151.93 117.728 150.692 118.427 148.613C118.61 148.066 118.721 147.497 118.756 146.921C118.789 146.167 118.723 145.412 118.562 144.675C118.477 144.241 118.375 143.499 119.061 143.677C119.81 143.861 119.827 144.518 120.097 145.104C120.321 144.907 120.493 144.652 120.716 144.45C121.06 144.136 121.18 143.702 121.399 143.312C121.527 143.085 121.876 142.369 122.24 142.531C122.792 142.781 122.49 143.816 122.24 144.246C122.419 144.32 122.593 144.403 122.762 144.495C122.762 144.495 123.261 143.118 123.651 143.147C124.04 143.177 124.447 143.761 123.651 145.047C123.833 145.152 123.989 145.296 124.11 145.469C124.11 145.469 124.761 144.687 125.071 144.917C125.38 145.147 125.52 145.284 124.784 146.594C124.047 147.904 121.844 154.865 114.95 156.198C108.057 157.531 105.202 148.431 105.202 148.431C105.202 148.431 105.574 145.998 105.594 145.833Z" fill="#F6FF7F"/>
<path d="M61.8441 162.47C61.8441 162.47 43.0208 133.331 74.0386 114.463C74.0386 114.463 80.1957 110.989 81.496 107.6C82.7963 104.21 89.9618 112.177 90.7305 115.863C90.7305 115.863 117.131 130.339 100.085 162.47H61.8441Z" fill="#FFEC4E"/>
<path d="M90.6084 110.308C87.4811 110.368 84.8805 112.352 84.8805 112.352C81.2466 117.715 82.4221 125.33 82.4221 125.33C83.7998 123.583 84.9953 124.319 84.9953 124.319C83.066 127.813 84.9953 132.498 84.9953 132.498C85.7303 131.499 86.5957 130.602 87.5685 129.832C86.373 134.06 89.5901 135.53 89.5901 135.53C89.6824 134.153 90.5584 132.223 90.5584 132.223C93.1815 132.683 95.9319 138.323 95.9319 138.323C98.6773 134.579 98.5076 128.447 98.5076 128.447C100.055 129.635 102.548 130.017 102.548 130.017C102.177 127.768 101.195 125.664 99.7105 123.935C99.9601 123.96 100.195 123.98 100.417 123.992C100.417 123.992 95.9244 114.65 93.5284 112.322C91.1325 109.993 90.6084 110.308 90.6084 110.308Z" fill="#0139F2"/>
<mask id="mask0_1_9630" style="mask-type:alpha" maskUnits="userSpaceOnUse" x="49" y="137" width="23" height="23">
<rect x="49.1199" y="137.385" width="21.9384" height="21.9384" rx="9.37552" fill="#C4C4C4"/>
</mask>
<g mask="url(#mask0_1_9630)">
<path d="M56.4209 147.033C56.4209 147.033 49.3628 151.209 48.4343 162.477H53.6755C53.6755 162.477 52.2529 155.08 57.0074 150.305C57.0149 150.305 56.7403 148.716 56.4209 147.033Z" fill="#F6FF7F"/>
<path d="M56.4209 147.033C56.4209 147.033 49.3628 151.209 48.4343 162.477H53.6755C53.6755 162.477 52.2529 155.08 57.0074 150.305C57.0149 150.305 56.7403 148.716 56.4209 147.033Z" stroke="#1100A5" stroke-width="0.547511" stroke-miterlimit="10"/>
</g>
<path d="M65.2063 143.851C65.2063 143.851 68.8627 140.412 71.3285 144.318" stroke="#0000E2" stroke-width="0.547511" stroke-linecap="round" stroke-linejoin="round"/>
<path d="M66.4165 143.01L65.7776 142.139" stroke="#0000E2" stroke-width="0.547511" stroke-linecap="round" stroke-linejoin="round"/>
<path d="M68.9375 142.498L69.0773 141.335" stroke="#0000E2" stroke-width="0.547511" stroke-linecap="round" stroke-linejoin="round"/>
<path d="M70.6667 143.464L71.5727 142.651" stroke="#0000E2" stroke-width="0.547511" stroke-linecap="round" stroke-linejoin="round"/>
<path d="M97.9013 144.5C97.9013 144.5 94.2425 141.061 91.7766 144.969" stroke="#0000E2" stroke-width="0.547511" stroke-linecap="round" stroke-linejoin="round"/>
<path d="M96.6882 143.647L97.3272 142.778" stroke="#0000E2" stroke-width="0.547511" stroke-linecap="round" stroke-linejoin="round"/>
<path d="M94.1674 143.135L94.0276 141.972" stroke="#0000E2" stroke-width="0.547511" stroke-linecap="round" stroke-linejoin="round"/>
<path d="M92.4377 144.101L91.5317 143.29" stroke="#0000E2" stroke-width="0.547511" stroke-linecap="round" stroke-linejoin="round"/>
<path d="M82.1553 147.947C79.3699 147.947 77.1886 146.33 77.1637 146.305C77.0467 146.205 76.9721 146.065 76.9553 145.912C76.9385 145.76 76.9806 145.606 77.0732 145.484C77.1657 145.361 77.3016 145.279 77.453 145.253C77.6044 145.228 77.7598 145.261 77.8874 145.346C78.0572 145.476 82.1128 148.456 85.8865 145.361C85.9456 145.299 86.0172 145.251 86.0965 145.219C86.1759 145.186 86.2612 145.172 86.3468 145.175C86.4323 145.179 86.5161 145.201 86.5925 145.239C86.669 145.278 86.7363 145.332 86.79 145.399C86.8438 145.465 86.8827 145.543 86.9041 145.625C86.9256 145.708 86.9291 145.795 86.9144 145.879C86.8998 145.964 86.8673 146.044 86.8191 146.115C86.771 146.185 86.7083 146.245 86.6352 146.29C85.386 147.356 83.798 147.944 82.1553 147.947Z" fill="#F69538"/>
<path d="M77.5176 145.82C77.5176 145.82 82.0599 149.262 86.2529 145.82" stroke="#0000E2" stroke-width="0.547511" stroke-linecap="round" stroke-linejoin="round"/>
<path d="M82.1553 147.947C79.3699 147.947 77.1886 146.33 77.1637 146.305C77.0467 146.205 76.9721 146.065 76.9553 145.912C76.9385 145.76 76.9806 145.606 77.0732 145.484C77.1657 145.361 77.3016 145.279 77.453 145.253C77.6044 145.228 77.7598 145.261 77.8874 145.346V145.346C78.0572 145.476 82.1128 148.456 85.8865 145.361C85.9456 145.299 86.0172 145.251 86.0965 145.219C86.1759 145.186 86.2612 145.172 86.3468 145.175C86.4323 145.179 86.5161 145.201 86.5925 145.239C86.669 145.278 86.7363 145.332 86.79 145.399C86.8438 145.465 86.8827 145.543 86.9041 145.625C86.9256 145.708 86.9291 145.795 86.9144 145.879C86.8998 145.964 86.8673 146.044 86.8191 146.115C86.771 146.185 86.7083 146.245 86.6352 146.29C85.386 147.356 83.798 147.944 82.1553 147.947V147.947Z" stroke="#0000E2" stroke-width="0.547511" stroke-miterlimit="10"/>
<path d="M106.719 151.676C106.794 151.708 107.161 149.327 108.294 149.572C108.294 149.572 106.17 147.271 105.593 145.828C105.593 145.828 105.391 147.655 105.169 148.618C105.169 148.623 106.492 151.573 106.719 151.676Z" fill="#0139F2"/>
<path d="M105.594 145.833C105.594 145.833 108.696 152.454 113.792 152.087C115.961 151.93 117.728 150.692 118.427 148.613C118.61 148.066 118.721 147.497 118.756 146.921C118.789 146.167 118.723 145.412 118.562 144.675C118.477 144.241 118.375 143.499 119.061 143.677C119.81 143.861 119.827 144.518 120.097 145.104C120.321 144.907 120.493 144.652 120.716 144.45C121.06 144.136 121.18 143.702 121.399 143.312C121.527 143.085 121.876 142.369 122.24 142.531C122.792 142.781 122.49 143.816 122.24 144.246C122.419 144.32 122.593 144.403 122.762 144.495C122.762 144.495 123.261 143.118 123.651 143.147C124.04 143.177 124.447 143.761 123.651 145.047C123.833 145.152 123.989 145.296 124.11 145.469C124.11 145.469 124.761 144.687 125.071 144.917C125.38 145.147 125.52 145.284 124.784 146.594C124.047 147.904 121.844 154.865 114.95 156.198C108.057 157.531 105.202 148.431 105.202 148.431C105.202 148.431 105.574 145.998 105.594 145.833Z" stroke="#1100A5" stroke-width="0.547511" stroke-miterlimit="10"/>
<path d="M78.7608 113.734C78.2616 113.817 57.3518 126.815 61.5572 133.701C65.7627 140.587 78.7608 113.734 78.7608 113.734Z" fill="#FFEC9D"/>
<path d="M101.762 128.06C101.894 127.741 110.667 143.075 97.9011 162.472H100.085C100.085 162.472 104.48 153.967 105.169 148.618C105.169 148.618 107.874 137.682 101.762 127.052V128.06Z" fill="#0139F2"/>
<path d="M61.8441 162.47C61.8441 162.47 43.0208 133.331 74.0386 114.463C74.0386 114.463 80.1957 110.989 81.496 107.6C82.7963 104.21 89.9618 112.177 90.7305 115.863C90.7305 115.863 117.131 130.339 100.085 162.47H61.8441Z" stroke="#1100A5" stroke-width="0.547511" stroke-miterlimit="10"/>
<path d="M81.9604 106.981C81.9604 106.981 82.6193 98.3054 80.4055 95.0883C80.4055 95.0883 81.591 93.6182 83.1509 94.4469C83.1509 94.4469 84.4188 98.4027 84.2341 100.587C84.221 100.747 84.1976 100.906 84.1642 101.063C84.1642 101.063 88.5743 100.235 90.4037 106.025C90.4037 106.025 97.664 106.117 102.536 114.663C101.293 114.825 100.035 114.825 98.7921 114.663C98.7921 114.663 102.91 116.961 104.38 120.453C103.435 120.57 102.478 120.57 101.532 120.453C103.021 122.18 104.007 124.282 104.383 126.53C104.383 126.53 101.887 126.149 100.342 124.961C100.342 124.961 100.524 131.105 97.7663 134.836C97.7663 134.836 95.0209 129.193 92.3953 128.734C92.3953 128.734 91.5168 130.666 91.4245 132.044C91.4245 132.044 88.2099 130.574 89.4029 126.346C88.43 127.115 87.5646 128.012 86.8297 129.011C86.8297 129.011 84.9005 124.324 86.8297 120.832C86.8297 120.832 85.6367 120.096 84.2565 121.843C84.2565 121.843 82.1426 112.267 88.2099 106.991C88.2099 106.991 88.5768 104.198 84.5336 103.187L84.1118 107.812C83.7114 107.887 83.2978 107.849 82.9177 107.703C82.5377 107.556 82.2061 107.306 81.9604 106.981Z" fill="#32FF81" stroke="#1100A5" stroke-width="0.547511" stroke-miterlimit="10"/>
<path d="M89.6997 106.699C89.6997 106.699 99.8701 122.21 97.7861 134.826" stroke="#1100A5" stroke-width="0.547511" stroke-miterlimit="10"/>
<path d="M95.061 117.363C95.061 117.363 98.0161 117.239 101.55 120.453" stroke="#1100A5" stroke-width="0.547511" stroke-miterlimit="10"/>
<path d="M93.1987 113.076C95.2368 113.216 97.2201 113.798 99.0115 114.78" stroke="#1100A5" stroke-width="0.547511" stroke-miterlimit="10"/>
<path d="M94.1345 129.668C94.172 129.7 95.7543 126.98 97.711 126.842" stroke="#1100A5" stroke-width="0.547511" stroke-miterlimit="10"/>
<path d="M95.66 131.36C95.6425 131.337 96.4087 129.171 97.9661 128.936" stroke="#1100A5" stroke-width="0.547511" stroke-miterlimit="10"/>
<rect x="133.829" y="89.7948" width="85.2083" height="85.8471" rx="18.65" fill="white" stroke="black" stroke-width="1.02658"/>
<rect x="141.226" y="102.259" width="69.6504" height="60.9961" rx="18.65" fill="#FF532B" stroke="black" stroke-width="1.02658"/>
<path d="M176.874 105.467C176.874 105.467 160.595 105.599 153.052 116.583C145.51 127.568 156.891 162.748 156.891 162.748H196.728C197.21 161.06 197.641 159.357 198.061 157.655C199.066 153.57 199.947 149.456 200.702 145.315C201.648 140.294 202.292 135.221 202.63 130.123C202.889 125.603 202.926 120.901 201.814 116.48C201.295 114.406 200.518 112.734 198.872 111.374C197.754 110.468 196.536 109.694 195.243 109.064C190.528 106.711 185.135 105.832 179.933 105.557C178.917 105.504 177.897 105.474 176.874 105.467Z" fill="#FF9A06"/>
<path d="M162.666 143.093C163.652 143.093 164.452 142.294 164.452 141.307C164.452 140.321 163.652 139.522 162.666 139.522C161.679 139.522 160.88 140.321 160.88 141.307C160.88 142.294 161.679 143.093 162.666 143.093Z" fill="#1100A5"/>
<path d="M191.402 143.093C192.389 143.093 193.188 142.294 193.188 141.307C193.188 140.321 192.389 139.522 191.402 139.522C190.416 139.522 189.616 140.321 189.616 141.307C189.616 142.294 190.416 143.093 191.402 143.093Z" fill="#1100A5"/>
<path d="M198.672 156.659C198.672 156.659 198.978 156.418 199.672 156.659" stroke="#1100A5" stroke-width="0.547511" stroke-linecap="round" stroke-linejoin="round"/>
<path d="M183.025 141.657C183.241 141.656 183.456 141.685 183.665 141.743C183.967 141.827 184.241 141.99 184.459 142.215C184.677 142.44 184.831 142.719 184.906 143.023C185.033 143.702 184.518 144.356 184.015 144.755C182.006 146.349 179.378 146.989 176.757 146.989C175.076 146.984 173.404 146.738 171.791 146.261C171.549 146.19 171.315 146.094 171.091 145.976C170.415 145.602 169.985 144.998 170.267 144.096C170.359 143.744 170.583 143.441 170.892 143.249C171.1 143.138 171.333 143.083 171.568 143.088C172.087 143.088 172.665 143.303 173.124 143.412C174.523 143.739 175.976 143.763 177.385 143.482C178.87 143.187 180.122 142.427 181.532 141.953C182.007 141.776 182.507 141.676 183.014 141.657H183.025ZM183.014 140.621C182.395 140.639 181.782 140.756 181.2 140.968C180.612 141.168 180.062 141.403 179.531 141.634C178.777 141.994 177.987 142.273 177.175 142.466C175.911 142.717 174.609 142.696 173.354 142.404C173.245 142.378 173.121 142.344 172.989 142.308C172.523 142.156 172.039 142.069 171.55 142.049C171.141 142.044 170.737 142.143 170.376 142.337C169.83 142.656 169.43 143.176 169.259 143.785C168.862 145.053 169.355 146.211 170.576 146.88C170.862 147.035 171.165 147.16 171.478 147.251C173.186 147.759 174.957 148.02 176.739 148.028C179.886 148.028 182.62 147.178 184.645 145.571C185.616 144.794 186.088 143.778 185.912 142.837C185.8 142.346 185.559 141.894 185.212 141.529C184.865 141.165 184.427 140.9 183.942 140.763C183.64 140.677 183.326 140.634 183.012 140.636L183.014 140.621Z" fill="#FF1F00"/>
<path d="M171.086 145.975C170.41 145.602 169.98 144.998 170.262 144.096C170.354 143.744 170.578 143.441 170.887 143.249C171.563 142.876 172.442 143.249 173.131 143.412C174.531 143.739 175.983 143.762 177.392 143.482C178.88 143.187 180.129 142.427 181.539 141.953C182.206 141.727 182.968 141.541 183.662 141.743C183.964 141.827 184.238 141.99 184.456 142.215C184.674 142.44 184.829 142.719 184.904 143.023C185.031 143.702 184.515 144.356 184.012 144.755C180.692 147.391 175.677 147.414 171.784 146.261C171.542 146.189 171.309 146.094 171.086 145.975Z" fill="#C74536"/>
<path d="M172.877 144.521C172.69 144.508 172.506 144.464 172.333 144.389C172.312 144.381 172.294 144.369 172.278 144.354C172.262 144.338 172.25 144.319 172.242 144.299C172.141 144.068 172.276 143.578 172.369 143.316L173.378 143.513C173.396 143.951 173.334 144.249 173.191 144.402C173.15 144.443 173.101 144.475 173.047 144.495C172.993 144.516 172.935 144.525 172.877 144.521Z" fill="white"/>
<path d="M172.455 143.467L173.251 143.619C173.251 144.068 173.157 144.244 173.095 144.312C173.068 144.341 173.034 144.363 172.996 144.377C172.958 144.391 172.918 144.396 172.878 144.392C172.705 144.377 172.537 144.336 172.377 144.27C172.37 144.264 172.365 144.256 172.362 144.247C172.324 143.984 172.356 143.716 172.455 143.469V143.467ZM172.287 143.171C172.287 143.171 171.815 144.337 172.287 144.514C172.474 144.595 172.674 144.642 172.878 144.654C173.243 144.654 173.567 144.41 173.502 143.407L172.287 143.171Z" fill="#1100A5"/>
<path d="M183.025 141.657C183.241 141.656 183.457 141.685 183.665 141.743C183.967 141.827 184.241 141.99 184.459 142.215C184.677 142.44 184.832 142.719 184.906 143.023C185.033 143.702 184.518 144.356 184.015 144.755C182.006 146.349 179.378 146.989 176.758 146.989C175.076 146.983 173.404 146.738 171.791 146.261C171.55 146.19 171.316 146.094 171.094 145.976C170.415 145.602 169.985 144.998 170.267 144.096C170.359 143.744 170.583 143.441 170.892 143.249C171.1 143.138 171.333 143.083 171.569 143.088C172.087 143.088 172.665 143.303 173.124 143.412C174.523 143.739 175.976 143.763 177.385 143.482C178.873 143.187 180.122 142.427 181.532 141.953C182.007 141.776 182.508 141.676 183.014 141.657H183.025ZM183.014 140.621C182.395 140.639 181.782 140.756 181.2 140.968C180.612 141.168 180.062 141.403 179.531 141.634C178.777 141.994 177.987 142.273 177.175 142.466C175.911 142.717 174.609 142.696 173.354 142.404C173.246 142.378 173.121 142.344 172.989 142.308C172.524 142.156 172.04 142.069 171.55 142.049C171.141 142.044 170.737 142.143 170.376 142.337C169.83 142.656 169.43 143.176 169.259 143.785C168.865 145.053 169.355 146.211 170.576 146.88C170.863 147.035 171.165 147.16 171.478 147.251C173.186 147.759 174.958 148.02 176.739 148.028C179.886 148.028 182.62 147.178 184.645 145.571C185.617 144.794 186.088 143.778 185.915 142.837C185.802 142.346 185.56 141.895 185.213 141.53C184.866 141.165 184.427 140.9 183.942 140.763C183.64 140.677 183.326 140.634 183.012 140.636L183.014 140.621Z" stroke="#1100A5" stroke-width="0.547511" stroke-miterlimit="10"/>
<path d="M172.323 146.408C173.829 145.327 175.601 144.677 177.449 144.528C179.296 144.378 181.15 144.735 182.81 145.561C181.308 146.332 179.669 146.8 177.986 146.94C175.252 147.147 172.323 146.408 172.323 146.408Z" fill="#A62D21" stroke="#1100A5" stroke-width="0.547511" stroke-miterlimit="10"/>
<path d="M198.672 156.659C198.672 156.659 199.392 156.436 199.872 156.659" stroke="#1100A5" stroke-width="0.547511" stroke-linecap="round" stroke-linejoin="round"/>
<path d="M188.722 107.258C188.722 107.258 201.497 110.765 200.904 123.867C200.31 136.969 193.818 162.88 193.818 162.88H196.728C196.728 162.88 200.505 149.003 200.899 144.343C200.899 144.343 202.303 136.012 202.399 133.335C202.495 130.657 204.434 115.026 198.232 111.008C198.232 111.008 194.701 108.173 188.771 106.882C188.771 106.895 189.069 107.009 188.722 107.258Z" fill="#0139F2"/>
<path d="M176.874 105.599C176.874 105.599 160.597 105.731 153.052 116.716C145.507 127.7 156.891 162.88 156.891 162.88H196.728C197.21 161.195 197.641 159.492 198.061 157.789C199.066 153.705 199.947 149.591 200.702 145.449C201.648 140.429 202.292 135.356 202.63 130.258C202.889 125.735 202.926 121.036 201.814 116.614C201.295 114.541 200.518 112.869 198.872 111.508C197.754 110.602 196.537 109.827 195.243 109.196C190.529 106.846 185.135 105.967 179.933 105.69C178.917 105.639 177.897 105.609 176.874 105.599Z" stroke="#1100A5" stroke-width="0.547511" stroke-miterlimit="10"/>
<path d="M201.344 141.668C201.344 141.668 212.49 149.213 210.89 156.229C209.291 163.245 200.17 160.464 200.17 160.464C200.17 160.464 197.654 161.457 196.928 160.529C196.202 159.601 199.639 158.611 199.639 158.611C199.639 158.611 196.415 159.42 198.672 156.667C198.672 156.667 195.495 155.226 195.694 153.738C195.894 152.251 198.2 154.879 199.639 154.928C200.757 154.935 201.858 155.201 202.856 155.706C202.856 155.706 210.647 155.928 200.899 144.353L201.344 141.668Z" fill="#FF8100"/>
<path d="M202.811 146.763C202.811 146.763 202.962 144.122 204.854 144.431L201.409 141.665L200.857 144.283L202.811 146.763Z" fill="#0139F2"/>
<path d="M201.344 141.668C201.344 141.668 212.49 149.213 210.89 156.229C209.291 163.245 200.17 160.464 200.17 160.464C200.17 160.464 197.654 161.457 196.928 160.529C196.202 159.601 199.639 158.611 199.639 158.611C199.639 158.611 196.415 159.42 198.672 156.667C198.672 156.667 195.495 155.226 195.694 153.738C195.894 152.251 198.2 154.879 199.639 154.928C200.757 154.935 201.858 155.201 202.856 155.706C202.856 155.706 210.647 155.928 200.899 144.353L201.344 141.668Z" stroke="#1100A5" stroke-width="0.547511" stroke-linejoin="round"/>
<path d="M182.766 100.415C182.766 100.415 186.311 100.933 187.431 103.891C187.431 103.891 189.266 105.48 188.727 107.26C188.188 109.041 171.753 110.63 171.753 110.63C171.753 110.63 167.087 123.138 157.093 118.571C147.099 114.004 149.683 99.7775 161.395 91.3072C173.108 82.8368 182.766 100.415 182.766 100.415Z" fill="#7981BD"/>
<path d="M178.427 104.987C179.039 105.246 179.176 106.091 178.945 106.719C178.715 107.346 178.256 107.851 177.947 108.44C177.878 108.549 177.845 108.676 177.851 108.805C177.878 108.924 177.945 109.029 178.041 109.103C178.502 109.497 179.197 109.386 179.79 109.251L186.117 107.807C186.667 107.719 187.196 107.524 187.672 107.234C188.128 106.916 188.45 106.358 188.349 105.817C188.206 105.135 187.478 104.762 187.107 104.173C186.674 103.492 186.69 102.476 185.811 102.139C185.088 101.859 184.36 102.439 183.738 102.745C182.862 103.169 181.975 103.569 181.078 103.948C180.648 104.127 178.826 105.158 178.427 104.987Z" fill="#585E8A"/>
<path d="M169.666 106.667C169.456 107.014 169.13 107.276 168.746 107.405C168.154 107.671 167.541 107.889 166.913 108.056C167.173 108.852 167.377 109.829 166.799 110.428C166.715 110.493 166.654 110.584 166.626 110.687C166.62 110.777 166.641 110.867 166.685 110.946C166.913 111.493 166.83 112.118 166.709 112.701C166.413 114.133 165.918 115.517 165.239 116.811C165.076 117.128 164.931 117.589 165.239 117.781C165.355 117.831 165.481 117.857 165.607 117.857C165.734 117.857 165.859 117.831 165.975 117.781C167.105 117.262 167.875 116.467 168.689 115.531C169.421 114.705 170.065 113.805 170.609 112.846C171.229 111.791 171.905 110.163 171.887 108.94C171.869 107.717 171.33 106.472 170.332 105.754C170.127 105.607 169.479 105.236 169.378 105.622C169.298 105.913 169.886 106.192 169.666 106.667Z" fill="#585E8A"/>
<path d="M171.74 110.632C171.74 110.632 172.997 105 168.396 105.467C163.796 105.933 164.902 107.468 166.014 107.39" stroke="#1100A5" stroke-width="0.547511" stroke-miterlimit="10" stroke-linecap="round"/>
<path d="M182.766 100.415C182.766 100.415 186.311 100.933 187.431 103.891C187.431 103.891 189.266 105.48 188.727 107.26C188.188 109.041 171.753 110.63 171.753 110.63C171.753 110.63 167.087 123.138 157.093 118.571C147.099 114.004 149.683 99.7775 161.395 91.3072C173.108 82.8368 182.766 100.415 182.766 100.415Z" stroke="#1100A5" stroke-width="0.547511" stroke-miterlimit="10"/>
<path d="M161.722 92.4995C161.323 92.699 158.13 94.4512 154.574 100.705C151.018 106.96 152.788 111.825 154.177 112.221C155.566 112.618 159.273 111.962 158.412 104.676C157.904 100.342 159.09 95.9797 161.722 92.4995Z" fill="#8A93D4"/>
<path d="M151.99 143.091C151.99 143.091 135.847 155.633 142 160.716C148.154 165.798 159.737 158.466 160.001 158.334C160.266 158.202 162.681 156.745 162.663 155.786C162.645 154.827 159.703 156.149 159.703 156.149C159.703 156.149 160.398 154.197 158.446 154.197C158.446 154.197 160.828 150.623 160.1 150.128C159.371 149.633 156.759 152.953 156.759 152.953C156.759 152.953 156.5 152.074 155.94 152.372C155.38 152.67 154.628 153.65 154.644 154.384C154.659 155.117 152.093 156.4 152.093 156.4C152.093 156.4 138.823 161.428 152.56 146.056L151.99 143.091Z" fill="#FF8100"/>
<path d="M151.99 143.091C151.99 143.091 135.847 155.633 142 160.716C148.154 165.798 159.737 158.466 160.001 158.334C160.266 158.202 162.681 156.745 162.663 155.786C162.645 154.827 159.703 156.149 159.703 156.149C159.703 156.149 160.398 154.197 158.446 154.197C158.446 154.197 160.828 150.623 160.1 150.128C159.371 149.633 156.759 152.953 156.759 152.953C156.759 152.953 156.5 152.074 155.94 152.372C155.38 152.67 154.628 153.65 154.644 154.384C154.659 155.117 152.093 156.4 152.093 156.4C152.093 156.4 138.823 161.428 152.56 146.056L151.99 143.091Z" stroke="#1100A5" stroke-width="0.547511" stroke-linejoin="round"/>
<rect x="38.5133" y="182.533" width="84.5696" height="85.8471" rx="18.65" fill="white" stroke="black" stroke-width="1.02658"/>
<rect x="46.3212" y="194.998" width="69.6504" height="60.9961" rx="18.65" fill="#A2FF5C" stroke="black" stroke-width="1.02658"/>
<path d="M68.2107 255.811C69.9803 252.293 71.7603 248.841 71.7813 248.801C71.8424 248.675 71.9302 248.565 72.0385 248.476C72.1469 248.388 72.2732 248.324 72.4087 248.29C72.5442 248.255 72.6856 248.251 72.823 248.276C72.9604 248.302 73.0906 248.358 73.2043 248.439C73.4501 248.609 73.6275 248.86 73.7049 249.149C73.7823 249.438 73.7547 249.744 73.627 250.014C73.6086 250.048 72.2145 252.75 70.6708 255.79" fill="#FF724F"/>
<path d="M92.2468 255.693C92.6329 254.029 93.1598 252.4 93.8221 250.825C95.5707 246.625 94.2921 245.325 94.2816 245.312C94.2937 245.325 94.3068 245.336 94.3209 245.346L95.4735 243.508C95.7623 243.734 98.2355 245.9 95.736 251.884C95.2049 253.158 94.7662 254.469 94.4233 255.806" fill="#FF724F"/>
<path d="M71.4057 249.841C70.815 250.991 69.6336 253.296 68.4285 255.693H70.8912C71.8547 253.79 72.729 252.065 73.2304 251.104" stroke="#1100A5" stroke-width="0.547511" stroke-miterlimit="10"/>
<path d="M94.8173 246.533C94.9118 247.383 94.7884 248.751 93.9246 250.82C93.2622 252.398 92.7353 254.029 92.3494 255.696H94.5652C94.8978 254.395 95.326 253.121 95.8465 251.884C97.8392 247.1 96.6551 244.753 95.9541 243.894" stroke="#1100A5" stroke-width="0.547511" stroke-miterlimit="10"/>
<path d="M61.0697 234.017C61.0697 234.017 57.6408 241.311 52.0407 240.906C49.6489 240.733 47.7035 239.371 46.9342 237.079C46.7336 236.476 46.6118 235.851 46.5719 235.217C46.5358 234.39 46.6073 233.561 46.7845 232.752C46.879 232.274 46.9946 231.455 46.2306 231.641C45.4035 231.846 45.3878 232.571 45.0911 233.216C44.8286 232.999 44.6553 232.72 44.4085 232.497C44.0304 232.153 43.8834 231.681 43.655 231.245C43.5158 230.982 43.1299 230.195 42.7282 230.384C42.1217 230.646 42.5076 231.728 42.7781 232.2C42.7781 232.2 42.1033 232.555 41.9353 232.657C41.9353 232.657 41.0742 231.303 40.6226 231.345C40.171 231.387 40.0424 231.914 40.9193 233.332C40.8178 233.416 40.7294 233.514 40.6567 233.623C40.6567 233.623 39.8874 232.859 39.6065 233.017C39.2311 233.219 39.1129 233.421 39.9216 234.855C40.7302 236.288 43.1614 243.963 50.7516 245.43C58.3418 246.898 62.1593 236.456 62.1593 236.456C62.1593 236.456 61.0959 234.206 61.0697 234.017Z" fill="#FF724F"/>
<path d="M67.7329 198.453C67.7329 198.453 63.6162 198.125 60.8174 200.758C58.0187 203.391 54.8891 204.216 52.7494 203.887C50.6096 203.559 61.97 212.289 67.7329 205.862C73.4958 199.435 74.8217 203.336 74.8217 203.336C74.8217 203.336 70.8835 209.485 83.2232 217.716C83.2232 217.716 88.3271 206.027 83.2232 202.735C83.2232 202.735 93.5964 209.65 101.339 196.959C101.339 196.959 97.8811 198.605 95.2478 196.959C95.2478 196.959 89.9969 191.466 82.2412 197.783C82.2412 197.783 85.04 195.478 84.2156 189.382C84.2156 189.382 81.0886 181.316 78.1245 179.339C78.1245 179.339 78.3556 184.774 76.9247 186.914L75.7983 189.728C75.7983 189.728 73.824 196.079 75.9637 199.243C75.3094 199.133 74.6411 199.133 73.9868 199.243C73.165 199.443 76.1291 193.186 65.5853 185.942C65.5853 185.942 66.2443 190.222 66.0789 192.199C65.9135 194.176 65.2624 196.807 67.7329 198.453Z" fill="#77FF89"/>
<path d="M96.9752 202.079C99.5455 204.132 101.638 207.608 103.155 213.436C107.435 229.901 95.0875 254.267 82.9027 255.748C70.7179 257.229 56.8896 231.219 57.3858 217.884C57.5302 213.985 59.3601 210.795 61.8832 208.222C61.8832 208.222 65.144 208.351 66.7324 206.786L69.2476 204.308C69.2476 204.308 73.1858 200.298 74.811 203.336C74.811 203.336 70.9699 209.637 83.3175 217.716C83.3175 217.716 87.5182 206.883 83.8268 203.092C86.2806 204.338 89.0511 204.822 91.782 204.481C91.782 204.481 95.3342 203.614 96.9752 202.079Z" fill="#FF454F" stroke="#1100A5" stroke-width="0.547511" stroke-miterlimit="10"/>
<path d="M72.0125 188.41C72.0125 188.41 72.1962 185.992 74.0813 185.942L77.6966 196.597L75.9743 197.993C75.9743 197.993 76.7698 194.656 72.0125 188.41Z" fill="#77FF89"/>
<path d="M80.2223 237.425C80.2223 237.425 78.5762 236.055 80.6976 235.608C80.6976 235.608 84.2787 236.162 86.4079 234.821C86.4079 234.821 87.739 234.246 87.9701 235.663C87.9701 235.663 88.1565 236.635 85.6203 237.291C85.6203 237.302 81.4195 238.223 80.2223 237.425Z" fill="#77FF89"/>
<path d="M73.8633 185.961C73.8633 185.961 74.2545 187.274 73.459 187.738C73.459 187.738 77.4786 196.699 77.6965 200.251L82.404 197.626C82.404 197.626 80.2301 198.623 78.3765 198.001L74.7796 188.271L74.0812 185.95L73.8633 185.961Z" fill="#0139F2"/>
<path d="M78.2979 179.494C78.2979 179.494 86.7781 197.379 78.7626 198.537L81.8921 197.954C81.8921 197.954 85.2422 195.562 84.1946 189.398C84.1999 189.398 81.2174 181.429 78.2979 179.494Z" fill="#0139F2"/>
<path d="M74.1337 205.849C73.0835 206.182 71.6028 207.161 69.5917 209.406C66.8638 212.446 62.8784 212.089 59.6648 210.908L61.8571 208.219C61.8571 208.219 65.5327 208.663 68.594 204.953C68.594 204.953 72.9496 199.792 74.8111 203.336" fill="#0139F2"/>
<path d="M83.2075 202.735C87.4083 205.962 84.5623 213.654 84.3313 214.549C84.1002 215.445 83.3178 217.713 83.3178 217.713L83.0421 217.619C80.9418 216.182 77.5444 213.003 77.5444 213.003C78.6209 215.324 80.9575 218.188 85.7149 221.357C85.7149 221.357 90.8188 209.669 85.7149 206.376C85.7149 206.376 92.8036 211.769 99.811 205.429L96.9755 202.076C91.3491 206.476 86.5314 204.336 84.5938 203.281L83.2075 202.735Z" fill="#0139F2"/>
<path opacity="0.7" d="M63.5769 229.273L69.2479 237.995C69.2479 237.995 73.4776 237.149 73.9738 233.836L65.5198 227.288C65.5198 227.288 65.1889 227.288 63.5769 229.273Z" fill="#77D9F2"/>
<path opacity="0.7" d="M92.0237 228.945L98.2014 238.032C98.2014 238.032 101.877 236.556 102.384 233.243L94.4785 227.139C94.4785 227.139 92.5698 227.947 92.0237 228.945Z" fill="#77D9F2"/>
<path d="M70.505 232.266C70.5118 231.914 70.4136 231.568 70.2229 231.272C70.0322 230.976 69.7577 230.744 69.4344 230.604C69.1111 230.465 68.7536 230.425 68.4075 230.49C68.0614 230.555 67.7425 230.721 67.4913 230.968C67.2401 231.214 67.0681 231.53 66.9972 231.875C66.9263 232.22 66.9598 232.578 67.0933 232.904C67.2267 233.23 67.4542 233.508 67.7467 233.704C68.0391 233.9 68.3834 234.005 68.7354 234.004C68.9657 234.006 69.1942 233.963 69.4078 233.877C69.6214 233.79 69.8159 233.663 69.9802 233.502C70.1445 233.34 70.2754 233.148 70.3655 232.936C70.4555 232.724 70.5029 232.496 70.505 232.266Z" fill="#110059"/>
<path d="M98.0018 232.374C98.0086 232.022 97.9104 231.676 97.7197 231.38C97.529 231.084 97.2545 230.851 96.9312 230.712C96.6079 230.573 96.2504 230.533 95.9043 230.598C95.5583 230.662 95.2393 230.829 94.9881 231.075C94.737 231.322 94.565 231.638 94.4941 231.983C94.4232 232.328 94.4566 232.686 94.5901 233.012C94.7236 233.337 94.951 233.616 95.2435 233.812C95.536 234.008 95.8802 234.112 96.2322 234.112C96.4626 234.114 96.6911 234.071 96.9046 233.984C97.1182 233.898 97.3127 233.771 97.477 233.609C97.6414 233.448 97.7723 233.256 97.8623 233.044C97.9523 232.832 97.9997 232.604 98.0018 232.374Z" fill="#110059"/>
<path opacity="0.2" d="M96.4711 238.252C99.6191 238.252 102.171 235.7 102.171 232.552C102.171 229.404 99.6191 226.852 96.4711 226.852C93.3232 226.852 90.7712 229.404 90.7712 232.552C90.7712 235.7 93.3232 238.252 96.4711 238.252Z" fill="#CFD9F2" stroke="#1100A5" stroke-width="0.547511" stroke-miterlimit="10"/>
<path d="M65.5906 185.942C65.5906 185.942 68.279 189.917 68.7936 191.981C69.3082 194.045 70.3689 199.017 73.9868 199.256" stroke="#1100A5" stroke-width="0.547511" stroke-miterlimit="10"/>
<path d="M100.929 197.132C100.929 197.132 96.9073 201.49 94.3895 199.233C91.8717 196.975 86.92 195.294 77.6968 200.241C77.6968 200.241 82.9477 209.616 83.2103 217.705" stroke="#1100A5" stroke-width="0.547511" stroke-linecap="round" stroke-linejoin="round"/>
<path d="M84.1973 189.4L79.9939 190.66" stroke="#1100A5" stroke-width="0.547511" stroke-miterlimit="10"/>
<path d="M79.9939 192.301L84.3312 192.202" stroke="#1100A5" stroke-width="0.547511" stroke-miterlimit="10"/>
<path d="M76.9038 186.93L79.6842 187.544" stroke="#1100A5" stroke-width="0.547511" stroke-miterlimit="10"/>
<path d="M77.7175 185.16L79.3506 185.667" stroke="#1100A5" stroke-width="0.547511" stroke-miterlimit="10"/>
<path d="M68.7964 191.968L66.1106 191.695" stroke="#1100A5" stroke-width="0.547511" stroke-miterlimit="10"/>
<path d="M69.518 194.567C69.518 194.567 66.5723 195.255 65.8896 194.402" stroke="#1100A5" stroke-width="0.547511" stroke-miterlimit="10"/>
<path d="M61.6577 204.623C61.6577 204.623 62.5399 207.004 61.6577 208.212" stroke="#1100A5" stroke-width="0.547511" stroke-miterlimit="10"/>
<path d="M63.9182 203.74C64.248 204.404 64.4307 205.13 64.4538 205.871C64.4769 206.611 64.3399 207.348 64.0521 208.03" stroke="#1100A5" stroke-width="0.547511" stroke-miterlimit="10"/>
<path d="M77.3 212.433L81.1962 208.212" stroke="#1100A5" stroke-width="0.547511" stroke-miterlimit="10"/>
<path d="M78.5342 214.024L81.6322 209.516" stroke="#1100A5" stroke-width="0.547511" stroke-miterlimit="10"/>
<path d="M87.9753 197.051C87.9753 197.051 90.5483 201.931 88.679 204.665" stroke="#1100A5" stroke-width="0.547511" stroke-miterlimit="10"/>
<path d="M90.7634 197.35C90.7634 197.35 93.1579 202.338 92.0919 204.384" stroke="#1100A5" stroke-width="0.547511" stroke-miterlimit="10"/>
<path d="M61.0697 234.017C61.0697 234.017 57.6408 241.311 52.0407 240.906C49.6489 240.733 47.7035 239.371 46.9342 237.079C46.7336 236.476 46.6118 235.851 46.5719 235.217C46.5358 234.39 46.6073 233.561 46.7845 232.752C46.879 232.274 46.9946 231.455 46.2306 231.641C45.4035 231.846 45.3878 232.571 45.0911 233.216C44.8286 232.999 44.6553 232.72 44.4085 232.497C44.0304 232.153 43.8834 231.681 43.655 231.245C43.5158 230.982 43.1299 230.195 42.7282 230.384C42.1217 230.646 42.5076 231.728 42.7781 232.2C42.7781 232.2 42.1033 232.555 41.9353 232.657C41.9353 232.657 41.0742 231.303 40.6226 231.345C40.171 231.387 40.0424 231.914 40.9193 233.332C40.8178 233.416 40.7294 233.514 40.6567 233.623C40.6567 233.623 39.8874 232.859 39.6065 233.017C39.2311 233.219 39.1129 233.421 39.9216 234.855C40.7302 236.288 43.1614 243.963 50.7516 245.43C58.3418 246.898 62.1593 236.456 62.1593 236.456C62.1593 236.456 61.0959 234.206 61.0697 234.017Z" stroke="#1100A5" stroke-width="0.547511" stroke-linejoin="round"/>
<path d="M96.9755 202.079C96.5297 202.437 96.0585 202.762 95.5657 203.053C95.5657 203.053 105.046 209.971 101.604 230.027C102.078 230.926 102.236 231.959 102.053 232.959C102.053 232.959 102.975 229.459 103.025 229.284C103.074 229.108 107.225 215.505 98.9 204.063C98.9026 204.053 97.4691 202.302 96.9755 202.079Z" fill="#0139F2"/>
<path opacity="0.2" d="M68.4023 237.966C71.5502 237.966 74.1022 235.414 74.1022 232.266C74.1022 229.118 71.5502 226.566 68.4023 226.566C65.2543 226.566 62.7024 229.118 62.7024 232.266C62.7024 235.414 65.2543 237.966 68.4023 237.966Z" fill="#CFD9F2" stroke="#1100A5" stroke-width="0.547511" stroke-miterlimit="10"/>
<path d="M96.9493 202.079C99.5197 204.129 101.612 207.592 103.13 213.436C107.409 229.901 95.0616 254.265 82.8795 255.748C73.9371 256.835 64.11 243.115 59.7071 230.465C58.1135 225.878 57.2287 221.431 57.36 217.881C57.5044 213.982 59.3343 210.792 61.8574 208.219" stroke="#1100A5" stroke-width="0.547511" stroke-miterlimit="10"/>
<path d="M78.1613 179.534C78.1823 179.83 78.1272 180.403 78.1272 180.492C78.1272 181.28 78.0852 182.067 78.0248 182.855C77.8253 185.31 76.7121 187.473 75.8089 189.726C75.8089 189.726 75.6987 190.083 75.5464 190.674" stroke="#1100A5" stroke-width="0.547511" stroke-linejoin="round"/>
<path d="M78.106 179.36C78.1389 179.411 78.1546 179.471 78.1506 179.531" stroke="#1100A5" stroke-width="0.547511" stroke-linejoin="round"/>
<path d="M83.2074 202.735C83.2176 202.743 83.2292 202.749 83.2415 202.753C83.7666 203.089 90.4458 207.167 96.9491 202.079C98.4404 200.91 99.9237 199.259 101.318 196.972C101.221 197.135 100.609 197.235 100.444 197.3C99.726 197.531 98.9808 197.665 98.2277 197.699C95.6022 197.799 94.0269 195.623 91.601 195.008C88.9755 194.344 86.2792 195.103 84.0213 196.502C83.3948 196.895 82.7932 197.326 82.2202 197.794C84.2445 196.145 84.6698 192.858 84.3547 190.442C84.0475 188.08 82.5904 185.622 81.4221 183.572C80.5715 182.073 79.5843 180.348 78.1035 179.371" stroke="#1100A5" stroke-width="0.547511" stroke-linejoin="round"/>
<path d="M75.0683 193.409C74.853 195.37 74.9134 197.691 75.9636 199.243C75.3101 199.133 74.6427 199.133 73.9892 199.243C73.1648 199.443 76.129 193.186 65.5877 185.94C65.5877 185.94 66.2467 190.222 66.084 192.196C65.9212 194.171 65.2596 196.807 67.7301 198.453C67.7301 198.453 63.6134 198.125 60.8147 200.758C58.0159 203.391 54.8863 204.216 52.7466 203.887C51.2186 203.651 56.5719 208.03 61.8543 208.219C63.9731 208.296 66.0813 207.694 67.7301 205.857C73.4904 199.437 74.8189 203.328 74.8189 203.328C74.8189 203.328 70.8807 209.48 83.2204 217.71C83.2204 217.71 88.3033 206.072 83.2545 202.745" stroke="#1100A5" stroke-width="0.547511" stroke-linejoin="round"/>
<path d="M80.6738 236.593C80.6738 236.593 84.2208 237.252 86.9749 235.674" stroke="#1100A5" stroke-width="0.547511" stroke-miterlimit="10" stroke-linecap="round"/>
<path d="M82.4616 237.719C81.8021 237.724 81.1434 237.673 80.4925 237.567C80.2349 237.52 80.0066 237.372 79.8579 237.156C79.7092 236.94 79.6523 236.675 79.6996 236.417C79.747 236.159 79.8947 235.931 80.1104 235.782C80.3261 235.634 80.5919 235.577 80.8496 235.624C81.384 235.704 81.9238 235.743 82.4642 235.74C83.6089 235.74 85.1737 235.572 86.4917 234.815C86.6043 234.751 86.7284 234.709 86.8571 234.693C86.9858 234.676 87.1165 234.685 87.2416 234.719C87.3668 234.753 87.4841 234.812 87.5867 234.891C87.6894 234.97 87.7754 235.069 87.8399 235.182C87.9043 235.294 87.946 235.418 87.9625 235.547C87.979 235.676 87.97 235.806 87.936 235.932C87.9019 236.057 87.8436 236.174 87.7643 236.277C87.685 236.379 87.5862 236.465 87.4736 236.53C85.7749 237.499 83.8584 237.719 82.4616 237.719Z" stroke="#1100A5" stroke-width="0.547511" stroke-miterlimit="10"/>
<path d="M59.7092 230.465L62.8152 231.413" stroke="#1100A5" stroke-width="0.547511" stroke-miterlimit="10" stroke-linecap="round"/>
<path d="M74.1995 232.266C74.1891 231.136 73.8446 230.035 73.2094 229.101C72.5743 228.166 71.6768 227.441 70.6301 227.016C69.5834 226.591 68.4343 226.485 67.3275 226.712C66.2207 226.938 65.2058 227.487 64.4106 228.29C63.6154 229.092 63.0755 230.112 62.8589 231.221C62.6423 232.33 62.7586 233.478 63.1933 234.521C63.628 235.564 64.3616 236.454 65.3017 237.081C66.2417 237.708 67.3462 238.042 68.4759 238.042C70.0004 238.034 71.4594 237.421 72.5324 236.338C73.6055 235.255 74.2051 233.791 74.1995 232.266V232.266Z" stroke="#1100A5" stroke-width="0.547511" stroke-miterlimit="10"/>
<path d="M74.1997 232.027H78.5737C78.5737 232.027 82.4489 225.671 86.9752 232.266H90.7953" stroke="#1100A5" stroke-width="0.547511" stroke-miterlimit="10"/>
<path d="M78.1614 179.534C78.5893 181.154 81.6795 193.449 78.7731 198.537C77.9513 197.668 76.594 193.874 75.5569 190.676C74.722 188.119 74.0919 185.95 74.0919 185.95C72.3722 185.95 72.023 188.421 72.023 188.421C73.2367 189.956 74.2626 191.631 75.0791 193.409C76.7646 197.242 75.9744 199.243 75.9744 199.243L75.9927 200.726C75.5977 200.628 75.197 200.555 74.7929 200.506V200.506C69.5761 199.831 65.3176 203.026 65.3176 203.026C57.4412 207.458 52.76 203.887 52.76 203.887" stroke="#1100A5" stroke-width="0.547511" stroke-linecap="round" stroke-linejoin="round"/>
<path d="M78.106 179.36C78.106 179.379 78.1269 179.434 78.1506 179.531" stroke="#1100A5" stroke-width="0.547511" stroke-linecap="round" stroke-linejoin="round"/>
<path d="M93.7673 253.146C93.7673 253.146 94.3896 253.06 95.8336 252.76C97.2776 252.461 98.8712 256.3 101.489 255.089C104.106 253.879 100.678 246.911 99.8689 245.567C99.0603 244.222 98.5221 244.391 98.5221 244.391L96.0751 244.858C96.0751 244.858 95.0853 244.832 94.7624 245.325C94.5546 245.634 94.2657 245.879 93.9275 246.034L92.5071 246.325L92.4205 246.341L90.9843 246.546C90.6138 246.515 90.2591 246.381 89.9604 246.16C89.4983 245.803 88.5768 246.16 88.5768 246.16L86.1141 246.546C86.1141 246.546 85.5522 246.57 85.2424 248.121C84.9326 249.673 84.0636 257.373 86.9359 257.631C89.8081 257.888 90.0103 253.735 91.4727 253.53C92.935 253.325 93.5468 253.196 93.5468 253.196L93.7673 253.146Z" fill="#110059"/>
<path d="M86.6703 246.423L86.5417 245.601C86.5417 245.601 86.4393 245.191 86.9276 245.115C87.4159 245.039 88.4399 244.832 88.4399 244.832C88.4399 244.832 89.0043 244.601 89.0542 245.32L89.1829 245.96L86.6703 246.423Z" fill="#FF9A06"/>
<path d="M93.7673 253.146C93.7673 253.146 94.3896 253.06 95.8336 252.76C97.2776 252.461 98.8712 256.3 101.489 255.089C104.106 253.879 100.678 246.911 99.8689 245.567C99.0603 244.222 98.5221 244.391 98.5221 244.391L96.0751 244.858C96.0751 244.858 95.0853 244.832 94.7624 245.325C94.5546 245.634 94.2657 245.879 93.9275 246.034L92.5071 246.325L92.4205 246.341L90.9843 246.546C90.6138 246.515 90.2591 246.381 89.9604 246.16C89.4983 245.803 88.5768 246.16 88.5768 246.16L86.1141 246.546C86.1141 246.546 85.5522 246.57 85.2424 248.121C84.9326 249.673 84.0636 257.373 86.9359 257.631C89.8081 257.888 90.0103 253.735 91.4727 253.53C92.935 253.325 93.5468 253.196 93.5468 253.196L93.7673 253.146Z" stroke="#1100A5" stroke-width="0.547511" stroke-miterlimit="10"/>
<path d="M95.4391 244.958L95.3104 244.136C95.3104 244.136 95.2081 243.726 95.6964 243.65C96.1848 243.574 97.2087 243.369 97.2087 243.369C97.2087 243.369 97.7705 243.138 97.823 243.855L97.9517 244.495L95.4391 244.958Z" fill="#FF9A06"/>
<path d="M86.6703 246.423L86.5417 245.601C86.5417 245.601 86.4393 245.191 86.9276 245.115C87.4159 245.039 88.4399 244.832 88.4399 244.832C88.4399 244.832 89.0043 244.601 89.0542 245.32L89.1829 245.96L86.6703 246.423Z" stroke="#1100A5" stroke-width="0.547511" stroke-miterlimit="10"/>
<path d="M95.4391 244.958L95.3104 244.136C95.3104 244.136 95.2081 243.726 95.6964 243.65C96.1848 243.574 97.2087 243.369 97.2087 243.369C97.2087 243.369 97.7705 243.138 97.823 243.855L97.9517 244.495L95.4391 244.958Z" stroke="#1100A5" stroke-width="0.547511" stroke-miterlimit="10"/>
<path d="M104.978 240.064C105.697 241.052 106.337 242.096 106.891 243.185C107.582 244.574 108.309 246.362 107.753 247.911C107.259 249.287 105.652 250.025 104.263 249.838C103.373 249.72 102.903 248.922 102.163 248.463C101.761 248.199 101.329 247.985 100.877 247.825C100.588 247.568 100.281 247.333 99.9576 247.121C99.5717 246.858 99.1096 246.538 98.6449 246.759C98.5828 246.784 98.5297 246.827 98.4926 246.883C98.4556 246.938 98.4364 247.004 98.4375 247.071C98.4463 247.139 98.4746 247.203 98.5189 247.255C98.7105 247.517 99.023 247.643 99.275 247.843C99.6752 248.222 100.008 248.665 100.26 249.156L100.065 249.912C100.065 249.912 99.6951 249.571 98.1802 250.085C97.7181 250.243 97.0827 250.689 97.2193 251.267C97.3899 251.991 98.1933 251.29 98.5451 251.141C99.2068 250.862 99.9865 251.188 100.456 251.666C100.484 251.687 100.503 251.718 100.509 251.752C100.509 251.807 100.462 251.849 100.417 251.876C100.186 252.001 99.9479 252.112 99.703 252.206C99.3223 252.38 98.8051 252.569 98.6528 252.994C98.6214 253.079 98.6214 253.172 98.6528 253.257C98.6844 253.315 98.7286 253.366 98.7821 253.406C98.8357 253.445 98.8973 253.472 98.9626 253.485C99.3313 253.547 99.7098 253.511 100.06 253.38C100.433 253.286 100.8 253.167 101.157 253.026C101.281 252.976 101.717 253.154 101.851 253.183C102.153 253.246 102.452 253.299 102.756 253.343C103.481 253.454 104.213 253.511 104.946 253.511C106.566 253.511 108.251 253.188 109.593 252.23C112.891 249.867 112.41 245.233 110.706 242.049C109.703 240.226 108.445 238.555 106.97 237.086C106.235 236.336 105.458 235.624 104.66 234.939C103.909 234.296 103.085 233.453 102.221 232.991C101.861 233.778 101.819 234.894 101.662 235.753C101.633 235.91 102.334 236.595 102.449 236.74C102.743 237.107 103.035 237.48 103.326 237.85C103.891 238.596 104.445 239.321 104.978 240.064Z" fill="#FF724F"/>
<path d="M103.628 238.399C103.628 238.399 103.862 235.603 105.857 235.989L102.284 232.959L101.625 235.719L103.628 238.399Z" fill="#0139F2"/>
<path d="M104.978 240.064C105.697 241.052 106.337 242.096 106.891 243.185C107.582 244.574 108.309 246.362 107.753 247.911C107.259 249.287 105.652 250.025 104.263 249.838C103.373 249.72 102.903 248.922 102.163 248.463C101.761 248.199 101.329 247.985 100.877 247.825C100.588 247.568 100.281 247.333 99.9576 247.121C99.5717 246.858 99.1096 246.538 98.6449 246.759C98.5828 246.784 98.5297 246.827 98.4926 246.883C98.4556 246.938 98.4364 247.004 98.4375 247.071C98.4463 247.139 98.4746 247.203 98.5189 247.255C98.7105 247.517 99.023 247.643 99.275 247.843C99.6752 248.222 100.008 248.665 100.26 249.156C100.26 249.156 100.065 249.912 100.065 249.912C100.065 249.912 99.6951 249.571 98.1802 250.085C97.7181 250.243 97.0827 250.689 97.2193 251.267C97.3899 251.991 98.1933 251.29 98.5451 251.141C99.2068 250.862 99.9865 251.188 100.456 251.666C100.484 251.687 100.503 251.718 100.509 251.752C100.509 251.807 100.462 251.849 100.417 251.876C100.186 252.001 99.9479 252.112 99.703 252.206C99.3223 252.38 98.8051 252.569 98.6528 252.994C98.6214 253.079 98.6214 253.172 98.6528 253.257C98.6844 253.315 98.7286 253.366 98.7821 253.406C98.8357 253.445 98.8973 253.472 98.9626 253.485C99.3313 253.547 99.7098 253.511 100.06 253.38C100.433 253.286 100.8 253.167 101.157 253.026C101.281 252.976 101.717 253.154 101.851 253.183C102.153 253.246 102.452 253.299 102.756 253.343C103.481 253.454 104.213 253.511 104.946 253.511C106.566 253.511 108.251 253.188 109.593 252.23C112.891 249.867 112.41 245.233 110.706 242.049C109.703 240.226 108.445 238.555 106.97 237.086C106.235 236.336 105.458 235.624 104.66 234.939C103.909 234.296 103.085 233.453 102.221 232.991C101.861 233.778 101.819 234.894 101.662 235.753C101.633 235.91 102.334 236.595 102.449 236.74C102.743 237.107 103.035 237.48 103.326 237.85C103.891 238.596 104.445 239.321 104.978 240.064Z" stroke="#1100A5" stroke-width="0.547511" stroke-linejoin="round"/>
<path d="M102.108 232.374C102.098 231.244 101.753 230.143 101.118 229.208C100.483 228.274 99.5855 227.549 98.5388 227.124C97.4921 226.698 96.343 226.592 95.2362 226.819C94.1294 227.046 93.1145 227.595 92.3193 228.398C91.5241 229.2 90.9842 230.22 90.7676 231.329C90.551 232.438 90.6673 233.586 91.102 234.629C91.5367 235.671 92.2703 236.562 93.2104 237.189C94.1504 237.815 95.2549 238.15 96.3847 238.15C97.9094 238.142 99.3687 237.529 100.442 236.446C101.515 235.363 102.114 233.898 102.108 232.374V232.374Z" stroke="#1100A5" stroke-width="0.547511" stroke-miterlimit="10"/>
<rect x="132.959" y="179.853" width="84.5696" height="85.8471" rx="18.65" fill="white" stroke="black" stroke-width="1.02658"/>
<rect x="140.418" y="192.172" width="69.6504" height="60.9961" rx="18.65" fill="#FCFF3F" stroke="black" stroke-width="1.02658"/>
<path d="M194.583 227.963C194.583 227.963 207.39 233.37 212.446 222.069C213.033 220.578 213.253 218.968 213.086 217.374C212.808 214.746 211.658 213.457 213.139 214.017C213.593 214.349 213.916 214.83 214.052 215.375C214.052 215.375 215.28 211.547 216.026 211.742C216.773 211.937 216.026 213.83 216.026 213.83C216.026 213.83 216.505 213.777 216.667 213.936C216.667 213.936 217.438 211.965 218.025 212.071C218.613 212.176 218.399 213.351 217.839 214.337C217.839 214.337 218.323 214.615 218.373 214.763C218.373 214.763 219.117 213.165 219.679 213.19C220.896 213.248 218.321 218.984 218.062 219.543C216.464 223.037 215.038 235.892 196.005 231.139C196.005 231.139 196.142 230.179 194.583 227.963Z" fill="#04FF93"/>
<path d="M199.065 231.78C199.11 231.78 199.399 229.642 200.324 229.221C200.324 229.221 196.704 228.865 194.583 227.963C194.583 227.963 195.788 229.725 196.005 231.14C196.005 231.14 198.478 231.916 199.065 231.78Z" fill="#0139F2"/>
<path d="M165.204 205.647C164.75 206.552 157.313 205.433 157.313 209.484C157.313 213.535 158.06 212.046 158.06 212.046C158.06 212.046 150.915 217.483 156.353 221.748C156.353 221.748 150.963 221.96 154.126 229.53C154.126 229.53 151.859 236.354 155.593 237.955C155.593 237.955 147.801 245.384 154.839 252.152C154.839 252.152 196.647 252.299 197.283 252.299C197.283 252.299 202.724 242.861 194.499 236.569C194.499 236.569 199.831 230.694 191.715 225.262C191.715 225.262 194.808 220.788 188.41 215.671C188.41 215.671 191.609 207.992 182.224 203.515C172.838 199.038 174.868 203.726 174.548 203.515C174.227 203.303 168.614 198.823 165.204 205.647Z" fill="#864AE5"/>
<path d="M186.109 223.883C186.974 223.707 187.559 222.998 187.417 222.3C187.275 221.603 186.458 221.18 185.593 221.357C184.728 221.533 184.142 222.242 184.285 222.94C184.427 223.637 185.244 224.06 186.109 223.883Z" fill="#1100A5"/>
<path d="M168.846 211.439L169.898 212.045L168.846 211.439Z" fill="#0000E2"/>
<path d="M194.583 227.963C194.583 227.963 207.39 233.37 212.446 222.069C213.033 220.578 213.253 218.968 213.086 217.374C212.808 214.746 211.658 213.457 213.139 214.017C213.593 214.349 213.916 214.83 214.052 215.375C214.052 215.375 215.28 211.547 216.026 211.742C216.773 211.937 216.026 213.83 216.026 213.83C216.026 213.83 216.505 213.777 216.667 213.936C216.667 213.936 217.438 211.965 218.025 212.071C218.613 212.176 218.399 213.351 217.839 214.337C217.839 214.337 218.323 214.615 218.373 214.763C218.373 214.763 219.117 213.165 219.679 213.19C220.896 213.248 218.321 218.984 218.062 219.543C216.464 223.037 215.038 235.892 196.005 231.139C196.005 231.139 196.142 230.179 194.583 227.963Z" stroke="#1100A5" stroke-width="0.547511" stroke-linejoin="round"/>
<path d="M164.257 227.35C164.398 226.653 163.812 225.945 162.947 225.77C162.081 225.595 161.266 226.018 161.124 226.716C160.983 227.414 161.57 228.121 162.435 228.297C163.3 228.472 164.116 228.048 164.257 227.35Z" fill="#1100A5"/>
<path d="M173.946 227.776C173.091 227.768 172.244 227.613 171.441 227.32H171.418C171.19 227.258 170.991 227.115 170.86 226.918C170.729 226.721 170.674 226.483 170.706 226.248C170.737 226.013 170.853 225.798 171.032 225.643C171.211 225.487 171.44 225.403 171.677 225.404C171.819 225.407 171.959 225.436 172.089 225.49C173.147 225.863 175.132 226.264 176.505 224.736C176.682 224.559 176.92 224.457 177.17 224.451C177.42 224.444 177.663 224.534 177.849 224.701C178.035 224.869 178.15 225.101 178.17 225.35C178.189 225.6 178.113 225.847 177.956 226.042C177.451 226.601 176.831 227.046 176.14 227.345C175.448 227.644 174.7 227.791 173.946 227.776Z" fill="#04FF93"/>
<path d="M171.68 226.37C171.758 226.37 175.021 227.826 177.248 225.379" stroke="#1100A5" stroke-width="0.547511" stroke-linecap="round" stroke-linejoin="round"/>
<path d="M173.946 227.776C173.091 227.768 172.244 227.613 171.441 227.32H171.418C171.19 227.258 170.991 227.115 170.86 226.918C170.729 226.721 170.674 226.483 170.706 226.248C170.737 226.013 170.853 225.798 171.032 225.643C171.211 225.487 171.44 225.403 171.677 225.404C171.819 225.407 171.959 225.436 172.089 225.49C173.147 225.863 175.132 226.264 176.505 224.736C176.682 224.559 176.92 224.457 177.17 224.451C177.42 224.444 177.663 224.534 177.849 224.701C178.035 224.869 178.15 225.101 178.17 225.35C178.189 225.6 178.113 225.847 177.956 226.042C177.451 226.601 176.831 227.046 176.14 227.345C175.448 227.644 174.7 227.791 173.946 227.776V227.776Z" stroke="#1100A5" stroke-width="0.547511" stroke-miterlimit="10"/>
<path d="M189.46 216.712L188.435 218.814C188.435 218.814 191.659 222.433 189.46 225.694C189.46 225.694 197.517 230.029 191.902 237.421C191.902 237.421 199.792 246.166 192.542 252.28L197.128 252.299C197.128 252.299 201.176 246.052 197.437 239.965C197.437 239.965 195.385 237.245 194.355 236.569C194.355 236.569 196.548 233.801 196.072 232.181C196.072 232.181 196.05 230.276 195.315 229.118C195.315 229.118 193.945 226.295 191.938 225.549L191.581 225.27C191.581 225.27 192.297 224.288 192.172 223.823C192.046 223.358 192.954 221.776 191.428 219.22C191.431 219.212 189.9 216.848 189.46 216.712Z" fill="#0139F2"/>
<path d="M165.031 205.647C164.577 206.552 157.141 205.433 157.141 209.484C157.141 213.535 157.887 212.046 157.887 212.046C157.887 212.046 150.743 217.483 156.18 221.748C156.18 221.748 150.793 221.96 153.967 229.53C153.967 229.53 151.703 236.354 155.434 237.955C155.434 237.955 148.078 245.531 155.114 252.299C155.114 252.299 196.727 252.7 197.127 252.299C197.127 252.299 202.565 242.861 194.343 236.569C194.343 236.569 199.675 230.694 191.559 225.262C191.559 225.262 194.652 220.788 188.254 215.671C188.254 215.671 191.453 207.992 182.071 203.515C172.688 199.038 174.712 203.726 174.392 203.515C174.072 203.303 168.442 198.823 165.031 205.647Z" stroke="#1100A5" stroke-width="0.547511" stroke-linejoin="round"/>
<path d="M153.382 235.266C153.357 235.218 153.335 235.171 153.313 235.124C152.411 233.242 152.346 232.136 152.346 232.136C151.673 230.485 151.767 228.219 152.834 227.793C153.9 227.367 153.819 228.486 153.819 228.486C153.819 228.486 152.706 230.19 153.847 231.098C154.989 232.005 154.861 231.017 154.861 231.017C154.861 231.017 153.747 228.085 154.582 227.927C154.582 227.927 155.863 227.498 155.974 230.112C155.974 230.112 158.906 232.562 158.692 234.962C158.477 237.362 158.745 241.786 154.268 249.198C149.791 256.609 143.498 248.878 147.711 242.794C151.923 236.711 152.514 236.129 152.514 236.129C152.514 236.129 153.257 235.324 153.407 235.23" fill="#04FF93"/>
<path d="M153.382 235.124C153.357 235.076 153.335 235.029 153.313 234.982C152.411 233.105 152.346 231.991 152.346 231.991C151.673 230.34 151.767 228.074 152.834 227.648C153.9 227.222 153.819 228.341 153.819 228.341C153.819 228.341 152.706 230.045 153.847 230.953C154.989 231.861 154.861 230.872 154.861 230.872C154.861 230.872 153.747 227.94 154.582 227.782C154.582 227.782 155.863 227.353 155.974 229.967C155.974 229.967 158.906 232.42 158.692 234.817C158.477 237.215 158.745 241.642 154.268 249.053C149.791 256.465 143.498 248.733 147.711 242.649C151.923 236.566 152.514 235.987 152.514 235.987C152.514 235.987 153.257 235.179 153.407 235.085" stroke="#1100A5" stroke-width="0.547511" stroke-linejoin="round"/>
<path d="M149.776 245.467C150.951 242.374 154.078 236.402 154.078 236.402C153.82 235.967 153.597 235.561 153.41 235.182" stroke="#1100A5" stroke-width="0.547511" stroke-linejoin="round"/>
<path d="M172.498 206.079C172.498 206.079 168.561 212.009 175.004 216.433C181.447 220.857 182.243 224.229 180.656 226.298C179.069 228.366 189.986 221.501 190.147 213.181C190.309 204.862 184.281 203.64 184.281 203.64L172.498 206.079Z" fill="#04FF93"/>
<path d="M175.608 207.354C175.674 207.532 175.795 207.685 175.954 207.788C176.055 207.825 176.164 207.839 176.271 207.83L177.891 207.8C177.995 207.791 178.099 207.805 178.198 207.839C178.31 207.907 178.396 208.01 178.443 208.133C178.489 208.255 178.494 208.39 178.457 208.515C178.375 208.764 178.307 209.016 178.253 209.272C178.162 210.311 179.712 210.873 179.749 211.917C180.111 211.97 180.447 212.139 180.706 212.398C180.965 212.658 181.133 212.994 181.185 213.357C181.184 213.465 181.216 213.571 181.277 213.66C181.366 213.739 181.481 213.781 181.6 213.777C182.413 213.866 183.852 214.518 184.206 215.256C184.354 215.562 184.206 215.924 184.331 216.233C184.635 216.904 185.008 216.896 185.676 217.207L187.174 217.906C187.412 218.038 187.676 218.117 187.948 218.137C188.346 218.137 188.831 218.057 189.062 217.722C189.278 217.312 189.45 216.88 189.574 216.433C190.167 214.657 190.175 213.279 190.131 211.736C190.054 210.201 189.599 208.707 188.806 207.39C188.012 206.073 186.906 204.972 185.584 204.186C185.359 204.954 184.535 204.743 183.95 204.846C182.118 205.171 180.503 205.375 178.66 205.578C177.724 205.678 176.789 205.881 175.851 205.951C174.447 206.054 175.146 206.483 175.608 207.354Z" fill="#03BF6E"/>
<path d="M179.81 204.564C179.81 204.564 189.471 217.672 180.728 226.649" stroke="#1100A5" stroke-width="0.547511" stroke-linejoin="round"/>
<path d="M175.004 216.433C175.004 216.433 177.115 209.451 181.75 207.819" stroke="#1100A5" stroke-width="0.547511" stroke-linejoin="round"/>
<path d="M177.143 218.023C177.143 218.023 178.273 212.207 182.488 209.37" stroke="#1100A5" stroke-width="0.547511" stroke-linejoin="round"/>
<path d="M184.206 215.155C184.206 215.155 187.795 217.848 187.826 219.914" stroke="#1100A5" stroke-width="0.547511" stroke-linejoin="round"/>
<path d="M183.819 213.229C183.819 213.229 187.864 214.585 189.237 217.285" stroke="#1100A5" stroke-width="0.547511" stroke-linejoin="round"/>
<path d="M172.498 206.079C172.498 206.079 168.561 212.009 175.004 216.433C181.447 220.857 182.243 224.229 180.656 226.298C179.069 228.366 189.986 221.501 190.147 213.181C190.309 204.862 184.281 203.64 184.281 203.64L172.498 206.079Z" stroke="#1100A5" stroke-width="0.547511" stroke-linejoin="round"/>
<path d="M154.866 212.046C154.64 212.046 147.223 212.188 151.65 205.789C156.077 199.391 164.391 197.328 164.391 197.328C164.391 197.328 161.974 194.558 163.466 194.202C164.959 193.845 166.312 196.632 166.312 196.632C166.312 196.632 179.642 189.95 184.777 195.496C189.911 201.042 185.434 202.685 185.434 202.685C185.434 202.685 185.804 203.882 185.292 204.665C185.292 204.665 176.903 205.873 171.429 206.513C171.429 206.499 162.116 212.349 154.866 212.046Z" fill="#FF532B"/>
<path d="M177.613 193.291C177.613 193.291 182.123 199.416 179.815 201.953C179.815 201.953 181.336 204.826 180.208 205.375L185.306 204.651C185.497 204.36 185.61 204.026 185.635 203.679C185.66 203.333 185.596 202.986 185.448 202.671C185.448 202.671 187.731 202.022 187.118 198.929C187.118 198.929 185.225 193.703 180.294 193.383L177.613 193.291Z" fill="#0139F2"/>
<path d="M163.745 194.171C163.745 194.171 163.43 195.09 165.777 196.824C165.825 196.852 165.878 196.869 165.933 196.874C165.988 196.879 166.043 196.871 166.095 196.851C166.146 196.831 166.192 196.8 166.23 196.76C166.268 196.719 166.296 196.671 166.312 196.618C166.471 196.209 166.312 196.504 166.312 196.504C166.312 196.504 165.338 194.664 163.745 194.171Z" fill="#0139F2"/>
<path d="M154.866 212.046C154.64 212.046 147.223 212.188 151.65 205.789C156.077 199.391 164.391 197.328 164.391 197.328C164.391 197.328 161.974 194.558 163.466 194.202C164.959 193.845 166.312 196.632 166.312 196.632C166.312 196.632 179.642 189.95 184.777 195.496C189.911 201.042 185.434 202.685 185.434 202.685C185.434 202.685 185.804 203.882 185.292 204.665C185.292 204.665 176.903 205.873 171.429 206.513C171.429 206.499 162.116 212.349 154.866 212.046Z" stroke="#1100A5" stroke-width="0.547511" stroke-linejoin="round"/>
<path d="M155.615 216.35C155.322 217.126 155.272 217.973 155.473 218.778C155.578 219.178 155.792 219.542 156.091 219.828C156.391 220.113 156.764 220.31 157.169 220.395C157.537 220.432 157.908 220.411 158.269 220.331C158.898 220.223 159.563 220.081 160.017 219.632C160.752 218.914 160.652 217.684 160.262 216.742C159.872 215.801 159.243 214.927 159.051 213.919C158.528 211.157 155.91 215.453 155.615 216.35Z" fill="#9969E5"/>
<path d="M154.68 223.255C154.362 223.447 154.093 223.708 153.892 224.02C153.793 224.177 153.727 224.352 153.699 224.535C153.67 224.718 153.68 224.905 153.728 225.084C153.786 225.265 153.881 225.431 154.006 225.574C154.347 225.94 154.81 226.168 155.308 226.214C155.806 226.261 156.304 226.123 156.707 225.827C156.998 225.576 157.247 225.279 157.442 224.948C157.826 224.363 159.179 222.762 157.971 222.483C156.938 222.247 155.515 222.698 154.68 223.255Z" fill="#9969E5"/>
<path d="M151.149 208.382C150.965 208.791 150.784 209.253 150.932 209.676C151.135 210.253 151.831 210.467 152.435 210.556C155.864 211.054 159.352 210.183 162.144 208.131C162.33 208.018 162.479 207.851 162.57 207.652C162.59 207.602 162.599 207.549 162.599 207.495C162.598 207.442 162.586 207.389 162.564 207.339C162.542 207.29 162.511 207.246 162.472 207.209C162.432 207.173 162.386 207.144 162.336 207.126C160.161 206.661 157.881 207.844 155.707 207.374C155.541 207.349 155.386 207.279 155.258 207.17C155.171 207.057 155.115 206.923 155.095 206.782C155.074 206.641 155.09 206.496 155.141 206.363C155.545 204.837 157.255 203.971 157.789 202.485C158.145 201.488 156.492 201.889 156.119 202.176C155.451 202.66 154.812 203.181 154.203 203.738C152.856 205.032 151.912 206.697 151.149 208.382Z" fill="#FF613D"/>
<rect x="39.8822" y="274.601" width="85.2083" height="85.8471" rx="18.65" fill="white" stroke="black" stroke-width="1.02658"/>
<rect x="47.2787" y="286.921" width="69.6504" height="60.9961" rx="18.65" fill="#FA5E85" stroke="black" stroke-width="1.02658"/>
<path d="M108.064 334.191C110.446 340.552 113.242 338.838 113.242 338.838C113.302 338.801 113.371 338.776 113.433 338.742C114.187 338.321 114.817 337.709 115.261 336.968C115.781 336.1 116.161 335.155 116.386 334.168C116.67 332.988 116.848 331.785 116.918 330.574C117.006 329.193 117.021 327.808 116.962 326.426C116.905 324.934 116.787 323.444 116.626 321.96C116.466 320.475 116.252 318.924 116.015 317.414C115.782 315.946 115.524 314.483 115.24 313.025C114.979 311.691 114.699 310.36 114.401 309.032C114.15 307.908 113.887 306.789 113.611 305.676C113.392 304.785 113.185 303.889 112.932 303.009C112.914 302.942 112.894 302.877 112.873 302.81C112.737 302.33 112.49 301.888 112.153 301.519C111.789 301.161 111.483 300.748 111.247 300.296C111.105 300.036 111.006 299.755 110.952 299.464C110.952 299.408 110.952 299.206 110.929 299.165C110.155 298.081 109.525 297.273 109.525 297.273C109.106 296.814 108.727 296.321 108.391 295.799C108.237 295.593 108.163 295.338 108.182 295.081C108.371 293.935 109.858 295.024 110.307 295.368C110.539 295.546 111.063 296.199 111.389 296.124C112.099 295.961 109.858 291.495 111.43 292.071C112.261 292.376 112.777 293.62 113.162 294.327C113.299 294.585 113.637 295.037 113.973 294.844C114.308 294.65 114.179 293.999 114.701 293.788C115.782 293.349 116.469 294.366 116.91 295.662C117.367 296.997 117.569 298.625 117.685 299.258C125.556 341.065 115.103 343.745 115.103 343.745C111.329 345.105 108.255 342.002 106.257 338.949L108.064 334.191Z" fill="#7FFFAA"/>
<path d="M106.217 339.07C106.217 339.07 108.024 334.601 108.063 333.886C108.063 333.886 108.897 336.698 110.386 338.097C110.386 338.097 108.497 340.036 108.435 341.711C107.585 340.93 106.84 340.042 106.217 339.07Z" fill="#0139F2"/>
<path d="M106.235 338.918L106.266 338.964" stroke="#0000CA" stroke-width="0.408134" stroke-linecap="round" stroke-linejoin="round"/>
<path d="M106.267 338.964C108.265 342.018 111.34 345.121 115.114 343.76C115.114 343.76 125.556 341.081 117.695 299.273C117.577 298.641 117.375 297.012 116.921 295.677C116.48 294.387 115.793 293.354 114.711 293.803C114.195 294.015 114.327 294.668 113.983 294.859C113.64 295.05 113.309 294.601 113.173 294.343C112.788 293.628 112.272 292.391 111.44 292.086C109.868 291.511 112.109 295.977 111.399 296.139C111.074 296.214 110.55 295.561 110.317 295.383C109.868 295.04 108.381 293.95 108.193 295.096C108.173 295.353 108.248 295.608 108.402 295.814C108.737 296.337 109.116 296.83 109.535 297.288C109.535 297.288 110.168 298.096 110.94 299.18C110.973 299.227 110.952 299.423 110.963 299.48C111.016 299.771 111.116 300.051 111.257 300.311C111.493 300.764 111.799 301.177 112.163 301.535C112.501 301.903 112.747 302.345 112.883 302.825C112.904 302.893 112.925 302.957 112.943 303.024C113.201 303.905 113.402 304.8 113.622 305.691C113.897 306.808 114.16 307.927 114.412 309.047C114.709 310.374 114.989 311.705 115.251 313.04C115.535 314.5 115.793 315.963 116.025 317.429C116.263 318.939 116.472 320.455 116.637 321.975C116.802 323.496 116.916 324.949 116.973 326.441C117.032 327.824 117.017 329.208 116.929 330.589C116.859 331.801 116.681 333.003 116.397 334.183C116.172 335.17 115.792 336.115 115.271 336.984C114.828 337.725 114.198 338.336 113.444 338.757C113.382 338.791 113.312 338.817 113.253 338.853C113.253 338.853 110.457 340.559 108.074 334.206" stroke="#0000CA" stroke-width="0.408134" stroke-linecap="round" stroke-linejoin="round"/>
<path d="M111.591 298.819C111.615 298.7 112.18 297.709 112.534 296.883C112.887 296.057 113.974 296.932 113.597 298.37C113.597 298.37 114.351 300.022 113.455 301.468" stroke="#0000CA" stroke-width="0.408134" stroke-linecap="round" stroke-linejoin="round"/>
<path d="M114.168 294.614C114.168 294.614 113.84 296.782 114.739 296.751C115.637 296.72 115.255 295.272 115.635 295.272" stroke="#0000CA" stroke-width="0.408134" stroke-linecap="round" stroke-linejoin="round"/>
<path d="M106.266 338.964C106.235 338.917 107.487 336.473 108.073 334.191" stroke="#0000CA" stroke-width="0.408134" stroke-linecap="round" stroke-linejoin="round"/>
<path d="M63.7468 347.33C60.9331 344.748 58.7007 341.597 57.1975 338.086C55.6944 334.576 54.9549 330.786 55.0281 326.967C55.1014 323.149 55.9857 319.39 57.6223 315.939C59.259 312.489 61.6106 309.426 64.5213 306.953C64.5213 306.953 71.0938 300.45 79.0138 300.964C80.4569 301.057 81.8999 301.15 83.3455 301.191C84.6724 301.233 86.0381 301.091 87.3391 301.413C87.9432 301.563 88.5266 301.762 89.1178 301.963C90.3904 302.394 91.6476 302.882 92.8971 303.38C95.3495 304.359 98.1685 305.495 99.9962 307.475C104.989 312.896 108.897 319.543 108.897 327.484C108.917 331.247 108.139 334.971 106.615 338.411C105.09 341.851 102.854 344.929 100.053 347.442" fill="#A6EB71"/>
<path d="M81.9928 326.113C82.9092 326.168 83.8179 326.25 84.7008 326.348C85.5906 326.442 86.4724 326.601 87.3391 326.823C87.685 326.916 88.2142 327.002 88.493 327.252C88.8004 327.563 89.0699 327.91 89.2958 328.285L89.3707 328.377C99.7638 340.877 106.329 319.342 106.329 319.342C87.7986 316.335 88.8699 326.978 88.8699 326.978C87.6143 326.452 86.295 326.094 84.946 325.912C81.5023 325.424 77.8391 325.274 74.5142 326.457C74.5142 326.457 76.2309 315.901 57.5537 317.77C57.5537 317.77 62.7942 339.659 73.9307 327.815C73.954 327.786 73.9824 327.758 74.0108 327.727C74.2567 327.365 74.5463 327.035 74.873 326.743C75.1187 326.605 75.3886 326.516 75.6681 326.48C76.2879 326.336 76.9166 326.234 77.55 326.173C79.0269 326.033 80.5127 326.014 81.9928 326.113Z" fill="#0000CA"/>
<path d="M62.5646 317.574C62.5646 317.574 62.3271 320.617 65.11 323.212C67.8928 325.806 65.7992 331.008 65.7992 331.008C65.7992 331.008 68.0451 332.095 71.081 330.233C72.1781 329.56 72.2323 328.238 71.9664 327.105C71.7305 326.136 71.3539 325.207 70.8487 324.348C70.2523 323.315 69.1397 322.448 68.9306 321.216C68.8689 320.805 68.8947 320.386 69.0063 319.985C69.118 319.585 69.313 319.213 69.5785 318.893C69.5785 318.893 66.7957 317.574 62.5646 317.574Z" fill="#2E2ECA"/>
<path d="M92.4038 320.602C92.4038 320.602 95.3648 318.864 98.6975 318.864C98.6975 318.864 96.1031 322.621 99.3945 324.918C102.686 327.216 101.87 328.385 101.87 328.385C101.87 328.385 100.233 330.879 97.5564 331.96C97.5564 331.96 98.7646 328.682 95.4138 326.841C92.063 325.001 92.4038 320.602 92.4038 320.602Z" fill="#2E2ECA"/>
<path d="M67.4067 304.635C67.4067 304.635 74.1186 306.63 73.2409 309.904C73.2409 309.904 77.5288 304.364 81.3313 309.904C81.3313 309.904 84.171 305.497 89.6283 308.771C89.6283 308.771 93.3198 305.262 96.7171 307.268C96.7171 307.268 96.7919 305.239 98.297 305.903C98.297 305.903 89.0036 300.82 82.8519 301.176C82.8519 301.176 76.5659 300.365 73.3494 301.677C70.1328 302.988 68.3128 303.892 67.4067 304.635Z" fill="#FFFFDB"/>
<path d="M79.2408 332.273C78.4745 331.882 77.7607 331.397 77.1162 330.827C76.8328 330.563 76.6643 330.198 76.647 329.811C76.6297 329.424 76.7648 329.046 77.0235 328.758C77.2821 328.469 77.6436 328.294 78.0302 328.269C78.4168 328.244 78.7977 328.372 79.091 328.625C79.2459 328.762 82.8445 331.893 85.8029 329.423C85.9519 329.298 86.124 329.204 86.3094 329.146C86.4948 329.087 86.6899 329.066 86.8834 329.083C87.077 329.101 87.2653 329.156 87.4376 329.246C87.6099 329.336 87.7627 329.458 87.8875 329.607C88.0123 329.756 88.1064 329.929 88.1647 330.114C88.2229 330.299 88.2441 330.494 88.2269 330.688C88.2098 330.882 88.1547 331.07 88.0648 331.242C87.9749 331.414 87.8519 331.567 87.7029 331.692C84.8271 334.095 81.5564 333.463 79.2408 332.273Z" fill="#26FF7D"/>
<path d="M78.0837 329.766C78.0837 329.766 82.7305 333.943 86.7266 330.595" stroke="#0000CA" stroke-width="0.408134" stroke-linecap="round" stroke-linejoin="round"/>
<path d="M79.225 332.306C78.4576 331.916 77.7428 331.431 77.0979 330.861C76.8145 330.597 76.646 330.232 76.6287 329.845C76.6113 329.458 76.7465 329.079 77.0052 328.791C77.2638 328.503 77.6253 328.327 78.0119 328.302C78.3985 328.278 78.7794 328.406 79.0727 328.659C79.2276 328.795 82.8262 331.927 85.7846 329.456C85.9336 329.332 86.1057 329.237 86.2911 329.179C86.4765 329.121 86.6716 329.1 86.8651 329.117C87.0587 329.134 87.247 329.189 87.4193 329.279C87.5915 329.369 87.7444 329.492 87.8692 329.641C87.9939 329.79 88.0881 329.962 88.1464 330.147C88.2046 330.333 88.2258 330.528 88.2086 330.721C88.1915 330.915 88.1364 331.103 88.0465 331.276C87.9566 331.448 87.8336 331.601 87.6846 331.725C84.8088 334.124 81.5381 333.496 79.225 332.306Z" stroke="#0000CA" stroke-width="0.408134" stroke-linecap="round" stroke-linejoin="round"/>
<path d="M100.073 347.362C100.707 346.798 101.305 346.194 101.862 345.554C101.862 345.554 107.198 339.718 108.058 334.196C108.917 328.674 109.542 325.822 107.722 320.287C107.722 320.287 105.587 312.911 99.5466 307.098C93.5059 301.284 96.5934 305.626 96.5934 305.626C96.5934 305.626 109.114 315.526 107.159 328.253C106.052 335.481 102.317 342.428 97.1226 347.377" fill="#0139F2"/>
<path d="M100.074 347.362C102.836 344.84 105.042 341.77 106.55 338.347C108.057 334.924 108.834 331.224 108.83 327.484C108.83 319.544 104.919 312.886 99.9291 307.475C98.0988 305.495 95.2824 304.359 92.83 303.381C91.5805 302.883 90.3233 302.395 89.0481 301.963C88.4569 301.762 87.8735 301.563 87.2694 301.414C85.9787 301.091 84.6053 301.233 83.2784 301.192C81.8328 301.15 80.3897 301.057 78.9467 300.964C71.024 300.448 64.4515 306.954 64.4515 306.954C61.5257 309.438 59.1646 312.519 57.5264 315.99C55.8882 319.461 55.0107 323.242 54.9528 327.08C54.8948 330.917 55.6578 334.723 57.1905 338.242C58.7232 341.761 60.9902 344.912 63.8397 347.483L100.074 347.362Z" stroke="#0000CA" stroke-width="0.408134" stroke-linecap="round" stroke-linejoin="round"/>
<path d="M108.249 302.624V305.244C108.249 305.244 107.454 307.082 103.819 306.941C100.184 306.799 90.8753 304.901 89.3755 304.816" fill="#023AEC"/>
<path d="M82.0651 287.695C84.928 288.212 90.295 290.238 92.9358 298.143C92.9358 298.143 109.667 300.275 108.151 303.195C106.636 306.114 91.96 305.056 91.96 305.056C91.96 305.056 73.2003 303.249 67.2731 304.821C67.2731 304.821 62.4509 290.723 80.1806 287.525" fill="#FFA219"/>
<path d="M80.4896 288.157C80.4896 288.157 80.0172 288.514 79.3047 289.154" stroke="#0000CA" stroke-width="0.408134" stroke-miterlimit="10"/>
<path d="M77.1651 291.299C75.0999 293.623 72.8333 297.022 72.8411 300.742" stroke="#0000CA" stroke-width="0.408134" stroke-miterlimit="10" stroke-dasharray="4.79 4.79"/>
<path d="M72.9729 302.25C73.0624 302.759 73.1954 303.26 73.3704 303.747" stroke="#0000CA" stroke-width="0.408134" stroke-miterlimit="10"/>
<path d="M82.0701 288.403C82.0701 288.403 89.9772 295.373 88.782 302.185" stroke="#0000CA" stroke-width="0.408134" stroke-miterlimit="10" stroke-dasharray="4.9 4.9"/>
<path d="M92.9638 298.158C92.9638 298.158 91.4149 305.98 74.0879 303.837" stroke="#0000CA" stroke-width="0.408134" stroke-miterlimit="10" stroke-dasharray="4.9 4.9"/>
<path d="M82.0986 287.711C84.9615 288.227 90.3284 290.254 92.9693 298.158C92.9693 298.158 109.7 300.29 108.185 303.21C106.669 306.13 91.9935 305.074 91.9935 305.074C91.9935 305.074 73.2337 303.267 67.3066 304.836C67.3066 304.836 62.4843 290.739 80.2141 287.54" stroke="#0000CA" stroke-width="0.408134" stroke-linecap="round" stroke-linejoin="round"/>
<path d="M82.2638 288.439V277.511L82.3412 277.217L82.1192 277.062L82.2302 276.613C82.2302 276.613 82.0082 276.443 82.0185 276.489C82.0289 276.536 82.0624 276.006 82.0624 276.006H81.763L81.8611 275.526L81.5384 275.635L81.6055 275.118C81.6055 275.118 80.8801 273.923 79.7313 273.815C78.928 273.757 78.1208 273.783 77.3228 273.892C77.3228 273.892 76.9666 273.83 76.8994 274.667C76.8493 275.133 76.926 275.604 77.1214 276.03C77.1214 276.03 79.3519 275.797 79.7881 276.311L79.9766 276.569L79.7985 277.127L80.1108 276.925L79.9327 277.328L80.2786 277.266L79.9895 277.656H80.3561L80.1444 278.074L80.3561 278.183L80.3999 288.281L82.2638 288.439Z" fill="#FF6C98"/>
<path d="M81.9411 288.403V277.524L81.6494 277.292L81.7939 276.75L81.5668 276.587L81.6287 276.112L81.275 276.048L81.417 275.384C81.417 275.384 80.8672 273.536 77.3357 274.212" stroke="#FFE48C" stroke-width="0.408134" stroke-miterlimit="10"/>
<path d="M80.9683 288.328V278.229L80.6766 277.999L80.8212 277.457L80.4675 277.421L80.656 276.817L80.4185 276.665L80.6224 276.022C80.6224 276.022 80.0209 275.056 77.3594 275.348" stroke="#FFE48C" stroke-width="0.408134" stroke-miterlimit="10"/>
<path d="M80.5911 288.294C80.5911 288.294 80.6143 278.146 80.5911 278.146C80.4959 278.108 80.4036 278.064 80.3148 278.012L80.4852 277.586L80.2271 277.522L80.4 277.209L80.1909 277.134L80.2606 276.752L80.0025 276.822L80.1858 276.355C80.1858 276.355 79.9044 275.201 77.3306 275.614C77.3306 275.614 77.6688 274.563 77.2867 273.884C77.2867 273.884 76.7704 274.377 77.1706 275.95L77.1344 276.017C77.1344 276.017 79.1996 275.759 79.7314 276.241L79.9896 276.559L79.8114 277.119L80.1135 276.915L79.9457 277.32L80.2813 277.256L80.0076 277.638H80.3742L80.1625 278.056L80.3639 278.164L80.4181 288.263L80.5911 288.294Z" fill="#00009F"/>
<path d="M82.2638 288.439V277.514L82.3412 277.22L82.1192 277.065L82.2302 276.613C82.2302 276.613 82.0082 276.443 82.0185 276.489C82.0289 276.536 82.0624 276.009 82.0624 276.009H81.763L81.8611 275.529L81.5384 275.637L81.6055 275.108C81.6055 275.108 80.8801 273.915 79.7313 273.817C78.928 273.76 78.1208 273.786 77.3228 273.895C77.3228 273.895 76.9665 273.833 76.8994 274.669C76.8486 275.136 76.9263 275.609 77.124 276.035C77.124 276.035 79.3544 275.803 79.7881 276.314L79.9766 276.572L79.7984 277.132L80.1108 276.931L79.9327 277.333L80.2786 277.271L79.9895 277.659H80.356L80.1444 278.077L80.356 278.185V283.415L80.3999 288.284L82.2638 288.439Z" stroke="#0E00F2" stroke-width="0.306101" stroke-linecap="round" stroke-linejoin="round"/>
<path d="M108.249 302.624V305.244C108.249 305.244 107.454 307.082 103.819 306.941C100.184 306.799 90.8753 304.901 89.3755 304.816" stroke="#0000CA" stroke-width="0.408134" stroke-linecap="round" stroke-linejoin="round"/>
<path d="M61.4286 336.347C61.8313 333.184 62.3709 330.856 65.0634 331.184L70.7427 331.865C73.8689 332.242 73.048 335.373 72.5781 339.297L71.9095 344.848C71.7985 345.777 71.7056 346.67 71.5894 347.486L60.1482 347.447C60.1482 347.101 60.1895 346.735 60.2282 346.353L61.0156 339.775" fill="#001043"/>
<path d="M54.9077 327.185C53.4749 327.368 52.2978 327.608 50.8883 327.918C48.9573 328.339 46.9773 328.775 45.1186 329.503C43.3606 330.19 41.1663 331.245 40.2835 333.016C40.2117 333.16 40.1487 333.309 40.095 333.46C39.4651 335.283 40.2267 337.309 41.3677 338.758C42.6584 340.389 44.5455 341.442 46.4584 342.168C47.5955 342.593 48.7609 342.938 49.946 343.2C50.1499 343.249 50.3539 343.293 50.5604 343.337C53.7021 344.006 56.9006 344.318 60.0939 344.654C60.9845 344.747 61.9965 344.865 62.8148 344.416C63.2407 344.181 63.4963 343.794 63.1246 343.371C62.7528 342.947 62.092 342.914 61.5499 342.761C60.8425 342.555 60.1094 341.902 60.7547 341.182C61.0852 340.81 61.9087 341.138 62.363 341.133C62.8174 341.127 63.6873 341.158 64.0023 340.709C64.9342 339.382 61.9087 339.509 61.4208 339.16C60.445 338.466 62.949 338.058 63.3517 337.787C65.3627 336.439 61.4982 335.828 61.222 336.925L61.395 336.238C59.6447 336.829 57.9151 337.477 56.1752 338.094C54.9748 338.517 53.382 338.373 52.1119 338.316C50.7149 338.276 49.328 338.066 47.9815 337.691C46.5668 337.268 45.0954 336.468 44.5662 334.996C43.7607 332.805 46.7553 331.749 48.3042 331.274C50.4571 330.615 52.716 330.316 54.949 330.107L54.9077 327.185Z" fill="#7FFFAA"/>
<path d="M54.9077 327.185C53.4749 327.368 52.2978 327.608 50.8883 327.918C48.9573 328.339 46.9773 328.775 45.1186 329.503C43.3606 330.19 41.1663 331.245 40.2835 333.016C40.2117 333.16 40.1487 333.309 40.095 333.46C39.4651 335.283 40.2267 337.309 41.3677 338.758C42.6584 340.389 44.5455 341.442 46.4584 342.168C47.5955 342.593 48.7609 342.938 49.946 343.2C50.1499 343.249 50.3539 343.293 50.5604 343.337C53.7021 344.006 56.9006 344.318 60.0939 344.654C60.9845 344.747 61.9965 344.865 62.8148 344.416C63.2407 344.181 63.4963 343.794 63.1246 343.371C62.7528 342.947 62.092 342.914 61.5499 342.761C60.8425 342.555 60.1094 341.902 60.7547 341.182C61.0852 340.81 61.9087 341.138 62.363 341.133C62.8174 341.127 63.6873 341.158 64.0023 340.709C64.9342 339.382 61.9087 339.509 61.4208 339.16C60.445 338.466 62.949 338.058 63.3517 337.787C65.3627 336.439 61.4982 335.828 61.222 336.925L61.395 336.238C59.6447 336.829 57.9151 337.477 56.1752 338.094C54.9748 338.517 53.382 338.373 52.1119 338.316C50.7149 338.276 49.328 338.066 47.9815 337.691C46.5668 337.268 45.0954 336.468 44.5662 334.996C43.7607 332.805 46.7553 331.749 48.3042 331.274C50.4571 330.615 52.7908 330.295 55.0161 330.089L54.9077 327.185Z" stroke="#0000CA" stroke-width="0.408134" stroke-linecap="round" stroke-linejoin="round"/>
<path d="M67.33 335.484C67.916 335.484 68.391 335.009 68.391 334.423C68.391 333.837 67.916 333.362 67.33 333.362C66.7441 333.362 66.269 333.837 66.269 334.423C66.269 335.009 66.7441 335.484 67.33 335.484Z" fill="#96AFFF"/>
<rect x="131.59" y="274.64" width="84.5696" height="85.8471" rx="18.65" fill="white" stroke="black" stroke-width="1.02658"/>
<rect x="139.398" y="286.959" width="69.6504" height="60.9961" rx="18.65" fill="#023AEC" stroke="black" stroke-width="1.02658"/>
<path d="M196.18 347.348C196.749 343.968 196.931 339.968 196.587 335.237C194.161 302.063 186.89 303.026 174.258 301.642L173.492 301.67C173.492 301.67 154.608 299.757 153.076 327.319C152.621 335.555 152.64 342.106 153.429 347.299" fill="#FF9D00"/>
<path d="M168.11 275.814C168.11 275.814 167.156 271.228 170.977 266.257C173.627 268.396 175.424 271.414 176.042 274.764C176.042 274.764 180.056 271.703 181.394 271.034C181.394 271.034 181.963 276.674 179.768 280.113C179.768 280.113 182.732 280.21 186.746 276.577C186.746 276.577 185.79 283.937 180.725 286.804C183.329 286.247 185.717 284.953 187.606 283.077C187.606 283.077 184.836 301.807 178.433 303.145C178.433 303.145 173.653 304.674 170.117 303.145C166.581 301.617 164.286 298.653 159.606 286.231C161.925 286.361 164.197 286.941 166.294 287.94C166.294 287.94 162.185 285.36 160.847 279.623C163.216 280.125 165.5 280.962 167.632 282.109C167.632 282.109 162.854 279.051 161.804 273.508C161.804 273.519 165.636 274.858 168.11 275.814Z" fill="#04FF93"/>
<path d="M201.838 343.612C200.171 338.611 199.171 337.61 196.438 333.509C196.438 333.509 194.847 336.071 196.723 341.517C196.723 341.517 197.154 342.313 197.837 345.946" fill="#FFF432"/>
<path d="M167.416 335.294C167.416 335.294 166.847 336.432 168.666 336.432C168.666 336.432 169.338 336.179 169.252 335.863L167.416 335.294Z" fill="white"/>
<path d="M167.698 343.917C169.523 341.96 171.901 340.605 174.514 340.031C177.109 339.45 179.81 339.56 182.349 340.35L179.613 340.973C179.613 340.973 177.5 341.451 176.934 341.628L175.226 342.075L173.233 342.818C173.233 342.818 170.716 343.672 169.327 343.769" fill="#FF7090"/>
<path d="M170.918 266.407C170.918 266.407 175.097 271.552 174.334 276.193L175.971 274.911C175.971 274.911 175.271 269.861 170.918 266.407Z" fill="#0139F2"/>
<path d="M181.335 271.185C181.335 271.185 179.738 279.06 176.461 280.902L179.71 280.264C179.71 280.264 182.044 276.825 181.335 271.185Z" fill="#0139F2"/>
<path d="M186.687 276.728C186.687 276.728 181.717 286.225 177.076 286.089L180.262 287.111C180.262 287.111 182.556 285.875 183.47 284.503C183.47 284.503 186.135 281.018 186.687 276.728Z" fill="#0139F2"/>
<path d="M187.558 283.228C187.558 283.228 182.226 301.303 175.527 303.726L175.108 303.974C175.108 303.974 178.118 303.615 179.379 302.812C179.379 302.812 181.582 302.024 183.117 298.456C184.219 296.221 185.097 293.883 185.739 291.475C185.739 291.475 187.507 284.529 187.558 283.228Z" fill="#0139F2"/>
<path d="M196.073 347.348C196.407 345.443 196.597 343.516 196.643 341.583C196.643 341.583 196.768 338.291 198.852 337.395C198.852 337.395 197.013 334.326 196.378 333.77C196.378 333.77 195.826 326.334 195.524 324.945C195.524 324.945 193.875 313.557 190.795 308.597C190.795 308.597 187.899 303.023 180.116 302.334L179.361 302.804C179.361 302.804 194.166 303.154 195.122 335.282C195.253 339.327 194.905 343.373 194.086 347.336" fill="#0139F2"/>
<path d="M169.01 343.906C167.546 343.881 166.116 343.459 164.873 342.684C163.598 341.844 162.701 340.495 162.724 339.086C162.75 338.548 162.883 338.022 163.116 337.537C163.349 337.052 163.676 336.618 164.079 336.261C164.654 335.768 165.323 335.397 166.046 335.169C166.768 334.941 167.53 334.861 168.284 334.935C169.992 335.128 171.581 335.661 173.195 335.632C175.128 335.598 177.112 334.946 178.969 334.494C180.657 334.089 182.769 333.047 184.532 333.503C187.094 334.166 187.276 337.044 186.154 339.02C185.562 340.062 184.29 340.461 183.182 340.686C181.619 341.002 180.022 341.093 178.482 341.54C176.822 342.01 175.242 342.724 173.573 343.174C172.184 343.547 170.507 343.968 169.01 343.906Z" fill="#FF5C00"/>
<path d="M142.211 298.573C142.211 298.573 143.151 298.815 142.812 300.663C142.886 315.572 150.243 327.943 152.742 333.221C153.11 336.008 152.882 342.212 152.871 342.488C138.636 329.124 137.155 300.597 137.155 300.597C137.155 300.167 137.13 299.794 137.118 299.475C137.118 299.475 136.449 296.557 137.118 296.506C137.787 296.455 138.069 298.018 138.069 298.018C138.368 298.12 138.695 298.102 138.98 297.967C138.98 297.967 139.085 296.95 139.894 297.078C140.076 297.105 140.243 297.192 140.37 297.324C140.497 297.457 140.577 297.627 140.597 297.81L140.851 297.781C140.851 297.781 140.648 294.997 141.326 295.125C142.004 295.253 142.083 298.47 142.211 298.573Z" fill="#FFF432"/>
<path d="M191.878 326.673H188.624L181.295 327.242C181.225 326.53 181.301 325.81 181.516 325.127C181.732 324.444 182.084 323.812 182.55 323.268C183.017 322.725 183.589 322.282 184.231 321.966C184.874 321.649 185.574 321.466 186.289 321.428C187.004 321.389 187.72 321.496 188.393 321.742C189.065 321.987 189.681 322.367 190.204 322.857C190.726 323.347 191.143 323.938 191.431 324.594C191.719 325.249 191.871 325.957 191.878 326.673Z" fill="#0A00CA"/>
<path d="M188.624 326.673H191.878C191.864 328.022 191.337 329.316 190.404 330.291C189.471 331.265 188.201 331.848 186.854 331.921C185.506 331.993 184.182 331.55 183.149 330.681C182.117 329.812 181.454 328.582 181.295 327.242L188.624 326.673Z" fill="#0A00CA"/>
<path d="M167.316 327.436C167.316 327.567 167.311 327.698 167.299 327.829L156.703 327.436C156.703 326.028 157.262 324.678 158.257 323.683C159.252 322.688 160.602 322.129 162.009 322.129C163.417 322.129 164.767 322.688 165.762 323.683C166.757 324.678 167.316 326.028 167.316 327.436Z" fill="#0A00CA"/>
<path d="M156.703 327.436L167.299 327.829C167.19 329.192 166.558 330.461 165.536 331.37C164.514 332.279 163.18 332.758 161.813 332.708C160.446 332.657 159.151 332.08 158.199 331.098C157.247 330.116 156.711 328.804 156.703 327.436Z" fill="#0A00CA"/>
<path d="M168.199 302.342C162.505 303.9 153.964 309.272 152.962 327.396C152.842 329.554 152.796 331.265 152.748 333.195" stroke="#0A00CA" stroke-width="0.461955" stroke-miterlimit="10" stroke-linecap="round"/>
<path d="M196.384 333.659C196.099 330.289 195.789 327.288 195.411 324.617C192.865 306.681 187.877 303.518 180.267 302.345" stroke="#0A00CA" stroke-width="0.461955" stroke-miterlimit="10"/>
<path d="M152.862 342.391C152.968 344.008 153.124 345.862 153.338 347.271H196.1C196.405 345.387 196.585 343.485 196.641 341.577" stroke="#0A00CA" stroke-width="0.461955" stroke-miterlimit="10"/>
<path d="M167.572 282.271C167.427 282.177 162.781 279.14 161.747 273.673C161.747 273.673 165.568 275.011 168.053 275.968C168.053 275.968 167.1 271.379 170.92 266.411C173.57 268.549 175.367 271.566 175.985 274.915C175.985 274.915 179.999 271.857 181.337 271.188C181.337 271.188 181.907 276.828 179.712 280.267C179.712 280.267 182.675 280.364 186.69 276.731C186.69 276.731 185.733 284.091 180.668 286.957C183.275 286.402 185.667 285.107 187.558 283.228C187.558 283.228 185.335 298.246 180.273 302.345C179.728 302.81 179.08 303.136 178.382 303.296C178.382 303.296 173.605 304.825 170.069 303.296C169.421 303.023 168.806 302.677 168.236 302.266C165.616 300.37 163.396 296.538 159.558 286.38C161.876 286.511 164.146 287.091 166.243 288.088" stroke="#0A00CA" stroke-width="0.461955" stroke-miterlimit="10"/>
<path d="M166.234 288.102C166.109 288.022 162.109 285.434 160.791 279.788C163.158 280.29 165.441 281.126 167.573 282.271" stroke="#0A00CA" stroke-width="0.461955" stroke-miterlimit="10"/>
<path d="M201.838 343.612C200.171 338.611 199.17 337.61 196.378 333.659C196.378 333.659 194.801 336.196 196.646 341.585C196.653 341.613 196.663 341.641 196.674 341.668C196.674 341.668 197.17 342.612 197.837 345.946" stroke="#0A00CA" stroke-width="0.461955" stroke-miterlimit="10"/>
<path d="M142.211 298.573C142.211 298.573 143.151 298.815 142.812 300.663C142.886 315.572 150.243 327.943 152.742 333.221C153.11 336.008 152.882 342.212 152.871 342.488C138.636 329.124 137.155 300.597 137.155 300.597C137.155 300.167 137.13 299.794 137.118 299.475C137.118 299.475 136.449 296.557 137.118 296.506C137.787 296.455 138.069 298.018 138.069 298.018C138.368 298.12 138.589 298.137 138.874 298.002C138.874 298.002 139.085 296.95 139.894 297.078C140.076 297.105 140.243 297.192 140.37 297.324C140.497 297.457 140.577 297.627 140.597 297.81L140.851 297.781C140.851 297.781 140.648 294.997 141.326 295.125C142.004 295.253 142.083 298.47 142.211 298.573Z" stroke="#0A00CA" stroke-width="0.461955" stroke-miterlimit="10"/>
<path d="M195.402 324.617L195.749 324.415" stroke="#0A00CA" stroke-width="0.461955" stroke-miterlimit="10"/>
<path d="M153.143 325.235L156.702 327.436L167.298 327.829L169.38 327.906C169.38 327.906 173.331 320.372 178.683 327.436L181.294 327.237L188.622 326.667H191.876L195.404 324.612" stroke="#0A00CA" stroke-width="2.30977" stroke-miterlimit="10" stroke-linecap="round"/>
<path d="M142.202 298.801C142.202 298.801 140.38 298.867 140.258 299.447C140.243 299.536 140.26 299.627 140.306 299.704C140.306 299.704 140.306 299.726 140.326 299.741C140.847 300.595 141.812 300.165 141.812 300.165" stroke="#0A00CA" stroke-width="0.461955" stroke-miterlimit="10" stroke-linecap="round"/>
<path d="M138.874 298.002C138.874 298.002 138.86 300.176 139.848 300.176C140.261 300.176 140.338 299.982 140.306 299.715C140.296 299.628 140.28 299.543 140.258 299.459C140.178 299.128 140.047 298.744 140.167 298.473" stroke="#0A00CA" stroke-width="0.461955" stroke-miterlimit="10" stroke-linecap="round"/>
<path d="M183.906 333.415C184.194 333.413 184.482 333.451 184.76 333.529C185.16 333.649 185.528 333.858 185.836 334.14C186.145 334.422 186.386 334.77 186.542 335.157C186.765 335.685 186.873 336.254 186.858 336.827C186.843 337.399 186.705 337.962 186.454 338.477C186.008 339.351 185.259 340.034 184.347 340.398C183.534 340.667 182.688 340.825 181.833 340.871C181.44 340.914 181.036 340.954 180.626 341.013C178.73 341.298 176.953 341.91 175.234 342.511C174.482 342.773 173.702 343.043 172.956 343.274C171.643 343.69 170.276 343.911 168.899 343.929C168.737 343.929 168.572 343.929 168.415 343.929C167.017 343.903 165.659 343.458 164.518 342.65C163.353 341.796 162.644 340.478 162.662 339.234C162.7 338.243 163.106 337.302 163.8 336.595C164.71 335.639 165.96 335.08 167.279 335.04H167.356C168.135 335.064 168.91 335.159 169.671 335.325C170.606 335.533 171.56 335.65 172.518 335.675H172.686C175.123 335.627 177.46 335.046 179.459 334.505C179.903 334.386 180.353 334.24 180.791 334.101C181.847 333.765 182.941 333.418 183.9 333.418L183.906 333.415ZM183.9 331.994C182.28 331.994 180.6 332.723 179.092 333.133C176.99 333.702 174.847 334.212 172.66 334.255H172.521C170.775 334.255 169.104 333.606 167.356 333.606H167.259C165.558 333.65 163.944 334.367 162.77 335.598C161.828 336.566 161.281 337.85 161.238 339.2C161.212 340.996 162.226 342.716 163.669 343.786C165.037 344.763 166.667 345.305 168.347 345.344C168.532 345.344 168.714 345.344 168.899 345.344C170.416 345.323 171.922 345.083 173.369 344.629C175.857 343.872 178.266 342.787 180.84 342.414C182.198 342.218 183.604 342.218 184.879 341.714C186.113 341.22 187.125 340.294 187.726 339.109C188.996 336.592 188.065 333.002 185.164 332.154C184.751 332.037 184.324 331.98 183.894 331.983L183.9 331.994Z" fill="#0AC2CA"/>
<path d="M168.35 345.341C166.67 345.302 165.04 344.76 163.672 343.783C162.229 342.713 161.215 340.993 161.241 339.197C161.284 337.847 161.83 336.563 162.773 335.595C163.947 334.364 165.561 333.647 167.262 333.603C169.087 333.577 170.835 334.289 172.672 334.252C174.858 334.209 177.002 333.699 179.103 333.13C181.011 332.615 183.191 331.584 185.181 332.165C188.088 333.019 189.019 336.603 187.744 339.12C187.142 340.305 186.131 341.231 184.897 341.725C183.621 342.229 182.215 342.229 180.857 342.425C178.294 342.798 175.875 343.883 173.386 344.64C171.759 345.157 170.056 345.393 168.35 345.341V345.341Z" stroke="#0A00CA" stroke-width="0.461955" stroke-miterlimit="10"/>
<path d="M168.951 343.906C167.487 343.881 166.057 343.459 164.815 342.684C163.539 341.844 162.642 340.495 162.665 339.086C162.692 338.549 162.826 338.022 163.059 337.537C163.291 337.052 163.618 336.619 164.02 336.261C164.596 335.768 165.265 335.397 165.987 335.169C166.71 334.941 167.471 334.861 168.225 334.935C169.934 335.128 171.522 335.661 173.136 335.632C175.07 335.598 177.054 334.946 178.91 334.494C180.598 334.089 182.711 333.047 184.473 333.503C187.036 334.166 187.218 337.044 186.096 339.02C185.504 340.062 184.231 340.461 183.124 340.686C181.564 341.002 179.964 341.093 178.423 341.54C176.764 342.01 175.183 342.724 173.515 343.174C172.114 343.547 170.452 343.968 168.951 343.906Z" stroke="#0A00CA" stroke-width="0.461955" stroke-miterlimit="10"/>
<path d="M168.954 336.296C168.385 336.259 168.02 336.114 167.892 335.877C167.854 335.786 167.838 335.687 167.845 335.588C167.852 335.489 167.882 335.393 167.932 335.308V335.288L167.98 335.049L169.657 335.317L169.503 335.755C169.458 335.881 169.386 335.995 169.291 336.088C169.195 336.182 169.08 336.253 168.954 336.296Z" fill="white"/>
<path d="M168.102 335.217L169.477 335.436L169.38 335.721C169.343 335.821 169.283 335.912 169.207 335.988C169.13 336.063 169.038 336.121 168.936 336.156C168.444 336.122 168.119 336 168.017 335.818C167.991 335.748 167.981 335.674 167.988 335.6C167.994 335.526 168.017 335.455 168.054 335.391L168.076 335.351V335.305L168.094 335.223L168.102 335.217ZM167.871 334.898L167.797 335.248C167.797 335.248 167.16 336.336 168.959 336.444C169.114 336.4 169.257 336.319 169.375 336.209C169.493 336.1 169.584 335.963 169.64 335.812L169.85 335.214L167.871 334.898Z" fill="#0A00CA"/>
<path opacity="0.7" d="M158.3 323.735L162.545 332.578C163.85 332.418 165.051 331.786 165.921 330.801L160.062 322.579C159.392 322.82 158.788 323.216 158.3 323.735Z" fill="#01BDF2"/>
<path opacity="0.7" d="M182.946 322.903L187.191 331.749C188.498 331.591 189.702 330.957 190.573 329.97L184.711 321.747C184.04 321.988 183.435 322.384 182.946 322.903Z" fill="#01BDF2"/>
<path d="M169.218 343.8C168.409 343.813 167.605 343.679 166.843 343.405C166.82 343.395 166.799 343.38 166.783 343.36C166.767 343.34 166.756 343.316 166.752 343.291C166.748 343.266 166.75 343.24 166.759 343.217C166.768 343.193 166.784 343.173 166.804 343.157C166.843 343.126 170.846 340.071 175.914 340.071C177.392 340.068 178.859 340.335 180.241 340.859L180.139 341.124C180.117 341.121 180.095 341.121 180.073 341.124C180.001 341.129 179.93 341.145 179.863 341.17L179.737 341.204C179.624 341.231 179.509 341.251 179.393 341.267L179.162 341.304C178.174 341.514 177.204 341.806 176.264 342.178C175.384 342.496 174.442 342.795 173.377 343.094C172.03 343.518 170.63 343.756 169.218 343.8Z" fill="#B92F00"/>
<path d="M175.908 340.213C177.367 340.21 178.814 340.473 180.179 340.99C180.141 340.977 180.102 340.97 180.062 340.97C179.937 340.984 179.813 341.013 179.695 341.056C179.507 341.099 179.313 341.116 179.125 341.153C178.129 341.366 177.152 341.66 176.204 342.032C175.256 342.374 174.3 342.673 173.329 342.946C171.994 343.37 170.608 343.609 169.209 343.658C168.418 343.669 167.631 343.538 166.886 343.271C166.886 343.271 170.829 340.213 175.902 340.213H175.908ZM175.902 339.928C170.792 339.928 166.875 342.918 166.712 343.046C166.672 343.077 166.641 343.118 166.622 343.165C166.603 343.212 166.597 343.263 166.604 343.314C166.612 343.364 166.632 343.411 166.665 343.451C166.697 343.49 166.739 343.521 166.786 343.538C167.563 343.818 168.384 343.954 169.209 343.943C170.634 343.894 172.046 343.651 173.406 343.22C174.473 342.935 175.421 342.619 176.301 342.3C177.235 341.938 178.196 341.652 179.177 341.446L179.401 341.409C179.518 341.392 179.638 341.375 179.757 341.346C179.802 341.336 179.847 341.324 179.891 341.309C179.946 341.289 180.004 341.276 180.062 341.269H180.079C180.111 341.281 180.145 341.287 180.179 341.287C180.245 341.286 180.309 341.263 180.359 341.22C180.41 341.178 180.444 341.119 180.456 341.054C180.469 340.989 180.458 340.922 180.426 340.864C180.394 340.806 180.343 340.761 180.281 340.737C178.882 340.207 177.398 339.937 175.902 339.94V339.928Z" fill="#0A00CA"/>
<rect x="26.7156" y="37.1268" width="17.3555" height="3.25416" fill="#1F1F1F"/>
<rect x="26.7156" y="30.3186" width="17.3555" height="3.25416" fill="#1F1F1F"/>
<path d="M89.2854 31.8846C90.3804 31.8824 91.1738 31.0708 91.1718 30.0808C91.1698 29.0758 90.3731 28.2674 89.2781 28.2696C88.1831 28.2718 87.3748 29.0834 87.3768 30.0884C87.3788 31.0784 88.1904 31.8868 89.2854 31.8846ZM86.744 43.7247C89.579 43.719 91.1368 42.5909 91.1317 40.0559L91.1159 32.1659L87.4709 32.1732L87.4864 39.8832C87.4875 40.4382 87.0379 40.6641 86.3329 40.6655C86.1079 40.666 85.8078 40.6216 85.6277 40.5469L85.6338 43.5919C85.979 43.6812 86.459 43.7253 86.744 43.7247ZM95.0456 40.4081C96.6356 40.4049 97.5788 39.518 97.8465 38.3775L97.9815 38.3772L97.9851 40.1772L101.63 40.1699L101.614 32.1449L97.9691 32.1522L97.9778 36.5472C97.9798 37.5072 97.5009 38.0632 96.7959 38.0646C96.1059 38.066 95.5798 37.542 95.5781 36.687L95.5691 32.157L91.9091 32.1643L91.9194 37.3393C91.9229 39.0643 93.0956 40.412 95.0456 40.4081ZM104.269 31.8546C105.364 31.8524 106.172 31.0408 106.17 30.0508C106.168 29.0458 105.357 28.2374 104.262 28.2396C103.167 28.2418 102.358 29.0534 102.36 30.0584C102.362 31.0484 103.174 31.8568 104.269 31.8546ZM102.441 40.1683L106.101 40.161L106.085 32.136L102.425 32.1433L102.441 40.1683ZM111.86 40.3745C112.895 40.3724 114.155 40.0849 114.784 39.7986L114.778 36.7836C114.254 37.1447 113.144 37.4619 112.289 37.4636C111.224 37.4657 110.488 36.9422 110.487 36.0872C110.485 35.3522 111.159 34.7959 112.134 34.7939C112.974 34.7922 113.454 35.0013 113.995 35.3902L114.665 32.6738C113.929 32.1353 112.608 31.898 111.693 31.8998C108.708 31.9057 106.747 33.7997 106.752 36.1247C106.757 38.5997 108.935 40.3803 111.86 40.3745ZM119.642 43.6589C123.527 43.6511 125.517 41.2922 125.513 39.1172L125.499 32.0972L121.854 32.1045L121.862 36.3795C121.864 37.3395 121.385 37.8954 120.68 37.8968C119.99 37.8982 119.464 37.3743 119.463 36.5193L119.454 32.1093L115.794 32.1166L115.804 37.2466C115.807 38.9716 116.98 40.1392 118.93 40.1353C120.52 40.1321 121.463 39.2603 121.731 38.1197L121.866 38.1194L121.866 38.1344C121.868 39.3344 120.836 40.5665 119.171 40.5698C118.076 40.572 117.205 40.3938 116.199 39.7958L115.485 42.8872C116.536 43.3351 118.367 43.6615 119.642 43.6589ZM128.313 40.3416C129.243 40.3397 130.036 39.6181 130.034 38.5831C130.032 37.5781 129.236 36.8447 128.306 36.8466C127.346 36.8485 126.552 37.5851 126.554 38.5901C126.556 39.6251 127.353 40.3435 128.313 40.3416ZM135.266 40.3277C137.756 40.3227 139.028 39.1951 139.025 37.5751C139.023 36.2401 138.166 35.3868 136.185 35.0608C135.255 34.8977 135 34.7782 134.999 34.5532C134.999 34.3132 135.299 34.2376 135.914 34.2363C136.559 34.2351 137.669 34.4878 138.105 34.772L138.1 32.372C137.409 32.0884 136.599 31.85 134.934 31.8533C132.579 31.858 131.336 32.9705 131.339 34.4405C131.342 35.8205 132.363 36.6885 134.089 37.015C135.14 37.2079 135.335 37.3125 135.335 37.5075C135.336 37.7175 135.081 37.808 134.301 37.8096C133.476 37.8112 132.155 37.4539 131.344 36.8705L130.659 39.4369C131.92 40.0343 133.526 40.3311 135.266 40.3277ZM139.687 43.3938L143.332 43.3865L143.32 37.7465L143.47 37.7462C143.623 39.1859 144.57 40.309 146.205 40.3058C148.335 40.3015 149.772 38.5736 149.767 36.0686C149.762 33.7437 148.093 31.827 145.648 31.8319C144.178 31.8348 143.025 32.4671 142.322 33.4435L142.262 33.4437L139.994 32.0682L139.664 32.0688L139.687 43.3938ZM144.52 37.5041C143.68 37.5058 143.093 36.817 143.092 36.022C143.09 35.227 143.659 34.5509 144.484 34.5492C145.339 34.5475 145.925 35.2363 145.927 36.0313C145.928 36.8263 145.36 37.5025 144.52 37.5041ZM153.76 40.2907C155.395 40.2874 156.472 39.0852 156.634 37.6449L156.769 37.6446L156.774 40.0596L160.434 40.0523L160.418 32.0273L160.088 32.028L157.811 33.4126L157.766 33.4126C157.044 32.4391 155.888 31.8114 154.433 31.8143C151.988 31.8192 150.326 33.7425 150.331 36.0675C150.336 38.5725 151.63 40.2949 153.76 40.2907ZM155.584 37.482C154.744 37.4837 154.173 36.8098 154.171 36.0148C154.169 35.2198 154.753 34.5287 155.593 34.527C156.433 34.5253 156.989 35.1992 156.991 35.9942C156.993 36.7892 156.424 37.4803 155.584 37.482ZM166.294 40.2656C167.329 40.2635 168.588 39.976 169.218 39.6898L169.211 36.6748C168.687 37.0358 167.578 37.353 166.723 37.3547C165.658 37.3569 164.922 36.8333 164.92 35.9783C164.919 35.2433 165.592 34.687 166.567 34.685C167.407 34.6834 167.888 34.8924 168.429 35.2813L169.098 32.565C168.362 32.0265 167.042 31.7891 166.127 31.7909C163.142 31.7969 161.18 33.6908 161.185 36.0158C161.19 38.4908 163.369 40.2715 166.294 40.2656ZM174.637 40.2489C175.792 40.2466 176.871 40.0195 177.576 39.838L177.256 37.2887C176.476 37.5602 175.786 37.6816 174.946 37.6833C173.851 37.6855 173.326 37.3415 173.085 36.877L178.425 36.8663C178.484 36.6562 178.558 36.0861 178.558 35.8461C178.553 33.6861 176.765 31.7696 174.26 31.7747C171.605 31.78 169.808 33.6736 169.813 35.9986C169.817 37.9186 171.142 40.2559 174.637 40.2489ZM172.962 35.4823C173.111 34.777 173.59 34.371 174.325 34.3695C175.105 34.368 175.601 35.012 175.512 35.4772L172.962 35.4823Z" fill="black"/>
<rect x="237.002" y="84.0173" width="7.65803" height="25.3644" rx="3.82901" transform="rotate(-0.114581 237.002 84.0173)" fill="#FCFF3F" stroke="black" stroke-width="2"/>
<defs>
<filter id="filter0_d_1_9630" x="0.843994" y="0.850098" width="266.81" height="421.532" filterUnits="userSpaceOnUse" color-interpolation-filters="sRGB">
<feFlood flood-opacity="0" result="BackgroundImageFix"/>
<feColorMatrix in="SourceAlpha" type="matrix" values="0 0 0 0 0 0 0 0 0 0 0 0 0 0 0 0 0 0 127 0" result="hardAlpha"/>
<feOffset dx="10" dy="10"/>
<feComposite in2="hardAlpha" operator="out"/>
<feColorMatrix type="matrix" values="0 0 0 0 0 0 0 0 0 0 0 0 0 0 0 0 0 0 1 0"/>
<feBlend mode="normal" in2="BackgroundImageFix" result="effect1_dropShadow_1_9630"/>
<feBlend mode="normal" in="SourceGraphic" in2="effect1_dropShadow_1_9630" result="shape"/>
</filter>
</defs>
</svg>
