<svg width="225" height="212" viewBox="0 0 225 212" fill="none" xmlns="http://www.w3.org/2000/svg">
<path d="M98.63 210.58C152.55 210.58 196.26 167.331 196.26 113.98C196.26 60.6293 152.55 17.38 98.63 17.38C44.7104 17.38 1 60.6293 1 113.98C1 167.331 44.7104 210.58 98.63 210.58Z" fill="#0300D8"/>
<path d="M193.78 97.09C193.78 97.09 187.64 89.93 190.31 87.25L197.31 81.25C197.31 81.25 202.64 76.32 204.11 77.95C206.954 79.5198 209.274 81.8917 210.78 84.77L222.21 100.09C222.21 100.09 226.56 105.33 222.12 108.67L212.58 115.73H212.23C212.23 115.73 209.44 117.95 205.72 112.96L193.78 97.09Z" fill="#001043"/>
<path d="M52.1799 199.22C52.1799 199.22 55.9199 189.36 55.9299 186.89C55.9299 186.89 63.5599 199.89 70.3199 203.73L70.5999 203.88L76.2999 208.4C76.2999 208.4 59.8399 204.2 52.1799 199.22Z" fill="#DE4000"/>
<path d="M52.9501 119.81C52.9501 119.81 15.0001 115.62 2.86014 144.26C2.86014 144.26 -0.759857 155.57 12.8601 162L23.1601 167.36C23.1601 167.36 11.8001 174.67 11.5601 179.47C11.5601 179.47 24.5601 196.07 33.0601 189.37C33.0601 189.37 39.3101 178.46 44.2001 182.24C44.2001 182.24 45.1201 186.13 39.3501 191.04L52.1301 199.34C52.1301 199.34 62.5901 174.22 50.2301 165.54L52.9501 119.81Z" fill="#FF6600"/>
<path d="M47.2601 163.33L47.1401 162.69C46.1401 156.87 40.1401 112.69 82.1401 89.0799C82.1401 89.0799 97.2401 80.95 99.1401 77.39C99.1401 77.39 104.22 73.14 103.92 70.51C103.92 70.51 109.55 65.7 116.33 76.27L116.56 76.64C116.56 76.64 155.02 95.4399 164.3 129.24C164.3 129.24 169.22 151.97 167.05 157.66C167.05 157.66 157.31 164.03 163.05 174.95C163.05 174.95 154.88 193.36 151.21 195.61C151.21 195.61 121.21 218.03 76.1101 208.4C76.1101 208.4 61.5901 198.12 55.7401 186.89C55.7401 186.89 58.2901 173.16 52.7401 168.24C51.3813 166.146 49.4899 164.452 47.2601 163.33V163.33Z" fill="#FFEC4E"/>
<path d="M97.4301 160.03C97.4301 160.03 96.4301 156.66 99.7101 156.82C102.814 159.036 106.537 160.218 110.35 160.2C113.301 160.169 116.148 159.108 118.4 157.2C118.678 157.033 118.992 156.936 119.315 156.917C119.639 156.898 119.962 156.958 120.257 157.092C120.553 157.226 120.811 157.429 121.01 157.685C121.209 157.941 121.343 158.241 121.4 158.56C121.4 158.56 122.19 160.42 118.47 161.91C116.055 163.401 113.304 164.261 110.47 164.41C110.47 164.41 103.09 164.52 99.9901 161.58L97.4301 160.03Z" fill="#F69538"/>
<path d="M106.95 69.1899C106.74 69.1199 103.27 51.0299 99.8201 47.2799C99.8201 47.2799 104.9 45.8699 105.72 47.4099C106.54 48.9499 105.44 47.63 105.44 47.63C105.44 47.63 107.25 48.54 108.94 56.5C108.94 56.63 108.99 56.77 109.02 56.9L113.56 55.25C113.56 55.25 108.21 45.18 112.11 39.99L113.56 42.0499C113.568 39.0714 114.217 36.1295 115.463 33.424C116.709 30.7184 118.522 28.3127 120.78 26.37C120.78 26.37 120.26 28.5399 120.78 28.5299C120.78 28.5299 128.44 20.9499 129.03 18.5299C129.03 18.5299 131.31 19.12 130.52 22.26C130.52 22.26 137.17 14.17 138.9 9.26001C138.9 9.26001 140.82 9.46998 139.32 14.6C139.32 14.6 143.7 10.48 144.86 1.40002C144.86 1.40002 153.12 3.60994 154.81 18.6899C155.929 17.6293 156.717 16.2681 157.08 14.77C157.08 14.77 158.32 25.12 155.84 28.77C156.733 28.176 157.543 27.4664 158.25 26.6599C158.25 26.6599 159.41 30.93 155.74 39.08C155.74 39.08 153.27 43.24 152.13 43.62C152.13 43.62 156.27 44.21 156.67 43.62C156.67 43.62 152.11 50.91 147.12 53.62L146.97 53.71C141.97 56.39 147.02 53.71 147.02 53.71L151.36 53.86C151.36 53.86 142.68 61.34 139.23 61.58C140.325 62.3701 141.522 63.0061 142.79 63.47C142.79 63.47 132.25 65.9199 127.54 62.7899C127.54 62.7899 127.24 64.0099 128.75 65.6699C128.75 65.6699 119.48 64.3 116.24 58.14C116.24 58.14 111.53 59.76 110.01 60.14C109.73 60.21 109.56 60.24 109.54 60.2C109.44 59.99 109.08 69.36 109.08 69.36H106.96" fill="#32FF81"/>
<path d="M185.68 110.32C188.22 114.95 169.53 141.95 169.53 141.95C173.62 134.2 164.89 129.48 164.89 129.48C164.89 129.48 161.13 122.03 164.89 130.29C168.65 138.55 167.24 157.66 167.24 157.66C154.61 168.03 167.97 182.23 167.97 182.23L176.43 172.23L176.55 172.7C176.662 172.514 176.793 172.34 176.94 172.18C176.94 172.09 176.94 172 176.94 171.9C175.86 165.22 179.86 159.48 179.86 159.48L186.45 153.95C203.78 138.42 206.1 124.09 206.1 124.09C198.65 112.39 185.68 110.32 185.68 110.32Z" fill="#FF6600"/>
<path d="M152.36 194.91C152.36 194.91 163.63 178.91 162.85 174.91C162.07 170.91 167.97 182.19 167.97 182.19C163.346 187.095 158.098 191.371 152.36 194.91V194.91Z" fill="#DE4000"/>
<path d="M16.8499 185.69C16.8499 185.69 23.2899 189.78 25.2299 190.26L24.0599 193.52C24.0599 193.52 25.39 198.94 24.24 199.84L21.9799 198.61C21.9799 198.61 20.38 199.14 21.22 202.26C21.22 202.26 22.3099 207.91 18.8799 206.11C18.3478 205.115 17.6742 204.202 16.8799 203.4C16.5999 203.18 16.3399 203.12 16.1699 203.4C15.4699 204.31 14.17 206.72 12.25 206.08C12.25 206.08 10.9199 205.24 11.8399 203.19L11.58 202.05L11.19 202.31C11.19 202.31 7.37995 205.9 6.88995 204.64C6.88995 204.64 5.13995 202.49 8.94995 198.04C8.97995 197.99 15.2299 186.78 16.8499 185.69Z" fill="#F6FF7F"/>
<path d="M70.2001 204.02L73.8501 206.39L73.1701 207.6L69.5701 206.47L70.2001 204.02Z" fill="#F6FF7F"/>
<path d="M189.67 111.57C189.46 111.57 189.59 98.96 196.51 94.64L196.89 94.4399C197.233 94.8819 197.419 95.4255 197.419 95.985C197.419 96.5444 197.233 97.0879 196.89 97.5299C196.89 97.5299 196.16 100.74 197.81 102.9L204.11 111.15L202.04 117.78L201.84 118.43C201.84 118.43 194.67 112.64 189.67 111.57Z" fill="#F6FF7F"/>
<path d="M196.96 84.62L202.83 80.2999C202.83 80.2999 204.48 79.4599 206.51 82.4599C208.54 85.4599 221.11 102.94 221.11 102.94C221.11 102.94 223.38 102.66 215.81 107.94L209.98 111.86C209.98 111.86 208.45 112.6 205.98 108.76L197.4 97.0899C197.578 96.9013 197.708 96.6731 197.779 96.4243C197.851 96.1754 197.862 95.9132 197.813 95.659C197.763 95.4049 197.653 95.1663 197.493 94.963C197.332 94.7597 197.126 94.5975 196.89 94.4899L195.47 95.2199L192.91 90.9299C192.91 90.9299 191.28 88.4799 193.63 87.6599L196.96 84.62Z" fill="#BA57FF"/>
<path d="M216.9 110.79C217.491 110.79 217.97 110.329 217.97 109.76C217.97 109.191 217.491 108.73 216.9 108.73C216.309 108.73 215.83 109.191 215.83 109.76C215.83 110.329 216.309 110.79 216.9 110.79Z" fill="#0300D8"/>
<path d="M52.9501 119.94C53.0101 119.83 36.6301 118.27 25.2301 125.22C13.8301 132.17 2.47008 141.61 7.89008 148.22C7.89008 148.22 14.5101 152.96 21.7301 152.61C30.4462 153.976 38.7342 157.318 45.9601 162.38L47.2601 163.32C47.2601 163.32 45.4101 147.17 47.0601 140.18C47.0601 140.19 49.1701 126.99 52.9501 119.94Z" fill="#DE4000"/>
<path d="M109.08 69.4199C109.08 69.4199 113.88 74.14 114.4 78.58C114.4 78.58 166.52 104.58 165.08 159.78L167.24 157.65C167.24 157.65 167.84 145.37 167.07 140.11C167.07 140.11 163.97 121.96 156.93 112.45C149.89 102.94 156.51 111.89 156.51 111.89C156.51 111.89 144.74 93.2099 129.12 84.4099C129.12 84.4099 118.96 77.05 116.5 77C116.5 77 115.36 71.9199 109.08 69.4199Z" fill="#0139F2"/>
<path d="M161.55 169.92C161.55 169.92 156.42 190.83 146.29 198.71L151.29 195.71L151.43 195.63C151.43 195.63 161.89 182.63 163.12 174.97L161.55 169.92Z" fill="#0139F2"/>
<path d="M34.48 187.28C36.38 189.01 38.12 190.28 39.3 190.39C39.3 190.39 37.95 195.59 29.92 193.75C29.3323 194.565 28.967 195.52 28.8601 196.519C28.7531 197.519 28.9082 198.529 29.31 199.45C29.31 199.45 30.9 205.31 27.18 202.6L26.67 201.98C26.67 201.98 24.96 201.7 26.04 207.25C26.04 207.25 26.33 210.57 23.74 209.56H23.63C23.63 209.56 22.35 206.9 20.89 206.78C20.89 206.78 18.66 210.3 16.97 209.46C16.97 209.46 15.6 208.32 16.97 204.97C16.97 204.97 12.97 208.89 11.61 207.97C11.61 207.97 10.61 206.84 11.55 204.63C11.55 204.63 11.68 208.75 16.41 203.53C17.4054 204.157 18.2491 204.997 18.88 205.99C18.88 205.99 22.21 208.77 21.03 199.99C21.03 199.99 21.33 198.63 22.03 198.62C22.03 198.62 23.17 200.62 24.84 199.78C25.1352 197.913 24.8744 196 24.09 194.28C24.1785 192.908 24.586 191.576 25.28 190.39C25.28 190.39 31.45 193.03 34.48 187.28Z" fill="#0139F2"/>
<path d="M196.16 85.33L198.55 83.46L209.35 86.51L211.49 89.52L196.16 85.33Z" fill="#A97AFF"/>
<path d="M199.72 82.61L208.29 84.91L206.92 83.07L201.32 81.45L199.72 82.61Z" fill="#A97AFF"/>
<path opacity="0.9" d="M92.94 87.3C92.35 87 55.68 104.89 59.94 123.22C64.2 141.55 91.28 90.56 92.94 87.3Z" fill="#FFEC9D"/>
<path d="M200.12 117.29C200.12 117.29 178.37 157.6 174.03 157.4C169.69 157.2 171.92 165.77 171.92 165.77C171.92 165.77 176.53 166.42 175.08 167.87C173.63 169.32 167.58 171.3 169.42 172.09C171.064 172.909 172.637 173.866 174.12 174.95L176.88 171.77C176.88 171.77 175.53 162.77 181.21 158.13C186.89 153.49 195.32 145.35 197.95 141.26C200.58 137.17 206.45 128.17 206.1 124.08C206.1 124.09 202.78 117.93 200.12 117.29Z" fill="#DE4000"/>
<path d="M164.78 129.2C164.78 129.2 175.49 134.98 167.47 145.9C167.47 145.9 166.95 135.02 164.98 130.28L164.78 129.2Z" fill="#DE4000"/>
<path d="M27.9899 190.92C27.4299 190.92 30.7699 189.14 29.7199 184.5C28.6699 179.86 26.0499 178.27 27.9899 177.75C29.9299 177.23 33.5499 181.17 36.1199 179.39C38.6899 177.61 37.7599 176.5 37.7599 176.5C37.7599 176.5 35.3899 168.99 42.7599 177.5C42.7599 177.5 51.2199 183.95 44.3599 187.9L39.6199 190.9C39.6199 190.9 45.2999 186.25 44.3599 182.15C44.3599 182.15 40.1799 177.89 33.0799 189.15C33.0799 189.19 31.9699 190.99 27.9899 190.92Z" fill="#DE4000"/>
<path d="M167.6 150.65C167.6 151.06 167.6 151.47 167.6 151.88C167.6 152.08 167.6 152.28 167.6 152.46C167.6 152.94 167.6 153.46 167.54 153.89C167.54 154.11 167.54 154.32 167.54 154.52C167.54 154.73 167.54 154.92 167.54 155.11V155.65V156.15C167.54 156.28 167.54 156.41 167.54 156.54L167.45 157.54L167.77 148.73C167.77 149.3 167.77 149.88 167.77 150.45V150.65H167.6Z" fill="#FFFFC7"/>
<path d="M167.58 151.88C167.58 151.47 167.58 151.06 167.58 150.65C167.6 151.09 167.59 151.49 167.58 151.88Z" fill="#FFFFC7"/>
<path d="M167.6 148.23V148.73C167.457 142.124 166.421 135.568 164.52 129.24C166.85 135.16 167.51 142.5 167.6 148.23Z" fill="#FFFFC7"/>
<path d="M167.57 152.46C167.57 152.28 167.57 152.08 167.57 151.88C167.58 152.09 167.58 152.27 167.57 152.46Z" fill="#FFFFC7"/>
<path d="M167.51 153.89C167.51 154.103 167.51 154.313 167.51 154.52C167.497 154.32 167.497 154.11 167.51 153.89Z" fill="#FFFFC7"/>
<path d="M167.48 154.52C167.48 154.72 167.48 154.92 167.48 155.11C167.46 154.92 167.46 154.73 167.48 154.52Z" fill="#FFFFC7"/>
<path d="M167.34 156.54C167.34 156.41 167.34 156.28 167.34 156.15C167.36 156.29 167.35 156.42 167.34 156.54Z" fill="#FFFFC7"/>
<path d="M167.25 157.54L167.34 156.54C167.31 157.09 167.27 157.39 167.25 157.54Z" fill="#FFFFC7"/>
<path d="M167.25 157.54V157.65C167.245 157.613 167.245 157.576 167.25 157.54Z" fill="#FFFFC7"/>
<path d="M130.52 22.26L130.8 22.35L130.27 23.0699C130.382 22.8097 130.466 22.5382 130.52 22.26V22.26Z" fill="#FFFFC7"/>
<path d="M129.03 65.77C128.942 65.799 128.848 65.799 128.76 65.77H129.03Z" fill="#FFFFC7"/>
<path d="M109.11 69.4099L106.96 69.2099C107.683 69.1292 108.414 69.1972 109.11 69.4099Z" fill="#FFFFC7"/>
<path d="M76.2901 208.4L75.5601 208.22L75.9001 208.12L76.2901 208.4Z" fill="#FFFFC7"/>
<path d="M6.42993 145.09C6.68993 145.84 6.94993 146.58 7.21993 147.32C6.782 146.651 6.51108 145.886 6.42993 145.09V145.09Z" fill="#FFFFC7"/>
<path d="M76.3 208.4C94.8021 212.775 114.179 211.651 132.051 205.165C149.923 198.679 165.511 187.114 176.9 171.89C181.465 165.804 185.291 159.197 188.3 152.21" stroke="#1100A5" stroke-linecap="round" stroke-linejoin="round"/>
<path d="M73.6101 207.73C74.2601 207.9 74.9101 208.07 75.5601 208.22L76.2901 208.4" stroke="#1100A5" stroke-linecap="round" stroke-linejoin="round"/>
<path d="M34.6101 187.01C36.1601 188.37 37.7601 189.68 39.4101 190.92C43.441 194.019 47.711 196.795 52.1801 199.22C57.7411 202.235 63.5819 204.704 69.6201 206.59" stroke="#1100A5" stroke-linecap="round" stroke-linejoin="round"/>
<path d="M14.45 162.69C15.95 165.23 17.53 167.69 19.24 170.09" stroke="#1100A5" stroke-linecap="round" stroke-linejoin="round"/>
<path d="M6.42993 145.09C6.68993 145.84 6.94993 146.58 7.21993 147.32" stroke="#1100A5" stroke-linecap="round" stroke-linejoin="round"/>
<path d="M127.54 21.29C118.207 18.4171 108.495 16.9609 98.73 16.97C44.91 16.97 1.29005 60.4 1.29005 113.97C1.28538 122.83 2.49668 131.649 4.89005 140.18" stroke="#1100A5" stroke-linecap="round" stroke-linejoin="round"/>
<path d="M130.78 22.35L130.5 22.26" stroke="#1100A5" stroke-linecap="round" stroke-linejoin="round"/>
<path d="M191.85 85.33C185.712 65.6658 173.483 48.4611 156.93 36.2" stroke="#1100A5" stroke-linecap="round" stroke-linejoin="round"/>
<path d="M52.9399 119.94C48.5462 129.541 46.2876 139.981 46.3199 150.54C46.3183 154.827 46.6863 159.106 47.4199 163.33" stroke="#1100A5" stroke-linecap="round" stroke-linejoin="round"/>
<path d="M167.6 150.45C167.6 149.88 167.6 149.3 167.6 148.73C167.457 142.124 166.421 135.568 164.52 129.24C161.795 120.08 157.194 111.586 151.01 104.3L148.2 100.78C139.78 89.6499 116.78 76.64 116.78 76.64C113.85 71.92 111.22 70.0199 109.14 69.4099C108.444 69.2006 107.712 69.136 106.99 69.22C105.928 69.3313 104.929 69.7799 104.14 70.5C103.76 73.39 97.25 79.5 97.25 79.5C95.52 81.8 82.35 89.07 82.35 89.07C69.66 95.34 59.28 106.28 52.98 119.93" stroke="#1100A5" stroke-linecap="round" stroke-linejoin="round"/>
<path d="M167.57 152.46C167.57 152.27 167.57 152.08 167.57 151.88C167.57 151.47 167.57 151.06 167.57 150.65" stroke="#1100A5" stroke-linecap="round" stroke-linejoin="round"/>
<path d="M167.41 155.65C167.41 155.47 167.41 155.29 167.41 155.11C167.41 154.93 167.41 154.72 167.41 154.52C167.41 154.32 167.41 154.1 167.41 153.89" stroke="#1100A5" stroke-linecap="round" stroke-linejoin="round"/>
<path d="M167.24 157.66C167.235 157.623 167.235 157.586 167.24 157.55L167.33 156.55C167.33 156.42 167.33 156.29 167.33 156.16" stroke="#1100A5" stroke-linecap="round" stroke-linejoin="round"/>
<path d="M151.4 195.61C156.443 189.412 160.442 182.434 163.24 174.95" stroke="#1100A5" stroke-linecap="round" stroke-linejoin="round"/>
<path d="M70.23 203.88C71.23 204.69 72.44 205.61 73.86 206.66L75.86 208.12L76.25 208.4" stroke="#1100A5" stroke-linecap="round" stroke-linejoin="round"/>
<path d="M55.9299 186.89C58.6424 191.609 61.9272 195.976 65.7099 199.89C67.1137 201.335 68.6247 202.672 70.2299 203.89" stroke="#1100A5" stroke-linecap="round" stroke-linejoin="round"/>
<path d="M128.78 65.73C127.24 65.53 119.61 64.25 116.07 58.34L109.46 59.99L109.14 69.4099L106.99 69.21C106.99 69.21 102.45 48.43 99.3601 47.4C99.3601 47.4 104.51 45.96 105.75 47.4C106.99 48.84 109.05 56.89 109.05 56.89L113.59 55.24C113.59 55.24 108.64 46.16 112.15 39.97L113.59 42.0399C113.59 42.0399 113.18 31.1 120.81 26.36C120.702 27.25 120.702 28.1499 120.81 29.0399C123.21 26.5851 125.467 23.9941 127.57 21.2799C128.253 20.473 128.76 19.5333 129.06 18.52C129.641 18.9323 130.091 19.5035 130.355 20.1652C130.62 20.8268 130.687 21.5508 130.55 22.25C130.496 22.5282 130.412 22.7997 130.3 23.0599L130.83 22.34C133.982 18.0768 136.771 13.5577 139.17 8.82996C139.17 8.82996 140.61 12.54 139.17 15.02C139.17 15.02 144.12 10.02 144.94 1.02002C144.94 1.02002 152.99 5.14001 154.84 18.76C154.84 18.76 157.11 16.7 157.11 14.84C157.11 14.84 157.73 25.57 155.87 28.84C155.87 28.84 158.14 27.39 158.76 25.95C158.592 29.4253 157.987 32.8656 156.96 36.1899C155.96 39.1899 154.48 42.0599 152.16 43.6899C152.16 43.6899 156.23 44.3 157.09 43.1" stroke="#1100A5" stroke-linecap="round" stroke-linejoin="round"/>
<path d="M128.78 65.73C128.868 65.759 128.962 65.759 129.05 65.73H128.78Z" stroke="#1100A5" stroke-linecap="round" stroke-linejoin="round"/>
<path d="M128.76 65.73H128.75" stroke="#1100A5" stroke-linecap="round" stroke-linejoin="round"/>
<path d="M126.78 62.27C126.84 62.47 127.78 65.36 128.78 65.73" stroke="#1100A5" stroke-linecap="round" stroke-linejoin="round"/>
<path d="M143.55 63.38H143.48L143.32 63.45H143.26L142.26 63.86C142.26 63.86 130.11 65.51 126.8 62.22" stroke="#1100A5" stroke-linecap="round" stroke-linejoin="round"/>
<path d="M157.08 43.09C156.72 43.64 150.79 52.5899 147 53.7799C147 53.7799 150.3 54.2 151.74 53.58C151.74 53.58 142.66 62.03 138.74 61.58C138.74 61.58 142.24 63.8399 143.28 63.4399" stroke="#1100A5" stroke-linecap="round" stroke-linejoin="round"/>
<path d="M70.2301 203.88C70.0701 204.63 69.8701 205.53 69.6201 206.59L73.6201 207.73C73.7001 207.36 73.7901 207 73.8701 206.66" stroke="#1100A5" stroke-linecap="round" stroke-linejoin="round"/>
<path d="M116.04 58.34C116.04 58.34 163.68 50.88 144.91 1" stroke="#1100A5" stroke-linecap="round" stroke-linejoin="round"/>
<path d="M197.39 101.97C197.505 102.291 197.645 102.602 197.81 102.9L204.11 111.15C203.486 113.616 202.728 116.046 201.84 118.43" stroke="#1100A5" stroke-linecap="round" stroke-linejoin="round"/>
<path d="M189.88 111.64C189.88 110.25 190.07 97.5599 196.88 94.4399C197.15 94.5977 197.374 94.8234 197.529 95.0945C197.684 95.3655 197.766 95.6725 197.766 95.985C197.766 96.2974 197.684 96.6044 197.529 96.8755C197.374 97.1465 197.15 97.3721 196.88 97.5299C196.708 99.0246 196.876 100.539 197.37 101.96" stroke="#1100A5" stroke-linecap="round" stroke-linejoin="round"/>
<path d="M167.25 157.54L167.57 148.73L167.59 148.23" stroke="#1100A5" stroke-linecap="round" stroke-linejoin="round"/>
<path d="M17.18 185.26C14.0605 189.242 11.3155 193.503 8.97998 197.99C8.97998 197.99 5.05998 202.32 6.91998 204.59C6.91998 204.59 8.77998 205 10.63 202.94C10.63 202.94 12.28 200.67 11.87 203.14C11.87 203.14 11.04 205.41 12.28 206.03C12.28 206.03 13.73 206.86 16.2 203.35C16.8184 203.591 17.3778 203.962 17.8402 204.438C18.3026 204.915 18.6572 205.485 18.88 206.11C18.88 206.11 22.18 208.02 21.15 201.77C21.15 201.77 20.53 198.6 21.98 198.6C22.2118 198.992 22.545 199.314 22.9445 199.532C23.3441 199.75 23.7951 199.857 24.25 199.84C24.25 199.84 26.1 200.05 24.04 194.27C24.04 194.27 23.78 192.96 25.23 190.37" stroke="#1100A5" stroke-linecap="round" stroke-linejoin="round"/>
<path d="M167.97 182.23C167.203 180.897 166.347 179.54 165.4 178.16C165.4 178.16 155.62 167.58 167.24 157.65V157.54C167.24 157.39 167.3 157.04 167.33 156.54C167.33 156.42 167.33 156.29 167.33 156.15V155.65V155.11C167.33 154.92 167.33 154.73 167.33 154.52C167.33 154.31 167.33 154.11 167.33 153.89C167.33 153.41 167.33 152.89 167.39 152.46C167.39 152.28 167.39 152.08 167.39 151.88C167.39 151.49 167.39 151.07 167.39 150.65V150.45C167.39 149.75 167.39 149 167.39 148.23C167.3 142.5 166.64 135.16 164.28 129.23C164.28 129.23 173.17 133.97 169.28 141.94C169.28 141.94 185.9 119.94 185.43 110.31C186.852 110.675 188.254 111.116 189.63 111.63C194.012 113.14 198.079 115.442 201.63 118.42C203.434 119.983 204.889 121.908 205.9 124.07C205.9 124.07 203.8 137.46 188.09 152.2C185.628 154.518 183.033 156.692 180.32 158.71C180.32 158.71 175.43 162.9 176.69 171.88" stroke="#1100A5" stroke-linecap="round" stroke-linejoin="round"/>
<path d="M39.4001 190.93C39.4001 190.93 45.1801 186.84 44.2101 182.15C44.2101 182.15 40.7801 178.35 34.5701 187.04C34.0901 187.72 33.5701 188.46 33.0801 189.29C33.0801 189.29 30.4901 192.14 25.1901 190.4C22.196 189.274 19.4708 187.533 17.1901 185.29C15.193 183.464 13.3346 181.492 11.6301 179.39C11.6301 179.39 11.9101 175.85 19.2501 170.12C23.8388 166.673 28.7638 163.698 33.9501 161.24" stroke="#1100A5" stroke-linecap="round" stroke-linejoin="round"/>
<path d="M75.9001 208.09L75.5601 208.19" stroke="#1100A5" stroke-linecap="round" stroke-linejoin="round"/>
<path d="M52.9501 119.94C52.8101 119.94 50.9501 119.72 47.9501 119.71C38.0001 119.64 15.7101 121.71 4.87012 140.19C4.12681 141.484 3.45903 142.819 2.87012 144.19C2.87012 144.19 -0.499875 155.53 11.6301 161.25L14.4601 162.73L23.2201 167.29" stroke="#1100A5" stroke-linecap="round" stroke-linejoin="round"/>
<path d="M52.18 199.22C56.89 187.75 59.62 173.78 50.44 165.42C50.44 165.42 49.33 164.58 47.44 163.33C41.73 159.58 28.92 152.12 18.01 152.54C18.01 152.54 9.88004 151.54 7.24004 147.36C6.80211 146.691 6.53119 145.926 6.45004 145.13C6.25004 143.32 6.98004 141.13 9.21004 138.37C13.8571 132.546 19.7566 127.845 26.4703 124.614C33.1841 121.384 40.5395 119.707 47.99 119.71" stroke="#1100A5" stroke-linecap="round" stroke-linejoin="round"/>
<path d="M193.56 96.89C190.06 92.17 187.8 88.38 191.79 85.37H191.85L200.2 79.0799C204.84 75.5799 207.75 80.79 212.14 86.61L218.34 94.8399C222.73 100.67 226.76 105.19 222.13 108.69L213.64 115.09C210.2 117.67 207.64 115.46 204.74 111.77L197.39 102.01" stroke="#1100A5" stroke-linecap="round" stroke-linejoin="round"/>
<path d="M73.17 159.78C75.3129 159.78 77.05 157.985 77.05 155.77C77.05 153.555 75.3129 151.76 73.17 151.76C71.0272 151.76 69.29 153.555 69.29 155.77C69.29 157.985 71.0272 159.78 73.17 159.78Z" fill="#0000E2"/>
<path d="M145.31 159.78C147.453 159.78 149.19 157.985 149.19 155.77C149.19 153.555 147.453 151.76 145.31 151.76C143.167 151.76 141.43 153.555 141.43 155.77C141.43 157.985 143.167 159.78 145.31 159.78Z" fill="#0000E2"/>
<path d="M99.3301 158.88C99.3301 158.88 109.74 166.77 119.33 158.88" stroke="#0000E2" stroke-linecap="round" stroke-linejoin="round"/>
<path d="M109.84 164.43C105.611 164.376 101.503 163.013 98.08 160.53C97.6748 160.189 97.416 159.705 97.3568 159.179C97.2975 158.652 97.4423 158.123 97.7614 157.7C98.0804 157.277 98.5495 156.993 99.072 156.905C99.5944 156.818 100.131 156.934 100.57 157.23V157.23C100.94 157.51 109.83 164.02 118.05 157.29C118.473 156.942 119.017 156.777 119.561 156.831C120.106 156.884 120.608 157.152 120.955 157.575C121.302 157.998 121.468 158.542 121.414 159.087C121.361 159.631 121.093 160.133 120.67 160.48C117.641 163.036 113.803 164.435 109.84 164.43V164.43Z" stroke="#0000E2" stroke-miterlimit="10"/>
<path d="M197.6 97.64L207.98 111.43C207.98 111.43 209.26 113.35 213.73 109.52L220.73 104.09C220.967 103.795 221.096 103.428 221.096 103.05C221.096 102.672 220.967 102.305 220.73 102.01L206.07 81.9C206.07 81.9 204.32 79.2399 202.21 80.7799L193.43 87.1699C193.43 87.1699 191.2 89.1699 193.43 92.1699L195.67 95.1699" stroke="#0000E2" stroke-linecap="round" stroke-linejoin="round"/>
<path d="M216.84 110.79C217.409 110.79 217.87 110.329 217.87 109.76C217.87 109.191 217.409 108.73 216.84 108.73C216.271 108.73 215.81 109.191 215.81 109.76C215.81 110.329 216.271 110.79 216.84 110.79Z" stroke="#0000E2" stroke-linecap="round" stroke-linejoin="round"/>
<path d="M134.78 50.46C134.78 50.46 141.65 54.9899 146.93 53.8099" stroke="#0000E2" stroke-linecap="round" stroke-linejoin="round"/>
<path d="M128.85 54C128.85 54 130.44 57.61 138.72 61.64" stroke="#0000E2" stroke-linecap="round" stroke-linejoin="round"/>
<path d="M139.14 15.0299C139.14 15.0299 137.88 27.3799 148.8 28.5499" stroke="#0000E2" stroke-linecap="round" stroke-linejoin="round"/>
<path d="M142.09 10.72C142.09 10.72 142.63 18.6 148.8 17.37" stroke="#0000E2" stroke-linecap="round" stroke-linejoin="round"/>
</svg>
