<svg width="223" height="229" viewBox="0 0 223 229" fill="none" xmlns="http://www.w3.org/2000/svg">
<path d="M97.2836 199.601C149.938 205.277 197.176 167.643 202.792 115.543C208.408 63.4429 170.275 16.6066 117.62 10.9309C64.9654 5.25531 17.7278 42.8896 12.1119 94.9895C6.49612 147.089 44.6288 193.926 97.2836 199.601Z" fill="#0300D8"/>
<path d="M183.521 158.082C183.505 158.229 183.336 159.799 183.336 159.799C184.435 159.673 185.516 159.418 186.556 159.041C188.478 158.516 190.331 157.765 192.077 156.804C194.341 155.547 196.422 153.985 198.262 152.161C200.608 149.819 202.612 147.158 204.216 144.257C206.312 140.462 207.934 136.424 209.045 132.234C209.888 129.176 210.645 126.09 211.238 122.967C211.771 120.857 212.006 118.683 211.934 116.508C211.878 115.93 211.721 115.094 211.036 114.951C210.351 114.808 210.158 115.32 210.014 115.828C209.951 116.155 209.857 116.475 209.733 116.784C209.041 118.259 207.65 116.797 207.707 115.717C207.779 115.044 207.856 114.332 207.171 113.913C207.07 113.843 206.956 113.796 206.836 113.775C206.716 113.753 206.592 113.758 206.474 113.788C206.298 113.851 206.151 113.975 206.061 114.138C205.849 114.522 205.71 114.943 205.651 115.377C205.626 115.611 205.6 115.855 205.574 116.089C205.549 116.324 205.631 116.668 205.351 116.884C204.702 117.407 204.043 116.467 203.768 116.003C202.664 114.157 201.402 114.88 202.385 117.759C202.549 118.25 203.071 119.54 202.876 120.062C202.615 120.744 201.948 120.07 201.674 119.774C201.269 119.208 200.668 118.813 199.987 118.665C199.771 118.618 199.545 118.638 199.34 118.723C197.922 119.419 200.599 122.698 200.916 123.512C201.429 124.859 201.804 126.256 202.036 127.679C202.668 131.827 202.084 136.07 200.354 139.893C197.619 146.042 192.477 150.807 186.937 154.503C185.798 155.268 184.624 156 183.444 156.692L183.521 158.082Z" fill="#0139F2"/>
<path d="M35.664 159.03C35.664 159.03 16.7311 166.305 24.7925 197.264C24.7925 197.264 27.004 204.855 29.0061 206.058C29.8789 206.566 29.9575 205.746 29.8631 205.064C29.7247 204.341 29.5344 203.627 29.2938 202.931C29.3075 202.804 29.9015 202.878 29.9677 202.905C30.6023 203.151 30.721 203.973 31.2988 204.38C31.8766 204.788 32.3398 204.611 32.4799 204.044C32.5349 203.374 32.3909 202.703 32.0661 202.114C32.0661 202.114 31.8586 200.651 33.4019 201.715C34.9451 202.78 35.8668 201.646 34.0617 199.714C33.7334 199.373 33.0352 198.617 33.4659 198.101C33.8965 197.584 34.4772 197.874 34.882 198.056C35.2868 198.238 35.618 197.819 35.6775 197.451C35.6884 197.206 35.621 196.963 35.4851 196.759C35.3493 196.554 35.152 196.398 34.9218 196.313C33.4511 195.582 19.1086 184.533 34.849 162.288L35.664 159.03Z" fill="#0139F2"/>
<path d="M29.8664 161.366C29.8664 161.366 49.7653 199.788 108.404 200.533C108.404 200.533 155.852 199.815 182.346 160.847C182.387 160.779 182.444 160.722 182.512 160.681C182.58 160.64 182.657 160.617 182.736 160.613C183.42 157.38 179.49 151.174 179.49 151.174C179.49 151.174 182.715 149.548 179.482 147.225C176.248 144.903 176.012 140.782 175.97 137.323C175.928 133.865 170.47 132.043 170.47 132.043C174.601 126.498 166.524 120.762 166.524 120.762C172.049 117.755 162.589 108.653 162.589 108.653C166.244 97.4513 155.178 92.903 155.178 92.903C155.627 85.5301 149.844 76.1038 149.844 76.1038C146.839 67.8158 135.553 70.6159 135.553 70.6159C134.619 66.0052 126.795 68.0929 126.795 68.0929C126.795 68.0929 125.916 67.0902 125.818 67.0006C125.413 66.7036 124.959 66.4809 124.477 66.3429C122.242 65.8345 119.897 66.184 117.908 67.3224C116.865 67.8416 116.01 68.6278 114.8 68.6848L114.868 68.6922C114.667 68.173 114.286 67.7432 113.795 67.4811C112.511 66.855 111.108 66.5119 109.68 66.4749C107.338 66.2226 104.646 67.393 103.942 69.804C104.26 68.7823 100.433 67.383 99.7142 67.187C97.146 66.476 94.6109 67.5646 92.5525 68.9908C92.3385 69.1454 91.5889 69.8738 91.267 69.8391C81.1387 67.7605 79.2964 73.3155 79.2964 73.3155C69.1681 71.2369 69.8574 74.2718 67.5614 77.2612C65.2654 80.2507 63.4418 89.4789 63.4418 89.4789C63.4418 89.4789 63.4329 88.0963 57.6844 93.6348C51.9359 99.1733 57.9477 105.841 51.0674 109.245C49.1473 110.073 47.5349 111.482 46.4567 113.274C45.3785 115.066 44.8887 117.151 45.0561 119.235C39.9965 120.397 39.9367 128.917 39.9367 128.917C32.2803 138.148 39.5685 140.207 36.112 142.519C32.6554 144.83 33.8248 149.18 33.8248 149.18C31.7596 151.494 29.9322 160.939 29.9322 160.939C29.9322 160.939 29.8058 161.379 29.8797 161.427" fill="#FF597C"/>
<path d="M183.097 158.54C183.083 158.677 183.178 160.266 183.178 160.266C184.236 159.948 185.255 159.515 186.218 158.975C188.026 158.126 189.726 157.067 191.286 155.82C193.302 154.2 195.086 152.31 196.589 150.204C198.503 147.498 200.028 144.536 201.119 141.406C202.538 137.308 203.451 133.051 203.838 128.732C204.177 125.581 204.37 122.414 204.427 119.232C204.605 117.064 204.478 114.881 204.05 112.747C203.894 112.188 203.595 111.386 202.896 111.37C202.197 111.353 202.092 111.875 202.034 112.412C202.031 112.759 201.994 113.105 201.922 113.446C201.496 115.018 199.908 113.821 199.749 112.738C199.673 112.068 199.63 111.363 198.943 111.062C198.833 111.009 198.714 110.982 198.593 110.981C198.472 110.98 198.352 111.005 198.242 111.055C198.078 111.147 197.954 111.295 197.892 111.472C197.768 111.889 197.721 112.325 197.753 112.759C197.748 113.001 197.758 113.243 197.783 113.483C197.809 113.792 197.93 114.042 197.694 114.312C197.145 114.924 196.338 114.166 195.993 113.705C194.59 112.073 193.474 112.999 194.922 115.671C195.17 116.122 195.91 117.317 195.802 117.858C195.666 118.574 194.897 118.017 194.567 117.775C194.057 117.285 193.388 116.996 192.682 116.96C192.461 116.957 192.245 117.02 192.06 117.139C190.777 118.057 193.971 120.839 194.423 121.588C195.164 122.825 195.77 124.138 196.231 125.504C197.566 129.483 197.711 133.765 196.65 137.826C194.96 144.344 190.737 149.919 185.971 154.498C184.98 155.447 183.954 156.362 182.9 157.256L183.097 158.54Z" fill="#FF3D66"/>
<path d="M31.6885 155.641C31.6885 155.641 9.8726 164.027 19.1641 199.688C19.1641 199.688 21.7143 208.44 23.9942 209.811C24.9865 210.401 25.0885 209.455 24.9755 208.673C24.8151 207.835 24.594 207.009 24.3139 206.203C24.3286 206.067 25.0213 206.142 25.0962 206.179C25.8253 206.465 25.9445 207.465 26.6296 207.884C27.3147 208.303 27.8245 208.151 27.9848 207.487C28.048 206.72 27.8838 205.95 27.5128 205.275C27.5128 205.275 27.2808 203.582 29.0434 204.809C30.806 206.035 31.8853 204.72 29.8149 202.504C29.4431 202.108 28.6307 201.221 29.1272 200.643C29.6238 200.065 30.3097 200.386 30.7611 200.592C31.2125 200.799 31.6097 200.319 31.6744 199.901C31.6912 199.621 31.6184 199.342 31.4664 199.106C31.3145 198.87 31.0914 198.688 30.8293 198.586C29.1437 197.744 12.6146 185.007 30.7536 159.37L31.6885 155.641Z" fill="#FF3D66"/>
<path d="M111.494 149.529C107.942 149.53 104.477 148.426 101.581 146.368C101.208 146.066 100.97 145.628 100.92 145.151C100.869 144.674 101.011 144.196 101.313 143.823C101.615 143.449 102.053 143.212 102.53 143.161C103.007 143.111 103.485 143.252 103.858 143.554C104.149 143.783 110.811 148.912 119.506 143.405C119.911 143.159 120.396 143.081 120.857 143.189C121.318 143.297 121.718 143.581 121.972 143.981C122.225 144.381 122.311 144.865 122.211 145.328C122.111 145.791 121.833 146.196 121.438 146.456C118.486 148.412 115.035 149.479 111.494 149.529Z" fill="#FF45AE"/>
<path d="M37.2996 149.545C36.9945 148.115 37.1329 146.625 37.6963 145.275C38.2597 143.925 39.2213 142.779 40.4528 141.99C39.3912 139.892 39.1409 137.477 39.7499 135.206C40.3589 132.935 41.7843 130.969 43.753 129.684C43.6479 128.399 43.8207 127.105 44.2596 125.893C44.6986 124.68 45.3935 123.576 46.297 122.655C47.0395 122.02 47.7256 121.321 48.3478 120.567C48.7818 119.86 49.1376 119.107 49.4089 118.323C51.1106 114.215 54.2243 110.851 58.1881 108.838C58.8348 108.432 59.6037 108.267 60.3601 108.371C60.8418 108.538 61.2584 108.853 61.5502 109.271C61.842 109.689 61.994 110.188 61.9844 110.698C61.9441 111.721 61.6812 112.723 61.2139 113.635L57.3174 122.866C55.5195 123.473 54.0243 124.749 53.1414 126.429C52.2585 128.108 52.0557 130.063 52.575 131.888C51.2137 133.404 50.1532 135.166 49.4498 137.078C48.9683 138.259 48.7796 139.539 48.8996 140.808C49.122 141.909 49.499 142.973 50.0196 143.969C50.8544 145.543 51.3405 147.278 51.4449 149.057C51.4842 149.95 51.2854 150.837 50.869 151.628C50.4525 152.419 49.8332 153.085 49.0747 153.558C51.0621 157.552 47.5222 169.792 46.6163 174.077C46.4328 174.955 34.9144 164.624 34.0802 163.024C32.0304 159.152 34.899 152.04 37.2996 149.545Z" fill="#FF8099"/>
<path d="M76.5363 84.2686C77.1445 84.0282 78.0338 83.9266 78.2644 84.5338C78.349 84.8409 78.3136 85.1687 78.1656 85.4508C77.0912 87.9107 75.5566 90.1533 74.4356 92.5885C73.3145 95.0237 72.5814 97.7967 73.2725 100.358C73.5512 101.434 74.0187 102.59 73.5842 103.599C72.9171 105.027 70.8897 104.977 69.3306 104.7C67.3932 104.363 61.7214 103.88 60.6171 101.856C59.5128 99.8323 62.2951 96.4511 63.3452 94.857C66.5783 90.0821 71.1751 86.3922 76.5363 84.2686Z" fill="#FF8099"/>
<path d="M80.3827 97.108C81.9335 93.8531 84.1196 90.9414 86.8126 88.5441C89.5338 86.1387 93.0144 84.7671 96.6451 84.6695C97.0548 84.7137 97.5718 84.7694 97.6869 85.1667C97.7251 85.405 97.6743 85.649 97.544 85.852C95.7674 89.6081 94.4139 94.1991 96.4488 97.843C97.2687 99.3919 98.7992 100.85 98.5894 102.613C98.3707 104.643 96.0671 105.687 94.0617 106.073C90.3215 106.805 83.6015 107.531 80.0482 105.796C76.495 104.061 79.117 99.6953 80.3827 97.108Z" fill="#FF8099"/>
<path d="M103.114 96.1731C103.059 92.3544 104.38 88.6435 106.836 85.7186C107.469 84.9776 108.348 84.2335 109.293 84.4439C110.42 84.6937 110.828 86.0403 111.144 87.1401C112.448 91.3734 115.07 95.0793 118.629 97.7171C120.042 98.7971 121.624 99.7768 122.494 101.321C123.364 102.866 123.179 105.214 121.586 105.99C120.994 106.226 120.361 106.343 119.723 106.332C116.528 106.491 109.729 108.137 106.987 106.38C104.246 104.624 103.163 99.0107 103.114 96.1731Z" fill="#FF8099"/>
<path d="M143.321 97.3294C144.74 97.5627 146.119 97.9971 147.416 98.6196C148.06 98.9382 148.608 99.4247 148.999 100.028C149.391 100.631 149.613 101.329 149.642 102.047C149.555 102.717 149.298 103.352 148.894 103.893C148.489 104.434 147.953 104.861 147.335 105.134C146.097 105.662 144.774 105.964 143.43 106.026C138.73 106.506 133.523 106.932 129.757 104.058C128.029 102.611 126.622 100.819 125.626 98.7973C123.696 95.5789 122.404 92.0186 121.822 88.3112C121.714 87.3916 121.119 84.209 122.589 83.943C123.597 83.7457 125.153 86.43 125.816 87.143C130.518 92.1922 136.609 95.7366 143.321 97.3294Z" fill="#FF8099"/>
<path d="M161.09 102.788C160.812 103.198 160.432 103.529 159.988 103.749C159.545 103.969 159.051 104.071 158.556 104.044C158.034 103.996 157.527 103.844 157.065 103.597C153.47 101.789 152.282 97.1605 149.144 94.6808C148.219 94.1308 147.394 93.4278 146.704 92.6018C146.476 92.309 146.355 91.9473 146.361 91.5764C146.367 91.2056 146.499 90.8479 146.736 90.5625C147.337 90.0252 148.292 90.3157 149.024 90.6709C152.184 92.2056 154.538 94.4528 157.21 96.5765C159.008 98.0236 163.038 99.8199 161.09 102.788Z" fill="#FF8099"/>
<path d="M155.635 122.272C157.183 123.14 158.42 124.47 159.173 126.077C159.925 127.684 160.155 129.487 159.83 131.231C159.559 132.564 159.096 134.291 160.242 135.016C160.717 135.229 161.211 135.398 161.717 135.52C163.17 136.141 163.416 138.072 163.364 139.646L163.319 145.562C163.184 147.562 163.426 149.57 164.033 151.481C164.353 152.43 164.931 153.271 165.703 153.91C166.474 154.55 167.408 154.962 168.4 155.1C168.975 155.162 169.681 155.11 169.954 155.603C170.077 155.875 170.096 156.182 170.009 156.468C169.741 157.949 169.098 159.33 168.975 160.837C168.852 162.343 169.712 164.627 171.131 165.096C171.845 165.34 174.682 169.515 175.425 169.397C177.303 169.087 178.426 166.277 179.674 164.763C180.923 163.25 183.022 161.176 183.127 159.559C183.27 158.233 181.789 156.04 181.219 154.824C180.814 153.687 180.348 152.572 179.822 151.486C179.681 151.243 180.702 150.929 180.837 150.677C181.147 150.089 181.282 148.751 180.739 148.387C177.627 146.216 176.234 143.026 176.318 138.496C176.309 137.717 176.136 136.948 175.809 136.241C175.482 135.534 175.009 134.904 174.421 134.393C173.288 133.597 172.074 132.924 170.799 132.384C171.164 131.786 171.482 131.16 171.75 130.513C172.439 128.702 171.611 126.679 170.636 125.014C169.661 123.35 168.285 122.383 166.866 121.075C169.048 120.155 169.207 116.758 167.019 113.986C165.421 111.958 162.97 112.178 160.412 112.563C158.407 112.85 153.556 112.081 153.64 114.498C153.649 114.143 156.906 122.932 155.635 122.272Z" fill="#C24059"/>
<path d="M146.564 86.8426C147.236 87.5767 148.003 88.2171 148.846 88.7465L154.419 92.6138C154.584 92.7303 155.127 93.4599 155.32 93.4116C155.513 93.3633 155.317 92.3454 155.32 92.0398C155.117 87.5496 153.858 83.1706 151.645 79.2584C151.498 78.976 151.335 78.1 151.056 77.9416C150.777 77.7832 150.239 78.3864 149.833 78.4906C148.513 78.8319 145.589 79.5924 144.932 80.923C144.134 82.4654 145.548 85.6475 146.564 86.8426Z" fill="#C24059"/>
<path d="M140.245 78.9973C140.197 79.4732 140.325 79.9502 140.604 80.3386C141.211 81.1146 142.39 81.0739 143.358 80.8822C145.917 80.352 148.312 79.2198 150.346 77.5793C150.425 77.5269 150.485 77.4503 150.517 77.361C150.52 77.274 150.502 77.1876 150.466 77.1087C149.923 75.5099 148.98 74.0766 147.727 72.9449C147.657 72.8766 147.572 72.8271 147.478 72.8015C147.384 72.7758 147.285 72.7747 147.19 72.7982C147.003 72.8866 146.969 73.1099 146.928 73.3029C146.777 73.8654 146.504 74.3879 146.128 74.8334C145.753 75.2789 145.284 75.6366 144.756 75.8814C143.052 76.7636 140.372 76.4451 140.245 78.9973Z" fill="#C24059"/>
<path d="M130.8 73.9624C131.795 72.8853 132.472 71.5471 133.359 70.3696C133.75 69.8493 134.352 69.3023 134.966 69.556C135.175 69.6421 135.352 69.7897 135.474 69.9793C135.597 70.1688 135.659 70.3912 135.651 70.6167C135.602 71.0789 135.432 71.5201 135.158 71.8959C133.697 74.097 131.186 75.3264 128.763 76.289C128.34 76.4605 127.268 76.8877 127.054 76.3119C128.463 75.821 129.744 75.0178 130.8 73.9624Z" fill="#C24059"/>
<path d="M124.7 69.298C124.95 68.6341 125.306 67.804 126.019 67.7822C126.282 67.8024 126.53 67.9147 126.72 68.0992C126.909 68.2837 127.027 68.5289 127.054 68.7919C127.087 69.3207 126.947 69.8457 126.656 70.2885C125.576 71.8913 124.154 73.2345 122.492 74.2214C122.141 74.4599 120.346 75.8158 119.927 75.4055C119.507 74.9951 121.328 74.0367 121.612 73.7811C122.985 72.5547 124.044 71.0175 124.7 69.298Z" fill="#C24059"/>
<path d="M114.946 75.4804C114.872 75.71 114.846 75.9524 114.869 76.1925C114.885 76.3115 114.942 76.4212 115.031 76.5014C115.12 76.5817 115.235 76.6272 115.355 76.6298C115.517 76.5883 115.66 76.4922 115.76 76.3576C116.267 75.779 116.64 75.0951 116.851 74.355C117.062 73.6149 117.107 72.8372 116.981 72.0779C116.672 70.8222 116.131 69.6356 115.384 68.58C115.221 68.2685 114.965 68.016 114.65 67.8581C114.336 67.7003 113.981 67.6452 113.633 67.7004C114.433 70.2637 115.58 72.7163 114.946 75.4804Z" fill="#C24059"/>
<path d="M79.9177 129.812C79.4966 129.816 79.0806 129.905 78.6953 130.075C78.502 130.161 78.3417 130.307 78.2383 130.492C78.1348 130.676 78.0937 130.889 78.1211 131.099C78.1818 131.308 78.3099 131.49 78.4854 131.618C78.6609 131.746 78.8739 131.812 79.091 131.806C79.5231 131.793 79.9446 131.668 80.3143 131.444C80.7113 131.24 81.1596 130.835 80.9556 130.438C80.8755 130.302 80.7567 130.193 80.6144 130.124C80.2346 129.917 79.8236 129.772 79.3973 129.697" fill="#FF8099"/>
<path d="M138.081 129.47C137.733 129.602 137.422 129.817 137.175 130.096C136.928 130.376 136.753 130.711 136.665 131.074C136.629 131.168 136.618 131.271 136.633 131.371C136.648 131.471 136.689 131.566 136.751 131.645C136.885 131.741 137.049 131.783 137.212 131.764C137.662 131.78 138.108 131.678 138.507 131.469C138.703 131.358 138.864 131.195 138.972 130.997C139.081 130.8 139.132 130.576 139.121 130.351C139.106 130.242 139.068 130.137 139.011 130.043C138.953 129.949 138.877 129.867 138.786 129.804C138.696 129.74 138.594 129.696 138.486 129.674C138.377 129.652 138.266 129.652 138.158 129.675" fill="#FF8099"/>
<path d="M191.929 147.56C191.929 147.56 190.079 153.282 192.524 154.769C189.686 157.038 186.539 158.888 183.178 160.266C183.178 160.266 183.364 157.532 182.81 157.265C182.812 157.246 191.131 150.021 191.929 147.56Z" fill="#0139F2"/>
<path d="M164.335 113.42C164.335 113.42 169.193 117.704 165.087 121.091C165.087 121.091 173.429 126.924 169.452 132.604C169.452 132.604 175.447 135.856 174.224 138.685C173.001 141.513 174.709 151.487 178.552 150.994C178.552 150.994 182.613 160.471 181.437 161.953L183.101 160.889C183.101 160.889 183.782 157.321 179.855 151.45C179.855 151.45 182.096 150.251 181.027 148.724C181.027 148.724 177.167 144.982 176.748 142.647C176.748 142.647 176.246 136.593 175.924 136.193C175.388 135.227 174.653 134.384 173.769 133.721C172.885 133.057 171.87 132.588 170.792 132.344C170.792 132.344 174.746 128.073 168.342 122.389L166.857 121.064C166.857 121.064 169.099 119.855 168.635 118.295C168.401 116.282 167.576 114.383 166.263 112.839L164.335 113.42Z" fill="#0139F2"/>
<path d="M145.906 75.1863C145.906 75.1863 149.425 76.6906 148.469 78.8771C148.469 78.8771 147.101 85.5292 155.494 93.2632C155.382 87.859 153.832 82.5822 151.004 77.976C151.004 77.976 148.33 72.6548 147.048 72.3783C147.1 72.3543 147.671 75.0212 145.906 75.1863Z" fill="#0139F2"/>
<path d="M155.546 93.2388C155.546 93.2388 153.82 93.0527 158.666 96.8022C163.512 100.552 162.59 104.804 162.59 104.804C162.59 104.804 163.433 104.668 163.659 104.041C163.659 104.041 164.003 98.3742 157.457 94.2836L155.546 93.2388Z" fill="#0139F2"/>
<path d="M31.6885 155.641C31.6885 155.641 9.8726 164.027 19.1641 199.688C19.1641 199.688 21.7143 208.44 23.9942 209.811C24.9865 210.401 25.0885 209.455 24.9755 208.673C24.8151 207.835 24.594 207.009 24.3139 206.203C24.3286 206.067 25.0213 206.142 25.0962 206.179C25.8253 206.465 25.9445 207.465 26.6296 207.884C27.3147 208.303 27.8245 208.151 27.9848 207.487C28.048 206.72 27.8838 205.95 27.5128 205.275C27.5128 205.275 27.2808 203.582 29.0434 204.809C30.806 206.035 31.8853 204.72 29.8149 202.504C29.4431 202.108 28.6307 201.221 29.1272 200.643C29.6238 200.065 30.3097 200.386 30.7611 200.592C31.2125 200.799 31.6097 200.319 31.6744 199.901C31.6912 199.621 31.6184 199.342 31.4664 199.106C31.3145 198.87 31.0914 198.688 30.8293 198.586C29.1437 197.744 12.6146 185.007 30.7536 159.37L31.6885 155.641Z" stroke="#1100A5" stroke-width="0.806529" stroke-miterlimit="10"/>
<path d="M183.097 158.54C183.083 158.677 183.178 160.266 183.178 160.266C184.236 159.948 185.255 159.515 186.218 158.975C188.026 158.126 189.726 157.067 191.286 155.82C193.302 154.2 195.086 152.31 196.589 150.204C198.503 147.498 200.028 144.536 201.119 141.406C202.538 137.308 203.451 133.051 203.838 128.732C204.177 125.581 204.37 122.414 204.427 119.232C204.605 117.064 204.478 114.881 204.05 112.747C203.894 112.188 203.595 111.386 202.896 111.37C202.197 111.353 202.092 111.875 202.034 112.412C202.031 112.759 201.994 113.105 201.922 113.446C201.496 115.018 199.908 113.821 199.749 112.738C199.673 112.068 199.63 111.363 198.943 111.062C198.833 111.009 198.714 110.982 198.593 110.981C198.472 110.98 198.352 111.005 198.242 111.055C198.078 111.147 197.954 111.295 197.892 111.472C197.768 111.889 197.721 112.325 197.753 112.759C197.748 113.001 197.758 113.243 197.783 113.483C197.809 113.792 197.93 114.042 197.694 114.312C197.145 114.924 196.338 114.166 195.993 113.705C194.59 112.073 193.474 112.999 194.922 115.671C195.17 116.122 195.91 117.317 195.802 117.858C195.666 118.574 194.897 118.017 194.567 117.775C194.057 117.285 193.388 116.996 192.682 116.96C192.461 116.957 192.245 117.02 192.06 117.139C190.777 118.057 193.971 120.839 194.423 121.588C195.164 122.825 195.77 124.138 196.231 125.504C197.566 129.483 197.711 133.765 196.65 137.826C194.96 144.344 190.737 149.919 185.971 154.498C184.98 155.447 183.954 156.362 182.9 157.256L183.097 158.54Z" stroke="#1100A5" stroke-width="0.806529" stroke-miterlimit="10"/>
<path d="M102.859 144.957C102.859 144.957 110.629 151.242 120.629 144.898" stroke="#1100A5" stroke-width="0.806529" stroke-miterlimit="10" stroke-linecap="round"/>
<path d="M111.494 149.529C107.942 149.53 104.477 148.426 101.581 146.368C101.208 146.066 100.97 145.628 100.92 145.151C100.869 144.674 101.011 144.196 101.313 143.823C101.615 143.449 102.053 143.212 102.53 143.161C103.007 143.111 103.485 143.252 103.858 143.554C104.149 143.783 110.811 148.912 119.506 143.405C119.911 143.159 120.396 143.081 120.857 143.189C121.318 143.297 121.718 143.581 121.972 143.981C122.225 144.381 122.311 144.865 122.211 145.328C122.111 145.791 121.833 146.196 121.438 146.456C118.486 148.412 115.035 149.479 111.494 149.529V149.529Z" stroke="#1100A5" stroke-width="0.806529" stroke-miterlimit="10"/>
<path d="M79.6104 143.156C82.2819 143.15 84.4437 141.253 84.4389 138.917C84.4341 136.581 82.2645 134.692 79.593 134.698C76.9214 134.703 74.7595 136.601 74.7643 138.937C74.7691 141.272 76.9388 143.161 79.6104 143.156Z" fill="#1100A5"/>
<path d="M140.445 143.39C143.117 143.385 145.279 141.487 145.274 139.152C145.269 136.816 143.1 134.927 140.428 134.933C137.756 134.938 135.595 136.836 135.6 139.171C135.604 141.507 137.774 143.396 140.445 143.39Z" fill="#1100A5"/>
<path d="M80.4415 132.027C82.1919 132.024 83.6096 131.454 83.6082 130.755C83.6067 130.056 82.1867 129.492 80.4363 129.496C78.686 129.499 77.2683 130.069 77.2697 130.768C77.2711 131.467 78.6912 132.031 80.4415 132.027Z" stroke="#FF4291" stroke-width="0.806529" stroke-miterlimit="10"/>
<path d="M138.747 131.904C140.497 131.901 141.915 131.331 141.914 130.632C141.912 129.933 140.492 129.369 138.742 129.373C136.991 129.376 135.574 129.946 135.575 130.645C135.577 131.344 136.997 131.908 138.747 131.904Z" stroke="#FF4291" stroke-width="0.806529" stroke-miterlimit="10"/>
<path d="M109.443 79.7426C108.975 79.5936 97.1658 85.3275 99.9478 91.746" stroke="#1100A5" stroke-width="0.806529" stroke-miterlimit="10" stroke-linecap="round"/>
<path d="M116.048 79.7247C116.048 79.7247 110.686 87.7227 120.448 92.4658" stroke="#1100A5" stroke-width="0.806529" stroke-miterlimit="10" stroke-linecap="round"/>
<path d="M122.119 79.718C122.96 80.3318 130.665 91.9883 143.718 91.6485" stroke="#1100A5" stroke-width="0.806529" stroke-miterlimit="10" stroke-linecap="round"/>
<path d="M127.409 79.7057C127.409 79.7057 136.039 86.4387 150.91 77.6597" stroke="#1100A5" stroke-width="0.806529" stroke-miterlimit="10" stroke-linecap="round"/>
<path d="M146.352 71.8786C146.352 71.8786 151.907 76.2769 132.901 78.4621" stroke="#1100A5" stroke-width="0.806529" stroke-miterlimit="10" stroke-linecap="round"/>
<path d="M135.915 70.9314C135.915 70.9314 133.389 75.5935 126.329 76.6385" stroke="#1100A5" stroke-width="0.806529" stroke-miterlimit="10" stroke-linecap="round"/>
<path d="M127.155 68.4177C127.155 68.4177 128.621 71.2995 120.413 75.211" stroke="#1100A5" stroke-width="0.806529" stroke-miterlimit="10" stroke-linecap="round"/>
<path d="M115.037 68.5925C115.037 68.5925 119.26 73.2715 115.579 76.6643" stroke="#1100A5" stroke-width="0.806529" stroke-miterlimit="10" stroke-linecap="round"/>
<path d="M104.357 70.0758C104.357 70.0758 107.425 72.6468 107.896 75.2338" stroke="#1100A5" stroke-width="0.806529" stroke-miterlimit="10" stroke-linecap="round"/>
<path d="M91.6826 70.1013C91.6826 70.1013 99.3229 72.4643 103.447 76.2248" stroke="#1100A5" stroke-width="0.806529" stroke-miterlimit="10" stroke-linecap="round"/>
<path d="M79.7111 73.5871C79.7111 73.5871 87.8033 73.3145 94.0832 76.4882" stroke="#1100A5" stroke-width="0.806529" stroke-miterlimit="10" stroke-linecap="round"/>
<path d="M64.8715 85.3695C64.8715 85.3695 74.2325 75.5229 92.6679 79.0891" stroke="#1100A5" stroke-width="0.806529" stroke-miterlimit="10" stroke-linecap="round"/>
<path d="M78.7988 91.3811C78.7988 91.3811 82.4305 81.0353 101.206 79.9801" stroke="#1100A5" stroke-width="0.806529" stroke-miterlimit="10" stroke-linecap="round"/>
<path d="M111.2 171.396C113.409 171.634 115.393 170.037 115.631 167.828C115.869 165.619 114.271 163.635 112.062 163.397C109.853 163.159 107.869 164.756 107.631 166.965C107.393 169.174 108.991 171.158 111.2 171.396Z" fill="#1549EC" stroke="#1100A5" stroke-width="0.806529" stroke-miterlimit="10"/>
<path d="M114.802 164.798C114.802 164.798 123.198 158.133 126.132 160.394C129.066 162.654 125.453 165.413 125.453 165.413C125.453 165.413 127.068 166.909 126.13 168.289C126.13 168.289 128.322 172.028 124.925 173.241C121.528 174.454 115.009 169.557 115.009 169.557C115.009 169.557 116.6 166.61 114.802 164.798Z" fill="#1549EC" stroke="#1100A5" stroke-width="0.806529" stroke-miterlimit="10"/>
<path d="M108.465 164.805C108.465 164.805 100.05 158.184 97.1713 160.449C94.2922 162.715 97.8746 165.46 97.8746 165.46C97.8746 165.46 96.263 166.954 97.1886 168.346C97.1886 168.346 95.0119 172.059 98.4118 173.294C101.812 174.529 108.259 169.559 108.259 169.559C108.259 169.559 106.681 166.616 108.465 164.805Z" fill="#1549EC" stroke="#1100A5" stroke-width="0.806529" stroke-miterlimit="10"/>
<path d="M112.167 163.418C112.167 163.418 114.17 169.012 112.631 171.294C113.384 171.102 114.063 170.691 114.582 170.112C115.102 169.534 115.437 168.815 115.547 168.045C115.547 168.045 116.258 164.836 112.167 163.418Z" fill="#1100A5"/>
<path d="M125.409 160.049C125.409 160.049 125.687 164.431 123.67 165.013C123.67 165.013 126.065 167.423 124.556 168.237C124.556 168.237 127.137 171.762 124.227 173.402C124.227 173.402 127.563 172.933 126.657 169.717L126.101 168.285C126.372 167.809 126.453 167.248 126.328 166.714C126.202 166.181 125.879 165.715 125.424 165.409C125.424 165.409 127.898 163.327 127.031 161.487C127.011 161.485 126.167 160.16 125.409 160.049Z" fill="#1100A5"/>
<path d="M107.259 163.915C106.934 164.513 106.451 165.011 105.862 165.353C105.273 165.695 104.602 165.869 103.921 165.855C103.921 165.855 109.513 167.632 103.926 168.559C103.926 168.559 109.174 169.125 105.601 171.325L108.259 169.559C108.259 169.559 106.749 167.63 108.465 164.805L107.259 163.915Z" fill="#1100A5"/>
<path d="M158.759 106.464L168.726 111.871C168.726 111.871 178.916 108.893 175.239 106.375C175.239 106.375 172.725 104.979 164.648 103.921C164.746 103.932 164.652 105.076 158.759 106.464Z" fill="#0139F2"/>
<path d="M163.681 104.567C163.644 96.5788 155.534 93.2573 155.534 93.2573C155.984 85.8844 150.201 76.4482 150.201 76.4482C147.147 68.155 135.901 70.9593 135.901 70.9593C134.976 66.3496 127.142 68.446 127.142 68.446C126.839 68.0617 126.513 67.6969 126.164 67.3537C125.762 67.0567 125.313 66.8313 124.834 66.6874C122.596 66.1829 120.25 66.5318 118.255 67.6658C117.27 68.2011 116.366 68.982 115.148 69.0283L115.226 69.0367C115.024 68.514 114.639 68.0829 114.142 67.8245C112.859 67.1955 111.456 66.849 110.028 66.8086C107.696 66.5573 104.994 67.7364 104.3 70.1388C104.608 69.1159 100.792 67.7177 100.072 67.5217C97.5043 66.8107 94.9594 67.8983 92.9097 69.3353C92.687 69.4791 91.9362 70.2172 91.624 70.1836C81.486 68.1039 79.6525 73.6697 79.6525 73.6697C69.5144 71.59 70.2038 74.625 67.9088 77.6047C65.6139 80.5844 63.7892 89.8223 63.7892 89.8223C63.7892 89.8223 63.7901 88.4408 58.0416 93.9793C57.1358 94.8941 56.4254 95.9834 55.9536 97.1811C55.4818 98.3789 55.2584 99.6601 55.297 100.947C55.297 100.947 66.5701 110.442 115.783 109.095C164.996 107.748 163.681 104.567 163.681 104.567Z" fill="#FFFFE7"/>
<path d="M76.9251 84.3202C77.5224 84.0886 78.4117 83.9871 78.6423 84.5942C78.7269 84.9013 78.6916 85.2291 78.5435 85.5112C77.4691 87.9711 75.9398 90.1649 74.8145 92.6391C73.6893 95.1133 72.9604 97.8474 73.6417 100.408C73.9204 101.484 74.3879 102.64 73.9643 103.64C73.2864 105.077 71.2589 105.026 69.6998 104.75C67.7635 104.403 62.0906 103.929 60.9971 101.897C59.9036 99.8645 62.6643 96.5007 63.7242 94.9077C66.965 90.1362 71.5638 86.4477 76.9251 84.3202Z" fill="#D9D9A9"/>
<path d="M80.8105 97.1739C82.3518 93.9148 84.5321 90.9985 87.222 88.5982C89.945 86.1956 93.4246 84.8245 97.0545 84.7236C97.4643 84.7678 98.03 84.8288 98.0866 85.2198C98.1227 85.4547 98.0722 85.6947 97.9446 85.8953C96.168 89.6513 94.8244 94.2435 96.8593 97.8873C97.6782 99.446 99.2096 100.894 98.9987 102.667C98.78 104.697 96.4669 105.74 94.4711 106.127C90.7299 106.868 84.0109 107.585 80.4469 105.859C76.8828 104.132 79.5058 99.757 80.8105 97.1739Z" fill="#D9D9A9"/>
<path d="M103.497 96.2736C103.441 92.4546 104.762 88.7432 107.219 85.8192C107.842 85.077 108.722 84.333 109.676 84.5444C110.795 84.7835 111.211 86.1408 111.527 87.2407C112.827 91.4758 115.45 95.1828 119.012 97.8177C120.415 98.8966 121.997 99.8764 122.877 101.422C123.756 102.967 123.564 105.305 121.96 106.08C121.374 106.325 120.742 106.446 120.106 106.433C116.913 106.582 110.103 108.236 107.361 106.48C104.619 104.724 103.541 99.0712 103.497 96.2736Z" fill="#D9D9A9"/>
<path d="M161.48 102.839C161.203 103.251 160.824 103.585 160.379 103.806C159.935 104.028 159.441 104.131 158.945 104.106C158.421 104.054 157.911 103.902 157.444 103.658C153.85 101.849 152.671 97.2218 149.524 94.7313C148.598 94.1835 147.772 93.4803 147.084 92.6524C146.859 92.3605 146.739 92.0008 146.745 91.6322C146.75 91.2635 146.881 90.9076 147.115 90.6228C147.727 90.0769 148.671 90.3761 149.413 90.7323C152.573 92.2671 154.926 94.5142 157.599 96.6379C159.398 98.0753 163.417 99.8803 161.48 102.839Z" fill="#D9D9A9"/>
<path d="M146.943 86.9037C147.623 87.6331 148.393 88.2732 149.235 88.8086L154.798 92.6749C154.963 92.7914 155.516 93.5221 155.699 93.4727C155.882 93.4233 155.697 92.3967 155.689 92.0999C155.485 87.6085 154.23 83.2276 152.025 79.3097C151.878 79.0274 151.716 78.1513 151.437 77.9929C151.158 77.8345 150.608 78.4464 150.202 78.5507C148.882 78.892 145.968 79.6535 145.302 80.9831C144.523 82.5275 145.937 85.7096 146.943 86.9037Z" fill="#BDBD93"/>
<path d="M140.623 79.0576C140.58 79.5319 140.712 80.0055 140.992 80.3902C141.6 81.1662 142.777 81.1352 143.746 80.9338C146.302 80.4093 148.695 79.2797 150.724 77.6397C150.805 77.5854 150.866 77.505 150.896 77.4115C150.907 77.327 150.888 77.2414 150.843 77.1689C150.31 75.5681 149.37 74.1335 148.114 73.0062C148.043 72.9376 147.955 72.8881 147.86 72.8623C147.764 72.8365 147.664 72.8352 147.568 72.8585C147.39 72.948 147.347 73.1702 147.306 73.3632C147.153 73.9252 146.88 74.447 146.504 74.8924C146.129 75.3377 145.661 75.6957 145.133 75.9416C143.431 76.814 140.761 76.4967 140.623 79.0576Z" fill="#C7C79B"/>
<path d="M131.227 74.0282C132.14 72.8747 132.994 71.6756 133.786 70.4354C134.178 69.9053 134.78 69.3583 135.409 69.5643C135.616 69.6519 135.791 69.8 135.911 69.9892C136.032 70.1784 136.092 70.3998 136.085 70.624C136.045 71.0884 135.873 71.532 135.591 71.9031C134.141 74.0955 131.63 75.325 129.196 76.2962C128.764 76.4667 127.702 76.8851 127.487 76.3191C128.888 75.8427 130.166 75.0601 131.227 74.0282Z" fill="#C7C79B"/>
<path d="M125.079 69.3587C125.339 68.686 125.694 67.8657 126.407 67.8438C126.668 67.8638 126.914 67.9747 127.102 68.1572C127.289 68.3398 127.407 68.5824 127.434 68.8428C127.47 69.3708 127.333 69.8962 127.046 70.3404C125.967 71.9508 124.541 73.2978 122.871 74.282C122.529 74.5215 120.726 75.8667 120.307 75.4563C119.887 75.046 121.717 74.0886 122.001 73.833C123.367 72.6064 124.422 71.0729 125.079 69.3587Z" fill="#C7C79B"/>
<path d="M115.244 75.8283C115.166 76.0536 115.14 76.2938 115.169 76.5307C115.184 76.6497 115.241 76.7593 115.33 76.8396C115.419 76.9198 115.534 76.9654 115.654 76.9679C115.818 76.9305 115.962 76.8335 116.059 76.6957C116.567 76.1175 116.94 75.4336 117.151 74.6934C117.362 73.9532 117.406 73.1753 117.28 72.416C116.971 71.1603 116.43 69.9738 115.683 68.9181C115.52 68.6066 115.264 68.3541 114.95 68.1963C114.635 68.0385 114.28 67.9833 113.932 68.0386C114.695 70.5781 115.842 73.0308 115.244 75.8283Z" fill="#C7C79B"/>
<path d="M146.287 75.2272C146.287 75.2272 149.806 76.7315 148.85 78.918C148.85 78.918 147.492 85.5614 155.875 93.3041C155.766 87.9011 154.22 82.6248 151.395 78.0179C151.395 78.0179 148.712 72.6956 147.439 72.4203C147.49 72.3963 148.05 75.0816 146.287 75.2272Z" fill="#0139F2"/>
<path d="M155.925 93.2992C155.925 93.2992 154.198 93.1131 159.044 96.8626C163.89 100.612 162.979 104.856 162.979 104.856C162.979 104.856 163.822 104.72 164.048 104.093C164.048 104.093 164.391 98.4357 157.845 94.345L155.925 93.2992Z" fill="#0139F2"/>
<path d="M109.821 79.8032C109.365 79.6454 97.5447 85.388 100.328 91.7968" stroke="#6C66A5" stroke-width="0.806529" stroke-miterlimit="10" stroke-linecap="round"/>
<path d="M116.427 79.7849C116.427 79.7849 111.074 87.7839 120.836 92.5271" stroke="#6C66A5" stroke-width="0.806529" stroke-miterlimit="10" stroke-linecap="round"/>
<path d="M122.506 79.769C123.337 80.3915 131.052 92.0393 144.095 91.7083" stroke="#6C66A5" stroke-width="0.806529" stroke-miterlimit="10" stroke-linecap="round"/>
<path d="M126.8 80.124C126.8 80.124 135.419 86.8656 150.292 78.0768" stroke="#6C66A5" stroke-width="0.806529" stroke-miterlimit="10" stroke-linecap="round"/>
<path d="M146.661 72.0304C146.661 72.0304 152.226 76.4298 133.22 78.6149" stroke="#6C66A5" stroke-width="0.806529" stroke-miterlimit="10" stroke-linecap="round"/>
<path d="M136.303 70.993C136.303 70.993 133.767 75.6541 126.718 76.6903" stroke="#6C66A5" stroke-width="0.806529" stroke-miterlimit="10" stroke-linecap="round"/>
<path d="M127.544 68.4794C127.544 68.4794 129.01 71.3612 120.802 75.2726" stroke="#6C66A5" stroke-width="0.806529" stroke-miterlimit="10" stroke-linecap="round"/>
<path d="M115.285 69.3195C115.285 69.3195 119.508 73.9985 115.826 77.3913" stroke="#6C66A5" stroke-width="0.806529" stroke-miterlimit="10" stroke-linecap="round"/>
<path d="M104.376 70.1669C104.376 70.1669 107.454 72.7388 107.925 75.3259" stroke="#6C66A5" stroke-width="0.806529" stroke-miterlimit="10" stroke-linecap="round"/>
<path d="M92.0615 70.1619C92.0615 70.1619 99.7018 72.525 103.826 76.2855" stroke="#6C66A5" stroke-width="0.806529" stroke-miterlimit="10" stroke-linecap="round"/>
<path d="M80.0903 73.6477C80.0903 73.6477 88.1922 73.3763 94.4721 76.5501" stroke="#6C66A5" stroke-width="0.806529" stroke-miterlimit="10" stroke-linecap="round"/>
<path d="M65.2707 85.4224C65.2707 85.4224 74.6317 75.5758 93.0671 79.142" stroke="#6C66A5" stroke-width="0.806529" stroke-miterlimit="10" stroke-linecap="round"/>
<path d="M79.188 91.4425C79.188 91.4425 82.8197 81.0968 101.595 80.0415" stroke="#6C66A5" stroke-width="0.806529" stroke-miterlimit="10" stroke-linecap="round"/>
<path d="M143.997 98.1225C145.417 98.3487 146.797 98.7799 148.093 99.4028C148.737 99.7219 149.282 100.209 149.672 100.812C150.062 101.415 150.282 102.112 150.309 102.829C150.229 103.501 149.973 104.139 149.568 104.681C149.164 105.222 148.624 105.648 148.003 105.916C146.763 106.441 145.441 106.747 144.096 106.818C139.397 107.298 134.131 107.717 130.424 104.841C128.694 103.395 127.287 101.603 126.294 99.5795C124.363 96.3611 123.072 92.8008 122.49 89.0934C122.381 88.1836 121.787 84.9912 123.257 84.7253C124.264 84.5377 125.81 87.2209 126.483 87.935C131.193 92.9788 137.285 96.5223 143.997 98.1225Z" fill="#D9D9A9"/>
<path d="M169.05 162.611C168.798 162.93 168.537 163.247 168.276 163.564C164.222 168.049 159.743 172.13 154.903 175.751C149.806 179.802 144.429 183.487 138.812 186.777C132.486 190.535 125.77 193.594 118.782 195.899C111.525 198.308 103.916 199.49 96.27 199.393C93.4049 199.324 90.549 199.04 87.7267 198.541C87.7267 198.541 111.097 205.403 140.01 194.071C168.923 182.74 183.062 160.885 183.062 160.885C183.062 160.885 183.1 157.514 179.816 151.446C178.987 149.985 176.462 152.535 175.996 153.008C173.269 155.882 171.488 159.489 169.05 162.611Z" fill="#0139F2"/>
<path d="M30.2288 161.671C30.2288 161.671 50.1374 200.095 108.767 200.839C108.767 200.839 156.215 200.111 182.719 161.144C182.759 161.077 182.815 161.021 182.881 160.98C182.947 160.939 183.022 160.915 183.1 160.908C183.783 157.686 179.854 151.469 179.854 151.469C179.854 151.469 183.079 149.843 179.855 147.522C176.631 145.201 176.385 141.079 176.333 137.619C176.282 134.159 170.834 132.329 170.834 132.329C174.974 126.794 166.899 121.049 166.899 121.049C172.414 118.041 162.954 108.939 162.954 108.939C166.618 97.7381 155.551 93.1997 155.551 93.1997C155.991 85.8257 150.218 76.3906 150.218 76.3906C147.163 68.1071 135.918 70.9017 135.918 70.9017C134.993 66.3018 127.159 68.3884 127.159 68.3884C126.853 68.0064 126.527 67.6418 126.181 67.2961C125.781 66.9982 125.33 66.7757 124.85 66.6396C122.612 66.1302 120.264 66.4793 118.271 67.6179C117.287 68.1434 116.384 68.9244 115.165 68.9707C115.189 68.9816 115.216 68.9845 115.243 68.9791C115.038 68.4583 114.654 68.0282 114.159 67.7669C112.875 67.1424 111.473 66.7962 110.045 66.751C107.714 66.4997 105.011 67.6788 104.318 70.0811C104.625 69.0583 100.808 67.6698 100.08 67.4631C97.5106 66.7618 94.9764 67.8407 92.9755 69.2829C92.7517 69.4365 92.0021 70.1649 91.69 70.1313C81.5519 68.0516 79.7184 73.6174 79.7184 73.6174C69.5803 71.5377 70.2697 74.5726 67.9747 77.5523C65.6798 80.5321 63.855 89.77 63.855 89.77C63.855 89.77 63.8559 88.3885 58.1063 93.9367C52.3568 99.485 58.3598 106.142 51.4904 109.537C49.5703 110.365 47.9578 111.774 46.8797 113.566C45.8015 115.358 45.3117 117.443 45.4791 119.527C40.4195 120.689 40.3586 129.219 40.3586 129.219C32.712 138.451 39.9904 140.509 36.5447 142.812C33.099 145.115 34.2576 149.473 34.2576 149.473C32.1836 151.776 30.365 161.232 30.365 161.232C30.365 161.232 30.2288 161.671 30.3124 161.72" stroke="#1100A5" stroke-width="0.806529" stroke-linejoin="round"/>
<path d="M164.324 103.817C166.795 104.09 169.248 104.509 171.669 105.073C172.985 105.308 174.248 105.779 175.398 106.462C176.791 107.451 176.163 108.518 174.956 109.375C170.629 112.343 165.325 113.212 160.217 113.806C154.482 114.461 148.728 115.015 142.969 115.529C133.573 116.362 124.155 117.024 114.722 117.291C107.681 117.518 100.639 117.47 93.6187 117.049C88.1061 116.741 82.6129 116.149 77.1613 115.275C72.3119 114.486 67.5757 113.472 62.8325 112.339C58.9829 111.43 55.2372 110.474 51.4503 109.533C24.4012 102.838 55.1116 100.927 55.1116 100.927C55.1116 100.927 60.1972 109.321 111.339 109.12C162.481 108.918 164.324 103.817 164.324 103.817Z" fill="white" stroke="#1100A5" stroke-width="0.806529" stroke-miterlimit="10"/>
<path d="M85.0106 80.2672C84.6069 80.0013 84.2932 79.6193 84.1106 79.1716C83.9281 78.7239 83.8855 78.2313 83.9883 77.7589C84.1731 77.3167 84.4103 76.8983 84.6949 76.5127C85.1843 75.466 85.5698 74.3737 85.8459 73.2517C85.9903 72.6902 86.2781 72.1759 86.6811 71.7592C87.0842 71.3424 87.5885 71.0375 88.1449 70.8744C89.0394 70.7241 90.2594 71.0333 90.6401 70.1565C90.4074 68.8369 90.6113 67.4774 91.2207 66.284C91.8302 65.0906 92.8121 64.1285 94.0176 63.5433C94.3022 63.4894 94.5729 63.3783 94.8133 63.2166C95.0537 63.0549 95.2588 62.8461 95.416 62.6029C95.5733 62.3596 95.6795 62.0869 95.7282 61.8013C95.7769 61.5157 95.767 61.2233 95.6993 60.9416C95.8479 59.5956 96.4607 58.3433 97.4322 57.3999C98.4037 56.4565 99.6734 55.8808 101.023 55.7718C100.843 55.246 100.826 54.6779 100.976 54.1425C101.125 53.6071 101.433 53.1296 101.86 52.773C102.726 52.0843 103.531 51.3226 104.266 50.4962C105.795 48.3122 104.704 45.3327 103.573 42.9211C106.093 44.4461 109.007 45.3326 111.283 47.1965C113.56 49.0603 115.059 52.4491 113.525 54.968C114.46 54.7924 115.426 54.9417 116.265 55.391C117.103 55.8404 117.762 56.5628 118.134 57.4385C118.364 58.0456 118.451 58.7063 118.723 59.2981C118.994 59.8899 119.505 60.3694 119.799 61.0326C119.979 61.3231 120.063 61.6624 120.041 62.0033C120.018 62.3441 119.89 62.6694 119.673 62.9336C120.309 63.0582 120.913 63.3075 121.452 63.6671C121.991 64.0267 122.453 64.4894 122.812 65.0286C123.102 65.6549 123.515 66.2164 124.026 66.6793C124.439 66.9705 124.971 67.0673 125.341 67.3933C127.061 68.832 124.21 72.2947 125.976 73.6791C126.348 73.9759 126.908 74.1842 126.926 74.6598C126.944 75.1355 126.487 75.3428 126.545 75.724C126.602 76.1053 127.231 76.2224 127.677 76.3001C128.358 76.5097 128.928 76.9814 129.262 77.6114C129.596 78.2415 129.666 78.9783 129.456 79.6598C129.216 80.3304 128.846 80.9472 128.368 81.4748C127.889 82.0024 127.311 82.4303 126.667 82.7343C124.617 83.7503 122.414 84.423 120.147 84.7256C114.185 85.7877 108.14 86.3152 102.085 86.3018C98.8263 86.4223 95.5733 85.9479 92.4851 84.902C90.9724 84.3134 89.583 83.4474 88.3884 82.3485C87.2573 81.3976 86.2184 81.1474 85.0106 80.2672Z" fill="#FFFFE7"/>
<path d="M120.155 83.0882C119.468 82.777 118.912 82.2352 118.583 81.5569C118.083 80.3384 118.762 78.8918 118.291 77.6765C117.697 76.142 115.658 75.7347 114.697 74.3975C113.736 73.0603 114.238 70.8743 113.918 69.0831C113.889 68.805 113.799 68.5368 113.654 68.2976C113.509 68.0585 113.313 67.8544 113.08 67.7C112.695 67.5496 112.284 67.4751 111.87 67.4807C110.749 67.2761 109.734 66.6874 108.999 65.8159C108.265 64.9444 107.857 63.8443 107.845 62.7046C107.819 61.4324 108.207 60.1861 108.949 59.1524C107.586 58.5219 106.019 57.5832 106.013 56.0825C106.091 55.3416 106.357 54.633 106.787 54.0245C107.64 52.7121 108.197 51.2298 108.42 49.6806C108.512 48.9111 108.411 48.1308 108.125 47.4106C107.839 46.6904 107.377 46.0531 106.782 45.5565C108.151 46.8449 109.206 48.4307 109.865 50.1916C110.185 51.0711 110.321 52.0068 110.267 52.941C110.212 53.8753 109.966 54.7885 109.546 55.6245C109.42 55.7959 109.359 56.0059 109.373 56.2178C109.422 56.3795 109.521 56.5215 109.655 56.6232C110.729 57.6469 112.059 58.8561 111.825 60.3013C111.704 60.6811 111.644 61.0778 111.649 61.4764C111.765 62.1402 112.529 62.4693 113.089 62.7665C114.126 63.2977 115.036 64.0491 115.753 64.9682C116.145 65.5529 116.58 66.1078 117.054 66.6283C117.393 66.9609 117.799 67.2218 118.181 67.5294C118.985 68.1864 119.64 69.0083 120.099 69.9397C120.559 70.8712 120.813 71.8905 120.846 72.9287C120.813 73.2689 120.861 73.6119 120.984 73.9305C121.132 74.1648 121.325 74.3669 121.552 74.5246L125.038 77.2491C126.138 78.1178 127.348 79.2548 127.15 80.6348C126.767 81.8314 125.955 82.844 124.87 83.478C123.574 84.1475 121.427 83.7385 120.155 83.0882Z" fill="#D9D9A9"/>
<path d="M116.233 82.675C116.387 81.8103 116.199 80.9195 115.709 80.1908C115.218 79.4621 114.464 78.9525 113.604 78.7698C112.915 78.6308 112.265 78.3435 111.698 77.9279C111.131 77.5123 110.661 76.9785 110.321 76.3632C109.646 75.1167 109.291 73.722 109.288 72.3044C109.327 71.5842 109.238 70.8628 109.024 70.1739C108.447 68.7498 106.792 68.1766 105.522 67.3193C104.18 66.3554 103.195 64.974 102.721 63.3909C102.247 61.8079 102.311 60.1124 102.903 58.5695C103.236 57.9487 103.481 57.2841 103.629 56.5951C103.675 56.1659 103.623 55.7358 103.689 55.3087C103.885 54.5641 104.243 53.8716 104.736 53.2801C105.597 52.1449 106.17 50.8185 106.406 49.4139C106.516 48.711 106.457 47.9921 106.234 47.3164C106.012 46.6406 105.633 46.0271 105.128 45.526C105.356 45.8728 105.507 46.2648 105.571 46.6752C105.634 47.0857 105.607 47.5049 105.493 47.9043C105.366 48.7054 105.122 49.4836 104.771 50.2146C104.159 51.0969 103.485 51.9345 102.754 52.721C102.323 53.1732 101.939 53.6674 101.608 54.1962C101.279 54.872 101.196 55.6413 101.373 56.3717C100.309 57.3686 99.4134 58.532 98.7224 59.8164C97.8597 61.411 97.3483 63.4085 98.164 64.9965C98.4709 65.4204 98.7165 65.8854 98.8934 66.3778C98.9446 66.9568 98.8817 67.54 98.7084 68.0947C98.5425 68.9461 98.576 69.8243 98.806 70.6606C99.036 71.497 99.4563 72.2687 100.034 72.9155C101.102 74.0866 102.707 74.8517 103.309 76.3179C103.451 76.8088 103.627 77.2895 103.835 77.7563C104.592 79.0616 106.537 79.1528 107.504 80.3426C108.471 81.5324 107.645 84.2462 108.666 85.4022C109.686 86.5583 111.729 85.5449 113.126 85.1329C114.522 84.7209 115.889 84.217 116.233 82.675Z" fill="#D9D9A9"/>
<path d="M96.0424 60.4953C96.0958 61.2454 95.9844 61.998 95.716 62.7004C95.4103 63.1842 95.0058 63.598 94.5291 63.9146C93.5113 64.6276 92.6273 65.5145 91.9176 66.5345C91.5675 67.0474 91.344 67.636 91.2656 68.2521C91.1872 68.8681 91.2561 69.494 91.4666 70.0782C91.6361 70.3605 91.7241 70.6842 91.7211 71.0135C91.6804 71.1708 91.6142 71.3203 91.5253 71.4562C91.3515 71.8116 91.262 72.2023 91.2638 72.5979C91.2657 72.9935 91.3589 73.3833 91.5361 73.7371C91.969 74.5732 92.8804 75.2735 92.7512 76.1971C92.661 76.5424 92.5422 76.8795 92.3959 77.2049C92.0237 78.3688 92.7828 79.5658 93.2222 80.7085C93.5212 81.4787 93.6869 82.2942 93.7123 83.12C93.6894 83.4965 93.7287 83.8742 93.8286 84.2379C93.9689 84.5224 94.1705 84.7723 94.4188 84.9697C94.6671 85.1671 94.9561 85.3071 95.2649 85.3796C96.9799 85.9493 98.859 85.3623 100.516 84.6428C101.368 84.3657 102.115 83.8329 102.654 83.1167C102.898 82.749 102.987 82.2994 102.9 81.8664C102.814 81.4335 102.559 81.0525 102.192 80.807C101.91 80.6779 101.587 80.6529 101.293 80.5423C100.907 80.3432 100.574 80.0537 100.324 79.6986C100.074 79.3434 99.9127 78.9331 99.8549 78.5024C99.7484 77.6372 99.4768 76.8005 99.0548 76.0377C98.8369 75.743 98.557 75.4998 98.2347 75.3252C97.9125 75.1507 97.5558 75.049 97.1899 75.0274C97.1297 73.8779 96.7099 72.7764 95.9899 71.8783C95.5799 71.4935 95.2722 71.0126 95.0946 70.4791C95.0734 69.8714 95.2308 69.2707 95.5473 68.7515C96.1148 67.4471 96.3238 66.0149 96.1524 64.6028C96.0855 64.2764 96.0683 63.9419 96.1014 63.6104C96.2376 63.1981 96.4063 62.7971 96.6057 62.4114C97.02 61.2225 96.5293 59.9162 96.9078 58.6938C96.2085 58.5889 96.0636 60.0239 96.0424 60.4953Z" fill="#D9D9A9"/>
<path d="M111.108 48.737C111.358 49.5239 111.415 50.3689 111.686 51.1481C112.033 51.7978 112.229 52.5171 112.259 53.2527C112.209 53.721 111.959 54.2072 112.111 54.6282C112.255 54.8612 112.455 55.0554 112.691 55.1941C114.223 56.2954 115.28 57.9363 115.65 59.7862C115.674 60.5367 115.943 61.2588 116.416 61.8425C116.635 61.997 116.863 62.137 117.101 62.2617C117.399 62.4714 117.674 62.7128 117.921 62.9818L120.492 65.5879C120.902 65.958 121.245 66.3956 121.507 66.8816C121.865 67.6801 121.851 68.7344 122.601 69.1903C122.736 69.2512 122.864 69.3279 122.981 69.4188C123.178 69.6078 123.203 69.9165 123.369 70.1219C123.512 70.2586 123.7 70.3379 123.898 70.3447C124.095 70.3514 124.289 70.2851 124.441 70.1584C124.736 69.8887 124.931 69.5273 124.995 69.1327C125.062 68.9658 125.082 68.7838 125.052 68.6066C125.022 68.4294 124.945 68.2637 124.827 68.1277C124.687 68.0304 124.531 67.9569 124.367 67.9103C123.535 67.5738 123.097 66.6879 122.602 65.9733C122.296 65.5748 121.968 65.1935 121.62 64.8311C121.436 64.6218 121.232 64.4313 121.01 64.2621C120.268 63.7282 119.106 63.6128 118.773 62.7677C118.681 62.3184 118.681 61.8551 118.772 61.4056C118.805 61.1695 118.769 60.9287 118.668 60.7127C118.567 60.4968 118.405 60.315 118.202 60.1896C118 60.1522 117.804 60.0845 117.622 59.9889C117.421 59.8389 117.402 59.5605 117.369 59.3103C117.278 58.6647 117.038 58.0491 116.668 57.5124C116.297 56.9757 115.807 56.5327 115.235 56.2184C114.742 55.948 114.196 55.7905 113.715 55.4919C113.465 55.3608 113.251 55.1711 113.09 54.9389C112.929 54.7067 112.827 54.4391 112.793 54.1589C112.773 53.614 113.123 53.109 113.073 52.5706C113.046 52.3764 112.989 52.1874 112.906 52.0099L111.723 48.9809C111.55 48.4637 111.292 47.979 110.959 47.5466C110.824 47.3687 110.653 47.2211 110.458 47.1133C110.262 47.0055 110.046 46.9399 109.823 46.9208C110.427 47.38 110.876 48.0141 111.108 48.737Z" fill="#D9D9A9"/>
</svg>
