<svg width="229" height="205" viewBox="0 0 229 205" fill="none" xmlns="http://www.w3.org/2000/svg">
<path d="M130.447 195.61C184.421 195.61 228.177 152.316 228.177 98.91C228.177 45.504 184.421 2.20996 130.447 2.20996C76.4718 2.20996 32.7166 45.504 32.7166 98.91C32.7166 152.316 76.4718 195.61 130.447 195.61Z" fill="#0300D8"/>
<path d="M154.187 1.33008C154.187 1.33008 162.517 8.39009 169.357 7.78009C169.357 7.78009 127.907 62.7201 150.357 133.47L150.657 134.41C150.657 134.41 163.937 167.04 179.147 182.89C179.147 182.89 132.227 212.57 80.7367 182.95C80.7367 182.95 69.4267 161.55 67.5667 147.61C67.5667 147.61 50.7367 79.9901 101.737 35.2701C101.737 35.2701 116.607 19.8901 144.057 7.97009C144.057 7.97009 149.057 6.64009 150.657 5.47009L149.027 6.64008L154.187 1.33008Z" fill="#FFC001"/>
<path d="M67.5366 146.87L69.9466 157.03C69.9466 157.03 64.6066 164.2 43.4466 166.58C43.4466 166.58 12.9166 165.13 5.34659 130.27L2.77658 120.13H2.31659L1.00659 116.07C1.00659 116.07 1.14658 113.35 3.43658 116.07L4.58658 118.07C4.58658 118.07 5.91658 117.92 5.24658 114.82C5.24658 114.82 6.24659 108.37 8.34659 114.92L10.2566 116.03C10.9155 115.606 11.476 115.045 11.9003 114.386C12.3246 113.728 12.603 112.985 12.7166 112.21C12.9866 109.67 15.9366 111.72 15.0266 114.21C15.0266 114.21 15.0266 116.21 16.8466 116.48L17.7466 116.26C17.7466 116.26 20.8666 113.26 21.9166 115.81L21.9766 115.96C22.9766 118.75 21.3866 116.26 21.3866 116.26C20.684 118.569 19.6928 120.78 18.4366 122.84C18.4366 122.84 20.9866 153.53 48.6466 152.26C48.6466 152.33 63.0666 150.44 67.5366 146.87Z" fill="#FFE36D"/>
<path d="M150.997 134.14C150.997 134.14 188.237 120.14 200.717 145.35C200.717 145.35 206.917 158.35 197.907 173.52C197.907 173.52 195.907 180.18 194.447 181.83C194.447 181.83 194.367 185.83 192.537 187.03C192.537 187.03 190.257 184.39 191.397 183.03C191.397 183.03 190.177 181.18 188.207 183.39C188.207 183.39 186.587 186.46 184.907 186C184.907 186 184.147 182.46 185.387 180.93C185.387 180.93 185.217 179.26 184.677 179.44L184.137 179.63L180.747 181.63C180.747 181.63 179.817 178.69 182.997 175.74L184.357 174.15L181.527 173.77C181.527 173.77 178.907 172.56 182.767 170.97L185.947 170.29C185.947 170.29 196.167 155.29 187.537 145.77C187.537 145.77 179.597 138.19 157.537 138.77L152.537 139.16L150.997 134.14Z" fill="#FFE36D"/>
<path d="M99.6667 134.66C99.6667 134.66 95.8966 134.92 97.8766 138.82C100.196 139.805 102.699 140.285 105.218 140.226C107.738 140.168 110.216 139.572 112.487 138.48C112.487 138.48 118.487 136.17 115.327 132.89C115.327 132.89 114.267 131.59 112.327 132.75C112.327 132.75 108.187 135.54 106.207 135.01L99.6667 134.66Z" fill="#FF7545"/>
<path d="M107.207 162.02L111.027 157.62L113.697 157.7L117.397 162.7L115.887 166.15C115.887 166.15 114.257 191.24 118.607 196.7L110.547 204.14C110.547 204.14 105.147 197.91 104.437 195.14C104.392 194.994 104.366 194.843 104.357 194.69L105.477 190.76L105.357 190.3C105.357 190.3 110.527 172 109.737 167.55L109.667 165.78L107.207 162.02Z" fill="#001043"/>
<path d="M164.507 7.11011C164.507 7.11011 94.2567 99.6201 176.897 184.11L179.577 182.59C179.577 182.59 158.367 156.7 152.867 139.03C152.867 139.03 141.737 107.73 143.697 91.8C143.697 91.8 143.397 67.8001 150.997 45.5101C150.997 45.5101 154.877 31.1701 169.357 7.68005C167.718 7.93548 166.041 7.73844 164.507 7.11011V7.11011Z" fill="#0139F2"/>
<path d="M159.437 138.8C159.437 138.8 158.947 132.8 163.437 130.99L151.257 134.06L152.927 139.06L159.437 138.8Z" fill="#0139F2"/>
<path d="M117.567 162.86L116.377 167.33C116.377 167.33 116.607 192.58 122.037 195.79L117.757 195.24C117.757 195.24 113.817 182.7 115.917 165.75L117.567 162.86Z" fill="#0139F2"/>
<path d="M114.027 200.96L116.617 202.4L122.037 195.79L118.037 195.28L118.607 196.55L114.027 200.96Z" fill="#0139F2"/>
<path opacity="0.7" d="M144.817 12.62C144.817 12.62 85.4367 42.62 93.2167 55.95C100.997 69.28 144.077 14.33 144.817 12.62Z" fill="#FFCF7A"/>
<path d="M67.7266 147.33L70.2766 157.75C69.2268 154.329 68.3754 150.849 67.7266 147.33V147.33Z" fill="#FFFFC7"/>
<path d="M151.967 4.25008C144.813 2.63089 137.501 1.81584 130.167 1.82008C76.2966 1.82008 32.6266 45.2901 32.6266 98.9201C32.5945 117.918 38.1822 136.501 48.6866 152.33" stroke="#1100A5" stroke-linecap="round" stroke-linejoin="round"/>
<path d="M201.967 164.62C212.536 153.183 220.192 139.367 224.287 124.342C228.382 109.317 228.795 93.5268 225.492 78.3085C222.188 63.0902 215.265 48.8924 205.308 36.918C195.352 24.9437 182.656 15.5456 168.297 9.52002" stroke="#1100A5" stroke-linecap="round" stroke-linejoin="round"/>
<path d="M117.757 195.24C139.187 197.957 160.916 193.532 179.577 182.65C181.317 181.63 183.013 180.563 184.667 179.45" stroke="#1100A5" stroke-linecap="round" stroke-linejoin="round"/>
<path d="M57.5566 163.74C70.1824 177.778 86.6097 187.852 104.847 192.74" stroke="#1100A5" stroke-linecap="round" stroke-linejoin="round"/>
<path d="M70.2766 157.73C69.2268 154.309 68.3754 150.83 67.7266 147.31C62.4166 119.87 57.2367 45.31 145.647 7.45001C145.647 7.45001 148.647 7.55 151.967 4.25C152.945 3.27102 153.804 2.18016 154.527 1C154.527 1 162.667 8.11001 169.747 7.45001C169.747 7.45001 169.217 8.15002 168.297 9.52002C160.997 20.39 129.297 72.7701 151.007 134.14C156.567 149.9 165.657 166.25 179.587 182.65" stroke="#1100A5" stroke-linecap="round" stroke-linejoin="round"/>
<path d="M80.8566 182.71C76.1872 174.93 72.6294 166.536 70.2866 157.77" stroke="#1100A5" stroke-linecap="round" stroke-linejoin="round"/>
<path d="M150.997 134.14C150.997 134.14 183.167 121.53 198.647 141.88C198.647 141.88 206.037 150.88 201.967 164.62C201.01 167.752 199.645 170.744 197.907 173.52C197.907 173.52 196.167 178.38 194.447 181.83C194.447 181.83 194.627 185.65 192.537 187.04C192.537 187.04 190.977 186.17 191.327 183.22C191.327 183.22 190.627 180.97 188.207 183.4C188.207 183.4 187.207 185.84 184.907 186C184.506 184.387 184.628 182.688 185.257 181.15C185.257 181.15 186.257 179.83 184.667 179.45C184.63 179.443 184.593 179.443 184.557 179.45C183.371 180.332 182.094 181.083 180.747 181.69C180.747 181.69 179.017 179.97 182.487 176.85C182.487 176.85 184.217 175.11 184.217 173.85C184.217 173.85 180.747 174.37 180.747 172.98C180.747 172.98 179.367 171.42 186.127 170.2C186.127 170.2 209.407 135.03 152.877 139.1L150.997 134.14Z" stroke="#1100A5" stroke-linecap="round" stroke-linejoin="round"/>
<path d="M70.0266 156.96C70.0266 156.96 66.2366 160.84 57.5666 163.75C52.9878 165.246 48.2483 166.196 43.4466 166.58C43.4466 166.58 12.2666 166.17 5.04662 128.8C4.08828 125.967 3.32977 123.07 2.77663 120.13C2.77663 120.13 0.0866475 116.21 1.32665 115.13C1.32665 115.13 2.77663 114.51 4.21663 117.2C4.21663 117.2 5.45662 120.09 5.45662 116.2C5.45662 116.2 4.45664 112.07 6.69664 112.07C6.69664 112.07 7.94664 112.07 8.34664 114.96C8.34664 114.96 9.34665 116.82 10.8266 116.2C11.7232 115.01 12.3664 113.648 12.7166 112.2C12.7166 112.2 15.1366 109.27 15.3666 113.47C15.3666 113.47 14.3666 117.47 17.6866 116.66C17.6866 116.66 20.4966 112.77 21.9766 115.95C20.9542 118.466 19.7092 120.885 18.2566 123.18C18.2566 123.18 21.1866 153.74 48.6866 152.25C54.0266 151.96 60.2966 150.46 67.6866 147.25H67.7666L70.3166 157.67" stroke="#1100A5" stroke-linecap="round" stroke-linejoin="round"/>
<path d="M99.6665 137.16C99.6665 137.16 107.836 139.5 113.666 134.69" stroke="#1100A5" stroke-linecap="round" stroke-linejoin="round"/>
<path d="M108.097 139.87C105.134 140.365 102.1 140.242 99.1867 139.51C98.5917 139.299 98.0995 138.87 97.8102 138.309C97.521 137.748 97.4565 137.098 97.6298 136.491C97.8032 135.884 98.2015 135.366 98.7434 135.043C99.2854 134.719 99.9303 134.615 100.547 134.75C100.677 134.75 107.597 136.62 112.337 132.75C112.586 132.535 112.876 132.372 113.19 132.271C113.504 132.17 113.834 132.133 114.162 132.161C114.49 132.19 114.81 132.284 115.101 132.438C115.392 132.591 115.65 132.802 115.859 133.057C116.067 133.311 116.223 133.605 116.316 133.921C116.41 134.237 116.439 134.569 116.403 134.896C116.366 135.223 116.265 135.54 116.104 135.828C115.943 136.115 115.727 136.367 115.467 136.57C113.338 138.291 110.798 139.428 108.097 139.87Z" stroke="#1100A5" stroke-linecap="round" stroke-linejoin="round"/>
<path d="M104.857 192.72C106.377 186.72 110.787 168.55 109.517 165.14L107.147 162.04L110.757 157.71H113.237L117.567 162.87L115.917 165.76C115.917 165.76 114.117 187.2 117.757 195.24C117.984 195.767 118.269 196.266 118.607 196.73L110.547 204.16C110.547 204.16 104.357 197.55 104.357 194.66C104.357 194.66 104.547 193.94 104.857 192.72Z" stroke="#1100A5" stroke-linecap="round" stroke-linejoin="round"/>
<path d="M109.747 166.59L115.927 165.76" stroke="#1100A5" stroke-linecap="round" stroke-linejoin="round"/>
<path d="M81.2165 133.13C83.4698 133.13 85.2965 131.415 85.2965 129.3C85.2965 127.185 83.4698 125.47 81.2165 125.47C78.9632 125.47 77.1365 127.185 77.1365 129.3C77.1365 131.415 78.9632 133.13 81.2165 133.13Z" fill="#0000E2"/>
<path d="M127.736 129.3C129.99 129.3 131.816 127.585 131.816 125.47C131.816 123.355 129.99 121.64 127.736 121.64C125.483 121.64 123.656 123.355 123.656 125.47C123.656 127.585 125.483 129.3 127.736 129.3Z" fill="#0000E2"/>
</svg>
