<svg width="210" height="210" viewBox="0 0 210 210" fill="none" xmlns="http://www.w3.org/2000/svg">
<rect x="207.5" y="2.9873" width="204.01" height="204.01" rx="62.5" transform="rotate(90 207.5 2.9873)" fill="white" stroke="black" stroke-width="5"/>
<path d="M58.918 182H63.292V178.166H64.156L66.064 182H70.546L68.008 176.906C69.43 176.312 70.204 174.962 70.204 173.27C70.204 170.714 68.152 169.4 65.146 169.4H58.918V182ZM63.292 175.304V173.054H64.444C65.236 173.054 65.794 173.432 65.794 174.17C65.794 174.908 65.2 175.304 64.444 175.304H63.292ZM75.9966 182.27C79.5786 182.27 81.6666 179.948 81.6666 177.158C81.6666 174.368 79.5966 172.1 76.0326 172.1C72.4686 172.1 70.3626 174.404 70.3626 177.194C70.3626 179.984 72.4506 182.27 75.9966 182.27ZM76.0146 178.958C75.0066 178.958 74.3226 178.13 74.3226 177.176C74.3226 176.222 74.9886 175.412 75.9966 175.412C77.0046 175.412 77.7066 176.24 77.7066 177.194C77.7066 178.13 77.0226 178.958 76.0146 178.958ZM86.1013 182.27C88.0633 182.27 89.3593 180.83 89.5573 179.102H89.7193V182H94.1113V172.37H93.7153L90.9793 174.026H90.9253C90.0613 172.856 88.6753 172.1 86.9293 172.1C83.9953 172.1 81.9973 174.404 81.9973 177.194C81.9973 180.2 83.5453 182.27 86.1013 182.27ZM88.2973 178.904C87.2893 178.904 86.6053 178.094 86.6053 177.14C86.6053 176.186 87.3073 175.358 88.3153 175.358C89.3233 175.358 89.9893 176.168 89.9893 177.122C89.9893 178.076 89.3053 178.904 88.2973 178.904ZM98.8979 182.27C100.662 182.27 101.94 181.118 102.588 179.534H102.75V182H107.124V167.96H102.75V174.728H102.57C101.886 173.162 100.518 172.1 98.8799 172.1C96.4679 172.1 94.7039 174.332 94.7039 177.122C94.7039 179.894 96.5039 182.27 98.8979 182.27ZM100.914 179.12C99.8159 179.12 99.0779 178.202 99.0779 177.14C99.0779 176.078 99.8519 175.142 100.932 175.142C102.03 175.142 102.75 176.06 102.75 177.122C102.75 178.184 101.994 179.12 100.914 179.12ZM107.979 182H112.353V176.672C112.353 175.7 112.749 175.232 113.433 175.232C114.135 175.232 114.531 175.682 114.531 176.51V182H118.905V176.672C118.905 175.7 119.283 175.232 119.985 175.232C120.687 175.232 121.083 175.682 121.083 176.51V182H125.457V176.348C125.457 173.936 123.927 172.1 121.263 172.1C119.697 172.1 118.563 172.82 117.915 173.864H117.807C117.159 172.802 116.025 172.1 114.405 172.1C112.839 172.1 111.633 172.82 110.895 173.864H110.841L108.375 172.37H107.979V182ZM130.11 182.27C132.072 182.27 133.368 180.83 133.566 179.102H133.728V182H138.12V172.37H137.724L134.988 174.026H134.934C134.07 172.856 132.684 172.1 130.938 172.1C128.004 172.1 126.006 174.404 126.006 177.194C126.006 180.2 127.554 182.27 130.11 182.27ZM132.306 178.904C131.298 178.904 130.614 178.094 130.614 177.14C130.614 176.186 131.316 175.358 132.324 175.358C133.332 175.358 133.998 176.168 133.998 177.122C133.998 178.076 133.314 178.904 132.306 178.904ZM138.964 185.96H143.338V179.192H143.518C143.698 180.92 144.832 182.27 146.794 182.27C149.35 182.27 151.078 180.2 151.078 177.194C151.078 174.404 149.08 172.1 146.146 172.1C144.382 172.1 142.996 172.856 142.15 174.026H142.078L139.36 172.37H138.964V185.96ZM144.778 178.904C143.77 178.904 143.068 178.076 143.068 177.122C143.068 176.168 143.752 175.358 144.742 175.358C145.768 175.358 146.47 176.186 146.47 177.14C146.47 178.094 145.786 178.904 144.778 178.904Z" fill="black"/>
<path d="M118 30.7539H111.5L115.5 36.2539H120L118 30.7539Z" fill="black"/>
<path d="M106 140.754H99L102 135.754L109 137.754L106 140.754Z" fill="black"/>
<path fill-rule="evenodd" clip-rule="evenodd" d="M111.975 131.988C112.475 131.033 112.775 130.397 112.775 130.397C134.557 129.249 152.986 113.156 155.769 91.3523C158.552 69.5484 144.757 49.3423 123.961 42.7599C123.961 42.7599 120.753 31.3332 118.314 30.7945C115.878 30.2564 109.08 40.5087 109.067 40.5288L109.067 40.5288L109.064 40.5288C86.3911 40.7347 66.8786 57.1477 64.0077 79.6394C63.8282 81.0451 63.7176 82.4443 63.6733 83.8335C63.0081 104.672 77.254 123.287 97.7978 128.815C97.7978 128.815 101.559 140.669 104.768 140.623C107.175 140.59 110.475 134.854 111.975 131.988Z" fill="black"/>
<path d="M106.45 129.913L106.323 130.183L106.323 130.184L106.322 130.185L106.32 130.19L106.31 130.211L106.27 130.294C106.235 130.367 106.182 130.475 106.114 130.613C105.978 130.888 105.78 131.283 105.532 131.756C105.036 132.704 104.343 133.966 103.552 135.227C102.758 136.492 101.877 137.738 101.008 138.664C100.574 139.128 100.155 139.498 99.7625 139.751C99.3671 140.006 99.0334 140.12 98.761 140.124C98.5171 140.127 98.2165 140.017 97.8546 139.735C97.4955 139.455 97.1168 139.036 96.7293 138.503C95.9551 137.439 95.2006 135.997 94.5348 134.529C93.8713 133.066 93.3058 131.599 92.9057 130.496C92.7059 129.945 92.5477 129.485 92.4396 129.164C92.3856 129.004 92.3441 128.878 92.3163 128.793L92.2848 128.696L92.2769 128.671L92.275 128.665L92.2746 128.664L92.2745 128.664L91.7979 128.815L92.2745 128.663L92.1918 128.403L91.9278 128.332C70.2419 122.497 55.6661 101.933 58.5037 79.7027C61.3413 57.4721 80.6328 41.2311 103.072 41.0288L103.337 41.0264L103.484 40.805L103.067 40.5288L103.484 40.805L103.484 40.8047L103.485 40.8034L103.488 40.7982L103.503 40.7768L103.559 40.6924C103.609 40.6182 103.683 40.5091 103.778 40.3702C103.967 40.0924 104.241 39.6957 104.577 39.2211C105.25 38.2713 106.171 37.0126 107.166 35.7726C108.164 34.529 109.224 33.3197 110.176 32.4591C110.653 32.0278 111.086 31.6995 111.456 31.4969C111.842 31.286 112.081 31.255 112.206 31.2828C112.354 31.3154 112.583 31.4551 112.882 31.7941C113.171 32.121 113.476 32.5778 113.789 33.1361C114.415 34.2508 115.034 35.7026 115.585 37.1563C116.134 38.6063 116.608 40.0417 116.945 41.1158C117.113 41.6525 117.248 42.0982 117.339 42.4094C117.385 42.5649 117.421 42.6868 117.444 42.7696L117.471 42.8637L117.478 42.8875L117.48 42.8934L117.48 42.8947L117.48 42.895L117.962 42.7599L117.48 42.8951L117.553 43.1551L117.811 43.2366C138.389 49.7505 152.024 69.7391 149.273 91.289C146.522 112.839 128.304 128.762 106.749 129.897L106.45 129.913Z" stroke="#023AEC"/>
<path d="M132.886 89.2048C130.842 105.22 116.202 116.546 100.186 114.502C84.1705 112.458 72.8446 97.8173 74.8889 81.8017C76.9332 65.7861 91.5736 54.4602 107.589 56.5045C123.605 58.5488 134.931 73.1892 132.886 89.2048Z" stroke="#023AEC"/>
<path d="M107.269 72.8706C107.539 70.9158 107.275 68.9435 106.451 67.1501C107.486 68.0609 108.499 69.0156 109.436 70.0245C111.454 72.1983 113.085 74.5922 113.799 77.2908C114.149 78.6259 114.17 80.0224 113.861 81.3643C113.553 82.7065 112.923 83.956 112.024 85.0085L112.024 85.0084L112.017 85.0168C111.041 86.211 109.787 87.1276 108.471 88.089C108.409 88.1339 108.347 88.1789 108.286 88.2241C106.923 89.2203 105.511 90.278 104.457 91.7225C104.195 92.076 103.962 92.4502 103.762 92.8413C102.487 95.3123 102.8 98.1226 103.659 100.743C104.387 102.962 105.53 105.113 106.532 106.908C106.385 106.891 106.241 106.876 106.115 106.862C106.089 106.86 106.064 106.857 106.04 106.854C105.951 106.845 105.875 106.837 105.816 106.829C105.75 106.822 105.727 106.818 105.728 106.818C104.182 106.476 102.69 105.931 101.29 105.197C99.2429 104.069 97.4872 102.49 96.16 100.585C94.8324 98.6794 93.9694 96.499 93.6382 94.2145C92.9272 88.8027 96.4322 84.818 100.998 81.9906L100.999 81.9903C104.633 79.7334 106.79 76.3419 107.269 72.8706Z" fill="#FDD600" stroke="#023AEC"/>
<path d="M106.45 129.913L106.323 130.183L106.323 130.184L106.322 130.185L106.32 130.19L106.31 130.211L106.27 130.294C106.235 130.367 106.182 130.475 106.114 130.613C105.978 130.888 105.78 131.283 105.532 131.756C105.036 132.704 104.343 133.966 103.552 135.227C102.758 136.492 101.877 137.738 101.008 138.664C100.574 139.128 100.155 139.498 99.7625 139.751C99.3671 140.006 99.0334 140.12 98.761 140.124C98.5171 140.127 98.2165 140.017 97.8546 139.735C97.4955 139.455 97.1168 139.036 96.7293 138.503C95.9551 137.439 95.2006 135.997 94.5348 134.529C93.8713 133.066 93.3058 131.599 92.9057 130.496C92.7059 129.945 92.5477 129.485 92.4396 129.164C92.3856 129.004 92.3441 128.878 92.3163 128.793L92.2848 128.696L92.2769 128.671L92.275 128.665L92.2746 128.664L92.2745 128.664L91.7979 128.815L92.2745 128.663L92.1918 128.403L91.9278 128.332C70.2419 122.497 55.6661 101.933 58.5037 79.7027C61.3413 57.4725 80.6298 41.2528 103.072 41.0288L103.337 41.0261L103.484 40.805L103.067 40.5288L103.484 40.805L103.484 40.8047L103.485 40.8034L103.488 40.7982L103.503 40.7768L103.559 40.6924C103.609 40.6182 103.683 40.5091 103.778 40.3702C103.967 40.0924 104.241 39.6957 104.577 39.2211C105.25 38.2713 106.171 37.0126 107.166 35.7726C108.164 34.529 109.224 33.3197 110.176 32.4591C110.653 32.0278 111.086 31.6995 111.456 31.4969C111.842 31.286 112.081 31.255 112.206 31.2828C112.354 31.3154 112.583 31.4551 112.882 31.7941C113.171 32.121 113.476 32.5778 113.789 33.1361C114.415 34.2508 115.034 35.7026 115.585 37.1563C116.134 38.6063 116.608 40.0417 116.945 41.1158C117.113 41.6525 117.248 42.0982 117.339 42.4094C117.385 42.5649 117.421 42.6868 117.444 42.7696L117.471 42.8637L117.478 42.8875L117.48 42.8934L117.48 42.8947L117.48 42.895L117.962 42.7599L117.48 42.8951L117.553 43.1551L117.811 43.2366C138.389 49.7505 152.024 69.7391 149.273 91.289C146.522 112.839 128.304 128.762 106.749 129.897L106.45 129.913Z" fill="#FDDC26" stroke="#023AEC"/>
<path d="M132.886 89.2048C130.842 105.22 116.202 116.546 100.186 114.502C84.1705 112.458 72.8446 97.8173 74.8889 81.8017C76.9332 65.7861 91.5736 54.4602 107.589 56.5045C123.605 58.5488 134.931 73.1892 132.886 89.2048Z" fill="#FDAA12" stroke="#112AA5"/>
<path d="M108 63.2534L104 63.2534L107.5 67.2534L109 73.7534L99.5 93.2534L107 107.753L111.5 107.753L107.5 104.253L102.5 95.2534L115 72.7534L108 63.2534Z" fill="black"/>
<path d="M107.287 62.9449C111.623 66.5413 116.883 70.8499 118.357 76.5707C118.724 78.0096 118.744 79.5165 118.414 80.9654C118.083 82.4143 117.413 83.7632 116.458 84.8995C114.311 87.5732 110.906 88.9254 108.895 91.7299C108.651 92.0712 108.432 92.4297 108.239 92.8026C105.861 97.4648 109.298 103.609 111.5 107.613C111.42 107.462 109.818 107.348 109.625 107.306C108.033 106.95 106.496 106.382 105.055 105.616C102.941 104.433 101.13 102.775 99.7615 100.772C98.3935 98.7676 97.5065 96.4722 97.17 94.0653C96.4317 88.2479 100.168 84.0174 104.795 81.0889C111.831 76.6175 113.08 67.7522 107.287 62.9449Z" fill="black"/>
<path d="M105.734 106.817C104.187 106.472 102.694 105.92 101.295 105.177C99.2506 104.033 97.4983 102.428 96.1748 100.49C94.8509 98.5503 93.9921 96.3289 93.6659 93.9993C92.9664 88.4752 96.4945 84.4029 101.063 81.5113L101.064 81.5109C106.737 77.9053 108.835 71.4452 106.546 66.3737C107.579 67.3 108.591 68.2712 109.526 69.2978C111.538 71.5076 113.164 73.9441 113.873 76.6953C114.221 78.0571 114.239 79.4831 113.927 80.8543C113.614 82.2258 112.979 83.5025 112.076 84.5779L112.076 84.5778L112.069 84.5865C111.089 85.8065 109.831 86.744 108.512 87.7265C108.451 87.7725 108.389 87.8186 108.327 87.8649C106.961 88.8839 105.546 89.9648 104.489 91.4386L104.489 91.4391C104.231 91.7999 103.999 92.1788 103.795 92.5729L103.794 92.5753C102.517 95.0794 102.823 97.9373 103.676 100.607C104.401 102.875 105.544 105.076 106.543 106.908C106.392 106.891 106.244 106.875 106.115 106.861C106.09 106.858 106.065 106.856 106.042 106.853C105.952 106.844 105.876 106.836 105.818 106.828C105.77 106.823 105.745 106.819 105.737 106.818C105.733 106.817 105.732 106.817 105.734 106.817ZM105.734 106.817C105.734 106.817 105.734 106.818 105.734 106.818L105.625 107.306M105.734 106.817L105.625 107.306M105.625 107.306C105.68 107.318 105.848 107.336 106.063 107.358C106.295 107.383 106.583 107.414 106.84 107.449L93.1703 94.0653C93.5068 96.4722 94.3938 98.7676 95.7618 100.772C97.1298 102.775 98.9416 104.433 101.055 105.616C102.496 106.382 104.033 106.95 105.625 107.306Z" fill="#FDD600" stroke="#112AA5"/>
<path d="M104.478 55.8069C88.9961 54.8837 75.2353 66.1143 73.2425 81.7263C71.1633 98.0158 82.6829 112.907 98.9724 114.986C100.831 115.223 102.672 115.283 104.478 115.18V115.046C104.309 115.028 104.141 115.007 103.972 114.986C87.6829 112.907 76.1633 98.0158 78.2425 81.7263C80.0176 67.8202 91.1295 57.3902 104.478 55.9295V55.8069Z" fill="black"/>
</svg>
