<svg width="130" height="79" viewBox="0 0 130 79" fill="none" xmlns="http://www.w3.org/2000/svg">
<g clip-path="url(#clip0_1_6071)">
<path d="M71.3273 78.9868C84.5946 78.8517 97.9392 75.1676 109.03 67.8057C117.827 61.9613 126.161 53.5257 129.046 43.1098C132.003 32.4432 127.758 20.3042 118.304 14.2732C113.841 11.4249 108.302 11.74 103.723 14.1768C98.5252 16.9544 95.0474 21.8923 90.0174 24.9077C85.9425 27.3244 81.3796 28.8047 76.66 29.2413C69.4145 29.9228 62.3365 27.8525 55.9476 24.5541C49.4299 21.1786 44.2775 16.1378 38.0947 12.2865C31.8024 8.34519 23.2818 5.92768 16.0234 8.42878C7.20647 11.4507 4.06353 21.5001 4.24387 30.0514C4.84927 58.6758 36.9934 75.7591 62.0918 78.5303C65.1583 78.8677 68.2424 79.0202 71.3273 78.9868Z" fill="#000029"/>
<path d="M63.5998 71.9723C76.5128 72.3774 89.6448 69.3362 100.735 62.6237C109.533 57.3001 117.976 49.4367 121.216 39.4195C124.526 29.1707 120.894 17.186 111.948 10.9365C107.717 7.98534 102.32 8.06249 97.7791 10.2485C92.6267 12.7368 89.0265 17.4175 84.0095 20.1243C79.9468 22.3094 75.4476 23.5635 70.8388 23.7956C63.7543 24.1621 56.9597 21.8668 50.8735 18.3948C44.6456 14.8393 39.8153 9.72775 33.9802 5.72856C28.0228 1.63936 19.8113 -1.05462 12.6689 1.07357C3.96786 3.64539 0.502906 13.2897 0.322574 21.6482C-0.257064 49.5203 30.3092 67.4459 54.6153 71.1558C57.591 71.6077 60.5913 71.8803 63.5998 71.9723Z" fill="#963A47"/>
<path d="M26.5215 52.787C26.5215 52.787 57.9121 33.6784 93.6758 58.4707C93.6758 58.4707 81.7739 65.7554 61.3835 64.7846C61.3835 64.7717 44.136 64.4759 26.5215 52.787Z" fill="#F6395D" stroke="black" stroke-width="0.641898" stroke-miterlimit="10"/>
<path d="M31.242 19.9383C30.3017 19.7261 26.4697 18.6909 25.4456 15.9648C24.7629 14.1838 25.3877 11.9913 27.3069 9.45166L35.8405 12.8207L31.242 19.9383Z" fill="white"/>
<path d="M27.3973 9.8434L35.3577 12.9617L31.0941 19.5713C29.9284 19.2756 26.6438 18.2533 25.7228 15.8486C25.0788 14.2219 25.6648 12.203 27.3973 9.8434ZM27.1783 9.06543C20.0939 18.234 31.3904 20.2979 31.3904 20.2979L36.3237 12.6467L27.1783 9.06543Z" fill="black"/>
<path d="M17.9941 7.39372C21.7553 7.39372 26.1219 8.90466 29.9733 11.5472C32.1501 13.0389 34.224 14.762 36.4137 16.5623C39.7498 19.3141 43.1955 22.1495 47.3624 24.5285C54.7754 28.7591 62.1754 30.9066 69.3565 30.9066C69.9683 30.9066 70.593 30.9066 71.1984 30.8552C76.8559 30.5659 82.3789 29.0288 87.3704 26.3545C90.12 24.777 92.6973 22.9174 95.0602 20.8058C97.0503 19.1341 98.9245 17.546 100.857 16.6266C102.01 16.0614 103.275 15.7584 104.56 15.7393C105.751 15.715 106.92 16.0635 107.902 16.7359C114.15 21.1015 116.919 29.73 114.491 37.259C111.419 46.7619 102.254 53.4487 97.1018 56.5863C88.0852 62.0514 77.2911 64.9447 65.9237 64.9447C65.241 64.9447 64.5519 64.9447 63.8692 64.9125C61.1428 64.8284 58.4241 64.5772 55.7285 64.1603C43.9297 62.36 31.5447 57.0299 22.5925 49.9188C15.5081 44.3058 7.18061 34.8737 7.45111 21.7831C7.56704 16.3244 9.54424 9.40617 14.7288 7.86308C15.8025 7.55418 16.9154 7.40257 18.0327 7.413L17.9941 7.39372ZM18.0327 0.340489C16.2326 0.330253 14.4406 0.581495 12.7129 1.08632C4.01191 3.65814 0.546973 13.3025 0.366641 21.6609C-0.212997 49.533 30.3533 67.4587 54.6594 71.1685C57.6205 71.6143 60.6056 71.8827 63.5987 71.9722C64.3587 71.9722 65.1187 72.0043 65.8787 72.0043C78.0446 72.0043 90.2943 68.9439 100.734 62.6236C109.532 57.2999 117.975 49.4366 121.215 39.4193C124.525 29.1706 120.893 17.1859 111.947 10.9364C109.773 9.43253 107.186 8.63745 104.541 8.66034C102.194 8.67783 99.8806 9.22051 97.7716 10.2484C92.6193 12.7367 89.0191 17.4174 84.002 20.1242C79.9394 22.3093 75.4402 23.5634 70.8313 23.7955C70.3354 23.7955 69.8395 23.8341 69.35 23.8341C62.8066 23.8341 56.5272 21.6223 50.8789 18.3947C44.651 14.8392 39.8207 9.72765 33.9857 5.72846C29.4774 2.62299 23.681 0.327637 17.9941 0.327637L18.0327 0.340489Z" fill="#F69538" stroke="black" stroke-miterlimit="10"/>
</g>
<defs>
<clipPath id="clip0_1_6071">
<rect width="130" height="79" fill="white"/>
</clipPath>
</defs>
</svg>
