<svg width="101" height="102" viewBox="0 0 101 102" fill="none" xmlns="http://www.w3.org/2000/svg">
<path d="M7.2943 82.7739H2.73584V86.8389H7.2943V82.7739Z" fill="black"/>
<path d="M90.8401 82.7739H86.2816V86.8389H90.8401V82.7739Z" fill="black"/>
<path d="M18.5535 12.4698H82.755C82.755 12.4698 83.4044 11.3659 83.7551 11.3659H95.5928L100.788 16.2555V98.2818C100.809 98.6879 100.741 99.0936 100.588 99.4705C100.435 99.8473 100.202 100.186 99.9041 100.463C99.6062 100.74 99.2513 100.948 98.8642 101.072C98.4772 101.197 98.0676 101.235 97.6641 101.184H92.0343C92.0343 101.184 91.4433 101.184 91.255 100.827H17.8911C17.877 100.921 17.8443 101.011 17.7949 101.091C17.7455 101.172 17.6804 101.242 17.6035 101.297C17.5267 101.352 17.4395 101.391 17.3473 101.412C17.255 101.433 17.1595 101.435 17.0664 101.418H10.5729C10.5729 101.418 9.20278 101.418 9.35862 99.2883C9.51446 97.1584 9.35862 14.7555 9.35862 14.7555C9.35862 14.7555 8.70931 10.4958 14.3587 10.4958C14.3392 10.4958 18.0145 10.223 18.5535 12.4698Z" fill="black"/>
<path d="M10.2304 2.97469H74.432C74.432 2.97469 75.0813 1.87078 75.432 1.87078H87.2697L92.4645 6.76041V88.8062C92.4848 89.2125 92.4158 89.6184 92.2624 89.9952C92.109 90.3721 91.8748 90.7107 91.5765 90.9874C91.2782 91.2641 90.9229 91.472 90.5356 91.5966C90.1482 91.7213 89.7383 91.7596 89.3347 91.7088H83.7112C83.7112 91.7088 83.1139 91.7088 82.9255 91.3516H9.56166C9.54838 91.4455 9.51616 91.5358 9.46701 91.6169C9.41787 91.698 9.35275 91.7683 9.27566 91.8235C9.19857 91.8788 9.11112 91.9178 9.01852 91.9382C8.92592 91.9587 8.83015 91.9602 8.73696 91.9425H2.24343C2.24343 91.9425 0.866802 91.9425 1.02265 89.8127C1.17849 87.6828 1.02265 5.27988 1.02265 5.27988C1.02265 5.27988 0.373268 1.02013 6.02913 1.02013C6.02264 1.00065 9.68497 0.727924 10.2304 2.97469Z" fill="#31C4F3" stroke="black" stroke-width="0.649353" stroke-miterlimit="10"/>
<path d="M22.8333 2.9873V27.1562C22.8333 27.1562 23.0086 30.9679 26.5475 30.9679L70.275 30.89C70.275 30.89 74.1711 30.4744 73.814 26.1627C73.4568 21.851 73.814 2.9873 73.814 2.9873H22.8333Z" fill="#D7A9D9" stroke="black" stroke-width="0.649353" stroke-miterlimit="10"/>
<path d="M6.3147 9.5083V12.9109" stroke="black" stroke-width="3.24677" stroke-miterlimit="10" stroke-linecap="square"/>
<path d="M2.91785 10.5078L6.31396 4.61816L9.71657 10.5078H2.91785Z" fill="black"/>
<path d="M69.8921 7.76807H59.444V27.3331H69.8921V7.76807Z" fill="#31C4F3" stroke="black" stroke-width="0.649353" stroke-miterlimit="10"/>
<path d="M9.37256 91.0391L9.64524 38.7273C9.64524 38.7273 9.46343 35.1558 12.6582 35.2402C15.8531 35.3247 81.1326 35.2402 81.1326 35.2402C81.1326 35.2402 83.8403 35.3636 83.5936 38.8441C83.3468 42.3247 83.1131 90.9287 83.1131 90.9287L9.37256 91.0391Z" fill="#77D5F3"/>
<path d="M19.424 58.5005C21.8232 58.5005 23.7682 56.8026 23.7682 54.7082C23.7682 52.6139 21.8232 50.916 19.424 50.916C17.0248 50.916 15.0798 52.6139 15.0798 54.7082C15.0798 56.8026 17.0248 58.5005 19.424 58.5005Z" fill="black"/>
<path d="M46.5404 64.9753C41.995 64.9753 38.0274 62.5532 35.917 60.4818C35.6286 60.1688 35.4711 59.7572 35.4771 59.3316C35.4831 58.9061 35.6521 58.499 35.9493 58.1943C36.2465 57.8897 36.6492 57.7106 37.0745 57.694C37.4998 57.6774 37.9152 57.8245 38.2352 58.1051C38.5664 58.4298 46.417 65.8649 54.1638 58.1051C54.4747 57.7943 54.8963 57.6196 55.3359 57.6196C55.7756 57.6196 56.1971 57.7943 56.508 58.1051C56.8188 58.416 56.9935 58.8376 56.9935 59.2772C56.9935 59.7168 56.8188 60.1384 56.508 60.4493C53.1898 63.7934 49.7158 64.9753 46.5404 64.9753Z" fill="#006EFF"/>
<path d="M37.0826 59.2993C37.0826 59.2993 46.297 68.3383 55.336 59.2993" stroke="black" stroke-width="0.649353" stroke-miterlimit="10" stroke-linecap="round"/>
<path d="M46.5404 64.9753C41.995 64.9753 38.0274 62.5532 35.917 60.4818C35.6286 60.1688 35.4711 59.7572 35.4771 59.3316C35.4831 58.9061 35.6521 58.499 35.9493 58.1943C36.2465 57.8897 36.6492 57.7106 37.0745 57.694C37.4998 57.6774 37.9152 57.8245 38.2352 58.1051C38.5664 58.4298 46.417 65.8649 54.1638 58.1051C54.4747 57.7943 54.8963 57.6196 55.3359 57.6196C55.7756 57.6196 56.1971 57.7943 56.508 58.1051C56.8188 58.416 56.9935 58.8376 56.9935 59.2772C56.9935 59.7168 56.8188 60.1384 56.508 60.4493C53.1898 63.7934 49.7158 64.9753 46.5404 64.9753Z" stroke="black" stroke-width="0.649353" stroke-miterlimit="10"/>
<path d="M73.1652 58.5005C75.5644 58.5005 77.5094 56.8026 77.5094 54.7082C77.5094 52.6139 75.5644 50.916 73.1652 50.916C70.766 50.916 68.821 52.6139 68.821 54.7082C68.821 56.8026 70.766 58.5005 73.1652 58.5005Z" fill="black"/>
<path d="M63.6915 25.4034C63.3195 25.4069 62.9485 25.3633 62.5875 25.2735V22.241C62.8115 22.3253 63.0497 22.365 63.2889 22.3579C63.5846 22.378 63.8799 22.3126 64.1395 22.1696C64.2367 22.1075 64.3156 22.0206 64.3681 21.9179C64.4206 21.8152 64.4448 21.7003 64.4382 21.5852V13.9033H68.0681V21.7605C68.0994 22.4822 67.9261 23.198 67.5681 23.8254C67.2206 24.3716 66.7058 24.7907 66.1005 25.0202C65.3289 25.299 64.5115 25.429 63.6915 25.4034ZM66.2499 13.6241C66.001 13.6315 65.7531 13.5887 65.5211 13.4983C65.2891 13.408 65.0776 13.2719 64.8993 13.0981C64.7202 12.9337 64.5788 12.7325 64.4846 12.5084C64.3905 12.2842 64.3458 12.0424 64.3537 11.7994C64.3493 11.4772 64.4348 11.1602 64.6005 10.8838C64.7562 10.6141 64.9801 10.3901 65.2499 10.2345C65.5492 10.0737 65.8842 9.9911 66.2239 9.99422C66.4717 9.98811 66.7182 10.0315 66.949 10.1218C67.1798 10.2121 67.3903 10.3475 67.5681 10.5202C67.7431 10.6871 67.881 10.889 67.9727 11.1128C68.0645 11.3366 68.108 11.5772 68.1005 11.8189C68.1042 12.136 68.0211 12.4481 67.8603 12.7215C67.7018 12.9891 67.4785 13.2124 67.2109 13.3708C66.9179 13.5369 66.5867 13.6242 66.2499 13.6241Z" fill="#112AA5"/>
<path d="M62.6839 25.3132C62.2897 25.3165 61.8968 25.2685 61.515 25.1704C61.4635 25.1563 61.418 25.126 61.3852 25.0838C61.3524 25.0417 61.3342 24.99 61.3333 24.9366V21.9236C61.3328 21.8834 61.3427 21.8437 61.362 21.8085C61.3814 21.7732 61.4094 21.7435 61.4436 21.7223C61.4835 21.694 61.5311 21.6781 61.58 21.6769H61.6709C61.8649 21.7538 62.0728 21.7891 62.2813 21.7808C62.5305 21.7951 62.7791 21.7436 63.0021 21.6314C63.065 21.5908 63.1154 21.5334 63.1475 21.4657C63.1796 21.3981 63.1923 21.3227 63.1839 21.2483V13.5729C63.1839 13.5075 63.2099 13.4447 63.2562 13.3985C63.3025 13.3522 63.3652 13.3262 63.4307 13.3262H64.2748C64.0692 13.2266 63.8807 13.0951 63.7163 12.9366C63.5134 12.755 63.3507 12.5329 63.2388 12.2846C63.127 12.0363 63.0685 11.7673 63.067 11.495C63.0681 11.1308 63.1661 10.7734 63.351 10.4596C63.5359 10.1457 63.8009 9.88679 64.1189 9.70929C64.4547 9.53095 64.8297 9.43943 65.2099 9.44305C65.4887 9.43601 65.7661 9.48465 66.0259 9.58611C66.2857 9.68757 66.5226 9.83982 66.7229 10.034C67.0464 10.3529 67.2546 10.7704 67.3146 11.2207C67.3745 11.671 67.2828 12.1285 67.054 12.521C66.871 12.8308 66.6088 13.0864 66.2943 13.2613L66.1644 13.3262H67.0345C67.0988 13.3279 67.16 13.3546 67.2049 13.4007C67.2498 13.4468 67.2748 13.5086 67.2748 13.5729V21.4236C67.3034 22.1912 67.1167 22.9514 66.7359 23.6184C66.3617 24.211 65.8059 24.6666 65.1515 24.9171C64.3602 25.1995 63.5237 25.3338 62.6839 25.3132Z" fill="white"/>
<path d="M65.2366 9.68243C65.4846 9.67521 65.7313 9.71807 65.9623 9.80844C66.1932 9.89882 66.4036 10.0349 66.5808 10.2084C66.8668 10.4882 67.0509 10.8557 67.1039 11.2522C67.1568 11.6488 67.0755 12.0517 66.873 12.3967C66.718 12.667 66.4939 12.8912 66.2236 13.0461C65.9304 13.2105 65.5986 13.2935 65.2626 13.2863C65.0137 13.2933 64.766 13.2504 64.534 13.16C64.302 13.0697 64.0905 12.9338 63.9119 12.7604C63.7364 12.6001 63.597 12.4043 63.5029 12.1859C63.4089 11.9676 63.3624 11.7318 63.3665 11.4941C63.3663 11.173 63.4524 10.8578 63.6157 10.5813C63.7791 10.3049 64.0137 10.0774 64.295 9.92269C64.5921 9.76221 64.9249 9.67956 65.2626 9.68243H65.2366ZM67.0873 13.5785V21.4292C67.1151 22.1506 66.942 22.8655 66.5873 23.4942C66.2392 24.0424 65.7216 24.4619 65.1132 24.689C64.3441 24.9691 63.5289 25.1013 62.7107 25.0786C62.3383 25.0809 61.9673 25.0351 61.6067 24.9422V21.9227C61.8306 22.007 62.0689 22.0467 62.3081 22.0396C62.6028 22.0565 62.8966 21.9937 63.1587 21.8578C63.2569 21.7952 63.3365 21.7072 63.389 21.6033C63.4416 21.4993 63.4652 21.3831 63.4574 21.2669V13.5721H67.0873V13.5785ZM65.2626 9.19541C64.8404 9.19159 64.4244 9.29671 64.0548 9.50061C63.696 9.69445 63.3969 9.98256 63.1898 10.3339C62.9827 10.6852 62.8754 11.0863 62.8795 11.4941C62.874 11.7895 62.9288 12.0829 63.0404 12.3564C63.152 12.6299 63.3183 12.8779 63.5288 13.0851H63.4444C63.3802 13.0842 63.3164 13.0962 63.257 13.1203C63.1975 13.1445 63.1435 13.1803 63.0981 13.2257C63.0527 13.2711 63.0169 13.3252 62.9927 13.3847C62.9685 13.4441 62.9565 13.5079 62.9574 13.5721V21.2734C62.9574 21.4033 62.9185 21.4292 62.886 21.4487C62.702 21.5364 62.4983 21.5744 62.2951 21.5591C62.1207 21.5659 61.9466 21.5394 61.782 21.4812C61.7077 21.4501 61.6271 21.4373 61.5468 21.4441C61.4665 21.4509 61.3891 21.477 61.321 21.5201C61.2547 21.5657 61.2004 21.6268 61.1631 21.6981C61.1257 21.7694 61.1063 21.8487 61.1067 21.9292V24.9617C61.1072 25.0696 61.143 25.1744 61.2087 25.26C61.2744 25.3456 61.3663 25.4073 61.4704 25.4357C61.8718 25.5356 62.284 25.5858 62.6977 25.5851C63.5829 25.6104 64.4648 25.4648 65.2951 25.1565C66.0007 24.895 66.5992 24.4061 66.9964 23.7669C67.4039 23.0642 67.6042 22.2605 67.5743 21.4487V13.5721C67.5743 13.4429 67.523 13.319 67.4316 13.2277C67.3403 13.1364 67.2165 13.0851 67.0873 13.0851H66.9769C67.1091 12.954 67.2227 12.8054 67.3145 12.6435C67.5272 12.2982 67.6376 11.8996 67.6327 11.4941C67.6375 11.1886 67.5788 10.8854 67.4603 10.6037C67.3418 10.322 67.1662 10.068 66.9445 9.85777C66.7213 9.64329 66.4576 9.4754 66.1688 9.36391C65.8801 9.25243 65.572 9.19957 65.2626 9.20841V9.19541Z" fill="black"/>
<path d="M80.3348 15.5459C79.6256 15.1483 79.0342 14.5703 78.6205 13.8705C78.2034 13.1455 77.9839 12.3238 77.9839 11.4874C77.9839 10.651 78.2034 9.82927 78.6205 9.10428C79.0323 8.4013 79.6241 7.82078 80.3348 7.42246C81.0467 7.02256 81.8494 6.8125 82.6659 6.8125C83.4824 6.8125 84.2852 7.02256 84.9971 7.42246C85.7078 7.82078 86.2996 8.4013 86.7114 9.10428C87.1285 9.82927 87.348 10.651 87.348 11.4874C87.348 12.3238 87.1285 13.1455 86.7114 13.8705C86.0749 14.924 85.0531 15.688 83.8627 16.0008C82.6723 16.3136 81.4069 16.1504 80.3348 15.5459ZM84.601 14.864C85.1848 14.5323 85.6691 14.0502 86.0036 13.4679C86.3402 12.8621 86.5169 12.1805 86.5169 11.4874C86.5169 10.7943 86.3402 10.1127 86.0036 9.50688C85.6728 8.92182 85.1876 8.43888 84.601 8.11077C84.007 7.77382 83.3358 7.59669 82.6529 7.59669C81.9701 7.59669 81.2988 7.77382 80.7049 8.11077C80.1183 8.43888 79.6331 8.92182 79.3023 9.50688C78.9657 10.1127 78.7891 10.7943 78.7891 11.4874C78.7891 12.1805 78.9657 12.8621 79.3023 13.4679C79.6367 14.0502 80.1211 14.5323 80.7049 14.864C81.3003 15.1967 81.9709 15.3714 82.6529 15.3714C83.335 15.3714 84.0056 15.1967 84.601 14.864ZM80.8932 14.0069V12.1822C81.06 12.3615 81.2581 12.5089 81.4776 12.6173C81.7383 12.744 82.0255 12.8064 82.3153 12.7991C82.7002 12.8214 83.0783 12.6907 83.3672 12.4355C83.4955 12.3143 83.5961 12.1668 83.6622 12.0032C83.7284 11.8396 83.7584 11.6637 83.7504 11.4874C83.7553 11.2438 83.6995 11.0028 83.588 10.7861C83.4766 10.5837 83.3099 10.417 83.1075 10.3056C82.8912 10.1855 82.647 10.125 82.3997 10.1302C82.177 10.1322 81.9567 10.1763 81.7503 10.2601C81.5567 10.3276 81.3812 10.4387 81.2373 10.5848L80.8477 8.93544C81.0961 8.81651 81.361 8.73552 81.6335 8.69518C81.9435 8.63262 82.2588 8.60001 82.575 8.59778C83.1072 8.58686 83.633 8.71439 84.101 8.9679C84.534 9.20707 84.8915 9.56242 85.1334 9.99389C85.3845 10.4511 85.5122 10.9658 85.5036 11.4874C85.5104 12.0022 85.3781 12.5092 85.1205 12.9549C84.8705 13.3881 84.5007 13.7398 84.0556 13.9679C83.5696 14.2165 83.0298 14.3414 82.4841 14.3316C81.9345 14.3649 81.3858 14.2529 80.8932 14.0069Z" fill="#112AA5"/>
<path d="M82.269 16.319C81.4232 16.3154 80.5929 16.0916 79.8598 15.6696C79.1244 15.2556 78.5108 14.6554 78.0806 13.9294C77.6468 13.1805 77.4183 12.3305 77.4183 11.465C77.4183 10.5996 77.6468 9.74957 78.0806 9.00076C78.5093 8.27514 79.1234 7.67671 79.8598 7.26698C80.5942 6.84974 81.4244 6.63037 82.269 6.63037C83.1136 6.63037 83.9437 6.84974 84.6781 7.26698C85.233 7.58696 85.7193 8.01342 86.109 8.52187C86.4987 9.03032 86.7841 9.61075 86.9488 10.2298C87.1135 10.8489 87.1543 11.4944 87.0688 12.1293C86.9834 12.7641 86.7733 13.3759 86.4508 13.9294C86.0229 14.655 85.4115 15.2552 84.6781 15.6696C83.9447 16.0908 83.1147 16.3145 82.269 16.319ZM82.269 7.767C81.6177 7.76192 80.9768 7.92999 80.4118 8.25401C79.8543 8.56926 79.3921 9.02915 79.0741 9.58518C78.7463 10.1645 78.5741 10.8189 78.5741 11.4845C78.5741 12.1502 78.7463 12.8045 79.0741 13.3839C79.3917 13.9419 79.8538 14.404 80.4118 14.7216C80.979 15.0366 81.617 15.2018 82.2657 15.2018C82.9145 15.2018 83.5525 15.0366 84.1196 14.7216C84.6794 14.4042 85.1437 13.9422 85.4637 13.3839C85.7879 12.8033 85.9581 12.1495 85.9581 11.4845C85.9581 10.8196 85.7879 10.1657 85.4637 9.58518C85.1435 9.0287 84.6792 8.56885 84.1196 8.25401C83.5567 7.93082 82.9181 7.76276 82.269 7.767ZM82.0806 14.4943C81.5039 14.5268 80.9287 14.4082 80.4118 14.1501C80.3874 14.1353 80.3673 14.1143 80.3537 14.0892C80.34 14.0641 80.3332 14.0358 80.3339 14.0073V12.1826C80.3334 12.15 80.3431 12.118 80.3617 12.0912C80.3804 12.0644 80.407 12.0441 80.4378 12.0332H80.4963C80.5184 12.0327 80.5403 12.0371 80.5605 12.0461C80.5808 12.0551 80.5987 12.0684 80.6131 12.0852C80.768 12.2496 80.9505 12.3859 81.1521 12.4878C81.391 12.6019 81.6536 12.6576 81.9183 12.6501C82.2597 12.6714 82.5958 12.557 82.8534 12.3319C82.9668 12.2263 83.0557 12.0972 83.114 11.9536C83.1724 11.8101 83.1986 11.6555 83.191 11.5008C83.2017 11.2747 83.1501 11.0501 83.0417 10.8514C82.951 10.6744 82.8082 10.5293 82.6326 10.4358C82.4334 10.3282 82.2096 10.2744 81.9832 10.28C81.7612 10.2762 81.5406 10.3159 81.3339 10.3969C81.1614 10.4537 81.0054 10.5518 80.8794 10.6826C80.8467 10.7155 80.8023 10.7342 80.7559 10.7345H80.717C80.6885 10.728 80.6625 10.7135 80.6418 10.6929C80.6211 10.6722 80.6067 10.6461 80.6001 10.6176L80.2105 8.96828C80.2033 8.93294 80.2076 8.89621 80.2228 8.86349C80.238 8.83077 80.2633 8.80378 80.2949 8.78647C80.5567 8.65695 80.8372 8.56931 81.1261 8.52673C81.4471 8.46439 81.7732 8.43178 82.1001 8.42933C82.6594 8.41887 83.2119 8.55308 83.704 8.81895C84.1647 9.07279 84.5449 9.45073 84.8015 9.90985C85.0661 10.3908 85.2004 10.9325 85.1911 11.4813C85.1985 12.0262 85.0571 12.5628 84.782 13.0332C84.514 13.4899 84.1223 13.8613 83.6521 14.1047C83.1664 14.3567 82.6279 14.4902 82.0806 14.4943Z" fill="white"/>
<path d="M82.2688 6.81262C83.084 6.81118 83.8855 7.02173 84.5947 7.42359C85.304 7.82545 85.8965 8.40482 86.3143 9.10484C86.7313 9.82983 86.9508 10.6516 86.9508 11.488C86.9508 12.3243 86.7313 13.1461 86.3143 13.8711C85.8961 14.5697 85.303 15.1471 84.5935 15.5464C83.8828 15.9463 83.0811 16.1564 82.2656 16.1564C81.4501 16.1564 80.6483 15.9463 79.9376 15.5464C79.2281 15.1471 78.635 14.5697 78.2169 13.8711C77.7998 13.1461 77.5803 12.3243 77.5803 11.488C77.5803 10.6516 77.7998 9.82983 78.2169 9.10484C78.6329 8.40294 79.2263 7.82291 79.9376 7.42302C80.6486 7.02103 81.452 6.8107 82.2688 6.81262ZM82.2688 15.3646C82.9507 15.3713 83.6225 15.1989 84.2169 14.8646C84.8007 14.5328 85.2849 14.0508 85.6194 13.4685C85.9602 12.864 86.1393 12.1819 86.1393 11.488C86.1393 10.794 85.9602 10.1119 85.6194 9.50743C85.2886 8.92237 84.8035 8.43944 84.2169 8.11133C83.6233 7.77314 82.9519 7.5953 82.2688 7.5953C81.5857 7.5953 80.9143 7.77314 80.3208 8.11133C79.7342 8.43944 79.249 8.92237 78.9181 9.50743C78.5773 10.1119 78.3983 10.794 78.3983 11.488C78.3983 12.1819 78.5773 12.864 78.9181 13.4685C79.2526 14.0508 79.7369 14.5328 80.3208 14.8646C80.9152 15.1989 81.5869 15.3713 82.2688 15.3646ZM82.1714 8.59834C82.7035 8.58801 83.2291 8.7155 83.6974 8.96846C84.1303 9.20763 84.4879 9.56298 84.7298 9.99445C84.9809 10.4516 85.1085 10.9664 85.1 11.488C85.1068 12.0027 84.9745 12.5098 84.7169 12.9555C84.4668 13.3886 84.097 13.7404 83.6519 13.9685C83.1657 14.2163 82.6261 14.3412 82.0805 14.3321C81.533 14.3649 80.9866 14.2529 80.4961 14.0074V12.1828C80.6603 12.365 80.8588 12.5128 81.0804 12.6178C81.3406 12.7461 81.6282 12.8085 81.9181 12.7997C82.301 12.8217 82.677 12.6909 82.9636 12.436C83.0927 12.3152 83.1943 12.1679 83.2615 12.0044C83.3288 11.8408 83.36 11.6647 83.3532 11.488C83.359 11.2435 83.3008 11.0017 83.1843 10.7867C83.0773 10.5831 82.9124 10.4159 82.7103 10.3061C82.4917 10.1861 82.2454 10.1256 81.9961 10.1308C81.7733 10.1326 81.553 10.1767 81.3467 10.2607C81.1513 10.3283 80.9737 10.4393 80.8273 10.5854L80.4441 8.936C80.6902 8.81694 80.953 8.73594 81.2234 8.69574C81.5356 8.63347 81.853 8.60086 82.1714 8.59834ZM82.2688 6.48795C81.3952 6.48314 80.5355 6.707 79.7752 7.1373C79.0181 7.56356 78.3865 8.18168 77.9441 8.9295C77.6047 9.50023 77.3827 10.133 77.2912 10.7907C77.1996 11.4483 77.2403 12.1177 77.4109 12.7594C77.5814 13.4011 77.8784 14.0024 78.2845 14.5278C78.6905 15.0532 79.1973 15.4922 79.7752 15.8191C80.5349 16.2488 81.3928 16.4746 82.2656 16.4746C83.1383 16.4746 83.9962 16.2488 84.7558 15.8191C85.3298 15.4883 85.8328 15.0475 86.236 14.5218C86.6392 13.9961 86.9346 13.396 87.1053 12.7559C87.2761 12.1158 87.3188 11.4483 87.2309 10.7917C87.1431 10.1351 86.9264 9.50222 86.5934 8.9295C86.1451 8.18293 85.5113 7.5651 84.7534 7.13611C83.9956 6.70712 83.1396 6.48159 82.2688 6.48145V6.48795ZM82.2688 15.0399C81.6477 15.0445 81.0363 14.8855 80.4961 14.5789C79.9529 14.2724 79.5039 13.8233 79.1974 13.2802C78.8868 12.7257 78.7238 12.1008 78.7238 11.4652C78.7238 10.8297 78.8868 10.2048 79.1974 9.65029C79.5039 9.10714 79.9529 8.65806 80.4961 8.35159C81.0379 8.04904 81.6482 7.89021 82.2688 7.89021C82.8894 7.89021 83.4997 8.04904 84.0415 8.35159C84.5851 8.65753 85.0343 9.10673 85.3402 9.65029C85.6508 10.2048 85.8139 10.8297 85.8139 11.4652C85.8139 12.1008 85.6508 12.7257 85.3402 13.2802C85.0343 13.8237 84.5851 14.2729 84.0415 14.5789C83.501 14.8846 82.8898 15.0436 82.2688 15.0399ZM82.1714 8.27367C81.8333 8.27513 81.4961 8.30993 81.1649 8.37757C80.8603 8.42255 80.5646 8.51455 80.2883 8.65028C80.2252 8.68311 80.1749 8.73614 80.1455 8.80087C80.1161 8.8656 80.1092 8.93831 80.1259 9.00742L80.5155 10.6633C80.5279 10.7206 80.5566 10.7731 80.598 10.8146C80.6395 10.856 80.692 10.8846 80.7493 10.897C80.7749 10.9034 80.8017 10.9034 80.8273 10.897C80.8724 10.8978 80.9171 10.8889 80.9585 10.8709C81 10.853 81.0371 10.8265 81.0675 10.7931C81.1797 10.6826 81.315 10.5984 81.4636 10.5464C81.6416 10.477 81.831 10.4417 82.0221 10.4425C82.2141 10.4385 82.4039 10.4831 82.574 10.5724C82.7229 10.6551 82.8447 10.7791 82.9247 10.9295C83.0153 11.0967 83.0601 11.2849 83.0545 11.475C83.0611 11.6076 83.0391 11.7401 82.9897 11.8633C82.9404 11.9866 82.8651 12.0978 82.7688 12.1893C82.5395 12.3833 82.2439 12.4811 81.9441 12.462C81.7046 12.4689 81.4667 12.42 81.2493 12.3191C81.0675 12.2264 80.9028 12.1034 80.7623 11.9555C80.7328 11.9206 80.696 11.8926 80.6545 11.8736C80.6129 11.8545 80.5677 11.8448 80.522 11.8451H80.4052C80.3452 11.8692 80.2935 11.9103 80.2565 11.9634C80.2196 12.0164 80.199 12.0792 80.1973 12.1438V13.975C80.1976 14.0309 80.2121 14.0858 80.2393 14.1346C80.2666 14.1835 80.3057 14.2246 80.3532 14.2542C80.8943 14.5311 81.4996 14.6589 82.1065 14.6243C82.7044 14.6337 83.2955 14.4954 83.8273 14.2217C84.3251 13.9637 84.7394 13.5697 85.0221 13.0854C85.3103 12.5911 85.4585 12.0276 85.4507 11.4555C85.4571 10.8798 85.3163 10.3121 85.0416 9.80613C84.7684 9.32083 84.366 8.92074 83.8792 8.65028C83.3633 8.37095 82.7839 8.23 82.1974 8.24119L82.1714 8.27367Z" fill="black"/>
</svg>
