<svg width="96" height="129" viewBox="0 0 96 129" fill="none" xmlns="http://www.w3.org/2000/svg">
<g clip-path="url(#clip0_1_6037)">
<path d="M56.073 8.08491L51.0298 4.19312L30.7405 50.7805L30.5587 51.0799L21.285 41.8324C5.0411 89.5835 37.3206 104.538 37.3206 104.538L34.6623 123.394L42.8852 125.021L46.3124 104.444C89.0698 99.8852 78.5994 48.9733 78.5994 48.9733C77.6986 48.5142 75.6583 46.306 73.8299 44.7572L67.2166 48.014L56.0635 8.0743L67.6714 48.5745" fill="black"/>
<path d="M51.0309 4.20521L35.7047 39.2823L31.3639 34.417L30.2567 57.5543L21.2894 41.8568C5.04219 89.5955 32.2947 100.694 32.2947 100.694L29.6363 119.55L37.8593 121.177L41.2804 100.601C84.0438 96.0406 73.5674 45.1303 73.5674 45.1303C71.2347 46.4218 63.9847 49.4174 63.9847 49.4174L51.0498 4.22639L37.0367 99.4582" fill="#9CFF3F"/>
<path d="M29.3785 119.726L34.674 123.385L42.897 125.012L37.6301 121.096L29.3785 119.726Z" fill="black"/>
<path d="M59.6476 34.271L43.3783 56.2655" stroke="black" stroke-width="0.71667" stroke-linecap="round" stroke-linejoin="round"/>
<path d="M35.7103 39.269L44.396 49.3536" stroke="black" stroke-width="0.71667" stroke-linecap="round" stroke-linejoin="round"/>
<path opacity="0.8" d="M70.9433 46.3896L17.4897 80.9394C17.4897 80.9394 21.0623 92.5644 25.3716 95.4255C29.6809 98.2867 74.6644 56.3825 74.6644 56.3825C74.6644 56.3825 74.3878 47.9072 73.5666 45.0784L70.9433 46.3896Z" fill="#C8FF93"/>
<path d="M51.0309 4.20521L35.7047 39.2823L31.3639 34.417L30.2567 57.5543L21.2894 41.8568C5.04218 89.5955 32.2947 100.694 32.2947 100.694L29.6363 119.55L37.8593 121.177L41.2804 100.601C84.0438 96.0406 73.5674 45.1303 73.5674 45.1303C71.2347 46.4218 63.9847 49.4174 63.9847 49.4174L51.0498 4.22639L37.0367 99.4582" stroke="black" stroke-width="0.71667" stroke-linecap="round" stroke-linejoin="round"/>
<path d="M63.9791 49.3924C62.8755 49.0345 41.4087 69.6194 41.4087 69.6194L63.9791 49.3924Z" fill="white"/>
<path d="M63.9791 49.3924C62.8755 49.0345 41.4087 69.6194 41.4087 69.6194" stroke="black" stroke-width="0.71667" stroke-linecap="round" stroke-linejoin="round"/>
</g>
<defs>
<clipPath id="clip0_1_6037">
<rect width="67.6682" height="114.771" fill="white" transform="matrix(-0.965022 0.262169 0.262169 0.965022 65.3013 0)"/>
</clipPath>
</defs>
</svg>
