<svg width="135" height="131" viewBox="0 0 135 131" fill="none" xmlns="http://www.w3.org/2000/svg">
<path d="M51.294 129.556C49.6466 129.556 48.04 129.043 46.6975 128.088C45.3551 127.133 44.3434 125.784 43.803 124.227C39.246 111.085 36.4018 96.6156 35.3973 81.2105V80.999L34.3982 55.798C34.3569 54.7566 34.5211 53.7173 34.8814 52.7394C35.2418 51.7615 35.7912 50.8642 36.4984 50.0986C37.2055 49.3331 38.0565 48.7143 39.0028 48.2776C39.9491 47.8409 40.9721 47.5949 42.0135 47.5536C43.0548 47.5123 44.0941 47.6765 45.072 48.0368C46.0499 48.3972 46.9473 48.9466 47.7129 49.6538C48.4784 50.3609 49.0972 51.2119 49.5339 52.1582C49.9706 53.1045 50.2166 54.1275 50.2579 55.1689L51.2306 80.2801C52.161 94.2313 54.7039 107.273 58.7851 119.046C59.473 121.033 59.3438 123.212 58.4258 125.103C57.5078 126.995 55.8762 128.444 53.8898 129.133C53.0547 129.42 52.177 129.563 51.294 129.556Z" fill="black"/>
<path d="M68.4498 129.562C66.8882 129.558 65.3623 129.094 64.0635 128.227C62.7647 127.36 61.7508 126.129 61.1491 124.687C55.2599 110.715 51.702 94.9981 50.576 77.9648V77.7534L49.672 54.9894C49.5885 52.8863 50.344 50.8362 51.7722 49.29C53.2003 47.7439 55.1841 46.8284 57.2873 46.745C59.3904 46.6616 61.4405 47.417 62.9866 48.8452C64.5328 50.2733 65.4482 52.2572 65.5316 54.3603L66.4304 77.0185C67.4507 92.2491 70.5962 106.216 75.7823 118.529C76.5977 120.466 76.6102 122.649 75.8171 124.596C75.024 126.543 73.4903 128.095 71.553 128.911C70.5739 129.338 69.5178 129.559 68.4498 129.562Z" fill="black"/>
<path d="M84.0876 129.556C82.6604 129.558 81.2592 129.174 80.0319 128.445C78.8047 127.717 77.7968 126.67 77.1146 125.417C68.7407 110.017 63.8189 92.0744 62.4972 72.0912V71.8797L61.6619 50.8815C61.5785 48.7784 62.334 46.7282 63.7621 45.1821C65.1903 43.636 67.1741 42.7205 69.2773 42.6371C71.3804 42.5537 73.4305 43.3091 74.9766 44.7373C76.5228 46.1654 77.4382 48.1493 77.5216 50.2524L78.3516 71.1449C79.5305 88.7809 83.8074 104.493 91.0394 117.836C91.6963 119.043 92.0282 120.4 92.0026 121.774C91.977 123.148 91.5946 124.492 90.8931 125.674C90.1916 126.856 89.195 127.835 88.001 128.516C86.807 129.196 85.4566 129.555 84.0823 129.556H84.0876Z" fill="black"/>
<path d="M101.951 130.111C100.671 130.112 99.4099 129.802 98.2758 129.209C97.1416 128.616 96.1678 127.758 95.4375 126.707C84.5524 111.069 78.3037 92.0745 76.8605 70.2463V70.0348L76.1257 51.5001C76.0844 50.4588 76.2486 49.4195 76.6089 48.4416C76.9693 47.4637 77.5187 46.5663 78.2259 45.8008C78.933 45.0352 79.784 44.4164 80.7303 43.9797C81.6766 43.5431 82.6996 43.2971 83.741 43.2557C84.7823 43.2144 85.8216 43.3787 86.7995 43.739C87.7774 44.0994 88.6748 44.6488 89.4403 45.3559C90.2059 46.0631 90.8247 46.9141 91.2614 47.8604C91.6981 48.8067 91.9441 49.8297 91.9854 50.871L92.7202 69.3C93.9837 88.1678 99.2861 104.435 108.479 117.651C109.307 118.84 109.793 120.232 109.885 121.678C109.977 123.123 109.672 124.566 109.001 125.85C108.331 127.134 107.322 128.21 106.084 128.961C104.846 129.713 103.425 130.11 101.977 130.111H101.951Z" fill="black"/>
<path d="M118.989 130.112C117.831 130.112 116.688 129.859 115.638 129.371C114.589 128.882 113.659 128.17 112.914 127.284C100.507 112.524 93.4758 93.8778 92.022 71.8593V71.6531L91.3823 55.6295C91.341 54.5882 91.5052 53.5489 91.8655 52.571C92.2259 51.5931 92.7753 50.6957 93.4824 49.9302C94.1896 49.1646 95.0406 48.5458 95.9869 48.1091C96.9332 47.6725 97.9562 47.4264 98.9976 47.3851C100.039 47.3438 101.078 47.5081 102.056 47.8684C103.034 48.2287 103.931 48.7782 104.697 49.4853C105.462 50.1925 106.081 51.0435 106.518 51.9898C106.955 52.9361 107.201 53.9591 107.242 55.0004L107.876 70.9183C109.119 89.4213 114.907 104.98 125.079 117.081C126.05 118.236 126.671 119.646 126.869 121.142C127.067 122.639 126.834 124.161 126.196 125.53C125.559 126.899 124.544 128.057 123.271 128.868C121.998 129.68 120.52 130.112 119.01 130.112H118.989Z" fill="black"/>
<path d="M71.1355 10.307C69.9936 10.1907 49.9576 6.38434 49.0959 27.0495C49.0959 27.0495 49.8413 33.8216 53.3251 38.0932C53.3251 38.0932 41.9378 33.1079 37.3597 38.0932C32.7815 43.0784 39.6488 47.001 39.6488 47.001C39.6488 47.001 27.6271 42.7295 28.4836 54.841C28.4836 54.841 12.7455 53.0594 12.46 60.1857C12.1745 67.312 16.4672 70.1614 16.4672 70.1614H118.038C118.038 70.1614 132.957 69.8918 134.352 64.8167C135.748 59.7416 121.041 57.8702 121.041 57.8702C121.041 57.8702 129.843 54.9309 129.309 51.3201C128.775 47.7094 121.908 45.1771 115.786 45.7111C115.786 45.7111 125.228 44.6538 118.789 39.0289C118.789 39.0289 104.515 29.4126 92.065 41.0325C92.065 41.0325 99.038 13.1406 71.1355 10.307Z" fill="black"/>
<path d="M16.4705 70.4258H16.3912L16.3225 70.3835C16.1427 70.2619 11.9082 67.3648 12.1989 60.1751C12.2191 59.5437 12.3744 58.9239 12.6544 58.3576C12.9344 57.7913 13.3325 57.2916 13.8219 56.8922C17.5225 53.7202 26.3934 54.3705 28.2067 54.5449C28.0216 51.1457 28.8569 48.7297 30.6808 47.3288C33.0174 45.5578 36.3533 45.9278 38.2617 46.3455C37.2044 45.489 35.8563 44.067 35.5761 42.259C35.3435 40.7787 35.8775 39.3196 37.1621 37.9187C41.1059 33.6207 49.7177 36.4173 52.5355 37.4905C49.5327 33.2242 48.8349 27.3403 48.8349 27.0812C49.0833 20.9858 50.997 16.4288 54.5285 13.4948C58.3665 10.2964 64.187 9.05933 70.9168 10.0109L71.1653 10.0426C79.3595 10.8779 85.3703 13.9494 89.0339 19.1672C94.5002 26.9596 93.0517 37.353 92.4913 40.3135C104.809 29.5342 118.797 38.7275 118.924 38.8333C120.817 40.4827 121.567 41.9259 121.192 43.1418C120.817 44.3577 119.532 44.9974 118.3 45.4203C123.587 45.6688 129.053 47.942 129.555 51.3043C130.01 54.3705 124.433 56.8763 122.101 57.7803C124.856 58.2244 132.23 59.657 134.197 62.6069C134.43 62.9364 134.587 63.3139 134.656 63.7119C134.724 64.1098 134.703 64.518 134.593 64.9066C133.161 70.1139 118.649 70.4363 118.031 70.4469L16.4705 70.4258ZM16.5551 69.8971H118.057C118.2 69.8971 132.785 69.5746 134.118 64.748C134.207 64.4323 134.224 64.1006 134.167 63.7774C134.111 63.4543 133.982 63.1481 133.79 62.8818C131.538 59.5037 121.134 58.1239 121.028 58.1239L119.881 57.9812L120.975 57.6111C121.065 57.5847 129.561 54.7035 129.064 51.3571C128.567 48.0107 122.138 45.415 115.847 45.9701L115.794 45.4415C115.837 45.4415 120.129 44.9128 120.743 42.9568C121.055 41.9576 120.351 40.6994 118.628 39.2245C118.512 39.1505 104.407 29.8831 92.2587 41.2228L91.6031 41.8307L91.8199 40.9638C91.8516 40.8422 94.8702 28.3817 88.6057 19.4633C85.0372 14.3776 79.1533 11.3854 71.123 10.5607L70.8534 10.529C64.2769 9.59328 58.6044 10.7933 54.8827 13.8913C51.4729 16.7302 49.6225 21.1603 49.3741 27.0548C49.3741 27.0812 50.1512 33.7582 53.5505 37.924L54.243 38.7698L53.2385 38.331C53.1275 38.2835 41.9729 33.478 37.5744 38.2676C36.4008 39.547 35.9092 40.858 36.1154 42.1691C36.533 44.8705 39.7684 46.7472 39.816 46.7684L39.5939 47.2442C39.5411 47.2442 34.1699 45.3622 31.0297 47.7729C29.301 49.0892 28.545 51.4734 28.7829 54.841L28.8093 55.1582L28.4921 55.1265C28.3864 55.1265 18.0723 53.9898 14.2184 57.3151C13.7779 57.6592 13.4168 58.0942 13.1595 58.5905C12.9023 59.0868 12.7549 59.6327 12.7276 60.191C12.4686 66.6142 16.037 69.5112 16.5551 69.8971Z" fill="black"/>
<path d="M75.0886 60.583C70.2091 61.0112 65.9693 58.5265 65.7208 58.3732C65.3866 58.1535 65.15 57.8134 65.0602 57.4237C64.9703 57.034 65.0342 56.6246 65.2384 56.2808C65.4427 55.9369 65.7717 55.685 66.1569 55.5775C66.5421 55.47 66.954 55.5151 67.3068 55.7035C67.6028 55.8727 74.359 59.79 79.5716 55.5396C79.8926 55.2914 80.2979 55.1781 80.7011 55.2238C81.1044 55.2695 81.4739 55.4706 81.7313 55.7844C81.9887 56.0982 82.1136 56.5 82.0795 56.9044C82.0454 57.3088 81.855 57.684 81.5488 57.9503C79.7125 59.4632 77.4593 60.3815 75.0886 60.583Z" fill="black"/>
<path d="M74.0642 60.9424C71.1098 60.875 68.219 60.0719 65.6533 58.6057C65.4541 58.4874 65.2804 58.3307 65.1425 58.1446C65.0045 57.9586 64.905 57.7469 64.8497 57.5219C64.7927 57.2953 64.7811 57.0596 64.8154 56.8284C64.8497 56.5972 64.9293 56.375 65.0496 56.1747C65.1699 55.9743 65.3286 55.7996 65.5166 55.6607C65.7045 55.5217 65.918 55.4213 66.1449 55.365C66.3691 55.3079 66.6025 55.2963 66.8313 55.3308C67.0601 55.3653 67.2797 55.4452 67.4771 55.5659C68.1908 55.9836 74.6298 59.515 79.6362 55.4179C80 55.1199 80.4674 54.9787 80.9353 55.0253C81.4033 55.0719 81.8335 55.3025 82.1315 55.6664C82.4294 56.0302 82.5706 56.4975 82.524 56.9654C82.4774 57.4334 82.2468 57.8637 81.883 58.1616C79.9943 59.7214 77.6736 60.666 75.2325 60.8683C74.8466 60.9265 74.4501 60.9424 74.0642 60.9424ZM66.5678 55.7298C66.2675 55.7316 65.976 55.8314 65.7375 56.014C65.4991 56.1966 65.3267 56.452 65.2466 56.7414C65.1664 57.0308 65.1829 57.3385 65.2935 57.6177C65.4041 57.8969 65.6028 58.1324 65.8594 58.2885C65.907 58.3202 70.1838 60.9318 75.2166 60.493C77.5832 60.2995 79.8339 59.3863 81.6662 57.8761C81.8063 57.7626 81.9224 57.6223 82.0077 57.4635C82.093 57.3047 82.1459 57.1305 82.1632 56.951C82.1832 56.7707 82.1664 56.5882 82.1136 56.4146C82.0609 56.241 81.9735 56.08 81.8565 55.9413C81.7437 55.8 81.6037 55.6828 81.4448 55.5965C81.2859 55.5103 81.1113 55.4567 80.9314 55.439C80.7503 55.4201 80.5673 55.4375 80.393 55.4901C80.2187 55.5427 80.0567 55.6296 79.9164 55.7457C74.688 60.0119 68.0322 56.3589 67.2921 55.9307C67.0743 55.7969 66.8233 55.7273 66.5678 55.7298Z" fill="black"/>
<path d="M74.0582 59.2823C71.408 59.2237 68.8089 58.5408 66.472 57.2893C66.4272 57.2627 66.3947 57.2193 66.3818 57.1687C66.3689 57.1182 66.3767 57.0645 66.4033 57.0197C66.43 56.9748 66.4733 56.9424 66.5239 56.9295C66.5745 56.9166 66.6281 56.9243 66.6729 56.951C66.7522 56.9932 74.6028 61.4763 80.6559 56.6443C80.6764 56.6284 80.6998 56.6166 80.7248 56.6097C80.7499 56.6028 80.776 56.6008 80.8018 56.604C80.8276 56.6072 80.8524 56.6155 80.875 56.6283C80.8976 56.6411 80.9175 56.6582 80.9334 56.6787C80.9494 56.6992 80.9612 56.7226 80.9681 56.7476C80.975 56.7727 80.9769 56.7988 80.9737 56.8246C80.9705 56.8504 80.9623 56.8753 80.9495 56.8978C80.9367 56.9204 80.9195 56.9403 80.8991 56.9562C78.9571 58.5006 76.5391 59.3227 74.0582 59.2823Z" fill="black"/>
<path d="M58.1205 53.3774C58.2398 52.9526 58.2327 52.5023 58.0999 52.0815C57.9671 51.6607 57.7144 51.2878 57.3729 51.0085C57.0313 50.7291 56.6157 50.5555 56.177 50.5088C55.7382 50.4621 55.2954 50.5445 54.9027 50.7457C54.51 50.947 54.1846 51.2584 53.9663 51.6418C53.7479 52.0252 53.6462 52.464 53.6735 52.9044C53.7008 53.3448 53.856 53.7677 54.12 54.1212C54.3841 54.4747 54.7455 54.7435 55.16 54.8947C55.7538 55.0845 56.3986 55.0315 56.9534 54.7472C57.5082 54.4628 57.9279 53.9703 58.1205 53.3774Z" fill="black"/>
<path d="M93.4703 52.8746C93.5887 52.4497 93.5806 51.9995 93.447 51.5791C93.3134 51.1588 93.0602 50.7865 92.7182 50.5078C92.3763 50.2292 91.9605 50.0563 91.5219 50.0104C91.0832 49.9644 90.6406 50.0474 90.2484 50.2491C89.8561 50.4509 89.5312 50.7626 89.3134 51.1462C89.0956 51.5297 88.9944 51.9685 89.0221 52.4087C89.0499 52.8489 89.2054 53.2714 89.4696 53.6246C89.7339 53.9778 90.0954 54.2463 90.5099 54.3971C90.8042 54.4925 91.1145 54.5287 91.4228 54.5037C91.7312 54.4787 92.0316 54.393 92.3067 54.2515C92.5818 54.11 92.8263 53.9155 93.026 53.6792C93.2257 53.4429 93.3767 53.1695 93.4703 52.8746Z" fill="black"/>
<path d="M39.8487 112.671C35.6881 100.671 32.8809 87.095 31.8659 71.7269L30.8668 46.5259" stroke="#E93340" stroke-width="15.8597" stroke-miterlimit="10" stroke-linecap="round"/>
<path d="M57.0097 112.671C51.7231 100.152 48.1706 85.5456 47.0445 68.507L46.1405 45.7378" stroke="#F8931F" stroke-width="15.8597" stroke-miterlimit="10" stroke-linecap="round"/>
<path d="M72.6369 112.671C65.3203 99.2218 60.2981 82.7595 58.9658 62.6124L58.1306 41.6089" stroke="#7BC942" stroke-width="15.8597" stroke-miterlimit="10" stroke-linecap="round"/>
<path d="M90.4998 113.221C81.3118 100.005 74.7934 82.9185 73.329 60.7625L72.5942 42.2173" stroke="#023AEC" stroke-width="15.8597" stroke-miterlimit="10" stroke-linecap="round"/>
<path d="M107.538 113.226C97.4193 101.183 89.9705 84.7633 88.5061 62.38L87.8665 46.3564" stroke="#864AE5" stroke-width="15.8597" stroke-miterlimit="10" stroke-linecap="round"/>
<path d="M59.6892 1.34651C58.5473 1.23021 38.5113 -2.57084 37.6495 18.0943C37.6495 18.0943 38.395 24.8611 41.8788 29.138C41.8788 29.138 30.4915 24.1528 25.9134 29.138C21.3352 34.1232 28.2025 38.0458 28.2025 38.0458C28.2025 38.0458 16.1808 33.769 17.0425 45.8858C17.0425 45.8858 1.29914 44.1042 1.01366 51.2305C0.72819 58.3568 5.01031 61.2063 5.01031 61.2063H106.592C106.592 61.2063 121.51 60.9367 122.906 55.8616C124.302 50.7865 109.594 48.915 109.594 48.915C109.594 48.915 118.397 45.9757 117.863 42.365C117.329 38.7542 110.461 36.222 104.34 36.7559C104.34 36.7559 113.781 35.6986 107.342 30.0737C107.342 30.0737 93.0686 20.4522 80.6188 32.0773C80.6082 32.0773 87.5917 4.20125 59.6892 1.34651Z" fill="#FCCCF4" stroke="black" stroke-miterlimit="10"/>
<path d="M63.6438 51.627C58.7643 52.0552 54.5245 49.5706 54.276 49.4173C53.9419 49.1975 53.7052 48.8574 53.6154 48.4677C53.5256 48.078 53.5894 47.6686 53.7937 47.3248C53.998 46.9809 54.3269 46.7291 54.7121 46.6216C55.0974 46.514 55.5092 46.5592 55.862 46.7475C56.158 46.9167 62.9143 50.8341 68.1268 46.5837C68.4458 46.3215 68.8559 46.1967 69.2668 46.2369C69.6778 46.277 70.0559 46.4788 70.3181 46.7978C70.5803 47.1167 70.705 47.5268 70.6649 47.9377C70.6247 48.3487 70.423 48.7269 70.104 48.989C68.2693 50.5053 66.0155 51.4257 63.6438 51.627Z" fill="#FF4551"/>
<path d="M63.7863 51.7331C58.8486 52.1613 54.5612 49.6502 54.3128 49.4969C54.0213 49.257 53.8249 48.9211 53.759 48.5495C53.693 48.1778 53.7618 47.7948 53.9529 47.4693C54.144 47.1438 54.4449 46.8972 54.8015 46.7736C55.1582 46.6501 55.5473 46.6579 55.8987 46.7955C56.2001 46.9699 63.0303 50.9296 68.301 46.6316C68.6281 46.4151 69.0239 46.3275 69.4118 46.3857C69.7997 46.444 70.1523 46.6439 70.4014 46.9469C70.6505 47.25 70.7785 47.6345 70.7606 48.0264C70.7428 48.4183 70.5803 48.7896 70.3046 49.0687C68.4526 50.5978 66.1791 51.5272 63.7863 51.7331V51.7331Z" stroke="black" stroke-width="0.396492" stroke-linecap="round" stroke-linejoin="round"/>
<path d="M55.1272 48.1643C55.1272 48.1643 63.0888 52.8217 69.3322 47.8418" stroke="black" stroke-width="0.396492" stroke-linecap="round" stroke-linejoin="round"/>
<path d="M46.6741 44.4219C46.7935 43.9971 46.7863 43.5467 46.6535 43.1259C46.5207 42.7051 46.2681 42.3322 45.9265 42.0529C45.585 41.7736 45.1694 41.5999 44.7306 41.5533C44.2918 41.5066 43.849 41.5889 43.4563 41.7902C43.0637 41.9914 42.7382 42.3028 42.5199 42.6862C42.3016 43.0697 42.1998 43.5085 42.2271 43.9489C42.2544 44.3892 42.4096 44.8121 42.6737 45.1656C42.9377 45.5191 43.2991 45.7879 43.7137 45.9391C44.3074 46.1304 44.9529 46.0781 45.5081 45.7935C46.0632 45.509 46.4827 45.0156 46.6741 44.4219Z" fill="black"/>
<path d="M82.0255 43.9195C82.1439 43.4946 82.1357 43.0444 82.0022 42.624C81.8686 42.2037 81.6153 41.8314 81.2734 41.5528C80.9315 41.2741 80.5157 41.1013 80.077 41.0553C79.6383 41.0094 79.1958 41.0923 78.8035 41.2941C78.4113 41.4958 78.0863 41.8075 77.8685 42.1911C77.6508 42.5746 77.5496 43.0134 77.5773 43.4536C77.6051 43.8938 77.7606 44.3164 78.0248 44.6695C78.2891 45.0227 78.6505 45.2912 79.065 45.4421C79.3594 45.5367 79.6695 45.5723 79.9776 45.547C80.2858 45.5217 80.5859 45.4359 80.8609 45.2945C81.1358 45.1531 81.3802 44.9588 81.58 44.7229C81.7799 44.487 81.9312 44.214 82.0255 43.9195Z" fill="black"/>
</svg>
