<svg width="103" height="170" viewBox="0 0 103 170" fill="none" xmlns="http://www.w3.org/2000/svg">
<path d="M29.4223 25.667C30.9757 25.1875 32.4948 24.6034 33.9694 23.9187C35.089 23.4433 37.3434 22.7378 38.1409 24.2791C38.2675 24.5538 38.3528 24.8458 38.3939 25.1456C39.9736 33.0744 41.5584 40.9982 43.1482 48.9168L46.7063 66.7376L46.898 67.6884C53.7456 67.4354 56.3681 64.2608 56.3681 64.2608C56.3681 64.2608 47.7185 28.4429 44.9733 19.7012C42.2281 10.9595 36.707 13.9808 36.707 13.9808C36.707 13.9808 26.2093 17.3241 25.7645 17.2704C25.7645 17.2704 25.6189 23.7346 29.4223 25.667Z" fill="black"/>
<path d="M25.7642 17.2705C25.6943 19.0107 26.0031 20.7453 26.6691 22.3545C27.1138 23.8881 28.8315 25.6441 29.4219 25.6671C29.6857 24.0639 29.4808 22.4187 28.8319 20.9292C28.1831 19.4396 27.1178 18.1691 25.7642 17.2705Z" fill="black"/>
<path d="M30.8475 15.7758C30.8475 15.7758 32.9639 20.7984 30.3721 25.384C31.6066 24.9239 33.0866 24.1647 34.5895 23.6893C35.0618 23.5046 35.5572 23.3859 36.0619 23.3366C38.0786 20.185 35.8164 14.7023 35.6324 14.2422C34.0988 14.6486 32.4348 15.2007 30.8475 15.7758Z" fill="black"/>
<path d="M38.6079 26.9096L39.0756 29.0644C44.6887 31.2268 46.9969 26.8483 46.9969 26.8483C46.4448 24.8699 45.977 23.0142 45.5169 21.4806C45.2715 20.7138 45.0951 19.947 44.8344 19.2568C44.7424 19.5176 44.336 24.5555 38.1401 24.2565C38.5159 25.9435 38.6079 26.9096 38.6079 26.9096Z" fill="black"/>
<path d="M41.7365 41.8779L42.1966 43.9866C43.6649 44.6413 45.3157 44.7629 46.8641 44.3303C48.4124 43.8977 49.7612 42.9381 50.6775 41.6172C50.1254 39.6311 49.9107 37.6911 49.42 36.1651C49.1746 35.3983 49.0673 34.4321 48.8066 33.7573C48.7145 34.018 47.2729 38.7493 41.0541 38.4502C41.4068 40.0989 41.7365 41.8779 41.7365 41.8779Z" fill="black"/>
<path d="M44.9658 58.3495L45.4718 60.6499C47.0942 61.3604 48.9103 61.4969 50.6207 61.0369C52.331 60.5769 53.8335 59.5479 54.8806 58.1194C54.2749 55.9493 53.8685 53.7716 53.347 52.0999C53.0863 51.2181 52.9636 50.2059 52.6799 49.4697C52.5802 49.7534 50.9623 54.5614 44.199 54.2393C44.5977 56.0644 44.9658 58.3495 44.9658 58.3495Z" fill="black"/>
<path d="M46.8977 68.0801C46.826 68.0794 46.7559 68.0589 46.6951 68.0211C46.6342 67.9832 46.5849 67.9294 46.5526 67.8654C46.5491 67.8272 46.5491 67.7886 46.5526 67.7504C46.5526 67.6584 46.3762 66.8685 46.3686 66.8225L41.4609 42.2845C40.3209 36.5947 39.1835 30.9075 38.0487 25.2228C38.0093 24.9584 37.9345 24.7005 37.8262 24.456C37.1591 23.1601 35.0351 23.8963 34.1456 24.272C32.6553 24.9693 31.1179 25.5612 29.5447 26.0433C29.4631 26.0739 29.3732 26.0739 29.2916 26.0433C25.3272 24.0189 25.4575 17.5624 25.4575 17.294C25.4605 17.2399 25.4742 17.1869 25.4979 17.1382C25.5216 17.0895 25.5548 17.046 25.5956 17.0103C25.6364 16.9752 25.6841 16.9489 25.7355 16.9331C25.787 16.9172 25.8412 16.9122 25.8947 16.9183C26.3854 16.8723 32.796 14.8862 36.6301 13.644C37.2774 13.3293 37.9828 13.1519 38.702 13.1229C39.4212 13.0939 40.1386 13.2139 40.8092 13.4753C42.8029 14.2421 44.3442 16.3432 45.4101 19.6098C48.1629 28.2748 56.7282 63.855 56.8203 64.2077C56.8331 64.2661 56.8329 64.3267 56.8196 64.385C56.8063 64.4433 56.7804 64.498 56.7436 64.5451C56.6286 64.6755 53.9294 67.8501 46.9897 68.1108L46.8977 68.0801ZM36.354 22.9608C36.7809 22.9238 37.2091 23.0122 37.5864 23.2151C37.9637 23.4181 38.2736 23.7268 38.478 24.1033C38.6193 24.4104 38.7174 24.7355 38.7694 25.0695C39.9043 30.7593 41.0418 36.449 42.1818 42.1388L47.0817 66.6768C47.1431 66.9452 47.1814 67.1522 47.212 67.3056C52.7791 67.0142 55.371 64.7445 55.9461 64.1694C55.2483 61.2708 47.235 28.1291 44.6049 19.8245C43.6387 16.7572 42.2584 14.8862 40.4871 14.1731C39.9081 13.9556 39.2912 13.8571 38.6733 13.8834C38.0554 13.9098 37.4491 14.0605 36.8908 14.3264C32.6349 15.6914 27.689 17.2403 26.1554 17.5854C26.1554 18.843 26.5004 23.6279 29.468 25.2535C30.945 24.7626 32.3961 24.1969 33.8158 23.5589C34.6144 23.1947 35.4769 22.9914 36.354 22.9608Z" fill="black"/>
<path d="M14.0156 78.439C14.0156 78.439 41.2145 50.7954 89.7232 62.773L101.992 156.248C101.992 156.248 80.7361 172.351 39.6119 169.161L14.0156 78.439Z" fill="black"/>
<path d="M50.019 169.813C46.6859 169.813 43.1943 169.677 39.5443 169.407H39.3449L39.2913 169.215L13.672 78.3397L13.787 78.217C13.8561 78.148 20.7727 71.2006 33.5402 65.8252C45.3184 60.8716 64.6345 56.2631 89.7706 62.4743L89.9623 62.5203L102.231 156.355L102.101 156.455C101.955 156.585 84.0196 169.813 50.019 169.813ZM39.7897 168.847C78.5369 171.776 99.7699 157.406 101.641 156.079L89.4486 62.965C43.3631 51.6775 16.3176 76.5607 14.3008 78.493L39.7897 168.847Z" fill="black"/>
<path d="M89.1865 56.9685C87.9059 48.2728 81.7485 42.606 73.4209 40.5586C66.7112 38.9023 59.7179 39.3241 52.9239 40.1216C45.7885 40.9146 38.7564 42.4567 31.9439 44.7225C23.3096 47.6517 14.5371 53.0501 11.7383 62.2442C10.6223 65.7373 10.5161 69.4746 11.4316 73.0256C11.4316 73.0256 8.5407 77.5191 12.6508 79.1601L14.3148 79.8119L14.0158 78.3549C14.0158 78.3549 27.7111 65.0584 49.9333 61.1553C72.1556 57.2522 89.7233 62.6889 89.7233 62.6889L89.9227 64.1689C89.9227 64.1689 93.6954 58.8778 89.7003 56.9685H89.1865Z" fill="black"/>
<path d="M14.8377 80.4711L12.5372 79.5662C12.009 79.3966 11.5268 79.1079 11.1279 78.7223C10.729 78.3368 10.4241 77.8646 10.2368 77.3425C9.66933 75.5711 10.6969 73.5927 11.0036 73.033C10.1133 69.4585 10.2354 65.7068 11.3563 62.1979C14.4235 52.2293 24.1545 47.015 31.8073 44.4231C38.6441 42.1397 45.7016 40.5797 52.8639 39.7686C59.5046 39.0018 66.5976 38.511 73.4989 40.2133C82.348 42.3988 88.1604 48.3645 89.5023 56.6231L89.8474 56.6691C90.3188 56.8654 90.7389 57.1672 91.0753 57.5515C91.4117 57.9357 91.6553 58.392 91.7874 58.8852C92.4162 61.316 90.3075 64.3066 90.2538 64.437L89.6941 65.2038L89.4027 63.0107C76.5228 59.7623 63.102 59.271 50.0191 61.5691C36.8591 63.9362 24.5763 69.7942 14.4542 78.531L14.8377 80.4711ZM63.1469 39.8299C59.7368 39.8665 56.3316 40.0995 52.9483 40.5277C45.8387 41.3256 38.8326 42.8677 32.045 45.1286C24.5609 47.6667 15.0294 52.7201 12.1078 62.3973C11.0153 65.8211 10.9116 69.4838 11.8088 72.9639L11.8547 73.125L11.7627 73.2707C11.7627 73.2707 10.4208 75.3948 10.9959 77.1048C11.1489 77.5173 11.3943 77.8893 11.7133 78.1924C12.0323 78.4954 12.4165 78.7214 12.8363 78.8531L13.8332 79.2442L13.6338 78.278L13.7871 78.1323C13.9251 77.9942 27.8198 64.7054 49.9041 60.8253C71.9883 56.9452 89.7017 62.3129 89.8781 62.3589L90.1158 62.4356L90.2002 63.0721C90.7446 62.0675 91.45 60.4189 91.0973 59.0693C90.9971 58.6986 90.8148 58.3552 90.5639 58.0646C90.3131 57.7739 90.0001 57.5433 89.6481 57.3899H88.8813L88.8352 57.0756C87.639 48.978 81.9953 43.1119 73.3533 40.9725C70.0176 40.1808 66.5981 39.7971 63.17 39.8299H63.1469Z" fill="black"/>
<path d="M81.7879 92.6408C81.9214 92.0853 81.89 91.5028 81.6975 90.9649C81.505 90.427 81.1597 89.9569 80.7041 89.6122C80.2484 89.2675 79.7021 89.0633 79.1321 89.0244C78.5621 88.9855 77.9931 89.1138 77.4949 89.3934C76.9967 89.673 76.5908 90.0918 76.3271 90.5986C76.0633 91.1054 75.9531 91.6782 76.0099 92.2467C76.0668 92.8152 76.2882 93.3547 76.6471 93.7993C77.006 94.2438 77.4868 94.5741 78.0305 94.7495C78.8083 94.9625 79.6386 94.8606 80.3418 94.466C81.045 94.0713 81.5645 93.4156 81.7879 92.6408Z" fill="black"/>
<path d="M58.8073 103.545C56.3197 103.618 53.8477 103.128 51.5763 102.111C51.2519 101.949 51.0054 101.664 50.8911 101.319C50.7768 100.975 50.8039 100.599 50.9666 100.275C51.1293 99.9504 51.4142 99.7039 51.7586 99.5896C52.103 99.4753 52.4788 99.5024 52.8032 99.6651C53.1482 99.8338 60.6784 103.499 66.2608 97.15C66.5058 96.8926 66.841 96.7402 67.196 96.7249C67.551 96.7096 67.8982 96.8326 68.1644 97.068C68.4305 97.3034 68.595 97.6329 68.6233 97.9871C68.6515 98.3414 68.5413 98.6927 68.3158 98.9674C67.141 100.355 65.6872 101.48 64.049 102.269C62.4108 103.057 60.6247 103.492 58.8073 103.545Z" fill="black"/>
<path d="M58.2763 103.936C55.8982 103.926 53.5482 103.422 51.375 102.456C51.1655 102.354 50.9783 102.212 50.8243 102.038C50.6703 101.863 50.5526 101.66 50.4779 101.439C50.4033 101.218 50.3733 100.985 50.3896 100.753C50.4059 100.521 50.4682 100.294 50.5729 100.086C50.6777 99.8783 50.8227 99.6932 50.9996 99.5419C51.1765 99.3905 51.3817 99.2758 51.6033 99.2045C51.825 99.1332 52.0585 99.1066 52.2905 99.1264C52.5225 99.1462 52.7482 99.2119 52.9545 99.3198C53.2613 99.4731 60.5613 102.993 65.9904 96.8967C66.1418 96.7232 66.3262 96.5816 66.5329 96.4803C66.7396 96.3789 66.9645 96.3197 67.1943 96.3062C67.4249 96.2906 67.6561 96.3211 67.8748 96.3959C68.0934 96.4706 68.2949 96.5882 68.4676 96.7417C68.6404 96.8951 68.7808 97.0814 68.8808 97.2897C68.9808 97.498 69.0383 97.7241 69.05 97.9549C69.066 98.1843 69.0355 98.4146 68.9604 98.632C68.8853 98.8494 68.7671 99.0494 68.6129 99.2201C67.4059 100.648 65.9113 101.806 64.2267 102.617C62.542 103.428 60.7051 103.875 58.836 103.928H58.2916L58.2763 103.936ZM52.1877 99.9026C51.9647 99.8994 51.7472 99.9723 51.5711 100.109C51.3951 100.246 51.2709 100.439 51.2191 100.656C51.1673 100.873 51.191 101.101 51.2862 101.303C51.3815 101.505 51.5426 101.668 51.743 101.766C53.9584 102.751 56.3663 103.228 58.79 103.162C60.5502 103.108 62.2795 102.685 63.865 101.919C65.4505 101.152 66.8566 100.06 67.9918 98.714C68.0797 98.6177 68.1475 98.5048 68.191 98.3819C68.2344 98.2589 68.2528 98.1285 68.245 97.9983C68.2371 97.8682 68.2032 97.741 68.1452 97.6242C68.0872 97.5074 68.0063 97.4034 67.9074 97.3184C67.7083 97.1512 67.4542 97.0637 67.1943 97.073C66.935 97.0907 66.6929 97.2091 66.5195 97.4027C60.7378 103.936 52.9316 100.171 52.6018 100.002C52.4721 99.942 52.3308 99.9106 52.1877 99.9102V99.9026Z" fill="black"/>
<path d="M58.2469 102.564C56.0994 102.558 53.9775 102.098 52.0203 101.214C51.9749 101.192 51.9343 101.162 51.9011 101.124C51.8678 101.086 51.8427 101.041 51.8269 100.993C51.8112 100.945 51.8052 100.895 51.8094 100.844C51.8137 100.794 51.8281 100.745 51.8516 100.701C51.8976 100.61 51.9774 100.542 52.0737 100.51C52.1699 100.479 52.2749 100.486 52.3654 100.532C52.7105 100.708 60.8924 104.703 67.0039 97.7944C67.0383 97.7577 67.0799 97.7285 67.1261 97.7085C67.1722 97.6885 67.222 97.6782 67.2723 97.6782C67.3226 97.6782 67.3723 97.6885 67.4185 97.7085C67.4646 97.7285 67.5062 97.7577 67.5406 97.7944C67.579 97.8267 67.6104 97.8665 67.6331 97.9112C67.6559 97.9559 67.6694 98.0047 67.673 98.0547C67.6766 98.1047 67.6701 98.155 67.654 98.2025C67.6378 98.2499 67.6123 98.2937 67.579 98.3312C66.4293 99.6781 64.9973 100.756 63.3845 101.487C61.7717 102.219 60.0176 102.586 58.2469 102.564Z" fill="black"/>
<path d="M23.1804 62.7426C23.1037 63.4557 23.1803 64.3989 23.9011 64.5676C24.1156 64.6171 24.3385 64.6171 24.553 64.5676C26.4624 64.1842 28.502 63.7318 29.867 62.3362C31.4696 60.6952 31.7227 58.203 31.899 55.9179C32.1137 53.3261 32.3592 50.6652 33.4787 48.3188C33.8468 47.552 34.3298 46.6932 34.0844 45.865C33.8927 45.2209 29.7979 46.6318 29.2688 47.0612C28.1109 47.9201 27.4131 49.5611 26.7767 50.8033C24.857 54.5293 23.6381 58.5762 23.1804 62.7426Z" fill="black"/>
<path d="M74.9785 137.154C75.9568 137.154 76.7498 136.361 76.7498 135.383C76.7498 134.405 75.9568 133.612 74.9785 133.612C74.0002 133.612 73.2072 134.405 73.2072 135.383C73.2072 136.361 74.0002 137.154 74.9785 137.154Z" fill="black"/>
<path d="M79.6863 128.413C80.0378 128.413 80.3227 128.128 80.3227 127.776C80.3227 127.425 80.0378 127.14 79.6863 127.14C79.3348 127.14 79.0498 127.425 79.0498 127.776C79.0498 128.128 79.3348 128.413 79.6863 128.413Z" fill="black"/>
<path d="M75.7828 122.417C76.5154 122.417 77.1094 121.823 77.1094 121.09C77.1094 120.358 76.5154 119.764 75.7828 119.764C75.0501 119.764 74.4562 120.358 74.4562 121.09C74.4562 121.823 75.0501 122.417 75.7828 122.417Z" fill="black"/>
<path d="M32.9887 134.869C35.1358 143.181 37.8196 151.34 40.5111 159.491C40.8028 160.723 41.4077 161.859 42.2671 162.789C43.3192 163.603 44.584 164.095 45.9095 164.207C57.5267 166.109 69.3586 163.272 80.6615 159.974C83.7807 159.174 86.8023 158.032 89.6716 156.57C92.2644 155.359 94.4312 153.393 95.8884 150.931C97.3455 148.468 98.0251 145.623 97.8382 142.767C97.7691 138.366 96.4272 134.102 95.6374 129.77C94.1651 121.664 94.6022 113.252 92.4704 105.301C92.1944 104.281 91.7803 103.161 90.8141 102.747C90.0991 102.513 89.3283 102.513 88.6133 102.747C78.6448 104.978 68.9292 109.365 58.7076 108.882C55.9547 108.766 53.2172 108.291 50.4643 108.337C47.7115 108.383 44.8436 109.012 42.7962 110.806C42.4465 111.161 42.0491 111.466 41.6154 111.711C40.6645 112.163 39.5449 111.841 38.502 111.657C34.9824 111.036 27.3756 112.923 28.0657 117.662C28.4491 120.269 29.9137 122.968 30.6269 125.521C31.4627 128.665 32.1835 131.779 32.9887 134.869Z" fill="black"/>
<g opacity="0.5">
<path opacity="0.5" d="M24.715 71.4386C24.715 71.4386 30.9338 104.22 40.2583 129.387C49.5828 154.554 52.5734 164.66 56.4764 163.748C60.3795 162.835 30.3587 76.837 34.8829 66.3623L24.715 71.4386Z" fill="black"/>
</g>
<path d="M40.4708 100.938C40.6058 100.381 40.5754 99.7965 40.3832 99.2565C40.191 98.7166 39.8455 98.2445 39.3889 97.8981C38.9323 97.5517 38.3846 97.346 37.8129 97.3064C37.2412 97.2667 36.6702 97.3948 36.1702 97.6749C35.6702 97.9549 35.2628 98.3748 34.9979 98.883C34.733 99.3912 34.6222 99.9657 34.6791 100.536C34.7359 101.106 34.9579 101.648 35.3179 102.093C35.6779 102.539 36.1603 102.871 36.7057 103.046C37.4845 103.262 38.3168 103.161 39.0218 102.766C39.7268 102.371 40.2475 101.714 40.4708 100.938Z" fill="black"/>
<path d="M19.9742 13.214C21.5262 12.7274 23.0452 12.1408 24.5214 11.458C25.6486 10.9825 27.903 10.277 28.6929 11.8183C28.8187 12.094 28.9065 12.3855 28.9536 12.6848C30.5282 20.6137 32.1103 28.5375 33.7002 36.4561L37.2659 54.2692L37.4576 55.22C44.3052 54.967 46.9277 51.7924 46.9277 51.7924C46.9277 51.7924 38.3011 15.9668 35.5252 7.22514C32.7493 -1.51655 27.2589 1.50468 27.2589 1.50468C27.2589 1.50468 16.769 4.84802 16.3242 4.79435C16.3242 4.82502 16.1784 11.2739 19.9742 13.214Z" fill="#FFFFE7"/>
<path d="M16.3249 4.82471C16.2515 6.56761 16.5602 8.3055 17.2297 9.91637C17.6668 11.45 19.3844 13.1983 19.9749 13.229C20.241 11.6254 20.0381 9.97904 19.3905 8.48804C18.743 6.99705 17.6785 5.72491 16.3249 4.82471Z" fill="#272B71"/>
<path d="M21.3928 3.29207C21.3928 3.29207 23.5092 8.31468 20.9097 12.9079C22.1442 12.4401 23.6242 11.681 25.1348 11.2056C25.6065 11.0191 26.1021 10.9003 26.607 10.8528C28.6161 7.70124 26.3617 2.21853 26.17 1.76611C24.6594 2.19553 22.9877 2.74763 21.3928 3.29207Z" fill="#FF532B"/>
<path d="M29.1699 14.4488L29.6299 16.6112C35.243 18.766 37.5588 14.3951 37.5588 14.3951C37.0066 12.4091 36.5389 10.5611 36.0788 9.02744C35.8334 8.26063 35.6494 7.49384 35.3887 6.80371C35.3044 7.06443 34.8902 12.1024 28.6943 11.8033C29.0547 13.4826 29.1699 14.4488 29.1699 14.4488Z" fill="#FF532B"/>
<path d="M32.2984 29.4175L32.7508 31.5262C34.22 32.1829 35.8726 32.3056 37.4227 31.8729C38.9727 31.4402 40.3228 30.4794 41.2395 29.1567C40.6874 27.1707 40.4727 25.2383 39.9819 23.7047C39.7365 22.9379 39.6215 21.9717 39.3608 21.2969C39.2687 21.5576 37.8271 26.2888 31.6083 25.9975C31.9687 27.6538 32.2984 29.4175 32.2984 29.4175Z" fill="#FF532B"/>
<path d="M35.5261 45.8963L36.0245 48.1968C37.6469 48.9073 39.4629 49.0438 41.1733 48.5838C42.8836 48.1238 44.3862 47.0947 45.4333 45.6663C44.8352 43.4962 44.4288 41.3184 43.8997 39.6468C43.6313 38.7649 43.5086 37.7604 43.2249 37.0166C43.1252 37.308 41.5149 42.1083 34.7439 41.7862C35.158 43.6036 35.5261 45.8963 35.5261 45.8963Z" fill="#FF532B"/>
<path d="M19.9742 13.214C21.5262 12.7274 23.0452 12.1408 24.5214 11.458C25.6486 10.9825 27.903 10.277 28.6929 11.8183C28.8187 12.094 28.9065 12.3855 28.9536 12.6849C30.5282 20.6137 32.1103 28.5375 33.7002 36.4561L37.2659 54.2692L37.4576 55.22C44.3052 54.967 46.9277 51.7924 46.9277 51.7924C46.9277 51.7924 38.3011 15.9668 35.5252 7.22514C32.7493 -1.51655 27.2589 1.50468 27.2589 1.50468C27.2589 1.50468 16.769 4.84802 16.3242 4.79435C16.3242 4.82502 16.1784 11.2739 19.9742 13.214Z" stroke="#BD2247" stroke-width="0.766814" stroke-linejoin="round"/>
<path d="M4.56995 65.9475C4.56995 65.9475 31.7688 38.2962 80.2852 50.2738L92.5542 143.748C92.5542 143.748 71.2981 159.852 30.1739 156.662L4.56995 65.9475Z" fill="#A2D3FF" stroke="black" stroke-miterlimit="10"/>
<path d="M79.7488 44.5383C78.4605 35.8426 72.303 30.1835 63.9754 28.1285C57.2734 26.4722 50.2801 26.8939 43.4861 27.6914C36.3476 28.4808 29.3125 30.023 22.4984 32.2923C13.8717 35.2138 5.09173 40.6122 2.29286 49.814C1.19145 53.2938 1.08518 57.0123 1.98611 60.5494C1.98611 60.5494 -0.904795 65.0429 3.213 66.6839L4.86934 67.3357L4.57027 65.8864C4.57027 65.8864 18.2656 52.5822 40.4878 48.6791C62.7101 44.776 80.2855 50.2127 80.2855 50.2127L80.4772 51.6927C80.4772 51.6927 84.2499 46.4016 80.2625 44.4923L79.7488 44.5383Z" fill="#FF2152" stroke="black" stroke-miterlimit="10"/>
<path d="M72.3483 80.18C72.4812 79.6248 72.4495 79.0428 72.2569 78.5054C72.0643 77.9679 71.7193 77.4983 71.264 77.1538C70.8087 76.8094 70.2628 76.6051 69.6932 76.566C69.1237 76.5269 68.5551 76.6546 68.057 76.9336C67.5589 77.2126 67.1529 77.6307 66.8886 78.1368C66.6244 78.6429 66.5134 79.215 66.5693 79.7832C66.6251 80.3514 66.8454 80.891 67.2031 81.336C67.5607 81.7809 68.0403 82.112 68.5832 82.2887C69.362 82.504 70.1943 82.4033 70.8992 82.0084C71.6042 81.6136 72.125 80.9565 72.3483 80.18Z" fill="black"/>
<path d="M49.3665 91.0846C46.8765 91.157 44.4021 90.6669 42.1278 89.6507C41.826 89.4744 41.6029 89.1896 41.5039 88.8545C41.4049 88.5194 41.4374 88.159 41.5949 87.8471C41.7523 87.5351 42.0229 87.2949 42.3513 87.1755C42.6797 87.0561 43.0413 87.0665 43.3623 87.2045C43.6997 87.3732 51.2375 91.0386 56.82 84.697C56.9342 84.5471 57.0781 84.4223 57.2426 84.3305C57.4071 84.2386 57.5888 84.1816 57.7763 84.163C57.9639 84.1443 58.1531 84.1646 58.3325 84.2223C58.5119 84.2801 58.6775 84.3742 58.8189 84.4987C58.9603 84.6233 59.0746 84.7756 59.1546 84.9462C59.2346 85.1169 59.2786 85.3021 59.2838 85.4905C59.2891 85.6789 59.2555 85.8664 59.1852 86.0412C59.1148 86.216 59.0093 86.3745 58.8751 86.5067C57.7 87.8941 56.2461 89.0187 54.6079 89.8074C52.9697 90.5961 51.1839 91.0312 49.3665 91.0846Z" fill="#FF6879" stroke="black" stroke-width="0.766814" stroke-miterlimit="10"/>
<path d="M42.7504 88.4082C42.7504 88.4082 51.4613 92.802 57.8489 85.5786" stroke="black" stroke-width="0.766814" stroke-miterlimit="10" stroke-linecap="round"/>
<path d="M13.7327 50.2812C13.656 50.9943 13.7327 51.9451 14.4535 52.1061C14.6679 52.1556 14.8908 52.1556 15.1053 52.1061C17.0223 51.7227 19.0544 51.2703 20.4193 49.8747C22.022 48.2338 22.275 45.7493 22.4591 43.4642C22.6661 40.8647 22.9115 38.2115 23.9927 35.8573C24.3684 35.0905 24.8438 34.2317 24.5984 33.4036C24.4067 32.7595 20.3119 34.1704 19.7905 34.5998C18.6249 35.4586 17.9348 37.0996 17.2983 38.3419C15.393 42.0715 14.1847 46.1176 13.7327 50.2812Z" fill="#FF577C"/>
<path d="M65.5327 124.694C66.511 124.694 67.304 123.901 67.304 122.923C67.304 121.944 66.511 121.151 65.5327 121.151C64.5544 121.151 63.7614 121.944 63.7614 122.923C63.7614 123.901 64.5544 124.694 65.5327 124.694Z" fill="#FFD3A1"/>
<path d="M70.2385 115.952C70.59 115.952 70.875 115.667 70.875 115.316C70.875 114.964 70.59 114.679 70.2385 114.679C69.887 114.679 69.6021 114.964 69.6021 115.316C69.6021 115.667 69.887 115.952 70.2385 115.952Z" fill="#FFD3A1"/>
<path d="M66.3444 109.964C67.0771 109.964 67.671 109.37 67.671 108.637C67.671 107.904 67.0771 107.311 66.3444 107.311C65.6118 107.311 65.0178 107.904 65.0178 108.637C65.0178 109.37 65.6118 109.964 66.3444 109.964Z" fill="#FFD3A1"/>
<path d="M23.5398 122.408C25.6869 130.721 28.3785 138.879 31.0623 147.031C31.3624 148.262 31.966 149.398 32.8183 150.336C33.875 151.145 35.1418 151.635 36.4683 151.747C48.0855 153.648 59.9175 150.811 71.2127 147.514C74.334 146.712 77.358 145.57 80.2304 144.109C83.1134 142.628 85.4736 140.3 86.9937 137.438C88.0073 135.21 88.4853 132.775 88.3894 130.329C88.3204 125.928 86.9861 121.657 86.1963 117.294C84.724 109.196 85.1611 100.776 83.0217 92.8246C82.7456 91.8124 82.3315 90.6852 81.3653 90.2711C80.6498 90.0411 79.8801 90.0411 79.1646 90.2711C69.196 92.5025 59.4804 96.8887 49.2588 96.4056C46.5136 96.2829 43.7761 95.8075 41.0232 95.8535C38.2704 95.8995 35.4025 96.5283 33.3551 98.3227C33.0054 98.6776 32.6079 98.9822 32.1742 99.2275C31.2156 99.6876 30.0961 99.3578 29.0533 99.1738C25.5413 98.5604 17.9268 100.439 18.6246 105.178C19.0003 107.785 20.4649 110.484 21.1781 113.038C22.0216 116.205 22.7423 119.318 23.5398 122.408Z" fill="#864AE5"/>
<path opacity="0.5" d="M15.2518 58.9782C15.2518 58.9782 21.4784 91.7595 30.7952 116.926C40.112 142.093 43.1101 152.2 47.0132 151.287C50.9163 150.375 20.8956 64.3765 25.4275 53.9019L15.2518 58.9782Z" fill="#C9E5FF"/>
<path d="M31.0241 88.4767C31.1576 87.9212 31.1262 87.3388 30.9337 86.8009C30.7412 86.2629 30.396 85.7928 29.9404 85.4482C29.4847 85.1035 28.9384 84.8992 28.3684 84.8603C27.7984 84.8214 27.2294 84.9497 26.7312 85.2293C26.233 85.5089 25.8272 85.9278 25.5634 86.4346C25.2996 86.9414 25.1894 87.5141 25.2463 88.0826C25.3031 88.6511 25.5245 89.1907 25.8834 89.6352C26.2423 90.0798 26.723 90.41 27.2667 90.5855C28.0445 90.7984 28.8748 90.6966 29.578 90.3019C30.2812 89.9073 30.8008 89.2516 31.0241 88.4767Z" fill="black"/>
</svg>
