<svg width="80" height="80" viewBox="0 0 80 80" fill="none" xmlns="http://www.w3.org/2000/svg">
<g id="btn_log">
<rect id="Rectangle 191" x="11.5" y="11.5" width="67" height="67" rx="23.5" fill="#0A0A0A" stroke="black" stroke-width="3"/>
<rect id="Rectangle 192" x="1.5" y="1.5" width="67" height="67" rx="23.5" fill="white" stroke="black" stroke-width="3"/>
<path id="Union" fill-rule="evenodd" clip-rule="evenodd" d="M43.3329 34.6348C45.5937 32.4525 46.9998 29.3904 46.9998 26C46.9998 19.3726 41.6272 14 34.9998 14C28.3723 14 22.9998 19.3726 22.9998 26C22.9998 29.3905 24.4059 32.4526 26.6668 34.6349C19.8835 37.7477 15.1412 44.5432 15 52.4611H22.2676C22.2676 49.1819 23.5703 46.037 25.889 43.7182C28.2078 41.3994 31.3527 40.0967 34.6319 40.0967C42.1905 40.0967 47.7248 45.6311 47.7248 52.4611H54.9998C54.8586 44.5426 50.1162 37.7473 43.3329 34.6348ZM39.9998 26C39.9998 28.7614 37.7612 31 34.9998 31C32.2383 31 29.9998 28.7614 29.9998 26C29.9998 23.2386 32.2383 21 34.9998 21C37.7612 21 39.9998 23.2386 39.9998 26Z" fill="black"/>
</g>
</svg>
