<svg width="432" height="114" viewBox="0 0 432 114" fill="none" xmlns="http://www.w3.org/2000/svg">
<g id="btn_cadastre">
<path id="Rectangle 187" d="M38 15.5H406.5C419.479 15.5 430 26.0213 430 39V89C430 101.979 419.479 112.5 406.5 112.5H38C25.0213 112.5 14.5 101.979 14.5 89V39C14.5 26.0213 25.0213 15.5 38 15.5Z" fill="black" stroke="black" stroke-width="3"/>
<path id="Rectangle 186" d="M25 1.5H393.5C406.479 1.5 417 12.0213 417 25V75C417 87.9787 406.479 98.5 393.5 98.5H25C12.0213 98.5 1.5 87.9787 1.5 75V25C1.5 12.0213 12.0213 1.5 25 1.5Z" fill="white" stroke="black" stroke-width="3"/>
</g>
</svg>
