<svg width="164" height="174" viewBox="0 0 164 174" fill="none" xmlns="http://www.w3.org/2000/svg">
<path d="M63.4548 87.2769C63.4548 87.2769 39.623 135.614 69.964 147.126C100.305 158.638 133.719 163.927 125.623 101.41L63.4548 87.2769Z" fill="#8FE1FF"/>
<path d="M91.4511 137.029C90.3016 137.158 89.1388 137.097 88.0091 136.849C82.5319 135.653 79.4825 130.477 79.3582 130.257C79.2538 130.085 79.1849 129.895 79.1553 129.697C79.1258 129.498 79.1362 129.296 79.1861 129.102C79.2361 128.907 79.3244 128.725 79.446 128.565C79.5675 128.406 79.7198 128.272 79.8938 128.172C80.0679 128.073 80.2601 128.009 80.4592 127.984C80.6584 127.96 80.8603 127.976 81.0532 128.031C81.2461 128.086 81.426 128.18 81.5823 128.305C81.7385 128.431 81.868 128.587 81.963 128.764C81.9688 128.816 84.4716 133.023 88.6661 133.917C91.1716 134.46 93.8759 133.698 96.6896 131.667C96.8492 131.546 97.0314 131.458 97.2255 131.408C97.4196 131.359 97.6217 131.348 97.8198 131.378C98.018 131.408 98.2082 131.477 98.3793 131.581C98.5503 131.685 98.6988 131.823 98.8159 131.985C98.9331 132.148 99.0165 132.332 99.0613 132.527C99.1061 132.723 99.1114 132.925 99.0768 133.122C99.0423 133.32 98.9686 133.508 98.8601 133.676C98.7516 133.845 98.6105 133.99 98.4451 134.103C96.4093 135.672 93.998 136.681 91.4511 137.029Z" fill="#FF6047"/>
<path d="M28.7707 77.9952C26.7354 77.2273 24.7211 76.4059 22.7276 75.531C17.0546 73.0266 11.5987 69.5694 8.03176 64.4898C3.33263 57.7888 3.30908 49.8908 8.17308 43.4197C15.5891 33.5563 29.3967 28.0107 40.4226 23.3759C73.5253 9.45547 113.486 3.95963 145.746 23.0966C149.498 25.333 153.076 27.8484 156.45 30.6216C166.107 38.6412 174.345 48.2299 180.817 58.9854C187.252 69.5415 194.674 82.7774 193.674 95.5257C193.399 99.1383 192.332 102.79 190.046 105.612C182.524 114.872 167.346 111.998 157.358 109.461C146.441 106.678 135.555 103.992 124.632 101.277L111.092 97.9169C102.581 95.8014 94.0831 93.6911 85.5321 91.767C66.6664 87.4957 46.926 84.8302 28.7707 77.9952Z" fill="#FF2B0A" stroke="#1100A5" stroke-miterlimit="10"/>
<path d="M105.46 59.5281C109.502 59.0884 112.475 55.9341 112.099 52.4828C111.724 49.0315 108.143 46.59 104.1 47.0297C100.058 47.4693 97.0854 50.6236 97.4608 54.0749C97.8362 57.5263 101.417 59.9677 105.46 59.5281Z" fill="white"/>
<path d="M87.4068 29.7521C87.9726 28.6979 87.4247 27.3031 86.183 26.6367C84.9413 25.9703 83.476 26.2846 82.9103 27.3387C82.3445 28.3929 82.8924 29.7877 84.1341 30.4541C85.3758 31.1205 86.8411 30.8062 87.4068 29.7521Z" fill="white"/>
<path d="M128.669 34.5923C132.036 34.2261 134.598 32.3794 134.39 30.4677C134.182 28.5559 131.284 27.3031 127.916 27.6693C124.549 28.0356 121.987 29.8822 122.195 31.794C122.403 33.7057 125.302 34.9585 128.669 34.5923Z" fill="white"/>
<path d="M164.725 68.0684C168.45 66.3757 170.384 62.6118 169.043 59.6616C167.702 56.7114 163.596 55.6921 159.87 57.3849C156.145 59.0777 154.212 62.8416 155.552 65.7917C156.893 68.7419 161 69.7612 164.725 68.0684Z" fill="white"/>
<path d="M139.203 51.8402C140.771 51.5843 141.874 50.3463 141.667 49.075C141.459 47.8037 140.02 46.9805 138.452 47.2364C136.883 47.4923 135.78 48.7304 135.987 50.0017C136.195 51.273 137.634 52.0961 139.203 51.8402Z" fill="white"/>
<path d="M103.784 19.9673C105.218 19.8113 106.282 18.7829 106.161 17.6701C106.04 16.5574 104.78 15.7817 103.346 15.9377C101.912 16.0936 100.848 17.1221 100.969 18.2348C101.09 19.3476 102.35 20.1232 103.784 19.9673Z" fill="white"/>
<path d="M68.3447 128.253C70.1142 128.06 71.3926 126.47 71.2002 124.701C71.0077 122.931 69.4173 121.653 67.6478 121.845C65.8784 122.038 64.6 123.628 64.7924 125.397C64.9849 127.167 66.5753 128.445 68.3447 128.253Z" fill="#1100A5"/>
<path d="M110.056 136.389C111.825 136.197 113.104 134.606 112.911 132.837C112.719 131.068 111.128 129.789 109.359 129.982C107.589 130.174 106.311 131.764 106.503 133.534C106.696 135.303 108.286 136.582 110.056 136.389Z" fill="#1100A5"/>
<path d="M80.6604 129.514C80.6604 129.514 86.9602 140.546 97.5638 132.889" stroke="#1100A5" stroke-miterlimit="10" stroke-linecap="round"/>
<path d="M91.4511 137.029C90.3016 137.158 89.1388 137.097 88.0091 136.849C82.5319 135.653 79.4825 130.477 79.3582 130.257C79.2538 130.085 79.1849 129.895 79.1553 129.697C79.1258 129.498 79.1362 129.296 79.1861 129.102C79.2361 128.907 79.3244 128.725 79.446 128.565C79.5675 128.406 79.7198 128.272 79.8938 128.172C80.0679 128.073 80.2601 128.009 80.4592 127.984C80.6584 127.96 80.8603 127.976 81.0532 128.031C81.2461 128.086 81.426 128.18 81.5823 128.305C81.7385 128.431 81.868 128.587 81.963 128.764C81.9688 128.816 84.4716 133.023 88.6661 133.917C91.1716 134.46 93.8759 133.698 96.6896 131.667C96.8492 131.546 97.0314 131.458 97.2255 131.408C97.4196 131.359 97.6217 131.348 97.8198 131.378C98.018 131.408 98.2082 131.477 98.3793 131.581C98.5503 131.685 98.6988 131.823 98.8159 131.985C98.9331 132.148 99.0165 132.332 99.0613 132.527C99.1061 132.723 99.1114 132.925 99.0768 133.122C99.0423 133.32 98.9686 133.508 98.8601 133.676C98.7516 133.845 98.6105 133.99 98.4451 134.103C96.4093 135.672 93.998 136.681 91.4511 137.029V137.029Z" stroke="#1100A5" stroke-miterlimit="10"/>
<path opacity="0.6" d="M18.0778 38.6196C13.7288 41.6526 9.18228 45.6963 9.03198 51.0131C8.92638 54.7743 11.1542 58.235 13.7485 60.9473C20.648 68.0907 30.4607 71.4751 39.8857 74.6141C42.8435 75.6293 46.0458 76.6178 49.006 75.6274C50.5232 75.1349 51.8411 74.1627 53.3306 73.5997C54.8201 73.0367 56.6973 72.9662 57.8233 74.1003C58.3313 74.7171 58.7383 75.4106 59.0293 76.1548C59.9583 77.9258 61.3944 79.3794 63.154 80.3299C64.9136 81.2803 66.9167 81.6844 68.9071 81.4905C70.5982 81.3066 72.2391 80.6602 73.9422 80.6488C76.7733 80.6216 79.2937 82.2858 81.7568 83.6689C85.8564 85.9635 90.653 87.6609 95.2089 86.5304C99.7648 85.4 103.583 80.4997 102.09 76.0501C100.675 71.8326 95.7488 70.1693 91.5578 68.6935C82.2164 65.3845 73.6164 60.272 66.2464 53.6467C64.6904 52.2452 63.1551 50.7278 62.3318 48.8122C60.9209 45.5501 61.8023 41.7312 63.3748 38.5523C64.9474 35.3735 67.1789 32.5374 68.6504 29.2893C69.3511 27.7426 69.8785 25.9541 69.2768 24.3552C68.1376 21.3176 64.0217 21.0233 60.7865 21.2682C45.2171 22.3533 31.0209 30.2872 18.0778 38.6196Z" fill="#FF7661"/>
<path d="M45.6689 53.3222C46.6327 51.1362 43.8943 47.8122 39.5525 45.8979C35.2107 43.9835 30.9096 44.2038 29.9457 46.3898C28.9819 48.5758 31.7203 51.8998 36.0622 53.8142C40.404 55.7285 44.7051 55.5082 45.6689 53.3222Z" fill="white"/>
<path d="M63.1401 32.1477C66.4236 31.7905 68.8721 29.5402 68.609 27.1213C68.346 24.7025 65.4709 23.0311 62.1874 23.3882C58.9039 23.7454 56.4553 25.9957 56.7184 28.4146C56.9815 30.8334 59.8566 32.5048 63.1401 32.1477Z" fill="white"/>
<path d="M138.193 95.4843C139.138 97.1728 141.097 98.0359 142.998 98.4307C144.899 98.8255 146.87 98.8785 148.698 99.5219C150.659 100.218 152.313 101.542 154.117 102.575C158.07 104.819 162.666 105.656 167.163 106.504C170.571 107.109 174.191 107.698 177.366 106.343C178.232 105.866 179.173 105.538 180.148 105.372L180.878 103.481L183.617 106.973C188.868 106.088 192.41 100.67 192.858 95.3273C193.306 89.9848 191.391 84.7924 189.41 79.8544C186.828 73.3777 184.078 66.966 180.999 60.7171C179.943 58.566 178.444 56.1491 176.053 55.988C179.055 61.8812 180.617 68.4026 180.609 75.0165C180.595 79.4362 179.537 84.3972 175.805 86.7682C174.195 87.7313 172.303 88.1094 170.447 87.8388C168.591 87.5682 166.885 86.6654 165.617 85.2829C165.032 86.8957 163.859 88.2281 162.333 89.0136C160.808 89.7992 159.042 89.98 157.389 89.5198C155.699 88.9817 154.021 87.7472 152.327 88.2723C150.924 88.7057 150.099 90.219 148.735 90.7684C147.899 91.0341 147.014 91.1076 146.145 90.9833C141.26 90.6256 137.548 89.5588 138.193 95.4843Z" fill="#AB1700"/>
<path d="M58.1713 100.277C58.1713 100.277 90.4821 123.385 126.5 115.685C126.5 115.685 126.087 103.892 125.324 101.676L63.1372 87.552C63.1372 87.552 58.8479 98.0779 58.1713 100.277Z" fill="#588799"/>
<path d="M63.4548 87.2769C63.4548 87.2769 39.623 135.614 69.964 147.126C100.305 158.638 133.719 163.927 125.623 101.41L63.4548 87.2769Z" stroke="#1100A5" stroke-miterlimit="10"/>
<path d="M98.7537 171.648C98.7537 171.648 92.2583 166.508 93.0702 157.851C93.339 152.442 94.716 152.173 95.1 148.525C98.0734 149.2 105.243 151.499 105.924 162.728" fill="#04D493"/>
<path d="M98.7537 171.648C98.7537 171.648 92.2583 166.508 93.0702 157.851C93.339 152.442 94.716 152.173 95.1 148.525C98.0734 149.2 105.243 151.499 105.924 162.728" stroke="#023AEC" stroke-miterlimit="10"/>
<path d="M104.837 156.908C104.837 156.908 105.386 149.469 108.76 145.678C110.423 143.894 111.961 141.996 113.363 140C113.363 140 117.554 144.328 117.554 149.469C117.554 154.609 115.793 161.368 115.793 161.368" fill="#04D493"/>
<path d="M104.837 156.908C104.837 156.908 105.386 149.469 108.76 145.678C110.423 143.894 111.961 141.996 113.363 140C113.363 140 117.554 144.328 117.554 149.469C117.554 154.609 115.793 161.368 115.793 161.368" stroke="#023AEC" stroke-miterlimit="10"/>
<path d="M111.058 168.132C111.058 168.132 113.39 160.72 119.424 159.623C125.459 158.526 127.407 156.644 127.407 156.644C127.407 156.644 131.06 168.954 120.236 173.42" fill="#04D493"/>
<path d="M111.058 168.132C111.058 168.132 113.39 160.72 119.424 159.623C125.459 158.526 127.407 156.644 127.407 156.644C127.407 156.644 131.06 168.954 120.236 173.42" stroke="#023AEC" stroke-miterlimit="10"/>
</svg>



