<svg width="57" height="43" viewBox="0 0 57 43" fill="none" xmlns="http://www.w3.org/2000/svg">
<g clip-path="url(#clip0_725_211)">
<path d="M48.2845 3.60118C44.5395 1.89465 40.586 0.683953 36.525 0C35.9701 0.989268 35.4673 2.00659 35.0186 3.04784C30.6926 2.40115 26.2939 2.40115 21.9679 3.04784C21.5192 2.00659 21.0164 0.989268 20.4615 0C16.3983 0.691794 12.4425 1.90529 8.69297 3.61011C1.25078 14.5698 -0.766678 25.2574 0.242052 35.7932C4.59992 38.9991 9.47827 41.4368 14.6647 43C15.832 41.4365 16.8653 39.778 17.7536 38.0422C16.0671 37.4155 14.4393 36.642 12.8893 35.7307C13.2973 35.4362 13.6963 35.1327 14.0818 34.8382C18.5924 36.9496 23.5155 38.0443 28.5 38.0443C33.4844 38.0443 38.4075 36.9496 42.9181 34.8382C43.3081 35.155 43.7071 35.4585 44.1106 35.7307C42.5581 36.6444 40.9273 37.4194 39.2373 38.0467C40.124 39.782 41.1574 41.4391 42.3263 43C47.5171 41.4431 52.3992 39.0065 56.7579 35.7976C57.9414 23.5795 54.7359 12.9901 48.2845 3.60118ZM19.0313 29.3137C16.2203 29.3137 13.898 26.7746 13.898 23.6509C13.898 20.5272 16.1396 17.9658 19.0224 17.9658C21.9051 17.9658 24.2095 20.5272 24.1602 23.6509C24.1109 26.7746 21.8961 29.3137 19.0313 29.3137ZM37.9686 29.3137C35.1531 29.3137 32.8397 26.7746 32.8397 23.6509C32.8397 20.5272 35.0814 17.9658 37.9686 17.9658C40.8558 17.9658 43.1422 20.5272 43.0929 23.6509C43.0436 26.7746 40.8334 29.3137 37.9686 29.3137Z" fill="black"/>
</g>
<defs>
<clipPath id="clip0_725_211">
<rect width="57" height="43" fill="white"/>
</clipPath>
</defs>
</svg>
