<svg width="1206" height="641" viewBox="0 0 1206 641" fill="none" xmlns="http://www.w3.org/2000/svg">
<g clip-path="url(#clip0_226_5869)">
<path d="M74.562 517.984C74.562 518.927 74.9376 519.832 75.6062 520.499C76.2747 521.166 77.1815 521.541 78.127 521.541C78.5983 521.546 79.066 521.458 79.5029 521.281C79.9398 521.104 80.3373 520.843 80.6723 520.512C81.0074 520.182 81.2734 519.788 81.455 519.354C81.6365 518.92 81.73 518.454 81.73 517.984C81.7614 517.495 81.6909 517.005 81.5235 516.544C81.356 516.083 81.0951 515.662 80.7568 515.307C80.4185 514.952 80.0103 514.67 79.5578 514.479C79.1052 514.289 78.6181 514.194 78.127 514.2C77.639 514.199 77.1561 514.298 76.708 514.491C76.2599 514.684 75.8563 514.966 75.5221 515.321C75.1879 515.675 74.9304 516.095 74.7652 516.553C74.6 517.011 74.5308 517.498 74.562 517.984Z" fill="white" fill-opacity="0.25"/>
<path d="M96.6349 340.366C97.9545 340.366 99.0242 339.298 99.0242 337.982C99.0242 336.665 97.9545 335.598 96.6349 335.598C95.3153 335.598 94.2456 336.665 94.2456 337.982C94.2456 339.298 95.3153 340.366 96.6349 340.366Z" fill="white" fill-opacity="0.25"/>
<path d="M6.40918 184.883C6.40918 185.516 6.66109 186.122 7.10918 186.569C7.55726 187.016 8.16483 187.267 8.79852 187.267C9.43221 187.267 10.04 187.016 10.4881 186.569C10.9362 186.122 11.1879 185.516 11.1879 184.883C11.1879 184.251 10.9362 183.645 10.4881 183.198C10.04 182.751 9.43221 182.5 8.79852 182.5C8.16483 182.5 7.55726 182.751 7.10918 183.198C6.66109 183.645 6.40918 184.251 6.40918 184.883Z" fill="white" fill-opacity="0.25"/>
<path d="M6.06836 411.806C6.06836 412.439 6.32004 413.045 6.76812 413.492C7.21621 413.939 7.82401 414.19 8.4577 414.19C9.08479 414.18 9.68282 413.925 10.1227 413.479C10.5626 413.033 10.8092 412.432 10.8091 411.806C10.8092 411.181 10.5626 410.58 10.1227 410.134C9.68282 409.688 9.08479 409.433 8.4577 409.423C7.82401 409.423 7.21621 409.674 6.76812 410.121C6.32004 410.568 6.06836 411.174 6.06836 411.806Z" fill="white" fill-opacity="0.25"/>
<path d="M173.662 377.978C173.662 378.61 173.914 379.217 174.362 379.664C174.81 380.111 175.418 380.362 176.051 380.362C176.685 380.362 177.293 380.111 177.741 379.664C178.189 379.217 178.441 378.61 178.441 377.978C178.441 377.346 178.189 376.739 177.741 376.292C177.293 375.845 176.685 375.594 176.051 375.594C175.418 375.594 174.81 375.845 174.362 376.292C173.914 376.739 173.662 377.346 173.662 377.978Z" fill="white" fill-opacity="0.25"/>
<path d="M745.847 357.961C745.847 358.593 746.099 359.2 746.547 359.647C746.995 360.094 747.603 360.345 748.237 360.345C748.87 360.345 749.478 360.094 749.926 359.647C750.374 359.2 750.626 358.593 750.626 357.961C750.626 357.329 750.374 356.722 749.926 356.275C749.478 355.828 748.87 355.577 748.237 355.577C747.603 355.577 746.995 355.828 746.547 356.275C746.099 356.722 745.847 357.329 745.847 357.961Z" fill="white" fill-opacity="0.25"/>
<path d="M170.969 90.6255C170.969 91.2578 171.221 91.8642 171.669 92.3112C172.117 92.7583 172.725 93.0094 173.359 93.0094C173.992 93.0094 174.6 92.7583 175.048 92.3112C175.496 91.8642 175.748 91.2578 175.748 90.6255C175.748 89.9933 175.496 89.387 175.048 88.9399C174.6 88.4929 173.992 88.2417 173.359 88.2417C172.728 88.2515 172.126 88.5058 171.68 88.9507C171.234 89.3957 170.979 89.9963 170.969 90.6255Z" fill="white" fill-opacity="0.25"/>
<path d="M348.12 19.6009C348.12 20.2332 348.372 20.8395 348.82 21.2866C349.268 21.7336 349.876 21.9848 350.509 21.9848C351.143 21.9848 351.751 21.7336 352.199 21.2866C352.647 20.8395 352.899 20.2332 352.899 19.6009C352.899 18.9687 352.647 18.3623 352.199 17.9153C351.751 17.4682 351.143 17.217 350.509 17.217C349.876 17.217 349.268 17.4682 348.82 17.9153C348.372 18.3623 348.12 18.9687 348.12 19.6009Z" fill="white" fill-opacity="0.25"/>
<path d="M413.77 360.686C413.779 361.315 414.034 361.916 414.48 362.361C414.926 362.806 415.528 363.06 416.159 363.07C416.793 363.07 417.4 362.818 417.848 362.371C418.296 361.924 418.548 361.318 418.548 360.686C418.548 360.053 418.296 359.447 417.848 359C417.4 358.553 416.793 358.302 416.159 358.302C415.525 358.302 414.917 358.553 414.469 359C414.021 359.447 413.77 360.053 413.77 360.686Z" fill="white" fill-opacity="0.25"/>
<path d="M205.292 92.1011C205.292 92.7334 205.544 93.3397 205.992 93.7868C206.44 94.2339 207.048 94.485 207.681 94.485C208.308 94.4751 208.906 94.2196 209.346 93.7736C209.786 93.3276 210.033 92.7269 210.033 92.1011C210.033 91.4754 209.786 90.8747 209.346 90.4287C208.906 89.9827 208.308 89.7272 207.681 89.7173C207.048 89.7173 206.44 89.9685 205.992 90.4155C205.544 90.8626 205.292 91.4689 205.292 92.1011Z" fill="white" fill-opacity="0.25"/>
<path d="M299.879 452.295C301.198 452.295 302.268 451.227 302.268 449.911C302.268 448.594 301.198 447.527 299.879 447.527C298.559 447.527 297.489 448.594 297.489 449.911C297.489 451.227 298.559 452.295 299.879 452.295Z" fill="white" fill-opacity="0.25"/>
<path d="M682.056 538.758C683.376 538.758 684.446 537.691 684.446 536.374C684.446 535.058 683.376 533.99 682.056 533.99C680.737 533.99 679.667 535.058 679.667 536.374C679.667 537.691 680.737 538.758 682.056 538.758Z" fill="white" fill-opacity="0.25"/>
<path d="M633.815 142.428C633.815 143.06 634.067 143.666 634.515 144.113C634.963 144.56 635.57 144.811 636.204 144.811C636.838 144.811 637.446 144.56 637.894 144.113C638.342 143.666 638.593 143.06 638.593 142.428C638.593 141.795 638.342 141.189 637.894 140.742C637.446 140.295 636.838 140.044 636.204 140.044C635.57 140.044 634.963 140.295 634.515 140.742C634.067 141.189 633.815 141.795 633.815 142.428Z" fill="white" fill-opacity="0.25"/>
<path d="M722.599 265.746C722.599 266.379 722.85 266.985 723.298 267.432C723.746 267.879 724.354 268.13 724.988 268.13C725.622 268.13 726.229 267.879 726.678 267.432C727.126 266.985 727.377 266.379 727.377 265.746C727.368 265.117 727.113 264.517 726.667 264.072C726.221 263.627 725.619 263.372 724.988 263.363C724.354 263.363 723.746 263.614 723.298 264.061C722.85 264.508 722.599 265.114 722.599 265.746Z" fill="white" fill-opacity="0.25"/>
<path d="M877.563 431.937C877.573 432.566 877.828 433.167 878.274 433.612C878.72 434.057 879.322 434.311 879.953 434.321C880.587 434.321 881.194 434.07 881.642 433.623C882.09 433.176 882.342 432.569 882.342 431.937C882.342 431.305 882.09 430.699 881.642 430.251C881.194 429.804 880.587 429.553 879.953 429.553C879.319 429.553 878.711 429.804 878.263 430.251C877.815 430.699 877.563 431.305 877.563 431.937Z" fill="white" fill-opacity="0.25"/>
<path d="M530.202 570.884C530.202 571.516 530.453 572.122 530.901 572.569C531.349 573.016 531.957 573.267 532.591 573.267C533.225 573.267 533.832 573.016 534.28 572.569C534.728 572.122 534.98 571.516 534.98 570.884C534.98 570.251 534.728 569.645 534.28 569.198C533.832 568.751 533.225 568.5 532.591 568.5C531.957 568.5 531.349 568.751 530.901 569.198C530.453 569.645 530.202 570.251 530.202 570.884Z" fill="white" fill-opacity="0.25"/>
<path d="M1179.26 166.531C1180.58 166.531 1181.65 165.464 1181.65 164.148C1181.65 162.831 1180.58 161.764 1179.26 161.764C1177.94 161.764 1176.87 162.831 1176.87 164.148C1176.87 165.464 1177.94 166.531 1179.26 166.531Z" fill="white" fill-opacity="0.25"/>
<path d="M532.97 89.4903C532.97 90.1226 533.222 90.7289 533.67 91.176C534.118 91.623 534.726 91.8742 535.36 91.8742C535.993 91.8742 536.601 91.623 537.049 91.176C537.497 90.7289 537.749 90.1226 537.749 89.4903C537.749 88.8581 537.497 88.2517 537.049 87.8047C536.601 87.3576 535.993 87.1064 535.36 87.1064C534.726 87.1064 534.118 87.3576 533.67 87.8047C533.222 88.2517 532.97 88.8581 532.97 89.4903Z" fill="white" fill-opacity="0.25"/>
<path d="M895.426 575.159C896.746 575.159 897.816 574.092 897.816 572.775C897.816 571.459 896.746 570.392 895.426 570.392C894.107 570.392 893.037 571.459 893.037 572.775C893.037 574.092 894.107 575.159 895.426 575.159Z" fill="white" fill-opacity="0.25"/>
<path d="M952.277 356.296C953.597 356.296 954.666 355.229 954.666 353.912C954.666 352.596 953.597 351.528 952.277 351.528C950.957 351.528 949.888 352.596 949.888 353.912C949.888 355.229 950.957 356.296 952.277 356.296Z" fill="white" fill-opacity="0.25"/>
<path d="M1060.93 321.143C1060.93 321.775 1061.19 322.382 1061.63 322.829C1062.08 323.276 1062.69 323.527 1063.32 323.527C1063.95 323.517 1064.56 323.263 1065 322.818C1065.45 322.373 1065.7 321.772 1065.71 321.143C1065.71 320.511 1065.46 319.905 1065.01 319.458C1064.56 319.01 1063.96 318.759 1063.32 318.759C1062.69 318.759 1062.08 319.01 1061.63 319.458C1061.19 319.905 1060.93 320.511 1060.93 321.143Z" fill="white" fill-opacity="0.25"/>
<path d="M752.295 185.602C752.295 186.235 752.547 186.841 752.995 187.288C753.443 187.735 754.051 187.986 754.684 187.986C755.318 187.986 755.925 187.735 756.374 187.288C756.822 186.841 757.074 186.235 757.074 185.602C757.074 184.97 756.822 184.364 756.374 183.917C755.925 183.47 755.318 183.219 754.684 183.219C754.051 183.219 753.443 183.47 752.995 183.917C752.547 184.364 752.295 184.97 752.295 185.602Z" fill="white" fill-opacity="0.25"/>
<path d="M978.863 98.5339C980.183 98.5339 981.252 97.4666 981.252 96.15C981.252 94.8334 980.183 93.7661 978.863 93.7661C977.543 93.7661 976.474 94.8334 976.474 96.15C976.474 97.4666 977.543 98.5339 978.863 98.5339Z" fill="white" fill-opacity="0.25"/>
<path d="M420.027 439.921C420.018 439.296 419.762 438.699 419.315 438.26C418.868 437.821 418.266 437.575 417.638 437.575C417.011 437.575 416.409 437.821 415.962 438.26C415.515 438.699 415.259 439.296 415.249 439.921C415.249 440.554 415.501 441.16 415.949 441.607C416.397 442.054 417.005 442.305 417.638 442.305C418.272 442.305 418.88 442.054 419.328 441.607C419.776 441.16 420.027 440.554 420.027 439.921Z" fill="white" fill-opacity="0.25"/>
<path d="M474.071 615.761C475.391 615.761 476.461 614.694 476.461 613.377C476.461 612.061 475.391 610.993 474.071 610.993C472.752 610.993 471.682 612.061 471.682 613.377C471.682 614.694 472.752 615.761 474.071 615.761Z" fill="white" fill-opacity="0.25"/>
<path d="M721.461 221.891C722.781 221.891 723.85 220.823 723.85 219.507C723.85 218.19 722.781 217.123 721.461 217.123C720.141 217.123 719.072 218.19 719.072 219.507C719.072 220.823 720.141 221.891 721.461 221.891Z" fill="white" fill-opacity="0.25"/>
<path d="M699.73 301.05C701.049 301.05 702.119 299.983 702.119 298.667C702.119 297.35 701.049 296.283 699.73 296.283C698.41 296.283 697.34 297.35 697.34 298.667C697.34 299.983 698.41 301.05 699.73 301.05Z" fill="white" fill-opacity="0.25"/>
<path d="M602.981 154.158C604.301 154.158 605.37 153.091 605.37 151.774C605.37 150.457 604.301 149.39 602.981 149.39C601.662 149.39 600.592 150.457 600.592 151.774C600.592 153.091 601.662 154.158 602.981 154.158Z" fill="white" fill-opacity="0.25"/>
<path d="M340.535 289.547C341.854 289.547 342.924 288.48 342.924 287.163C342.924 285.847 341.854 284.78 340.535 284.78C339.215 284.78 338.146 285.847 338.146 287.163C338.146 288.48 339.215 289.547 340.535 289.547Z" fill="white" fill-opacity="0.25"/>
<path d="M593.651 372.567C593.651 371.935 593.4 371.328 592.951 370.881C592.503 370.434 591.896 370.183 591.262 370.183C590.628 370.183 590.02 370.434 589.572 370.881C589.124 371.328 588.873 371.935 588.873 372.567C588.873 373.199 589.124 373.806 589.572 374.253C590.02 374.7 590.628 374.951 591.262 374.951C591.896 374.951 592.503 374.7 592.951 374.253C593.4 373.806 593.651 373.199 593.651 372.567Z" fill="white" fill-opacity="0.25"/>
<path d="M256.871 303.018C256.871 302.386 256.619 301.78 256.171 301.333C255.723 300.885 255.115 300.634 254.482 300.634C253.851 300.644 253.249 300.898 252.803 301.343C252.357 301.788 252.102 302.389 252.092 303.018C252.092 303.65 252.344 304.257 252.792 304.704C253.24 305.151 253.848 305.402 254.482 305.402C255.115 305.402 255.723 305.151 256.171 304.704C256.619 304.257 256.871 303.65 256.871 303.018Z" fill="white" fill-opacity="0.25"/>
<path d="M344.896 527.822C344.896 527.19 344.645 526.584 344.197 526.137C343.749 525.69 343.141 525.438 342.507 525.438C341.88 525.448 341.282 525.704 340.842 526.15C340.402 526.596 340.156 527.197 340.156 527.822C340.156 528.448 340.402 529.049 340.842 529.495C341.282 529.941 341.88 530.196 342.507 530.206C343.141 530.206 343.749 529.955 344.197 529.508C344.645 529.061 344.896 528.455 344.896 527.822Z" fill="white" fill-opacity="0.25"/>
<path d="M136.04 540.99C136.04 540.358 135.788 539.752 135.34 539.305C134.891 538.858 134.284 538.606 133.65 538.606C133.023 538.616 132.425 538.872 131.985 539.318C131.545 539.764 131.299 540.365 131.299 540.99C131.299 541.616 131.545 542.217 131.985 542.663C132.425 543.109 133.023 543.364 133.65 543.374C134.284 543.374 134.891 543.123 135.34 542.676C135.788 542.229 136.04 541.623 136.04 540.99Z" fill="white" fill-opacity="0.25"/>
<path d="M197.707 608.685C199.026 608.685 200.096 607.618 200.096 606.301C200.096 604.985 199.026 603.917 197.707 603.917C196.387 603.917 195.317 604.985 195.317 606.301C195.317 607.618 196.387 608.685 197.707 608.685Z" fill="white" fill-opacity="0.25"/>
<path d="M757.604 600.323C758.924 600.323 759.993 599.255 759.993 597.939C759.993 596.622 758.924 595.555 757.604 595.555C756.285 595.555 755.215 596.622 755.215 597.939C755.215 599.255 756.285 600.323 757.604 600.323Z" fill="white" fill-opacity="0.25"/>
<path d="M206.012 2.3839C206.012 1.75166 205.761 1.1453 205.313 0.69823C204.864 0.251165 204.257 0 203.623 0C202.989 0 202.382 0.251165 201.934 0.69823C201.486 1.1453 201.234 1.75166 201.234 2.3839C201.244 3.00957 201.5 3.60624 201.947 4.04515C202.394 4.48407 202.996 4.73001 203.623 4.72993C204.25 4.73001 204.852 4.48407 205.299 4.04515C205.746 3.60624 206.002 3.00957 206.012 2.3839Z" fill="white" fill-opacity="0.25"/>
<path d="M1078.46 439.089C1079.78 439.089 1080.84 438.022 1080.84 436.705C1080.84 435.388 1079.78 434.321 1078.46 434.321C1077.14 434.321 1076.07 435.388 1076.07 436.705C1076.07 438.022 1077.14 439.089 1078.46 439.089Z" fill="white" fill-opacity="0.25"/>
<path d="M936.5 428.759C937.819 428.759 938.889 427.691 938.889 426.375C938.889 425.058 937.819 423.991 936.5 423.991C935.18 423.991 934.11 425.058 934.11 426.375C934.11 427.691 935.18 428.759 936.5 428.759Z" fill="white" fill-opacity="0.25"/>
<path d="M168.883 164.185C168.883 163.553 168.631 162.947 168.183 162.5C167.735 162.053 167.128 161.802 166.494 161.802C165.86 161.802 165.252 162.053 164.804 162.5C164.356 162.947 164.104 163.553 164.104 164.185C164.104 164.818 164.356 165.424 164.804 165.871C165.252 166.318 165.86 166.569 166.494 166.569C167.128 166.569 167.735 166.318 168.183 165.871C168.631 165.424 168.883 164.818 168.883 164.185Z" fill="white" fill-opacity="0.25"/>
<path d="M541.01 73.5977C541.01 72.9655 540.759 72.3592 540.31 71.9121C539.862 71.465 539.255 71.2139 538.621 71.2139C537.987 71.2139 537.379 71.465 536.931 71.9121C536.483 72.3592 536.231 72.9655 536.231 73.5977C536.231 74.23 536.483 74.8363 536.931 75.2834C537.379 75.7304 537.987 75.9816 538.621 75.9816C539.255 75.9816 539.862 75.7304 540.31 75.2834C540.759 74.8363 541.01 74.23 541.01 73.5977Z" fill="white" fill-opacity="0.25"/>
<path d="M710.462 2.83795C710.462 2.2057 710.211 1.59934 709.763 1.15227C709.314 0.705209 708.707 0.454102 708.073 0.454102C707.439 0.454102 706.832 0.705209 706.384 1.15227C705.936 1.59934 705.684 2.2057 705.684 2.83795C705.684 3.47019 705.936 4.07655 706.384 4.52362C706.832 4.97068 707.439 5.22185 708.073 5.22185C708.707 5.22185 709.314 4.97068 709.763 4.52362C710.211 4.07655 710.462 3.47019 710.462 2.83795Z" fill="white" fill-opacity="0.25"/>
<path d="M580.794 103.226C580.795 102.6 580.548 101.999 580.108 101.553C579.668 101.107 579.07 100.852 578.443 100.842C577.809 100.842 577.202 101.093 576.753 101.54C576.305 101.987 576.054 102.594 576.054 103.226C576.054 103.858 576.305 104.464 576.753 104.912C577.202 105.359 577.809 105.61 578.443 105.61C579.07 105.6 579.668 105.344 580.108 104.898C580.548 104.452 580.795 103.852 580.794 103.226Z" fill="white" fill-opacity="0.25"/>
<path d="M402.544 122.978C403.863 122.978 404.933 121.911 404.933 120.594C404.933 119.278 403.863 118.21 402.544 118.21C401.224 118.21 400.154 119.278 400.154 120.594C400.154 121.911 401.224 122.978 402.544 122.978Z" fill="white" fill-opacity="0.25"/>
<path d="M4.74072 638.616C4.74079 637.99 4.49429 637.39 4.05438 636.944C3.61446 636.498 3.01643 636.242 2.38934 636.232C1.75565 636.232 1.14808 636.483 0.699996 636.93C0.251912 637.377 0 637.984 0 638.616C0 639.248 0.251912 639.855 0.699996 640.302C1.14808 640.749 1.75565 641 2.38934 641C3.01643 640.99 3.61446 640.734 4.05438 640.288C4.49429 639.842 4.74079 639.242 4.74072 638.616Z" fill="white" fill-opacity="0.25"/>
<path d="M84.9535 117.908C84.9535 117.275 84.7018 116.669 84.2537 116.222C83.8056 115.775 83.1978 115.524 82.5641 115.524C81.9305 115.524 81.3227 115.775 80.8746 116.222C80.4265 116.669 80.1748 117.275 80.1748 117.908C80.1748 118.54 80.4265 119.146 80.8746 119.593C81.3227 120.04 81.9305 120.291 82.5641 120.291C83.1978 120.291 83.8056 120.04 84.2537 119.593C84.7018 119.146 84.9535 118.54 84.9535 117.908Z" fill="white" fill-opacity="0.25"/>
<path d="M159.553 634C159.553 633.367 159.302 632.761 158.854 632.314C158.405 631.867 157.798 631.616 157.164 631.616C156.53 631.616 155.923 631.867 155.475 632.314C155.027 632.761 154.775 633.367 154.775 634C154.775 634.632 155.027 635.238 155.475 635.685C155.923 636.132 156.53 636.383 157.164 636.383C157.798 636.383 158.405 636.132 158.854 635.685C159.302 635.238 159.553 634.632 159.553 634Z" fill="white" fill-opacity="0.25"/>
<path d="M824.505 115.902C824.505 115.27 824.254 114.664 823.805 114.217C823.357 113.769 822.75 113.518 822.116 113.518C821.482 113.518 820.874 113.769 820.426 114.217C819.978 114.664 819.727 115.27 819.727 115.902C819.727 116.534 819.978 117.141 820.426 117.588C820.874 118.035 821.482 118.286 822.116 118.286C822.75 118.286 823.357 118.035 823.805 117.588C824.254 117.141 824.505 116.534 824.505 115.902Z" fill="white" fill-opacity="0.25"/>
<path d="M862.393 280.466C863.713 280.466 864.783 279.399 864.783 278.082C864.783 276.766 863.713 275.698 862.393 275.698C861.074 275.698 860.004 276.766 860.004 278.082C860.004 279.399 861.074 280.466 862.393 280.466Z" fill="white" fill-opacity="0.25"/>
<path d="M1171.37 233.318C1171.37 232.686 1171.12 232.079 1170.67 231.632C1170.23 231.185 1169.62 230.934 1168.98 230.934C1168.35 230.934 1167.74 231.185 1167.29 231.632C1166.85 232.079 1166.6 232.686 1166.6 233.318C1166.6 233.95 1166.85 234.557 1167.29 235.004C1167.74 235.451 1168.35 235.702 1168.98 235.702C1169.62 235.702 1170.23 235.451 1170.67 235.004C1171.12 234.557 1171.37 233.95 1171.37 233.318Z" fill="white" fill-opacity="0.25"/>
<path d="M732.953 84.6468C732.953 84.0146 732.701 83.4082 732.253 82.9612C731.805 82.5141 731.197 82.2629 730.563 82.2629C729.929 82.2629 729.322 82.5141 728.874 82.9612C728.426 83.4082 728.174 84.0146 728.174 84.6468C728.174 85.2791 728.426 85.8854 728.874 86.3325C729.322 86.7795 729.929 87.0307 730.563 87.0307C731.197 87.0307 731.805 86.7795 732.253 86.3325C732.701 85.8854 732.953 85.2791 732.953 84.6468Z" fill="white" fill-opacity="0.25"/>
<path d="M952.239 315.467C952.239 314.835 951.987 314.229 951.539 313.782C951.091 313.335 950.483 313.083 949.85 313.083C949.216 313.083 948.609 313.335 948.16 313.782C947.712 314.229 947.46 314.835 947.46 315.467C947.46 316.1 947.712 316.706 948.16 317.153C948.609 317.6 949.216 317.851 949.85 317.851C950.483 317.851 951.091 317.6 951.539 317.153C951.987 316.706 952.239 316.1 952.239 315.467Z" fill="white" fill-opacity="0.25"/>
<path d="M993.464 261.054C994.784 261.054 995.853 259.987 995.853 258.67C995.853 257.354 994.784 256.287 993.464 256.287C992.144 256.287 991.075 257.354 991.075 258.67C991.075 259.987 992.144 261.054 993.464 261.054Z" fill="white" fill-opacity="0.25"/>
<path d="M1166.94 316.338C1166.94 315.706 1166.68 315.099 1166.24 314.652C1165.79 314.205 1165.18 313.954 1164.55 313.954C1163.91 313.954 1163.31 314.205 1162.86 314.652C1162.41 315.099 1162.16 315.706 1162.16 316.338C1162.16 316.97 1162.41 317.576 1162.86 318.023C1163.31 318.47 1163.91 318.722 1164.55 318.722C1165.18 318.722 1165.79 318.47 1166.24 318.023C1166.68 317.576 1166.94 316.97 1166.94 316.338Z" fill="white" fill-opacity="0.25"/>
<path d="M928.384 179.283C929.703 179.283 930.773 178.216 930.773 176.899C930.773 175.583 929.703 174.515 928.384 174.515C927.064 174.515 925.995 175.583 925.995 176.899C925.995 178.216 927.064 179.283 928.384 179.283Z" fill="white" fill-opacity="0.25"/>
<path d="M1203.61 228.55C1204.93 228.55 1206 227.483 1206 226.166C1206 224.85 1204.93 223.782 1203.61 223.782C1202.29 223.782 1201.22 224.85 1201.22 226.166C1201.22 227.483 1202.29 228.55 1203.61 228.55Z" fill="white" fill-opacity="0.25"/>
<path d="M777.06 16.7251C777.055 17.1986 777.145 17.6683 777.324 18.1067C777.503 18.5451 777.769 18.9435 778.104 19.2783C778.44 19.6131 778.839 19.8777 779.279 20.0565C779.718 20.2354 780.189 20.3249 780.663 20.3199C781.135 20.3199 781.601 20.2266 782.036 20.0455C782.471 19.8644 782.866 19.599 783.198 19.2647C783.529 18.9304 783.791 18.5338 783.968 18.0979C784.145 17.662 784.233 17.1954 784.228 16.7251C784.228 15.7817 783.853 14.8771 783.184 14.21C782.515 13.543 781.609 13.1682 780.663 13.1682C780.192 13.1632 779.724 13.2515 779.287 13.428C778.85 13.6045 778.453 13.8657 778.118 14.1965C777.783 14.5273 777.517 14.9211 777.335 15.3551C777.154 15.7892 777.06 16.2548 777.06 16.7251Z" fill="white" fill-opacity="0.25"/>
</g>
<defs>
<clipPath id="clip0_226_5869">
<rect width="1206" height="641" fill="white"/>
</clipPath>
</defs>
</svg>
