<svg width="124" height="198" viewBox="0 0 124 198" fill="none" xmlns="http://www.w3.org/2000/svg">
<path d="M27.6739 183.933C27.6739 183.933 4.30406 117.99 27.6739 82.8737C27.6739 82.8737 -13.3162 58.1682 6.32967 20.4333C6.32967 20.4333 34.7856 40.9726 32.76 76.16C32.76 76.16 42.2424 63.2897 48.337 61.9275C48.337 61.9275 50.7075 69.0482 56.8109 67.686C56.8109 67.686 42.9235 77.8494 38.8546 82.9356C38.8546 82.9356 61.216 66.3326 92.0425 84.289C92.0425 84.289 71.0345 106.987 35.1306 90.3835C35.1306 90.3835 14.1226 123.926 40.5441 178.838C40.5441 178.847 38.8546 187.657 27.6739 183.933Z" fill="#036B5A" stroke="#1100A5" stroke-width="0.884549" stroke-miterlimit="10"/>
<path d="M43.1971 53.0292C9.58426 56.5674 2.62286 93.5239 2.62286 93.5239C36.7842 102.644 48.8582 67.987 49.9285 67.1643L50.3266 68.0489C33.5202 97.4867 62.0026 120.565 62.0026 120.565C89.291 97.9024 70.1847 72.1797 70.1316 70.8175H70.2643C91.8385 96.9471 123.514 78.5485 123.514 78.5485C112.015 44.9887 80.1713 54.073 78.8533 53.6395L78.6145 52.9761C105.602 32.6315 87.7784 1 87.7784 1C53.8471 10.9423 61.4719 43.0957 60.9854 44.3429L60.1893 43.7414C54.8201 10.3939 17.3594 9.09365 17.3594 9.09365C10.283 43.7503 42.2507 51.7732 43.1441 52.7993C43.1441 52.7727 43.6306 52.985 43.1971 53.0292Z" fill="#864AE5" stroke="#1100A5" stroke-width="0.884549" stroke-linecap="square" stroke-linejoin="round"/>
<path d="M61.1278 72.4815C71.3721 72.4815 79.6768 64.1769 79.6768 53.9325C79.6768 43.6882 71.3721 35.3835 61.1278 35.3835C50.8835 35.3835 42.5788 43.6882 42.5788 53.9325C42.5788 64.1769 50.8835 72.4815 61.1278 72.4815Z" fill="#FFC001" stroke="#1100A5" stroke-width="0.884549" stroke-miterlimit="10"/>
<path d="M6.32886 20.4346C6.32886 20.4346 10.3094 48.5279 21.5608 61.6988" stroke="#1100A5" stroke-width="0.884549" stroke-linejoin="round"/>
<path d="M1.00519 41.071L12.2478 44.1404" stroke="#1100A5" stroke-width="0.884549" stroke-linejoin="round"/>
<path d="M1.3855 35.3835L11.204 41.0712" stroke="#1100A5" stroke-width="0.884549" stroke-linejoin="round"/>
<path d="M17.192 55.2859L26.409 45.2551" stroke="#1100A5" stroke-width="0.884549" stroke-linejoin="round"/>
<path d="M19.1558 58.5053L28.8858 51.0486" stroke="#1100A5" stroke-width="0.884549" stroke-linejoin="round"/>
<path d="M36.5641 86.1119C36.5641 86.1119 45.0558 85.3954 45.0469 86.1119" stroke="#1100A5" stroke-width="0.884549" stroke-linejoin="round"/>
<path d="M75.9877 85.7945C75.9877 85.7945 89.3886 84.963 91.5027 84.0254" stroke="#1100A5" stroke-width="0.884549" stroke-linejoin="round"/>
<path d="M76.6781 77.8064L75.5989 84.0336" stroke="#1100A5" stroke-width="0.884549" stroke-linejoin="round"/>
<path d="M79.6783 79.239L78.723 85.6078" stroke="#1100A5" stroke-width="0.884549" stroke-linejoin="round"/>
<path d="M53.5649 50.0492C53.5442 49.7796 53.4453 49.522 53.2803 49.3078C53.1154 49.0936 52.8914 48.9323 52.636 48.8435C52.3807 48.7548 52.105 48.7425 51.8427 48.8082C51.5805 48.8739 51.3431 49.0147 51.1597 49.2134C50.9764 49.412 50.855 49.6599 50.8104 49.9266C50.7659 50.1932 50.8001 50.4671 50.909 50.7145C51.0179 50.962 51.1966 51.1723 51.4232 51.3196C51.6499 51.467 51.9146 51.545 52.185 51.5441C52.374 51.5372 52.5598 51.4931 52.7316 51.4141C52.9034 51.3351 53.058 51.2229 53.1862 51.084C53.3145 50.945 53.414 50.782 53.479 50.6044C53.544 50.4268 53.5732 50.2381 53.5649 50.0492Z" fill="#1100A5"/>
<path d="M74.1124 58.5057C74.0917 58.2361 73.9929 57.9785 73.8279 57.7643C73.6629 57.5502 73.439 57.3888 73.1836 57.3001C72.9282 57.2113 72.6525 57.1991 72.3903 57.2648C72.128 57.3305 71.8907 57.4713 71.7073 57.6699C71.524 57.8686 71.4025 58.1164 71.358 58.3831C71.3134 58.6498 71.3477 58.9236 71.4565 59.1711C71.5654 59.4185 71.7441 59.6288 71.9708 59.7762C72.1974 59.9235 72.4622 60.0015 72.7325 60.0006C73.1134 59.9845 73.4725 59.8182 73.7311 59.538C73.9897 59.2579 74.1268 58.8867 74.1124 58.5057Z" fill="#1100A5"/>
<path d="M32.7537 195.648C32.7537 195.648 26.2583 190.508 27.0702 181.851C27.339 176.442 28.716 176.173 29.1 172.525C32.0734 173.2 39.2434 175.499 39.9237 186.728" fill="#04D493"/>
<path d="M32.7537 195.648C32.7537 195.648 26.2583 190.508 27.0702 181.851C27.339 176.442 28.716 176.173 29.1 172.525C32.0734 173.2 39.2434 175.499 39.9237 186.728" stroke="#023AEC" stroke-miterlimit="10"/>
<path d="M38.8375 180.908C38.8375 180.908 39.3861 173.469 42.76 169.678C44.4232 167.894 45.9611 165.996 47.3626 164C47.3626 164 51.5539 168.328 51.5539 173.469C51.5539 178.609 49.7928 185.368 49.7928 185.368" fill="#04D493"/>
<path d="M38.8375 180.908C38.8375 180.908 39.3861 173.469 42.76 169.678C44.4232 167.894 45.9611 165.996 47.3626 164C47.3626 164 51.5539 168.328 51.5539 173.469C51.5539 178.609 49.7928 185.368 49.7928 185.368" stroke="#023AEC" stroke-miterlimit="10"/>
<path d="M45.0585 192.132C45.0585 192.132 47.39 184.72 53.4245 183.623C59.459 182.526 61.4065 180.644 61.4065 180.644C61.4065 180.644 65.0601 192.954 54.2364 197.42" fill="#04D493"/>
<path d="M45.0585 192.132C45.0585 192.132 47.39 184.72 53.4245 183.623C59.459 182.526 61.4065 180.644 61.4065 180.644C61.4065 180.644 65.0601 192.954 54.2364 197.42" stroke="#023AEC" stroke-miterlimit="10"/>
</svg>

