<svg width="1288" height="609" viewBox="0 0 1288 609" fill="none" xmlns="http://www.w3.org/2000/svg">
<path d="M640.754 32.6483C640.754 32.6483 634.258 27.508 635.07 18.8512C635.339 13.4421 636.716 13.1733 637.1 9.52515C640.073 10.1999 647.243 12.4985 647.924 23.7282" stroke="#023AEC" stroke-miterlimit="10"/>
<path d="M646.837 17.9076C646.837 17.9076 647.386 10.4687 650.76 6.67792C652.423 4.89363 653.961 2.99646 655.363 1C655.363 1 659.554 5.32839 659.554 10.4687C659.554 15.609 657.793 22.3676 657.793 22.3676" stroke="#023AEC" stroke-miterlimit="10"/>
<path d="M653.058 29.1315C653.058 29.1315 655.39 21.7201 661.424 20.6229C667.459 19.5257 669.407 17.644 669.407 17.644C669.407 17.644 673.06 29.9544 662.236 34.42" stroke="#023AEC" stroke-miterlimit="10"/>
<path d="M6.7537 66.6483C6.7537 66.6483 0.258319 61.508 1.07023 52.8512C1.33904 47.4421 2.71598 47.1733 3.1 43.5251C6.07336 44.1999 13.2434 46.4985 13.9237 57.7282" stroke="#023AEC" stroke-miterlimit="10"/>
<path d="M12.8374 51.9076C12.8374 51.9076 13.3861 44.4687 16.7599 40.6779C18.4232 38.8936 19.961 36.9965 21.3626 35C21.3626 35 25.5539 39.3284 25.5539 44.4687C25.5539 49.609 23.7928 56.3676 23.7928 56.3676" stroke="#023AEC" stroke-miterlimit="10"/>
<path d="M19.0585 63.1315C19.0585 63.1315 21.39 55.7201 27.4245 54.6229C33.459 53.5257 35.4066 51.644 35.4066 51.644C35.4066 51.644 39.0601 63.9544 28.2364 68.42" stroke="#023AEC" stroke-miterlimit="10"/>
<path d="M1218.75 101.148C1218.75 101.148 1212.26 96.008 1213.07 87.3512C1213.34 81.9421 1214.72 81.6733 1215.1 78.0251C1218.07 78.6999 1225.24 80.9985 1225.92 92.2282" stroke="#023AEC" stroke-miterlimit="10"/>
<path d="M1224.84 86.4076C1224.84 86.4076 1225.39 78.9687 1228.76 75.1779C1230.42 73.3936 1231.96 71.4965 1233.36 69.5C1233.36 69.5 1237.55 73.8284 1237.55 78.9687C1237.55 84.109 1235.79 90.8676 1235.79 90.8676" stroke="#023AEC" stroke-miterlimit="10"/>
<path d="M1231.06 97.6315C1231.06 97.6315 1233.39 90.2201 1239.42 89.1229C1245.46 88.0257 1247.41 86.144 1247.41 86.144C1247.41 86.144 1251.06 98.4544 1240.24 102.92" stroke="#023AEC" stroke-miterlimit="10"/>
<path d="M1282.03 606.38C1282.03 606.38 1287.86 601.77 1287.13 594.008C1286.89 589.157 1285.65 588.916 1285.31 585.645C1282.64 586.25 1276.21 588.311 1275.6 598.381" stroke="#023AEC" stroke-miterlimit="10"/>
<path d="M1276.58 593.161C1276.58 593.161 1276.09 586.491 1273.06 583.092C1271.57 581.492 1270.19 579.79 1268.93 578C1268.93 578 1265.17 581.881 1265.17 586.491C1265.17 591.1 1266.75 597.161 1266.75 597.161" stroke="#023AEC" stroke-miterlimit="10"/>
<path d="M1271 603.226C1271 603.226 1268.91 596.58 1263.5 595.597C1258.09 594.613 1256.34 592.925 1256.34 592.925C1256.34 592.925 1253.06 603.964 1262.77 607.969" stroke="#023AEC" stroke-miterlimit="10"/>
<path d="M600.754 408.648C600.754 408.648 594.258 403.508 595.07 394.851C595.339 389.442 596.716 389.173 597.1 385.525C600.073 386.2 607.243 388.499 607.924 399.728" stroke="#023AEC" stroke-miterlimit="10"/>
<path d="M606.837 393.908C606.837 393.908 607.386 386.469 610.76 382.678C612.423 380.894 613.961 378.996 615.363 377C615.363 377 619.554 381.328 619.554 386.469C619.554 391.609 617.793 398.368 617.793 398.368" stroke="#023AEC" stroke-miterlimit="10"/>
<path d="M613.059 405.132C613.059 405.132 615.39 397.72 621.425 396.623C627.459 395.526 629.407 393.644 629.407 393.644C629.407 393.644 633.06 405.954 622.236 410.42" stroke="#023AEC" stroke-miterlimit="10"/>
</svg>
