<svg width="1042" height="282" viewBox="0 0 1042 282" fill="none" xmlns="http://www.w3.org/2000/svg">
<path d="M389.754 279.648C389.754 279.648 383.258 274.508 384.07 265.851C384.339 260.442 385.716 260.173 386.1 256.525C389.073 257.2 396.243 259.498 396.924 270.728" stroke="#023AEC" stroke-miterlimit="10"/>
<path d="M395.837 264.908C395.837 264.908 396.386 257.469 399.76 253.678C401.423 251.894 402.961 249.996 404.363 248C404.363 248 408.554 252.328 408.554 257.469C408.554 262.609 406.793 269.368 406.793 269.368" stroke="#023AEC" stroke-miterlimit="10"/>
<path d="M402.059 276.132C402.059 276.132 404.39 268.72 410.425 267.623C416.459 266.526 418.407 264.644 418.407 264.644C418.407 264.644 422.06 276.954 411.236 281.42" stroke="#023AEC" stroke-miterlimit="10"/>
<path d="M6.7537 32.648C6.7537 32.648 0.258319 27.5077 1.07023 18.8509C1.33904 13.4418 2.71598 13.173 3.1 9.5249C6.07336 10.1997 13.2434 12.4983 13.9237 23.7279" stroke="#023AEC" stroke-miterlimit="10"/>
<path d="M12.8374 17.9076C12.8374 17.9076 13.3861 10.4687 16.7599 6.67792C18.4232 4.89363 19.961 2.99646 21.3626 1C21.3626 1 25.5539 5.32839 25.5539 10.4687C25.5539 15.609 23.7928 22.3676 23.7928 22.3676" stroke="#023AEC" stroke-miterlimit="10"/>
<path d="M19.0585 29.1315C19.0585 29.1315 21.39 21.7201 27.4245 20.6229C33.459 19.5257 35.4066 17.644 35.4066 17.644C35.4066 17.644 39.0601 29.9544 28.2364 34.42" stroke="#023AEC" stroke-miterlimit="10"/>
<path d="M1011.75 123.648C1011.75 123.648 1005.26 118.508 1006.07 109.851C1006.34 104.442 1007.72 104.173 1008.1 100.525C1011.07 101.2 1018.24 103.498 1018.92 114.728" stroke="#023AEC" stroke-miterlimit="10"/>
<path d="M1017.84 108.908C1017.84 108.908 1018.39 101.469 1021.76 97.6779C1023.42 95.8936 1024.96 93.9965 1026.36 92C1026.36 92 1030.55 96.3284 1030.55 101.469C1030.55 106.609 1028.79 113.368 1028.79 113.368" stroke="#023AEC" stroke-miterlimit="10"/>
<path d="M1024.06 120.132C1024.06 120.132 1026.39 112.72 1032.42 111.623C1038.46 110.526 1040.41 108.644 1040.41 108.644C1040.41 108.644 1044.06 120.954 1033.24 125.42" stroke="#023AEC" stroke-miterlimit="10"/>
</svg>


