<svg width="195" height="71" viewBox="0 0 195 71" fill="none" xmlns="http://www.w3.org/2000/svg">
<g filter="url(#filter0_d_440_16854)">
<path d="M9.15266 68.8779C7.75818 68.8875 6.36817 68.7185 5.0166 68.3751V57.0608C5.85353 57.3852 6.74678 57.539 7.64399 57.5134C8.74873 57.5754 9.84923 57.3318 10.8246 56.8094C11.1904 56.5767 11.4864 56.2493 11.6812 55.862C11.876 55.4747 11.9623 55.0418 11.9309 54.6094V25.9967H25.483V55.3134C25.5928 58.0029 24.9437 60.6691 23.6098 63.0071C22.3207 65.0547 20.3951 66.6225 18.1287 67.47C15.2517 68.4988 12.2065 68.9765 9.15266 68.8779ZM18.6818 24.8779C17.756 24.9051 16.8341 24.7467 15.9704 24.412C15.1068 24.0774 14.3189 23.5732 13.6532 22.9293C12.9978 22.3283 12.4773 21.5951 12.1263 20.7781C11.7752 19.9611 11.6015 19.0789 11.6166 18.1898C11.6104 16.9939 11.9286 15.8186 12.5374 14.7892C13.1462 13.7598 14.0227 12.9148 15.0738 12.3441C16.1845 11.7421 17.431 11.4348 18.6943 11.4515C19.6203 11.4229 20.5426 11.5806 21.4065 11.9154C22.2703 12.2501 23.058 12.755 23.7229 13.4001C24.7918 14.4446 25.4792 15.8175 25.6753 17.2991C25.8713 18.7806 25.5645 20.2851 24.8041 21.5716C24.1943 22.5877 23.327 23.4247 22.2898 23.9978C21.185 24.6037 19.9415 24.9113 18.6818 24.8904V24.8779Z" fill="black"/>
<path d="M40.0278 56.6221C37.8777 56.6684 35.7532 56.1481 33.8678 55.1135C32.1576 54.1624 30.7569 52.7399 29.8324 51.0153C28.8858 49.223 28.406 47.2213 28.437 45.1947V25.998H42.0392V42.8312C42.0154 43.7733 42.2136 44.7078 42.6176 45.5592C42.9695 46.3017 43.5338 46.923 44.2392 47.3444C44.9385 47.7595 45.7393 47.9727 46.5525 47.9603C47.3733 47.9787 48.1803 47.7463 48.8656 47.2941C49.5501 46.802 50.0818 46.1266 50.3993 45.3455C50.7915 44.3892 50.98 43.3616 50.9525 42.3284V25.998H64.5044V55.8175H50.9525V49.1296H50.4496C49.9769 51.2986 48.7412 53.2257 46.9673 54.5604C44.9534 56.0118 42.5074 56.7385 40.0278 56.6221Z" fill="black"/>
<path d="M74.3741 24.8921C73.4487 24.9165 72.5276 24.7568 71.6643 24.4223C70.8011 24.0878 70.0129 23.5852 69.3456 22.9435C68.6925 22.3414 68.1743 21.6077 67.8254 20.7908C67.4765 19.9739 67.3047 19.0922 67.3214 18.2041C67.3152 17.0081 67.6334 15.8329 68.2422 14.8035C68.851 13.7741 69.7276 12.9291 70.7786 12.3584C71.8887 11.7548 73.1357 11.4473 74.3992 11.4658C75.3243 11.4442 76.2446 11.6051 77.1074 11.9394C77.9703 12.2738 78.7587 12.775 79.4277 13.4144C80.5046 14.453 81.2006 15.8239 81.4035 17.3062C81.6065 18.7885 81.3046 20.2959 80.5466 21.5858C79.9364 22.6016 79.0692 23.4385 78.0323 24.0121C76.9088 24.615 75.6489 24.9181 74.3741 24.8921ZM67.51 55.7802V25.9984H81.1124V55.8178L67.51 55.7802Z" fill="black"/>
<path d="M102.521 56.6226C99.1787 56.6711 95.8679 55.9755 92.8281 54.586C90.0841 53.3614 87.7307 51.404 86.0269 48.9288C84.3693 46.5374 83.4912 43.6922 83.5126 40.7826C83.4988 37.984 84.3076 35.243 85.8384 32.9002C87.4363 30.4419 89.6807 28.4715 92.3252 27.2054C95.3173 25.775 98.6013 25.0605 101.917 25.1185C103.939 25.1346 105.951 25.3878 107.914 25.8728C109.715 26.2514 111.424 26.9819 112.942 28.0225L110.428 38.0797C109.469 37.3641 108.41 36.7924 107.285 36.3826C106.065 36.0018 104.791 35.8235 103.514 35.8546C102.426 35.834 101.346 36.0439 100.346 36.4706C99.4737 36.8294 98.7201 37.4262 98.1709 38.1929C97.658 38.9068 97.385 39.7652 97.3915 40.6443C97.3713 41.6226 97.6618 42.5821 98.2213 43.3849C98.825 44.1961 99.65 44.816 100.597 45.17C101.709 45.5894 102.891 45.7942 104.08 45.7734C105.781 45.7494 107.472 45.5 109.108 45.0317C110.593 44.6621 112.013 44.0686 113.32 43.2717V54.4729C111.724 55.1489 110.059 55.6464 108.354 55.9563C106.437 56.3729 104.482 56.5961 102.521 56.6226Z" fill="black"/>
<path d="M131.398 68.8793C128.684 68.849 125.978 68.5713 123.314 68.0496C120.798 67.6185 118.334 66.9276 115.96 65.9878L118.638 54.4975C120.269 55.5146 122.045 56.2776 123.905 56.7604C125.795 57.2069 127.733 57.4222 129.675 57.4015C131.499 57.4491 133.303 57.0155 134.905 56.1444C136.36 55.344 137.582 54.1785 138.45 52.7626C139.271 51.4604 139.707 49.9524 139.707 48.413H139.205C138.729 50.5741 137.494 52.4926 135.722 53.8187C133.702 55.2568 131.261 55.9821 128.783 55.8804C126.64 55.9363 124.515 55.4795 122.585 54.5478C120.903 53.717 119.507 52.404 118.575 50.7764C117.622 49.0547 117.141 47.1118 117.179 45.1443V25.998H130.782V42.3409C130.762 43.288 130.965 44.2266 131.373 45.0815C131.727 45.8182 132.286 46.4377 132.982 46.8666C133.688 47.2742 134.492 47.4828 135.307 47.4701C136.129 47.4926 136.937 47.2598 137.621 46.8038C138.304 46.3135 138.832 45.6371 139.142 44.8552C139.537 43.904 139.73 42.8806 139.707 41.8506V25.998H153.247V52.0838C153.223 54.9593 152.348 57.7633 150.733 60.1421C148.828 62.8766 146.223 65.0479 143.19 66.4278C139.5 68.1426 135.465 68.9816 131.398 68.8793Z" fill="black"/>
<path d="M5.38084 68.2494C3.93615 68.2541 2.49632 68.0811 1.09393 67.734C0.95768 67.6981 0.836992 67.6183 0.750642 67.5069C0.664292 67.3956 0.617083 67.2589 0.616211 67.118V55.8037C0.617338 55.7004 0.644411 55.5991 0.694936 55.509C0.745461 55.419 0.817793 55.343 0.90533 55.2882C1.00367 55.2155 1.12252 55.176 1.24478 55.1751C1.32753 55.1562 1.4134 55.1562 1.49615 55.1751C2.25394 55.4643 3.06141 55.601 3.87217 55.5774C4.85644 55.6379 5.83863 55.4293 6.71334 54.9739C6.99114 54.7984 7.21464 54.5491 7.35894 54.2538C7.50324 53.9585 7.56269 53.6289 7.53051 53.3019V24.7396C7.53051 24.5729 7.59678 24.413 7.71466 24.2951C7.83254 24.1772 7.99237 24.111 8.15908 24.111H13.0242C11.6682 23.8148 10.4225 23.1441 9.42881 22.175C8.71271 21.5155 8.1442 20.7119 7.7607 19.817C7.3772 18.9222 7.18737 17.9564 7.20364 16.983C7.1969 15.6786 7.54457 14.3967 8.20942 13.2744C8.86727 12.1367 9.82937 11.205 10.9877 10.5841C12.1907 9.931 13.5412 9.59767 14.9099 9.61608C15.9151 9.58868 16.9156 9.76255 17.8525 10.1274C18.7895 10.4923 19.644 11.0407 20.3659 11.7407C21.0757 12.4144 21.6378 13.2284 22.0165 14.1308C22.3952 15.0332 22.5823 16.0045 22.5659 16.983C22.5796 18.2861 22.2268 19.5668 21.5477 20.679C20.8886 21.793 19.942 22.7092 18.8071 23.3316C18.1695 23.6887 17.4835 23.9512 16.7705 24.111H21.7111C21.8779 24.111 22.0377 24.1772 22.1556 24.2951C22.2734 24.413 22.3397 24.5729 22.3397 24.7396V54.0562C22.447 56.8643 21.7677 59.6466 20.3785 62.0894C19.008 64.2439 16.9739 65.8942 14.5831 66.7911C11.6343 67.8503 8.51261 68.345 5.38084 68.2494Z" fill="white"/>
<path d="M14.9103 10.2082C15.8362 10.1795 16.7585 10.3373 17.6224 10.672C18.4862 11.0068 19.2739 11.5116 19.9388 12.1567C21.0077 13.2012 21.6953 14.5742 21.8913 16.0557C22.0873 17.5373 21.7805 19.0417 21.02 20.3282C20.4103 21.3443 19.5429 22.1813 18.5057 22.7545C17.4035 23.3538 16.1647 23.657 14.9103 23.6345C13.9845 23.6617 13.0626 23.5033 12.1989 23.1687C11.3353 22.834 10.5474 22.3299 9.88168 21.6859C9.22629 21.0849 8.70582 20.3517 8.35475 19.5347C8.00368 18.7177 7.83002 17.8356 7.84511 16.9465C7.83886 15.7505 8.15708 14.5753 8.76587 13.5459C9.37466 12.5165 10.2512 11.6715 11.3023 11.1008C12.413 10.4987 13.6595 10.1914 14.9228 10.2082H14.9103ZM21.724 24.703V54.0197C21.8339 56.7092 21.1848 59.3754 19.8509 61.7134C18.5617 63.761 16.636 65.3289 14.3696 66.1763C11.4951 67.218 8.45001 67.7085 5.39374 67.622C3.99926 67.6315 2.60925 67.4626 1.25768 67.1192V55.8049C2.09461 56.1292 2.98786 56.2831 3.88507 56.2574C4.98981 56.3194 6.09031 56.0758 7.06568 55.5534C7.43153 55.3208 7.72752 54.9934 7.9223 54.606C8.11708 54.2187 8.20338 53.7858 8.17198 53.3534V24.7408H21.724V24.703ZM14.9228 8.98871C13.4454 8.97536 11.9885 9.33422 10.6863 10.0322C9.44187 10.7162 8.40465 11.7227 7.68351 12.946C6.96238 14.1693 6.58392 15.5642 6.58796 16.9842C6.575 18.0431 6.78298 19.0931 7.19858 20.0672C7.61418 21.0412 8.22831 21.918 9.00174 22.6414C9.32767 22.9431 9.67188 23.2244 10.0325 23.4836H8.17198C7.83856 23.4836 7.51874 23.6161 7.28298 23.8519C7.04722 24.0876 6.91483 24.4074 6.91483 24.7408V53.3911C6.94557 53.6092 6.9133 53.8316 6.82199 54.032C6.73068 54.2325 6.58409 54.4026 6.39936 54.5226C5.6223 54.9157 4.75415 55.0937 3.88507 55.038C3.15673 55.0584 2.43129 54.939 1.74798 54.686C1.55693 54.6061 1.34905 54.5746 1.14289 54.5943C0.936732 54.614 0.738601 54.6844 0.566188 54.7991C0.393254 54.913 0.251151 55.0679 0.152459 55.2499C0.0537678 55.4319 0.00160508 55.6355 0.000533843 55.8425V67.1569C-0.00783293 67.444 0.0823596 67.7254 0.256198 67.9542C0.430037 68.1829 0.677046 68.3452 0.955976 68.414C2.40623 68.7821 3.89753 68.9637 5.39374 68.9546C8.60898 69.0378 11.8112 68.5176 14.8348 67.4209C17.3471 66.4681 19.4824 64.7255 20.9194 62.4551C22.3754 59.9163 23.0897 57.0198 22.9812 54.0951V24.7408C22.9812 24.4074 22.8486 24.0876 22.6129 23.8519C22.3771 23.6161 22.0575 23.4836 21.724 23.4836H19.7754C20.7269 22.8277 21.5212 21.969 22.1011 20.9693C23.0101 19.4428 23.3804 17.6552 23.1524 15.8932C22.9245 14.1312 22.1115 12.4966 20.8439 11.2516C20.0623 10.4971 19.1387 9.90516 18.1266 9.51025C17.1145 9.11533 16.0341 8.92529 14.948 8.95104L14.9228 8.98871Z" fill="black"/>
<path d="M36.2563 55.9925C33.9958 56.0353 31.7635 55.4848 29.782 54.396C27.9715 53.3891 26.4882 51.8838 25.5078 50.0588C24.5128 48.1733 24.007 46.0682 24.0369 43.9365V24.7399C24.0369 24.5732 24.1032 24.4133 24.221 24.2954C24.3389 24.1775 24.4988 24.1113 24.6655 24.1113H38.2677C38.4344 24.1113 38.5944 24.1775 38.7123 24.2954C38.8302 24.4133 38.8963 24.5732 38.8963 24.7399V41.5731C38.8775 42.419 39.0539 43.2579 39.4118 44.0245C39.7077 44.6562 40.1846 45.1856 40.782 45.5456C41.3879 45.9001 42.0791 46.0827 42.781 46.0736C43.4775 46.0924 44.1626 45.8948 44.742 45.508C45.3104 45.0803 45.7462 44.5007 45.9992 43.8359C46.3544 42.9582 46.5256 42.0168 46.5021 41.0702V24.7399C46.5021 24.5732 46.5684 24.4133 46.6862 24.2954C46.8041 24.1775 46.9639 24.1113 47.1307 24.1113H60.6827C60.8494 24.1113 61.0093 24.1775 61.1271 24.2954C61.245 24.4133 61.3113 24.5732 61.3113 24.7399V54.5594C61.3113 54.7261 61.245 54.886 61.1271 55.0038C61.0093 55.1217 60.8494 55.1879 60.6827 55.1879H47.1307C46.9639 55.1879 46.8041 55.1217 46.6862 55.0038C46.5684 54.886 46.5021 54.7261 46.5021 54.5594V50.1468C45.8216 51.5871 44.8039 52.8419 43.5352 53.8051C41.4194 55.3228 38.8583 56.0924 36.2563 55.9925Z" fill="white"/>
<path d="M60.7326 24.7405V54.56H47.1807V47.8721H46.6778C46.2052 50.0411 44.9694 51.9682 43.1955 53.3029C41.1865 54.7677 38.7401 55.5078 36.2561 55.4023C34.1059 55.4486 31.9814 54.9283 30.096 53.8938C28.3859 52.9427 26.9852 51.5201 26.0606 49.7954C25.1141 48.0032 24.6342 46.0014 24.6652 43.9749V24.7405H38.2675V41.5737C38.2436 42.5158 38.4418 43.4503 38.8458 44.3017C39.1977 45.0442 39.762 45.6655 40.4675 46.0869C41.1668 46.502 41.9676 46.7152 42.7807 46.7028C43.6016 46.7212 44.4085 46.4888 45.0938 46.0366C45.7784 45.5445 46.31 44.8691 46.6275 44.088C47.0197 43.1317 47.2082 42.1041 47.1807 41.0709V24.7405H60.7326ZM60.7326 23.4834H47.1807C46.8473 23.4834 46.5275 23.6159 46.2917 23.8516C46.056 24.0874 45.9236 24.4071 45.9236 24.7405V41.0834C45.9464 41.9437 45.7924 42.7994 45.471 43.5977C45.2528 44.1609 44.8774 44.6495 44.3897 45.0057C43.9132 45.3197 43.351 45.4778 42.7807 45.4583C42.193 45.4729 41.6131 45.3203 41.1086 45.0183C40.6126 44.7238 40.2179 44.2854 39.9772 43.7612C39.6593 43.0812 39.5043 42.3366 39.5246 41.5863V24.7405C39.5246 24.4071 39.3922 24.0874 39.1565 23.8516C38.9207 23.6159 38.6009 23.4834 38.2675 23.4834H24.6652C24.3318 23.4834 24.012 23.6159 23.7762 23.8516C23.5405 24.0874 23.4081 24.4071 23.4081 24.7405V43.9749C23.3765 46.208 23.9083 48.4131 24.9543 50.3863C25.9871 52.3248 27.5589 53.9228 29.48 54.9875C31.5538 56.1274 33.8901 56.7039 36.2561 56.6595C39.0161 56.7646 41.731 55.9365 43.9624 54.3086C44.6949 53.7436 45.3538 53.0889 45.9236 52.36V54.56C45.9236 54.8934 46.056 55.2132 46.2917 55.449C46.5275 55.6848 46.8473 55.8171 47.1807 55.8171H60.7326C61.0661 55.8171 61.3859 55.6848 61.6216 55.449C61.8574 55.2132 61.9898 54.8934 61.9898 54.56V24.7405C61.9898 24.4071 61.8574 24.0874 61.6216 23.8516C61.3859 23.6159 61.0661 23.4834 60.7326 23.4834Z" fill="black"/>
<path d="M63.7378 55.1513C63.5711 55.1513 63.4113 55.0851 63.2934 54.9673C63.1755 54.8494 63.1092 54.6895 63.1092 54.5228V24.741C63.1092 24.5743 63.1755 24.4144 63.2934 24.2965C63.4113 24.1786 63.5711 24.1124 63.7378 24.1124H68.7664C67.4104 23.8162 66.1647 23.1455 65.171 22.1764C64.4549 21.5169 63.8863 20.7133 63.5028 19.8184C63.1194 18.9236 62.9295 17.9578 62.9458 16.9844C62.9391 15.68 63.2867 14.3981 63.9516 13.2758C64.6081 12.1414 65.5651 11.2104 66.7172 10.5855C67.9252 9.93347 69.2795 9.60028 70.6521 9.61748C71.6606 9.59302 72.6642 9.7682 73.6048 10.1328C74.5455 10.4974 75.4046 11.0443 76.1332 11.7421C77.3159 12.8744 78.0832 14.3719 78.3113 15.9934C78.5393 17.6148 78.2149 19.2658 77.3904 20.6804C76.7205 21.799 75.7605 22.7155 74.6121 23.333C73.9675 23.6939 73.2726 23.9565 72.5504 24.1124H77.4281C77.5948 24.1124 77.7547 24.1786 77.8725 24.2965C77.9904 24.4144 78.0567 24.5743 78.0567 24.741V54.5604C78.0567 54.7271 77.9904 54.8871 77.8725 55.0049C77.7547 55.1228 77.5948 55.189 77.4281 55.189L63.7378 55.1513Z" fill="white"/>
<path d="M70.602 10.2085C71.5272 10.1869 72.4475 10.3478 73.3103 10.6821C74.1732 11.0165 74.9616 11.5177 75.6306 12.157C76.7075 13.1957 77.4033 14.5666 77.6063 16.0489C77.8092 17.5312 77.5074 19.0386 76.7493 20.3285C76.1392 21.3443 75.2719 22.1811 74.2351 22.7548C73.1227 23.3514 71.8767 23.6543 70.6146 23.6348C69.6892 23.6592 68.7681 23.4995 67.9048 23.165C67.0416 22.8305 66.2534 22.3279 65.586 21.6862C64.9329 21.0841 64.4147 20.3504 64.0659 19.5335C63.717 18.7166 63.5452 17.8349 63.5619 16.9468C63.5557 15.7508 63.8739 14.5756 64.4827 13.5462C65.0915 12.5168 65.968 11.6718 67.0191 11.1011C68.1292 10.4975 69.3761 10.19 70.6396 10.2085H70.602ZM77.3779 24.7033V54.5229H63.7757V24.7411H77.3779V24.7033ZM70.6396 8.98901C69.1622 8.97566 67.7053 9.33452 66.4031 10.0325C65.1587 10.7165 64.1214 11.723 63.4003 12.9463C62.6792 14.1696 62.3007 15.5645 62.3048 16.9845C62.2871 18.0441 62.493 19.0956 62.9089 20.0703C63.3248 21.045 63.9414 21.9212 64.7185 22.6417C65.0445 22.9434 65.3887 23.2247 65.7493 23.4839H63.7757C63.4423 23.4839 63.1224 23.6164 62.8867 23.8522C62.6509 24.0879 62.5185 24.4077 62.5185 24.7411V54.5605C62.5185 54.8939 62.6509 55.2138 62.8867 55.4495C63.1224 55.6853 63.4423 55.8177 63.7757 55.8177H77.3779C77.7113 55.8177 78.0312 55.6853 78.2669 55.4495C78.5027 55.2138 78.6351 54.8939 78.6351 54.5605V24.7411C78.6351 24.4077 78.5027 24.0879 78.2669 23.8522C78.0312 23.6164 77.7113 23.4839 77.3779 23.4839H75.53C76.489 22.8289 77.2917 21.9704 77.8808 20.9696C78.6081 19.7546 78.9865 18.3627 78.9745 16.9468C78.9912 15.8806 78.7838 14.8228 78.3659 13.8418C77.9479 12.8608 77.3288 11.9785 76.5483 11.2519C75.7652 10.4959 74.8394 9.90312 73.825 9.50817C72.8106 9.11321 71.7278 8.92391 70.6396 8.95134V8.98901Z" fill="black"/>
<path d="M98.749 55.9925C95.3117 56.0372 91.9072 55.3203 88.7799 53.8931C85.9359 52.6187 83.4964 50.5879 81.7273 48.0223C80.0886 45.5481 79.2022 42.652 79.1754 39.6845C79.1487 36.7171 79.9827 33.8054 81.5765 31.3022C83.2445 28.7527 85.5794 26.7093 88.3273 25.3936C91.4031 23.9127 94.7827 23.1722 98.1959 23.2313C100.264 23.249 102.324 23.5106 104.331 24.0107C106.22 24.4001 108.011 25.1654 109.598 26.2611C109.701 26.332 109.779 26.4329 109.821 26.55C109.864 26.667 109.87 26.7944 109.837 26.9147L107.323 36.9719C107.299 37.0701 107.251 37.1607 107.183 37.2354C107.114 37.3101 107.029 37.3665 106.933 37.3994H106.707C106.577 37.3988 106.45 37.3593 106.342 37.2862C105.429 36.6032 104.421 36.0569 103.35 35.6645C102.199 35.3088 100.997 35.1432 99.7925 35.1742C98.7913 35.1551 97.7973 35.3479 96.8758 35.7399C96.1107 36.0548 95.449 36.5774 94.9651 37.2485C94.5267 37.8556 94.2932 38.5866 94.2988 39.3353C94.2733 40.1841 94.5247 41.0182 95.0153 41.7114C95.5436 42.4237 96.2692 42.9657 97.1022 43.2702C98.1421 43.6627 99.2468 43.8547 100.358 43.8359C102.01 43.8159 103.651 43.5706 105.236 43.1068C106.655 42.7602 108.012 42.1962 109.259 41.4348C109.365 41.3714 109.487 41.3367 109.611 41.3342C109.716 41.3352 109.819 41.3611 109.912 41.4097C110.013 41.4629 110.096 41.5426 110.154 41.6402C110.211 41.7378 110.241 41.8495 110.239 41.9628V53.1639C110.239 53.2849 110.205 53.4034 110.141 53.5058C110.076 53.6081 109.984 53.6901 109.875 53.7423C108.231 54.4248 106.52 54.9346 104.771 55.2634C102.792 55.7047 100.775 55.9488 98.749 55.9925Z" fill="white"/>
<path d="M98.1966 23.8604C100.218 23.8765 102.231 24.1297 104.193 24.6147C105.995 24.9932 107.703 25.7238 109.222 26.7644L106.707 36.8216C105.748 36.106 104.689 35.5343 103.565 35.1244C102.345 34.7437 101.071 34.5654 99.7932 34.5965C98.7055 34.5759 97.6258 34.7858 96.6251 35.2125C95.753 35.5713 94.9994 36.1681 94.4503 36.9347C93.9373 37.6487 93.6644 38.5071 93.6709 39.3862C93.6507 40.3645 93.9412 41.324 94.5006 42.1268C95.1044 42.938 95.9292 43.5579 96.8765 43.9119C97.9887 44.3313 99.1703 44.536 100.359 44.5153C102.06 44.4913 103.751 44.2419 105.387 43.7736C106.872 43.4039 108.292 42.8105 109.599 42.0136V53.2148C108.003 53.8908 106.338 54.3883 104.633 54.6982C102.69 55.1114 100.711 55.3262 98.7246 55.3394C95.3827 55.3879 92.0717 54.6922 89.0319 53.3027C86.2879 52.0781 83.9347 50.1207 82.2309 47.6456C80.5733 45.2541 79.6952 42.4089 79.7166 39.4993C79.7028 36.7007 80.5115 33.9598 82.0423 31.617C83.6402 29.1586 85.8847 27.1883 88.5292 25.9221C91.5213 24.4917 94.8051 23.7773 98.1211 23.8353L98.1966 23.8604ZM98.1211 22.5782C94.6083 22.5213 91.1306 23.2831 87.9634 24.8033C85.121 26.1777 82.7053 28.2981 80.9737 30.9381C79.305 33.5419 78.4316 36.5758 78.4607 39.6682C78.4897 42.7607 79.4199 45.7776 81.1372 48.3496C82.9676 51.0094 85.4944 53.1144 88.4411 54.4342C91.6505 55.9021 95.1454 56.6406 98.6743 56.5965C100.745 56.5799 102.808 56.3567 104.834 55.9302C106.629 55.597 108.383 55.0701 110.064 54.3588C110.285 54.2596 110.472 54.099 110.603 53.8961C110.735 53.6932 110.805 53.4566 110.806 53.2148V42.0136C110.805 41.7862 110.743 41.5632 110.625 41.3684C110.508 41.1735 110.34 41.0142 110.139 40.9073C109.958 40.8093 109.755 40.7575 109.549 40.7564C109.298 40.7559 109.053 40.8303 108.845 40.9701C107.651 41.6912 106.353 42.2254 104.998 42.5541C103.47 43.0035 101.888 43.2403 100.296 43.2581C99.267 43.2761 98.2436 43.1013 97.2789 42.7427C96.5566 42.4751 95.9246 42.0088 95.4559 41.3976C95.0501 40.807 94.8431 40.1024 94.8651 39.3862C94.8587 38.7674 95.0529 38.1632 95.4183 37.6639C95.842 37.1021 96.4115 36.6673 97.0651 36.4068C97.9104 36.0609 98.817 35.8898 99.7302 35.9039C100.867 35.8704 102.002 36.0276 103.087 36.369C104.098 36.7376 105.051 37.2499 105.915 37.8902C106.128 38.0438 106.383 38.1274 106.645 38.129C106.794 38.1286 106.943 38.1031 107.085 38.0536C107.275 37.9827 107.445 37.8668 107.581 37.7157C107.717 37.5646 107.814 37.383 107.864 37.1862L110.378 27.129C110.439 26.8864 110.426 26.6312 110.341 26.3961C110.256 26.161 110.103 25.9565 109.901 25.809C108.24 24.6744 106.374 23.8758 104.407 23.4581C102.35 22.9473 100.24 22.6815 98.1211 22.6661V22.5782Z" fill="black"/>
<path d="M127.627 68.2507C124.874 68.2224 122.131 67.9405 119.43 67.4084C116.85 66.9722 114.322 66.2686 111.887 65.309C111.753 65.2467 111.644 65.1407 111.577 65.0082C111.511 64.8757 111.492 64.7247 111.523 64.5798L114.2 53.1021C114.221 53.0047 114.265 52.9139 114.328 52.8373C114.392 52.7607 114.473 52.7005 114.565 52.6621C114.648 52.6491 114.733 52.6491 114.816 52.6621C114.927 52.6644 115.035 52.6947 115.131 52.7501C116.711 53.7349 118.432 54.4726 120.235 54.9375C122.076 55.3731 123.962 55.5842 125.854 55.5661C127.579 55.5872 129.278 55.1536 130.782 54.309C132.042 53.6101 133.119 52.6236 133.925 51.43C133.435 52.0091 132.883 52.5319 132.278 52.9889C130.148 54.506 127.575 55.2752 124.962 55.1764C122.722 55.2268 120.503 54.7442 118.487 53.7684C116.692 52.8789 115.204 51.4737 114.213 49.7329C113.206 47.9151 112.694 45.8645 112.73 43.7867V24.7409C112.73 24.5742 112.796 24.4143 112.914 24.2964C113.031 24.1785 113.191 24.1123 113.358 24.1123H126.96C127.127 24.1123 127.287 24.1785 127.405 24.2964C127.523 24.4143 127.589 24.5742 127.589 24.7409V41.0838C127.556 41.9525 127.738 42.8159 128.117 43.5981C128.413 44.2331 128.889 44.7666 129.487 45.1317C130.093 45.4861 130.785 45.6646 131.486 45.6472C132.178 45.6721 132.859 45.4785 133.435 45.0941C134.002 44.6597 134.437 44.0765 134.692 43.4095C135.042 42.5346 135.213 41.5984 135.195 40.6563V24.7409C135.195 24.5742 135.261 24.4143 135.379 24.2964C135.497 24.1785 135.657 24.1123 135.823 24.1123H149.363C149.529 24.1123 149.689 24.1785 149.807 24.2964C149.925 24.4143 149.991 24.5742 149.991 24.7409V50.8266C149.966 53.8261 149.047 56.7498 147.351 59.2244C145.406 62.0645 142.731 64.3272 139.607 65.7741C135.855 67.5019 131.757 68.349 127.627 68.2507Z" fill="white"/>
<path d="M149.475 24.7405V50.8263C149.451 53.7018 148.576 56.5058 146.961 58.8846C145.056 61.6191 142.451 63.7904 139.418 65.1703C135.726 66.9106 131.681 67.7712 127.6 67.6846C124.886 67.6544 122.181 67.3767 119.517 66.8549C117.001 66.4239 114.536 65.7329 112.163 64.7932L114.84 53.3029C116.471 54.32 118.247 55.0831 120.108 55.5658C121.998 56.0123 123.936 56.2276 125.878 56.2069C127.702 56.2545 129.505 55.8209 131.108 54.9498C132.563 54.1494 133.785 52.9839 134.653 51.5681C135.474 50.2658 135.91 48.7578 135.91 47.2183H135.407C134.932 49.3795 133.696 51.2979 131.925 52.624C129.905 54.0621 127.463 54.7875 124.986 54.6858C122.843 54.7417 120.718 54.2848 118.788 53.3532C117.106 52.5223 115.71 51.2094 114.777 49.5818C113.825 47.86 113.343 45.9172 113.382 43.9498V24.7405H126.984V41.0834C126.965 42.0305 127.167 42.9691 127.575 43.824C127.93 44.5607 128.488 45.1802 129.184 45.6091C129.891 46.0167 130.695 46.2253 131.51 46.2126C132.332 46.2351 133.14 46.0023 133.823 45.5463C134.507 45.056 135.035 44.3796 135.344 43.5977C135.74 42.6465 135.933 41.6231 135.91 40.5931V24.7405H149.45H149.475ZM149.45 23.4834H135.91C135.577 23.4834 135.257 23.6159 135.021 23.8516C134.785 24.0874 134.653 24.4071 134.653 24.7405V40.6309C134.676 41.4911 134.522 42.3469 134.2 43.1452C133.978 43.7127 133.599 44.2054 133.107 44.5658C132.633 44.8736 132.075 45.0272 131.51 45.0057C130.924 45.0201 130.345 44.8722 129.838 44.5783C129.342 44.2798 128.945 43.8428 128.694 43.3212C128.376 42.6413 128.221 41.8966 128.242 41.1463V24.7405C128.242 24.4071 128.109 24.0874 127.873 23.8516C127.638 23.6159 127.318 23.4834 126.984 23.4834H113.407C113.074 23.4834 112.754 23.6159 112.518 23.8516C112.283 24.0874 112.15 24.4071 112.15 24.7405V43.7988C112.112 45.9943 112.649 48.1614 113.709 50.0846C114.123 50.8109 114.621 51.486 115.192 52.096C115.084 52.0787 114.974 52.0787 114.866 52.096C114.577 52.0883 114.294 52.1803 114.065 52.3566C113.836 52.5329 113.675 52.7828 113.608 53.0641L110.931 64.5543C110.863 64.8441 110.901 65.1484 111.037 65.4132C111.172 65.6779 111.398 65.8858 111.672 66.0001C114.13 66.9781 116.683 67.6945 119.291 68.1372C122.029 68.6741 124.81 68.9602 127.6 68.9921C131.867 69.0932 136.1 68.2114 139.971 66.4149C143.196 64.9216 145.959 62.5848 147.966 59.6515C149.735 57.0563 150.69 53.9922 150.707 50.8515V24.7405C150.707 24.4071 150.574 24.0874 150.338 23.8516C150.103 23.6159 149.783 23.4834 149.45 23.4834Z" fill="black"/>
<path d="M169.589 31.1517C167.267 29.8497 165.329 27.9593 163.969 25.6706C162.61 23.3045 161.896 20.6236 161.896 17.8951C161.896 15.1666 162.61 12.4858 163.969 10.1197C165.338 7.84175 167.273 5.95682 169.586 4.64822C171.899 3.33962 174.512 2.65186 177.169 2.65186C179.827 2.65186 182.439 3.33962 184.752 4.64822C187.065 5.95682 189 7.84175 190.369 10.1197C191.737 12.4829 192.457 15.1649 192.457 17.8951C192.457 20.6254 191.737 23.3074 190.369 25.6706C188.301 29.1167 184.968 31.6183 181.081 32.6423C177.194 33.6662 173.062 33.1313 169.564 31.1517H169.589ZM183.493 28.914C185.404 27.8384 186.99 26.266 188.081 24.3632C189.186 22.3863 189.765 20.1595 189.765 17.8951C189.765 15.6307 189.186 13.404 188.081 11.4271C186.99 9.5243 185.404 7.9519 183.493 6.87623C181.571 5.80505 179.407 5.2428 177.207 5.2428C175.007 5.2428 172.843 5.80505 170.921 6.87623C169.016 7.95619 167.436 9.52784 166.345 11.4271C165.241 13.404 164.661 15.6307 164.661 17.8951C164.661 20.1595 165.241 22.3863 166.345 24.3632C167.436 26.2624 169.016 27.8341 170.921 28.914C172.843 29.9852 175.007 30.5475 177.207 30.5475C179.407 30.5475 181.571 29.9852 183.493 28.914ZM171.399 26.1357L171.487 20.1768C172.03 20.7653 172.678 21.2471 173.398 21.5974C174.252 22.0068 175.191 22.2092 176.138 22.1882C177.389 22.2538 178.615 21.83 179.558 21.0066C179.977 20.6063 180.306 20.1211 180.523 19.5834C180.74 19.0458 180.839 18.468 180.815 17.8888C180.824 17.096 180.634 16.3135 180.262 15.6134C179.905 14.9504 179.363 14.4047 178.703 14.042C177.996 13.651 177.198 13.4517 176.39 13.4637C175.633 13.4626 174.882 13.6033 174.177 13.8785C173.54 14.1122 172.961 14.481 172.48 14.9597L171.223 9.56654C172.023 9.19337 172.868 8.92708 173.737 8.77453C174.757 8.5805 175.792 8.47953 176.83 8.47283C178.587 8.44531 180.321 8.87876 181.859 9.72997C183.276 10.5082 184.444 11.6719 185.228 13.0865C186.065 14.5656 186.499 16.2393 186.485 17.9392C186.507 19.6241 186.073 21.2836 185.228 22.7414C184.401 24.1536 183.188 25.3006 181.733 26.0477C180.152 26.8601 178.393 27.2662 176.616 27.2294C174.811 27.334 173.01 26.9565 171.399 26.1357Z" fill="black"/>
<path d="M173.738 32.2834C170.968 32.2886 168.244 31.5742 165.833 30.2101C163.422 28.8459 161.407 26.8789 159.985 24.5017C158.569 22.0385 157.823 19.2469 157.823 16.4056C157.823 13.5644 158.569 10.7728 159.985 8.30962C161.407 5.93241 163.422 3.96535 165.833 2.60121C168.244 1.23708 170.968 0.522652 173.738 0.527891C176.513 0.52033 179.243 1.23522 181.658 2.60221C184.069 3.9864 186.069 5.98644 187.453 8.39763C188.878 10.8602 189.628 13.6549 189.628 16.4999C189.628 19.345 188.878 22.1397 187.453 24.6023C186.032 26.9788 184.016 28.9447 181.605 30.3068C179.194 31.6689 176.47 32.3804 173.7 32.3714L173.738 32.2834ZM173.738 4.37475C171.637 4.36134 169.57 4.89881 167.741 5.9336C165.929 6.95788 164.426 8.45184 163.392 10.2582C162.339 12.1361 161.786 14.2528 161.786 16.4056C161.786 18.5585 162.339 20.6752 163.392 22.5531C164.426 24.3594 165.929 25.8534 167.741 26.8777C169.572 27.9075 171.637 28.4484 173.738 28.4484C175.839 28.4484 177.904 27.9075 179.735 26.8777C181.55 25.8569 183.053 24.3621 184.084 22.5531C185.137 20.6752 185.69 18.5585 185.69 16.4056C185.69 14.2528 185.137 12.1361 184.084 10.2582C183.053 8.44915 181.55 6.95436 179.735 5.9336C177.902 4.91634 175.834 4.39633 173.738 4.42509V4.37475ZM173.122 26.3245C171.222 26.4382 169.325 26.0433 167.628 25.1805C167.536 25.1241 167.459 25.0446 167.406 24.9499C167.353 24.8552 167.326 24.7484 167.327 24.6399L167.415 18.6811C167.415 18.5551 167.453 18.4321 167.525 18.3287C167.597 18.2253 167.699 18.1465 167.817 18.1028C167.891 18.0851 167.969 18.0851 168.043 18.1028C168.131 18.1038 168.218 18.1233 168.298 18.1602C168.379 18.197 168.45 18.2503 168.508 18.3165C169.002 18.8363 169.585 19.2623 170.231 19.5737C171.013 19.953 171.876 20.1343 172.745 20.1017C173.837 20.1662 174.911 19.8007 175.737 19.0834C176.098 18.7461 176.381 18.3338 176.565 17.8756C176.75 17.4173 176.832 16.9242 176.805 16.4308C176.822 15.744 176.661 15.0645 176.34 14.4571C176.054 13.9041 175.619 13.4425 175.083 13.1245C174.463 12.7879 173.765 12.6189 173.059 12.6342C172.379 12.6351 171.706 12.763 171.073 13.0113C170.528 13.2055 170.034 13.5191 169.627 13.9291C169.567 13.9919 169.495 14.042 169.415 14.0766C169.335 14.1111 169.249 14.1293 169.162 14.1302H168.999C168.89 14.1005 168.791 14.0414 168.713 13.9593C168.636 13.8773 168.582 13.7755 168.559 13.6651L167.301 8.27195C167.272 8.1368 167.289 7.9958 167.348 7.8708C167.407 7.74581 167.505 7.64372 167.628 7.58046C168.493 7.1571 169.417 6.86881 170.369 6.72561C171.425 6.52122 172.499 6.416 173.575 6.41132C175.413 6.37066 177.232 6.80358 178.855 7.66847C180.372 8.50304 181.623 9.74946 182.463 11.264C183.322 12.8484 183.755 14.6287 183.72 16.4308C183.744 18.2267 183.278 19.9954 182.375 21.5474C181.479 23.063 180.171 24.2926 178.603 25.0926C176.912 25.9703 175.027 26.4111 173.122 26.3748V26.3245Z" fill="white"/>
<path d="M173.738 1.20701C176.405 1.19394 179.028 1.8833 181.344 3.20583C183.664 4.4999 185.599 6.38708 186.95 8.67438C188.318 11.0399 189.037 13.7239 189.037 16.4561C189.037 19.1883 188.318 21.8723 186.95 24.2379C185.597 26.5272 183.663 28.4181 181.344 29.7191C179.02 31.0218 176.401 31.7059 173.738 31.7059C171.074 31.7059 168.455 31.0218 166.132 29.7191C163.813 28.4181 161.878 26.5272 160.525 24.2379C159.167 21.8694 158.452 19.1866 158.452 16.4561C158.452 13.7257 159.167 11.0428 160.525 8.67438C161.894 6.39385 163.831 4.50723 166.147 3.19846C168.463 1.8897 171.078 1.20357 173.738 1.20701ZM173.738 29.1282C175.941 29.1395 178.109 28.5716 180.024 27.4813C181.935 26.4039 183.517 24.8263 184.6 22.9179C185.712 20.946 186.297 18.7202 186.297 16.4561C186.297 14.192 185.712 11.9663 184.6 9.99445C183.513 8.08868 181.932 6.51192 180.024 5.431C178.099 4.36785 175.936 3.81016 173.738 3.81016C171.539 3.81016 169.377 4.36785 167.452 5.431C165.543 6.51192 163.962 8.08868 162.876 9.99445C161.772 11.969 161.192 14.1937 161.192 16.4561C161.192 18.7186 161.772 20.9433 162.876 22.9179C163.959 24.8263 165.541 26.4039 167.452 27.4813C169.367 28.5716 171.534 29.1395 173.738 29.1282ZM173.436 7.04011C175.193 7.01259 176.927 7.44604 178.465 8.29725C179.885 9.07017 181.058 10.2296 181.846 11.6413C182.683 13.1256 183.116 14.8029 183.104 16.5065C183.132 18.1921 182.697 19.8531 181.846 21.3088C181.024 22.72 179.816 23.8671 178.364 24.6151C176.779 25.429 175.016 25.8351 173.235 25.7968C171.45 25.9052 169.668 25.5409 168.068 24.7407L168.156 18.7819C168.698 19.3742 169.347 19.8602 170.067 20.215C170.917 20.6243 171.852 20.8267 172.795 20.8059C174.044 20.8675 175.27 20.4441 176.214 19.6241C176.635 19.2249 176.965 18.7399 177.182 18.202C177.399 17.6641 177.498 17.0858 177.472 16.5065C177.487 15.7144 177.301 14.9315 176.931 14.231C176.574 13.5642 176.033 13.0142 175.372 12.647C174.66 12.2588 173.858 12.0637 173.046 12.0813C172.29 12.0813 171.539 12.222 170.834 12.4962C170.198 12.7251 169.622 13.0947 169.149 13.5773L167.892 8.18415C168.687 7.79987 169.534 7.53309 170.406 7.39215C171.426 7.19812 172.461 7.09715 173.499 7.09044L173.436 7.04011ZM173.801 0.000124567C170.923 -0.00204213 168.093 0.741434 165.588 2.15808C163.083 3.57473 160.988 5.61621 159.507 8.08356C158.032 10.6457 157.256 13.5502 157.256 16.5065C157.256 19.4627 158.032 22.3672 159.507 24.9293C160.986 27.4006 163.08 29.4462 165.585 30.8666C168.09 32.2871 170.921 33.0336 173.801 33.0336C176.681 33.0336 179.511 32.2871 182.016 30.8666C184.522 29.4462 186.616 27.4006 188.094 24.9293C189.218 23.043 189.953 20.9507 190.256 18.7758C190.559 16.601 190.423 14.3875 189.858 12.2659C189.292 10.1442 188.307 8.15732 186.961 6.42212C185.616 4.68693 183.936 3.23855 182.022 2.16238C179.518 0.734484 176.683 -0.0110854 173.801 0.000124567ZM167.515 6.93959L168.106 6.57497C169.839 5.62199 171.785 5.12232 173.763 5.12232C175.741 5.12232 177.687 5.62199 179.42 6.57497C181.133 7.54786 182.553 8.96337 183.531 10.6733C184.529 12.4556 185.052 14.464 185.052 16.5065C185.052 18.5489 184.529 20.5573 183.531 22.3396C182.553 24.0495 181.133 25.465 179.42 26.4379C177.689 27.3988 175.743 27.9031 173.763 27.9031C171.783 27.9031 169.836 27.3988 168.106 26.4379C166.389 25.4653 164.965 24.05 163.982 22.3396C162.993 20.5547 162.474 18.5473 162.474 16.5065C162.474 14.4656 162.993 12.4582 163.982 10.6733C164.711 9.41549 165.676 8.30996 166.823 7.41724C166.712 7.56641 166.635 7.73857 166.598 7.9212C166.561 8.10384 166.565 8.29242 166.61 8.47327L167.867 13.8664C167.92 14.0853 168.031 14.286 168.188 14.4474C168.345 14.6088 168.542 14.7252 168.76 14.7842C168.868 14.7954 168.978 14.7954 169.086 14.7842C169.259 14.7836 169.429 14.7476 169.587 14.6784C169.745 14.6092 169.887 14.5083 170.004 14.3819C170.36 14.0347 170.79 13.7725 171.261 13.615C171.819 13.4013 172.411 13.2906 173.009 13.2882C173.603 13.2751 174.192 13.4135 174.718 13.6905C175.172 13.9451 175.543 14.3248 175.787 14.7842C176.057 15.2993 176.191 15.8747 176.177 16.4561C176.2 16.8619 176.135 17.2679 175.985 17.6457C175.835 18.0236 175.604 18.3642 175.309 18.6436C174.614 19.2447 173.712 19.5514 172.795 19.4985C172.049 19.52 171.308 19.3649 170.633 19.0458C170.057 18.7539 169.534 18.3672 169.086 17.9019C168.97 17.7693 168.827 17.6628 168.667 17.5892C168.506 17.5155 168.333 17.4764 168.156 17.4744C168.005 17.4719 167.855 17.5019 167.716 17.5624C167.48 17.6508 167.275 17.8084 167.129 18.0147C166.983 18.221 166.903 18.4665 166.899 18.719L166.811 24.6779C166.809 24.8982 166.865 25.1152 166.973 25.3072C167.081 25.4991 167.237 25.6593 167.427 25.7716C169.215 26.7053 171.221 27.1396 173.235 27.0288C175.222 27.065 177.188 26.6071 178.955 25.6962C180.611 24.8382 181.992 23.5312 182.94 21.9247C183.894 20.2709 184.385 18.3905 184.361 16.4813C184.385 14.5666 183.913 12.6782 182.99 11.0001C182.077 9.4109 180.741 8.10556 179.131 7.22871C177.418 6.30349 175.496 5.83582 173.549 5.87097C172.435 5.87364 171.324 5.9831 170.23 6.19784C169.317 6.34333 168.425 6.60527 167.578 6.97727L167.515 6.93959Z" fill="black"/>
</g>
<defs>
<filter id="filter0_d_440_16854" x="0" y="0" width="194.457" height="71" filterUnits="userSpaceOnUse" color-interpolation-filters="sRGB">
<feFlood flood-opacity="0" result="BackgroundImageFix"/>
<feColorMatrix in="SourceAlpha" type="matrix" values="0 0 0 0 0 0 0 0 0 0 0 0 0 0 0 0 0 0 127 0" result="hardAlpha"/>
<feOffset dx="2" dy="2"/>
<feComposite in2="hardAlpha" operator="out"/>
<feColorMatrix type="matrix" values="0 0 0 0 0 0 0 0 0 0 0 0 0 0 0 0 0 0 1 0"/>
<feBlend mode="normal" in2="BackgroundImageFix" result="effect1_dropShadow_440_16854"/>
<feBlend mode="normal" in="SourceGraphic" in2="effect1_dropShadow_440_16854" result="shape"/>
</filter>
</defs>
</svg>
