<svg width="796" height="161" viewBox="0 0 796 161" fill="none" xmlns="http://www.w3.org/2000/svg">
<g filter="url(#filter0_d_431_4325)">
<mask id="path-1-inside-1_431_4325" fill="white">
<path d="M38.6405 38.1299C49.9555 38.1299 58.1705 29.7599 58.1705 19.5299C58.1705 9.1449 49.9555 0.774902 38.6405 0.774902C27.3255 0.774902 18.9555 9.1449 18.9555 19.5299C18.9555 29.7599 27.3255 38.1299 38.6405 38.1299ZM12.1355 160.425C41.4305 160.425 57.5505 148.8 57.5505 122.605V41.0749H19.8855V120.745C19.8855 126.48 15.2355 128.805 7.95053 128.805C5.62553 128.805 2.52553 128.34 0.665527 127.565V159.03C4.23053 159.96 9.19053 160.425 12.1355 160.425Z"/>
<path d="M97.9862 126.325C114.416 126.325 124.181 117.18 126.971 105.4H128.366V124H166.031V41.0749H128.366V86.4899C128.366 96.4099 123.406 102.145 116.121 102.145C108.991 102.145 103.566 96.7199 103.566 87.8849V41.0749H65.7462V94.5499C65.7462 112.375 77.8362 126.325 97.9862 126.325Z"/>
<path d="M193.471 38.1299C204.786 38.1299 213.156 29.7599 213.156 19.5299C213.156 9.1449 204.786 0.774902 193.471 0.774902C182.156 0.774902 173.786 9.1449 173.786 19.5299C173.786 29.7599 182.156 38.1299 193.471 38.1299ZM174.406 124H212.226V41.0749H174.406V124Z"/>
<path d="M271.738 126.325C282.433 126.325 295.453 123.38 301.963 120.435V89.2799C296.538 92.9999 285.068 96.2549 276.233 96.2549C265.228 96.2549 257.633 90.8299 257.633 81.9949C257.633 74.3999 264.608 68.6649 274.683 68.6649C283.363 68.6649 288.323 70.8349 293.903 74.8649L300.878 46.8099C293.283 41.2299 279.643 38.7499 270.188 38.7499C239.343 38.7499 219.038 58.2799 219.038 82.3049C219.038 107.88 241.513 126.325 271.738 126.325Z"/>
<path d="M352.08 160.425C392.225 160.425 412.84 136.09 412.84 113.615V41.0749H375.175V85.2499C375.175 95.1699 370.215 100.905 362.93 100.905C355.8 100.905 350.375 95.4799 350.375 86.6449V41.0749H312.555V94.0849C312.555 111.91 324.645 124 344.795 124C361.225 124 370.99 115.01 373.78 103.23H375.175V103.385C375.175 115.785 364.48 128.495 347.275 128.495C335.96 128.495 326.97 126.635 316.585 120.435L309.145 152.365C319.995 157.015 338.905 160.425 352.08 160.425Z"/>
<path d="M422.995 124H460.66V3.0999H422.995V124Z"/>
<path d="M504.591 126.325C521.486 126.325 532.646 113.925 534.351 99.0449H535.746V124H573.566V41.0749H570.156L546.596 55.3349H546.131C538.691 45.2599 526.756 38.7499 511.721 38.7499C486.456 38.7499 469.251 58.5899 469.251 82.6149C469.251 108.5 482.581 126.325 504.591 126.325ZM523.501 97.3399C514.821 97.3399 508.931 90.3649 508.931 82.1499C508.931 73.9349 514.976 66.8049 523.656 66.8049C532.336 66.8049 538.071 73.7799 538.071 81.9949C538.071 90.2099 532.181 97.3399 523.501 97.3399Z"/>
<path d="M583.736 124H621.556V81.2199C621.556 71.2999 626.516 65.7199 633.801 65.7199C640.931 65.7199 646.356 70.9899 646.356 79.8249V124H684.176V75.3299C684.176 54.5599 666.661 38.7499 643.411 38.7499C629.461 38.7499 617.371 45.2599 609.931 54.7149H609.776L587.301 41.0749H583.736V124Z"/>
<path d="M723.94 126.325C739.13 126.325 750.135 116.405 755.715 102.765H757.11V124H794.775V3.0999H757.11V61.3799H755.56C749.67 47.8949 737.89 38.7499 723.785 38.7499C703.015 38.7499 687.825 57.9699 687.825 81.9949C687.825 105.865 703.325 126.325 723.94 126.325ZM741.3 99.1999C731.845 99.1999 725.49 91.2949 725.49 82.1499C725.49 73.0049 732.155 64.9449 741.455 64.9449C750.91 64.9449 757.11 72.8499 757.11 81.9949C757.11 91.1399 750.6 99.1999 741.3 99.1999Z"/>
</mask>
<path d="M38.6405 38.1299C49.9555 38.1299 58.1705 29.7599 58.1705 19.5299C58.1705 9.1449 49.9555 0.774902 38.6405 0.774902C27.3255 0.774902 18.9555 9.1449 18.9555 19.5299C18.9555 29.7599 27.3255 38.1299 38.6405 38.1299ZM12.1355 160.425C41.4305 160.425 57.5505 148.8 57.5505 122.605V41.0749H19.8855V120.745C19.8855 126.48 15.2355 128.805 7.95053 128.805C5.62553 128.805 2.52553 128.34 0.665527 127.565V159.03C4.23053 159.96 9.19053 160.425 12.1355 160.425Z" fill="white"/>
<path d="M97.9862 126.325C114.416 126.325 124.181 117.18 126.971 105.4H128.366V124H166.031V41.0749H128.366V86.4899C128.366 96.4099 123.406 102.145 116.121 102.145C108.991 102.145 103.566 96.7199 103.566 87.8849V41.0749H65.7462V94.5499C65.7462 112.375 77.8362 126.325 97.9862 126.325Z" fill="white"/>
<path d="M193.471 38.1299C204.786 38.1299 213.156 29.7599 213.156 19.5299C213.156 9.1449 204.786 0.774902 193.471 0.774902C182.156 0.774902 173.786 9.1449 173.786 19.5299C173.786 29.7599 182.156 38.1299 193.471 38.1299ZM174.406 124H212.226V41.0749H174.406V124Z" fill="white"/>
<path d="M271.738 126.325C282.433 126.325 295.453 123.38 301.963 120.435V89.2799C296.538 92.9999 285.068 96.2549 276.233 96.2549C265.228 96.2549 257.633 90.8299 257.633 81.9949C257.633 74.3999 264.608 68.6649 274.683 68.6649C283.363 68.6649 288.323 70.8349 293.903 74.8649L300.878 46.8099C293.283 41.2299 279.643 38.7499 270.188 38.7499C239.343 38.7499 219.038 58.2799 219.038 82.3049C219.038 107.88 241.513 126.325 271.738 126.325Z" fill="white"/>
<path d="M352.08 160.425C392.225 160.425 412.84 136.09 412.84 113.615V41.0749H375.175V85.2499C375.175 95.1699 370.215 100.905 362.93 100.905C355.8 100.905 350.375 95.4799 350.375 86.6449V41.0749H312.555V94.0849C312.555 111.91 324.645 124 344.795 124C361.225 124 370.99 115.01 373.78 103.23H375.175V103.385C375.175 115.785 364.48 128.495 347.275 128.495C335.96 128.495 326.97 126.635 316.585 120.435L309.145 152.365C319.995 157.015 338.905 160.425 352.08 160.425Z" fill="white"/>
<path d="M422.995 124H460.66V3.0999H422.995V124Z" fill="white"/>
<path d="M504.591 126.325C521.486 126.325 532.646 113.925 534.351 99.0449H535.746V124H573.566V41.0749H570.156L546.596 55.3349H546.131C538.691 45.2599 526.756 38.7499 511.721 38.7499C486.456 38.7499 469.251 58.5899 469.251 82.6149C469.251 108.5 482.581 126.325 504.591 126.325ZM523.501 97.3399C514.821 97.3399 508.931 90.3649 508.931 82.1499C508.931 73.9349 514.976 66.8049 523.656 66.8049C532.336 66.8049 538.071 73.7799 538.071 81.9949C538.071 90.2099 532.181 97.3399 523.501 97.3399Z" fill="white"/>
<path d="M583.736 124H621.556V81.2199C621.556 71.2999 626.516 65.7199 633.801 65.7199C640.931 65.7199 646.356 70.9899 646.356 79.8249V124H684.176V75.3299C684.176 54.5599 666.661 38.7499 643.411 38.7499C629.461 38.7499 617.371 45.2599 609.931 54.7149H609.776L587.301 41.0749H583.736V124Z" fill="white"/>
<path d="M723.94 126.325C739.13 126.325 750.135 116.405 755.715 102.765H757.11V124H794.775V3.0999H757.11V61.3799H755.56C749.67 47.8949 737.89 38.7499 723.785 38.7499C703.015 38.7499 687.825 57.9699 687.825 81.9949C687.825 105.865 703.325 126.325 723.94 126.325ZM741.3 99.1999C731.845 99.1999 725.49 91.2949 725.49 82.1499C725.49 73.0049 732.155 64.9449 741.455 64.9449C750.91 64.9449 757.11 72.8499 757.11 81.9949C757.11 91.1399 750.6 99.1999 741.3 99.1999Z" fill="white"/>
<path d="M38.6405 38.1299C49.9555 38.1299 58.1705 29.7599 58.1705 19.5299C58.1705 9.1449 49.9555 0.774902 38.6405 0.774902C27.3255 0.774902 18.9555 9.1449 18.9555 19.5299C18.9555 29.7599 27.3255 38.1299 38.6405 38.1299ZM12.1355 160.425C41.4305 160.425 57.5505 148.8 57.5505 122.605V41.0749H19.8855V120.745C19.8855 126.48 15.2355 128.805 7.95053 128.805C5.62553 128.805 2.52553 128.34 0.665527 127.565V159.03C4.23053 159.96 9.19053 160.425 12.1355 160.425Z" stroke="black" stroke-width="0.980645" mask="url(#path-1-inside-1_431_4325)"/>
<path d="M97.9862 126.325C114.416 126.325 124.181 117.18 126.971 105.4H128.366V124H166.031V41.0749H128.366V86.4899C128.366 96.4099 123.406 102.145 116.121 102.145C108.991 102.145 103.566 96.7199 103.566 87.8849V41.0749H65.7462V94.5499C65.7462 112.375 77.8362 126.325 97.9862 126.325Z" stroke="black" stroke-width="0.980645" mask="url(#path-1-inside-1_431_4325)"/>
<path d="M193.471 38.1299C204.786 38.1299 213.156 29.7599 213.156 19.5299C213.156 9.1449 204.786 0.774902 193.471 0.774902C182.156 0.774902 173.786 9.1449 173.786 19.5299C173.786 29.7599 182.156 38.1299 193.471 38.1299ZM174.406 124H212.226V41.0749H174.406V124Z" stroke="black" stroke-width="0.980645" mask="url(#path-1-inside-1_431_4325)"/>
<path d="M271.738 126.325C282.433 126.325 295.453 123.38 301.963 120.435V89.2799C296.538 92.9999 285.068 96.2549 276.233 96.2549C265.228 96.2549 257.633 90.8299 257.633 81.9949C257.633 74.3999 264.608 68.6649 274.683 68.6649C283.363 68.6649 288.323 70.8349 293.903 74.8649L300.878 46.8099C293.283 41.2299 279.643 38.7499 270.188 38.7499C239.343 38.7499 219.038 58.2799 219.038 82.3049C219.038 107.88 241.513 126.325 271.738 126.325Z" stroke="black" stroke-width="0.980645" mask="url(#path-1-inside-1_431_4325)"/>
<path d="M352.08 160.425C392.225 160.425 412.84 136.09 412.84 113.615V41.0749H375.175V85.2499C375.175 95.1699 370.215 100.905 362.93 100.905C355.8 100.905 350.375 95.4799 350.375 86.6449V41.0749H312.555V94.0849C312.555 111.91 324.645 124 344.795 124C361.225 124 370.99 115.01 373.78 103.23H375.175V103.385C375.175 115.785 364.48 128.495 347.275 128.495C335.96 128.495 326.97 126.635 316.585 120.435L309.145 152.365C319.995 157.015 338.905 160.425 352.08 160.425Z" stroke="black" stroke-width="0.980645" mask="url(#path-1-inside-1_431_4325)"/>
<path d="M422.995 124H460.66V3.0999H422.995V124Z" stroke="black" stroke-width="0.980645" mask="url(#path-1-inside-1_431_4325)"/>
<path d="M504.591 126.325C521.486 126.325 532.646 113.925 534.351 99.0449H535.746V124H573.566V41.0749H570.156L546.596 55.3349H546.131C538.691 45.2599 526.756 38.7499 511.721 38.7499C486.456 38.7499 469.251 58.5899 469.251 82.6149C469.251 108.5 482.581 126.325 504.591 126.325ZM523.501 97.3399C514.821 97.3399 508.931 90.3649 508.931 82.1499C508.931 73.9349 514.976 66.8049 523.656 66.8049C532.336 66.8049 538.071 73.7799 538.071 81.9949C538.071 90.2099 532.181 97.3399 523.501 97.3399Z" stroke="black" stroke-width="0.980645" mask="url(#path-1-inside-1_431_4325)"/>
<path d="M583.736 124H621.556V81.2199C621.556 71.2999 626.516 65.7199 633.801 65.7199C640.931 65.7199 646.356 70.9899 646.356 79.8249V124H684.176V75.3299C684.176 54.5599 666.661 38.7499 643.411 38.7499C629.461 38.7499 617.371 45.2599 609.931 54.7149H609.776L587.301 41.0749H583.736V124Z" stroke="black" stroke-width="0.980645" mask="url(#path-1-inside-1_431_4325)"/>
<path d="M723.94 126.325C739.13 126.325 750.135 116.405 755.715 102.765H757.11V124H794.775V3.0999H757.11V61.3799H755.56C749.67 47.8949 737.89 38.7499 723.785 38.7499C703.015 38.7499 687.825 57.9699 687.825 81.9949C687.825 105.865 703.325 126.325 723.94 126.325ZM741.3 99.1999C731.845 99.1999 725.49 91.2949 725.49 82.1499C725.49 73.0049 732.155 64.9449 741.455 64.9449C750.91 64.9449 757.11 72.8499 757.11 81.9949C757.11 91.1399 750.6 99.1999 741.3 99.1999Z" stroke="black" stroke-width="0.980645" mask="url(#path-1-inside-1_431_4325)"/>
</g>
<defs>
<filter id="filter0_d_431_4325" x="0.665527" y="0.774902" width="794.6" height="160.14" filterUnits="userSpaceOnUse" color-interpolation-filters="sRGB">
<feFlood flood-opacity="0" result="BackgroundImageFix"/>
<feColorMatrix in="SourceAlpha" type="matrix" values="0 0 0 0 0 0 0 0 0 0 0 0 0 0 0 0 0 0 127 0" result="hardAlpha"/>
<feOffset dx="0.490323" dy="0.490323"/>
<feComposite in2="hardAlpha" operator="out"/>
<feColorMatrix type="matrix" values="0 0 0 0 0 0 0 0 0 0 0 0 0 0 0 0 0 0 1 0"/>
<feBlend mode="normal" in2="BackgroundImageFix" result="effect1_dropShadow_431_4325"/>
<feBlend mode="normal" in="SourceGraphic" in2="effect1_dropShadow_431_4325" result="shape"/>
</filter>
</defs>
</svg>
