<svg width="273" height="274" viewBox="0 0 273 274" fill="none" xmlns="http://www.w3.org/2000/svg">
<path d="M108.192 272.582C46.8063 269.395 -0.339603 216.509 2.88054 154.44C3.82539 135.383 9.5918 116.878 19.6396 100.659C29.6874 84.4388 43.6877 71.0347 60.3293 61.702L65.3978 59.0455C82.2934 50.7085 101.049 46.8553 119.863 47.8558C181.252 51.0428 228.407 103.929 225.187 165.969C221.966 228.01 169.586 275.757 108.2 272.574" fill="#FDC100"/>
<path d="M222.024 132.276C228.088 130.829 240.288 125.326 242.85 104.306C246.306 76.0663 230.458 50.1228 239.534 47.6279C239.534 47.6279 242.85 49.3395 245.635 54.1014C245.635 54.1014 249.141 53.4134 250.915 44.9092C252.688 36.4051 259.203 37.7313 255.088 47.114L256.165 47.1679L258.039 47.5823C258.039 47.5823 260.699 38.1374 263.915 41.7057C263.915 41.7057 265.871 44.3373 262.635 49.5799L264.968 51.1257C264.968 51.1257 266.82 51.3371 269.282 48.3822C269.282 48.3822 270.447 44.8015 272.071 47.114C273.696 49.4265 267.633 66.696 262.166 70.7906C262.166 70.7906 273.862 129.499 223.558 139.172L222.024 132.276Z" fill="#FCFF8B"/>
<path d="M156.333 134.762C156.573 135.512 157.576 139.321 155.118 144.166C151.426 151.464 142.093 157.25 127.351 161.328C124.237 162.148 121.039 162.606 117.819 162.691C109.883 162.973 98.5483 161.357 89.6712 151.974C88.1792 150.399 85.158 144.1 86.8945 138.637C87.827 135.711 90.4627 132.006 97.7236 130.763C98.9006 130.473 107.732 128.728 119.427 134.103C120.912 134.792 122.533 135.136 124.169 135.11C125.55 135.079 126.89 134.63 128.01 133.822C128.371 133.548 137.522 126.71 145.417 126.432C150.862 126.237 154.737 129.192 156.324 134.758" fill="#FD6800"/>
<path d="M101.996 135.127C100.909 135.15 99.8252 135.272 98.7596 135.492L98.5441 135.533C94.6277 136.192 92.2199 137.701 91.3993 140.009C90.2016 143.428 92.4851 147.95 93.057 148.609C100.703 156.702 110.654 158.111 117.658 157.863C120.506 157.778 123.335 157.379 126.096 156.673C142.64 152.081 148.686 146.234 150.866 142.123C152.632 138.778 151.927 136.374 151.902 136.275C150.87 132.686 148.956 131.173 145.615 131.302C139.154 131.53 130.853 137.717 130.775 137.775C128.91 139.149 126.667 139.914 124.351 139.968C121.972 140.023 119.613 139.527 117.459 138.517C110.89 135.5 105.415 135.007 101.996 135.127Z" fill="#FD4D00"/>
<path d="M137.198 152.819C119.104 142.276 106.464 151.406 102.494 155.26C102.494 155.26 117.649 162.737 137.198 152.819Z" fill="#FD8300"/>
<path d="M59.347 48.0755C61.2948 41.4197 68.2242 6.52026 1.00319 1.17822C0.721375 1.17822 19.1885 6.33791 28.1071 36.8941C35.3016 61.5445 50.9879 54.3997 56.7775 50.7237" fill="#6DE272"/>
<path d="M56.7776 50.7237C58.2902 52.858 60.35 56.9402 59.7946 62.8707C58.9326 71.9882 65.9034 61.5652 65.9034 61.5652C65.9034 61.5652 62.8573 51.9587 59.347 48.0754" fill="#6DE272"/>
<path d="M63.5577 65.3698C63.5577 65.3698 65.0952 55.9787 59.1647 49.2898C59.1647 49.2898 61.9041 35.0001 55.0577 21.6512C55.0577 21.6512 63.9887 29.5628 60.0309 48.204C60.0309 48.204 63.4168 51.2749 66.6245 61.5943C66.6203 61.5943 64.9129 64.3088 63.5577 65.3698Z" fill="#0200EC"/>
<path d="M65.6795 58.7844C65.6795 58.7844 200.615 21.3777 225.178 165.977C225.178 165.977 225.473 147.154 223.541 139.139C223.541 139.139 216.106 86.6965 166.764 61.0596C166.785 61.0596 123.12 32.8575 65.6795 58.7844Z" fill="#023AEC"/>
<path d="M227.856 137.821C227.856 137.821 223.798 133.382 228.27 129.827C228.27 129.827 225.589 130.958 222.584 132.139C219.579 133.32 223.541 139.139 223.541 139.139L227.856 137.821Z" fill="#023AEC"/>
<path d="M60.2547 61.6191C43.5928 70.9484 29.5731 84.3564 19.5103 100.586C9.44754 116.815 3.67126 135.334 2.72308 154.407C-0.480487 216.513 46.7276 269.453 108.196 272.624" stroke="#1100A5" stroke-width="0.609216" stroke-linecap="round" stroke-linejoin="round"/>
<path d="M108.196 272.624C169.665 275.815 222.107 228.068 225.332 165.961C228.556 103.854 181.344 50.9434 119.867 47.7564C101.03 46.7534 82.2513 50.6064 65.3315 58.9461" stroke="#112AA5" stroke-width="0.609216" stroke-linecap="round" stroke-linejoin="round"/>
<path d="M222 131.998C228.025 130.564 240.16 125.094 242.721 104.19C246.157 76.1076 230.4 50.3133 239.406 47.8267C239.406 47.8267 242.651 49.4844 245.469 54.2629C245.469 54.2629 248.954 53.5749 250.72 45.1205C252.485 36.666 258.975 37.9839 254.864 47.3128L255.933 47.3708L257.798 47.7853C257.798 47.7853 260.446 38.3942 263.646 41.9418C263.646 41.9418 265.589 44.5568 262.369 49.7497L264.69 51.2872C264.69 51.2872 266.53 51.4944 268.98 48.5603C268.98 48.5603 270.136 45.0003 271.752 47.317C273.368 49.6336 267.339 66.7953 261.905 70.8568C261.905 70.8568 273.534 129.234 223.516 138.824" stroke="#1100A5" stroke-width="0.609216" stroke-linecap="round" stroke-linejoin="round"/>
<path d="M69.6647 113.867C69.7581 112.068 68.4773 110.54 66.8041 110.453C65.131 110.366 63.6989 111.754 63.6056 113.553C63.5123 115.352 64.793 116.881 66.4662 116.967C68.1394 117.054 69.5714 115.666 69.6647 113.867Z" fill="black" stroke="#1100A5" stroke-width="0.609216" stroke-miterlimit="10"/>
<path d="M175.903 119.359C175.996 117.56 174.715 116.031 173.042 115.944C171.369 115.857 169.937 117.245 169.843 119.044C169.75 120.843 171.031 122.372 172.704 122.459C174.377 122.545 175.809 121.158 175.903 119.359Z" fill="black" stroke="#1100A5" stroke-width="0.609216" stroke-miterlimit="10"/>
<path d="M57.134 50.8522C58.6591 52.9989 60.7272 57.1184 60.1677 63.0779C59.3015 72.2535 66.3136 61.7601 66.3136 61.7601C66.3136 61.7601 63.251 52.0955 59.7201 48.1874" stroke="#1100A5" stroke-width="0.609216" stroke-linecap="round" stroke-linejoin="round"/>
<path d="M156.73 134.667C156.975 135.421 157.974 139.259 155.487 144.174C151.757 151.559 142.312 157.407 127.397 161.531C124.247 162.365 121.01 162.829 117.753 162.915C109.721 163.197 98.2747 161.56 89.2774 152.069C87.773 150.478 84.7186 144.112 86.4717 138.584C87.4166 135.625 90.0814 131.866 97.4251 130.622C98.6145 130.332 107.55 128.55 119.39 134.004C120.891 134.7 122.531 135.047 124.185 135.019C125.582 134.99 126.936 134.537 128.068 133.718C128.433 133.44 137.691 126.528 145.694 126.258C151.202 126.064 155.122 129.052 156.726 134.684" stroke="#1100A5" stroke-width="0.609216" stroke-linecap="round" stroke-linejoin="round"/>
<path d="M101.773 135.028C100.672 135.048 99.5763 135.17 98.4986 135.392L98.2831 135.434C94.3211 136.101 91.8842 137.626 91.0553 139.964C89.841 143.42 92.1494 147.995 92.713 148.667C100.45 156.852 110.534 158.277 117.579 158.025C120.459 157.937 123.32 157.534 126.112 156.823C142.843 152.173 148.96 146.259 151.165 142.106C152.951 138.72 152.238 136.304 152.213 136.188C151.169 132.562 149.233 131.028 145.856 131.149C139.32 131.381 130.936 137.639 130.845 137.701C128.958 139.089 126.689 139.863 124.347 139.918C121.941 139.973 119.555 139.47 117.376 138.451C110.778 135.405 105.233 134.903 101.773 135.028Z" stroke="#1100A5" stroke-width="0.609216" stroke-linecap="round" stroke-linejoin="round"/>
<path d="M102.291 155.343C106.311 151.443 119.092 142.21 137.393 152.856" stroke="#1100A5" stroke-width="0.609216" stroke-linecap="round" stroke-linejoin="round"/>
<path d="M59.7201 48.1873C61.6762 41.4901 68.651 6.37519 1.01559 1C0.729633 1 19.3128 6.1887 28.2853 36.9355C35.5213 61.7393 51.3112 54.5489 57.134 50.8521" stroke="#1100A5" stroke-width="0.609216" stroke-linecap="round" stroke-linejoin="round"/>
<path d="M1.55851 1.20728C1.55851 1.20728 43.2546 11.0583 58.7503 49.2815" stroke="#1100A5" stroke-width="0.609216" stroke-linecap="round" stroke-linejoin="round"/>
<path d="M39.5455 22.0367C39.5455 22.0367 41.9741 20.553 42.4465 11.7339" stroke="#1100A5" stroke-width="0.609216" stroke-linecap="round" stroke-linejoin="round"/>
<path d="M43.5613 25.9324C43.5613 25.9324 48.1201 23.2137 48.3273 15.5715" stroke="#1100A5" stroke-width="0.609216" stroke-linecap="round" stroke-linejoin="round"/>
<path d="M29.2468 39.8573C29.2468 39.8573 41.713 30.7937 50.731 34.5857" stroke="#1100A5" stroke-width="0.609216" stroke-linecap="round" stroke-linejoin="round"/>
<path d="M31.3977 44.8677C31.3977 44.8677 48.3895 35.7211 54.4236 40.3752" stroke="#1100A5" stroke-width="0.609216" stroke-linecap="round" stroke-linejoin="round"/>
</svg>
