<svg width="616" height="484" viewBox="0 0 616 484" fill="none" xmlns="http://www.w3.org/2000/svg">
<path d="M316.03 446.021C316.03 446.021 300.84 435.581 298.03 444.391C298.03 444.391 289.22 477.391 295.77 482.511C303.573 476.912 309.884 469.485 314.15 460.881C314.15 460.881 312.66 450.731 316.08 446.021" fill="#FF532B"/>
<path d="M296.66 413.921C381.038 413.921 449.44 344.198 449.44 258.191C449.44 172.183 381.038 102.461 296.66 102.461C212.282 102.461 143.88 172.183 143.88 258.191C143.88 344.198 212.282 413.921 296.66 413.921Z" fill="#FFC001"/>
<path d="M291.6 125.511C291.6 125.511 282.3 73.1008 298.69 52.6508C298.69 52.6508 302.54 48.6508 304.35 56.0908V57.9207C304.35 57.9207 292.62 71.9208 294.04 123.681L291.6 125.511Z" fill="#04D493"/>
<path d="M200.67 383.401C179.13 397.241 150.44 420.401 153.86 431.671C155.35 436.601 168 452.221 268.2 446.671C268.2 446.671 273.2 448.271 270.32 462.671C270.24 463.071 269.51 462.821 269.1 462.851C254.74 463.637 241.604 464.034 229.69 464.041C173.29 464.041 143.99 455.041 138.32 436.351C130.2 409.571 176.77 378.881 190.82 370.351C190.82 370.351 199.3 378.351 202.32 380.581L203.59 381.581L200.67 383.401Z" fill="#FFE8A8"/>
<path d="M294.07 123.401C294.07 123.401 284.28 64.6706 302.83 53.4006C302.83 53.4006 305.1 53.9606 304.63 57.9206C304.63 57.9106 293.05 72.4006 294.07 123.401Z" fill="#0D40E5"/>
<path d="M186.62 1.08073C193.35 -0.849274 303.85 32.0207 282.01 78.9507C278.627 80.8766 274.822 81.9411 270.93 82.0507C258.84 82.4607 247.93 75.5107 239.33 67.6207C233.09 61.9007 228.33 54.8207 223.5 47.9507C216.56 38.1807 209.5 28.4507 202.31 18.9007C198.279 13.3576 193.939 8.04582 189.31 2.99073C188.54 2.30073 187.68 1.20073 186.62 1.08073Z" fill="#04D493"/>
<path d="M149.58 301.781C149.2 300.781 141.25 300.251 139.98 300.121C136.409 299.756 132.812 299.695 129.23 299.941C122.148 300.33 115.246 302.327 109.05 305.781C102.37 309.661 97.8104 315.611 93.5904 321.941C89.3704 328.271 85.5104 335.191 84.4604 342.711C83.2404 351.491 87.5603 358.411 95.6303 361.881C113.94 369.741 128.94 360.401 132.75 346.761C136.22 334.321 123.24 323.111 112.09 321.651C100.57 320.141 89.6804 326.001 80.5204 332.371C72.1404 338.211 63.8203 345.121 58.6403 354.081C56.5414 357.69 55.2466 361.71 54.8444 365.866C54.4423 370.022 54.9423 374.216 56.3103 378.161C61.1503 392.081 78.0304 399.431 77.7804 415.401C77.6604 422.781 72.4603 429.401 64.9403 430.111C59.7603 430.581 50.3203 428.941 44.3803 422.711C44.3803 422.711 48.0703 410.301 38.6103 406.711C38.6103 406.711 32.7103 405.361 35.9103 412.371C39.1103 419.381 34.4503 418.371 34.4303 418.371C32.3757 418.047 30.5281 416.935 29.2792 415.272C28.0303 413.608 27.4783 411.524 27.7403 409.461C27.8203 408.211 28.8203 406.801 30.2503 406.961C30.8515 407.15 31.4624 407.307 32.0803 407.431C32.3549 407.421 32.6244 407.354 32.8722 407.236C33.1199 407.117 33.3406 406.948 33.5204 406.741C33.8529 406.386 34.1124 405.97 34.284 405.515C34.4555 405.06 34.5359 404.576 34.5204 404.091C34.2504 400.851 30.2404 399.671 27.5204 399.861C22.1304 400.231 18.0303 406.291 19.3003 411.391C19.611 412.532 20.04 413.638 20.5803 414.691C20.7403 415.031 21.5803 417.201 22.0003 417.201L20.2804 418.061C20.2804 418.061 12.8404 408.061 9.28036 410.751C3.88036 414.841 13.7603 420.431 14.0603 424.191C14.186 425.328 13.9292 426.475 13.3303 427.451C12.8303 428.201 11.5903 429.451 10.6003 429.271C8.71031 428.861 3.04032 424.391 1.43032 427.381C0.000324726 430.041 2.09032 433.281 8.36032 436.031C10.4703 436.951 12.6203 437.711 14.8003 438.441C17.5703 439.361 20.0603 440.921 22.7303 442.071C24.3603 442.781 26.0103 443.441 27.7303 444.071C32.0554 445.733 36.4609 447.178 40.9303 448.401C45.0496 449.554 49.2474 450.406 53.4903 450.951C55.4632 451.216 57.4499 451.366 59.4403 451.401C67.0603 451.401 74.9003 450.251 81.4403 446.221C88.9303 441.631 93.6504 434.011 95.7804 425.601C95.7804 425.381 95.8903 425.161 95.9403 424.941C98.1491 415.556 96.7424 405.684 92.0003 397.291C89.623 393.305 86.6021 389.74 83.0603 386.741C79.6303 383.741 75.8703 380.741 73.9903 376.391C72.4008 372.416 72.3084 367.999 73.7303 363.961C77.7303 351.611 89.9703 345.451 101.07 340.621C105.68 338.621 114.86 335.211 117.07 342.191C117.342 343.026 117.378 343.92 117.173 344.774C116.968 345.628 116.531 346.409 115.91 347.03C115.289 347.651 114.508 348.089 113.654 348.293C112.8 348.498 111.906 348.463 111.07 348.191C104.98 346.441 104.26 339.411 106.27 334.331C112.17 319.421 127.55 309.821 153.94 313.641L149.58 301.781Z" fill="#FFE8A8"/>
<path d="M444.19 297.841C444.6 296.521 455.19 297.121 456.19 297.181C465.237 297.568 474.02 300.349 481.64 305.241C489.82 310.641 495.89 318.571 499.93 327.431C507.14 343.201 507.12 362.501 518.14 376.431C524.62 384.611 535.34 389.431 545.08 383.821C549.21 381.431 552.89 377.151 553.08 372.191C553.26 367.971 552.69 361.191 547.18 360.851C546.164 360.823 545.15 360.965 544.18 361.271C544.093 361.288 544.011 361.326 543.94 361.381C543.857 361.457 543.801 361.559 543.78 361.671C542.91 364.281 542.13 366.911 541.48 369.591C540.619 373.145 539.951 376.744 539.48 380.371C538.908 384.679 538.707 389.028 538.88 393.371C539.039 397.903 539.82 402.391 541.2 406.711C542.653 411.387 545.156 415.67 548.519 419.23C551.881 422.79 556.014 425.534 560.6 427.251C563.777 428.487 567.075 429.385 570.44 429.931C570.44 429.931 577.65 429.601 578.63 428.291C579.61 426.981 581.25 417.351 587.63 419.011C587.63 419.011 592.98 420.181 587.63 426.381C582.28 432.581 594.7 431.381 594.7 431.381C595.25 431.098 595.732 430.699 596.112 430.211C596.492 429.723 596.761 429.158 596.901 428.556C597.041 427.954 597.048 427.328 596.922 426.723C596.796 426.118 596.539 425.547 596.17 425.051C593.59 420.881 595.06 418.791 597.65 419.151C600.24 419.511 607.85 427.151 601.09 434.891L602.56 437.221C602.56 437.221 613.66 431.281 614.89 436.441C616.12 441.601 604.89 444.961 604.89 444.961V449.711C604.89 449.711 613.51 447.341 614.98 451.711C616.45 456.081 603.9 456.301 603.9 456.301C579.05 456.791 551.02 456.561 532.08 437.691C528.014 433.703 524.701 429.015 522.3 423.851C515.292 408.288 514.459 390.644 519.97 374.491C523.97 362.491 530.57 348.711 543.46 344.051C557.28 339.051 569.23 347.001 574.03 360.051C575.74 364.827 576.751 369.825 577.03 374.891C577.83 387.361 573.45 399.091 562.19 405.371C549.56 412.371 534.55 411.941 520.66 410.281C520.66 410.281 493.13 407.011 492.81 355.881C492.72 342.421 488.39 328.421 478.27 319.101C472.673 314.024 465.728 310.673 458.27 309.451C453.84 308.681 443.14 307.191 439.89 311.701L444.19 297.841Z" fill="#FFE8A8"/>
<path d="M291.6 125.511C291.6 125.511 282.3 73.1008 298.69 52.6508C298.69 52.6508 302.54 48.6508 304.35 56.0908V57.9207C304.35 57.9207 292.62 71.9208 294.04 123.681L291.6 125.511Z" stroke="#030D78" stroke-linecap="round" stroke-linejoin="round"/>
<path d="M281.76 78.4008C281.76 78.4008 251.29 39.4008 189.17 1.79077" stroke="#030D78" stroke-linecap="round" stroke-linejoin="round"/>
<path d="M289.06 88.5406C289.06 88.5406 288.53 84.7006 281.76 78.4106" stroke="#030D78" stroke-linecap="round" stroke-linejoin="round"/>
<path d="M186.9 1.08073C193.63 -0.849274 304.13 32.0207 282.29 78.9507C278.906 80.8754 275.102 81.9399 271.21 82.0507C259.12 82.4607 248.21 75.5107 239.61 67.6207C233.37 61.9007 228.61 54.8207 223.78 47.9507C216.83 38.1807 209.83 28.4507 202.59 18.9007C198.559 13.3576 194.219 8.04582 189.59 2.99073C188.82 2.30073 187.96 1.20073 186.9 1.08073Z" stroke="#030D78" stroke-linecap="round" stroke-linejoin="round"/>
<path d="M232.92 32.0506L229.12 13.9006" stroke="#030D78" stroke-linecap="round" stroke-linejoin="round"/>
<path d="M245.13 42.0308L241.23 19.5608" stroke="#030D78" stroke-linecap="round" stroke-linejoin="round"/>
<path d="M236.55 64.6008L263.8 59.8008" stroke="#030D78" stroke-linecap="round" stroke-linejoin="round"/>
<path d="M297.93 299.661C290.394 299.602 283.014 297.508 276.57 293.601C275.619 292.954 274.957 291.963 274.723 290.837C274.49 289.71 274.703 288.538 275.319 287.566C275.935 286.595 276.904 285.901 278.022 285.631C279.14 285.361 280.319 285.537 281.31 286.121C282.07 286.591 299.69 297.411 314.17 284.731C315.062 284.013 316.197 283.668 317.338 283.767C318.478 283.866 319.536 284.402 320.291 285.263C321.046 286.124 321.439 287.243 321.389 288.386C321.338 289.53 320.848 290.61 320.02 291.401C313.935 296.797 306.063 299.741 297.93 299.661Z" fill="#FF532B"/>
<path d="M297.93 299.651C290.401 299.605 283.022 297.532 276.57 293.651C275.577 293.022 274.874 292.025 274.616 290.878C274.358 289.731 274.567 288.529 275.195 287.536C275.824 286.543 276.821 285.84 277.968 285.582C279.115 285.324 280.317 285.532 281.31 286.161V286.161C282.07 286.631 299.69 297.451 314.17 284.771C315.058 284.01 316.21 283.631 317.376 283.714C318.543 283.798 319.629 284.338 320.399 285.218C321.169 286.097 321.561 287.245 321.49 288.412C321.42 289.579 320.891 290.671 320.02 291.451C313.927 296.827 306.055 299.749 297.93 299.651Z" stroke="#030D78" stroke-linecap="round" stroke-linejoin="round"/>
<path d="M224.73 276.801C224.73 276.801 235.51 295.261 257.8 278.801" stroke="#030D78" stroke-linecap="round" stroke-linejoin="round"/>
<path d="M373.66 276.801C373.66 276.801 362.88 295.261 340.66 278.801" stroke="#030D78" stroke-linecap="round" stroke-linejoin="round"/>
<path d="M232.23 283.641L227.61 288.111" stroke="#030D78" stroke-linecap="round" stroke-linejoin="round"/>
<path d="M241.26 285.871V291.651" stroke="#030D78" stroke-linecap="round" stroke-linejoin="round"/>
<path d="M249.44 283.641L253.84 288.111" stroke="#030D78" stroke-linecap="round" stroke-linejoin="round"/>
<path d="M350.39 284.201L347.28 288.761" stroke="#030D78" stroke-linecap="round" stroke-linejoin="round"/>
<path d="M359.85 285.871L361.3 291.651" stroke="#030D78" stroke-linecap="round" stroke-linejoin="round"/>
<path d="M375.31 284.201L369.77 281.221" stroke="#030D78" stroke-linecap="round" stroke-linejoin="round"/>
<path d="M278.95 290.451C278.95 290.451 299.35 302.631 316.07 288.751" stroke="#030D78" stroke-linecap="round" stroke-linejoin="round"/>
<path d="M200.91 383.401C179.38 397.221 150.66 420.331 154.1 431.651C155.59 436.581 168.24 452.201 268.44 446.651C268.44 446.651 273.44 448.251 270.57 462.651C270.49 463.051 269.75 462.801 269.34 462.831C254.98 463.617 241.844 464.014 229.93 464.021C173.53 464.021 144.23 455.021 138.56 436.331C130.44 409.551 177.01 378.861 191.06 370.331C191.06 370.331 199.54 378.331 202.56 380.561L203.83 381.561L200.91 383.401Z" stroke="#030D78" stroke-linecap="round" stroke-linejoin="round"/>
<path d="M268.44 446.671C268.44 446.671 282.8 436.231 285.67 445.041C285.67 445.041 294.48 478.041 287.93 483.161C280.36 478.263 274.323 471.331 270.51 463.161C270.51 463.161 273.24 449.281 268.44 446.671Z" fill="#FF532B"/>
<path d="M268.44 446.671C268.44 446.671 282.8 436.231 285.67 445.041C285.67 445.041 294.48 478.041 287.93 483.161C280.36 478.263 274.323 471.331 270.51 463.161C270.51 463.161 273.24 449.281 268.44 446.671Z" stroke="#030D78" stroke-linecap="round" stroke-linejoin="round"/>
<path d="M316.03 446.021C316.03 446.021 300.84 435.581 298.03 444.391C298.03 444.391 289.22 477.391 295.77 482.511C303.573 476.912 309.884 469.485 314.15 460.881C314.15 460.881 312.66 450.731 316.08 446.021" stroke="#030D78" stroke-linecap="round" stroke-linejoin="round"/>
<path d="M153.85 312.881L153.95 313.161" stroke="#030D78" stroke-linecap="round" stroke-linejoin="round"/>
<path d="M153.85 312.881L153.95 313.161" stroke="#030D78" stroke-linecap="round" stroke-linejoin="round"/>
<path d="M444.19 297.521C446.659 296.933 449.213 296.797 451.73 297.121C451.73 297.121 449.08 305.961 451.09 308.541C451.09 308.541 443.8 308.031 440.59 310.811L444.19 297.521Z" fill="#0D40E5"/>
<path d="M348.8 404.401C378.341 393.008 403.728 372.917 421.605 346.786C439.482 320.654 449.007 289.712 448.92 258.051C448.92 178.351 390.61 112.891 315.1 102.861C315.1 102.861 439.63 144.381 432.61 259.451C425.59 374.521 348.8 404.401 348.8 404.401Z" fill="#0D40E5"/>
<path d="M289.18 102.231C208.36 106.231 144.06 174.371 144.06 257.871C144.06 343.931 212.38 413.691 296.66 413.691C380.94 413.691 449.26 343.931 449.26 257.871C449.26 171.811 380.93 102.041 296.66 102.041C295.85 102.041 295.04 102.041 294.24 102.041" stroke="#030D78" stroke-linecap="round" stroke-linejoin="round"/>
<path d="M314.27 461.121C312.48 451.121 316.03 446.021 316.03 446.021C416.23 451.571 430.91 435.671 432.4 430.741C435.78 419.621 408.4 397.331 387.05 383.431C387.05 383.431 393.73 378.121 394.45 377.501C395.17 376.881 400.16 372.381 400.16 372.381C417.57 383.551 455.35 411.021 447.95 435.451C442.28 454.151 412.95 463.141 356.58 463.141C344.85 463.141 328.38 461.901 314.27 461.141" fill="#FFE8A8"/>
<path d="M387.33 383.571C387.01 383.571 400.57 372.911 400.1 372.401C399.63 371.891 410.73 379.721 410.86 379.641C410.99 379.561 398.86 381.641 399.35 391.541L387.33 383.571Z" fill="#0D40E5"/>
<path d="M314.27 461.121C312.48 451.121 316.03 446.021 316.03 446.021C416.23 451.571 430.91 435.671 432.4 430.741C435.78 419.621 408.4 397.331 387.05 383.431C387.05 383.431 393.73 378.121 394.45 377.501C395.17 376.881 400.16 372.381 400.16 372.381C417.57 383.551 455.35 411.021 447.95 435.451C442.28 454.151 412.95 463.141 356.58 463.141C344.85 463.141 328.38 461.901 314.27 461.141" stroke="#030D78" stroke-linecap="round" stroke-linejoin="round"/>
<path d="M548.44 381.401C548.44 381.401 547.58 404.281 566.44 402.471C566.44 402.471 559.16 409.561 542.99 410.951C542.99 410.951 537.77 398.751 538.99 386.051C539.04 386.011 545.54 384.851 548.44 381.401Z" fill="#0D40E5"/>
<path d="M552.29 364.901C552.39 365.161 564.89 351.791 572.83 356.771L571.83 355.091C571.83 355.091 561.27 341.231 544.06 361.361C544.04 361.401 550.15 359.061 552.29 364.901Z" fill="#0D40E5"/>
<path d="M518.08 409.541C511.2 407.211 493.08 397.171 492.86 355.801C492.77 342.341 488.44 328.341 478.32 319.021C472.723 313.944 465.778 310.593 458.32 309.371C453.89 308.601 443.19 307.111 439.94 311.621L444.19 297.841C444.6 296.521 455.19 297.121 456.19 297.181C465.237 297.568 474.02 300.349 481.64 305.241C489.82 310.641 495.89 318.571 499.93 327.431C507.14 343.201 507.12 362.501 518.14 376.431C518.5 376.884 518.87 377.324 519.25 377.751" stroke="#030D78" stroke-linejoin="round"/>
<path d="M538.76 386.051C541.008 385.716 543.171 384.952 545.13 383.801C549.26 381.411 552.94 377.131 553.13 372.171C553.31 367.951 552.74 361.171 547.23 360.831C546.214 360.803 545.2 360.945 544.23 361.251C544.143 361.268 544.061 361.306 543.99 361.361C543.907 361.437 543.851 361.539 543.83 361.651C542.96 364.261 542.18 366.891 541.53 369.571C540.669 373.125 540.001 376.724 539.53 380.351C538.958 384.659 538.758 389.008 538.93 393.351C539.089 397.883 539.87 402.371 541.25 406.691C542.703 411.367 545.206 415.65 548.569 419.21C551.932 422.77 556.064 425.514 560.65 427.231C563.827 428.467 567.125 429.365 570.49 429.911C570.49 429.911 577.7 429.581 578.68 428.271C579.66 426.961 581.3 417.331 587.68 418.991C587.68 418.991 593.03 420.161 587.68 426.361C582.33 432.561 594.75 431.361 594.75 431.361C595.3 431.078 595.782 430.679 596.162 430.191C596.542 429.703 596.811 429.139 596.951 428.536C597.091 427.934 597.098 427.308 596.972 426.703C596.846 426.098 596.589 425.527 596.22 425.031C593.64 420.861 595.11 418.771 597.7 419.131C600.29 419.491 607.9 427.131 601.14 434.871L602.61 437.201C602.61 437.201 613.71 431.261 614.94 436.421C616.17 441.581 604.94 444.941 604.94 444.941V449.691C604.94 449.691 613.56 447.321 615.03 451.691C616.5 456.061 603.95 456.281 603.95 456.281C579.1 456.771 551.07 456.541 532.13 437.671C528.064 433.683 524.751 428.995 522.35 423.831C515.342 408.268 514.509 390.624 520.02 374.471C524.02 362.471 530.62 348.691 543.51 344.031C557.33 339.031 569.28 346.981 574.08 360.031C575.79 364.807 576.801 369.805 577.08 374.871C577.88 387.341 573.5 399.071 562.24 405.351C556.138 408.622 549.409 410.555 542.5 411.021" stroke="#030D78" stroke-linejoin="round"/>
<path d="M544.04 361.401C544.04 361.401 558.35 341.971 571.81 355.131" stroke="#030D78" stroke-linejoin="round"/>
<path d="M115.21 339.291C115.21 339.291 115.13 327.291 124.06 326.521C124.06 326.521 116.97 321.751 114.42 322.091C114.42 322.091 104.88 332.091 105.69 338.871C105.69 338.871 113.53 336.911 115.21 339.291Z" fill="#0D40E5"/>
<path d="M105.12 339.051C109.77 337.551 115.42 336.891 117.12 342.171C117.392 343.006 117.428 343.9 117.223 344.754C117.018 345.608 116.581 346.389 115.96 347.01C115.339 347.632 114.558 348.069 113.704 348.273C112.85 348.478 111.955 348.443 111.12 348.171C105.03 346.421 104.31 339.391 106.32 334.311C112.22 319.401 127.6 309.801 153.99 313.621C153.99 313.621 149.99 301.751 149.99 301.741C149.61 300.741 141.3 300.251 139.99 300.121C136.419 299.756 132.822 299.695 129.24 299.941C122.157 300.33 115.256 302.327 109.06 305.781C102.38 309.661 97.8203 315.611 93.6003 321.941C89.3803 328.271 85.5203 335.191 84.4703 342.711C83.2503 351.491 87.5703 358.411 95.6403 361.881C113.95 369.741 128.95 360.401 132.76 346.761C135.99 335.181 124.96 324.661 114.43 322.091" stroke="#030D78" stroke-linejoin="round"/>
<path d="M91.1803 325.941C87.4723 327.828 83.9092 329.987 80.5204 332.401C72.1404 338.241 63.8203 345.151 58.6403 354.111C56.5414 357.72 55.2466 361.74 54.8444 365.896C54.4423 370.052 54.9423 374.246 56.3103 378.191C61.1503 392.111 78.0304 399.461 77.7804 415.431C77.6604 422.811 72.4603 429.431 64.9403 430.141C59.7603 430.611 50.3203 428.971 44.3803 422.741C44.3803 422.741 48.0703 410.331 38.6103 406.741C38.6103 406.741 32.7103 405.391 35.9103 412.401C39.1103 419.411 34.4503 418.401 34.4303 418.401C32.3757 418.077 30.5281 416.965 29.2792 415.302C28.0303 413.638 27.4783 411.554 27.7403 409.491C27.8203 408.241 28.8203 406.831 30.2503 406.991C30.8515 407.18 31.4624 407.337 32.0803 407.461C32.3549 407.451 32.6244 407.384 32.8722 407.266C33.1199 407.147 33.3406 406.978 33.5204 406.771C33.8529 406.416 34.1124 406 34.284 405.545C34.4555 405.09 34.5359 404.606 34.5204 404.121C34.2504 400.881 30.2404 399.701 27.5204 399.891C22.1304 400.261 18.0303 406.321 19.3003 411.421C19.611 412.562 20.04 413.668 20.5803 414.721C20.7403 415.061 21.5803 417.231 22.0003 417.231L20.2804 418.091C20.2804 418.091 12.8404 408.091 9.28036 410.781C3.88036 414.871 13.7603 420.461 14.0603 424.221C14.186 425.358 13.9292 426.505 13.3303 427.481C12.8303 428.231 11.5903 429.481 10.6003 429.301C8.71031 428.891 3.04032 424.421 1.43032 427.411C0.000324756 430.071 2.09032 433.311 8.36032 436.061C10.4703 436.981 12.6203 437.741 14.8003 438.471C17.5703 439.391 20.0603 440.951 22.7303 442.101C24.3603 442.811 26.0103 443.471 27.7303 444.101C32.0559 445.753 36.4614 447.188 40.9303 448.401C45.0496 449.554 49.2474 450.406 53.4903 450.951C55.4632 451.216 57.4499 451.366 59.4403 451.401C67.0603 451.401 74.9003 450.251 81.4403 446.221C88.9303 441.631 93.6504 434.011 95.7804 425.601C95.7804 425.381 95.8903 425.161 95.9403 424.941C98.1491 415.556 96.7424 405.685 92.0003 397.291C89.623 393.305 86.6021 389.74 83.0603 386.741C79.6303 383.741 75.8703 380.741 73.9903 376.391C72.4008 372.416 72.3084 367.999 73.7303 363.961C75.7303 357.741 79.8703 353.081 84.8703 349.381" stroke="#030D78" stroke-linejoin="round"/>
</svg>
