<svg width="171" height="135" viewBox="0 0 171 135" fill="none" xmlns="http://www.w3.org/2000/svg">
<path d="M87.8983 123.755C87.8983 123.755 83.7082 120.875 82.9331 123.306C82.9331 123.306 80.5029 132.408 82.3097 133.821C84.4621 132.276 86.2029 130.228 87.3797 127.854C87.3797 127.854 86.9687 125.054 87.9121 123.755" fill="#112AA5"/>
<path d="M82.5552 114.901C105.83 114.901 124.698 95.6683 124.698 71.9439C124.698 48.2195 105.83 28.9871 82.5552 28.9871C59.2802 28.9871 40.4121 48.2195 40.4121 71.9439C40.4121 95.6683 59.2802 114.901 82.5552 114.901Z" fill="#112AA5"/>
<path d="M81.1595 35.3452C81.1595 35.3452 78.5941 20.8883 83.1152 15.2474C83.1152 15.2474 84.1772 14.144 84.6765 16.1963V16.7011C84.6765 16.7011 81.4408 20.5629 81.8325 34.8404L81.1595 35.3452Z" fill="#112AA5"/>
<path d="M56.0776 106.482C50.136 110.3 42.2221 116.688 43.1655 119.797C43.5765 121.157 47.0659 125.465 74.7052 123.935C74.7052 123.935 76.0844 124.376 75.29 128.348C75.2679 128.458 75.0666 128.389 74.9535 128.398C70.9924 128.615 67.3687 128.724 64.0826 128.726C48.5251 128.726 40.4429 126.243 38.8789 121.088C36.6391 113.701 49.485 105.235 53.3606 102.882C53.3606 102.882 55.6997 105.089 56.5328 105.704L56.8831 105.98L56.0776 106.482Z" fill="#112AA5"/>
<path d="M81.841 34.763C81.841 34.763 79.1405 18.5628 84.2574 15.4541C84.2574 15.4541 84.8835 15.6086 84.7539 16.7009C84.7539 16.6981 81.5596 20.6951 81.841 34.763Z" fill="#112AA5"/>
<path d="M52.2017 1.02227C54.0581 0.489893 84.5386 9.55681 78.5142 22.5021C77.5809 23.0333 76.5313 23.3269 75.4579 23.3572C72.1229 23.4703 69.1135 21.5532 66.7413 19.3768C65.02 17.799 63.707 15.846 62.3747 13.951C60.4604 11.256 58.5129 8.57205 56.5296 5.93777C55.4176 4.40873 54.2204 2.94353 52.9437 1.54913C52.7313 1.3588 52.4941 1.05537 52.2017 1.02227Z" fill="#112AA5"/>
<path d="M41.9846 83.9677C41.8798 83.6919 39.6869 83.5457 39.3366 83.5098C38.3513 83.4091 37.3593 83.3925 36.3713 83.4602C34.4175 83.5676 32.5139 84.1185 30.8048 85.0711C28.9622 86.1413 27.7043 87.7826 26.5403 89.5287C25.3762 91.2747 24.3115 93.1836 24.0218 95.2579C23.6853 97.6798 24.8769 99.5886 27.103 100.546C32.1536 102.714 36.2913 100.138 37.3422 96.3751C38.2994 92.9436 34.719 89.8514 31.6433 89.4487C28.4657 89.0322 25.4617 90.6486 22.935 92.4057C20.6235 94.0166 18.3285 95.9227 16.8996 98.3942C16.3206 99.3898 15.9635 100.499 15.8525 101.645C15.7416 102.792 15.8795 103.948 16.2569 105.036C17.592 108.876 22.2482 110.904 22.1792 115.309C22.1461 117.345 20.7117 119.171 18.6374 119.366C17.2085 119.496 14.6046 119.044 12.9661 117.325C12.9661 117.325 13.984 113.902 11.3745 112.912C11.3745 112.912 9.74702 112.539 10.6297 114.473C11.5124 116.407 10.227 116.128 10.2215 116.128C9.65473 116.039 9.14508 115.732 8.80058 115.273C8.45608 114.814 8.30382 114.24 8.37609 113.67C8.39816 113.326 8.67401 112.937 9.06846 112.981C9.23427 113.033 9.40279 113.076 9.57325 113.11C9.64898 113.108 9.72333 113.089 9.79167 113.057C9.86001 113.024 9.92088 112.977 9.97047 112.92C10.0622 112.822 10.1338 112.707 10.1811 112.582C10.2284 112.457 10.2506 112.323 10.2463 112.189C10.1718 111.295 9.06571 110.97 8.31542 111.022C6.82863 111.124 5.69767 112.796 6.04799 114.203C6.13369 114.518 6.25203 114.823 6.40108 115.113C6.44521 115.207 6.67691 115.805 6.79277 115.805L6.31833 116.043C6.31833 116.043 4.26606 113.284 3.28407 114.026C1.79452 115.154 4.51983 116.696 4.60258 117.733C4.63725 118.047 4.5664 118.364 4.40122 118.633C4.2633 118.84 3.92125 119.184 3.64816 119.135C3.12682 119.022 1.56281 117.789 1.1187 118.613C0.724248 119.347 1.30075 120.241 3.03028 120.999C3.61231 121.253 4.20537 121.463 4.8067 121.664C5.57078 121.918 6.25763 122.348 6.99412 122.666C7.44375 122.861 7.89889 123.043 8.37333 123.217C9.56636 123.676 10.7816 124.074 12.0144 124.412C13.1507 124.73 14.3086 124.965 15.479 125.115C16.0232 125.188 16.5712 125.23 17.1203 125.239C19.2222 125.239 21.3848 124.922 23.1888 123.81C25.2548 122.544 26.5568 120.442 27.1444 118.122C27.1444 118.062 27.1747 118.001 27.1885 117.94C27.7978 115.352 27.4097 112.629 26.1017 110.313C25.4459 109.214 24.6126 108.231 23.6357 107.403C22.6895 106.576 21.6524 105.748 21.1338 104.548C20.6953 103.452 20.6698 102.233 21.062 101.12C22.1654 97.7129 25.5417 96.0137 28.6036 94.6814C29.8752 94.1297 32.4074 93.1891 33.017 95.1145C33.0921 95.3449 33.1019 95.5915 33.0454 95.8271C32.9889 96.0628 32.8683 96.2781 32.697 96.4495C32.5257 96.6208 32.3103 96.7414 32.0747 96.7979C31.839 96.8544 31.5924 96.8445 31.362 96.7695C29.6821 96.2868 29.4835 94.3476 30.0379 92.9464C31.6654 88.8336 35.9079 86.1855 43.1873 87.2392L41.9846 83.9677Z" fill="#112AA5"/>
<path d="M123.25 82.8811C123.363 82.5169 126.284 82.6825 126.56 82.699C129.056 82.8058 131.478 83.573 133.58 84.9223C135.837 86.4118 137.511 88.5993 138.626 91.0432C140.614 95.3932 140.609 100.717 143.649 104.559C145.436 106.816 148.393 108.145 151.08 106.598C152.219 105.939 153.234 104.758 153.286 103.39C153.336 102.226 153.179 100.356 151.659 100.262C151.379 100.254 151.099 100.293 150.831 100.378C150.807 100.383 150.785 100.393 150.765 100.408C150.742 100.429 150.727 100.457 150.721 100.488C150.481 101.208 150.266 101.933 150.087 102.673C149.849 103.653 149.665 104.646 149.535 105.646C149.377 106.835 149.322 108.034 149.37 109.232C149.413 110.482 149.629 111.72 150.009 112.912C150.41 114.202 151.101 115.383 152.028 116.365C152.956 117.347 154.096 118.104 155.361 118.578C156.237 118.919 157.147 119.166 158.075 119.317C158.075 119.317 160.064 119.226 160.334 118.865C160.605 118.503 161.057 115.847 162.817 116.305C162.817 116.305 164.293 116.628 162.817 118.338C161.341 120.048 164.767 119.717 164.767 119.717C164.919 119.639 165.052 119.529 165.156 119.394C165.261 119.26 165.336 119.104 165.374 118.938C165.413 118.772 165.415 118.599 165.38 118.432C165.345 118.265 165.274 118.108 165.172 117.971C164.461 116.821 164.866 116.244 165.581 116.343C166.295 116.443 168.394 118.55 166.53 120.685L166.935 121.328C166.935 121.328 169.997 119.689 170.336 121.113C170.676 122.536 167.578 123.463 167.578 123.463V124.773C167.578 124.773 169.956 124.119 170.361 125.325C170.767 126.53 167.305 126.591 167.305 126.591C160.45 126.726 152.718 126.663 147.494 121.458C146.372 120.358 145.458 119.064 144.796 117.64C142.863 113.347 142.633 108.48 144.153 104.024C145.257 100.714 147.077 96.9131 150.633 95.6277C154.445 94.2485 157.741 96.4414 159.065 100.041C159.537 101.359 159.816 102.737 159.893 104.135C160.114 107.574 158.905 110.81 155.799 112.542C152.316 114.473 148.175 114.355 144.344 113.897C144.344 113.897 136.75 112.995 136.662 98.8909C136.637 95.1781 135.442 91.3163 132.651 88.7455C131.107 87.3451 129.191 86.4207 127.134 86.0836C125.912 85.8712 122.96 85.4602 122.064 86.7042L123.25 82.8811Z" fill="#112AA5"/>
<path d="M81.1595 35.3452C81.1595 35.3452 78.5941 20.8883 83.1152 15.2474C83.1152 15.2474 84.1772 14.144 84.6765 16.1963V16.7011C84.6765 16.7011 81.4408 20.5629 81.8325 34.8404L81.1595 35.3452Z" fill="#112AA5" stroke="#030D78" stroke-width="0.275842" stroke-linecap="round" stroke-linejoin="round"/>
<path d="M78.4454 22.3505C78.4454 22.3505 70.0406 11.5927 52.9053 1.21826L78.4454 22.3505Z" fill="#112AA5"/>
<path d="M78.4454 22.3505C78.4454 22.3505 70.0406 11.5927 52.9053 1.21826" stroke="#030D78" stroke-width="0.275842" stroke-linecap="round" stroke-linejoin="round"/>
<path d="M80.459 25.1473C80.459 25.1473 80.3128 24.0881 78.4453 22.353L80.459 25.1473Z" fill="#112AA5"/>
<path d="M80.459 25.1473C80.459 25.1473 80.3128 24.0881 78.4453 22.353" stroke="#030D78" stroke-width="0.275842" stroke-linecap="round" stroke-linejoin="round"/>
<path d="M52.2788 1.02227C54.1352 0.489893 84.6157 9.55681 78.5913 22.5021C77.6579 23.033 76.6084 23.3266 75.535 23.3572C72.2001 23.4703 69.1907 21.5532 66.8184 19.3768C65.0972 17.799 63.7841 15.846 62.4518 13.951C60.5347 11.256 58.6039 8.57205 56.6068 5.93777C55.4948 4.40873 54.2976 2.94353 53.0208 1.54913C52.8084 1.3588 52.5712 1.05537 52.2788 1.02227Z" fill="#112AA5" stroke="#030D78" stroke-width="0.275842" stroke-linecap="round" stroke-linejoin="round"/>
<path d="M64.973 9.56512L63.9248 4.55859" stroke="#030D78" stroke-width="0.275842" stroke-linecap="round" stroke-linejoin="round"/>
<path d="M68.3414 12.318L67.2656 6.11987" stroke="#030D78" stroke-width="0.275842" stroke-linecap="round" stroke-linejoin="round"/>
<path d="M65.9746 18.5438L73.4913 17.2197" stroke="#030D78" stroke-width="0.275842" stroke-linecap="round" stroke-linejoin="round"/>
<path d="M82.9054 83.3831C80.8267 83.3668 78.791 82.7893 77.0135 81.7115C76.7511 81.5332 76.5684 81.2597 76.504 80.9491C76.4396 80.6384 76.4985 80.3149 76.6683 80.0469C76.8381 79.7789 77.1055 79.5875 77.4139 79.5131C77.7223 79.4387 78.0476 79.4871 78.321 79.6482C78.5306 79.7779 83.3909 82.7625 87.3851 79.2648C87.6312 79.0669 87.9442 78.9716 88.2588 78.999C88.5734 79.0263 88.8653 79.1741 89.0735 79.4116C89.2817 79.649 89.3902 79.9576 89.3763 80.2731C89.3623 80.5886 89.2271 80.8865 88.9988 81.1047C87.3203 82.5931 85.1487 83.4051 82.9054 83.3831Z" fill="#112AA5"/>
<path d="M82.9056 83.3803C80.8286 83.3677 78.7934 82.796 77.0136 81.7253C76.7396 81.5519 76.5457 81.2768 76.4746 80.9604C76.4035 80.6441 76.4609 80.3125 76.6343 80.0385C76.8077 79.7645 77.0828 79.5706 77.3991 79.4995C77.7155 79.4284 78.0471 79.4858 78.3211 79.6592C78.5307 79.7888 83.391 82.7734 87.3852 79.2758C87.6302 79.066 87.948 78.9613 88.2696 78.9843C88.5913 79.0074 88.8909 79.1565 89.1033 79.3991C89.3158 79.6417 89.424 79.9583 89.4044 80.2802C89.3849 80.6021 89.2392 80.9033 88.9989 81.1184C87.3182 82.6013 85.1468 83.4074 82.9056 83.3803Z" fill="#112AA5" stroke="#030D78" stroke-width="0.275842" stroke-linecap="round" stroke-linejoin="round"/>
<path d="M62.7144 77.0774C62.7144 77.0774 65.6879 82.1694 71.8364 77.6291L62.7144 77.0774Z" fill="#112AA5"/>
<path d="M62.7144 77.0774C62.7144 77.0774 65.6879 82.1694 71.8364 77.6291" stroke="#030D78" stroke-width="0.275842" stroke-linecap="round" stroke-linejoin="round"/>
<path d="M103.795 77.0774C103.795 77.0774 100.822 82.1694 94.6924 77.6291L103.795 77.0774Z" fill="#112AA5"/>
<path d="M103.795 77.0774C103.795 77.0774 100.822 82.1694 94.6924 77.6291" stroke="#030D78" stroke-width="0.275842" stroke-linecap="round" stroke-linejoin="round"/>
<path d="M64.7832 78.9641L63.5088 80.1971" stroke="#030D78" stroke-width="0.275842" stroke-linecap="round" stroke-linejoin="round"/>
<path d="M67.2739 79.5791V81.1735" stroke="#030D78" stroke-width="0.275842" stroke-linecap="round" stroke-linejoin="round"/>
<path d="M69.5303 78.9641L70.744 80.1971" stroke="#030D78" stroke-width="0.275842" stroke-linecap="round" stroke-linejoin="round"/>
<path d="M97.3764 79.1187L96.5186 80.3765" stroke="#030D78" stroke-width="0.275842" stroke-linecap="round" stroke-linejoin="round"/>
<path d="M99.9858 79.5791L100.386 81.1735" stroke="#030D78" stroke-width="0.275842" stroke-linecap="round" stroke-linejoin="round"/>
<path d="M104.25 79.1186L102.722 78.2966" stroke="#030D78" stroke-width="0.275842" stroke-linecap="round" stroke-linejoin="round"/>
<path d="M77.6704 80.8425C77.6704 80.8425 83.2976 84.2022 87.9096 80.3735L77.6704 80.8425Z" fill="#112AA5"/>
<path d="M77.6704 80.8425C77.6704 80.8425 83.2976 84.2022 87.9096 80.3735" stroke="#030D78" stroke-width="0.275842" stroke-linecap="round" stroke-linejoin="round"/>
<path d="M56.1435 106.482C50.2047 110.294 42.2825 116.669 43.2314 119.791C43.6424 121.151 47.1318 125.46 74.7711 123.929C74.7711 123.929 76.1503 124.37 75.3587 128.342C75.3366 128.453 75.1325 128.384 75.0194 128.392C71.0583 128.609 67.4347 128.718 64.1485 128.72C48.591 128.72 40.5088 126.238 38.9448 121.082C36.705 113.695 49.5509 105.23 53.4265 102.877C53.4265 102.877 55.7656 105.083 56.5987 105.699L56.949 105.974L56.1435 106.482Z" fill="#112AA5" stroke="#030D78" stroke-width="0.275842" stroke-linecap="round" stroke-linejoin="round"/>
<path d="M74.771 123.935C74.771 123.935 78.7321 121.055 79.5237 123.485C79.5237 123.485 81.9539 132.588 80.1471 134C78.0591 132.649 76.3938 130.737 75.342 128.483C75.342 128.483 76.095 124.654 74.771 123.935Z" fill="#112AA5"/>
<path d="M74.771 123.935C74.771 123.935 78.7321 121.055 79.5237 123.485C79.5237 123.485 81.9539 132.588 80.1471 134C78.0591 132.649 76.3938 130.737 75.342 128.483C75.342 128.483 76.095 124.654 74.771 123.935Z" fill="#112AA5" stroke="#030D78" stroke-width="0.275842" stroke-linecap="round" stroke-linejoin="round"/>
<path d="M87.8983 123.755C87.8983 123.755 83.7082 120.875 82.9331 123.306C82.9331 123.306 80.5029 132.408 82.3097 133.821C84.4621 132.276 86.2029 130.228 87.3797 127.854C87.3797 127.854 86.9687 125.054 87.9121 123.755" fill="#112AA5"/>
<path d="M87.8983 123.755C87.8983 123.755 83.7082 120.875 82.9331 123.306C82.9331 123.306 80.5029 132.408 82.3097 133.821C84.4621 132.276 86.2029 130.228 87.3797 127.854C87.3797 127.854 86.9687 125.054 87.9121 123.755" stroke="#030D78" stroke-width="0.275842" stroke-linecap="round" stroke-linejoin="round"/>
<path d="M43.1626 87.0295L43.1902 87.1068" stroke="#030D78" stroke-width="0.275842" stroke-linecap="round" stroke-linejoin="round"/>
<path d="M43.1626 87.0295L43.1902 87.1068" stroke="#030D78" stroke-width="0.275842" stroke-linecap="round" stroke-linejoin="round"/>
<path d="M123.25 82.7928C123.931 82.6307 124.636 82.5933 125.33 82.6825C125.33 82.6825 124.599 85.1209 125.154 85.8326C125.154 85.8326 123.143 85.6919 122.257 86.4587L123.25 82.7928Z" fill="#112AA5"/>
<path d="M96.9379 112.275C105.086 109.132 112.089 103.59 117.02 96.382C121.952 89.1739 124.579 80.6388 124.555 71.9053C124.555 49.9207 108.471 31.8641 87.6421 29.0974C87.6421 29.0974 121.993 40.5504 120.056 72.2915C118.12 104.033 96.9379 112.275 96.9379 112.275Z" fill="#112AA5"/>
<path d="M80.492 28.9235C58.1985 30.0269 40.4619 48.8227 40.4619 71.8555C40.4619 95.5944 59.3074 114.837 82.5553 114.837C105.803 114.837 124.649 95.5944 124.649 71.8555C124.649 48.1166 105.801 28.8711 82.5553 28.8711C82.3319 28.8711 82.1085 28.8711 81.8878 28.8711" fill="#112AA5"/>
<path d="M80.492 28.9235C58.1985 30.0269 40.4619 48.8227 40.4619 71.8555C40.4619 95.5944 59.3074 114.837 82.5553 114.837C105.803 114.837 124.649 95.5944 124.649 71.8555C124.649 48.1166 105.801 28.8711 82.5553 28.8711C82.3319 28.8711 82.1085 28.8711 81.8878 28.8711" stroke="#030D78" stroke-width="0.275842" stroke-linecap="round" stroke-linejoin="round"/>
<path d="M87.413 127.92C86.9193 125.162 87.8985 123.755 87.8985 123.755C115.538 125.286 119.587 120.9 119.998 119.54C120.931 116.473 113.378 110.324 107.489 106.49C107.489 106.49 109.331 105.025 109.53 104.854C109.729 104.683 111.105 103.442 111.105 103.442C115.907 106.523 126.329 114.101 124.288 120.839C122.724 125.998 114.633 128.478 99.0839 128.478C95.8483 128.478 91.3052 128.135 87.413 127.926" fill="#112AA5"/>
<path d="M107.566 106.529C107.478 106.529 111.218 103.588 111.088 103.448C110.959 103.307 114.021 105.467 114.057 105.445C114.092 105.423 110.746 105.997 110.882 108.727L107.566 106.529Z" fill="#112AA5"/>
<path d="M87.413 127.92C86.9193 125.162 87.8985 123.755 87.8985 123.755C115.538 125.286 119.587 120.9 119.998 119.54C120.931 116.473 113.378 110.324 107.489 106.49C107.489 106.49 109.331 105.025 109.53 104.854C109.729 104.683 111.105 103.442 111.105 103.442C115.907 106.523 126.329 114.101 124.288 120.839C122.724 125.998 114.633 128.478 99.0839 128.478C95.8483 128.478 91.3052 128.135 87.413 127.926" fill="#112AA5"/>
<path d="M87.413 127.92C86.9193 125.162 87.8985 123.755 87.8985 123.755C115.538 125.286 119.587 120.9 119.998 119.54C120.931 116.473 113.378 110.324 107.489 106.49C107.489 106.49 109.331 105.025 109.53 104.854C109.729 104.683 111.105 103.442 111.105 103.442C115.907 106.523 126.329 114.101 124.288 120.839C122.724 125.998 114.633 128.478 99.0839 128.478C95.8483 128.478 91.3052 128.135 87.413 127.926" stroke="#030D78" stroke-width="0.275842" stroke-linecap="round" stroke-linejoin="round"/>
<path d="M152.007 105.93C152.007 105.93 151.77 112.242 156.972 111.742C156.972 111.742 154.964 113.698 150.503 114.082C150.503 114.082 149.064 110.716 149.4 107.213C149.414 107.202 151.207 106.882 152.007 105.93Z" fill="#112AA5"/>
<path d="M153.069 101.379C153.097 101.451 156.545 97.7627 158.735 99.1364L158.459 98.6729C158.459 98.6729 155.546 94.8498 150.799 100.402C150.793 100.414 152.479 99.768 153.069 101.379Z" fill="#112AA5"/>
<path d="M143.632 113.693C141.735 113.05 136.736 110.28 136.676 98.8688C136.651 95.156 135.456 91.2942 132.665 88.7234C131.121 87.323 129.205 86.3986 127.148 86.0615C125.926 85.8491 122.975 85.4381 122.078 86.6821L123.25 82.8811C123.364 82.5169 126.285 82.6825 126.561 82.699C129.056 82.8058 131.479 83.573 133.581 84.9223C135.837 86.4118 137.511 88.5993 138.626 91.0432C140.615 95.3932 140.609 100.717 143.649 104.559C143.748 104.685 143.85 104.806 143.955 104.924" fill="#112AA5"/>
<path d="M143.632 113.693C141.735 113.05 136.736 110.28 136.676 98.8688C136.651 95.156 135.456 91.2942 132.665 88.7234C131.121 87.323 129.205 86.3986 127.148 86.0615C125.926 85.8491 122.975 85.4381 122.078 86.6821L123.25 82.8811C123.364 82.5169 126.285 82.6825 126.561 82.699C129.056 82.8058 131.479 83.573 133.581 84.9223C135.837 86.4118 137.511 88.5993 138.626 91.0432C140.615 95.3932 140.609 100.717 143.649 104.559C143.748 104.685 143.85 104.806 143.955 104.924" stroke="#030D78" stroke-width="0.275842" stroke-linejoin="round"/>
<path d="M149.336 107.213C149.957 107.121 150.553 106.91 151.094 106.592C152.233 105.933 153.248 104.752 153.3 103.384C153.35 102.22 153.193 100.35 151.673 100.256C151.393 100.249 151.113 100.288 150.845 100.372C150.821 100.377 150.799 100.387 150.779 100.402C150.756 100.424 150.741 100.452 150.735 100.482C150.495 101.202 150.28 101.928 150.101 102.667C149.863 103.648 149.679 104.64 149.549 105.641C149.391 106.829 149.336 108.029 149.383 109.227C149.427 110.477 149.643 111.715 150.023 112.906C150.424 114.196 151.115 115.378 152.042 116.36C152.97 117.342 154.11 118.098 155.375 118.572C156.251 118.913 157.161 119.161 158.089 119.311C158.089 119.311 160.078 119.22 160.348 118.859C160.618 118.498 161.071 115.841 162.831 116.299C162.831 116.299 164.306 116.622 162.831 118.332C161.355 120.042 164.781 119.711 164.781 119.711C164.933 119.633 165.065 119.523 165.17 119.389C165.275 119.254 165.349 119.098 165.388 118.932C165.427 118.766 165.429 118.593 165.394 118.427C165.359 118.26 165.288 118.102 165.186 117.965C164.475 116.815 164.88 116.238 165.595 116.338C166.309 116.437 168.408 118.545 166.543 120.68L166.949 121.322C166.949 121.322 170.011 119.684 170.35 121.107C170.689 122.53 167.592 123.457 167.592 123.457V124.767C167.592 124.767 169.969 124.114 170.375 125.319C170.78 126.525 167.319 126.585 167.319 126.585C160.464 126.72 152.732 126.657 147.508 121.452C146.386 120.352 145.472 119.059 144.81 117.634C142.877 113.341 142.647 108.474 144.167 104.019C145.271 100.709 147.091 96.9075 150.647 95.6221C154.459 94.2429 157.755 96.4358 159.079 100.036C159.551 101.353 159.83 102.732 159.907 104.129C160.127 107.569 158.919 110.804 155.813 112.537C154.13 113.439 152.274 113.972 150.368 114.101" fill="#112AA5"/>
<path d="M149.336 107.213C149.957 107.121 150.553 106.91 151.094 106.592C152.233 105.933 153.248 104.752 153.3 103.384C153.35 102.22 153.193 100.35 151.673 100.256C151.393 100.249 151.113 100.288 150.845 100.372C150.821 100.377 150.799 100.387 150.779 100.402C150.756 100.424 150.741 100.452 150.735 100.482C150.495 101.202 150.28 101.928 150.101 102.667C149.863 103.648 149.679 104.64 149.549 105.641C149.391 106.829 149.336 108.029 149.383 109.227C149.427 110.477 149.643 111.715 150.023 112.906C150.424 114.196 151.115 115.378 152.042 116.36C152.97 117.342 154.11 118.098 155.375 118.572C156.251 118.913 157.161 119.161 158.089 119.311C158.089 119.311 160.078 119.22 160.348 118.859C160.618 118.498 161.071 115.841 162.831 116.299C162.831 116.299 164.306 116.622 162.831 118.332C161.355 120.042 164.781 119.711 164.781 119.711C164.933 119.633 165.065 119.523 165.17 119.389C165.275 119.254 165.349 119.098 165.388 118.932C165.427 118.766 165.429 118.593 165.394 118.427C165.359 118.26 165.288 118.102 165.186 117.965C164.475 116.815 164.88 116.238 165.595 116.338C166.309 116.437 168.408 118.545 166.543 120.68L166.949 121.322C166.949 121.322 170.011 119.684 170.35 121.107C170.689 122.53 167.592 123.457 167.592 123.457V124.767C167.592 124.767 169.969 124.114 170.375 125.319C170.78 126.525 167.319 126.585 167.319 126.585C160.464 126.72 152.732 126.657 147.508 121.452C146.386 120.352 145.472 119.059 144.81 117.634C142.877 113.341 142.647 108.474 144.167 104.019C145.271 100.709 147.091 96.9075 150.647 95.6221C154.459 94.2429 157.755 96.4358 159.079 100.036C159.551 101.353 159.83 102.732 159.907 104.129C160.127 107.569 158.919 110.804 155.813 112.537C154.13 113.439 152.274 113.972 150.368 114.101" stroke="#030D78" stroke-width="0.275842" stroke-linejoin="round"/>
<path d="M150.793 100.413C150.793 100.413 154.74 95.0539 158.453 98.6839L150.793 100.413Z" fill="#112AA5"/>
<path d="M150.793 100.413C150.793 100.413 154.74 95.0539 158.453 98.6839" stroke="#030D78" stroke-width="0.275842" stroke-linejoin="round"/>
<path d="M32.5037 94.3147C32.5037 94.3147 32.4817 91.0046 34.9449 90.7922C34.9449 90.7922 32.9892 89.4764 32.2858 89.5702C32.2858 89.5702 29.6543 92.3286 29.8777 94.1988C29.8777 94.1988 32.0403 93.6582 32.5037 94.3147Z" fill="#112AA5"/>
<path d="M29.7206 94.2483C31.0033 93.8346 32.5618 93.6525 33.0307 95.109C33.1058 95.3393 33.1156 95.586 33.0591 95.8216C33.0026 96.0572 32.882 96.2726 32.7107 96.444C32.5394 96.6153 32.324 96.7359 32.0884 96.7924C31.8527 96.8488 31.6061 96.839 31.3757 96.764C29.6958 96.2813 29.4972 94.3421 30.0517 92.9408C31.6791 88.828 35.9216 86.18 43.201 87.2337C43.201 87.2337 42.0977 83.9594 42.0977 83.9567C41.9928 83.6808 39.7006 83.5457 39.3392 83.5098C38.354 83.4091 37.362 83.3925 36.3739 83.4602C34.4202 83.5676 32.5166 84.1185 30.8075 85.0711C28.9648 86.1413 27.707 87.7826 26.5429 89.5287C25.3789 91.2747 24.3142 93.1836 24.0245 95.2579C23.688 97.6798 24.8796 99.5886 27.1057 100.546C32.1563 102.714 36.2939 100.138 37.3449 96.3751C38.2359 93.1808 35.1933 90.279 32.2887 89.5701" fill="#112AA5"/>
<path d="M29.7206 94.2483C31.0033 93.8346 32.5618 93.6525 33.0307 95.109C33.1058 95.3393 33.1156 95.586 33.0591 95.8216C33.0026 96.0572 32.882 96.2726 32.7107 96.444C32.5394 96.6153 32.324 96.7359 32.0884 96.7924C31.8527 96.8488 31.6061 96.839 31.3757 96.764C29.6958 96.2813 29.4972 94.3421 30.0517 92.9408C31.6791 88.828 35.9216 86.18 43.201 87.2337C43.201 87.2337 42.0977 83.9594 42.0977 83.9567C41.9928 83.6808 39.7006 83.5457 39.3392 83.5098C38.354 83.4091 37.362 83.3925 36.3739 83.4602C34.4202 83.5676 32.5166 84.1185 30.8075 85.0711C28.9648 86.1413 27.707 87.7826 26.5429 89.5287C25.3789 91.2747 24.3142 93.1836 24.0245 95.2579C23.688 97.6798 24.8796 99.5886 27.1057 100.546C32.1563 102.714 36.2939 100.138 37.3449 96.3751C38.2359 93.1808 35.1933 90.279 32.2887 89.5701" stroke="#030D78" stroke-width="0.275842" stroke-linejoin="round"/>
<path d="M25.8755 90.6321C24.8527 91.1526 23.8698 91.7482 22.935 92.414C20.6235 94.0249 18.3285 95.931 16.8996 98.4025C16.3206 99.3982 15.9635 100.507 15.8525 101.653C15.7416 102.8 15.8795 103.957 16.2569 105.045C17.592 108.885 22.2482 110.912 22.1792 115.317C22.1461 117.353 20.7117 119.179 18.6374 119.375C17.2085 119.504 14.6046 119.052 12.9661 117.334C12.9661 117.334 13.984 113.91 11.3745 112.92C11.3745 112.92 9.74702 112.548 10.6297 114.481C11.5124 116.415 10.227 116.136 10.2215 116.136C9.65473 116.047 9.14508 115.74 8.80058 115.282C8.45608 114.823 8.30382 114.248 8.37609 113.679C8.39816 113.334 8.67401 112.945 9.06846 112.989C9.23427 113.041 9.40279 113.085 9.57325 113.119C9.64898 113.116 9.72333 113.098 9.79167 113.065C9.86001 113.032 9.92088 112.986 9.97047 112.928C10.0622 112.831 10.1338 112.716 10.1811 112.59C10.2284 112.465 10.2506 112.331 10.2463 112.197C10.1718 111.304 9.06571 110.978 8.31542 111.031C6.82863 111.133 5.69767 112.804 6.04799 114.211C6.13369 114.526 6.25203 114.831 6.40108 115.121C6.44521 115.215 6.67691 115.814 6.79277 115.814L6.31833 116.051C6.31833 116.051 4.26606 113.292 3.28407 114.034C1.79452 115.163 4.51983 116.705 4.60258 117.742C4.63725 118.056 4.5664 118.372 4.40122 118.641C4.2633 118.848 3.92125 119.193 3.64816 119.143C3.12682 119.03 1.56281 117.797 1.1187 118.622C0.724248 119.355 1.30075 120.249 3.03028 121.008C3.61231 121.262 4.20537 121.471 4.8067 121.673C5.57078 121.926 6.25763 122.357 6.99412 122.674C7.44375 122.87 7.89889 123.052 8.37333 123.226C9.56651 123.681 10.7817 124.077 12.0144 124.412C13.1507 124.73 14.3086 124.965 15.479 125.115C16.0232 125.188 16.5712 125.23 17.1203 125.239C19.2222 125.239 21.3848 124.922 23.1888 123.81C25.2548 122.544 26.5568 120.442 27.1444 118.122C27.1444 118.062 27.1747 118.001 27.1885 117.94C27.7978 115.352 27.4097 112.629 26.1017 110.313C25.4459 109.214 24.6126 108.231 23.6357 107.403C22.6895 106.576 21.6524 105.748 21.1338 104.548C20.6953 103.452 20.6698 102.233 21.062 101.12C21.6137 99.4038 22.7557 98.1184 24.1349 97.0978" fill="#112AA5"/>
<path d="M25.8755 90.6321C24.8527 91.1526 23.8698 91.7482 22.935 92.414C20.6235 94.0249 18.3285 95.931 16.8996 98.4025C16.3206 99.3982 15.9635 100.507 15.8525 101.653C15.7416 102.8 15.8795 103.957 16.2569 105.045C17.592 108.885 22.2482 110.912 22.1792 115.317C22.1461 117.353 20.7117 119.179 18.6374 119.375C17.2085 119.504 14.6046 119.052 12.9661 117.334C12.9661 117.334 13.984 113.91 11.3745 112.92C11.3745 112.92 9.74702 112.548 10.6297 114.481C11.5124 116.415 10.227 116.136 10.2215 116.136C9.65473 116.047 9.14508 115.74 8.80058 115.282C8.45608 114.823 8.30382 114.248 8.37609 113.679C8.39816 113.334 8.67401 112.945 9.06846 112.989C9.23427 113.041 9.40279 113.085 9.57325 113.119C9.64898 113.116 9.72333 113.098 9.79167 113.065C9.86001 113.032 9.92088 112.986 9.97047 112.928C10.0622 112.831 10.1338 112.716 10.1811 112.59C10.2284 112.465 10.2506 112.331 10.2463 112.197C10.1718 111.304 9.06571 110.978 8.31542 111.031C6.82863 111.133 5.69767 112.804 6.04799 114.211C6.13369 114.526 6.25203 114.831 6.40108 115.121C6.44521 115.215 6.67691 115.814 6.79277 115.814L6.31833 116.051C6.31833 116.051 4.26606 113.292 3.28407 114.034C1.79452 115.163 4.51983 116.705 4.60258 117.742C4.63725 118.056 4.5664 118.372 4.40122 118.641C4.2633 118.848 3.92125 119.193 3.64816 119.143C3.12682 119.03 1.56281 117.797 1.1187 118.622C0.724248 119.355 1.30075 120.249 3.03028 121.008C3.61231 121.262 4.20537 121.471 4.8067 121.673C5.57078 121.926 6.25763 122.357 6.99412 122.674C7.44375 122.87 7.89889 123.052 8.37333 123.226C9.56651 123.681 10.7817 124.077 12.0144 124.412C13.1507 124.73 14.3086 124.965 15.479 125.115C16.0232 125.188 16.5712 125.23 17.1203 125.239C19.2222 125.239 21.3848 124.922 23.1888 123.81C25.2548 122.544 26.5568 120.442 27.1444 118.122C27.1444 118.062 27.1747 118.001 27.1885 117.94C27.7978 115.352 27.4097 112.629 26.1017 110.313C25.4459 109.214 24.6126 108.231 23.6357 107.403C22.6895 106.576 21.6524 105.748 21.1338 104.548C20.6953 103.452 20.6698 102.233 21.062 101.12C21.6137 99.4038 22.7557 98.1184 24.1349 97.0978" stroke="#030D78" stroke-width="0.275842" stroke-linejoin="round"/>
</svg>
