<svg width="215" height="105" viewBox="0 0 215 105" fill="none" xmlns="http://www.w3.org/2000/svg">
<path d="M185.454 -47.8982L156.894 41.5242C153.559 52.0389 147.062 61.2692 138.29 67.9568C129.518 74.6443 118.896 78.4637 107.874 78.8942C-0.634129 82.961 17.2168 -16.4268 24.8466 -45.848C24.8532 -45.8031 85.1863 -61.3521 185.454 -47.8982Z" fill="white"/>
<path d="M35.4202 -52.8544L37.631 -37.8867C61.3996 -41.3974 109.459 -45.8193 175.561 -38.6675L147.73 48.5519C145.548 55.3842 141.506 61.4738 136.058 66.1386C130.609 70.8034 123.97 73.8592 116.883 74.9636C115.925 75.1051 114.937 75.251 113.947 75.2749C78.5455 77.6896 53.3853 70.2258 39.1711 53.1004C18.2553 27.8802 23.4818 -14.7061 27.9646 -36.3366C30.6156 -36.8199 33.8547 -37.3595 37.6266 -37.9166L35.4158 -52.8843L35.4202 -52.8544ZM35.4158 -52.8843C22.349 -50.9543 15.4249 -49.1669 15.4249 -49.1669C6.72344 -15.6109 -13.8429 99.151 114.968 90.3724C116.363 90.2887 117.732 90.1324 119.094 89.9312C128.994 88.4258 138.274 84.1783 145.884 77.6698C153.494 71.1613 159.13 62.6519 162.152 53.1053L195.532 -51.5279C119.074 -61.7996 63.1958 -56.9875 35.4158 -52.8843Z" fill="#030D78"/>
</svg>




