<svg width="250" height="281" viewBox="0 0 250 281" fill="none" xmlns="http://www.w3.org/2000/svg">
<path d="M171.682 29.9136C171.682 29.9136 169.934 61.7057 165.298 75.4506C164.765 77.257 163.926 78.9581 162.816 80.4792L158.953 73.2954C158.953 73.2954 171.227 42.4053 157.589 27.7983L171.682 29.9136Z" fill="#02A9B2"/>
<path d="M130.082 37.0417C137.032 82.7703 154.301 73.7587 154.301 73.7587C172.943 57.7389 130.082 37.0417 130.082 37.0417Z" fill="#02A9B2"/>
<path d="M73.1191 224.195L79.5033 217.474L83.2061 221.233L77.4923 227.236L73.1191 224.195Z" fill="#77FF72"/>
<path d="M173.065 239.44L172.115 231.242L177.925 230.237L178.356 239.751L173.065 239.44Z" fill="#77FF72"/>
<path d="M79.9 235.026C79.9 235.217 79.9 235.417 79.9 235.609C79.9 235.609 78.3518 240.581 74.4415 241.563C74.4415 241.563 74.7847 247.23 69.007 248.228C69.007 248.228 71.8879 250.854 69.9487 256.529C69.9487 256.529 76.269 259.858 72.9812 266.467C72.9812 266.467 68.8155 270.609 63.6044 265.014C63.6044 265.014 45.1622 249.002 46.048 246.201L65.1207 224.793C65.1207 224.793 69.4459 223.245 73.4041 224.386C75.167 224.869 76.7107 225.942 77.7773 227.427C78.9663 229.087 79.8122 231.53 79.9 235.026Z" fill="#02A9B2"/>
<path d="M193.945 276.045C193.945 276.045 192.413 281.728 185.095 279.469C185.095 279.469 161.115 274.848 160.492 271.982L166.302 243.886C168.124 241.832 170.46 240.301 173.069 239.448C174.811 238.931 176.678 239.036 178.352 239.743C180.307 240.541 182.294 242.265 184.209 245.33C184.305 245.49 184.409 245.65 184.505 245.833C184.505 245.833 185.654 250.902 182.757 253.704C182.757 253.704 185.877 258.493 181.384 262.212C181.384 262.212 185.175 263.01 186.348 268.925C186.356 268.965 193.482 268.67 193.945 276.045Z" fill="#02A9B2"/>
<path d="M78.3575 108.727C90.639 60.5564 23.4298 83.9834 28.0344 22.714C28.0344 22.714 24.5231 -32.9361 0 -33" stroke="#0200B2" stroke-width="17.3588" stroke-miterlimit="10" stroke-linecap="round"/>
<path d="M87.8489 87.0088C87.8489 87.0088 80.4034 85.1091 78.3366 91.798C76.2697 98.4869 46.2482 167.291 60.7163 174.89C75.1844 182.489 114.184 196.864 114.184 196.864C114.184 196.864 120.328 198.868 125.994 186.28C131.66 173.693 146.743 116.837 146.743 116.837C146.743 116.837 148.618 110.452 143.622 107.171C138.627 103.891 87.8489 87.0088 87.8489 87.0088Z" fill="white" stroke="#0200B2" stroke-width="1.92875" stroke-miterlimit="10"/>
<path d="M247.098 202.898C250.872 213.363 245.143 210.441 245.143 210.441C243.076 202.3 240.458 206.011 240.458 206.011C243.411 219.245 236.939 215.805 236.939 215.805C235.798 205.54 232.43 208.725 232.43 208.725C230.204 222.175 227.059 215.542 227.059 215.542C229.789 197.423 213.493 167.323 213.493 167.323C213.764 164.8 213.996 162.334 214.132 159.939C236.692 167.73 247.098 202.898 247.098 202.898Z" fill="#77FF72"/>
<path d="M165.569 74.7968C180.731 80.871 217.711 101.736 214.088 159.836C213.952 162.231 213.713 164.681 213.442 167.204C213.338 167.938 213.25 168.68 213.154 169.447C213.154 169.447 205.597 204.623 177.419 218.623L178.664 229.487L169.806 231.027L168.162 221.545C168.162 221.545 130.799 246.289 92.6296 217.737L85.7108 222.846L83.7477 220.85L80.0688 217.107L77.4912 214.481L83.205 212.19C77.0676 200.657 72.8468 188.202 70.7081 175.313C69.3846 167.474 69.1804 159.487 70.1016 151.591C75.967 150.178 81.7526 148.015 70.8996 146.467C72.2239 139.643 74.6812 133.09 78.1695 127.078C86.5008 112.895 95.9175 101.848 105.957 93.5064C117.367 83.8537 131.023 77.2299 145.666 74.246C150.007 76.888 153.518 75.8903 153.518 75.8903C154.969 75.0368 156.275 73.9592 157.389 72.6975C158.003 72.6496 158.626 72.6097 159.224 72.5938L163.071 79.7296C164.184 78.2432 165.029 76.5738 165.569 74.7968ZM194.042 136.034C189.98 112.631 166.167 97.218 140.846 101.616C115.525 106.014 98.3115 128.555 102.373 151.958C106.435 175.361 130.264 190.782 155.569 186.384C180.875 181.986 198.104 159.405 194.042 136.002V136.034Z" fill="white"/>
<path d="M140.837 101.584C166.158 97.1855 189.971 112.599 194.033 136.002C198.095 159.405 180.882 181.954 155.569 186.352C130.255 190.75 106.435 175.337 102.373 151.926C98.3108 128.515 115.532 105.982 140.837 101.584ZM165.64 159.556C166.107 159.218 166.503 158.79 166.803 158.298C167.104 157.805 167.303 157.257 167.39 156.687C167.477 156.116 167.45 155.534 167.309 154.975C167.169 154.415 166.919 153.888 166.573 153.426C165.911 152.536 164.941 151.924 163.852 151.71C163.26 151.599 162.651 151.613 162.064 151.751C161.478 151.888 160.926 152.146 160.445 152.508C155.321 156.268 146.08 152.876 142.968 151.263C141.936 150.723 140.732 150.616 139.621 150.964C138.51 151.312 137.582 152.087 137.043 153.119C136.503 154.151 136.395 155.355 136.743 156.467C137.091 157.578 137.866 158.506 138.898 159.046C139.608 159.405 155.098 167.387 165.64 159.556Z" fill="#77FF72"/>
<path d="M166.58 153.427C166.925 153.889 167.175 154.415 167.316 154.975C167.456 155.535 167.483 156.117 167.396 156.687C167.309 157.258 167.11 157.805 166.809 158.298C166.509 158.791 166.113 159.218 165.646 159.557C155.104 167.395 139.591 159.397 138.904 159.054C137.873 158.514 137.097 157.586 136.749 156.475C136.401 155.363 136.509 154.159 137.049 153.127C137.589 152.095 138.516 151.32 139.627 150.972C140.738 150.624 141.942 150.732 142.974 151.271C146.102 152.868 155.328 156.276 160.451 152.517C160.932 152.154 161.484 151.896 162.071 151.759C162.657 151.621 163.266 151.608 163.858 151.718C164.946 151.931 165.916 152.539 166.58 153.427Z" fill="#00FFD7"/>
<path d="M70.4544 146.53C81.3474 148.126 75.5378 150.265 69.6564 151.678C66.0972 152.532 62.4742 153.099 62.4742 153.099C62.4742 153.099 60.7585 154.615 58.149 157.146C50.6715 164.457 35.8044 180.293 33.0433 193.623C33.0433 193.623 27.7843 198.78 30.3619 185.378C30.3619 185.378 28.3031 181.227 23.6825 190.438C23.6825 190.438 16.4206 191.412 23.7703 180.062C23.7703 180.062 22.5972 175.664 17.841 182.568C17.841 182.568 11.4569 183.327 18.639 174.826C18.639 174.826 38.8608 147.751 61.6044 146.043C63.2627 145.919 64.9284 145.935 66.584 146.091C68.0683 146.218 69.3452 146.386 70.4544 146.53Z" fill="#77FF72"/>
<path d="M73.4219 104.609C73.4219 104.609 79.3591 111.968 87.874 112.048" stroke="#0200B2" stroke-width="1.92875" stroke-miterlimit="10"/>
<path d="M171.682 29.9136C171.682 29.9136 169.934 61.7057 165.298 75.4506C164.765 77.257 163.926 78.9581 162.816 80.4792L158.953 73.2954C158.953 73.2954 171.227 42.4053 157.589 27.7983L171.682 29.9136Z" stroke="#0200B2" stroke-width="1.92875" stroke-miterlimit="10"/>
<path d="M177.802 230.109C178.089 233.302 178.241 236.67 178.297 239.44C176.618 238.741 174.752 238.637 173.006 239.144C172.942 236.75 172.543 233.781 172.304 231.059L177.802 230.109Z" stroke="#0200B2" stroke-width="1.92875" stroke-miterlimit="10"/>
<path d="M193.945 276.045C193.945 276.045 192.413 281.728 185.095 279.469C185.095 279.469 161.115 274.848 160.492 271.982L166.302 243.886C168.124 241.832 170.46 240.301 173.069 239.448C174.811 238.931 176.678 239.036 178.352 239.743V239.743C180.307 240.541 182.294 242.265 184.209 245.33C184.305 245.49 184.409 245.65 184.505 245.833C184.505 245.833 185.654 250.902 182.757 253.704C182.757 253.704 185.877 258.493 181.384 262.212C181.384 262.212 185.175 263.01 186.348 268.925C186.356 268.965 193.482 268.67 193.945 276.045Z" stroke="#0200B2" stroke-width="1.92875" stroke-miterlimit="10"/>
<path d="M179.904 154.02C182.501 153.569 184.224 151.003 183.752 148.288C183.281 145.574 180.794 143.739 178.197 144.19C175.601 144.641 173.878 147.207 174.349 149.922C174.82 152.636 177.307 154.471 179.904 154.02Z" fill="#0200B2"/>
<path d="M120.651 141.214C121.621 141.005 122.633 141.09 123.554 141.46C124.476 141.83 125.266 142.467 125.823 143.289C126.38 144.111 126.679 145.081 126.68 146.074C126.682 147.068 126.387 148.039 125.833 148.863C125.278 149.687 124.49 150.327 123.57 150.699C122.649 151.072 121.639 151.161 120.667 150.955C119.696 150.749 118.808 150.257 118.118 149.542C117.429 148.828 116.968 147.923 116.796 146.945C116.548 145.674 116.814 144.356 117.537 143.281C118.26 142.207 119.38 141.463 120.651 141.214Z" fill="#0200B2"/>
<path d="M83.478 221.273L85.4491 223.269L92.3919 218.136C130.697 246.791 168.204 221.968 168.204 221.968L169.856 231.49L178.714 229.942L177.461 219.038C205.742 204.982 213.372 169.678 213.372 169.678C213.467 168.88 213.547 168.169 213.651 167.419" stroke="#0200B2" stroke-width="1.92875" stroke-miterlimit="10"/>
<path d="M69.7697 151.782C68.8563 159.709 69.0685 167.725 70.4001 175.592C72.551 188.526 76.7907 201.024 82.9529 212.597L77.2232 214.895L79.7609 217.514" stroke="#0200B2" stroke-width="1.92875" stroke-miterlimit="10"/>
<path d="M214.28 160.036C217.927 101.72 180.827 80.7911 165.601 74.6849C165.074 76.4921 164.237 78.1938 163.127 79.7135L159.256 72.5298C158.658 72.5298 158.043 72.5777 157.429 72.6335C156.306 73.8926 154.995 74.9697 153.542 75.8263C153.542 75.8263 150.007 76.8321 145.642 74.1661C130.953 77.1721 117.257 83.8256 105.813 93.5143C95.718 101.879 86.2774 112.958 77.8823 127.206C74.3814 133.228 71.9159 139.796 70.5884 146.634" stroke="#0200B2" stroke-width="1.92875" stroke-miterlimit="10"/>
<path d="M156.071 186.101C181.383 181.705 198.608 159.168 194.545 135.761C190.482 112.355 166.669 96.9442 141.357 101.34C116.046 105.736 98.8202 128.274 102.883 151.68C106.946 175.086 130.759 190.497 156.071 186.101Z" stroke="#0200B2" stroke-width="1.92875" stroke-miterlimit="10"/>
<path d="M214.283 160.036C236.835 167.826 247.241 203.003 247.241 203.003C251.016 213.467 245.286 210.538 245.286 210.538C243.211 202.396 240.602 206.116 240.602 206.116C243.555 219.342 237.075 215.902 237.075 215.902C235.934 205.645 232.574 208.83 232.574 208.83C230.347 222.279 227.195 215.646 227.195 215.646C229.932 197.527 213.629 167.419 213.629 167.419C213.916 164.897 214.148 162.43 214.283 160.036Z" stroke="#0200B2" stroke-width="1.92875" stroke-miterlimit="10"/>
<path d="M69.7731 151.782C66.2139 152.628 62.5909 153.203 62.5909 153.203C62.5909 153.203 60.8752 154.711 58.2656 157.25C50.7882 164.553 35.9211 180.397 33.152 193.727C33.152 193.727 27.901 198.884 30.4707 185.474C30.4707 185.474 28.4197 181.323 23.7992 190.542C23.7992 190.542 16.5372 191.516 23.887 180.166C23.887 180.166 22.7139 175.776 17.9577 182.68C17.9577 182.68 11.5736 183.431 18.7557 174.93C18.7557 174.93 38.9855 147.863 61.7211 146.155C63.3791 146.028 65.0449 146.042 66.7007 146.195C68.185 146.33 69.4618 146.506 70.5791 146.65C81.48 148.23 75.6784 150.361 69.7731 151.782Z" stroke="#0200B2" stroke-width="1.92875" stroke-miterlimit="10"/>
<path d="M73.3745 224.234C75.4494 221.935 77.5881 219.677 79.7587 217.513L83.4615 221.273C81.5462 223.173 79.615 225.2 77.7477 227.275" stroke="#0200B2" stroke-width="1.92875" stroke-miterlimit="10"/>
<path d="M77.7629 227.251C78.9599 228.912 79.7819 231.354 79.8697 234.85C79.8697 235.042 79.8697 235.241 79.8697 235.433C79.8697 235.433 78.3215 240.406 74.4112 241.387C74.4112 241.387 74.7544 247.055 68.9767 248.052C68.9767 248.052 71.8576 250.678 69.9184 256.353C69.9184 256.353 76.2387 259.682 72.9509 266.291C72.9509 266.291 68.7852 270.434 63.5741 264.838C63.5741 264.838 45.1319 248.827 46.0177 246.025L65.0904 224.617C65.0904 224.617 69.4156 223.069 73.3738 224.21C75.1426 224.69 76.6924 225.764 77.7629 227.251V227.251Z" stroke="#0200B2" stroke-width="1.92875" stroke-miterlimit="10"/>
<path d="M163.895 151.527C163.301 151.426 162.691 151.45 162.106 151.597C161.521 151.744 160.972 152.011 160.496 152.381C155.468 156.252 146.179 153.051 143.003 151.495C141.965 151.009 140.778 150.949 139.695 151.327C138.613 151.705 137.722 152.492 137.212 153.519C136.702 154.546 136.615 155.732 136.968 156.823C137.321 157.914 138.086 158.824 139.101 159.357C139.779 159.684 155.452 167.339 165.851 159.357C166.31 159.009 166.695 158.574 166.984 158.075C167.274 157.577 167.461 157.027 167.535 156.455C167.609 155.884 167.569 155.304 167.417 154.748C167.265 154.192 167.004 153.673 166.649 153.219C165.987 152.317 164.999 151.709 163.895 151.527V151.527Z" stroke="#0200B2" stroke-width="1.92875" stroke-miterlimit="10" stroke-linecap="round"/>
<path d="M141.293 155.47C141.293 155.47 155.067 162.327 163.391 155.885" stroke="#0200B2" stroke-width="1.92875" stroke-miterlimit="10" stroke-linecap="round"/>
<path d="M156.827 71.6831C155.709 72.944 154.401 74.0214 152.949 74.8759C152.949 74.8759 149.413 75.8816 145.048 73.2157C139.534 69.8633 132.687 60.7 129.926 36.387C129.926 36.363 168.989 57.6429 156.827 71.6831Z" stroke="#0200B2" stroke-width="1.92875" stroke-miterlimit="10"/>
<path d="M154.85 75.4745L130.479 40.2661" stroke="#0200B2" stroke-width="1.92875" stroke-miterlimit="10"/>
<path d="M62.4907 228.05C62.4907 228.05 66.2494 238.642 74.461 241.619" stroke="#0200B2" stroke-width="1.92875" stroke-miterlimit="10"/>
<path d="M53.9565 237.628C53.9565 237.628 58.8564 249.186 69.0151 248.26" stroke="#0200B2" stroke-width="1.92875" stroke-miterlimit="10"/>
<path d="M62.0933 263.29C62.0933 263.29 63.0589 257.655 69.9617 256.529" stroke="#0200B2" stroke-width="1.92875" stroke-miterlimit="10"/>
<path d="M165.217 249.098C165.217 249.098 173.684 255.763 182.774 253.743" stroke="#0200B2" stroke-width="1.92875" stroke-miterlimit="10"/>
<path d="M162.881 260.393C162.881 260.393 173.207 266.89 181.387 262.252" stroke="#0200B2" stroke-width="1.92875" stroke-miterlimit="10"/>
<path d="M181.066 278.647C181.066 278.647 183.005 268.989 186.357 268.965" stroke="#0200B2" stroke-width="1.92875" stroke-miterlimit="10"/>
<path d="M150.117 75.355C150.117 75.355 151.96 94.0727 147.436 100.434C147.436 100.434 160.371 100.754 166.197 103.34C166.197 103.34 169.541 93.1867 167.282 75.4029" stroke="#0200B2" stroke-width="1.92875" stroke-linejoin="round"/>
<path d="M72.79 137.599C72.79 137.599 87.8406 137.064 82.4141 151.966C82.4141 151.966 82.2305 161.648 68.9355 161.018" stroke="#0200B2" stroke-width="1.92875" stroke-miterlimit="10"/>
<path d="M145.559 186.847C145.559 186.847 143.604 220.746 131.498 231.953" stroke="#0200B2" stroke-width="1.92875" stroke-miterlimit="10"/>
<path d="M161.332 200.229C162.986 199.941 164.107 198.441 163.836 196.877C163.564 195.314 162.003 194.279 160.349 194.566C158.694 194.854 157.573 196.354 157.844 197.918C158.116 199.481 159.677 200.516 161.332 200.229Z" fill="#0200B2"/>
<path d="M169.929 197.545C171.584 197.258 172.705 195.757 172.433 194.193C172.162 192.63 170.601 191.595 168.946 191.883C167.292 192.17 166.171 193.67 166.442 195.234C166.714 196.798 168.275 197.832 169.929 197.545Z" fill="#0200B2"/>
<path d="M177.405 194.521C179.059 194.234 180.18 192.734 179.909 191.17C179.638 189.606 178.076 188.572 176.422 188.859C174.767 189.146 173.646 190.647 173.918 192.211C174.189 193.774 175.75 194.809 177.405 194.521Z" fill="#0200B2"/>
</svg>





