<svg width="275" height="269" viewBox="0 0 275 269" fill="none" xmlns="http://www.w3.org/2000/svg">
<path d="M267.996 68.6026C265.556 59.4959 264.584 51.8393 257.33 53.7841L244.187 57.2951C236.929 59.24 239.273 66.5281 241.713 75.6348L245.162 88.5152C247.605 97.6253 248.745 105.398 256.002 103.453L269.275 99.8977C276.533 97.9528 273.888 90.5829 271.445 81.4727L267.996 68.6026Z" fill="#FCFFEA"/>
<path d="M266.054 69.0904C264.007 61.4407 263.212 55.0056 256.968 56.6775L245.657 59.7073C239.413 61.3792 241.389 67.497 243.439 75.1468L246.34 85.9561C248.387 93.6058 249.332 100.143 255.573 98.468L266.986 95.3972C273.23 93.7253 270.995 87.5495 268.944 79.8861L266.054 69.0904Z" fill="#1100A5"/>
<path d="M89.5841 195.066C95.4187 237.225 76.3045 250.392 75.3969 250.996C74.8303 251.371 74.153 251.543 73.4759 251.484C72.8514 251.43 72.2589 251.184 71.7804 250.779C71.302 250.374 70.9612 249.831 70.8053 249.224C70.6494 248.617 70.686 247.976 70.9102 247.391C71.1344 246.805 71.535 246.304 72.0566 245.956C72.3568 245.745 90.3348 232.752 82.726 190.443L89.5841 195.066Z" fill="#FCFF8B"/>
<path d="M198.295 140.129C198.295 140.129 231.48 140.511 247.087 94.6875L246.189 93.2681C246.189 93.2681 248.441 88.0613 245.043 84.2944C245.043 84.2944 248.963 77.7331 246.121 76.4263C246.121 76.4263 245.405 74.4269 242.869 78.6236L243.743 71.8644C243.743 71.8644 241.897 66.7464 239.556 75.7268C239.556 75.7268 228.706 131.2 200.789 132.428L198.295 140.129Z" fill="#FCFF8B"/>
<path d="M54.7678 138.566C54.7678 138.566 45.1561 74.014 111.438 41.5997C111.438 41.5997 118.876 35.987 121.115 29.4324C123.073 23.6866 156.146 27.7844 191.147 88.9007C191.147 88.9007 232.033 155.776 147.258 206.537L137.08 215.163C137.08 215.163 128.826 221.803 109.442 207.656C90.0584 193.51 108.941 207.315 108.941 207.315C108.941 207.315 91.123 197.39 85.79 193.527C80.457 189.665 63.1887 177.641 57.3132 148.816C57.3132 148.816 61.9467 142.818 54.2969 138.58" fill="#FCFF3F"/>
<path d="M186.523 38.6483L189.14 40.211C188.54 27.1123 180.61 23.2737 180.61 23.2737L185.015 23.6149C182.446 18.5856 171.398 10.7857 171.398 10.7857L173.445 9.05922C165.038 4.49392 157.023 6.07369 157.023 6.07369L158.51 3.83881C143.927 0.665629 134.967 13.314 134.967 13.314L126.25 17.8554C126.444 16.9001 123.179 1.00342 123.179 1.00342H122.838L115.331 6.66397C120.17 8.28127 125.335 30.7904 125.335 30.7904C127.123 28.6443 126.553 19.8719 126.553 19.8719L134.241 15.9686C130.986 34.5914 136.24 41.3268 136.24 41.3268L138.151 39.1465C138.093 49.3041 142.14 50.4437 142.14 50.4437L145.002 48.8366C143.573 55.63 147.503 61.7068 147.503 61.7068C148.585 61.114 149.604 60.412 150.543 59.6118C150.543 59.6118 151.437 50.6245 150.902 60.0997C150.366 69.575 152.676 74.0891 152.676 74.0891C153.918 72.3558 155.371 72.7788 155.371 72.7788C153.942 75.6381 155.505 87.8771 155.505 87.8771L157.337 87.0821C156.801 87.4233 155.549 94.4111 155.549 94.4111L159.302 92.9815L157.855 100.566C160.964 99.5428 164.969 94.9468 164.969 94.9468L165.201 97.093C169.132 94.2303 172.367 86.0073 172.367 86.0073L172.708 88.6891C177.894 85.2942 179.501 75.819 179.501 75.819L180.498 78.6066C184.715 74.2426 184.865 61.3349 184.865 61.3349L187.035 63.1433C189.604 59.4685 186.694 50.2799 186.694 50.2799L189.082 51.9518C190.242 47.5947 186.523 38.6483 186.523 38.6483Z" fill="#9CFF3F"/>
<path d="M57.4497 148.816C57.4497 148.816 62.5302 142.49 54.6381 138.682C54.6381 138.682 16.8022 150.982 6.94825 177.139C6.94825 177.139 -0.977907 188.17 1.58453 188.211C4.14696 188.252 4.14697 186.846 4.49841 186.369C4.84985 185.891 7.08472 185.686 6.62068 186.481C6.62068 186.481 3.30079 191.623 5.99288 192.094C5.99288 192.094 7.3372 192.213 8.21409 189.057C8.21409 189.057 11.2201 183.96 10.7117 189.46C10.7117 189.46 8.73956 193.844 11.8957 193.496C11.8957 193.496 14.5844 190.518 15.9901 186.952C15.9901 186.952 17.4163 185.212 17.9316 188.245C17.9316 188.245 18.3751 191.087 20.7192 190.832C20.7192 190.832 22.6538 189.064 19.4363 182.165C19.4363 182.165 18.3683 181.861 22.5822 172.983C26.796 164.105 49.0868 146.308 57.4497 148.816Z" fill="#FCFF8B"/>
<path d="M171.845 189.201C175.663 192.637 178.63 196.913 180.515 201.692C185.595 214.361 183.944 230.558 175.612 249.832C175.385 250.362 175.007 250.814 174.527 251.133C174.046 251.451 173.482 251.622 172.906 251.624C172.499 251.623 172.097 251.537 171.725 251.371C171.005 251.047 170.442 250.451 170.158 249.714C169.873 248.977 169.891 248.158 170.207 247.434C177.843 229.773 179.491 215.19 175.107 204.101C173.483 199.876 170.83 196.123 167.389 193.183L171.845 189.201Z" fill="#FCFF8B"/>
<path d="M131.955 169.629C125.018 169.629 115.181 167.862 107.729 159.393C106.481 157.974 104.038 152.399 105.726 147.683C106.627 145.162 109.04 141.995 115.413 141.152C116.437 140.934 124.206 139.682 134.241 144.735C135.512 145.379 136.911 145.729 138.335 145.759C139.54 145.779 140.721 145.429 141.72 144.756C142.061 144.527 150.25 138.849 157.146 138.849C161.923 138.849 165.195 141.548 166.406 146.451C166.594 147.106 167.348 150.443 165.041 154.61C161.598 160.864 153.27 165.617 140.287 168.725C137.553 169.344 134.758 169.647 131.955 169.629Z" fill="#FF532B"/>
<path d="M118.951 145.093C118.002 145.079 117.052 145.152 116.116 145.312L115.935 145.339C112.492 145.786 110.346 147.028 109.565 149.024C108.412 151.962 110.247 155.981 110.725 156.575C117.146 163.87 125.782 165.398 131.88 165.398C134.365 165.412 136.845 165.152 139.273 164.624C153.843 161.133 159.302 156.22 161.325 152.706C162.973 149.836 162.427 147.724 162.407 147.632C161.626 144.465 159.998 143.087 157.077 143.087C151.441 143.087 144.006 148.229 143.938 148.277C142.269 149.414 140.29 150.01 138.27 149.983C136.191 149.959 134.146 149.452 132.296 148.502C126.704 145.687 121.94 145.093 118.951 145.093Z" fill="#953200"/>
<path d="M148.865 161.638C133.401 151.87 122.097 159.444 118.515 162.689C118.515 162.689 129.201 169.036 148.865 161.638Z" fill="#FF6D51"/>
<path d="M119.286 144.909C119.286 144.909 117.065 149.116 122.142 148.185L123.326 145.346L119.286 144.909Z" fill="#FCFFD1"/>
<path d="M118.989 145.162C118.648 145.905 117.73 148.635 121.807 148.348L123.227 145.578" stroke="black" stroke-width="0.879866" stroke-linecap="round" stroke-linejoin="round"/>
<path d="M64.8196 251.828C64.8196 251.828 68.2317 247.812 71.5891 246.339C71.5891 246.339 69.6101 248.928 71.5891 250.737C73.5681 252.545 75.6528 251.419 77.9628 249.085C77.9628 249.085 82.7021 258.165 84.7868 268.083C84.7629 268.083 65.6249 261.399 64.8196 251.828Z" fill="#023AEC"/>
<path d="M166.051 261.085C165.805 260.966 164.932 256.097 169.507 249.017C169.507 249.017 172.012 254.476 175.99 249.931C175.99 249.931 187.373 255.834 191.314 263.177C191.3 263.177 171.824 263.825 166.051 261.085Z" fill="#023AEC"/>
<path d="M260.728 79.2105C262.294 78.7177 263.609 77.6389 264.399 76.1995C265.189 74.7601 265.392 73.0713 264.966 71.4857C264.42 69.4384 260.564 66.0708 257.166 66.9818L251.168 68.5889C250.358 68.8054 249.6 69.1794 248.935 69.6894C248.27 70.1994 247.713 70.8355 247.294 71.5612C246.875 72.2869 246.604 73.088 246.495 73.9187C246.386 74.7494 246.442 75.5934 246.66 76.4024C246.877 77.2105 247.25 77.9681 247.76 78.6318C248.269 79.2956 248.904 79.8524 249.629 80.2707C250.354 80.6889 251.154 80.9603 251.983 81.0694C252.813 81.1784 253.655 81.123 254.464 80.9063L258.131 79.9236C258.131 79.9236 258.647 81.6603 260.981 81.6945C260.981 81.6842 260.039 80.0055 260.728 79.2105Z" fill="#FF66B3"/>
<path d="M257.415 78.1322C257.415 78.1322 251.331 77.3031 250.799 74.5462C250.267 71.7893 253.109 69.7455 255.334 71.7449C255.334 71.7449 257.289 67.8313 259.957 70.9431C262.625 74.0549 257.876 76.5286 257.415 78.1322Z" fill="#BF0050"/>
<path d="M200.618 132.421C204.109 101.73 182.688 75.29 182.688 75.29L180.58 78.6441L179.46 75.8496L177.072 83.1718C195.736 104.326 194.975 135.004 194.975 135.004C185.08 187.208 147.462 200.46 145.326 204.463C143.19 208.465 135.899 215.773 135.899 215.773C138.478 215.091 147.404 206.534 147.404 206.534C157.753 201.938 171.794 189.375 171.794 189.375C191.727 169.759 197.507 152.958 199.185 145.018C199.451 142.562 199.898 138.57 200.618 132.421Z" fill="#023AEC"/>
<path d="M199.404 143.79C199.642 142.582 199.79 141.359 199.847 140.129C199.847 140.129 199.636 141.893 199.404 143.79Z" fill="#1800A5"/>
<path d="M199.219 145.298C199.281 144.807 199.342 144.295 199.404 143.79C199.335 144.172 199.254 144.582 199.161 145.018C199.069 145.455 199.069 145.885 199.028 146.243V146.216C199.044 145.902 199.108 145.592 199.219 145.298Z" fill="#1800A5"/>
<path d="M183.07 73.3793C182.674 77.5454 181.641 83.8338 178.945 86.6248L177.949 83.8372C177.949 83.8372 176.342 93.3124 171.155 96.7108L170.797 94.0289C170.797 94.0289 167.58 102.252 163.649 105.111L163.417 102.968C163.417 102.968 159.411 107.568 156.303 108.588L157.746 101L153.993 102.429C153.993 102.429 155.245 95.4586 155.781 95.1003L153.945 95.8987C153.945 95.8987 152.386 83.6598 153.816 80.7971C153.816 80.7971 152.362 80.3774 151.12 82.1073C151.12 82.1073 148.81 77.5795 149.346 68.118C149.881 58.6564 149.005 67.6335 149.005 67.6335C148.064 68.4316 147.045 69.1335 145.964 69.7285C145.964 69.7285 142.034 63.6482 143.463 56.8549L140.601 58.4654C140.601 58.4654 136.554 57.3258 136.612 47.1681L134.701 49.3484C134.701 49.3484 130.331 43.7425 132.033 28.6204L133.214 29.3574C133.214 29.3574 133.555 39.979 136.227 41.5485L138.188 39.6139C138.188 39.6139 137.431 46.8338 141.942 50.8736L145.306 48.5739C145.306 48.5739 142.986 54.7463 147.38 61.9115L151.103 59.6391C151.103 59.6391 149.37 70.8988 152.615 74.2596C152.615 74.2596 154.085 72.0589 155.443 72.8198C155.443 72.8198 153.816 81.1656 155.443 87.9146L157.17 87.4437L155.651 94.3531L159.155 92.6778C159.155 92.6778 158.132 99.9249 157.531 100.641L157.429 100.983C157.429 100.983 161.984 99.2562 164.652 95.1242L165.28 97.0076C165.28 97.0076 168.944 95.1583 172.292 86.3758L172.657 89.1054C172.657 89.1054 176.751 87.2731 179.249 76.8221L179.402 76.0885L180.593 78.6646C180.593 78.6646 183.104 75.9213 183.07 73.3793Z" fill="#023AEC"/>
<path d="M206.112 138.86C206.112 138.86 203.669 134.765 205.484 131.752C205.484 131.752 201.355 132.721 200.601 132.435C199.847 132.148 201.318 136.853 199.847 140.142C199.847 140.129 205.634 138.993 206.112 138.86Z" fill="#023AEC"/>
<path d="M167.389 193.258L171.79 189.375L176.393 194.209C176.393 194.209 171.408 193.329 171.896 198.362L167.389 193.258Z" fill="#023AEC"/>
<path d="M73.3668 87.7065C73.3668 87.7065 85.5921 55.8995 103.734 52.061C121.876 48.2225 76.7959 84.506 73.3668 87.7065Z" fill="#FDFFB3"/>
<path d="M182.657 75.2936C191.344 86.8638 198.769 101.539 200.547 119.101C200.992 123.528 201.066 127.985 200.768 132.425C200.608 134.943 200.328 137.508 199.909 140.122C199.608 142.081 199.228 144.068 198.769 146.083C198.769 146.083 190.754 183.881 147.408 206.541C147.408 206.541 142.866 210.976 138.537 214.306C134.207 217.637 125.23 218.957 109.585 207.646C93.9413 196.335 67.5049 192.312 57.4428 148.819" stroke="#1100A5" stroke-width="0.879866" stroke-linecap="round" stroke-linejoin="round"/>
<path d="M126.294 27.6104C128.726 27.5075 131.131 28.144 133.193 29.4358" stroke="#1100A5" stroke-width="0.879866" stroke-linecap="round" stroke-linejoin="round"/>
<path d="M54.9248 138.566C54.8101 137.972 54.7326 137.372 54.6927 136.768C54.6927 136.768 44.7057 73.5465 111.588 41.5997C111.588 41.5997 119.576 35.6082 121.244 28.9513C122.3 28.3765 123.444 27.9811 124.629 27.781" stroke="#1100A5" stroke-width="0.879866" stroke-linecap="round" stroke-linejoin="round"/>
<path d="M54.9248 138.566C54.9248 138.566 62.0013 142.34 57.4497 148.819L55.7641 148.608C55.7641 148.608 49.1141 147.56 34.8177 159.461C20.0231 171.769 20.3814 179.125 19.2452 181.513C19.2452 181.513 22.5378 187.314 20.7226 190.835C20.7226 190.835 17.877 191.067 17.877 187.423C17.877 187.423 16.9694 184.577 15.4885 188.105C15.4885 188.105 13.3322 192.425 12.1925 193.223C11.0529 194.022 9.12172 193.111 10.2579 190.388C10.2579 190.388 11.5033 188.559 10.5991 187.201C9.69494 185.843 8.21069 188.907 7.75348 189.931C7.29627 190.954 7.75348 191.408 6.27607 192.087C6.27607 192.087 3.10288 192.657 6.27607 187.085C6.27607 187.085 7.29968 186.178 5.82909 185.949C4.35851 185.72 3.55328 187.996 2.87429 188.116C2.19529 188.235 0.144658 188.798 1.39687 186.178C1.39687 186.178 4.31074 179.968 6.53539 177.743C8.76003 175.518 11.3907 154.739 54.9248 138.566Z" stroke="#1100A5" stroke-width="0.879866" stroke-linecap="round" stroke-linejoin="round"/>
<path d="M199.847 140.132H199.909C235.626 135.233 246.926 95.1992 246.926 95.1992L246.179 93.2851C246.837 91.8291 247.078 90.2192 246.876 88.6343C246.674 87.0495 246.036 85.5518 245.033 84.308C248.885 76.7606 245.65 75.9827 245.65 75.9827C244.627 75.1842 242.736 78.8283 242.736 78.8283L243.733 71.8814C241.146 66.719 239.362 76.6412 239.362 76.6412C226.993 127.924 207.405 132.455 200.768 132.424H200.577" stroke="#1100A5" stroke-width="0.879866" stroke-linecap="round" stroke-linejoin="round"/>
<path d="M78.9761 139.075C80.2442 137.886 81.6829 136.893 83.2446 136.13C86.1789 134.721 90.1642 134.052 93.6274 137.778C94.8967 139.143 96.0841 141.071 97.1315 143.776" stroke="#1100A5" stroke-width="0.879866" stroke-linecap="round" stroke-linejoin="round"/>
<path d="M187.571 136.454C187.571 136.454 182.258 131.142 176.898 132.779C175.42 133.226 173.933 134.206 172.544 135.973C171.388 137.526 170.461 139.237 169.791 141.053" stroke="#1100A5" stroke-width="0.879866" stroke-linecap="round" stroke-linejoin="round"/>
<path d="M131.924 169.633C124.946 169.633 115.055 167.855 107.555 159.349C106.3 157.923 103.843 152.313 105.539 147.57C106.45 145.035 108.876 141.848 115.284 141.002C116.307 140.781 124.127 139.525 134.22 144.605C135.504 145.254 136.918 145.603 138.356 145.629C139.569 145.652 140.761 145.3 141.768 144.622C142.109 144.394 150.335 138.682 157.282 138.682C162.059 138.682 165.379 141.412 166.597 146.328C166.785 146.987 167.546 150.341 165.232 154.534C161.769 160.823 153.392 165.606 140.324 168.732C137.568 169.352 134.749 169.654 131.924 169.633V169.633Z" stroke="#1100A5" stroke-width="0.879866" stroke-linecap="round" stroke-linejoin="round"/>
<path d="M149.257 161.536C156.702 158.54 160.056 155.196 161.54 152.61C163.199 149.727 162.649 147.601 162.629 147.492C161.841 144.309 160.203 142.92 157.268 142.92C151.598 142.92 144.122 148.093 144.05 148.144C142.373 149.291 140.384 149.893 138.352 149.87C136.262 149.85 134.206 149.345 132.344 148.396C129.551 146.961 126.561 145.945 123.472 145.38C122.066 145.119 120.641 144.978 119.211 144.96C119.111 144.955 119.011 144.955 118.91 144.96C117.954 144.946 116.998 145.02 116.055 145.182L115.877 145.213C112.411 145.66 110.254 146.919 109.466 148.915C108.309 151.87 110.148 155.913 110.636 156.513C112.885 159.078 115.641 161.148 118.73 162.594C123.343 164.791 128.126 165.381 131.927 165.381C134.428 165.395 136.923 165.133 139.366 164.6C142.734 163.818 146.041 162.791 149.26 161.529" stroke="#1100A5" stroke-width="0.879866" stroke-linecap="round" stroke-linejoin="round"/>
<path d="M118.73 162.594C122.336 159.332 133.705 151.713 149.25 161.536" stroke="#1100A5" stroke-width="0.879866" stroke-linecap="round" stroke-linejoin="round"/>
<path d="M119.207 144.964C118.866 145.714 117.938 148.458 122.043 148.168L123.469 145.383" stroke="#1100A5" stroke-width="0.879866" stroke-linecap="round" stroke-linejoin="round"/>
<path d="M83.2275 136.13L82.0504 133.155" stroke="#1100A5" stroke-width="0.879866" stroke-linecap="round" stroke-linejoin="round"/>
<path d="M88.5401 134.642L89.1679 132.476" stroke="#1100A5" stroke-width="0.879866" stroke-linecap="round" stroke-linejoin="round"/>
<path d="M93.6103 137.778L95.6575 136.13" stroke="#1100A5" stroke-width="0.879866" stroke-linecap="round" stroke-linejoin="round"/>
<path d="M172.544 135.98C172.544 135.98 169.815 133.724 169.791 133.724" stroke="#1100A5" stroke-width="0.879866" stroke-linecap="round" stroke-linejoin="round"/>
<path d="M176.898 132.786L175.929 129.661" stroke="#1100A5" stroke-width="0.879866" stroke-linecap="round" stroke-linejoin="round"/>
<path d="M181.978 132.984L182.978 130.128" stroke="#1100A5" stroke-width="0.879866" stroke-linecap="round" stroke-linejoin="round"/>
<path d="M126.475 20.0698C126.69 22.5813 126.629 25.1087 126.294 27.607C126.141 28.7535 125.846 29.8767 125.417 30.9508C125.417 30.9508 125.138 29.7122 124.629 27.7844C123.022 21.6155 119.17 8.43822 115.372 6.66055L122.879 1C122.879 1 125.393 9.40723 126.291 17.852" stroke="#1100A5" stroke-width="0.879866" stroke-linecap="round" stroke-linejoin="round"/>
<path d="M126.284 17.852L134.998 13.3106C134.998 13.3106 143.047 0.471163 158.541 3.83542L157.054 6.07371C157.054 6.07371 164.331 4.39499 173.476 9.05924L171.428 10.7857C173.752 12.383 175.979 14.1159 178.099 15.9754C180.665 18.2103 183.36 20.916 185.019 23.6115H181.473C181.473 23.6115 188.751 27.5251 189.13 40.2145L186.516 38.7268C186.516 38.7268 186.595 38.8769 186.725 39.1567C187.503 40.774 190.089 46.7144 189.113 51.9723L186.687 50.2868C186.687 50.2868 189.481 56.6366 187.056 63.1638C187.056 63.1638 185.94 61.6659 184.821 61.2974C184.821 61.2974 184.821 69.8548 182.634 75.2867C182.191 76.5477 181.471 77.6936 180.528 78.6407L179.409 75.8463C179.409 75.8463 176.983 87.0377 172.503 89.0952V85.9186C172.503 85.9186 168.59 95.2436 165.225 97.11L164.666 94.8752C164.666 94.8752 161.759 99.0754 158.497 100.614C158.131 100.789 157.749 100.93 157.357 101.034C157.357 101.034 159.063 94.9843 159.254 92.4083L155.522 94.5032C156.006 91.985 156.618 89.4932 157.357 87.0377L155.341 87.976C155.341 87.976 153.665 76.9654 155.522 72.8607C155.455 72.8037 155.38 72.7566 155.3 72.7209C154.89 72.5434 153.884 72.4615 152.355 74.5395C152.355 74.5395 149.551 66.8931 151.048 59.6153L147.316 62.0412C147.316 62.0412 143.023 55.3229 145.449 48.4136L141.873 50.8395C141.873 50.8395 137.612 47.854 138.171 39.0885L136.305 41.7055C136.305 41.7055 133.367 39.1806 133.169 29.4222C133.087 25.9283 133.367 21.5166 134.258 15.9652L126.451 20.0596" stroke="#1100A5" stroke-width="0.879866" stroke-linecap="round" stroke-linejoin="round"/>
<path d="M168.941 39.1669C173.213 51.6754 172.087 70.9499 158.521 100.621" stroke="#1100A5" stroke-width="0.879866" stroke-linecap="round" stroke-linejoin="round"/>
<path d="M134.282 15.9753C140.391 16.1774 146.394 17.6277 151.922 20.237C153.384 20.9308 154.795 21.729 156.143 22.6254C158.035 23.8483 159.79 25.2701 161.38 26.8665C163.143 28.6272 164.682 30.5982 165.962 32.7352C167.186 34.7605 168.184 36.9139 168.938 39.1567" stroke="#1100A5" stroke-width="0.879866" stroke-linecap="round" stroke-linejoin="round"/>
<path d="M151.922 20.2371C151.922 20.2371 152.829 9.1582 178.106 15.9754" stroke="#1100A5" stroke-width="0.879866" stroke-linecap="round" stroke-linejoin="round"/>
<path d="M156.143 22.6152C156.143 22.6152 161.575 14.6072 181.48 23.6115" stroke="#1100A5" stroke-width="0.879866" stroke-linecap="round" stroke-linejoin="round"/>
<path d="M161.38 26.8665C161.38 26.8665 172.752 22.3558 186.728 39.1498" stroke="#1100A5" stroke-width="0.879866" stroke-linecap="round" stroke-linejoin="round"/>
<path d="M151.072 59.622C151.072 59.622 162.99 48.161 165.966 32.7352" stroke="#1100A5" stroke-width="0.879866" stroke-linecap="round" stroke-linejoin="round"/>
<path d="M155.157 72.8675L155.324 72.7276C156.842 71.4003 168.102 60.8981 168.941 39.1669" stroke="#1100A5" stroke-width="0.879866" stroke-linecap="round" stroke-linejoin="round"/>
<path d="M89.4818 195.905C95.3505 237.532 76.3386 250.617 75.4242 251.218C74.7623 251.631 73.9651 251.77 73.2024 251.605C72.4396 251.439 71.7715 250.983 71.3403 250.332C70.909 249.682 70.7486 248.889 70.8932 248.122C71.0378 247.355 71.476 246.675 72.1145 246.226C72.4148 246.018 90.2699 233.038 82.6406 191.245L89.4818 195.905Z" stroke="#1100A5" stroke-width="0.879866" stroke-miterlimit="10"/>
<path d="M171.79 189.375C175.658 192.807 178.672 197.093 180.593 201.893C185.752 214.586 184.077 230.814 175.615 250.126C175.279 250.823 174.685 251.364 173.959 251.633C173.234 251.903 172.431 251.881 171.721 251.572C171.011 251.263 170.448 250.691 170.151 249.976C169.853 249.261 169.844 248.459 170.125 247.737C177.881 230.043 179.556 215.429 175.103 204.309C173.44 200.071 170.742 196.318 167.256 193.391L171.79 189.375Z" stroke="#1100A5" stroke-width="0.879866" stroke-miterlimit="10"/>
<path d="M175.711 249.795C181.511 252.664 189.57 259.181 191.303 263.177C191.303 263.177 174.851 264.125 166.054 261.085C164.922 260.693 166.911 251.17 169.89 248.645" stroke="#1100A5" stroke-width="0.879866" stroke-miterlimit="10"/>
<path d="M77.915 249.119C81.6239 255.496 84.7629 268.083 84.7629 268.083C84.7629 268.083 65.8432 261.676 64.8196 251.828C64.8196 251.828 67.5492 248.328 71.6198 246.321" stroke="#1100A5" stroke-width="0.879866" stroke-miterlimit="10"/>
<path d="M246.926 95.1891C248.605 101.01 250.625 104.907 256.002 103.463L269.275 99.9079C276.533 97.9631 273.888 90.5931 271.445 81.483L267.996 68.6026C265.556 59.4959 264.584 51.8393 257.33 53.7841L244.187 57.2951C237.936 58.9704 238.809 64.6105 240.73 71.9668" stroke="#1100A5" stroke-width="0.879866" stroke-miterlimit="10"/>
</svg>

