<svg width="1116" height="214" viewBox="0 0 1116 214" fill="none" xmlns="http://www.w3.org/2000/svg">
<path d="M1110.13 214.172C559.055 -194.154 140.559 102.081 7.43994 230.05C7.43994 230.05 295.418 384.844 576.46 353.994C875.141 321.254 1110.13 214.172 1110.13 214.172Z" fill="#EC425E"/>
<path opacity="0.2" d="M8.3457 230.166C8.3457 230.166 234.197 9.89285 521.424 6.5542C521.424 6.5542 436.017 82.5151 507.332 102.314C578.647 122.113 723.439 122.928 648.086 182.002C572.734 241.075 606.457 290.702 691.696 284.698C776.935 278.693 733.429 329.524 733.429 329.524C733.429 329.524 385.562 425.387 8.3457 230.166Z" fill="#FCD8C4"/>
<path d="M1109.07 214.327C557.969 -193.998 140.132 103.479 7 231.448C7 231.448 288.417 384.068 577.043 353.438C879.036 321.397 1109.07 214.327 1109.07 214.327Z" stroke="#030D78" stroke-width="12.9405" stroke-linecap="round" stroke-linejoin="round"/>
</svg>




