<svg width="311" height="277" viewBox="0 0 311 277" fill="none" xmlns="http://www.w3.org/2000/svg">
<path d="M278.716 94.8927C278.716 94.8927 288.24 89.4733 294.39 87.0763C294.39 87.0763 310.275 121.232 309.722 122.68C309.169 124.129 286.979 132.661 286.979 132.661L278.716 94.8927Z" fill="#FF532B"/>
<path d="M31.9306 220.302C31.9306 220.302 34.7805 246.944 44.2276 265.717C44.2276 265.717 63.5059 272.695 100.264 274.432C100.264 274.432 119.781 260.595 122.615 235.795C122.615 235.795 74.8957 233.625 31.9306 220.302Z" fill="#123AEC"/>
<path d="M222.929 236.207C222.929 236.207 228.047 249.377 234.411 257.143C234.411 257.143 229.89 274.702 237.203 276.181C244.517 277.659 295.081 245.909 295.182 245.093C295.284 244.277 303.674 234.01 302.027 226.204L300.357 222.639C300.357 222.639 270.949 233.447 222.929 236.207Z" fill="#123AEC"/>
<path d="M29.9655 86.8004C24.9305 84.1881 19.7474 81.8716 14.4427 79.8627C14.4427 79.8627 -0.0310768 114.641 0.584859 116.069C1.20079 117.496 23.7555 125.086 23.7555 125.086L29.9655 86.8004Z" fill="#FF532B" stroke="#1100A5" stroke-miterlimit="10"/>
<path d="M199.602 210.181C179.897 219.413 158.038 221.822 135.362 217.119C121.736 214.339 108.694 209.216 96.8184 201.978C95.1513 200.877 93.9892 199.16 93.5875 197.203C93.1858 195.246 93.5773 193.209 94.676 191.54C95.7774 189.876 97.4936 188.717 99.4485 188.316C101.403 187.915 103.437 188.306 105.105 189.402C115.559 195.651 127.003 200.072 138.943 202.474C164.909 207.73 188.573 202.455 209.295 186.811C210.083 186.213 210.982 185.776 211.94 185.527C212.897 185.277 213.894 185.218 214.874 185.355C215.854 185.491 216.798 185.82 217.651 186.321C218.504 186.823 219.249 187.488 219.845 188.278C220.442 189.067 220.879 189.966 221.129 190.923C221.379 191.881 221.437 192.878 221.301 193.858C221.164 194.838 220.836 195.782 220.334 196.635C219.832 197.488 219.167 198.233 218.377 198.828C212.531 203.256 206.239 207.061 199.602 210.181Z" fill="#FD8BA2" stroke="#1100A5" stroke-miterlimit="10"/>
<path d="M100.959 195.681C100.959 195.681 159.154 234.099 213.825 192.804" stroke="#1100A5" stroke-miterlimit="10" stroke-linecap="round"/>
<path d="M175.623 176.974C198.905 166.068 208.937 138.352 198.03 115.07C187.124 91.7884 159.408 81.7563 136.126 92.6631C112.844 103.57 102.812 131.285 113.719 154.567C124.626 177.849 152.341 187.881 175.623 176.974Z" fill="#FDC100" stroke="#1100A5" stroke-miterlimit="10"/>
<path d="M145.78 179.462C145.78 179.462 156.822 167.216 145.725 144.921C145.725 144.921 135.025 131.293 135.579 123.444C136.134 115.596 140.24 101.263 161.421 89.519C161.421 89.519 154.166 109.758 165.622 130.527C177.078 151.296 176.219 167.707 145.78 179.462Z" fill="#030D78" stroke="#1100A5" stroke-miterlimit="10"/>
<path d="M100.264 274.432C100.264 274.432 90.6022 244.529 95.9829 233.367L122.614 235.796C122.614 235.796 121.07 258.317 100.264 274.432Z" fill="#1213EC"/>
<path d="M31.9316 220.302C31.9316 220.302 34.7815 246.944 44.2285 265.716C44.2285 265.716 63.5069 272.695 100.265 274.431C100.265 274.431 119.782 260.594 122.616 235.794C122.616 235.794 74.8967 233.624 31.9316 220.302Z" stroke="#1100A5" stroke-miterlimit="10"/>
<path d="M295.195 245.119C295.195 245.119 286.834 234.237 286.562 226.691C291.291 225.837 295.912 224.467 300.342 222.605C300.342 222.605 303.193 226.647 302.024 230.689C300.855 234.732 298.247 241.164 295.195 245.119Z" fill="#1213EC"/>
<path d="M222.929 236.208C222.929 236.208 228.047 249.378 234.411 257.143C234.411 257.143 229.89 274.702 237.203 276.181C244.517 277.66 295.081 245.91 295.182 245.094C295.284 244.278 303.674 234.011 302.027 226.204L300.357 222.639C300.357 222.639 270.949 233.448 222.929 236.208Z" stroke="#1100A5" stroke-miterlimit="10"/>
<path d="M153.636 82.3351L159.066 73.5705L162.818 83.1069L153.636 82.3351Z" fill="#FD8BA2" stroke="#1100A5" stroke-miterlimit="10"/>
<path d="M174.936 85.7759L182.629 78.8984L183.524 89.0996L174.936 85.7759Z" fill="#FD8BA2" stroke="#1100A5" stroke-miterlimit="10"/>
<path d="M190.29 96.0769L200.2 93.2131L196.595 102.796L190.29 96.0769Z" fill="#FD8BA2" stroke="#1100A5" stroke-miterlimit="10"/>
<path d="M114.222 97.3143L111.306 87.4283L120.912 90.9698L114.222 97.3143Z" fill="#FD8BA2" stroke="#1100A5" stroke-miterlimit="10"/>
<path d="M129.834 85.591L131.909 75.4827L138.715 83.1358L129.834 85.591Z" fill="#FD8BA2" stroke="#1100A5" stroke-miterlimit="10"/>
<path d="M158.553 187.382L153.366 196.285L149.355 186.87L158.553 187.382Z" fill="#FD8BA2" stroke="#1100A5" stroke-miterlimit="10"/>
<path d="M137.16 184.542L129.666 191.621L128.481 181.45L137.16 184.542Z" fill="#FD8BA2" stroke="#1100A5" stroke-miterlimit="10"/>
<path d="M121.526 174.667L111.711 177.802L115.037 168.118L121.526 174.667Z" fill="#FD8BA2" stroke="#1100A5" stroke-miterlimit="10"/>
<path d="M197.526 171.314L200.716 181.114L191.014 177.838L197.526 171.314Z" fill="#FD8BA2" stroke="#1100A5" stroke-miterlimit="10"/>
<path d="M182.254 183.468L180.455 193.625L173.443 186.163L182.254 183.468Z" fill="#FD8BA2" stroke="#1100A5" stroke-miterlimit="10"/>
<path d="M198.493 5.19863C198.493 5.19863 207.633 16.7788 209.418 28.2051C209.418 28.2051 227.761 39.4318 233.458 55.7722L270.431 230.344C270.431 230.344 291.611 226.485 306.471 220.008L286.969 132.634L268.084 49.5189C268.084 49.5189 257.32 35.5308 236.63 28.0561C236.63 28.0561 231.224 25.884 226.899 26.089L220.429 12.2788C220.429 12.2788 207.896 6.66691 198.493 5.19863Z" fill="#112AA5"/>
<path d="M282.158 111.605C282.158 111.605 291.424 96.5597 296.981 92.6935L294.337 87.0486L278.663 94.8649L282.158 111.605Z" fill="#123AEC"/>
<path d="M278.716 94.8927C278.716 94.8927 288.24 89.4733 294.39 87.0763C294.39 87.0763 310.275 121.232 309.722 122.68C309.169 124.129 286.979 132.661 286.979 132.661L278.716 94.8927Z" stroke="#1100A5" stroke-miterlimit="10"/>
<path opacity="0.2" d="M16.187 214.426L42.3035 52.57C42.3035 52.57 54.5012 34.4355 77.1598 33.6201C99.8184 32.8047 70.4236 53.6168 70.4236 53.6168C70.4236 53.6168 60.5784 138.382 49.0954 224.998C49.1035 225.015 24.1398 218.416 16.187 214.426Z" fill="white"/>
<path d="M11.0261 211.876L35.7776 50.3639C35.7776 50.3639 43.2336 32.5772 72.8924 28.9771L77.9119 11.4267C77.9119 11.4267 95.0821 -0.0483903 152.065 1.20278C209.047 2.45395 220.492 12.302 220.492 12.302L226.961 26.1122C226.961 26.1122 247.953 26.6145 268.146 49.5421L306.533 220.031C306.533 220.031 270.688 239.77 160.328 237.548C49.9673 235.325 11.0261 211.876 11.0261 211.876Z" stroke="#1100A5" stroke-miterlimit="10"/>
<path opacity="0.2" d="M10.4293 98.2577C9.20151 100.475 8.31268 102.864 7.7922 105.345C7.28041 107.854 7.74937 110.463 9.1026 112.636C9.79464 113.693 10.7877 114.518 11.9536 115.003C13.1195 115.489 14.4046 115.614 15.6422 115.362C18.0942 114.687 19.6938 112.327 20.7003 109.982C23.2005 104.085 23.3277 97.4359 23.3815 90.9901C23.4155 87.4902 20.6467 83.535 17.2327 86.65C14.2764 89.3717 12.2568 94.6544 10.4293 98.2577Z" fill="white"/>
</svg>
