<svg width="198" height="75" viewBox="0 0 198 75" fill="none" xmlns="http://www.w3.org/2000/svg">
<g clip-path="url(#clip0_728_268)">
<path d="M194.8 12.8C193.4 10.3 191.4 8.4 189 6.9C187.7 5.3 186.1 3.9 184.3 2.9L183.2 4.7C183.2 4.7 183.2 4.7 183.1 4.7L184.2 2.8C181.5 1.3 178.4 0.5 175.3 0.5V2.5V4.3V0.5C172.2 0.5 169.1 1.3 166.4 2.8C163.7 4.3 161.4 6.5 159.8 9.2H159.9C158.3 12 157.5 15.1 157.5 18.3H157.4C157.4 21.5 158.2 24.6 159.8 27.4L163.3 25.4L163.8 25.1V25.2L163.3 25.5C163.3 25.5 163.3 25.5 163.3 25.4L159.9 27.5C161.5 30.2 163.8 32.4 166.5 33.9L167.4 32.2L166.5 33.8C168.1 34.7 169.8 35.3 171.6 35.7C171.7 35.8 171.8 35.8 171.9 35.9C172 36 172.2 36 172.3 36.1V36.2H172.5C174.5 37.2 176.6 37.8 178.8 38L178.7 38.2H180.2C183.1 38.2 186 37.5 188.6 36C191.2 34.6 193.3 32.5 194.8 29.9C196.3 27.3 197.1 24.3 197.1 21.3C197.2 18.4 196.4 15.5 194.8 12.8ZM172.2 13.7L172.8 15.3L172.7 15.4L172.2 13.7C172.1 13.7 172.1 13.7 172.2 13.7ZM171.1 15L171.7 14.5L171.1 15ZM170.9 15.3L171.9 15.1V15.2L170.9 15.3C170.9 15.4 170.9 15.4 170.9 15.3ZM170.8 15.7L171 16.2L170.8 15.7C170.7 15.7 170.7 15.7 170.8 15.7ZM169.5 20.3V20.4V20.5V20.3ZM169.4 20.1V20.2V20.1C169.4 20.2 169.4 20.2 169.4 20.1ZM169.5 20.8L169.3 21.3V21.2V21.1V21.2C169.3 21.2 169.3 21.2 169.3 21.1V21L169.4 20.8L169.3 21L169.5 20.8V20.7V20.8ZM169.6 20.7L169.7 20.6L169.6 20.7ZM169.7 20.6L169.9 20.4L169.7 20.6ZM170.2 25.5C170.3 25.5 170.4 25.5 170.5 25.6C170.4 25.5 170.3 25.5 170.2 25.5ZM170.6 26.6H170.9H170.6ZM172.7 26.2C172.1 26.1 171.5 26 171 25.8V23.3C171.6 23.5 172.1 23.7 172.7 23.9V26.2ZM174.4 20H174.3H174.2C173.7 20 173.1 19.9 172.6 19.7C172.2 19.5 171.8 19.2 171.5 18.9H171.4C171.2 18.6 170.9 18.4 170.6 18.3L169.6 20.6V20.5L170.6 18.3C170.4 18.2 170.2 18.1 170 18.1C169.9 18.1 169.9 18.1 169.8 18.1C169.8 18 169.8 18 169.9 17.9C170 17.9 170 17.9 170.1 17.9L170.4 16.9L170 18L170.3 18.1H170.5H170.6H170.7C171 18.1 171.3 18 171.6 17.9L171.2 16.9L171.3 17L171.7 18C171.9 17.9 172 17.9 172.2 17.7L174.3 19.4C174.4 19.5 174.4 19.6 174.5 19.6C174.7 19.8 175 20 175.2 20H175.3H175.4C175.1 20 174.7 20.1 174.4 20ZM182.1 21.2C182.1 21.5 182.1 21.9 181.9 22.2C181.8 22.5 181.6 22.8 181.3 23C180.7 23.5 179.9 23.8 179 23.8C178.3 23.8 177.7 23.7 177.1 23.4C177.6 23.2 178.1 22.9 178.6 22.5C179.2 22 179.6 21.3 179.9 20.6C180.2 20 180.3 19.3 180.3 18.5C180.5 18.6 180.7 18.6 180.9 18.8C181.3 19 181.6 19.3 181.8 19.7C182 20.2 182.2 20.7 182.1 21.2ZM182.9 32L182.8 31.8H182.9V32C183 32 183 32 182.9 32Z" fill="black"/>
<path d="M156.3 26.7002L152.7 24.8002C152.2 24.3002 151.5 24.0002 150.8 24.0002V24.1002H137.4V26.8002L137.3 26.7002L137.4 24.1002C136.7 24.1002 136 24.4002 135.6 24.9002L135.5 24.8002C135 25.3002 134.7 26.0002 134.7 26.7002V27.2002L130.6 25.2002C130.5 25.0002 130.4 24.9002 130.3 24.8002L130.1 25.0002L130.3 24.8002C129.8 24.3002 129.1 24.0002 128.4 24.0002V24.1002H114.9V26.8002L114.8 26.7002L114.9 24.1002C114.2 24.1002 113.5 24.4002 113.1 24.9002L113 24.8002C112.6 25.2002 112.3 25.8002 112.2 26.5002C110.4 25.3002 108.4 24.4002 106.3 23.9002V24.0002C104.1 23.5002 102 23.2002 99.8 23.2002L99.7 27.2002C100.4 27.2002 101.1 27.2002 101.7 27.3002C99.4 27.6002 97.2 28.3002 95.1 29.4002C92.2 30.8002 89.7 33.0002 87.9 35.7002C87.2 36.8002 86.6 38.0002 86.2 39.2002V32.5002C87.5 31.1002 89 29.9002 90.7 29.1002C93.5 27.8002 96.6 27.1002 99.7 27.1002L99.8 23.1002C96.1 23.0002 92.4 23.8002 89 25.5002C87.6 26.2002 86.2 27.1002 85 28.1002C84.9 28.0002 84.7 28.0002 84.5 28.0002H83.7C84.3 27.4002 84.9 26.8002 85.3 26.1002C86.2 24.5002 86.6 22.6002 86.3 20.8002C86 19.0002 85.2 17.3002 83.8 16.0002C83 15.2002 82 14.6002 80.9 14.2002C80.8 14.1002 80.6 14.1002 80.5 14.1002C80.1 13.5002 79.6 12.9002 79 12.3002L77.7 13.6002L79 12.2002C78.1 11.3002 77.1 10.6002 75.9 10.2002C74.7 9.70019 73.4 9.5002 72.2 9.6002L72.3 13.6002C73 13.6002 73.8 13.7002 74.5 14.0002C74.6 14.0002 74.7 14.1002 74.7 14.1002C74.2 14.3002 73.7 14.5002 73.2 14.7002C71.9 15.4002 70.8 16.5002 70.1 17.8002C69.3 19.1002 69 20.5002 69 22.0002C69 22.5002 69 22.9002 69.1 23.4002C68.8 23.2002 68.5 23.0002 68.2 22.7002L66.7 24.1002L68.1 22.6002C67.6 22.1002 67.2 21.6002 66.9 20.9002C66.6 20.3002 66.5 19.7002 66.5 19.0002L62.5 18.9002C62.5 20.2002 62.7 21.4002 63.2 22.6002C63.5 23.2002 63.8 23.8002 64.2 24.3002C64 24.4002 63.9 24.5002 63.7 24.6002C63.3 24.3002 62.8 24.1002 62.2 24.0002H48.7V26.7002L49.6 27.6002C49.6 27.6002 49.6 27.6002 49.5 27.6002L48.7 26.8002V28.0002H48.6V26.7002L46.8 24.9002C46.3 25.3002 46 26.0002 46 26.7002V26.9002L41.9 25.0002C41.8 24.9002 41.7 24.8002 41.6 24.7002L41.5 24.8002C41 24.4002 40.4 24.1002 39.8 24.1002H29.8C30 23.4002 30.1 22.7002 30.1 22.0002C30.1 20.9002 29.9 19.8002 29.5 18.8002C29.1 17.8002 28.4 16.8002 27.6 16.1002C26.8 15.3002 25.8 14.7002 24.9 14.3002C24.5 13.6002 24 12.9002 23.3 12.3002C22.4 11.4002 21.3 10.7002 20.1 10.3002V10.4002C18.9 9.90019 17.7 9.7002 16.5 9.8002V13.7002C17.2 13.7002 18 13.8002 18.7 14.1002V14.0002C18.8 14.0002 18.8 14.1002 18.9 14.1002C18.3 14.3002 17.7 14.5002 17.1 14.8002C15.8 15.5002 14.7 16.6002 13.9 17.9002C13.2 19.2002 12.8 20.6002 12.8 22.1002C12.8 22.5002 12.8 22.8002 12.9 23.2002C12.7 23.1002 12.6 22.9002 12.4 22.8002L11.1 24.0002H11L12.3 22.6002C11.8 22.1002 11.4 21.6002 11.1 20.9002C10.8 20.3002 10.7 19.7002 10.7 19.0002L6.69998 18.9002C6.69998 20.2002 6.89998 21.4002 7.39998 22.6002C7.69998 23.2002 7.99997 23.8002 8.39997 24.3002C8.19998 24.4002 7.89998 24.6002 7.69998 24.8002L9.69998 26.7002L7.89998 24.9002C7.39998 25.4002 7.09998 26.0002 7.09998 26.7002V55.2002V55.3002H7.19998C6.69998 55.5002 6.19998 55.6002 5.69998 55.6002L5.49998 58.5002L5.39998 55.5002C4.89998 55.5002 4.29998 55.4002 3.79998 55.2002L3.69998 55.1002H3.49998V55.2002C3.29998 55.1002 2.99998 55.1002 2.79998 55.1002C2.29998 55.1002 1.79998 55.3002 1.39998 55.5002C0.999976 55.7002 0.699976 56.1002 0.499976 56.4002L2.69998 57.7002H2.49998L0.399976 56.5002C0.199976 56.9002 0.0999756 57.2002 0.0999756 57.7002V69.0002C0.0999756 69.6002 0.299976 70.1002 0.699976 70.6002L1.39998 70.1002L0.599976 70.7002C0.999976 71.2002 1.49998 71.5002 1.89998 71.6002L6.59998 73.5002H6.99998C7.09998 73.6002 7.19998 73.6002 7.39998 73.7002C8.89998 74.1002 10.4 74.2002 11.9 74.2002C15.1 74.3002 18.4 73.8002 21.4 72.7002C24.1 71.7002 26.3 69.9002 27.8 67.5002C29.3 64.9002 30 62.0002 29.9 59.0002V57.8002C30 57.9002 30.2 58.0002 30.3 58.1002C31.8 58.9002 33.4 59.5002 35.1 59.7002C35.3 59.9002 35.6 60.0002 35.8 60.2002C37.9 61.4002 40.3 62.0002 42.7 61.9002C45.5 62.0002 48.3 61.2002 50.5 59.5002C50.5 59.5002 50.5 59.5002 50.6 59.4002L52.5 60.9002H53C53.2 61.0002 53.4 61.1002 53.7 61.1002H67.3C67.7 61.1002 68.1 60.9002 68.5 60.6002C68.7 60.4002 68.8 60.2002 68.9 60.0002C69 60.2002 69.1 60.4002 69.3 60.6002C69.6 60.9002 70 61.1002 70.4 61.1002H84.1C84.5 61.1002 84.9 60.9002 85.3 60.6002C85.6 60.3002 85.8 59.9002 85.8 59.4002V55.5002C86.9 56.4002 88.2 57.1002 89.5 57.7002V57.6002C90.9 58.2002 92.3 58.7002 93.8 59.1002C94.2 59.3002 94.6 59.5002 95.1 59.7002C98.4 61.2002 101.9 61.9002 105.5 61.9002C107.6 61.9002 109.7 61.6002 111.7 61.2002C111.9 61.2002 112.1 61.1002 112.3 61.1002L111.1 66.1002C111 66.7002 111.1 67.3002 111.3 67.8002L112.1 67.4002L111.3 67.8002C111.6 68.3002 112 68.8002 112.6 69.0002H112.7L112.8 69.4002L119.6 72.0002C119.7 72.0002 119.8 72.1002 119.9 72.1002L121.4 72.6002C126.7 74.5002 134 74.4002 134 74.4002C138.3 74.5002 142.5 73.6002 146.4 71.8002L146 70.9002L146.1 71.1002L146.4 71.8002C149.7 70.3002 152.5 67.9002 154.5 64.9002C156.3 62.3002 157.3 59.1002 157.3 55.9002V32.7002L157.2 28.2002C157.2 27.6002 156.8 27.0002 156.3 26.7002ZM2.69998 57.5002L2.49998 57.2002L2.79998 57.7002L2.69998 57.5002ZM2.19998 71.3002L2.69998 69.1002L2.19998 71.3002ZM2.79998 69.0002L3.09998 67.7002L2.79998 69.0002ZM3.89998 58.5002L2.99998 58.0002L3.19998 58.3002L2.99998 58.0002H2.89998V57.9002V58.0002V57.9002L3.89998 58.5002C3.89998 58.4002 3.89998 58.5002 3.89998 58.5002ZM6.79998 59.5002C6.59998 59.6002 6.39998 59.8002 6.29998 60.0002C6.19998 60.2002 6.09998 60.5002 6.09998 60.8002V68.2002C5.39998 68.2002 4.79998 68.1002 4.09998 68.0002V59.5002C4.49998 59.6002 4.99998 59.6002 5.39998 59.5002C5.89998 59.5002 6.39998 59.5002 6.99998 59.4002C6.89998 59.4002 6.79998 59.5002 6.79998 59.5002ZM7.09998 55.5002H7.29998H7.09998ZM9.89997 26.8002L10.7 27.6002C10.7 27.6002 10.7 27.6002 10.6 27.6002L9.89997 26.8002ZM8.09998 55.3002H9.09998L7.49998 55.5002V55.4002L8.09998 55.3002ZM14.7 28.1002C14.3 28.1002 13.9 28.3002 13.5 28.6002C13.2 28.9002 13 29.3002 13 29.8002V58.4002C13 58.5002 13 58.7002 12.9 58.8002C12.8 58.9002 12.7 59.0002 12.6 59.1002C11.9 59.5002 11.1 59.6002 10.3 59.6002C9.59998 59.6002 8.89998 59.5002 8.29998 59.3002H8.19998H8.09998C7.89998 59.3002 7.79998 59.3002 7.59998 59.3002H7.49998C8.09998 59.2002 8.69998 59.0002 9.19998 58.7002H9.29998L8.69998 57.7002L8.39997 57.2002L9.29998 58.7002C9.89998 58.3002 10.4 57.8002 10.7 57.2002C11 56.7002 11.1 56.0002 11.1 55.4002V55.3002V28.0002H13.9C14 28.0002 14.1 28.1002 14.2 28.1002V28.0002H14.6L14.7 27.2002C14.9 27.4002 15.1 27.7002 15.3 27.9002C15.4 28.0002 15.5 28.0002 15.5 28.1002H14.7ZM29.9 52.7002V51.8002C30 52.2002 30.1 52.6002 30.2 53.1002C30.1 52.9002 30 52.8002 29.9 52.7002ZM30 28.5002C29.9 28.6002 29.8 28.8002 29.7 29.0002C29.6 28.8002 29.5 28.7002 29.4 28.5002C29.1 28.2002 28.7 28.0002 28.2 28.0002H31.2C30.8 28.0002 30.4 28.2002 30 28.5002ZM39.7 26.7002H38.4V26.6002L39.7 26.7002ZM40.7 26.7002H39.8V26.6002L40.7 26.7002ZM60.8 28.1002H53.7C53.3 28.1002 52.9 28.3002 52.5 28.6002C52.2 28.9002 52 29.3002 52 29.8002V46.0002C52 46.8002 51.9 47.6002 51.6 48.4002C51.4 48.9002 51.1 49.3002 50.7 49.6002C50.3 49.9002 49.8 50.0002 49.4 50.0002C48.9 50.0002 48.4 49.9002 47.9 49.6002C47.7 49.5002 47.5 49.3002 47.3 49.1002C47.3 49.1002 47.3 49.1002 47.4 49.1002L46.7 48.1002C46.7 48.0002 46.7 48.0002 46.6 47.9002L47.4 49.0002C48.3 48.3002 48.9 47.5002 49.3 46.5002C49.8 45.4002 50 44.2002 49.9 42.9002V28.0002H60.7V28.1002H60.8ZM62.1 26.7002H60.8V26.6002L62.1 26.7002ZM62.6 26.7002H62.3V26.6002L62.6 26.7002C62.6 26.6002 62.6 26.7002 62.6 26.7002ZM65.3 28.1002C65.3 28.1002 65.2 28.1002 65.3 28.1002L65.2 26.7002L65.3 26.8002V28.1002ZM65.3 26.8002V25.4002V26.8002ZM70.7 28.1002C70.3 28.1002 69.9 28.3002 69.5 28.6002C69.3 28.8002 69.2 29.0002 69.1 29.2002C69 29.0002 68.9 28.8002 68.7 28.6002C68.4 28.3002 68 28.1002 67.5 28.1002H70.3L70.4 26.7002C70.7 27.1002 71.1 27.5002 71.5 27.9002C71.6 28.0002 71.7 28.0002 71.7 28.1002H70.7ZM85.8 50.0002V49.7002C85.9 49.9002 85.9 50.1002 86 50.2002C85.9 50.2002 85.9 50.1002 85.8 50.0002ZM90 56.5002L90.1 56.3002L90 56.5002ZM105.9 26.1002L105.7 27.1002C105.7 27.1002 105.7 27.1002 105.6 27.1002L105.9 26.1002ZM102.8 42.8002C103.2 42.3002 103.7 41.9002 104.3 41.6002C105.1 41.3002 105.9 41.1002 106.8 41.1002C107 41.1002 107.2 41.1002 107.4 41.1002C107.7 41.2002 108 41.3002 108.3 41.3002V41.2002V41.3002H108.5H108.8H108.9C109.3 41.4002 109.6 41.4002 110 41.5002C110 41.5002 110 41.5002 110.1 41.5002C110 41.5002 109.9 41.6002 109.8 41.7002L110.8 43.4002L111.1 43.9002L109.7 41.7002C108.6 42.4002 107.5 42.8002 106.2 43.1002L106.4 44.0002L106.2 43.2002C105 43.6002 103.6 43.7002 102.4 43.8002C102.4 43.4002 102.6 43.1002 102.8 42.8002ZM109.8 47.6002C109 47.7002 108.2 47.8002 107.3 47.8002C106.5 47.8002 105.8 47.7002 105.1 47.5002C105.9 47.4002 106.6 47.2002 107.3 47.0002C108.1 46.8002 109 46.5002 109.8 46.2002V47.6002ZM111.1 44.0002L110.5 45.1002L111.1 44.0002ZM111.2 44.1002L111.8 45.1002L111.2 44.1002ZM111.2 43.9002L111.9 42.5002C111.9 42.5002 111.9 42.5002 112 42.5002L111.2 43.9002ZM114.8 26.7002L114.9 28.1002H114.8V26.7002ZM113.3 67.6002L113.6 66.9002L113.3 67.6002ZM114.3 65.4002C114.4 65.4002 114.4 65.4002 114.5 65.5002C114.4 65.5002 114.3 65.5002 114.3 65.4002ZM113.8 45.7002H114.3H115.3C115.3 45.7002 115.2 45.7002 115.2 45.8002L113.8 45.7002ZM117.6 66.5002C116.8 66.3002 116.1 66.0002 115.3 65.8002L116.7 59.7002C116.8 59.7002 116.9 59.6002 117 59.6002C117.3 59.5002 117.5 59.3002 117.7 59.0002L117 58.6002L117.1 58.7002L117.8 59.1002C118 58.8002 118.1 58.5002 118.1 58.2002V57.7002C118.6 57.9002 119 58.1002 119.5 58.3002L117.6 66.5002ZM118.7 28.6002C118.4 28.9002 118.2 29.3002 118.2 29.8002V48.8002C118.2 49.9002 118.3 51.1002 118.6 52.2002C118.4 52.0002 118.3 51.8002 118.1 51.6002V46.9002C118.1 46.6002 118 46.3002 117.9 46.1002C117.7 45.8002 117.5 45.6002 117.3 45.5002C117.1 45.4002 116.8 45.3002 116.5 45.3002C116.4 45.3002 116.4 45.3002 116.3 45.3002V38.0002L117.8 31.9002C117.9 31.6002 117.9 31.3002 117.8 31.0002C117.7 30.7002 117.5 30.5002 117.3 30.3002V30.2002C117 30.0002 116.6 29.8002 116.3 29.6002V28.0002H119.9C119.5 28.1002 119.1 28.3002 118.7 28.6002ZM129.2 25.9002L128.9 26.2002L128.5 26.6002H129.2V26.7002H128.5V26.6002L128.4 26.7002L127.5 27.6002C127.5 27.6002 127.5 27.6002 127.5 27.5002L128.4 26.7002H127.2V26.6002H128.5H128.6V26.5002L129.2 25.9002ZM137.3 26.7002L137.4 28.1002H137.3V26.7002ZM141.2 28.6002C140.9 28.9002 140.7 29.3002 140.7 29.8002V45.7002C140.7 46.5002 140.6 47.3002 140.3 48.1002C140.1 48.6002 139.8 49.0002 139.4 49.3002C139 49.6002 138.5 49.7002 138.1 49.7002C137.6 49.7002 137.1 49.6002 136.6 49.3002C136.4 49.1002 136.2 49.0002 136 48.8002C136 48.8002 136.1 48.8002 136.1 48.7002L135.4 47.6002C135.4 47.6002 135.4 47.6002 135.4 47.5002L136.2 48.7002H136.3H136.4L136.3 48.6002C137.2 47.9002 137.8 47.1002 138.2 46.0002H138.1C138.5 44.9002 138.8 43.8002 138.7 42.6002H138.8V28.1002H142.5C142 28.1002 141.6 28.3002 141.2 28.6002ZM150.9 26.7002H150.8L149.9 27.6002C149.9 27.6002 149.9 27.6002 149.9 27.5002L150.8 26.7002H149.6V26.6002H150.9V26.7002V26.5002L151.7 25.7002L150.9 26.7002L151.8 26.6002V26.7002H150.9Z" fill="black"/>
<path d="M10.7 18.9001C10.7 18.0001 10.9 17.0001 11.4 16.2001L10.2 15.5001L11.5 16.2001C12 15.4001 12.7 14.7001 13.5 14.3001C14.4 13.8001 15.4 13.6001 16.4 13.6001L16.5 9.6001C14.8 9.6001 13.1 10.0001 11.6 10.8001C10.1 11.6001 8.89995 12.8001 7.99995 14.2001C7.19995 15.6001 6.69995 17.3001 6.69995 18.9001H8.69995H10.7Z" fill="black"/>
<path d="M5.50005 55.5H5.40005H5.30005L5.40005 57.5L5.50005 55.5Z" fill="black"/>
<path d="M69.3001 14.3001C70.2001 13.8001 71.1 13.6001 72.2 13.6001V11.6001V9.6001C70.5 9.6001 68.8001 10.0001 67.3001 10.8001C65.8001 11.6001 64.6 12.8001 63.8 14.2001L67.3001 16.2001C67.8001 15.4001 68.5001 14.7001 69.3001 14.3001Z" fill="black"/>
<path d="M46.7 24.8L48.5999 26.6V24C47.8999 24 47.2 24.3 46.7 24.8Z" fill="black"/>
<path d="M150.7 26.7001H150.8V26.6001L150.7 26.7001Z" fill="black"/>
<path d="M128.3 26.7001H128.4V26.6001L128.3 26.7001Z" fill="black"/>
<path d="M2.90002 57.7998L3.00002 57.8998L2.90002 57.7998Z" fill="black"/>
<path d="M169.4 20.8002V20.9002L169.5 20.8002V20.7002L169.4 20.8002Z" fill="black"/>
<path d="M48.7 26.7001L48.6 26.6001V26.7001L48.7 26.8001V26.7001Z" fill="black"/>
<path d="M66.5 18.9002C66.5 18.0002 66.7 17.0002 67.2 16.2002L65.5 15.2002L63.8 14.2002C63 15.6002 62.5 17.3002 62.5 18.9002H64.5H66.5Z" fill="black"/>
<path fill-rule="evenodd" clip-rule="evenodd" d="M167.4 32.0999C169.8 33.4999 172.5 34.1999 175.3 34.1999V34.2999C178.1 34.2999 180.8 33.5999 183.2 32.1999C185.6 30.7999 187.6 28.8999 189 26.4999C190.4 23.9999 191.2 21.1999 191.2 18.3999C191.2 15.5999 190.4 12.7999 189 10.2999C187.6 7.8999 185.6 5.8999 183.2 4.4999C180.8 3.0999 178.1 2.3999 175.3 2.3999C172.5 2.3999 169.8 3.0999 167.4 4.4999C165 5.8999 163 7.7999 161.6 10.1999C160.2 12.6999 159.4 15.4999 159.4 18.2999C159.4 21.0999 160.1 23.8999 161.6 26.3999C162.9 28.7999 165 30.7999 167.4 32.0999ZM169.3 7.8999C171.1 6.8999 173.2 6.2999 175.3 6.2999V6.3999C177.4 6.3999 179.5 6.8999 181.3 7.8999C183.1 8.8999 184.6 10.3999 185.7 12.1999C186.8 14.0999 187.3 16.1999 187.3 18.2999C187.3 20.3999 186.7 22.5999 185.7 24.3999C184.7 26.1999 183.2 27.6999 181.3 28.6999C179.5 29.6999 177.4 30.2999 175.3 30.2999C173.2 30.2999 171.1 29.7999 169.3 28.6999C167.5 27.6999 166 26.1999 164.9 24.3999C163.8 22.4999 163.3 20.3999 163.3 18.2999C163.3 16.1999 163.9 13.9999 164.9 12.1999C166 10.3999 167.5 8.8999 169.3 7.8999ZM169.2 27.0999C170.9 27.9999 172.8 28.3999 174.7 28.1999V28.2999C176.6 28.2999 178.5 27.8999 180.2 26.9999C181.8 26.1999 183.1 24.9999 184 23.4999C184.9 21.8999 185.4 20.1999 185.3 18.3999C185.3 16.5999 184.9 14.7999 184 13.1999C183.2 11.6999 181.9 10.3999 180.4 9.5999C178.8 8.6999 177 8.2999 175.1 8.2999C174 8.2999 173 8.3999 171.9 8.5999C170.9 8.6999 170 8.9999 169.2 9.4999C169.1 9.5999 169 9.6999 168.9 9.7999C168.8 9.8999 168.8 10.0999 168.9 10.1999L170.2 15.5999C170.2 15.6999 170.3 15.7999 170.4 15.8999C170.5 15.9999 170.6 15.9999 170.7 16.0999H170.9C171 16.0999 171.1 16.0999 171.2 15.9999C171.3 15.9999 171.4 15.8999 171.4 15.8999C171.8 15.4999 172.3 15.1999 172.8 14.9999C173.4 14.7999 174.1 14.5999 174.8 14.5999C175.5 14.5999 176.2 14.7999 176.8 15.0999C177.3 15.3999 177.8 15.8999 178.1 16.3999C178.4 16.9999 178.6 17.6999 178.6 18.3999C178.6 18.8999 178.5 19.3999 178.4 19.7999C178.3 20.1999 177.9 20.6999 177.6 20.9999C176.8 21.6999 175.7 22.0999 174.6 21.9999C173.7 21.9999 172.9 21.8999 172.1 21.4999C171.5 21.1999 170.9 20.7999 170.4 20.1999C170.3 20.0999 170.3 20.0999 170.2 19.9999C170.1 19.9999 170 19.8999 169.9 19.8999C169.8 19.8999 169.7 19.8999 169.7 19.8999C169.6 19.8999 169.5 19.9999 169.4 20.0999C169.3 20.1999 169.3 20.2999 169.3 20.4999L169.2 26.4999C169.2 26.5999 169.2 26.6999 169.3 26.7999C169 26.9999 169.1 27.0999 169.2 27.0999ZM2.59995 69.6999C3.99995 69.9999 5.49995 70.1999 6.89995 70.1999C9.99995 70.2999 13.2 69.7999 16.1 68.6999C18.5 67.7999 20.5 66.1999 21.9 63.9999C23.2999 61.5999 24 58.7999 23.9 55.9999V26.6999C23.9 26.4999 23.8 26.3999 23.7 26.2999C23.6 26.1999 23.4 26.0999 23.2999 26.0999H18.4C19.1 25.8999 19.7999 25.6999 20.4 25.2999C21.5 24.6999 22.5 23.7999 23.1 22.5999C23.8 21.4999 24.1 20.1999 24.1 18.8999C24.1 17.8999 23.9 16.9999 23.6 15.9999C23.2 15.0999 22.6999 14.2999 21.9 13.5999C21.1999 12.8999 20.2999 12.3999 19.4 11.9999C18.5 11.5999 17.5 11.4999 16.5 11.4999C15.1 11.4999 13.8 11.7999 12.6 12.4999C11.4 13.0999 10.5 14.0999 9.79995 15.1999C9.09995 16.2999 8.79995 17.5999 8.79995 18.8999C8.79995 19.8999 8.99995 20.7999 9.39995 21.6999C9.79995 22.5999 10.4 23.3999 11.1 24.0999C12.1 25.0999 13.3 25.6999 14.7 25.9999H9.69995C9.49995 25.9999 9.39995 26.0999 9.29995 26.1999C9.19995 26.2999 9.09995 26.4999 9.09995 26.5999V55.1999C9.09995 55.4999 9.09995 55.8999 8.89995 56.1999C8.79995 56.4999 8.49995 56.6999 8.29995 56.8999C7.39995 57.3999 6.39995 57.5999 5.49995 57.4999C4.69995 57.4999 3.89995 57.3999 3.09995 57.0999C2.99995 57.0999 2.89995 57.0999 2.79995 57.0999C2.69995 57.0999 2.59995 57.0999 2.49995 57.1999C2.39995 57.2999 2.29995 57.2999 2.29995 57.3999C2.19995 57.4999 2.19995 57.5999 2.19995 57.6999V68.9999C2.19995 69.0999 2.19995 69.2999 2.29995 69.3999C2.39995 69.5999 2.49995 69.5999 2.59995 69.6999ZM31.2999 56.2999C33.2999 57.3999 35.5 57.8999 37.7999 57.8999C40.3999 57.9999 43 57.1999 45.0999 55.6999C46.3999 54.6999 47.3999 53.4999 48.0999 51.9999V56.3999C48.0999 56.5999 48.2 56.6999 48.2999 56.7999C48.3999 56.8999 48.6 56.9999 48.7 56.9999H62.2999C62.5 56.9999 62.6 56.8999 62.7 56.7999C62.7999 56.6999 62.9 56.4999 62.9 56.3999V26.6999C62.9 26.4999 62.7999 26.3999 62.7 26.2999C62.6 26.1999 62.3999 26.0999 62.2999 26.0999H48.7C48.5 26.0999 48.3999 26.1999 48.2999 26.2999C48.2 26.3999 48.0999 26.5999 48.0999 26.6999V42.9999C48.0999 43.8999 48 44.8999 47.5999 45.7999C47.2999 46.4999 46.8999 46.9999 46.2999 47.4999C45.7 47.8999 45 48.0999 44.2999 48.0999C43.5999 48.0999 42.8999 47.8999 42.2999 47.5999C41.7 47.1999 41.2 46.6999 40.9 46.0999C40.5 45.2999 40.4 44.4999 40.4 43.5999V26.6999C40.4 26.4999 40.2999 26.3999 40.2 26.2999C40.1 26.0999 40 25.9999 39.7999 25.9999H26.2C26 25.9999 25.9 26.0999 25.7999 26.1999C25.6999 26.2999 25.6 26.4999 25.6 26.5999V45.7999C25.6 47.8999 26.1 49.9999 27.1 51.8999C28 53.7999 29.5 55.2999 31.2999 56.2999ZM65.3 57.0999C65.1 57.0999 65 56.9999 64.9 56.8999C64.8 56.7999 64.6999 56.5999 64.6999 56.4999V26.6999C64.6999 26.4999 64.8 26.3999 64.9 26.2999C65 26.1999 65.2 26.0999 65.3 26.0999H70.3C68.9 25.7999 67.7 25.0999 66.7 24.1999C66 23.4999 65.4 22.6999 65 21.7999C64.5999 20.8999 64.4 19.8999 64.4 18.9999C64.4 17.6999 64.7 16.3999 65.4 15.2999C66.1 14.1999 67 13.1999 68.2 12.5999C69.3999 11.8999 70.7999 11.5999 72.1 11.5999C73.1 11.5999 74.1 11.7999 75.1 12.0999C76 12.4999 76.9 12.9999 77.6 13.6999C78.7999 14.7999 79.6 16.2999 79.8 17.9999C80 19.5999 79.7 21.2999 78.9 22.6999C78.2 23.7999 77.2999 24.6999 76.1 25.3999C75.5 25.7999 74.8 25.9999 74 26.1999H79C79.2 26.1999 79.3 26.2999 79.4 26.3999C79.5 26.4999 79.6 26.6999 79.6 26.7999V56.5999C79.6 56.7999 79.5 56.8999 79.4 56.9999C79.3 57.0999 79.1 57.1999 79 57.1999L65.3 57.0999ZM90.3 55.7999C93.4 57.1999 96.8 57.8999 100.3 57.8999C102.3 57.8999 104.3 57.5999 106.3 57.1999C108.1 56.8999 109.8 56.3999 111.4 55.6999C111.5 55.5999 111.6 55.5999 111.7 55.4999C111.8 55.3999 111.8 55.2999 111.8 55.1999V43.8999C111.8 43.7999 111.8 43.6999 111.7 43.5999C111.6 43.4999 111.6 43.3999 111.5 43.3999C111.4 43.3999 111.3 43.2999 111.2 43.2999C111.1 43.2999 111 43.2999 110.8 43.3999C109.6 44.1999 108.2 44.6999 106.8 45.0999C105.2 45.5999 103.6 45.7999 101.9 45.7999C100.8 45.7999 99.7 45.5999 98.6 45.1999C97.7999 44.8999 97 44.3999 96.5 43.5999C96 42.8999 95.8 42.0999 95.8 41.1999C95.8 40.4999 96 39.6999 96.5 39.0999C97 38.3999 97.6 37.8999 98.4 37.5999C99.3 37.1999 100.3 36.9999 101.3 36.9999C102.5 36.9999 103.7 37.0999 104.9 37.4999C106 37.8999 107 38.3999 107.9 39.0999C108 39.1999 108.1 39.1999 108.3 39.1999H108.5C108.6 39.1999 108.7 39.0999 108.7 38.9999C108.8 38.8999 108.8 38.7999 108.8 38.6999L111.3 28.5999C111.3 28.4999 111.3 28.3999 111.3 28.1999C111.3 28.0999 111.2 27.9999 111.1 27.8999C109.5 26.7999 107.7 25.9999 105.8 25.5999C103.8 25.0999 101.7 24.7999 99.7 24.7999C96.2999 24.6999 92.9 25.4999 89.8 26.9999C87.1 28.2999 84.7 30.3999 83 32.8999C81.4 35.3999 80.6 38.2999 80.6 41.2999C80.6 44.2999 81.5 47.1999 83.2 49.5999C85 52.4999 87.5 54.5999 90.3 55.7999ZM129.2 70.1999C126.4 70.1999 123.7 69.8999 121 69.3999C118.4 68.9999 115.9 68.2999 113.5 67.2999C113.4 67.1999 113.3 67.0999 113.2 66.9999C113.1 66.8999 113.1 66.6999 113.1 66.5999L115.8 55.0999C115.8 54.9999 115.9 54.8999 115.9 54.7999C116 54.6999 116 54.6999 116.1 54.5999C116.2 54.5999 116.3 54.5999 116.4 54.5999C116.5 54.5999 116.6 54.5999 116.7 54.6999C118.3 55.6999 120 56.3999 121.8 56.8999C123.6 57.2999 125.5 57.4999 127.4 57.4999C129.1 57.4999 130.8 57.0999 132.3 56.1999C133.6 55.4999 134.6 54.4999 135.4 53.2999C134.9 53.8999 134.4 54.3999 133.8 54.8999C131.7 56.3999 129.1 57.1999 126.5 57.0999C124.3 57.1999 122 56.6999 120 55.6999C118.2 54.7999 116.7 53.3999 115.7 51.6999C114.7 49.8999 114.2 47.7999 114.2 45.7999V26.7999C114.2 26.5999 114.3 26.4999 114.4 26.3999C114.5 26.2999 114.7 26.1999 114.8 26.1999H128.4C128.6 26.1999 128.7 26.2999 128.8 26.3999C128.9 26.4999 129 26.6999 129 26.7999V42.9999C129 43.8999 129.1 44.6999 129.5 45.4999C129.8 46.0999 130.3 46.6999 130.9 46.9999C131.5 47.3999 132.2 47.4999 132.9 47.4999C133.6 47.4999 134.3 47.2999 134.8 46.8999C135.4 46.4999 135.8 45.8999 136.1 45.1999C136.5 44.2999 136.6 43.3999 136.6 42.3999V26.6999C136.6 26.4999 136.7 26.3999 136.8 26.2999C136.9 26.1999 137.1 26.0999 137.2 26.0999H150.7C150.9 26.0999 151 26.1999 151.1 26.2999C151.2 26.3999 151.3 26.5999 151.3 26.6999V52.7999C151.3 55.7999 150.4 58.6999 148.7 61.1999C146.8 63.9999 144.1 66.2999 141 67.6999C137.4 69.3999 133.3 70.2999 129.2 70.1999Z" fill="white"/>
<path d="M126.7 58.2C123.3 58.2 119.2 57.1 114.6 53.8C114.2 53.5 114.1 52.9 114.4 52.4C114.7 52 115.3 51.8 115.8 52.1C119.4 54.4 128 57.6 134.7 53.1C135.1 52.8 135.7 52.9 136 53.3C136.3 53.7 136.3 54.3 136 54.6C134.3 56.3 131.1 58.2 126.7 58.2Z" fill="black"/>
</g>
<defs>
<clipPath id="clip0_728_268">
<rect width="197.5" height="74.4" fill="white"/>
</clipPath>
</defs>
</svg>
