<svg width="1440" height="768" viewBox="0 0 1440 768" fill="none" xmlns="http://www.w3.org/2000/svg">
<mask id="mask0_440_16613" style="mask-type:alpha" maskUnits="userSpaceOnUse" x="0" y="0" width="1440" height="792">
<path d="M1440 0H0V792H1440V0Z" fill="#9525FF"/>
</mask>
<g mask="url(#mask0_440_16613)">
<path d="M1427.08 -150.935C1452.68 -150.506 1479.3 -149.993 1503.93 -141.866C1528.57 -133.738 1550.24 -115.667 1547.78 -98.3569C1544.66 -76.3492 1506.94 -67.2655 1498.2 -46.5135C1486.72 -19.2988 1531.8 11.1985 1574.63 19.7261C1617.46 28.2537 1661.09 24.1955 1704.01 32.2976C1746.92 40.3998 1792.87 69.7987 1783.25 97.535C1773.63 125.271 1718.81 128.726 1696.09 151.228C1663.06 183.895 1710.5 233.831 1755.77 268.125C1801.04 302.42 1851.61 349.742 1824 385.043C1798.13 418.12 1717.1 415.95 1697.79 451.608C1684.53 476.049 1707.19 505.679 1723.72 532.415C1740.25 559.151 1747.71 594.48 1715.15 607.009C1698.48 613.418 1676.03 611.44 1658.14 616.395C1607.49 630.432 1622.92 684.186 1647.68 722.775C1672.44 761.365 1696.58 812.426 1652.5 833.551C1636.36 841.298 1614.17 842.515 1598.04 850.289C1559.94 868.644 1572.22 911.203 1583.33 945.93C1594.44 980.657 1592.29 1025.48 1544.93 1032.01C1529.54 1034.14 1512.56 1031.28 1496.46 1027.56C1461.73 1019.5 1428.09 1007.31 1392.88 1001.68C1357.67 996.054 1318.56 998.414 1298.21 1015.91C1256.33 1051.89 1314.54 1127.54 1258.1 1152.62C1233.29 1163.65 1196.2 1157.65 1167.51 1145.01C1138.82 1132.38 1115.77 1114.16 1090.66 1098.05C1081.54 1092.21 1071.05 1086.29 1059.51 1085.57C1048.97 1084.91 1039.99 1088.78 1032.61 1093.13C992.905 1116.54 978.11 1156.66 934.997 1177.2C888.189 1199.51 811.751 1190.85 765.591 1158.02C727.136 1130.67 703.165 1087.35 652.047 1078.92C609.973 1071.98 577.163 1094.13 538.728 1101.92C461.064 1117.63 357.987 1058.45 362.562 1000.79C364.741 973.438 376.575 935.608 337.303 924.772C324.464 921.222 311.145 923.07 298.808 925.078C248.794 933.235 198.427 942.928 144.761 939.756C91.0956 936.584 32.1306 917.543 3.47743 883.36C30.8519 856.636 53.9687 813.609 10.7188 790.041C-27.7091 769.106 -78.2459 788.322 -123.116 777.817C-169.131 767.039 -193.253 720.557 -164.195 698.66C-145.995 684.919 -112.978 680.476 -104.096 662.348C-92.0697 637.779 -133.402 610.599 -171.136 598.125C-208.871 585.65 -254.019 575.021 -272.633 549.035C-294.505 518.469 -261.758 486.107 -219.043 477.7C-199.646 473.869 -178.088 473.226 -160.646 466.808C-143.204 460.389 -131.064 445.201 -141.511 431.441C-154.565 414.218 -187.978 413.275 -214.595 411.016C-253.54 407.729 -292.803 394.916 -323.729 375.378C-347.532 360.374 -367.35 338.863 -362.577 319.198C-351.52 273.741 -243.431 291.735 -196.753 261.884C-172.135 246.147 -168.989 217.743 -182.809 193.186C-196.629 168.629 -224.908 147.732 -256.254 131.591C-286.29 116.129 -325.648 96.3016 -318.895 73.5953C-312.596 52.4053 -271.129 50.9783 -238.488 54.9805C-205.846 58.9828 -165.722 62.6667 -150.613 44.4947C-134.037 24.5769 -162.25 -2.68635 -185.214 -23.9603C-208.177 -45.2343 -225.256 -78.993 -195.62 -89.5666C-187.167 -92.5438 -176.584 -92.6422 -166.356 -91.8334C-129.466 -88.9313 -90.2245 -75.7154 -56.85 -82.8928C19.9867 -99.4232 -18.0236 -198.05 54.525 -220.483C103.969 -235.783 136.76 -206.831 178.21 -186.507C186.369 -198.249 220.373 -213.216 241.862 -208.949C262.366 -204.878 282.988 -194.963 295.074 -182.181C303.194 -173.538 312.777 -166.394 323.382 -161.08C334.42 -155.734 348.069 -152.686 359.82 -154.613C367.304 -155.878 374.343 -159.027 380.274 -163.762C399.047 -178.273 403.8 -199.654 405.815 -220.321C407.829 -240.989 407.934 -262.478 419.484 -280.612C424.01 -288.112 430.837 -293.954 438.951 -297.267C454.458 -303.441 476.555 -300.706 494.045 -293.194C511.535 -285.682 525.021 -274.147 536.351 -262.248C550.689 -247.203 565.09 -229.491 589.057 -223.743C606.178 -219.645 623.579 -223.104 637.76 -228.528C697.256 -251.33 717.995 -304.944 776.32 -328.945C794.332 -336.356 815.133 -340.571 835.724 -344.723C874.369 -352.519 916.506 -318.847 943.318 -293.503C970.131 -268.159 985.534 -238.563 994.196 -209.269C996.841 -200.317 1000.76 -189.586 1013.11 -185.505C1021.67 -182.641 1030.89 -184.408 1038.67 -186.668C1072.66 -196.506 1098.4 -214.848 1126.34 -230.728C1154.29 -246.607 1187.3 -260.712 1226.32 -259.867C1265.33 -259.023 1310.13 -237.86 1315.37 -210.688C1317.79 -198.102 1311.7 -186.392 1311.64 -173.962C1311.58 -161.531 1320.99 -146.068 1339.05 -142.551C1346.12 -141.147 1353.19 -141.931 1359.97 -142.703C1383.02 -145.331 1403.01 -151.29 1427.08 -150.935Z" fill="#8416ED"/>
<path d="M1207.43 -132.207C1226.32 -132.775 1245.97 -133.239 1263.8 -126.706C1281.64 -120.173 1297.03 -104.453 1294.65 -88.5379C1291.55 -68.3303 1263.37 -58.6653 1256.18 -39.4444C1246.72 -14.1689 1278.88 12.0615 1310.18 18.2999C1341.48 24.5382 1373.8 19.2943 1405.19 25.0847C1436.58 30.8752 1469.4 56.1198 1461.3 81.8055C1453.19 107.491 1412.65 112.651 1395 134.066C1369.45 165.076 1402.64 208.994 1434.75 238.673C1466.86 268.351 1502.5 309.752 1480.85 343.014C1460.56 374.16 1400.83 375.115 1385.27 408.386C1374.59 431.196 1390.25 457.445 1401.47 481.3C1412.69 505.155 1416.91 537.116 1392.42 549.736C1379.9 556.2 1363.38 555.202 1350.01 560.391C1312.15 575.058 1321.56 623.59 1338.43 657.947C1355.29 692.304 1371.26 738.062 1337.96 758.966C1325.76 766.636 1309.35 768.544 1297.16 776.227C1268.38 794.385 1275.89 832.82 1282.82 864.166C1289.74 895.513 1286.55 936.514 1251.36 944.204C1239.92 946.692 1227.49 944.713 1215.72 941.887C1190.37 935.795 1165.99 925.867 1140.22 922.007C1114.44 918.146 1085.53 921.717 1069.83 938.432C1037.63 972.777 1077.82 1039.82 1035.27 1064.78C1016.55 1075.76 989.412 1071.62 968.697 1061.12C947.982 1050.62 931.641 1034.81 913.657 1021C907.139 1016 899.603 1010.97 891.119 1010.71C883.369 1010.49 876.603 1014.35 870.985 1018.59C840.824 1041.41 828.465 1078.6 795.908 1098.94C760.548 1121.02 704.456 1115.87 671.584 1087.56C644.203 1063.96 628.072 1025.26 590.661 1019.42C559.858 1014.6 534.852 1036.04 506.197 1044.55C448.321 1061.72 374.405 1011.39 379.87 958.564C382.473 933.474 392.584 898.514 364.008 890C354.662 887.213 344.758 889.402 335.616 891.684C298.413 900.953 260.895 911.626 221.404 910.675C181.913 909.724 139.092 894.482 119.197 864.284C140.369 838.877 159.02 798.747 127.935 778.781C100.342 761.046 62.3827 780.442 29.6223 772.471C-3.86417 764.285 -20.0429 722.662 2.23027 701.618C16.1563 688.402 40.6949 683.137 47.8956 666.258C57.6635 643.382 28.1783 620.056 0.765388 610.027C-26.6476 599.998 -59.5625 591.926 -72.3525 568.866C-87.4077 541.736 -62.005 510.989 -30.2123 501.751C-15.7516 497.557 0.182149 496.147 13.2759 489.691C26.3697 483.236 35.8875 468.877 28.6953 456.671C19.6759 441.413 -4.97822 441.755 -24.5038 440.672C-53.1166 439.076 -81.632 428.793 -103.754 412.132C-120.755 399.293 -134.63 380.394 -130.372 362.209C-120.566 320.287 -41.459 332.806 -5.92796 303.837C12.8101 288.562 16.1646 262.504 6.8641 240.579C-2.43642 218.654 -22.5487 200.553 -45.0887 186.929C-66.6871 173.899 -95.0152 157.228 -89.2149 136.265C-83.7916 116.67 -53.1383 113.865 -29.2067 116.335C-5.27507 118.806 24.2184 120.716 36.0205 103.599C48.9834 84.8026 29.1489 60.914 12.979 42.3159C-3.19092 23.7177 -14.5801 -6.5017 7.68049 -17.2361C14.0439 -20.3025 21.842 -20.7444 29.3609 -20.3688C56.4814 -19.0574 84.9593 -8.40941 109.845 -16.1784C167.155 -34.0834 142.697 -122.791 197.04 -145.917C234.081 -161.69 257.23 -136.433 287.087 -119.366C293.542 -130.387 319.174 -145.306 334.871 -142.189C349.851 -139.214 364.709 -130.887 373.168 -119.663C378.59 -112.3 385.43 -106.094 393.285 -101.41C401.243 -96.9197 411.211 -94.6843 419.941 -96.8268C425.814 -98.4235 431.152 -101.564 435.4 -105.92C449.818 -119.853 454.065 -139.565 456.341 -158.505C458.618 -177.444 459.439 -197.091 468.63 -214.076C472.027 -220.385 476.718 -226.344 483.594 -229.995C495.31 -236.201 511.465 -234.506 524.076 -228.289C536.687 -222.072 546.238 -212.004 554.175 -201.547C564.206 -188.335 574.181 -172.666 591.665 -168.287C604.147 -165.168 617.118 -168.959 627.769 -174.433C672.499 -197.42 689.741 -247.096 733.667 -271.197C747.222 -278.62 762.728 -283.212 778.076 -287.765C806.872 -296.282 836.756 -267.058 855.616 -244.887C874.476 -222.717 884.768 -196.231 890.093 -169.776C891.722 -161.689 894.238 -152.029 903.194 -148.749C909.404 -146.48 916.273 -148.399 922.097 -150.746C947.54 -160.965 967.245 -178.643 988.398 -194.172C1009.55 -209.7 1034.47 -223.772 1063.22 -224.417C1091.98 -225.062 1124.28 -207.369 1127.14 -182.731C1128.48 -171.315 1123.58 -160.403 1123.05 -149.044C1122.51 -137.686 1128.94 -123.898 1142.15 -121.345C1147.31 -120.319 1152.55 -121.293 1157.59 -122.248C1174.73 -125.489 1189.69 -131.656 1207.43 -132.207Z" fill="#9525FF"/>
<path d="M1069.06 -63.8427C1083.45 -65.887 1098.48 -67.8963 1112.42 -63.6601C1126.37 -59.4238 1138.87 -46.9913 1137.76 -32.9297C1136.34 -15.0661 1115.26 -4.33994 1110.68 12.9881C1104.64 35.7898 1130.45 56.0124 1154.67 58.8879C1178.88 61.7635 1203.29 54.4943 1227.6 57.0742C1251.9 59.6541 1278.13 78.8642 1273.15 101.9C1268.18 124.935 1237.42 132.761 1224.96 152.855C1206.89 181.985 1234.32 217.567 1260.3 240.745C1286.29 263.922 1315.48 297.095 1300.46 327.867C1286.43 356.67 1240.83 362.385 1230.51 392.648C1223.43 413.357 1236.62 434.984 1246.32 454.846C1256.02 474.709 1260.76 502.223 1242.64 515.223C1233.37 521.879 1220.72 522.359 1210.73 527.975C1182.46 543.838 1191.97 585.368 1206.45 613.909C1220.93 642.45 1235.32 681.039 1210.85 701.974C1201.89 709.647 1189.43 712.654 1180.47 720.385C1159.33 738.547 1166.89 771.429 1173.66 798.181C1180.43 824.934 1179.91 860.914 1153.39 870.487C1144.77 873.594 1135.16 872.886 1126.06 871.381C1106.4 868.153 1087.26 861.49 1067.42 860.25C1047.58 859.01 1025.59 864.467 1014.4 880.321C991.399 912.908 1025.29 967.989 993.942 993.224C980.157 1004.33 959.213 1002.94 942.888 995.483C926.563 988.028 913.315 975.643 898.866 965.023C893.653 961.194 887.66 957.42 881.157 957.91C875.245 958.354 870.238 962.271 866.15 966.43C844.232 988.79 836.419 1022.22 812.57 1042.57C786.588 1064.7 743.471 1064.82 717.017 1042.83C695.04 1024.5 680.832 992.113 651.946 990.078C628.181 988.409 610.074 1009.12 588.579 1018.87C545.155 1038.57 486.287 1000.77 487.976 954.284C488.775 932.234 494.859 900.945 472.615 895.841C465.339 894.187 457.882 896.896 450.978 899.693C422.983 910.802 394.817 923.18 364.577 925.603C334.338 928.025 300.906 918.221 284.279 893.549C299.265 869.673 311.603 833.177 286.919 818.324C264.991 805.135 236.87 825.135 211.502 820.808C185.456 816.439 171.191 781.528 187.226 761.34C197.244 748.687 215.745 742.094 220.454 726.792C226.849 706.063 203.215 688.16 181.785 681.658C160.356 675.157 134.816 670.819 123.964 651.775C111.172 629.366 129.108 600.5 152.993 589.856C163.853 585.028 175.966 582.51 185.676 575.79C195.387 569.07 201.974 555.805 195.888 545.763C188.288 533.208 169.461 535.522 154.481 536.179C132.37 537.081 110.589 530.602 92.5728 517.764C78.9739 507.963 67.4832 492.599 69.8704 476.44C75.3828 439.124 136.441 443.543 162.232 415.41C175.831 400.558 177.153 377.635 169.026 359.237C160.899 340.839 144.652 326.788 126.785 316.781C109.66 307.2 87.2292 294.959 90.6663 276.215C93.8943 258.698 117.181 253.755 135.603 253.944C154.026 254.134 176.627 253.395 184.842 237.509C193.866 220.073 177.578 200.892 164.35 186.009C151.121 171.126 140.988 145.719 157.479 134.595C162.191 131.399 168.136 130.379 173.902 130.081C194.693 129.018 216.988 135.971 235.608 127.202C278.567 106.913 255.679 31.6238 296.128 7.03016C323.703 -9.74923 342.588 10.3658 366.204 22.7954C370.617 12.6723 389.505 -2.4215 401.649 -0.999456C413.244 0.371801 424.993 6.41767 431.98 15.4987C436.254 21.0032 441.928 26.4947 448.221 29.7578C454.513 33.0208 462.232 34.1462 468.822 31.5789C473.375 29.5916 477.309 26.4168 480.212 22.3873C490.538 9.06191 492.892 -8.45363 493.709 -25.1455C494.525 -41.8374 494.252 -59.025 500.477 -74.5729C502.789 -80.341 506.089 -85.9244 511.155 -89.6675C519.781 -96.0324 532.26 -95.8824 542.183 -91.4911C552.106 -87.0997 559.894 -79.1167 566.445 -70.6575C574.796 -59.9438 583.1 -47.121 596.673 -44.7403C606.362 -43.0375 616.095 -47.4133 623.948 -53.0473C657.054 -76.7362 667.901 -121.489 700.337 -146.021C710.344 -153.59 721.97 -158.871 733.49 -164.091C755.107 -173.871 779.318 -150.847 794.776 -133.066C810.235 -115.284 819.348 -93.0586 824.67 -70.4571C826.3 -63.5455 828.649 -55.3272 835.668 -53.2002C840.536 -51.7331 845.686 -53.9696 850.029 -56.4826C868.987 -67.4771 883.18 -84.4925 898.652 -99.7409C914.123 -114.989 932.484 -129.303 954.424 -132.221C976.365 -135.139 1001.89 -122.354 1005.32 -101.165C1006.85 -91.3384 1003.65 -81.4183 1003.78 -71.4868C1003.91 -61.5552 1009.46 -50.0589 1019.67 -48.9165C1023.67 -48.4603 1027.64 -49.7213 1031.43 -50.9575C1044.38 -55.3352 1055.53 -61.9204 1069.06 -63.8427Z" fill="#8416ED"/>
<path d="M903.051 28.34C912.317 25.0819 921.98 21.7629 931.743 22.8633C941.505 23.9637 951.362 30.856 952.426 40.6117C953.778 53.0201 941.215 63.0729 940.414 75.4728C939.335 91.8449 959.002 102.35 975.386 101.192C991.77 100.034 1007.01 91.9096 1023.37 90.5143C1039.74 89.1189 1059.6 98.8711 1059.21 115.287C1058.82 131.703 1039.55 141.005 1033.87 156.371C1025.66 178.636 1048.36 199.404 1068.51 211.937C1088.66 224.469 1112.2 243.403 1106.24 266.37C1100.64 287.886 1071.22 297.687 1068.27 319.717C1066.24 334.83 1077.73 347.89 1086.69 360.226C1095.65 372.563 1102.32 390.774 1092 402.018C1086.72 407.767 1078.42 409.727 1072.53 414.855C1055.87 429.355 1067.48 456.534 1080.74 474.204C1093.99 491.875 1108.45 516.395 1094.93 533.882C1089.99 540.28 1082.14 543.948 1077.21 550.36C1065.56 565.505 1074.76 587.038 1082.66 604.449C1090.57 621.86 1094.85 646.547 1078.52 656.528C1073.22 659.759 1066.78 660.517 1060.58 660.671C1047.17 660.999 1033.68 658.902 1020.38 660.614C1007.07 662.325 993.246 668.892 987.888 681.19C976.855 706.445 1006.32 739.754 988.829 761.072C981.142 770.44 967.108 772.193 955.359 769.197C943.609 766.2 933.256 759.407 922.386 754.036C918.441 752.089 914.001 750.288 909.761 751.459C905.891 752.53 903.066 755.845 900.926 759.226C889.261 777.349 888.454 801.201 875.213 818.231C860.868 836.717 832.373 842.315 812.06 830.727C795.141 821.047 781.637 800.697 762.268 803.043C746.337 804.967 737.021 821.472 724.11 830.932C697.93 850.014 654.148 831.752 649.314 799.727C647.014 784.534 647.028 762.329 631.668 761.735C626.643 761.529 622.051 764.353 617.852 767.139C600.758 778.364 583.712 790.46 564.028 796.026C544.345 801.592 520.98 799.199 506.815 784.456C513.674 766.194 517.151 739.636 498.925 732.665C482.689 726.461 466.711 743.728 449.369 744.137C431.593 744.506 417.681 722.457 425.672 706.585C430.679 696.638 442.067 689.739 443.226 678.644C444.801 663.639 426.877 654.446 411.876 652.748C396.875 651.05 379.428 651.403 369.81 639.74C358.485 626.061 366.648 603.995 381.079 593.627C387.642 588.912 395.327 585.643 400.883 579.786C406.438 573.928 409.108 563.96 403.796 557.935C397.158 550.32 385.003 554.343 375.177 556.722C360.628 560.195 345.326 558.562 331.84 552.097C321.596 547.153 312.024 538.129 311.535 526.765C310.398 500.513 351.334 495.664 364.781 473.088C371.878 461.182 369.809 445.29 362.114 433.799C354.418 422.307 341.853 414.749 328.746 410.203C316.193 405.86 299.787 400.391 299.669 387.11C299.549 374.713 314.318 368.323 326.528 366.079C338.737 363.836 353.593 360.408 356.978 348.486C360.746 335.395 347.486 324.358 336.826 315.886C326.166 307.415 316.213 291.343 325.692 281.574C328.402 278.783 332.211 277.316 335.987 276.367C349.593 272.958 365.199 274.834 376.404 266.397C402.207 246.985 377.427 198.428 401.018 176.377C417.099 161.343 432.165 172.668 449.377 178.123C450.997 170.623 461.559 157.868 469.827 157.286C473.826 156.992 477.843 157.492 481.647 158.756C485.451 160.021 488.967 162.026 491.992 164.656C495.587 168.075 499.873 170.685 504.563 172.308C509.137 173.728 514.386 173.514 518.411 170.902C521.185 168.931 523.379 166.251 524.764 163.143C529.882 152.695 529.194 140.406 527.596 128.88C525.999 117.354 523.613 105.637 525.736 94.198C526.522 89.9543 527.985 85.7053 530.86 82.4934C535.755 77.0288 544.02 75.5273 551.151 77.2109C558.281 78.8945 564.454 83.3443 569.902 88.3369C576.753 94.5859 583.933 102.285 593.206 102.159C599.837 102.079 605.713 97.8338 610.177 92.9586C629.03 72.4804 630.471 40.467 648.77 19.4947C654.412 13.0262 661.427 7.91268 668.384 2.85746C681.416 -6.62497 700.371 5.9963 712.881 16.1742C725.392 26.352 734.262 40.3697 740.675 55.1449C742.63 59.665 745.253 64.9814 750.153 65.5237C753.57 65.9112 756.686 63.7131 759.235 61.4374C770.36 51.4715 777.56 37.9911 785.832 25.5616C794.105 13.132 804.407 0.977632 818.551 -3.84933C832.695 -8.67629 851.193 -3.18751 856.143 10.8664C858.433 17.3854 857.573 24.5823 858.936 31.3711C860.299 38.1599 865.483 45.2999 872.335 44.7517C875.044 44.5446 877.493 43.1802 879.9 41.854C887.841 37.2968 894.371 31.3421 903.051 28.34Z" fill="#9525FF"/>
</g>
</svg>