<svg width="419" height="547" viewBox="0 0 419 547" fill="none" xmlns="http://www.w3.org/2000/svg">
<path d="M150.133 431.39L79.3955 473.356L75.516 464.604L136.691 427.437L150.133 431.39Z" fill="#66E2FF"/>
<path d="M310.29 428.51L263.225 511.113L252.894 502.438L260.41 496.668L299.769 429.231L312.493 428.233" fill="#66E2FF"/>
<path d="M259.36 23.3621L188.485 21.3593C188.485 21.3593 142.831 18.5201 139.715 78.43L136.684 134.046L131.067 298.869L130.972 349.22C130.972 349.22 130.647 391.334 145.621 405.934L171.718 425.091L197.679 423.729L281.032 426.894C281.032 426.894 346.022 425.63 355.499 383.497C355.879 381.825 355.879 381.825 355.879 381.825L360.008 350.073L361.037 324.281L366.243 158.776L367.01 107.739C367.01 107.739 369.926 35.5107 325.344 26.9422C325.332 26.9437 309.181 23.6443 259.36 23.3621Z" fill="#000C3D"/>
<path d="M272.698 42.5476L199.525 40.2562C199.525 40.2562 156.516 34.0527 159.344 118.661L155.679 231.445L155.241 308.836C155.241 308.836 152.805 348.701 174.5 364.321C174.5 364.321 187.067 372.511 193.032 371.436L294.64 375.591C294.64 375.591 329.248 379.085 337.273 334.969C337.273 334.969 337.713 321.811 338.643 310.072L343.523 191.734L343.865 111.96C343.865 111.96 349.084 48.8627 304.047 43.5637L272.698 42.5476Z" fill="#9525FF"/>
<path d="M252.687 299.895C252.702 299.725 255.572 296.429 252.932 294.571C250.292 292.713 249.748 293.455 247.949 294.078C247.661 294.175 238.408 302.496 225.179 295.172C225.179 295.172 222.047 291.981 219.269 294.953C219.269 294.953 217.584 298.112 219.624 299.889L223.903 303.008L226.829 300.162C226.829 300.162 231.579 301.382 231.573 301.334C231.567 301.287 229.388 304.821 229.388 304.821C229.388 304.821 243.316 306.608 247.477 302.764C247.476 302.752 252.581 300.775 252.687 299.895Z" fill="#4AE2FF"/>
<path d="M263.376 510.011C263.376 510.011 264.815 491.699 248.217 482.934C248.217 482.934 240 489.441 244.599 517.99C244.599 517.99 253.614 525.58 257.432 520.732C261.251 515.885 263.583 514.822 263.376 510.011Z" fill="#0218BF"/>
<path d="M79.396 473.356C79.396 473.356 72.1471 450.337 54.553 444.271C54.553 444.271 51.6219 464.407 54.8381 477.55C54.8381 477.55 61.837 485.946 68.0298 482.761C68.0298 482.761 78.2677 479.694 79.396 473.356Z" fill="#0218BF"/>
<path d="M266.568 365.621C266.568 365.621 229.587 394.548 193.526 364.468L192.347 363.413L195.7 452.01C195.7 452.01 210.028 481.863 256.565 457.268L266.795 368.287L266.568 365.621Z" fill="#EFD8F2"/>
<path d="M131.069 298.869L131.032 315.705C131.032 315.705 104.077 337.393 111.068 365.918C111.068 365.918 121.992 403.334 147.452 406.221C147.452 406.221 164.338 408.766 182.427 393.595L186.428 389.434C186.428 389.434 191.613 381.203 194.954 383.658C194.954 383.658 196.193 390.457 188.278 392.859C188.278 392.859 196.019 391.754 198.646 393.698C198.646 393.698 200.495 396.064 195.162 399.574C195.162 399.574 187.783 404.616 194.033 407.44C194.033 407.44 199.103 406.525 200.108 408.866C200.108 408.866 200.196 415.219 188.583 418.447C188.583 418.447 177.694 437.009 134.447 429.776C134.447 429.776 96.427 424.594 89.276 372.014C89.276 372.014 83.2273 339.785 108.851 314.306C108.839 314.308 125.452 299.647 131.069 298.869Z" fill="#4AE2FF"/>
<path d="M226.5 330.835C228.271 330.756 230.063 330.748 231.885 330.795C253.112 331.399 269.673 340.735 268.867 351.64C268.073 362.556 250.221 370.9 228.994 370.296C207.768 369.692 191.206 360.356 192 349.44C192.66 340.43 204.979 333.155 221.224 331.257" fill="#FF8E0C"/>
<path d="M231.572 301.322L226.828 300.15C226.828 300.15 218.688 306.118 219.234 316.685C219.81 327.681 223.598 351.4 223.598 351.4C223.598 351.4 227.149 356.006 230.807 351.131C230.807 351.131 223.29 322.347 225.164 317.347C225.166 317.359 226.713 306.793 231.572 301.322Z" fill="white"/>
<path d="M271.346 359.402L268.661 352.112C268.661 352.112 267.393 370.45 228.994 370.296C228.994 370.296 194.407 368.689 191.577 350.865L188.315 359.661C188.315 359.661 204.735 377.437 222.55 377.7C222.55 377.7 253.361 381.622 269.972 361.776L271.358 359.593" fill="#FF860C"/>
<path d="M259.969 427.689L264.213 385.456C264.213 385.456 253.126 388.185 251.255 397.419C251.255 397.419 249.416 419.728 239.921 416.939C239.921 416.939 232.843 413.462 228.867 418.87C228.867 418.87 222.02 430.246 217.217 431.86C217.217 431.86 213.02 433.591 207.414 427.282C207.414 427.282 204.405 424.207 201.431 426.013L195.196 427.422L195.441 445.258C195.441 445.258 201.769 445.545 205.976 450.683C205.976 450.683 214.61 459.066 220.405 452.526C220.405 452.526 224.689 445.166 228.029 444.554C228.029 444.554 230.232 442.46 242.445 447.349C242.445 447.349 248.167 448.074 251.224 439.857C251.224 439.857 252.19 433.468 253.812 430.773C253.81 430.761 257.592 426.581 259.969 427.689Z" fill="#59FF72"/>
<path d="M361.853 303.197L361.039 324.281C361.039 324.281 383.5 359.019 355.501 383.497C355.501 383.497 316.949 419.167 270.614 397.801C270.614 397.801 270.826 382.543 268.776 379.637C266.726 376.73 264.169 389.023 264.169 389.023C264.169 389.023 262.475 393.35 259.744 387.798C259.744 387.798 256.339 381.862 254.652 383.47C252.965 385.077 252.031 386.542 254.943 395.067C254.943 395.067 253.148 400.31 250.356 397.533C250.356 397.533 244.226 393.178 243.475 394.283C243.475 394.283 238.165 393.675 250.034 407.415C250.034 407.415 254.104 416.817 272.5 424.67C272.5 424.67 294.965 431.868 310.293 428.522C310.293 428.522 337.451 426.251 365.035 405.074C365.035 405.074 383.52 389.419 386.453 364.038C386.452 364.026 390.885 335.075 361.853 303.197Z" fill="#4AE2FF"/>
<path d="M256.397 521.669C256.397 521.669 253.516 488.416 248.219 482.934C248.219 482.934 245.46 479.84 243.696 494.523C243.696 494.523 242.475 511.7 244.601 517.99C244.601 517.99 251.968 523.188 256.397 521.669Z" fill="#000070"/>
<path d="M54.5536 444.271C59.4299 447.172 68.0304 482.761 68.0304 482.761C61.6155 485.806 54.8388 477.55 54.8388 477.55C51.7402 467.448 53.9784 447.64 54.4099 444.181C54.4617 444.211 54.5018 444.242 54.5536 444.271Z" fill="#000070"/>
<path opacity="0.9" d="M272.697 42.5481L156.362 225.789L158.651 166.476L236.429 40.9713L272.697 42.5481Z" fill="#955CFF"/>
<path opacity="0.5" d="M180.927 26.5928C182.441 27.3409 174.807 38.0097 163.793 46.1075C152.78 54.2054 150.288 64.4323 150.845 66.949C151.403 69.4775 142.988 49.529 162.927 33.5716C182.866 17.6143 180.927 26.5928 180.927 26.5928Z" fill="#3F41FF"/>
<path d="M115.916 308.402L131.068 298.87L130.475 315.884L123.433 323.41C123.433 323.41 125.513 310.961 115.916 308.402Z" fill="#0139F2"/>
<path d="M139.338 437.969C139.338 437.969 127.11 439.277 122.762 435.89L134.432 429.767L149.212 431.626L139.338 437.969Z" fill="#0139F2"/>
<path d="M299.726 447.067C299.843 446.848 295.342 441.867 289.841 445.097C289.841 445.097 297.977 429.324 298.134 429.328C298.302 429.331 310.29 428.51 310.29 428.51L299.726 447.067Z" fill="#0139F2"/>
<path d="M229.019 299.874C229.019 299.874 222.928 304.923 221.902 311.212L220.713 313.046L221.066 315.853C221.066 315.853 224.553 348.476 225.744 353.067C225.744 353.067 225.523 353.131 223.587 351.413C223.587 351.413 218.143 317.869 219.428 315.457C219.428 315.457 219.348 305.349 226.816 300.151L229.019 299.874Z" fill="#0139F2"/>
<path d="M223.587 351.414L203.517 336.179L208.773 333.966L223.021 346.913L223.587 351.414Z" fill="#0139F2"/>
<path d="M230.386 300.894C230.386 300.894 226.1 305.559 224.987 311.727L223.429 313.018L224.371 316.015C224.371 316.015 222.111 325.407 229.406 352.053" stroke="#FF3683" stroke-width="0.329303" stroke-miterlimit="10"/>
<path d="M229.086 300.408C229.086 300.408 223.262 307.288 223.811 311.658L221.368 313.277L222.997 316.188C222.997 316.188 220.5 321.495 227.679 353.437" stroke="#FF3683" stroke-width="0.329303" stroke-miterlimit="10"/>
<path opacity="0.6" d="M224.867 353.177L225.564 353.174C225.564 353.174 219.82 324.419 221.066 315.853L219.639 313.121L221.902 311.212C221.902 311.212 221.568 307.982 227.621 300.05" stroke="#FF3683" stroke-width="0.329303" stroke-miterlimit="10"/>
<path d="M179.34 282.13C175.846 282.569 173.383 285.754 173.82 289.236C174.26 292.73 177.434 295.206 180.928 294.767C184.422 294.328 186.885 291.143 186.446 287.649C186.008 284.167 182.834 281.69 179.34 282.13Z" fill="#0000E2"/>
<path d="M307.775 282.924C304.281 283.364 301.807 286.55 302.244 290.032C302.683 293.526 305.87 296.001 309.364 295.562C312.846 295.124 315.321 291.938 314.882 288.444C314.444 284.961 311.258 282.487 307.775 282.924Z" fill="#0000E2"/>
<path d="M361.719 302.515L366.859 139.064" stroke="#0000E2" stroke-width="0.658605" stroke-linecap="round" stroke-linejoin="round"/>
<path d="M355.499 383.497C358.327 371.447 359.702 357.402 360.482 341.977L361.037 324.281" stroke="#0000E2" stroke-width="0.658605" stroke-linecap="round" stroke-linejoin="round"/>
<path d="M260.144 426.212L260.58 426.229L281.032 426.895" stroke="#0000E2" stroke-width="0.658605" stroke-miterlimit="10"/>
<path d="M183.13 423.693C183.991 423.753 184.85 423.79 185.744 423.822L194.648 424.11" stroke="#0000E2" stroke-width="0.658605" stroke-linecap="round" stroke-linejoin="round"/>
<path d="M366.858 139.064C368.481 74.8306 364.845 26.7659 310.217 24.9946L195.229 21.3064C131.781 19.2363 138.581 84.1438 135.978 163.744L132.376 276.352C130.586 331.98 126.391 380.825 145.622 405.935" stroke="#0000E2" stroke-width="0.658605" stroke-linecap="round" stroke-linejoin="round"/>
<path d="M266.138 374.061L292.617 375.003C330.552 376.347 337.788 346.719 339.759 304.59L342.851 194.429L344.444 137.334" stroke="#0000E2" stroke-width="0.658605" stroke-linecap="round" stroke-linejoin="round"/>
<path d="M344.443 137.333C345.608 84.3941 342.564 44.7731 298.5 43.1898L205.769 39.88C154.607 38.0219 160.229 91.5516 158.322 157.157L155.673 249.973C153.88 312.761 148.397 365.04 192.641 371.112" stroke="#0000E2" stroke-width="0.658605" stroke-linecap="round" stroke-linejoin="round"/>
<path d="M263.377 510.011C263.859 509.638 264.269 509.165 264.596 508.607L310.292 428.51" stroke="#0000E2" stroke-width="0.658605" stroke-miterlimit="10"/>
<path d="M298.892 429.233L260.411 496.668" stroke="#0000E2" stroke-width="0.658605" stroke-miterlimit="10"/>
<path d="M79.3958 473.356L150.068 431.639" stroke="#0000E2" stroke-width="0.658605" stroke-miterlimit="10"/>
<path d="M134.435 429.778L75.5122 464.568" stroke="#0000E2" stroke-width="0.658605" stroke-miterlimit="10"/>
<path d="M268.61 352.575C266.906 363.04 249.462 370.899 228.839 370.316C207.613 369.712 191.051 360.376 191.845 349.46C192.505 340.45 204.824 333.174 221.069 331.277" stroke="#0000E2" stroke-width="0.658605" stroke-miterlimit="10"/>
<path d="M226.345 330.854C228.116 330.776 229.907 330.767 231.73 330.815C252.957 331.419 269.518 340.755 268.712 351.66" stroke="#0000E2" stroke-width="0.658605" stroke-miterlimit="10"/>
<path d="M193.102 383.302L192.641 371.112L192.346 363.413" stroke="#0000E2" stroke-width="0.658605" stroke-miterlimit="10"/>
<path d="M193.441 392.211L193.329 389.121" stroke="#0000E2" stroke-width="0.658605" stroke-miterlimit="10"/>
<path d="M194.019 407.429L193.749 400.401" stroke="#0000E2" stroke-width="0.658605" stroke-miterlimit="10"/>
<path d="M261.079 418.045L260.145 426.211L260.133 426.212L260.078 426.737L256.565 457.268C256.565 457.268 215.755 481.672 195.7 452.01L194.647 424.11L194.341 416.027" stroke="#0000E2" stroke-width="0.658605" stroke-miterlimit="10"/>
<path d="M264.697 386.634L264.54 387.965" stroke="#0000E2" stroke-width="0.658605" stroke-miterlimit="10"/>
<path d="M267.169 365.04L266.137 374.06L264.717 386.402" stroke="#0000E2" stroke-width="0.658605" stroke-miterlimit="10"/>
<path d="M268.712 351.66C268.69 351.963 268.656 352.268 268.61 352.575" stroke="#0000E2" stroke-width="0.658605" stroke-miterlimit="10"/>
<path d="M227.142 299.857C225.465 299.154 223.781 298.198 222.115 296.904" stroke="#0000E2" stroke-width="0.658605" stroke-miterlimit="10" stroke-linecap="round"/>
<path d="M231.757 301.166C230.272 300.932 228.753 300.521 227.217 299.884" stroke="#0000E2" stroke-width="0.658605" stroke-miterlimit="10" stroke-linecap="round"/>
<path d="M250.131 296.583C250.131 296.583 241.676 302.736 231.77 301.166" stroke="#0000E2" stroke-width="0.658605" stroke-miterlimit="10" stroke-linecap="round"/>
<path d="M229.439 304.742C232.588 305.478 235.688 305.545 238.59 305.18C244.393 304.451 249.393 302.018 252.292 299.909C253.891 298.745 254.247 296.511 253.084 294.912C251.921 293.314 249.698 292.956 248.086 294.109C247.546 294.502 235.347 303.025 224.363 294.505C222.803 293.293 220.552 293.576 219.341 295.136C218.117 296.697 218.4 298.948 219.972 300.158C221.345 301.224 222.742 302.095 224.154 302.796" stroke="#0000E2" stroke-width="0.658605" stroke-miterlimit="10"/>
<path d="M361.718 302.515C361.718 302.515 415.563 357.202 365.032 405.061C365.032 405.061 340.799 424.47 310.291 428.51C306.574 429.001 302.769 429.263 298.892 429.233C293.04 429.198 287.055 428.483 281.032 426.894C274.498 425.165 267.943 422.403 261.497 418.305C261.354 418.227 261.223 418.135 261.079 418.045C259.875 417.27 258.676 416.446 257.472 415.575C254.865 413.689 251.902 410.031 249.407 406.543C246.245 402.164 243.838 398.039 243.838 398.039C239.909 390.712 248.628 396.233 248.628 396.233C249.65 396.899 250.514 397.26 251.232 397.422C254.347 398.089 254.866 394.848 254.866 394.848C254.533 393.915 254.288 393.019 254.096 392.165C253.233 388.267 253.675 385.372 253.675 385.372C254.281 381.097 257.432 384.25 259.658 387.123C260.939 388.791 261.917 390.352 261.917 390.352C263.109 390.455 263.785 389.804 264.18 389.021C264.343 388.688 264.455 388.337 264.535 388.014C264.532 387.99 264.53 387.978 264.54 387.965C264.669 387.359 264.7 386.838 264.698 386.634C264.702 386.573 264.699 386.549 264.699 386.549C264.705 386.5 264.711 386.452 264.717 386.403C265.514 379.914 268.129 378.899 268.129 378.899C270.562 379.881 270.418 397.104 270.418 397.104C303.674 415.782 343.571 392.251 343.571 392.251C348.311 389.478 352.248 386.528 355.5 383.497C383.435 357.451 361.038 324.281 361.038 324.281L361.718 302.515Z" stroke="#0000E2" stroke-width="0.658605" stroke-miterlimit="10"/>
<path d="M183.129 423.693C186.194 421.852 188.202 419.927 188.83 418.224C188.83 418.224 191.533 417.523 194.341 416.027C197.217 414.499 200.196 412.163 200.488 408.938C200.488 408.938 199.734 406.771 194.018 407.429C193.758 407.462 193.485 407.496 193.202 407.544C193.202 407.544 190.69 404.118 193.748 400.401C194.393 399.598 195.303 398.798 196.539 398.005C196.539 398.005 202.284 393.649 195.814 392.237C195.814 392.237 194.951 392.069 193.44 392.211C192.441 392.3 191.169 392.52 189.667 393.01C189.667 393.01 191.722 391.271 193.329 389.12C194.801 387.143 195.893 384.828 194.678 383.2C194.678 383.2 194.123 382.993 193.103 383.302C191.523 383.753 188.847 385.437 185.406 390.983C185.406 390.983 166.215 409.83 145.621 405.934C133.347 403.615 120.573 393.213 111.066 365.919C111.066 365.919 102.393 342.67 130.475 315.883L131.068 298.869C131.068 298.869 72.755 323.103 92.7366 387.593C100.812 413.648 117.328 425.588 134.434 429.778C139.661 431.07 144.954 431.632 150.068 431.639C163.694 431.694 176.115 427.907 183.129 423.693Z" stroke="#0000E2" stroke-width="0.658605" stroke-miterlimit="10"/>
<path d="M183.115 423.695L183.129 423.693" stroke="#0000E2" stroke-width="0.658605" stroke-linecap="round" stroke-linejoin="round"/>
<path d="M68.0284 482.762C68.0284 482.762 78.3636 478.936 79.3961 473.368C79.3961 473.368 79.3961 473.368 79.3947 473.356C79.3042 473.115 77.9867 469.334 75.5108 464.568C71.4855 456.857 64.3994 446.523 54.5516 444.272C54.5516 444.272 52.127 455.994 54.8368 477.55C54.8368 477.55 59.673 484.63 68.0284 482.762Z" stroke="#0000E2" stroke-width="0.658605" stroke-miterlimit="10"/>
<path d="M68.0291 482.761C68.0291 482.761 62.7094 455.47 54.5523 444.271" stroke="#0000E2" stroke-width="0.658605" stroke-miterlimit="10"/>
<path d="M263.376 510.011C263.445 509.22 263.403 508.407 263.24 507.586C263.24 507.586 263.125 506.481 262.786 504.743C262.372 502.69 261.655 499.76 260.412 496.668C258.259 491.224 254.532 485.304 248.218 482.933C247.978 482.843 247.74 482.765 247.501 482.687C247.501 482.687 240.236 489.688 244.6 517.99C244.6 517.99 253.964 524.428 257.433 520.732C257.634 520.514 257.818 520.25 257.974 519.966C257.974 519.966 262.943 515.371 263.376 510.011Z" stroke="#0000E2" stroke-width="0.658605" stroke-miterlimit="10"/>
<path d="M257.433 520.732C255.841 516.866 256.15 498.082 248.218 482.934" stroke="#0000E2" stroke-width="0.658605" stroke-miterlimit="10"/>
<path d="M225.498 315.789C225.656 314.939 225.891 314.224 226.219 313.677C226.219 313.677 225.496 311.374 229.439 304.743C230.097 303.661 230.862 302.47 231.769 301.165L231.757 301.167L227.216 299.885C227.191 299.876 227.166 299.867 227.141 299.858C227.141 299.858 225.759 300.826 224.153 302.796C222.091 305.341 219.672 309.544 219.429 315.457C219.356 316.983 219.429 318.622 219.697 320.369L221.068 331.277L223.598 351.4C223.598 351.4 226.635 356.324 230.807 351.131C230.807 351.131 227.996 340.825 226.345 330.854C225.392 324.995 224.825 319.243 225.486 315.791" stroke="#0000E2" stroke-width="0.658605" stroke-miterlimit="10"/>
<path d="M226.22 313.677C226.22 313.677 221.738 314.108 219.753 312.481" stroke="#0000E2" stroke-width="0.658605" stroke-miterlimit="10"/>
<path d="M225.499 315.79C225.499 315.79 225.499 315.79 225.487 315.791C225.183 315.865 220.926 316.93 219.429 315.458" stroke="#0000E2" stroke-width="0.658605" stroke-miterlimit="10"/>
<path d="M225.971 311.7C225.971 311.7 221.666 312.096 220.336 310.038" stroke="#0000E2" stroke-width="0.658605" stroke-miterlimit="10"/>
<path d="M230.25 348.326C233.448 348.886 235.706 350.479 235.572 352.289C235.414 354.474 231.845 356.138 227.596 356.022C223.357 355.894 220.043 354.036 220.202 351.851C220.282 350.674 221.379 349.633 223.038 348.956" stroke="#0000E2" stroke-width="0.658605" stroke-miterlimit="10"/>
<path d="M268.836 351.019L271.371 359.603C271.371 359.603 270.228 361.997 267.17 365.04C261.503 370.685 249.225 378.581 225.367 377.718C225.367 377.718 207.403 377.51 192.348 363.413C191.079 362.213 189.834 360.926 188.611 359.528L191.846 349.46" stroke="#0000E2" stroke-width="0.658605" stroke-miterlimit="10"/>
<path d="M254.096 392.165C252.693 393.918 251.838 395.637 251.232 397.422" stroke="#0000E2" stroke-width="0.658605" stroke-miterlimit="10"/>
<path d="M264.181 389.021L264.51 385.418C264.123 385.792 261.915 386.021 260.686 386.585C260.334 386.749 259.996 386.936 259.659 387.123" stroke="#0000E2" stroke-width="0.658605" stroke-miterlimit="10"/>
<path d="M249.406 406.543C249.328 406.974 249.24 407.418 249.151 407.862C248.317 411.853 247.236 416.368 242.462 417.053C238.149 417.679 236.191 413.967 231.804 416.395C224.965 420.179 222.811 434.538 213.403 431.858C209.634 430.78 207.104 425.588 203.038 425.305C199.968 425.09 198.055 428.157 195.194 427.41L195.852 445.374C201.703 444.061 205.577 452.393 211.75 454.312C222.283 457.608 221.451 445.152 229.186 443.999C237.157 442.805 243.026 452.45 249.468 443.687C252.281 439.845 251.246 435.535 253.241 431.591C254.928 428.263 258.028 428.523 260.078 426.737C260.264 426.593 260.424 426.429 260.579 426.229C260.655 426.159 260.729 426.078 260.789 425.986L261.496 418.305" stroke="#0000E2" stroke-width="0.658605" stroke-miterlimit="10"/>
</svg>


