<svg width="148" height="120" viewBox="0 0 148 120" fill="none" xmlns="http://www.w3.org/2000/svg">
<path d="M136.419 40.7011L130.236 30.5735L113.518 29.0929C112.874 29.0377 111.74 27.4377 111.325 27.0183C110.169 25.8454 109.034 24.6462 107.874 23.4746C105.059 20.6289 101.603 18.7481 97.9482 17.1979C69.5168 5.0949 31.5168 21.6107 24.8652 52.7195C24.2326 55.6667 23.9202 58.6735 23.9334 61.6878C23.9363 61.9917 24.3378 64.9576 24.1432 65.1054C14.6613 72.2729 12.0551 80.8063 12.0551 80.8063L12.861 81.79L19.04 91.3843C29.1196 90.5876 32.0988 89.0074 32.0988 89.0074C59.085 119.054 112.549 107.93 122.728 66.5024C123.526 63.0284 123.946 59.4782 123.979 55.9139C123.985 55.6026 124.134 52.4575 124.317 52.3499C131.147 48.2715 134.909 42.642 136.401 40.716" fill="#FFD800"/>
<path d="M81.9067 80.3023C64.6886 87.9651 45.447 82.3032 38.9252 67.6559C24.8793 31.7715 84.0359 5.46389 101.276 39.9092C107.799 54.5616 99.1235 72.6559 81.9067 80.3023Z" fill="#E09812"/>
<path d="M32.0988 89.0073C30.7114 90.4062 19.0401 91.3841 19.0401 91.3841L12.0551 80.8062C22.9415 80.122 29.7564 77.8211 29.7564 77.8211C56.0965 110.944 108.803 95.8322 116.402 56.3604C117.12 52.9798 117.527 49.5404 117.616 46.0854C117.619 45.7804 117.248 42.1819 117.426 42.0755C122.41 39.1207 126.763 35.2121 130.236 30.5733L136.267 40.8493C136.267 40.8493 129.397 49.965 124.335 52.3348C124.335 52.3348 124.173 67.681 119.496 75.8418C119.496 75.8418 112.519 93.4623 93.8886 101.119C75.2585 108.776 60.3756 104.994 60.3756 104.994C60.3756 104.994 44.1018 101.34 35.0601 92.0425L32.0988 89.0073Z" fill="#023AEC"/>
<path d="M136.419 40.7011L130.236 30.5735L113.518 29.0929C112.874 29.0377 111.74 27.4377 111.325 27.0183C110.169 25.8454 109.034 24.6462 107.874 23.4746C105.059 20.6289 101.603 18.7481 97.9482 17.1979C69.5168 5.0949 31.5168 21.6107 24.8652 52.7195C24.2326 55.6667 23.9202 58.6735 23.9334 61.6878C23.9363 61.9917 24.3378 64.9576 24.1432 65.1054C14.6613 72.2729 12.0551 80.8063 12.0551 80.8063L12.861 81.79L19.04 91.3843C29.1196 90.5876 32.0988 89.0074 32.0988 89.0074C59.085 119.054 112.549 107.93 122.728 66.5024C123.526 63.0284 123.946 59.4782 123.979 55.9139C123.985 55.6026 124.134 52.4575 124.317 52.3499C131.147 48.2715 134.909 42.642 136.401 40.716" stroke="#023AEC" stroke-width="0.679803" stroke-miterlimit="10" stroke-linecap="round"/>
<path d="M80.0501 81.0543C62.3514 87.5064 43.5394 80.5295 38.0472 65.4714C26.5052 28.6811 87.3421 6.5363 102.165 42.0916C107.678 57.1499 97.7554 74.5847 80.0501 81.0543Z" stroke="#BA8800" stroke-width="0.679803" stroke-miterlimit="10"/>
<path d="M101.922 41.77C81.0014 16.2153 44.576 32.6342 36.608 58.2806C36.8709 57.4326 36.5332 55.9689 36.6038 55.0758C36.8081 52.3321 37.411 49.6327 38.3935 47.0628C41.8509 37.9527 49.6252 31.4001 58.3608 27.4718C66.9406 23.6074 76.3775 22.5576 85.3149 25.8958C92.8414 28.6936 98.5012 34.5806 101.922 41.77Z" fill="#023AEC"/>
<path d="M94.2247 39.1729L93.322 53.7176C93.322 53.7176 84.1006 70.7771 72.4338 63.1784C60.7671 55.5797 52.9937 71.6747 52.9937 71.6747L50.5635 66.1569C50.5635 66.1569 58.4603 44.4758 70.6815 54.8972C87.0322 68.8396 94.2247 39.1729 94.2247 39.1729Z" fill="#023AEC"/>
<path d="M94.2686 38.9755C92.8931 45.3619 91.2895 53.0795 86.2053 57.6453C84.9244 58.7906 83.3884 59.6132 81.7252 60.0444C80.062 60.4757 78.3198 60.5032 76.6438 60.1245C72.7521 59.3306 69.551 56.5448 65.6039 55.9671C65.1233 55.8933 64.6377 55.8571 64.1515 55.8587C58.101 55.8939 53.6319 62.7069 50.7041 67.1066C50.8144 66.9414 50.0772 65.2362 50.018 65.0099C49.5299 63.1811 49.2928 61.2945 49.3134 59.4018C49.3973 56.5942 50.1302 53.8441 51.4547 51.3671C52.7792 48.89 54.6593 46.7534 56.9477 45.1246C62.5219 41.2703 68.8428 42.8644 74.3299 46.073C82.6939 50.9529 92.4425 47.5315 94.2686 38.9755Z" fill="#FDD600"/>
</svg>



