<svg width="158" height="161" viewBox="0 0 158 161" fill="none" xmlns="http://www.w3.org/2000/svg">
<path d="M156.924 11.8198L141.542 1L116.313 9.40713C115.349 9.72827 112.69 8.12259 111.825 7.76028C109.404 6.78041 106.992 5.75937 104.571 4.77949C98.6832 2.4245 92.4746 1.86459 86.1836 1.92223C37.2393 2.28454 -7.56324 50.2573 2.4002 99.6627C3.34497 104.341 4.78871 108.904 6.70669 113.274C6.90431 113.719 9.35812 117.77 9.17697 118.116C-0.0783252 134.51 1.51908 148.582 1.51908 148.582L3.31419 149.505L18.3417 159.55C32.4634 152.008 35.823 147.858 35.823 147.858C94.0144 174.52 164.664 124.596 153.334 57.9398C152.301 52.3863 150.67 46.9611 148.467 41.7595C148.278 41.2984 146.516 36.6378 146.714 36.366C154.059 26.1391 155.977 15.5746 156.932 11.8362" fill="#FFD800"/>
<path d="M102.693 103.755C82.5111 125.757 50.974 129.668 32.2658 112.5C-10.791 69.2207 58.566 -6.3367 105.353 32.8336C124.069 50.0185 122.875 81.7697 102.693 103.755Z" fill="#C98910"/>
<path d="M35.8148 147.841C34.6702 150.731 18.3335 159.534 18.3335 159.534L1.51086 148.566C16.9007 140.71 25.3902 133.061 25.3902 133.061C84.5615 164.573 151.621 109.354 137.755 47.2106C136.666 41.8428 135.087 36.5865 133.037 31.5079C132.847 31.0632 130.039 26.0733 130.229 25.8098C135.606 18.3658 139.465 9.93538 141.584 1L156.776 12.1327C156.776 12.1327 152.535 29.6963 146.689 36.3496C146.689 36.3496 156.134 58.7468 154.487 73.5684C154.487 73.5684 155.467 103.574 133.226 126.457C110.985 149.34 86.9741 153.226 86.9741 153.226C86.9741 153.226 61.0198 158.167 42.0152 150.386L35.8148 147.841Z" fill="#023AEC"/>
<path d="M156.924 11.8198L141.542 1L116.313 9.40713C115.349 9.72827 112.69 8.12259 111.825 7.76028C109.404 6.78041 106.992 5.75937 104.571 4.77949C98.6832 2.4245 92.4746 1.86459 86.1836 1.92223C37.2393 2.28454 -7.56324 50.2573 2.4002 99.6627C3.34497 104.341 4.78871 108.904 6.70669 113.274C6.90431 113.719 9.35812 117.77 9.17697 118.116C-0.0783252 134.51 1.51908 148.582 1.51908 148.582L3.31419 149.505L18.3417 159.55C32.4634 152.008 35.823 147.858 35.823 147.858C94.0144 174.52 164.664 124.596 153.334 57.9398C152.301 52.3863 150.67 46.9611 148.467 41.7595C148.278 41.2984 146.516 36.6378 146.714 36.366C154.059 26.1391 155.977 15.5746 156.932 11.8362" stroke="#023AEC" stroke-miterlimit="10" stroke-linecap="round"/>
<path d="M100.47 106.028C78.8222 126.613 47.0875 128.26 29.6062 109.881C-10.3546 63.7696 64.05 -6.85555 108.029 35.452C125.486 53.8802 122.126 85.4751 100.47 106.028Z" stroke="#BA8800" stroke-miterlimit="10"/>
<path d="M100.017 29.7868C49.8871 14.8087 16.6537 68.6771 28.9557 109.412C28.5439 108.062 26.8065 106.439 26.0819 105.188C23.6068 100.888 21.5972 96.3358 20.0874 91.6095C15.4268 75.4374 20.9849 62.0238 28.9392 49.1372C36.7699 36.4565 49.5248 27.6788 64.1241 23.6687C70.1931 22.0293 76.5457 21.7273 82.7429 22.7836C88.9401 23.8399 94.8339 26.2294 100.017 29.7868Z" fill="#023AEC"/>
<path d="M94.8049 36.9836L103.36 59.2161C103.36 59.2161 100.709 89.8228 78.9622 86.1257C57.2156 82.4285 56.0628 110.721 56.0628 110.721L49.0473 104.241C49.0473 104.241 45.7535 75.6105 71.1973 75.1906C96.6411 74.7706 94.8049 36.9836 94.8049 36.9836Z" fill="#023AEC"/>
<path d="M94.5908 35.9048C96.6247 46.0494 99.1526 58.2772 94.6485 68.1171C93.5083 70.5923 91.7919 72.7586 89.6431 74.4347C87.4943 76.1107 84.9754 77.248 82.2971 77.7512C76.1461 79.044 69.7399 77.0184 63.6383 78.6735C62.8954 78.8702 62.1687 79.1235 61.4644 79.431C52.6867 83.3011 50.4964 96.0148 49.0143 104.266C49.0719 103.953 46.9228 101.935 46.6923 101.647C44.8352 99.2955 43.301 96.7063 42.1305 93.948C40.4812 89.8142 39.8118 85.3546 40.1746 80.9188C40.5375 76.483 41.9229 72.1915 44.222 68.3806C49.8789 59.2571 60.0811 57.5938 70.0692 58.796C85.3108 60.624 97.3081 49.4666 94.5908 35.9048Z" fill="#FDDC26"/>
</svg>


