<svg width="279" height="309" viewBox="0 0 279 309" fill="none" xmlns="http://www.w3.org/2000/svg">
<path d="M71.1348 47.0702L55.4094 63.9503L61.3908 96.0281C61.6246 97.262 59.2226 100.224 58.6546 101.22C57.0635 103.998 55.4126 106.751 53.8264 109.537C49.9721 116.298 48.26 123.753 47.271 131.408C39.4964 190.98 90.3172 253.483 152.048 249.648C157.897 249.29 163.691 248.3 169.328 246.697C169.895 246.533 175.238 244.228 175.617 244.515C194.002 258.516 211.344 258.927 211.344 258.927L212.764 256.903L227.493 240.31C220.724 221.855 216.205 217.104 216.205 217.104C258.334 150.843 209.511 56.5632 126.613 59.195C119.691 59.5197 112.824 60.5929 106.132 62.396C105.546 62.5478 99.5794 63.9157 99.2822 63.6299C88.0699 52.9773 75.5592 48.8803 71.172 47.0958" fill="#FDDC26"/>
<path d="M173.826 128.402C197.189 156.629 196.663 195.621 172.652 215.501C112.817 260.59 32.5846 163.601 88.0523 113.285C112.072 93.399 150.494 100.169 173.826 128.402Z" fill="#E09812"/>
<path d="M216.205 217.103C219.55 218.969 227.492 240.31 227.492 240.31L211.344 258.927C204.363 238.902 196.486 227.346 196.486 227.346C244.714 160.684 188.821 69.91 110.935 76.3488C104.23 76.7746 97.5769 77.8147 91.0611 79.456C90.4888 79.6116 83.945 82.1894 83.6527 81.9124C75.5104 74.1267 65.9127 68.0228 55.409 63.9501L71.4915 47.2763C71.4915 47.2763 92.1568 55.367 99.2445 63.6041C99.2445 63.6041 128.063 55.8713 145.792 60.3557C145.792 60.3557 182.438 64.194 206.529 95.0674C230.621 125.941 231.332 155.788 231.332 155.788C231.332 155.788 233.011 188.172 220.337 209.97L216.205 217.103Z" fill="#023AEC"/>
<path d="M71.1348 47.0702L55.4094 63.9503L61.3908 96.0281C61.6246 97.262 59.2226 100.224 58.6546 101.22C57.0635 103.998 55.4126 106.751 53.8264 109.537C49.9721 116.298 48.26 123.753 47.271 131.408C39.4964 190.98 90.3172 253.483 152.048 249.648C157.897 249.29 163.691 248.3 169.328 246.697C169.895 246.533 175.238 244.228 175.617 244.515C194.002 258.516 211.344 258.927 211.344 258.927L212.764 256.903L227.493 240.31C220.724 221.855 216.205 217.104 216.205 217.104C258.334 150.843 209.511 56.5632 126.613 59.195C119.691 59.5197 112.824 60.5929 106.132 62.396C105.546 62.5478 99.5794 63.9157 99.2822 63.6299C88.0699 52.9773 75.5592 48.8803 71.172 47.0958" stroke="#1100A5" stroke-width="1.32168" stroke-miterlimit="10" stroke-linecap="round"/>
<path d="M176.207 131.485C197.555 161.245 194.341 200.121 169.022 218.289C106.18 259.164 32.8623 156.849 91.6742 110.479C116.982 92.2708 154.822 101.721 176.207 131.485Z" stroke="#BA8800" stroke-width="1.32168" stroke-miterlimit="10"/>
<path d="M91.198 111.101C54.3043 163.654 104.119 223.259 156.311 224.75C154.586 224.701 152.022 226.1 150.313 226.436C145.068 227.49 139.699 227.774 134.372 227.28C115.504 225.577 99.1648 214.451 87.2355 200.152C75.5073 186.11 68.6005 168.991 70.1712 150.508C71.469 134.951 79.5282 121.271 91.198 111.101Z" fill="#023AEC"/>
<path d="M90.3664 126.874L118.072 120.948C118.072 120.948 154.843 129.282 146.724 155.105C138.605 180.929 172.811 187.056 172.811 187.056L163.752 194.495C163.752 194.495 119.022 191.062 132.136 162.722C149.68 124.807 90.3664 126.874 90.3664 126.874Z" fill="#023AEC"/>
<path d="M89.9741 126.895C102.652 126.127 117.942 125.088 129.153 132.217C131.968 134.016 134.313 136.461 135.991 139.349C137.669 142.238 138.633 145.485 138.802 148.822C139.353 156.524 135.813 163.976 136.798 171.669C136.911 172.608 137.098 173.536 137.355 174.446C140.589 185.756 155.686 190.557 165.457 193.735C165.09 193.615 162.283 195.888 161.89 196.117C158.722 197.989 155.313 199.421 151.759 200.373C146.458 201.686 140.925 201.754 135.593 200.571C130.262 199.388 125.277 196.986 121.029 193.554C110.894 185.135 110.569 172.466 113.703 160.512C118.461 142.296 106.95 125.834 89.9741 126.895Z" fill="#FDD600"/>
</svg>



