<svg width="337" height="528" viewBox="0 0 337 528" fill="none" xmlns="http://www.w3.org/2000/svg">
<g clip-path="url(#clip0_422_240)">
<path d="M152.295 123.033C139.135 87.0271 119.649 48.2623 91.7844 22.9733C64.5307 -1.77357 30.4082 -3.25178 3.05176e-05 3.37532V527.754C35.0042 528.986 74.2477 525.512 117.749 513.329C235.498 480.317 221.608 459.13 221.608 459.13C221.608 459.13 300.164 465.634 328.724 442.624C357.758 419.22 305.998 216.305 241.078 150.292C208.838 117.477 176.598 116.11 152.295 123.033Z" fill="#9525FF"/>
<path opacity="0.1" d="M221.608 459.105C221.608 459.105 300.164 465.609 328.724 442.599C333.812 438.473 336.458 428.754 336.915 415.179C295.959 430.269 237.889 436.859 216.588 421.338C183.619 342.959 167.134 185.115 167.134 185.115C167.134 185.115 177.633 379.974 156.654 415.894C142.289 440.53 54.1514 443.646 1.52588e-05 443.19V527.741C35.0042 528.973 74.2477 525.499 117.749 513.317C235.498 480.317 221.608 459.105 221.608 459.105Z" fill="#F5F5F5"/>
<path d="M206.107 422.435C198.611 411.545 215.096 442.033 185.129 471.423C162.624 493.473 53.2185 507.552 -7.62939e-06 513.219V527.754C35.0042 528.986 74.2477 525.512 117.748 513.329C235.498 480.317 221.608 459.13 221.608 459.13L223.542 459.266C221.812 443.659 210.652 429.037 206.107 422.435Z" fill="#9525FF"/>
<path opacity="0.3" d="M139.236 289.634C147.716 289.634 146.665 168.535 133.928 111.454C121.192 54.3718 75.5039 -1.94614 7.54759 8.08074L0.000335693 9.20157V22.345C17.4346 20.7559 43.9583 22.3449 67.023 40.4894C105.25 70.57 117.902 160.824 124.364 204.787C130.825 248.75 130.74 289.634 139.236 289.634Z" fill="#F5F5F5"/>
<path opacity="0.1" d="M78.7081 87.1626C78.7081 87.1626 15.7708 77.3081 24.7593 160.098C33.7478 242.887 80.2178 273.3 69.7199 330.998C59.2221 388.696 132.673 406.138 141.661 326.637C150.65 247.137 157.434 98.0517 78.7081 87.1626Z" fill="#F5F5F5"/>
<path opacity="0.3" d="M160.47 138.455C160.47 138.455 188.079 133.047 219.946 161.588C251.813 190.129 273.046 261.093 278.354 268.755C283.662 276.417 283.662 257.952 269.874 215.528C256.086 173.105 224.203 138.393 194.473 127.59C164.743 116.787 155.162 132.283 160.47 138.455Z" fill="#F5F5F5"/>
<path opacity="0.1" d="M248.065 187.308C248.065 187.308 209.194 170.9 212.145 226.454C215.096 282.009 252.05 309.527 259.055 334.952C266.059 360.376 290.039 400.668 314.003 388.683C337.967 376.698 291.532 225.42 248.065 187.308Z" fill="#F5F5F5"/>
</g>
<defs>
<clipPath id="clip0_422_240">
<rect width="337" height="528" fill="white" transform="matrix(-1 0 0 1 337 0)"/>
</clipPath>
</defs>
</svg>
