<svg width="1440" height="1964" viewBox="0 0 1440 1964" fill="none" xmlns="http://www.w3.org/2000/svg">
<path d="M1040.02 1915.24C1040.02 1915.24 1081.5 1891.35 1083.71 1934.17C1084.24 1944.53 1076.21 1952.95 1066 1954.78C1034.24 1960.45 962.56 1969.97 894.767 1956.01C881.62 1953.3 873.798 1939.31 882.216 1928.86C890.581 1918.47 904.497 1910.39 926.23 1921.58C926.23 1921.58 921.155 1894.67 956.591 1887.94C958.295 1887.62 960.015 1887.39 961.744 1887.25C991.687 1884.87 988.865 1916.97 988.865 1916.97C988.865 1916.97 1013.54 1885.76 1040.02 1915.24Z" fill="#FCCCF4"/>
<path d="M1215.09 1.97066C1207.04 1.3108 1065.3 -20.3 1059.23 97.1233C1059.23 97.1233 1064.47 135.594 1089.18 159.811C1089.18 159.811 1008.61 131.469 976.214 159.811C943.815 188.152 992.414 210.423 992.414 210.423C992.414 210.423 907.39 186.172 913.461 254.964C913.461 254.964 802.108 244.835 800.096 285.317C798.612 315.158 814.715 331.805 823.284 338.495C826.52 341.022 830.585 342 834.691 342H1546.87C1546.87 342 1652.45 340.482 1662.34 311.646C1672.24 282.81 1568.21 272.054 1568.21 272.054C1568.21 272.054 1630.37 255.524 1626.64 235.168C1622.92 214.811 1574.25 200.228 1530.96 203.263C1530.96 203.263 1597.78 197.192 1552.25 165.321C1552.25 165.321 1451.25 110.651 1363.19 176.703C1363.13 176.571 1412.49 18.1704 1215.09 1.97066Z" fill="#FCCCF4"/>
<path d="M691.744 1505.24C691.744 1505.24 659.045 1488.32 656.814 1519.23C656.068 1529.58 664.755 1537.66 675.048 1538.94C701.851 1542.29 756.204 1546.42 807.837 1534.29C820.905 1531.22 828.34 1516.37 818.263 1507.51C810.952 1501.07 800.154 1497.6 785.062 1506.25C785.062 1506.25 788.225 1484.05 758.988 1479.85C757.583 1479.65 756.167 1479.52 754.748 1479.47C730.165 1478.63 733.653 1504.78 733.653 1504.78C733.653 1504.78 712.321 1480.16 691.744 1505.24Z" fill="#FCCCF4"/>
<path d="M211.752 1676.31C211.752 1676.31 179.044 1659.4 176.829 1690.32C176.088 1700.67 184.779 1708.74 195.074 1710.02C221.878 1713.35 276.233 1717.45 327.86 1705.3C340.926 1702.22 348.354 1687.37 338.273 1678.51C330.958 1672.08 320.158 1668.61 305.071 1677.27C305.071 1677.27 308.222 1655.07 278.984 1650.88C277.578 1650.68 276.162 1650.55 274.743 1650.51C250.159 1649.67 253.66 1675.82 253.66 1675.82C253.66 1675.82 232.316 1651.21 211.752 1676.31Z" fill="#FCCCF4"/>
<path d="M278.609 313.13C278.609 313.13 404.343 248.584 413.722 366.08C417.022 407.427 381.989 439.68 340.804 444.607C236.572 457.077 28.5085 471.718 -169.488 424.87C-221.709 412.514 -251.355 352.615 -210.176 318.207C-181.753 294.458 -140.419 282.534 -83.407 315.601C-83.407 315.601 -95.2947 229.26 18.1903 213.389C23.6468 212.622 29.1407 212.152 34.6478 211.98C130.024 209.08 116.046 310.667 116.046 310.667C116.046 310.667 199.218 215.31 278.609 313.13Z" fill="#FCCCF4"/>
<path d="M554.222 607.541C554.222 607.541 621.477 573.016 640.666 621.428C655.95 659.988 615.136 694.543 573.862 698.66C505.103 705.518 393.524 710.535 282.589 689.419C229.873 679.385 199.796 608.654 252.163 596.937C267.967 593.401 287.134 595.911 310.061 609.208C310.061 609.208 302.043 550.975 378.583 540.271C382.263 539.754 385.968 539.436 389.683 539.321C454.009 537.365 444.581 605.88 444.581 605.88C444.581 605.88 500.677 541.567 554.222 607.541Z" fill="#FCCCF4"/>
<path d="M1313.85 1365.59C1313.85 1365.59 1222.34 1319.76 1207.32 1395.84C1199.29 1436.54 1236.98 1469.07 1278.26 1473.18C1362.22 1481.54 1511.62 1488.55 1656.83 1456.21C1709.22 1444.54 1739.3 1379.57 1691.3 1355.55C1669.59 1344.69 1641.17 1343.34 1605.06 1364.74C1605.06 1364.74 1613.95 1295.24 1522.55 1283.37C1518.15 1282.79 1513.73 1282.46 1509.3 1282.36C1432.56 1280.78 1444.59 1362.34 1444.59 1362.34C1444.59 1362.34 1376.95 1286.33 1313.85 1365.59Z" fill="#FCCCF4"/>
<path d="M-41.6268 1253.77C-41.6268 1253.77 -82.7051 1232.5 -103.353 1253.05C-132.754 1282.31 -85.1531 1324.17 -43.8333 1327.84C7.25648 1332.37 81.0274 1334.82 156.269 1323.22C209.313 1315.05 233.744 1237.39 180.713 1245.65C172.513 1246.93 163.479 1250.12 153.559 1255.82C153.559 1255.82 160.145 1209.31 98.9893 1200.53C96.0488 1200.11 93.0876 1199.85 90.1187 1199.74C38.7001 1197.99 46.0287 1252.76 46.0287 1252.76C46.0287 1252.76 1.37935 1201.21 -41.6268 1253.77Z" fill="#FCCCF4"/>
</svg>
