<svg width="617" height="342" viewBox="0 0 617 342" fill="none" xmlns="http://www.w3.org/2000/svg">
<path d="M415.086 1.97066C407.036 1.3108 265.296 -20.3 259.226 97.1233C259.226 97.1233 264.471 135.594 289.183 159.811C289.183 159.811 208.614 131.469 176.214 159.811C143.815 188.152 192.414 210.423 192.414 210.423C192.414 210.423 107.39 186.172 113.461 254.964C113.461 254.964 2.10843 244.835 0.0958352 285.317C-1.3877 315.158 14.7151 331.805 23.2838 338.495C26.5201 341.022 30.5849 342 34.6908 342H746.867C746.867 342 852.446 340.482 862.344 311.646C872.242 282.81 768.214 272.054 768.214 272.054C768.214 272.054 830.373 255.524 826.645 235.168C822.917 214.811 774.252 200.228 730.964 203.263C730.964 203.263 797.776 197.192 752.245 165.321C752.245 165.321 651.252 110.651 563.193 176.703C563.127 176.571 612.485 18.1704 415.086 1.97066Z" fill="#FCCCF4"/>
</svg>
