<svg width="1849" height="628" viewBox="0 0 1849 628" fill="none" xmlns="http://www.w3.org/2000/svg">
<path d="M1002.61 388.766C999.474 388.51 944.289 380.106 941.926 425.77C941.926 425.77 943.968 440.731 953.589 450.149C953.589 450.149 922.221 439.127 909.607 450.149C896.992 461.17 915.914 469.831 915.914 469.831C915.914 469.831 882.811 460.4 885.174 487.152C885.174 487.152 841.821 483.213 841.037 498.957C840.6 507.752 844.095 513.6 847.265 517.048C850.041 520.068 854.217 521 858.319 521H1131.78C1131.78 521 1172.89 520.41 1176.74 509.196C1180.6 497.982 1140.09 493.799 1140.09 493.799C1140.09 493.799 1164.29 487.371 1162.84 479.454C1161.39 471.537 1142.44 465.866 1125.59 467.047C1125.59 467.047 1151.6 464.686 1133.88 452.291C1133.88 452.291 1094.56 431.031 1060.27 456.718C1060.25 456.667 1079.46 395.066 1002.61 388.766Z" fill="#FCCCF4"/>
<path d="M725 575.608C725.613 576.006 726.204 576.436 726.77 576.898C726.77 576.898 725.58 539.638 763.77 560.218C765.77 561.278 767.77 562.458 769.93 563.838C769.93 563.838 778.33 536.148 801.49 540.248C806.237 541.126 810.776 542.89 814.87 545.448C825.12 551.448 831.46 556.638 835.29 560.858C843.57 569.858 840.62 574.858 840.29 575.348C841.66 574.628 871.86 558.728 885.29 608.078C885.29 608.078 803.16 639.588 686.29 606.178C686.29 606.178 680.38 576.458 709.29 588.348C709.24 588.348 708.85 564.218 725 575.608Z" fill="#FCCCF4"/>
<path d="M835.28 560.858C831.45 556.638 825.11 551.468 814.86 545.448C810.766 542.89 806.227 541.126 801.48 540.248C770.22 366.248 624.6 233.828 448.41 232.148C264.21 230.388 110.75 372.148 85.5099 557.348C85.317 557.328 85.1227 557.328 84.9298 557.348C83.3595 557.413 81.7939 557.564 80.2398 557.798C47.8998 562.688 51.5799 587.228 51.5799 587.228C51.1499 586.998 50.7298 586.758 50.3398 586.598C78.2398 365.898 236.71 203.018 445.57 205.018C644.56 206.908 800.26 355.478 835.28 560.858Z" fill="#01C8FF"/>
<path d="M801.48 540.248C778.32 536.148 769.92 563.838 769.92 563.838C767.77 562.458 765.73 561.278 763.76 560.218C755.28 398.218 617.29 268.608 447.03 266.988C270.23 265.298 125.6 402.248 123.97 572.898V574.598C118.055 576.869 112.754 580.492 108.49 585.178C108.49 585.178 112.1 556.638 85.4902 557.348C110.73 372.098 264.19 230.348 448.39 232.148C624.6 233.828 770.22 366.228 801.48 540.248Z" fill="#FFC001"/>
<path d="M763.76 560.218C725.58 539.638 726.76 576.898 726.76 576.898C726.194 576.436 725.603 576.006 724.99 575.608C725.39 570.458 725.64 565.278 725.69 560.048C727.05 417.158 600.18 300.048 442.35 298.578C284.52 297.108 163.86 415.158 162.49 558.098C162.41 566.029 162.931 573.955 164.05 581.808C160.877 582.721 157.794 583.923 154.84 585.398C143.73 572.088 132.58 571.598 123.96 574.648V572.948C125.59 402.298 270.22 265.348 447.02 267.038C617.29 268.608 755.28 398.228 763.76 560.218Z" fill="#FF334A"/>
<path d="M123.96 574.598C132.58 571.598 143.73 572.038 154.84 585.348C157.794 583.873 160.877 582.671 164.05 581.758C177.33 577.898 199.53 577.258 192.38 619.558C192.38 619.558 87.2 640.558 1 611.258C1 611.258 14.05 567.258 50.34 586.598C50.73 586.758 51.15 586.998 51.58 587.228C51.58 587.228 47.9 562.688 80.24 557.798C81.794 557.563 83.3597 557.413 84.93 557.348C85.1228 557.328 85.3172 557.328 85.51 557.348C112.09 556.638 108.51 585.178 108.51 585.178C112.765 580.496 118.056 576.873 123.96 574.598Z" fill="#FCCCF4"/>
<path d="M85.2395 557.348H85.5495C112.09 556.678 108.48 585.178 108.48 585.178C112.743 580.492 118.045 576.869 123.96 574.598C132.58 571.598 143.73 572.038 154.84 585.348C157.731 583.918 160.743 582.743 163.84 581.838C177.08 577.938 199.59 576.988 192.4 619.558C192.4 619.558 87.2195 640.558 1.01953 611.258C1.01953 611.258 14.0695 567.258 50.3595 586.558C50.7495 586.758 51.1695 586.998 51.5995 587.228C51.5995 587.228 47.9195 562.688 80.2595 557.798C81.7795 557.588 83.2095 557.448 84.5695 557.378" stroke="#030D78" stroke-miterlimit="10"/>
<path d="M84.5498 557.378C84.7794 557.358 85.0102 557.358 85.2398 557.378" stroke="#030D78" stroke-miterlimit="10"/>
<path d="M840.21 575.388C841.58 574.668 871.78 558.768 885.21 608.118C885.21 608.118 803.08 639.628 686.21 606.218C686.21 606.218 680.3 576.498 709.21 588.388C709.21 588.388 708.82 564.258 724.97 575.648C725.583 576.046 726.173 576.476 726.74 576.938C726.74 576.938 725.55 539.868 763.42 560.098C765.42 561.198 767.62 562.418 769.89 563.878C769.89 563.878 778.25 536.388 801.21 540.248C806.04 541.117 810.662 542.896 814.83 545.488C825.08 551.488 831.42 556.678 835.25 560.898C843.53 569.898 840.58 574.898 840.25 575.388" stroke="#030D78" stroke-miterlimit="10"/>
<path d="M763.49 560.488C763.51 560.346 763.51 560.201 763.49 560.058C756.34 396.878 618.22 268.618 447.07 266.988C270.27 265.298 125.64 402.248 124.01 572.898V575.728" stroke="#030D78" stroke-miterlimit="10"/>
<path d="M801.32 540.548C801.32 540.438 801.32 540.318 801.24 540.208C770.38 365.568 625.02 233.828 448.41 232.148C264.21 230.388 110.75 372.148 85.5496 557.348C85.4696 557.778 85.3896 558.238 85.3496 558.668" stroke="#030D78" stroke-miterlimit="10"/>
<path d="M835.72 563.338C835.57 562.528 835.43 561.678 835.28 560.858C800.22 355.478 644.53 206.858 445.57 205.018C236.71 203.018 78.2398 365.898 50.3398 586.558C50.3398 586.718 50.3398 586.908 50.2598 587.068" stroke="#030D78" stroke-miterlimit="10"/>
<path d="M724.87 577.468C724.87 576.808 724.96 576.188 725 575.608C725.55 567.058 725.65 565.278 725.7 560.048C726.79 417.158 600.19 300.048 442.36 298.578C284.53 297.108 163.86 415.158 162.49 558.098C162.273 566.051 162.718 574.009 163.82 581.888C163.82 582.038 163.82 582.198 163.89 582.348" stroke="#030D78" stroke-miterlimit="10"/>
<path d="M1653.89 427.717C1653.89 427.717 1693.57 410.934 1690.83 449.429C1690.17 458.74 1682.08 465.38 1672.75 465.887C1643.76 467.465 1578.69 468.098 1519.67 448.183C1508.22 444.32 1502.77 430.969 1511.44 422.554C1520.05 414.193 1533.37 408.501 1551.55 420.889C1551.55 420.889 1549.98 396.293 1582.37 394.177C1583.93 394.074 1585.49 394.055 1587.05 394.122C1614.05 395.286 1608.01 423.643 1608.01 423.643C1608.01 423.643 1633.47 398.481 1653.89 427.717Z" fill="#FCCCF4"/>
<path d="M234.405 33.2372C234.405 33.2372 192.919 9.34704 190.712 52.1721C190.178 62.5316 198.209 70.9526 208.42 72.776C240.181 78.4471 311.862 87.9693 379.655 74.0081C392.802 71.3005 400.624 57.3147 392.206 46.859C383.841 36.4693 369.925 28.3857 348.192 39.583C348.192 39.583 353.267 12.6705 317.831 5.94405C316.127 5.61922 314.407 5.3871 312.678 5.24868C282.735 2.87103 285.556 34.9656 285.556 34.9656C285.556 34.9656 260.882 3.7614 234.405 33.2372Z" fill="#FCCCF4"/>
<path d="M1679.4 71.2372C1679.4 71.2372 1637.92 47.347 1635.71 90.1721C1635.18 100.532 1643.21 108.953 1653.42 110.776C1685.18 116.447 1756.86 125.969 1824.65 112.008C1837.8 109.3 1845.62 95.3147 1837.21 84.859C1828.84 74.4693 1814.92 66.3857 1793.19 77.583C1793.19 77.583 1798.27 50.6705 1762.83 43.944C1761.13 43.6192 1759.41 43.3871 1757.68 43.2487C1727.73 40.871 1730.56 72.9656 1730.56 72.9656C1730.56 72.9656 1705.88 41.7614 1679.4 71.2372Z" fill="#FCCCF4"/>
</svg>
