<svg width="1440" height="768" viewBox="0 0 1440 768" fill="none" xmlns="http://www.w3.org/2000/svg">
<path d="M784.5 517.031C709.3 566.231 558.833 635.865 493 664.531V735.531H1859C1844.67 714.531 1746.2 620.431 1427 484.031C1028 313.531 878.5 455.531 784.5 517.031Z" fill="#00C587"/>
<path d="M485.789 211.155L480.571 134.049C480.571 134.049 477.389 105.57 497.856 104.904C516.155 104.302 540.541 104.883 540.541 104.883L537.736 126.975L514.38 126.484C512.368 126.6 509.769 126.971 508.009 127.952C506.25 128.934 505.015 130.476 503.86 132.126C501.433 135.432 502.001 141.636 503.018 146.306C504.729 154.16 511.553 211.441 511.553 211.441L485.789 211.155Z" fill="white"/>
<path d="M502.665 141.392L503.314 146.765C491.249 156.36 480.773 147.776 480.773 147.776C480.474 142.746 480.215 138.113 479.998 134.263C479.896 132.213 479.895 130.288 479.979 128.506C480.421 129.043 490.572 141.115 503.527 133.492C502.695 136.038 502.402 138.728 502.665 141.392V141.392Z" fill="#FF532B"/>
<path d="M540.041 104.282C542.276 104.423 541.538 116.681 541.538 116.681C541.105 123.802 539.118 125.864 537.701 126.395C530.896 114.372 540.041 104.282 540.041 104.282Z" fill="#272B71"/>
<path d="M516.673 104.195C516.255 108.482 516.914 112.805 518.589 116.773C520.265 120.741 522.905 124.228 526.27 126.92C522.355 126.845 517.696 126.851 512.979 127.01C511.724 127.037 510.482 127.271 509.303 127.702C499.598 120.606 501.638 106.01 501.732 104.656C506.381 104.291 511.61 104.182 516.673 104.195Z" fill="#FF532B"/>
<path d="M505.626 168.384L508.176 188.939C495.511 199.026 483.841 192.254 483.256 191.948C482.795 185.081 482.249 177.086 481.738 169.026C481.735 169.001 493.095 179.233 505.626 168.384Z" fill="#FF532B"/>
<path d="M510.048 211.313C510.489 211.422 510.932 211.549 511.376 211.675L503.203 146.769L502.557 141.413C502.557 141.413 500.857 127.336 512.712 126.923C517.412 126.766 522.114 126.763 526.011 126.831C532.022 126.961 536.217 127.156 536.217 127.156C536.7 127.275 537.208 127.238 537.668 127.049C539.078 126.52 541.064 124.457 541.496 117.328C541.496 117.328 542.235 105.078 540 104.938C540 104.938 528.677 104.157 516.415 104.106C511.351 104.093 506.148 104.199 501.488 104.548C497.999 104.748 494.535 105.261 491.138 106.081C491.138 106.081 480.772 109.609 479.902 128.506" stroke="#030D78" stroke-miterlimit="10"/>
<path d="M479.921 128.521C479.836 130.303 479.846 132.227 479.94 134.278C480.133 138.148 480.393 142.781 480.715 147.791C481.093 154.326 481.522 161.565 482.01 168.728C482.519 176.771 483.04 184.769 483.511 191.652C484.284 203.231 484.873 211.581 484.873 211.581C484.873 211.581 485.589 211.409 486.854 211.179C491.042 210.391 501.1 208.997 510.1 211.324" stroke="#030D78" stroke-miterlimit="10"/>
<path d="M539.974 104.941C539.974 104.941 530.828 115.022 537.643 127.053" stroke="#030D78" stroke-miterlimit="10"/>
<path d="M516.372 104.111C515.953 108.398 516.611 112.722 518.287 116.69C519.963 120.658 522.603 124.146 525.969 126.836" stroke="#030D78" stroke-miterlimit="10"/>
<path d="M501.468 104.456C501.463 104.488 501.467 104.52 501.479 104.549C501.312 105.93 499.815 121.412 509.185 127.58" stroke="#030D78" stroke-miterlimit="10"/>
<path d="M479.919 128.504C480.344 129.044 490.236 141.592 503.459 133.278" stroke="#030D78" stroke-miterlimit="10"/>
<path d="M480.647 147.799C480.647 147.799 491.108 156.402 503.205 146.786" stroke="#030D78" stroke-miterlimit="10"/>
<path d="M481.943 168.736C481.943 168.736 493.2 179.255 505.794 168.218" stroke="#030D78" stroke-miterlimit="10"/>
<path d="M483.44 191.626C483.44 191.626 495.246 199.032 508.259 188.629" stroke="#030D78" stroke-miterlimit="10"/>
<path d="M593.54 334.513C599.184 326.857 605.025 368.408 602.809 377.293C602.809 377.293 586.974 378.795 583.086 384.194L582.484 380.843C581.576 375.091 580.019 365.892 577.782 354.669L577.749 354.399C577.749 354.399 587.892 342.144 593.54 334.513Z" fill="#9CFF3F"/>
<path d="M592.258 416.237C592.258 416.237 592.698 419.102 593.356 423.344C589.439 420.844 585.981 417.69 583.134 414.019C585.229 415.623 588.444 416.356 592.258 416.237Z" fill="#FF334A"/>
<path d="M574.978 299.82C574.978 299.82 588.976 317.008 575.992 345.66L575.632 344.172C573.335 333.59 570.531 321.794 567.19 309.729L567.156 309.451C567.156 309.451 571.01 304.407 574.978 299.82Z" fill="#9CFF3F"/>
<path d="M582.663 381.181C582.879 382.55 583.069 383.7 583.204 384.676C581.896 388.275 580.859 391.968 580.102 395.722C578.808 399.977 578.134 405.313 580.294 410.152C580.666 411.355 581.324 412.451 582.213 413.343L579.376 413.686C579.376 413.686 469.623 358.421 426.087 344.801C426.924 333.358 428.361 321.967 430.394 310.675L430.459 310.368C431.166 306.859 437.897 274.298 447.441 252.402C447.496 252.293 447.527 252.195 447.582 252.086C449.214 248.577 450.952 245.167 452.828 241.902C454.537 238.921 456.398 236.028 458.402 233.236C465.604 223.227 474.362 215.392 485.028 211.511C485.028 211.511 498.36 205.858 511.462 211.536C537.482 222.813 555.707 268.192 567.323 310.047L575.766 344.498C576.53 348.06 577.236 351.492 577.86 354.745L577.893 355.024L582.663 381.181ZM568.462 323.952C568.406 323.473 568.255 323.01 568.019 322.59C567.782 322.169 567.465 321.8 567.085 321.502C566.706 321.204 566.271 320.985 565.806 320.856C565.341 320.726 564.855 320.69 564.376 320.749C563.409 320.868 562.529 321.365 561.929 322.13C561.328 322.895 561.054 323.867 561.169 324.833C561.287 325.798 561.784 326.676 562.55 327.275C563.316 327.874 564.289 328.145 565.255 328.028C565.733 327.971 566.196 327.821 566.616 327.585C567.037 327.35 567.407 327.034 567.705 326.655C568.003 326.276 568.223 325.843 568.353 325.379C568.483 324.915 568.52 324.43 568.462 323.952ZM566.98 386.498C568.196 386.384 569.317 385.791 570.096 384.852C570.876 383.912 571.25 382.702 571.137 381.487C571.049 380.888 570.844 380.313 570.533 379.793C570.223 379.274 569.813 378.821 569.327 378.46C568.841 378.099 568.289 377.837 567.702 377.69C567.115 377.542 566.504 377.512 565.905 377.6C565.303 377.657 564.718 377.832 564.183 378.115C563.648 378.398 563.175 378.784 562.79 379.25C562.404 379.716 562.115 380.254 561.938 380.832C561.761 381.41 561.7 382.017 561.758 382.619C561.941 383.821 562.593 384.9 563.571 385.623C564.549 386.345 565.774 386.651 566.977 386.473L566.98 386.498ZM541.611 270.545C541.492 269.58 540.995 268.702 540.229 268.103C539.463 267.504 538.491 267.233 537.525 267.35C536.56 267.466 535.681 267.961 535.081 268.725C534.481 269.489 534.209 270.46 534.326 271.424C534.442 272.389 534.937 273.269 535.702 273.869C536.466 274.47 537.438 274.743 538.404 274.629C539.37 274.51 540.25 274.013 540.851 273.248C541.452 272.483 541.725 271.511 541.611 270.545ZM545.411 349.67C546.013 349.614 546.597 349.439 547.131 349.156C547.666 348.874 548.139 348.489 548.524 348.024C548.909 347.558 549.199 347.022 549.377 346.444C549.554 345.867 549.616 345.261 549.559 344.66C549.473 344.061 549.269 343.486 548.959 342.967C548.65 342.447 548.241 341.994 547.755 341.633C547.27 341.272 546.718 341.01 546.132 340.862C545.545 340.714 544.935 340.684 544.336 340.772C543.735 340.83 543.15 341.005 542.617 341.289C542.083 341.573 541.611 341.958 541.226 342.424C540.842 342.89 540.553 343.428 540.377 344.005C540.2 344.583 540.139 345.189 540.197 345.79C540.37 346.993 541.011 348.078 541.982 348.809C542.953 349.54 544.175 349.857 545.379 349.691L545.411 349.67ZM521.37 233.582C521.254 232.618 520.759 231.739 519.994 231.14C519.23 230.541 518.258 230.269 517.293 230.386C516.814 230.443 516.351 230.593 515.931 230.829C515.511 231.064 515.141 231.38 514.843 231.759C514.545 232.138 514.325 232.571 514.195 233.035C514.065 233.499 514.027 233.983 514.085 234.462C514.142 234.941 514.293 235.404 514.529 235.824C514.765 236.244 515.082 236.614 515.462 236.912C515.842 237.209 516.277 237.429 516.742 237.558C517.207 237.688 517.693 237.724 518.172 237.665C519.128 237.538 519.995 237.041 520.588 236.281C521.18 235.521 521.45 234.559 521.339 233.603L521.37 233.582ZM513.18 307.609C514.394 307.49 515.512 306.895 516.288 305.954C517.063 305.014 517.435 303.804 517.319 302.591C517.14 301.387 516.491 300.303 515.514 299.575C514.537 298.848 513.312 298.537 512.106 298.711C510.89 298.825 509.769 299.417 508.99 300.357C508.21 301.297 507.836 302.507 507.949 303.722C508.121 304.926 508.763 306.012 509.734 306.744C510.705 307.477 511.926 307.796 513.132 307.632L513.18 307.609ZM506.662 371.225C506.469 369.862 505.742 368.631 504.642 367.801C503.542 366.972 502.158 366.612 500.792 366.8C500.112 366.868 499.452 367.07 498.85 367.393C498.248 367.717 497.715 368.155 497.283 368.684C496.85 369.213 496.526 369.822 496.33 370.477C496.133 371.131 496.067 371.817 496.136 372.496C496.231 373.173 496.458 373.824 496.805 374.412C497.152 375.001 497.611 375.515 498.157 375.926C498.703 376.337 499.325 376.636 499.987 376.807C500.648 376.978 501.337 377.016 502.014 376.921C503.385 376.778 504.644 376.099 505.515 375.032C506.386 373.964 506.799 372.596 506.662 371.225ZM492.763 265.773C492.581 264.567 491.929 263.481 490.949 262.755C489.968 262.028 488.74 261.719 487.532 261.895C486.93 261.951 486.346 262.126 485.812 262.408C485.277 262.691 484.804 263.076 484.419 263.541C484.034 264.007 483.744 264.543 483.566 265.12C483.389 265.698 483.327 266.304 483.384 266.905C483.47 267.504 483.674 268.079 483.984 268.598C484.293 269.118 484.703 269.571 485.188 269.932C485.673 270.293 486.225 270.555 486.811 270.703C487.398 270.85 488.008 270.881 488.607 270.793C489.822 270.674 490.94 270.079 491.717 269.138C492.494 268.198 492.867 266.988 492.754 265.774L492.763 265.773ZM479.152 231.868C480.366 231.75 481.483 231.156 482.26 230.217C483.037 229.279 483.411 228.071 483.301 226.858C483.214 226.259 483.01 225.684 482.701 225.165C482.391 224.645 481.982 224.192 481.497 223.831C481.012 223.47 480.46 223.208 479.873 223.06C479.286 222.913 478.676 222.882 478.078 222.97C477.475 223.027 476.889 223.202 476.354 223.485C475.819 223.768 475.345 224.154 474.959 224.62C474.573 225.086 474.283 225.624 474.105 226.202C473.927 226.78 473.865 227.388 473.922 227.99C474.103 229.195 474.754 230.279 475.732 231.006C476.711 231.732 477.937 232.043 479.144 231.87L479.152 231.868ZM479.159 332.846C479.066 332.169 478.841 331.518 478.495 330.929C478.149 330.34 477.69 329.825 477.145 329.414C476.599 329.002 475.978 328.703 475.316 328.533C474.654 328.362 473.965 328.324 473.289 328.42C471.916 328.561 470.655 329.24 469.782 330.308C468.909 331.375 468.496 332.745 468.632 334.117C468.826 335.482 469.554 336.714 470.656 337.544C471.758 338.373 473.144 338.732 474.511 338.542C475.881 338.402 477.139 337.724 478.009 336.658C478.879 335.592 479.29 334.224 479.152 332.855L479.159 332.846ZM453.85 302.708C453.658 301.344 452.932 300.111 451.832 299.281C450.731 298.452 449.346 298.092 447.98 298.282C446.608 298.423 445.348 299.102 444.476 300.17C443.605 301.238 443.193 302.607 443.332 303.978C443.525 305.342 444.252 306.573 445.352 307.402C446.452 308.231 447.837 308.592 449.202 308.404C450.573 308.261 451.832 307.582 452.703 306.514C453.574 305.447 453.986 304.078 453.85 302.708Z" fill="#FF532B"/>
<path d="M565.006 328.315C567.021 328.072 568.456 326.243 568.213 324.231C567.97 322.218 566.14 320.784 564.126 321.027C562.112 321.271 560.677 323.099 560.92 325.111C561.163 327.124 562.992 328.558 565.006 328.315Z" fill="#01FF9D"/>
<path d="M570.983 381.137C571.096 382.353 570.723 383.564 569.944 384.505C569.164 385.446 568.044 386.04 566.827 386.157C566.229 386.246 565.619 386.215 565.032 386.067C564.445 385.919 563.894 385.658 563.408 385.296C562.923 384.935 562.514 384.482 562.205 383.963C561.895 383.443 561.691 382.868 561.604 382.27C561.547 381.669 561.609 381.062 561.787 380.485C561.965 379.908 562.254 379.371 562.64 378.906C563.025 378.44 563.498 378.056 564.032 377.773C564.566 377.49 565.151 377.316 565.753 377.259C566.961 377.083 568.189 377.392 569.169 378.119C570.15 378.846 570.802 379.931 570.983 381.137Z" fill="#01FF9D"/>
<path d="M538.169 274.879C540.183 274.636 541.618 272.807 541.375 270.795C541.132 268.783 539.303 267.349 537.288 267.592C535.274 267.835 533.839 269.664 534.082 271.676C534.325 273.688 536.154 275.122 538.169 274.879Z" fill="#01FF9D"/>
<path d="M545.535 350.057C548.117 349.745 549.971 347.502 549.675 345.047C549.378 342.592 547.044 340.855 544.461 341.167C541.878 341.479 540.025 343.722 540.321 346.177C540.617 348.632 542.952 350.369 545.535 350.057Z" fill="#01FF9D"/>
<path d="M517.927 238.268C519.941 238.025 521.377 236.196 521.134 234.184C520.891 232.171 519.061 230.737 517.047 230.98C515.033 231.224 513.597 233.052 513.84 235.065C514.083 237.077 515.913 238.511 517.927 238.268Z" fill="#01FF9D"/>
<path d="M517.126 302.768C517.239 303.983 516.866 305.192 516.089 306.133C515.312 307.073 514.194 307.668 512.979 307.787C511.769 307.963 510.54 307.653 509.559 306.925C508.578 306.196 507.927 305.109 507.747 303.901C507.637 302.686 508.012 301.477 508.791 300.538C509.57 299.599 510.689 299.006 511.904 298.889C513.111 298.716 514.337 299.026 515.316 299.753C516.294 300.48 516.945 301.564 517.126 302.768V302.768Z" fill="#01FF9D"/>
<path d="M500.627 366.494C501.303 366.399 501.992 366.438 502.654 366.609C503.316 366.779 503.938 367.079 504.484 367.49C505.03 367.901 505.489 368.415 505.836 369.003C506.183 369.592 506.41 370.243 506.505 370.919C506.642 372.291 506.228 373.661 505.355 374.729C504.483 375.797 503.222 376.475 501.849 376.616C500.483 376.806 499.098 376.447 497.997 375.617C496.896 374.787 496.17 373.555 495.978 372.19C495.908 371.511 495.972 370.825 496.167 370.17C496.363 369.516 496.686 368.906 497.118 368.377C497.55 367.848 498.082 367.409 498.684 367.086C499.286 366.763 499.946 366.562 500.627 366.494V366.494Z" fill="#01FF9D"/>
<path d="M487.135 261.942C488.343 261.766 489.572 262.076 490.552 262.802C491.532 263.529 492.184 264.614 492.366 265.82C492.479 267.036 492.105 268.247 491.326 269.188C490.547 270.129 489.426 270.723 488.21 270.84C487.611 270.929 487.001 270.898 486.414 270.75C485.828 270.603 485.276 270.341 484.791 269.98C484.306 269.618 483.897 269.165 483.587 268.646C483.277 268.126 483.073 267.551 482.987 266.953C482.93 266.352 482.992 265.745 483.169 265.168C483.347 264.591 483.637 264.054 484.022 263.589C484.407 263.124 484.88 262.739 485.415 262.456C485.949 262.173 486.533 261.999 487.135 261.942V261.942Z" fill="#01FF9D"/>
<path d="M482.968 227.009C483.08 228.221 482.708 229.429 481.932 230.368C481.156 231.307 480.04 231.9 478.828 232.019C477.62 232.195 476.391 231.886 475.411 231.159C474.431 230.432 473.779 229.347 473.597 228.141C473.54 227.539 473.602 226.931 473.78 226.353C473.958 225.775 474.248 225.237 474.634 224.771C475.02 224.305 475.494 223.919 476.029 223.636C476.564 223.353 477.15 223.178 477.753 223.121C478.351 223.034 478.96 223.065 479.546 223.214C480.132 223.362 480.683 223.624 481.167 223.985C481.651 224.347 482.059 224.799 482.368 225.318C482.677 225.837 482.881 226.412 482.968 227.009V227.009Z" fill="#01FF9D"/>
<path d="M473.103 328.802C473.78 328.707 474.468 328.746 475.13 328.917C475.791 329.088 476.412 329.387 476.957 329.798C477.503 330.21 477.961 330.724 478.307 331.312C478.653 331.901 478.88 332.552 478.974 333.228C479.043 333.907 478.979 334.593 478.783 335.247C478.587 335.901 478.263 336.51 477.832 337.039C477.4 337.568 476.868 338.007 476.266 338.33C475.665 338.654 475.005 338.855 474.326 338.924C472.959 339.114 471.573 338.755 470.471 337.926C469.369 337.096 468.641 335.864 468.447 334.499C468.31 333.127 468.724 331.757 469.597 330.689C470.47 329.622 471.731 328.943 473.103 328.802Z" fill="#01FF9D"/>
<path d="M447.853 297.946C449.219 297.756 450.605 298.116 451.705 298.945C452.806 299.775 453.532 301.008 453.724 302.372C453.862 303.743 453.451 305.113 452.579 306.181C451.707 307.249 450.447 307.927 449.076 308.068C448.399 308.163 447.71 308.124 447.048 307.954C446.386 307.783 445.764 307.483 445.219 307.073C444.673 306.662 444.213 306.147 443.866 305.559C443.519 304.971 443.292 304.32 443.197 303.643C443.128 302.964 443.194 302.277 443.391 301.623C443.588 300.969 443.912 300.36 444.344 299.831C444.776 299.302 445.309 298.863 445.911 298.54C446.513 298.217 447.173 298.015 447.853 297.946Z" fill="#01FF9D"/>
<path d="M627.362 375.569C627.362 375.569 637.263 373.518 627.374 393.616C620.288 407.992 603.659 415.897 592.258 416.238C588.443 416.356 585.229 415.624 583.134 414.02C582.756 413.733 582.41 413.407 582.1 413.049C581.33 412.069 580.685 410.997 580.181 409.858C579.239 407.233 578.568 402.736 579.988 395.419C581.399 390.79 581.977 387.777 581.977 387.777C582.397 387.325 582.713 386.787 582.904 386.201C583.095 385.615 583.156 384.995 583.083 384.383C583.077 384.332 583.119 384.258 583.148 384.212C583.177 384.166 585.392 379.457 606.246 377.743C616.777 376.856 627.362 375.569 627.362 375.569Z" fill="#9CFF3F"/>
<path d="M581.557 411.035C581.557 411.035 604.083 401.392 630.637 377.724" stroke="#030D78" stroke-miterlimit="10"/>
<path d="M609.063 394.826L616.468 395.788" stroke="#030D78" stroke-miterlimit="10"/>
<path d="M602.778 399.093L611.927 400.598" stroke="#030D78" stroke-miterlimit="10"/>
<path d="M595.347 391.108L592.616 405.309" stroke="#030D78" stroke-miterlimit="10"/>
<path d="M583.252 383.438C583.252 383.438 590.045 366.709 597.121 335.159" stroke="#030D78" stroke-miterlimit="10"/>
<path d="M591.222 358.729L593.753 357.199" stroke="#030D78" stroke-miterlimit="10"/>
<path d="M589.443 364.916L592.592 363.329" stroke="#030D78" stroke-miterlimit="10"/>
<path d="M586.389 359.697L586.512 374.264" stroke="#030D78" stroke-miterlimit="10"/>
<path d="M582.023 413.683L579.186 414.026C579.186 414.026 542.162 395.392 502.597 377.065C500.504 376.097 498.404 375.132 496.295 374.172C469.727 361.977 442.815 350.414 425.894 345.115C425.894 345.115 425.966 344.011 426.126 342.006" stroke="#030D78" stroke-miterlimit="10"/>
<path d="M575.827 345.86C576.489 349.066 577.125 352.138 577.691 355.048C579.512 364.318 580.863 372.096 581.732 377.52C582.347 381.339 582.745 383.995 582.909 385.208C582.968 385.697 582.998 385.95 582.998 385.95C582.998 385.95 575.453 401.837 582.02 413.666" stroke="#030D78" stroke-miterlimit="10"/>
<path d="M426.116 341.999C427.645 323.304 437.855 226.433 486.779 211.12C489.701 210.204 492.71 209.594 495.758 209.299C500.602 208.816 505.492 209.49 510.024 211.265C536.841 221.547 555.381 267.692 567.106 309.954C570.574 322.499 573.444 334.707 575.736 345.529" stroke="#030D78" stroke-miterlimit="10"/>
<path d="M453.657 303.023C453.463 301.659 452.736 300.428 451.636 299.599C450.536 298.769 449.152 298.409 447.786 298.597C446.415 298.74 445.157 299.419 444.285 300.486C443.414 301.554 443.002 302.922 443.138 304.293C443.332 305.656 444.059 306.887 445.159 307.717C446.259 308.546 447.643 308.906 449.009 308.718C450.379 308.576 451.638 307.896 452.509 306.829C453.38 305.762 453.793 304.393 453.657 303.023V303.023Z" stroke="#030D78" stroke-miterlimit="10"/>
<path d="M478.943 333.189C478.851 332.513 478.625 331.861 478.279 331.272C477.933 330.683 477.475 330.168 476.929 329.757C476.384 329.346 475.762 329.046 475.1 328.876C474.439 328.705 473.75 328.667 473.073 328.763C471.701 328.904 470.441 329.583 469.569 330.651C468.698 331.719 468.286 333.089 468.425 334.459C468.619 335.823 469.345 337.054 470.445 337.883C471.545 338.713 472.93 339.073 474.295 338.885C475.667 338.744 476.927 338.066 477.799 336.998C478.67 335.93 479.082 334.56 478.943 333.189V333.189Z" stroke="#030D78" stroke-miterlimit="10"/>
<path d="M502.591 377.091C503.789 376.782 504.836 376.054 505.542 375.039C506.248 374.024 506.566 372.79 506.437 371.56C506.243 370.197 505.517 368.966 504.417 368.137C503.317 367.307 501.932 366.947 500.567 367.135C499.887 367.203 499.227 367.405 498.625 367.728C498.022 368.052 497.49 368.491 497.058 369.02C496.625 369.549 496.301 370.158 496.104 370.812C495.907 371.466 495.842 372.152 495.91 372.832C495.964 373.304 496.092 373.765 496.289 374.198C496.753 375.234 497.541 376.092 498.534 376.643C499.527 377.194 500.672 377.409 501.798 377.255C502.067 377.225 502.332 377.17 502.591 377.091V377.091Z" stroke="#030D78" stroke-miterlimit="10"/>
<path d="M492.537 266.108C492.356 264.902 491.704 263.817 490.724 263.09C489.743 262.363 488.515 262.054 487.307 262.23C486.705 262.286 486.121 262.461 485.587 262.744C485.052 263.026 484.579 263.411 484.194 263.876C483.809 264.342 483.519 264.878 483.341 265.456C483.164 266.033 483.102 266.639 483.159 267.24C483.245 267.839 483.449 268.414 483.759 268.933C484.068 269.453 484.477 269.906 484.963 270.267C485.448 270.628 486 270.89 486.586 271.038C487.173 271.186 487.783 271.216 488.382 271.128C489.598 271.011 490.719 270.417 491.498 269.476C492.277 268.535 492.651 267.324 492.537 266.108V266.108Z" stroke="#030D78" stroke-miterlimit="10"/>
<path d="M517.054 302.948C516.875 301.744 516.226 300.659 515.249 299.932C514.272 299.205 513.046 298.894 511.84 299.068C510.624 299.182 509.504 299.774 508.724 300.714C507.945 301.654 507.57 302.864 507.683 304.079C507.771 304.678 507.976 305.253 508.287 305.773C508.597 306.292 509.007 306.745 509.493 307.106C509.979 307.467 510.531 307.729 511.118 307.876C511.705 308.024 512.316 308.054 512.915 307.966C514.129 307.847 515.246 307.252 516.022 306.311C516.798 305.371 517.169 304.161 517.054 302.948V302.948Z" stroke="#030D78" stroke-miterlimit="10"/>
<path d="M545.162 350.017C547.744 349.705 549.598 347.462 549.301 345.007C549.005 342.552 546.671 340.815 544.088 341.127C541.505 341.439 539.651 343.682 539.948 346.137C540.244 348.592 542.579 350.329 545.162 350.017Z" stroke="#030D78" stroke-miterlimit="10"/>
<path d="M570.917 381.795C570.829 381.197 570.624 380.622 570.314 380.102C570.003 379.583 569.593 379.13 569.107 378.769C568.622 378.408 568.069 378.146 567.482 377.999C566.895 377.851 566.284 377.821 565.685 377.909C565.083 377.966 564.498 378.141 563.963 378.424C563.428 378.707 562.955 379.093 562.57 379.559C562.184 380.025 561.895 380.563 561.718 381.141C561.541 381.719 561.48 382.326 561.538 382.928C561.626 383.526 561.83 384.1 562.14 384.618C562.45 385.137 562.859 385.589 563.344 385.949C563.829 386.309 564.381 386.57 564.967 386.718C565.553 386.865 566.162 386.895 566.76 386.807C567.976 386.693 569.097 386.1 569.876 385.161C570.656 384.221 571.03 383.011 570.917 381.795Z" stroke="#030D78" stroke-miterlimit="10"/>
<path d="M483.076 227.193C482.989 226.595 482.785 226.019 482.475 225.5C482.166 224.981 481.757 224.527 481.272 224.166C480.786 223.805 480.235 223.543 479.648 223.395C479.061 223.248 478.451 223.217 477.853 223.305C477.25 223.362 476.664 223.537 476.129 223.82C475.594 224.103 475.12 224.489 474.734 224.955C474.348 225.422 474.058 225.959 473.88 226.537C473.702 227.116 473.64 227.723 473.697 228.326C473.878 229.532 474.53 230.617 475.511 231.343C476.491 232.07 477.719 232.38 478.927 232.204C480.141 232.085 481.258 231.491 482.035 230.552C482.812 229.614 483.186 228.406 483.076 227.193V227.193Z" stroke="#030D78" stroke-miterlimit="10"/>
<path d="M517.923 238.02C519.938 237.777 521.373 235.948 521.13 233.936C520.887 231.923 519.057 230.489 517.043 230.732C515.029 230.976 513.593 232.804 513.837 234.817C514.08 236.829 515.909 238.263 517.923 238.02Z" stroke="#030D78" stroke-miterlimit="10"/>
<path d="M538.153 274.967C540.168 274.724 541.603 272.895 541.36 270.883C541.117 268.871 539.287 267.436 537.273 267.68C535.259 267.923 533.823 269.751 534.066 271.764C534.31 273.776 536.139 275.21 538.153 274.967Z" stroke="#030D78" stroke-miterlimit="10"/>
<path d="M565.035 328.337C567.049 328.093 568.485 326.265 568.242 324.253C567.999 322.24 566.169 320.806 564.155 321.049C562.141 321.293 560.705 323.121 560.948 325.133C561.191 327.146 563.021 328.58 565.035 328.337Z" stroke="#030D78" stroke-miterlimit="10"/>
<path d="M575.759 345.578L567.055 310.105C567.084 310.074 567.108 310.04 567.128 310.002C567.721 309.238 571.296 304.656 574.915 300.505C574.915 300.505 588.907 317.641 575.927 346.336L575.872 345.881L575.759 345.578Z" stroke="#030D78" stroke-miterlimit="10"/>
<path d="M583.044 384.841L581.735 377.545L577.694 355.073C577.694 355.073 587.828 342.819 593.477 335.197C599.126 327.574 604.82 368.057 602.808 377.644" stroke="#030D78" stroke-miterlimit="10"/>
<path d="M594.508 379.34C590.033 380.368 585.036 382.11 583.059 384.822" stroke="#030D78" stroke-miterlimit="10"/>
<path d="M594.582 379.314C597.272 378.526 600.022 377.957 602.804 377.611C605.058 377.326 607.326 377.164 609.597 377.124C615.727 377.025 621.829 376.288 627.806 374.925C627.806 374.925 637.141 374.208 627.273 394.269C620.188 408.654 603.567 416.549 592.157 416.892C587.634 417.027 583.945 415.984 581.98 413.688C581.523 413.307 575.094 407.306 582.897 385.252L583.029 384.859C583.325 384.61 587.015 381.554 594.478 379.378" stroke="#030D78" stroke-miterlimit="10"/>
<path d="M592.196 416.93C592.196 416.93 592.637 419.804 593.302 424.036" stroke="#030D78" stroke-miterlimit="10"/>
<g clip-path="url(#clip0_0_1)">
<path d="M152.295 162.033C139.135 126.027 119.649 87.2624 91.7845 61.9735C64.5308 37.2265 30.4083 35.7483 0.000100824 42.3754V566.754C35.0043 567.986 74.2478 564.512 117.749 552.33C235.498 519.317 221.608 498.13 221.608 498.13C221.608 498.13 300.164 504.634 328.724 481.624C357.759 458.22 305.998 255.305 241.078 189.293C208.838 156.477 176.598 155.11 152.295 162.033Z" fill="#9525FF"/>
<path opacity="0.1" d="M221.608 498.105C221.608 498.105 300.164 504.609 328.724 481.599C333.812 477.473 336.458 467.754 336.916 454.179C295.959 469.269 237.889 475.859 216.588 460.338C183.619 381.959 167.135 224.115 167.135 224.115C167.135 224.115 177.633 418.974 156.654 454.894C142.29 479.53 54.1514 482.646 0.000102622 482.19V566.741C35.0043 567.973 74.2478 564.499 117.749 552.317C235.498 519.317 221.608 498.105 221.608 498.105Z" fill="#F5F5F5"/>
<path d="M206.107 461.435C198.611 450.546 215.096 481.033 185.129 510.424C162.624 532.473 53.2188 546.552 0.000211926 552.219V566.754C35.0044 567.986 74.2479 564.512 117.749 552.329C235.498 519.317 221.608 498.13 221.608 498.13L223.542 498.266C221.812 482.659 210.652 468.037 206.107 461.435Z" fill="#9525FF"/>
<path opacity="0.3" d="M139.236 328.634C147.716 328.634 146.665 207.535 133.928 150.453C121.192 93.3717 75.5037 37.0537 7.54747 47.0806L0.000215159 48.2015V61.3448C17.4345 59.7558 43.9582 61.3448 67.0229 79.4893C105.249 109.57 117.902 199.824 124.364 243.787C130.825 287.75 130.739 328.634 139.236 328.634Z" fill="#F5F5F5"/>
<path opacity="0.1" d="M78.7079 126.163C78.7079 126.163 15.7707 116.308 24.7592 199.098C33.7477 281.887 80.2176 312.3 69.7198 369.998C59.2219 427.696 132.673 445.138 141.661 365.638C150.65 286.137 157.433 137.052 78.7079 126.163Z" fill="#F5F5F5"/>
<path opacity="0.3" d="M160.47 177.455C160.47 177.455 188.08 172.047 219.946 200.588C251.813 229.129 273.046 300.093 278.354 307.755C283.663 315.417 283.663 296.952 269.875 254.529C256.087 212.105 224.203 177.393 194.473 166.59C164.743 155.787 155.162 171.283 160.47 177.455Z" fill="#F5F5F5"/>
<path opacity="0.1" d="M248.065 226.308C248.065 226.308 209.194 209.9 212.145 265.455C215.096 321.009 252.05 348.527 259.055 373.952C266.059 399.376 290.039 439.669 314.003 427.683C337.967 415.698 291.532 264.42 248.065 226.308Z" fill="#F5F5F5"/>
</g>
<path d="M726.841 405.107C726.841 405.107 732.664 404.599 733.761 409.539C733.761 409.539 729.704 409.796 726.841 405.107Z" fill="#0047A1"/>
<path d="M655.34 416.505L653.674 413.593C653.674 413.593 658.644 415.723 659.571 420.246C657.848 419.364 656.357 418.086 655.222 416.518" fill="#0047A1"/>
<path d="M735.071 295.433C729.155 289.026 720.292 283.547 720.292 283.547C715.708 273.67 711.108 278.051 711.108 278.051C710.915 279.972 704.186 285.264 704.186 285.264C696.992 289.007 686.94 293.788 686.94 293.788C656.285 313.568 661.887 344.72 661.887 344.72C671.551 351.084 666.769 363.173 666.769 363.173C672.797 374.795 678.058 378.472 678.058 378.472C686.109 385.273 694.632 391.495 703.562 397.092C713.254 392.509 730.003 383.495 730.003 383.495C742.054 375.009 748.772 361.746 748.772 361.746C748.772 361.746 748.885 361.97 749.082 362.301C749.131 362.235 749.183 362.172 749.24 362.112C749.249 362.016 749.267 361.92 749.292 361.827C749.203 361.648 749.112 361.466 749.008 361.259C744.882 352.95 753.029 348.599 753.029 348.599C760.517 317.657 735.071 295.433 735.071 295.433Z" fill="#F6FF38"/>
<path d="M713.452 276.989C713.452 276.989 711.393 260.916 709.114 259.929C709.114 259.929 713.125 259.176 713.962 260.345C714.798 261.514 715.833 267.765 715.833 267.765L719.387 266.815C719.387 266.815 716.237 259.598 719.313 255.138L720.267 256.791C720.267 256.791 720.683 248.465 726.787 245.366C726.787 245.366 726.496 246.914 726.609 247.401C726.609 247.401 733.266 241.676 733.573 239.968C734.084 240.386 734.43 240.97 734.552 241.619C734.673 242.267 734.562 242.937 734.238 243.512C734.238 243.512 738.777 238.548 741.913 233.305C741.913 233.305 742.76 236.219 741.5 238.002C741.5 238.002 745.587 234.575 746.819 227.739C746.819 227.739 752.651 231.408 753.151 241.864C753.151 241.864 755.011 240.452 755.133 239.042C755.133 239.042 754.887 247.226 753.259 249.606C753.259 249.606 755.076 248.661 755.643 247.608C755.643 247.608 754.435 257.757 749.455 260.641C749.455 260.641 752.543 261.387 753.26 260.513C753.26 260.513 747.93 267.303 744.872 267.981C744.872 267.981 747.351 268.516 748.498 268.134C748.498 268.134 741.047 273.947 738.097 273.374C738.097 273.374 740.602 275.316 741.434 275.077L740.622 275.32C740.622 275.32 731.276 275.762 728.99 273.036C728.99 273.036 729.682 275.938 730.476 275.843C730.476 275.843 723.676 274.603 721.108 269.341L715.987 270.152L715.115 277.283L713.452 276.989Z" fill="#32FF81"/>
<path d="M708.061 369.6L707.957 369.584C707.327 369.509 692.489 367.657 688.233 356.881L688.174 356.705C687.695 354.686 687.887 352.566 688.719 350.665C689.552 348.765 690.98 347.187 692.788 346.169C693.321 345.814 695.844 344.343 700.598 344.749C702.291 344.91 703.964 345.246 705.589 345.75L705.743 345.797L705.887 345.878C708 346.934 710.289 347.594 712.64 347.826C714.052 347.966 715.478 347.872 716.86 347.547C718.739 346.782 720.768 346.453 722.794 346.586C725.392 346.813 728.879 348.108 730.745 352.997L730.789 353.135C730.852 353.359 732.297 358.813 724.734 363.954C724.417 364.173 716.664 369.441 708.163 369.577L708.061 369.6Z" fill="#F69538"/>
<path d="M691.043 355.842C694.508 364.404 706.854 366.299 708.071 366.468C715.562 366.3 722.73 361.445 722.802 361.399C728.051 357.826 727.695 354.55 727.608 354.05C726.558 351.381 724.837 349.97 722.363 349.751C720.827 349.664 719.29 349.921 717.866 350.505L717.6 350.603C715.837 351.035 714.013 351.167 712.207 350.992C709.48 350.727 706.824 349.965 704.37 348.745C702.998 348.326 701.588 348.046 700.16 347.907C696.251 347.565 694.397 348.79 694.377 348.8L694.248 348.883C693.029 349.536 692.056 350.568 691.478 351.824C690.899 353.08 690.747 354.491 691.043 355.842V355.842Z" fill="#F67C8B"/>
<path d="M693.046 290.38L694.131 289.795L693.046 290.38Z" fill="#F6FF38"/>
<path d="M691.27 291.336L692.273 290.795L691.27 291.336Z" fill="#F6FF38"/>
<path d="M694.13 289.795L695.322 289.153L694.13 289.795Z" fill="#F6FF38"/>
<path d="M690.311 291.854L691.248 291.35L690.311 291.854Z" fill="#F6FF38"/>
<path d="M753.147 348.43L752.739 349.561L753.147 348.43Z" fill="#F6FF38"/>
<path d="M696.146 361.909C696.146 361.909 706.244 349.739 719.959 363.04C719.959 363.04 709.319 371.272 696.146 361.909Z" fill="#F64057"/>
<path d="M753.449 328.674L753.737 330.521L753.449 328.674Z" fill="#F6FF38"/>
<path d="M637.57 359.158C637.57 359.158 632.348 365.965 631.286 368.165C631.286 368.165 627.804 371.205 628.636 372.763C628.636 372.763 629.583 373.137 631.984 371.443C631.984 371.443 633.018 370.366 632.036 373.782C632.036 373.782 632.038 375.761 634.476 373.921L636.308 372.38C636.308 372.38 637.014 375.51 638.317 375.369C638.317 375.369 639.809 375.819 639.504 370.644C639.504 370.644 639.469 369.565 640.322 369.596C640.322 369.596 641.057 370.563 641.961 370.686C642.864 370.81 642.169 370.657 642.169 370.657C642.169 370.657 643.146 370.523 642.176 366.447C642.176 366.447 642.841 364.155 643.336 363.563C643.341 363.578 639.571 361.512 637.57 359.158Z" fill="#F6FF7F"/>
<path d="M655.377 416.486C655.377 416.486 669.151 402.986 676.301 376.869L679.188 379.37C679.188 379.37 673.094 401.791 657.416 418.889L655.425 416.916" fill="#F6FF7F"/>
<path d="M729.953 383.396L732.97 381.202C732.97 381.202 740.577 385.375 738.478 394.177C736.712 399.409 734.131 404.329 730.831 408.757L728.369 406.793C731.44 402.951 733.793 398.587 735.313 393.91C735.313 393.91 737.997 386.676 729.953 383.396Z" fill="#F6FF7F"/>
<path d="M698.805 347.915L701.926 348.157L701.136 350.952C701.136 350.952 697.49 351.369 698.805 347.915Z" fill="white"/>
<path d="M629.946 397.936C629.946 397.936 629.406 388.522 642.855 374.634L656.504 362.977C657.129 362.438 657.62 361.76 657.938 360.998C658.255 360.236 658.391 359.411 658.335 358.587C658.335 358.587 655.324 355.066 649.403 363.259C649.403 363.259 647.166 365.088 644.792 364.06C644.792 364.06 639.373 363.39 633.782 354.372L633.749 354.307C633.749 354.307 635.12 350.589 643.354 345.894L632.823 339.03C632.823 339.03 625.644 333.035 630.676 325.195C630.676 325.195 636.26 311.515 660.358 311.208L668.929 311.928C668.929 311.928 659.636 326.908 662.246 344.708C662.246 344.708 670.943 349.393 666.78 363.153C666.78 363.153 669.374 369.052 676.666 377.244L674.858 381.737C674.858 381.737 664.186 384.531 657.274 389.699C650.362 394.866 656.867 389.998 656.867 389.998C656.867 389.998 647.524 396.871 646.32 405.665L643.674 408.38C643.674 408.38 632.879 404.115 629.946 397.936Z" fill="#FF6600"/>
<path d="M733.691 380.633C733.691 380.633 744.57 372.176 749.011 361.258C749.011 361.258 745.242 353.721 753.14 348.416C753.14 348.416 755.708 335.244 753.22 326.833C753.22 326.833 759.651 330.088 756.091 336.451C756.091 336.451 767.148 323.684 769.327 317.707L770.463 313.525L770.073 313.575C770.073 313.575 781.154 315.957 785.051 325.328C785.051 325.328 784.246 328.958 781.13 332.664C781.13 332.664 772.926 344.021 768.263 346.552L763.195 349.828C763.195 349.828 758.53 352.998 760.065 362.557C760.065 362.557 765.489 380.455 764.358 382.92C764.358 382.92 763.98 392.487 759.493 398.167C759.493 398.167 750.914 403.166 748.792 402.691C748.792 402.691 750.703 399.605 751.129 397.12C751.137 397.137 756.179 385.291 733.691 380.633Z" fill="#FF6600"/>
<path d="M678.628 380.842C678.632 380.773 679.187 379.37 679.187 379.37L680.613 380.432L678.628 380.842Z" fill="#FF6600"/>
<path d="M643.728 423.475L642.157 425.411C641.838 426.902 643.576 428.901 643.576 428.901C645.401 430.42 643.685 432.016 643.922 432.114L643.685 432.016C643.839 432.614 645.046 434.247 645.046 434.247C647.2 435.764 645.622 437.387 645.622 437.387C647.494 441.237 649.279 442.691 649.9 443.104L649.942 443.129L649.9 443.104C649.975 443.155 650.051 443.202 650.13 443.244L650.122 443.227L650.13 443.244C650.738 443.615 653.158 443.619 653.158 443.619C647.177 441.093 643.728 423.475 643.728 423.475ZM650.035 443.189L650.086 443.22L650.035 443.189Z" fill="#FFC7E5"/>
<path d="M653.223 443.65C653.384 443.716 653.802 443.893 654.258 444.088C653.964 443.961 653.622 443.817 653.223 443.65Z" fill="#0000E2"/>
<path d="M643.728 423.475C643.728 423.475 645.753 421.277 647.619 420.224L653.497 413.522C653.497 413.522 655.868 418.541 659.558 420.235L655.711 424.871C655.711 424.871 654.14 426.139 655.691 431.455C655.691 431.455 658.58 439.321 656.701 442.505C656.701 442.505 655.007 443.724 653.149 443.624C653.155 443.621 647.953 443.439 643.728 423.475Z" fill="#001043"/>
<path d="M737.234 427.432C734.9 425.028 731.801 413.55 731.801 413.55C731.5 412.373 733.76 409.539 733.76 409.539C729.727 409.28 727.46 406.083 726.952 405.286L723.767 411.376C723.442 411.961 721.544 414.029 721.544 414.029C730.076 429.041 734.99 430.052 734.99 430.052C736.141 429.683 737.092 427.936 737.32 427.513L737.234 427.432Z" fill="#001043"/>
<path d="M720.232 415.373C720.232 415.373 721.247 414.259 721.538 414.031C721.538 414.031 728.794 427.513 734.985 430.055C734.985 430.055 731.076 432.119 727.424 427.606C727.236 427.328 727.122 427.008 727.09 426.675C727.058 426.342 727.109 426.006 727.241 425.699C727.241 425.699 727.346 424.688 726.957 424.421C726.957 424.421 724.512 423.407 724.385 423.289L724.317 422.642C724.317 422.642 724.723 421.239 724.307 420.982L721.856 420.077L721.777 420.096C721.777 420.096 721.195 415.673 720.229 415.446" fill="#FFC7E5"/>
<path d="M777.349 303.862C775.012 300.061 773.541 297.02 776.774 295.002L783.578 290.755C787.331 288.406 789.193 292.562 792.135 297.268L796.297 303.93C799.237 308.647 801.992 312.346 798.239 314.694L791.375 318.978C788.595 320.723 786.786 318.866 784.851 315.869L779.918 307.956" fill="#001043"/>
<path d="M773.48 314.774C773.48 314.774 773.901 305.604 780.037 302.223C780.037 302.223 781.422 303.253 779.831 304.573C779.831 304.573 778.644 306.296 780.168 308.704L784.321 315.256L784.389 315.393L782.008 320.57C779.665 317.989 776.742 316.003 773.48 314.774V314.774Z" fill="#F6FF7F"/>
<path d="M777.257 296.415L783.899 292.092C783.899 292.092 786.472 290.316 788.698 294.662C790.925 299.009 788.572 294.466 788.698 294.662C788.825 294.858 796.649 307.808 796.649 307.808C796.649 307.808 797.384 310.556 795.327 311.433L789.463 315.075C789.463 315.075 787.701 316.101 785.9 314.119L779.826 304.562C779.826 304.562 781.608 303.256 780.032 302.212L778.866 302.827C778.866 302.827 776.539 299.855 776.663 297.925C776.683 297.369 776.892 296.836 777.257 296.415V296.415Z" fill="#BA57FF"/>
<path d="M794.711 314.895C794.642 314.332 794.173 313.925 793.663 313.987C793.153 314.05 792.795 314.557 792.864 315.121C792.933 315.685 793.403 316.092 793.913 316.03C794.423 315.967 794.78 315.459 794.711 314.895Z" fill="#0024C4"/>
<path d="M753.311 348.227C753.651 346.45 753.901 344.657 754.061 342.854C755.256 329.257 751.547 316.48 744.536 306.646L742.636 303.783C736.984 294.774 720.401 283.361 720.401 283.361C715.661 274.017 711.217 277.865 711.217 277.865C710.729 280.026 705.38 284.245 705.38 284.245C703.918 285.87 693.432 290.514 693.432 290.514C676.63 297.051 663.837 313.955 662.006 334.757C661.721 338.009 661.716 341.28 661.992 344.533" stroke="#0000E2" stroke-linecap="round" stroke-linejoin="round"/>
<path d="M666.891 362.978C668.638 366.729 670.842 370.251 673.451 373.463C673.451 373.463 679.266 381.429 703.69 396.908C703.69 396.908 725.776 386.294 729.752 383.575C737.777 378.085 744.709 370.416 749.134 361.072" stroke="#0000E2" stroke-linecap="round" stroke-linejoin="round"/>
<path d="M713.462 277.08C713.462 277.08 711.395 261.011 709.124 260.02C709.124 260.02 713.133 259.268 713.972 260.436C714.811 261.603 715.842 267.86 715.842 267.86L719.399 266.909C719.399 266.909 716.246 259.689 719.322 255.233L720.276 256.886C720.276 256.886 720.692 248.559 726.799 245.46C726.799 245.46 726.508 247.007 726.62 247.494C726.62 247.494 733.275 241.771 733.584 240.061C734.085 240.482 734.423 241.066 734.539 241.71C734.655 242.354 734.542 243.019 734.219 243.588C734.219 243.588 738.757 238.621 741.895 233.382C741.895 233.382 742.744 236.294 741.48 238.076C741.48 238.076 745.571 234.65 746.801 227.816C746.801 227.816 752.632 231.485 753.132 241.941C753.132 241.941 754.992 240.528 755.117 239.116C755.117 239.116 754.872 247.301 753.24 249.682C753.24 249.682 755.06 248.736 755.627 247.683C755.627 247.683 754.417 257.829 749.437 260.717C749.437 260.717 752.528 261.461 753.242 260.59C753.242 260.59 747.91 267.377 744.856 268.056C744.856 268.056 747.332 268.592 748.482 268.209C748.482 268.209 741.031 274.022 738.085 273.447C738.085 273.447 740.587 275.391 741.404 275.159L740.592 275.402C740.592 275.402 731.246 275.844 728.96 273.118C728.96 273.118 729.655 276.019 730.446 275.925C730.446 275.925 723.644 274.683 721.081 269.422L715.96 270.233L715.088 277.364L713.462 277.08Z" stroke="#0000E2" stroke-linecap="round" stroke-linejoin="round"/>
<path d="M655.377 416.486C667.674 403.923 674.725 382.968 676.595 376.833" stroke="#0000E2" stroke-linecap="round" stroke-linejoin="round"/>
<path d="M679.164 379.187C676.716 386.949 669.634 406.571 657.419 418.887" stroke="#0000E2" stroke-linecap="round" stroke-linejoin="round"/>
<path d="M730.114 383.319C731.577 383.904 734.199 385.312 735.225 388.288C736.726 392.653 734.354 399.019 728.372 406.798" stroke="#0000E2" stroke-linecap="round" stroke-linejoin="round"/>
<path d="M732.963 381.202C734.869 382.279 737.122 384.145 738.19 387.267C740.081 392.747 737.611 399.981 730.831 408.756" stroke="#0000E2" stroke-linecap="round" stroke-linejoin="round"/>
<path d="M673.759 342.26C673.759 342.26 682.508 336.089 686.552 345.071" stroke="#0000E2" stroke-linecap="round" stroke-linejoin="round"/>
<path d="M676.566 340.845L675.475 338.82" stroke="#0000E2" stroke-linecap="round" stroke-linejoin="round"/>
<path d="M682.041 340.514L682.681 338.103" stroke="#0000E2" stroke-linecap="round" stroke-linejoin="round"/>
<path d="M685.406 343.07L687.559 341.625" stroke="#0000E2" stroke-linecap="round" stroke-linejoin="round"/>
<path d="M746.472 347.015C746.472 347.015 738.941 339.421 733.375 347.529" stroke="#0000E2" stroke-linecap="round" stroke-linejoin="round"/>
<path d="M743.954 345.125L745.372 343.326" stroke="#0000E2" stroke-linecap="round" stroke-linejoin="round"/>
<path d="M738.62 343.849L738.402 341.363" stroke="#0000E2" stroke-linecap="round" stroke-linejoin="round"/>
<path d="M734.86 345.771L732.991 343.979" stroke="#0000E2" stroke-linecap="round" stroke-linejoin="round"/>
<path d="M708.069 369.674L707.966 369.659C707.335 369.583 692.497 367.731 688.243 356.958L688.184 356.782C687.704 354.763 687.895 352.642 688.727 350.741C689.56 348.84 690.988 347.261 692.797 346.243C693.33 345.891 695.852 344.417 700.606 344.823C702.3 344.984 703.972 345.32 705.597 345.824L705.75 345.868L705.894 345.949C708.007 347.004 710.296 347.664 712.647 347.897C714.059 348.037 715.485 347.943 716.867 347.619C718.745 346.85 720.775 346.521 722.8 346.657C725.397 346.882 728.885 348.176 730.751 353.065L730.795 353.203C730.858 353.43 732.304 358.884 724.739 364.023C724.422 364.241 716.671 369.512 708.17 369.649L708.069 369.674Z" stroke="#0000E2" stroke-linecap="round" stroke-linejoin="round"/>
<path d="M691.21 355.897C694.672 364.461 707.019 366.359 708.239 366.526C715.73 366.359 722.898 361.504 722.971 361.453C728.219 357.885 727.863 354.609 727.776 354.109C726.726 351.44 725.005 350.028 722.531 349.81C720.995 349.721 719.458 349.978 718.034 350.564L717.766 350.659C716.004 351.092 714.181 351.224 712.375 351.051C709.646 350.787 706.988 350.026 704.532 348.806C703.161 348.387 701.75 348.106 700.322 347.969C696.416 347.625 694.558 348.849 694.539 348.862L694.41 348.944C693.19 349.594 692.217 350.626 691.639 351.882C691.061 353.138 690.91 354.548 691.21 355.897V355.897Z" stroke="#0000E2" stroke-linecap="round" stroke-linejoin="round"/>
<path d="M696.152 361.913C696.152 361.913 705.418 349.825 720.329 362.997" stroke="#0000E2" stroke-linecap="round" stroke-linejoin="round"/>
<path d="M698.805 347.915C698.805 347.915 697.484 351.188 701.179 350.987L701.931 348.19L698.805 347.915Z" stroke="#0000E2" stroke-linecap="round" stroke-linejoin="round"/>
<path d="M656.544 415.249C655.651 414.482 654.618 413.894 653.503 413.519C653.503 413.519 648.603 419.799 647.356 420.394C646.109 420.989 642.223 424.803 642.169 425.405C642.169 425.405 642.291 428.184 644.143 429.352C644.143 429.352 645.211 430.948 643.697 432.01C643.697 432.01 644.484 434.194 645.783 434.762C645.783 434.762 646.457 436.48 645.625 437.386C645.625 437.386 647.835 441.549 649.53 442.888C649.601 442.945 649.668 442.993 649.732 443.036C651.444 444.167 654.885 443.565 656.385 442.797C656.385 442.797 658.623 442.303 655.786 431.659C655.786 431.659 653.802 426.812 656.212 424.24L659.58 420.242C659.366 419.354 659.024 418.503 658.565 417.714" stroke="#0000E2" stroke-linecap="round" stroke-linejoin="round"/>
<path d="M732.241 406.862C732.972 407.607 733.496 408.529 733.761 409.539C733.449 409.935 733.159 410.348 732.892 410.776C732.328 411.679 731.71 412.9 731.815 413.799C731.815 413.799 733.6 419.555 734.461 422.319C734.461 422.319 736.337 426.106 737.241 427.447C737.241 427.447 735.424 432.892 729.111 429.339C729.111 429.339 726.755 427.468 727.077 426.48C727.077 426.48 727.671 425.118 726.861 424.408C726.861 424.408 724.58 423.735 724.191 423.071C724.191 423.071 724.753 421.781 724.368 421.033C724.368 421.033 722.417 420.234 721.879 420.102C721.879 420.102 721.26 416.343 720.233 415.391C720.233 415.391 723.691 411.983 724.112 410.76C724.112 410.76 727.105 405.43 726.827 405.008" stroke="#0000E2" stroke-linecap="round" stroke-linejoin="round"/>
<path d="M727.059 405.081C727.87 405.036 728.682 405.121 729.467 405.332" stroke="#0000E2" stroke-linecap="round" stroke-linejoin="round"/>
<path d="M721.078 269.431C721.078 269.431 757.738 266.95 746.82 227.835" stroke="#0000E2" stroke-linecap="round" stroke-linejoin="round"/>
<path d="M773.567 314.813C773.659 313.755 774.65 304.136 780.049 302.218C780.049 302.218 781.518 303.453 779.843 304.568C779.843 304.568 779.319 306.729 780.179 308.698L784.412 315.382C783.776 317.21 783.039 319.001 782.203 320.746" stroke="#0000E2" stroke-linecap="round" stroke-linejoin="round"/>
<path d="M753.318 348.22L754.209 341.098" stroke="#0000E2" stroke-linecap="round" stroke-linejoin="round"/>
<path d="M637.57 359.158C635.178 361.7 633.575 364.606 631.286 368.165C631.286 368.165 627.58 371.402 628.636 372.762C628.636 372.762 629.717 373.369 631.263 371.925C631.263 371.925 632.828 370.532 632.351 372.382C632.351 372.382 631.573 374.049 632.47 374.601C632.47 374.601 633.267 375.321 636.315 372.394C636.315 372.394 637.108 375.214 637.475 375.105C637.475 375.105 639.847 376.759 639.494 371.966C639.494 371.966 639.233 369.526 640.332 369.623C640.48 369.936 640.711 370.204 641 370.396C641.288 370.588 641.624 370.698 641.971 370.713C641.971 370.713 643.365 370.996 642.186 366.473C642.186 366.473 642.079 365.462 643.346 363.59" stroke="#0000E2" stroke-linecap="round" stroke-linejoin="round"/>
<path d="M772.897 342.779C769.932 345.444 766.731 347.834 763.334 349.921C763.334 349.921 757.494 354.101 760.573 364.546C760.573 364.546 765.527 381.035 764.372 382.933C764.249 388.378 762.561 393.671 759.507 398.18C759.507 398.18 751.535 402.738 748.806 402.704C748.806 402.704 762.587 384.689 750.554 363.663C750.554 363.663 743.832 354.976 753.324 348.217C753.324 348.217 755.847 335.515 753.129 326.473C753.129 326.473 759.557 330.66 756.1 336.453C756.1 336.453 770.188 320.868 770.472 313.527C770.472 313.527 782.373 317.516 785.06 325.331C785.06 325.331 784.493 327.627 782.483 331.131" stroke="#0000E2" stroke-linecap="round" stroke-linejoin="round"/>
<path d="M674.99 381.717C647.669 388.989 646.302 405.685 646.302 405.685L643.655 408.4C643.655 408.4 633.322 404.966 629.946 397.936C629.946 397.936 629.336 383.357 654.092 364.919C654.092 364.919 658.748 362.197 658.329 358.576C658.329 358.576 655.603 354.969 649.398 363.248C649.398 363.248 643.596 368.633 633.738 354.298C633.738 354.298 634.692 348.702 651.901 342.021" stroke="#0000E2" stroke-linecap="round" stroke-linejoin="round"/>
<path d="M680.616 380.438C679.943 380.568 679.28 380.705 678.632 380.844" stroke="#0000E2" stroke-linecap="round" stroke-linejoin="round"/>
<path d="M748.8 402.707C757.231 388.261 744 382.722 733.69 380.618" stroke="#0000E2" stroke-linecap="round" stroke-linejoin="round"/>
<path d="M669.078 311.977C669.078 311.977 640.957 306.142 629.445 327.006C629.445 327.006 626.137 335.405 634.95 340.536L643.343 345.899" stroke="#0000E2" stroke-linecap="round" stroke-linejoin="round"/>
<path d="M645.686 406.32C645.686 406.32 643.422 399.337 654.125 385.771C654.125 385.771 676.436 359.675 664.149 346.326C664.149 346.326 651.449 334.928 640.38 334.392C640.38 334.392 626.522 331.383 634.646 323.06C634.646 323.06 645.911 309.796 665.326 311.479" stroke="#0000E2" stroke-linecap="round" stroke-linejoin="round"/>
<path d="M777.349 303.862C775.012 300.061 773.541 297.02 776.774 295.002L783.578 290.755C787.331 288.406 789.193 292.562 792.135 297.268L796.297 303.93C799.237 308.647 801.992 312.346 798.239 314.694L791.375 318.978C788.595 320.723 786.786 318.866 784.851 315.869L779.918 307.956" stroke="#0000E2" stroke-linecap="round" stroke-linejoin="round"/>
<path d="M779.825 304.562L780.649 306.024L784.595 312.354C786.147 314.748 787.597 316.228 789.823 314.838L795.315 311.41C798.317 309.533 796.113 306.574 793.759 302.802L790.438 297.481C788.082 293.714 786.592 290.394 783.575 292.276L778.133 295.675C775.547 297.291 776.719 299.712 778.596 302.763" stroke="#0000E2" stroke-linecap="round" stroke-linejoin="round"/>
<path d="M653.502 413.519C653.502 413.519 656.743 419.566 659.564 420.232" stroke="#0000E2" stroke-linecap="round" stroke-linejoin="round"/>
<path d="M727.104 405.413C727.104 405.413 730.753 410.027 733.761 409.539" stroke="#0000E2" stroke-linecap="round" stroke-linejoin="round"/>
<path d="M794.718 314.958C794.688 314.39 794.248 313.952 793.735 313.979C793.222 314.005 792.83 314.487 792.86 315.054C792.889 315.622 793.329 316.06 793.842 316.033C794.355 316.007 794.747 315.525 794.718 314.958Z" stroke="#0000E2" stroke-linecap="round" stroke-linejoin="round"/>
<path d="M742.558 259.279C744.714 260.283 747.073 260.777 749.45 260.725" stroke="#0024C4" stroke-miterlimit="10" stroke-linejoin="round"/>
<path d="M735.912 264.672C735.912 264.672 739.132 267.79 744.864 268.052" stroke="#0024C4" stroke-miterlimit="10" stroke-linejoin="round"/>
<path d="M741.5 238.094C741.5 238.094 741.135 246.047 748.378 246.881" stroke="#0024C4" stroke-miterlimit="10" stroke-linejoin="round"/>
<path d="M743.981 234.998C743.981 234.998 744.703 240.44 748.834 240.125" stroke="#0024C4" stroke-miterlimit="10" stroke-linejoin="round"/>
<path d="M1165.59 -136.988C1165.59 -136.988 1250.35 -242.243 1392.5 -181.443L1396.1 -134.656C1396.1 -134.656 1430.44 -139.425 1435.43 -132.621C1440.42 -125.818 1448.63 -55.616 1448.63 -55.616C1448.63 -55.616 1427.63 -36.8552 1423.57 -54.3216C1419.52 -71.7879 1419.21 -105.529 1412.02 -110.743C1404.82 -115.958 1398.55 -106.716 1398.55 -106.716C1398.55 -106.716 1409.37 47.0849 1404.73 116.414C1404.73 116.414 1371.96 166.038 1282.15 140.841C1282.15 140.841 1205.38 3.56884 1175.11 -113.155L1165.59 -136.988Z" fill="#D8E5F4" fill-opacity="0.85"/>
<path d="M1282.18 140.831C1282.18 140.831 1331.58 95.9663 1404.76 116.404C1404.76 116.404 1385.3 141.156 1350.7 146.281C1316.1 151.407 1282.18 140.831 1282.18 140.831Z" fill="#112AA5"/>
<path opacity="0.4" d="M1322.25 -199.477C1343.75 -197.636 1367.17 -192.079 1392.49 -181.271L1396.09 -134.493C1396.09 -134.493 1430.43 -139.253 1435.42 -132.449C1440.41 -125.646 1448.63 -55.4438 1448.63 -55.4438C1448.63 -55.4438 1427.62 -36.6831 1423.57 -54.1589C1419.51 -71.6348 1419.21 -105.366 1412.01 -110.571C1404.82 -115.776 1398.54 -106.544 1398.54 -106.544C1398.54 -106.544 1408.88 40.344 1405.01 111.739L1404.74 117.587C1395.23 115.069 1385.52 113.386 1375.72 112.557C1375.72 112.557 1340.95 -155.914 1327.06 -189.878L1322.25 -199.477Z" fill="#9C9AFF"/>
<path d="M1165.59 -136.988C1165.59 -136.988 1250.35 -242.243 1392.5 -181.443L1396.1 -134.656C1396.1 -134.656 1430.44 -139.425 1435.43 -132.621C1440.42 -125.818 1448.63 -55.616 1448.63 -55.616C1448.63 -55.616 1427.63 -36.8552 1423.57 -54.3216C1419.52 -71.7879 1419.21 -105.529 1412.02 -110.743C1404.82 -115.958 1398.55 -106.716 1398.55 -106.716C1398.55 -106.716 1409.37 47.0849 1404.73 116.414C1404.73 116.414 1371.96 166.038 1282.15 140.841C1282.15 140.841 1205.38 3.56884 1175.11 -113.155L1165.59 -136.988Z" stroke="#1100A5" stroke-miterlimit="10"/>
<path d="M1205.5 -154.495C1205.5 -154.495 1271.95 122.806 1306.79 100.946C1341.64 79.0867 1205.5 -154.495 1205.5 -154.495Z" fill="#F9EFE0" fill-opacity="0.25"/>
<path d="M1127.02 375.191L1215.78 238.005C1215.78 238.005 1229.87 224.836 1258.4 233.706L1270.17 219.753C1270.17 219.753 1290.53 216.322 1342 240.813C1393.47 265.305 1399.87 278.978 1399.87 278.978L1400.11 294.226C1400.11 294.226 1419.05 303.286 1428.08 332.475L1393.23 503.723C1393.23 503.723 1352.45 507.04 1252.69 459.789C1152.93 412.539 1127.02 375.191 1127.02 375.191Z" fill="#FF532B"/>
<path d="M1433.42 404.553L1429.35 393.703L1434.77 391.71C1434.99 391.621 1457.51 382.912 1479.88 359.439C1509.79 328.04 1525.28 286.488 1525.9 235.936C1526.51 185.383 1509.51 142.108 1475.38 107.236C1449.75 81.0566 1423.51 69.7006 1423.25 69.5903L1417.93 67.3204L1422.45 56.6672L1427.78 58.9179C1428.93 59.405 1456.08 71.099 1483.32 98.7783C1508.51 124.355 1538.31 168.942 1537.48 236.085C1536.65 303.228 1510.04 344.747 1487.85 367.873C1463.68 393.043 1439.85 402.182 1438.83 402.56L1433.42 404.553Z" fill="#123AEC" stroke="#1100A5" stroke-miterlimit="10"/>
<path d="M1419.14 378.175C1419.14 378.175 1430.05 377.134 1436.64 377.468C1436.64 377.468 1437.13 415.133 1436.03 416.228C1434.94 417.323 1411.2 416.013 1411.2 416.013L1419.14 378.175Z" fill="#FF532B"/>
<path d="M1142.63 391.444C1142.63 391.444 1134.32 416.914 1135.24 437.91C1135.24 437.91 1149.97 452.175 1182.79 468.822C1182.79 468.822 1206.26 464.197 1219.01 442.737C1219.01 442.737 1176.37 421.203 1142.63 391.444Z" fill="#123AEC"/>
<path d="M1310.34 484.22C1310.34 484.22 1309.61 498.331 1312.24 508.022C1312.24 508.022 1300.92 522.186 1306.98 526.532C1313.05 530.878 1372.18 522.636 1372.61 521.933C1373.04 521.231 1384.9 515.303 1386.59 507.507L1386.53 503.571C1386.53 503.571 1355.28 501.38 1310.34 484.22Z" fill="#123AEC"/>
<path d="M1195.55 268.861C1192.02 264.414 1188.25 260.177 1184.23 256.171C1184.23 256.171 1156.78 281.965 1156.75 283.519C1156.73 285.073 1174.19 301.24 1174.19 301.24L1195.55 268.861Z" fill="#FF532B" stroke="#1100A5" stroke-miterlimit="10"/>
<path d="M1165.5 273.98C1159.76 267.923 1154.46 260.447 1148.85 250.47C1137.67 230.503 1130.93 208.36 1129.08 185.551C1128.3 175.614 1128.42 165.626 1129.42 155.709C1126.29 153.135 1124.01 149.676 1122.88 145.784C1117.55 127.652 1136.13 101.399 1145.06 88.7783L1145.99 87.4098C1159.14 68.7263 1176.64 51.6515 1197.97 36.5176C1202.44 33.3675 1207.02 30.3777 1211.6 27.6453L1217.53 37.5985C1213.22 40.1742 1208.89 42.998 1204.66 45.9821C1184.41 60.3076 1167.86 76.4905 1155.47 94.0847L1154.48 95.4731C1150.03 101.759 1140.66 115.006 1136.07 126.909C1138.68 121.666 1142.61 117.194 1147.47 113.935C1150.22 112.137 1153.35 111.013 1156.62 110.657C1159.89 110.3 1163.19 110.72 1166.26 111.882C1169.86 113.175 1173.12 115.277 1175.78 118.026C1178.43 120.776 1180.43 124.099 1181.6 127.739C1184.2 136.278 1181.69 144.63 1174.52 151.188C1165.78 159.201 1151.5 163.098 1140.56 160.946C1139.96 168.828 1139.98 176.745 1140.6 184.625C1142.31 205.76 1148.55 226.278 1158.91 244.781C1164.05 253.917 1168.8 260.658 1173.88 266.001L1165.5 273.98ZM1141.85 149.353C1149.08 151.345 1160.48 148.37 1166.74 142.637C1172.47 137.408 1171.02 132.674 1170.55 131.137C1169.91 129.224 1168.84 127.48 1167.43 126.038C1166.02 124.596 1164.3 123.492 1162.4 122.811C1161.02 122.27 1159.54 122.059 1158.07 122.195C1156.6 122.331 1155.18 122.81 1153.93 123.594C1145.98 128.858 1143.39 138.232 1141.85 149.353Z" fill="#123AEC" stroke="#1100A5" stroke-miterlimit="10"/>
<path d="M1129.42 155.708C1129.42 155.708 1131.76 134.384 1136.11 126.908Z" fill="#123AEC"/>
<path d="M1129.42 155.708C1129.42 155.708 1131.76 134.384 1136.11 126.908" stroke="#1100A5" stroke-miterlimit="10"/>
<path d="M1141.85 149.353C1141.76 149.45 1140.6 160.946 1140.6 160.946Z" fill="#123AEC"/>
<path d="M1141.85 149.353C1141.76 149.45 1140.6 160.946 1140.6 160.946" stroke="#1100A5" stroke-miterlimit="10"/>
<path d="M1299.73 450.921C1277.97 451.266 1257.04 444.507 1238.29 430.925C1227 422.805 1217.2 412.787 1209.33 401.319C1208.26 399.631 1207.91 397.588 1208.34 395.639C1208.78 393.689 1209.97 391.992 1211.65 390.92C1213.34 389.853 1215.38 389.499 1217.33 389.934C1219.28 390.37 1220.97 391.559 1222.04 393.243V393.243C1229.02 403.227 1237.65 411.949 1247.55 419.033C1269.09 434.468 1292.83 439.352 1318.15 433.574C1319.11 433.351 1320.11 433.322 1321.09 433.486C1322.06 433.651 1322.99 434.006 1323.83 434.532C1324.67 435.058 1325.4 435.744 1325.97 436.551C1326.54 437.359 1326.95 438.271 1327.17 439.236C1327.39 440.2 1327.42 441.199 1327.26 442.174C1327.09 443.15 1326.74 444.084 1326.21 444.922C1325.68 445.76 1325 446.486 1324.19 447.059C1323.38 447.631 1322.47 448.039 1321.51 448.258C1314.36 449.901 1307.06 450.794 1299.73 450.921V450.921Z" fill="#FD8BA2" stroke="#1100A5" stroke-miterlimit="10"/>
<path d="M1215.69 397.271C1215.69 397.271 1253.03 456.162 1319.82 440.897" stroke="#1100A5" stroke-miterlimit="10" stroke-linecap="round"/>
<path d="M1291.46 410.803C1317.17 410.395 1337.68 389.224 1337.27 363.517C1336.86 337.811 1315.69 317.302 1289.98 317.711C1264.28 318.119 1243.77 339.29 1244.18 364.997C1244.58 390.704 1265.76 411.212 1291.46 410.803Z" fill="#FDC100" stroke="#1100A5" stroke-miterlimit="10"/>
<path d="M1263.22 400.843C1263.22 400.843 1278.31 394.197 1277.32 369.313C1277.32 369.313 1273.15 352.497 1276.87 345.565C1280.59 338.632 1290.21 327.24 1314.34 325.208C1314.34 325.208 1299.43 340.697 1301.37 364.336C1303.31 387.975 1295.8 402.594 1263.22 400.843Z" fill="#030D78" stroke="#1100A5" stroke-miterlimit="10"/>
<path d="M1182.79 468.822C1182.79 468.822 1186.23 437.586 1195.71 429.609L1219.01 442.737C1219.01 442.737 1208.37 462.649 1182.79 468.822Z" fill="#1213EC"/>
<path d="M1142.63 391.444C1142.63 391.444 1134.32 416.914 1135.24 437.91C1135.24 437.91 1149.97 452.175 1182.79 468.822C1182.79 468.822 1206.26 464.197 1219.01 442.737C1219.01 442.737 1176.37 421.203 1142.63 391.444Z" stroke="#1100A5" stroke-miterlimit="10"/>
<path d="M1372.61 521.962C1372.61 521.962 1369.44 508.609 1372.29 501.615C1376.95 502.773 1381.73 503.417 1386.53 503.533C1386.53 503.533 1387.48 508.39 1384.75 511.598C1382.03 514.806 1377.02 519.604 1372.61 521.962Z" fill="#1213EC"/>
<path d="M1310.34 484.22C1310.34 484.22 1309.61 498.331 1312.24 508.022C1312.24 508.022 1300.92 522.186 1306.98 526.532C1313.05 530.878 1372.18 522.636 1372.61 521.933C1373.04 521.231 1384.9 515.303 1386.59 507.507L1386.53 503.571C1386.53 503.571 1355.28 501.38 1310.34 484.22Z" stroke="#1100A5" stroke-miterlimit="10"/>
<path d="M1310.19 315.465L1318.73 309.695L1318.25 319.931L1310.19 315.465Z" fill="#FD8BA2" stroke="#1100A5" stroke-miterlimit="10"/>
<path d="M1328.21 327.332L1338.04 324.211L1334.68 333.883L1328.21 327.332Z" fill="#FD8BA2" stroke="#1100A5" stroke-miterlimit="10"/>
<path d="M1337.99 343.02L1348.2 344.469L1340.99 351.733L1337.99 343.02Z" fill="#FD8BA2" stroke="#1100A5" stroke-miterlimit="10"/>
<path d="M1268.1 312.978L1269.49 302.765L1276.8 309.932L1268.1 312.978Z" fill="#FD8BA2" stroke="#1100A5" stroke-miterlimit="10"/>
<path d="M1287.14 308.682L1293.18 300.311L1296.25 310.081L1287.14 308.682Z" fill="#FD8BA2" stroke="#1100A5" stroke-miterlimit="10"/>
<path d="M1271.63 413.302L1263.25 419.297L1263.45 409.066L1271.63 413.302Z" fill="#FD8BA2" stroke="#1100A5" stroke-miterlimit="10"/>
<path d="M1253.28 401.945L1243.54 405.332L1246.63 395.569L1253.28 401.945Z" fill="#FD8BA2" stroke="#1100A5" stroke-miterlimit="10"/>
<path d="M1243.06 386.531L1232.82 385.368L1239.83 377.898L1243.06 386.531Z" fill="#FD8BA2" stroke="#1100A5" stroke-miterlimit="10"/>
<path d="M1313.76 414.615L1312.66 424.861L1305.15 417.898L1313.76 414.615Z" fill="#FD8BA2" stroke="#1100A5" stroke-miterlimit="10"/>
<path d="M1294.85 419.444L1289.05 427.972L1285.71 418.292L1294.85 419.444Z" fill="#FD8BA2" stroke="#1100A5" stroke-miterlimit="10"/>
<path d="M1212.3 28.7779L1213.71 26.8394L1222.18 32.9679L1216.86 36.3985L1212.3 28.7779Z" fill="#FF532B" stroke="#1100A5" stroke-miterlimit="10"/>
<path d="M1417.9 66.5595L1412.52 61.24L1420.54 55.5645L1422.16 57.2832L1417.9 66.5595Z" fill="#FF532B" stroke="#1100A5" stroke-miterlimit="10"/>
<path d="M1382.71 263.484C1382.71 263.484 1386.31 277.792 1383.25 288.947C1383.25 288.947 1395.38 306.704 1393.89 323.944L1356.08 498.337C1356.08 498.337 1376.98 503.495 1393.19 503.676L1411.2 415.984L1428.03 332.429C1428.03 332.429 1423.95 315.259 1408.14 299.962C1408.14 299.962 1404.1 295.765 1400.07 294.18L1399.82 278.931C1399.82 278.931 1390.69 268.676 1382.71 263.484Z" fill="#112AA5"/>
<path d="M1415.43 394.83C1415.43 394.83 1430.05 384.903 1436.7 383.653L1436.6 377.42L1419.1 378.128L1415.43 394.83Z" fill="#123AEC"/>
<path d="M1419.14 378.175C1419.14 378.175 1430.05 377.134 1436.64 377.468C1436.64 377.468 1437.13 415.133 1436.03 416.228C1434.94 417.323 1411.2 416.013 1411.2 416.013L1419.14 378.175Z" stroke="#1100A5" stroke-miterlimit="10"/>
<path opacity="0.2" d="M1130.68 379.633L1220.83 242.692C1220.83 242.692 1239.39 231.148 1260.39 239.69C1281.39 248.231 1246.05 255.17 1246.05 255.17C1246.05 255.17 1202.34 328.457 1156.37 402.761C1156.37 402.78 1136.3 386.531 1130.68 379.633Z" fill="white"/>
<path d="M1127.02 375.191L1215.78 238.005C1215.78 238.005 1229.87 224.836 1258.4 233.706L1270.17 219.753C1270.17 219.753 1290.53 216.322 1342 240.813C1393.47 265.305 1399.87 278.978 1399.87 278.978L1400.11 294.226C1400.11 294.226 1419.05 303.286 1428.08 332.475L1393.23 503.723C1393.23 503.723 1352.45 507.04 1252.69 459.789C1152.93 412.539 1127.02 375.191 1127.02 375.191Z" stroke="#1100A5" stroke-miterlimit="10"/>
<path opacity="0.2" d="M1173.03 271.306C1171 272.826 1169.21 274.641 1167.72 276.691C1166.23 278.769 1165.59 281.341 1165.93 283.878C1166.13 285.126 1166.7 286.285 1167.56 287.206C1168.43 288.127 1169.55 288.767 1170.78 289.044C1173.29 289.433 1175.72 287.936 1177.6 286.209C1182.29 281.855 1185.13 275.842 1187.83 269.984C1189.29 266.806 1188.39 262.063 1183.99 263.506C1180.18 264.777 1176.18 268.768 1173.03 271.306Z" fill="white"/>
<path d="M1212.26 25.8909C1212.67 25.5507 1206.92 -5.32985 1211.69 -9.73358C1216.47 -14.1373 1214.21 3.32447 1217.08 6.38653C1217.08 6.38653 1218.23 -8.40764 1222.46 -7.85512C1226.68 -7.3026 1221.61 8.20204 1224.65 10.3747C1224.65 10.3747 1229.58 5.85423 1231.63 2.27546C1233.68 -1.30331 1237.69 6.50698 1229.84 15.4018C1229.84 15.4018 1228.34 32.5846 1225.39 34.8909L1212.26 25.8909Z" fill="#FDC100" stroke="#1100A5" stroke-miterlimit="10"/>
<path d="M1409.51 63.3271C1409.51 63.3271 1390.52 45.3355 1390.61 38.2417C1390.7 31.4053 1399.72 42.9872 1401.7 41.1635C1401.92 40.9298 1402.09 40.6546 1402.19 40.3547C1402.3 40.0548 1402.35 39.7364 1402.33 39.4187C1402.31 38.121 1402.01 36.843 1401.44 35.677C1399.9 32.279 1397.02 29.7796 1394.93 26.7529C1393.95 25.4052 1391.12 21.0937 1394.55 20.9153C1397.27 20.7481 1399.84 23.3765 1401.56 25.1604C1403.91 27.6086 1405.97 30.3279 1407.68 33.2612C1408 33.8185 1408.45 35.1078 1409.21 35.1435C1410.4 35.258 1410.45 33.2936 1410.47 32.5115C1410.54 30.4748 1410.16 28.4482 1409.37 26.571C1408.44 24.4124 1406.49 22.6606 1405.87 20.3826C1405.31 18.2563 1406.78 17.232 1408.7 18.0403C1411.49 19.2257 1423.5 34.678 1424.66 52.829L1409.51 63.3271Z" fill="#FDC100" stroke="#1100A5" stroke-miterlimit="10"/>
<path d="M15.9737 270.238C9.85332 270.305 -2.44759 272.901 -9.48356 292.473C-18.9472 318.761 -9.77273 346.146 -18.9894 346.562C-20.7062 346.64 -20.9532 344.225 -21.0978 343.002C-21.1941 342.189 -21.2001 341.351 -21.3688 340.55C-21.6098 339.405 -22.2603 339.49 -23.2543 339.948C-24.5942 340.483 -25.807 341.294 -26.8145 342.327C-28.5313 344.363 -29.5614 346.604 -30.8084 348.911C-31.5734 350.315 -33.5011 353.164 -35.4348 352.08C-38.3564 350.441 -34.4649 346.423 -33.7842 344.694C-33.9649 344.544 -36.3383 343.49 -36.3564 343.49C-37.4407 345.062 -41.1756 351.616 -43.29 347.839C-44.4947 345.706 -42.0852 342.369 -40.6937 340.984C-40.5692 340.885 -40.4751 340.754 -40.4226 340.604C-40.3021 340.116 -42.272 338.598 -42.7418 338.472C-43.8141 338.189 -44.9827 338.839 -45.8321 339.436C-46.6815 340.032 -48.0127 342.152 -49.091 341.845C-49.257 341.787 -49.4084 341.693 -49.5343 341.571C-49.6602 341.448 -49.7577 341.299 -49.82 341.134C-50.4224 339.779 -49.3681 337.845 -48.7838 336.622C-47.9622 334.943 -47.0347 333.317 -46.0068 331.755C-43.2297 327.466 -39.8925 322.785 -35.2781 320.34C-35.1198 317.277 -34.7738 314.227 -34.242 311.207C-33.4722 306.642 -32.3299 302.147 -30.8264 297.768C-29.0454 292.488 -26.5785 287.466 -23.4892 282.829C-20.136 277.798 -15.8027 273.496 -10.7486 270.178C-4.82256 266.444 1.90659 264.173 8.88346 263.552C11.4477 263.304 14.0256 263.227 16.6001 263.323L18.0037 263.287L15.9737 270.238Z" fill="#FCFF8B"/>
<path d="M229.432 271.551L229.841 271.455C240.932 268.642 251.028 262.594 257.401 252.931C262.509 245.196 264.919 235.998 265.606 226.829C266.251 218.692 265.641 210.505 263.798 202.553C267.335 198.878 269.31 194.047 270.847 189.234C271.578 187.044 272.126 184.798 272.485 182.517C272.642 181.403 273.268 177.951 271.154 178.162C268.545 178.421 269.551 186.138 265.6 183.132C264.997 182.656 263.148 181.77 263.672 180.776C264.371 179.445 266.039 171.807 262.226 173.228C261.021 173.674 258.437 179.981 258.57 180.005L256.714 179.692H255.654C259.226 170.283 252.745 169.313 251.437 177.74C251.01 180.481 250.305 183.644 248.425 185.782C247.347 186.987 246.618 186.957 245.413 185.83C243.968 184.451 242.727 182.885 241.329 181.457C240.353 180.463 239.058 181.583 238.516 182.535C238.044 183.509 237.836 184.589 237.914 185.668C237.95 188.589 238.793 191.517 239.552 194.312C240.636 198.3 241.847 202.252 242.901 206.246C245.51 216.071 247.311 226.209 246.606 236.407C245.16 257.16 233.474 263.178 227.601 264.901L229.432 271.551Z" fill="#FCFF8B"/>
<path d="M122.525 409.403C61.8097 409.403 12.5941 359.652 12.5941 298.256C12.5484 279.409 17.2882 260.86 26.3692 244.345C35.4503 227.831 48.5753 213.893 64.5144 203.836L69.3757 200.957C85.6111 191.857 103.914 187.086 122.525 187.102C183.246 187.102 232.468 236.859 232.468 298.237C232.468 359.615 183.246 409.385 122.525 409.385" fill="#FDC100"/>
<path d="M162.958 271.003C163.236 271.726 164.422 275.413 162.248 280.34C158.977 287.726 150.061 293.912 135.742 298.689C132.71 299.649 129.577 300.255 126.405 300.496C118.574 301.183 107.327 300.165 98.0925 291.364C96.5443 289.888 93.2734 283.834 94.6709 278.352C95.448 275.419 97.8576 271.618 104.954 270.033C106.098 269.69 114.725 267.515 126.532 272.22C128.034 272.822 129.652 273.077 131.266 272.967C132.625 272.866 133.921 272.355 134.983 271.503C135.327 271.214 144.019 264.003 151.796 263.317C157.163 262.853 161.133 265.57 162.982 270.979" fill="#FD6800"/>
<path d="M109.38 274.136C108.308 274.208 107.245 274.384 106.206 274.66L105.995 274.708C102.164 275.558 99.8686 277.172 99.1758 279.491C98.1698 282.925 100.652 287.268 101.23 287.889C109.188 295.485 119.079 296.364 125.97 295.762C128.776 295.533 131.548 294.993 134.235 294.153C150.319 288.774 155.982 282.708 157.921 278.533C159.494 275.142 158.674 272.811 158.644 272.708C157.439 269.226 155.476 267.829 152.193 268.118C145.831 268.672 137.958 275.202 137.88 275.262C136.112 276.715 133.939 277.586 131.657 277.756C129.313 277.932 126.961 277.563 124.784 276.678C118.175 274.046 112.742 273.841 109.38 274.136Z" fill="#FD4D00"/>
<path d="M145.013 289.786C126.621 280.31 114.622 289.96 110.899 293.966C110.899 293.966 126.236 300.563 145.013 289.786Z" fill="#FD8300"/>
<path d="M62.852 190.445C64.4303 183.776 69.4783 148.994 2.90165 147.169C2.61853 147.169 21.1 151.325 31.4612 181.011C39.8225 204.963 54.9546 197.107 60.4545 193.186" fill="#6DE272"/>
<path d="M60.4556 193.186C63.0516 196.562 64.3357 200.766 64.0699 205.017C63.6904 214.053 70.0276 203.414 70.0276 203.414C70.0276 203.414 66.5337 194.095 62.8712 190.445" fill="#6DE272"/>
<path d="M67.9065 207.288C67.9065 207.288 68.9366 197.945 62.75 191.626C62.75 191.626 64.7198 177.391 57.2803 164.572C57.2803 164.572 66.4969 171.921 63.5392 190.511C63.5392 190.511 67.039 193.367 70.7317 203.385C70.7197 203.409 69.1776 206.204 67.9065 207.288Z" fill="#0200EC"/>
<path d="M69.647 200.686C69.647 200.686 200.837 156.874 232.468 298.274C232.468 298.274 231.8 279.696 229.456 271.883C229.456 271.883 219.438 220.535 169.47 197.788C169.494 197.77 124.983 172.168 69.647 200.686Z" fill="#023AEC"/>
<path d="M233.673 270.346C233.673 270.346 229.456 266.178 233.673 262.437C233.673 262.437 231.083 263.69 228.179 265.009C225.276 266.328 229.481 271.865 229.481 271.865L233.673 270.346Z" fill="#023AEC"/>
<path d="M64.4427 203.758C48.4923 213.818 35.3576 227.764 26.2701 244.288C17.1825 260.812 12.4397 279.373 12.4862 298.231C12.4862 359.676 61.7681 409.446 122.562 409.446" stroke="#1100A5" stroke-linecap="round" stroke-linejoin="round"/>
<path d="M122.532 409.446C183.331 409.446 232.619 359.664 232.619 298.231C232.619 236.799 183.331 187.029 122.532 187.029C103.897 187.013 85.5712 191.784 69.3101 200.884" stroke="#1100A5" stroke-linecap="round" stroke-linejoin="round"/>
<path d="M229.432 271.551L229.841 271.455C240.932 268.642 251.028 262.594 257.401 252.931C262.509 245.196 264.919 235.998 265.606 226.829C266.251 218.692 265.641 210.505 263.798 202.553C267.335 198.878 269.31 194.047 270.847 189.234C271.578 187.044 272.126 184.798 272.485 182.517C272.642 181.403 273.268 177.951 271.154 178.162C268.545 178.421 269.551 186.138 265.6 183.132C264.997 182.656 263.148 181.77 263.672 180.776C264.371 179.445 266.039 171.807 262.226 173.228C261.021 173.674 258.437 179.981 258.57 180.005L256.714 179.692H255.654C259.226 170.283 252.745 169.313 251.437 177.74C251.01 180.481 250.305 183.644 248.425 185.782C247.347 186.987 246.618 186.957 245.413 185.83C243.968 184.451 242.727 182.885 241.329 181.457C240.353 180.463 239.058 181.583 238.516 182.535C238.044 183.509 237.836 184.589 237.914 185.668C237.95 188.589 238.793 191.517 239.552 194.312C240.636 198.3 241.847 202.252 242.901 206.246C245.51 216.071 247.311 226.209 246.606 236.407C245.16 257.16 233.474 263.178 227.601 264.901L229.432 271.551Z" stroke="#1100A5" stroke-linecap="round" stroke-linejoin="round"/>
<path d="M77.6224 273.738C80.8861 273.738 83.5319 270.893 83.5319 267.383C83.5319 263.873 80.8861 261.027 77.6224 261.027C74.3587 261.027 71.7129 263.873 71.7129 267.383C71.7129 270.893 74.3587 273.738 77.6224 273.738Z" fill="#1100A5"/>
<path d="M60.8096 193.294C63.4141 196.694 64.6981 200.923 64.4239 205.197C64.0384 214.293 70.4479 203.589 70.4479 203.589C70.4479 203.589 66.9359 194.209 63.2191 190.535" stroke="#1100A5" stroke-linecap="round" stroke-linejoin="round"/>
<path d="M163.349 270.877C163.627 271.612 164.825 275.341 162.627 280.316C159.319 287.792 150.302 294.045 135.802 298.876C132.738 299.86 129.57 300.485 126.362 300.738C118.453 301.424 107.086 300.4 97.7185 291.497C96.1523 290.003 92.809 283.883 94.2608 278.335C95.0379 275.371 97.4776 271.527 104.658 269.901C105.815 269.552 114.537 267.347 126.483 272.106C128 272.716 129.635 272.976 131.266 272.865C132.642 272.764 133.955 272.247 135.031 271.383C135.374 271.094 144.151 263.799 152.037 263.106C157.458 262.63 161.476 265.383 163.349 270.853" stroke="#1100A5" stroke-linecap="round" stroke-linejoin="round"/>
<path d="M109.158 274.046C108.074 274.122 106.999 274.299 105.948 274.576L105.737 274.624C101.863 275.485 99.5381 277.112 98.8393 279.443C97.8152 282.913 100.327 287.31 100.918 287.937C108.966 295.617 118.989 296.509 125.941 295.901C128.778 295.668 131.58 295.123 134.296 294.274C150.561 288.852 156.296 282.69 158.254 278.479C159.844 275.046 159.019 272.684 158.982 272.588C157.778 269.058 155.784 267.648 152.458 267.943C146.025 268.504 138.061 275.106 138.001 275.172C136.21 276.637 134.013 277.516 131.706 277.69C129.336 277.872 126.955 277.498 124.754 276.6C118.056 273.955 112.562 273.744 109.158 274.046Z" stroke="#1100A5" stroke-linecap="round" stroke-linejoin="round"/>
<path d="M110.706 294.057C114.471 290.008 126.603 280.244 145.205 289.84" stroke="#1100A5" stroke-linecap="round" stroke-linejoin="round"/>
<path d="M63.2255 190.541C64.8158 183.836 69.894 148.837 2.90163 147C2.61851 147 21.2145 151.181 31.6419 181.047C40.0755 205.143 55.2558 197.246 60.8098 193.3" stroke="#1100A5" stroke-linecap="round" stroke-linejoin="round"/>
<path d="M3.45068 147.169C3.45068 147.169 45.0822 154.753 62.3408 191.65" stroke="#1100A5" stroke-linecap="round" stroke-linejoin="round"/>
<path d="M32.7202 183.867C32.7202 183.867 44.5512 174.289 53.6414 177.566" stroke="#1100A5" stroke-linecap="round" stroke-linejoin="round"/>
<path d="M35.1182 188.734C35.1182 188.734 51.4311 178.842 57.5996 183.125" stroke="#1100A5" stroke-linecap="round" stroke-linejoin="round"/>
<path d="M15.9737 270.238C9.85332 270.305 -2.44759 272.901 -9.48356 292.473C-18.9472 318.761 -9.77273 346.146 -18.9894 346.562C-20.7062 346.64 -20.9532 344.225 -21.0978 343.002C-21.1941 342.189 -21.2001 341.351 -21.3688 340.55C-21.6098 339.405 -22.2603 339.49 -23.2543 339.948C-24.5942 340.483 -25.807 341.294 -26.8145 342.327C-28.5313 344.363 -29.5614 346.604 -30.8084 348.911C-31.5734 350.315 -33.5011 353.164 -35.4348 352.08C-38.3564 350.441 -34.4649 346.423 -33.7842 344.694C-33.9649 344.544 -36.3383 343.49 -36.3564 343.49C-37.4407 345.062 -41.1756 351.616 -43.29 347.839C-44.4947 345.706 -42.0852 342.369 -40.6937 340.984C-40.5692 340.885 -40.4751 340.754 -40.4226 340.604C-40.3021 340.116 -42.272 338.598 -42.7418 338.472C-43.8141 338.189 -44.9827 338.839 -45.8321 339.436C-46.6815 340.032 -48.0127 342.152 -49.091 341.845C-49.257 341.787 -49.4084 341.693 -49.5343 341.571C-49.6602 341.448 -49.7577 341.299 -49.82 341.134C-50.4224 339.779 -49.3681 337.845 -48.7838 336.622C-47.9622 334.943 -47.0347 333.317 -46.0068 331.755C-43.2297 327.466 -39.8925 322.785 -35.2781 320.34C-35.1198 317.277 -34.7738 314.227 -34.242 311.207C-33.4722 306.642 -32.3299 302.147 -30.8264 297.768C-29.0454 292.488 -26.5785 287.466 -23.4892 282.829C-20.136 277.798 -15.8027 273.496 -10.7486 270.178C-4.82256 266.444 1.90659 264.173 8.88346 263.552C11.4477 263.304 14.0256 263.227 16.6001 263.323L18.0037 263.287L15.9737 270.238Z" stroke="#1100A5" stroke-linecap="round" stroke-linejoin="round"/>
<path d="M176.271 262.353C179.535 262.353 182.18 259.507 182.18 255.997C182.18 252.487 179.535 249.642 176.271 249.642C173.007 249.642 170.361 252.487 170.361 255.997C170.361 259.507 173.007 262.353 176.271 262.353Z" fill="#1100A5"/>
<path d="M1440 613H0V367.118C0 367.118 364.5 193.603 608.5 367.118C852.5 540.634 970.5 578.152 1148.5 526.16C1326.5 474.167 1440 526.16 1440 526.16V613Z" fill="#04D493"/>
<path d="M708.754 538.648C708.754 538.648 702.258 533.508 703.07 524.851C703.339 519.442 704.716 519.173 705.1 515.525C708.073 516.2 715.243 518.498 715.924 529.728" stroke="#023AEC" stroke-miterlimit="10"/>
<path d="M714.837 523.908C714.837 523.908 715.386 516.469 718.76 512.678C720.423 510.894 721.961 508.996 723.363 507C723.363 507 727.554 511.328 727.554 516.469C727.554 521.609 725.793 528.368 725.793 528.368" stroke="#023AEC" stroke-miterlimit="10"/>
<path d="M721.059 535.132C721.059 535.132 723.39 527.72 729.425 526.623C735.459 525.526 737.407 523.644 737.407 523.644C737.407 523.644 741.06 535.954 730.237 540.42" stroke="#023AEC" stroke-miterlimit="10"/>
<path d="M53.7537 477.648C53.7537 477.648 47.2583 472.508 48.0702 463.851C48.339 458.442 49.716 458.173 50.1 454.525C53.0734 455.2 60.2434 457.498 60.9237 468.728" stroke="#023AEC" stroke-miterlimit="10"/>
<path d="M59.8374 462.908C59.8374 462.908 60.3861 455.469 63.7599 451.678C65.4232 449.894 66.961 447.996 68.3625 446C68.3625 446 72.5538 450.328 72.5538 455.469C72.5538 460.609 70.7928 467.368 70.7928 467.368" stroke="#023AEC" stroke-miterlimit="10"/>
<path d="M66.0586 474.132C66.0586 474.132 68.3901 466.72 74.4246 465.623C80.4591 464.526 82.4066 462.644 82.4066 462.644C82.4066 462.644 86.0602 474.954 75.2365 479.42" stroke="#023AEC" stroke-miterlimit="10"/>
<path d="M1286.75 607.148C1286.75 607.148 1280.26 602.008 1281.07 593.351C1281.34 587.942 1282.72 587.673 1283.1 584.025C1286.07 584.7 1293.24 586.998 1293.92 598.228" stroke="#023AEC" stroke-miterlimit="10"/>
<path d="M1292.84 592.408C1292.84 592.408 1293.39 584.969 1296.76 581.178C1298.42 579.394 1299.96 577.496 1301.36 575.5C1301.36 575.5 1305.55 579.828 1305.55 584.969C1305.55 590.109 1303.79 596.868 1303.79 596.868" stroke="#023AEC" stroke-miterlimit="10"/>
<path d="M1299.06 603.632C1299.06 603.632 1301.39 596.22 1307.42 595.123C1313.46 594.026 1315.41 592.144 1315.41 592.144C1315.41 592.144 1319.06 604.454 1308.24 608.92" stroke="#023AEC" stroke-miterlimit="10"/>
<path d="M372.734 291.968C372.734 291.968 469.729 290.947 504.858 314.31C503.813 304.027 504.514 279.948 514.985 310.577C521.136 291.569 530.646 286.528 532.742 290.283C534.838 294.037 535.237 299.914 532.354 315.164C536.765 313.352 548.444 310.766 550.31 315.679C552.176 320.591 550.811 325.126 545.753 333.044C549.963 333.606 592.404 352.467 616.118 372.718" fill="#04D493"/>
<path d="M372.734 291.968C372.734 291.968 469.729 290.947 504.858 314.31C503.813 304.027 504.514 279.948 514.985 310.577C521.136 291.569 530.646 286.528 532.742 290.283C534.838 294.037 535.237 299.914 532.354 315.164C536.765 313.352 548.444 310.766 550.31 315.679C552.176 320.591 550.811 325.126 545.753 333.044C549.963 333.606 592.404 352.467 616.118 372.718" stroke="#112AA5" stroke-miterlimit="10"/>
<path d="M1340.45 677.277C1340.45 677.277 1316.62 725.615 1346.96 737.127C1377.3 748.639 1410.72 753.928 1402.62 691.41L1340.45 677.277Z" fill="#8FE1FF"/>
<path d="M1368.45 727.03C1367.3 727.158 1366.14 727.097 1365.01 726.849C1359.53 725.654 1356.48 720.478 1356.36 720.257C1356.25 720.086 1356.18 719.895 1356.16 719.697C1356.13 719.498 1356.14 719.296 1356.19 719.102C1356.24 718.908 1356.32 718.725 1356.45 718.566C1356.57 718.406 1356.72 718.272 1356.89 718.173C1357.07 718.073 1357.26 718.009 1357.46 717.985C1357.66 717.961 1357.86 717.977 1358.05 718.032C1358.25 718.087 1358.43 718.18 1358.58 718.306C1358.74 718.432 1358.87 718.587 1358.96 718.764C1358.97 718.817 1361.47 723.023 1365.67 723.917C1368.17 724.46 1370.88 723.698 1373.69 721.667C1373.85 721.546 1374.03 721.458 1374.23 721.409C1374.42 721.359 1374.62 721.349 1374.82 721.378C1375.02 721.408 1375.21 721.477 1375.38 721.581C1375.55 721.686 1375.7 721.823 1375.82 721.986C1375.93 722.148 1376.02 722.332 1376.06 722.528C1376.11 722.723 1376.11 722.925 1376.08 723.123C1376.04 723.32 1375.97 723.508 1375.86 723.677C1375.75 723.845 1375.61 723.99 1375.45 724.103C1373.41 725.673 1371 726.682 1368.45 727.03V727.03Z" fill="#FF6047"/>
<path d="M1305.77 667.995C1303.74 667.228 1301.72 666.406 1299.73 665.531C1294.05 663.027 1288.6 659.57 1285.03 654.49C1280.33 647.789 1280.31 639.891 1285.17 633.42C1292.59 623.556 1306.4 618.011 1317.42 613.376C1350.53 599.456 1390.49 593.96 1422.75 613.097C1426.5 615.333 1430.08 617.849 1433.45 620.622C1443.11 628.641 1451.34 638.23 1457.82 648.986C1464.25 659.542 1471.67 672.778 1470.67 685.526C1470.4 689.139 1469.33 692.79 1467.05 695.612C1459.52 704.872 1444.35 701.998 1434.36 699.462C1423.44 696.679 1412.55 693.993 1401.63 691.277L1388.09 687.917C1379.58 685.802 1371.08 683.691 1362.53 681.767C1343.67 677.496 1323.93 674.83 1305.77 667.995Z" fill="#FF2B0A" stroke="#1100A5" stroke-miterlimit="10"/>
<path d="M1382.46 649.528C1386.5 649.089 1389.47 645.935 1389.1 642.483C1388.72 639.032 1385.14 636.59 1381.1 637.03C1377.06 637.47 1374.09 640.624 1374.46 644.075C1374.84 647.527 1378.42 649.968 1382.46 649.528Z" fill="white"/>
<path d="M1364.41 619.752C1364.97 618.698 1364.42 617.303 1363.18 616.637C1361.94 615.97 1360.48 616.285 1359.91 617.339C1359.34 618.393 1359.89 619.788 1361.13 620.454C1362.38 621.121 1363.84 620.806 1364.41 619.752Z" fill="white"/>
<path d="M1405.67 624.592C1409.04 624.226 1411.6 622.379 1411.39 620.468C1411.18 618.556 1408.28 617.303 1404.92 617.669C1401.55 618.036 1398.99 619.882 1399.2 621.794C1399.4 623.706 1402.3 624.959 1405.67 624.592Z" fill="white"/>
<path d="M1441.72 658.069C1445.45 656.376 1447.38 652.612 1446.04 649.662C1444.7 646.712 1440.6 645.692 1436.87 647.385C1433.14 649.078 1431.21 652.842 1432.55 655.792C1433.89 658.742 1438 659.761 1441.72 658.069Z" fill="white"/>
<path d="M1416.2 641.841C1417.77 641.585 1418.87 640.347 1418.67 639.075C1418.46 637.804 1417.02 636.981 1415.45 637.237C1413.88 637.493 1412.78 638.731 1412.99 640.002C1413.19 641.273 1414.63 642.097 1416.2 641.841Z" fill="white"/>
<path d="M1380.78 609.967C1382.22 609.812 1383.28 608.783 1383.16 607.67C1383.04 606.558 1381.78 605.782 1380.35 605.938C1378.91 606.094 1377.85 607.122 1377.97 608.235C1378.09 609.348 1379.35 610.123 1380.78 609.967Z" fill="white"/>
<path d="M1345.34 718.253C1347.11 718.061 1348.39 716.47 1348.2 714.701C1348.01 712.931 1346.42 711.653 1344.65 711.845C1342.88 712.038 1341.6 713.628 1341.79 715.398C1341.98 717.167 1343.58 718.446 1345.34 718.253Z" fill="#1100A5"/>
<path d="M1387.06 726.389C1388.83 726.197 1390.1 724.606 1389.91 722.837C1389.72 721.068 1388.13 719.789 1386.36 719.982C1384.59 720.174 1383.31 721.765 1383.5 723.534C1383.7 725.303 1385.29 726.582 1387.06 726.389Z" fill="#1100A5"/>
<path d="M1357.66 719.514C1357.66 719.514 1363.96 730.546 1374.56 722.889" stroke="#1100A5" stroke-miterlimit="10" stroke-linecap="round"/>
<path d="M1368.45 727.03C1367.3 727.158 1366.14 727.097 1365.01 726.849C1359.53 725.654 1356.48 720.478 1356.36 720.257C1356.25 720.086 1356.18 719.895 1356.16 719.697C1356.13 719.498 1356.14 719.296 1356.19 719.102C1356.24 718.908 1356.32 718.725 1356.45 718.566C1356.57 718.406 1356.72 718.272 1356.89 718.173C1357.07 718.073 1357.26 718.009 1357.46 717.985C1357.66 717.961 1357.86 717.977 1358.05 718.032C1358.25 718.087 1358.43 718.18 1358.58 718.306C1358.74 718.432 1358.87 718.587 1358.96 718.764C1358.97 718.817 1361.47 723.023 1365.67 723.917C1368.17 724.46 1370.88 723.698 1373.69 721.667C1373.85 721.546 1374.03 721.458 1374.23 721.409C1374.42 721.359 1374.62 721.349 1374.82 721.378C1375.02 721.408 1375.21 721.477 1375.38 721.581C1375.55 721.686 1375.7 721.823 1375.82 721.986C1375.93 722.148 1376.02 722.332 1376.06 722.528C1376.11 722.723 1376.11 722.925 1376.08 723.123C1376.04 723.32 1375.97 723.508 1375.86 723.677C1375.75 723.845 1375.61 723.99 1375.45 724.103C1373.41 725.673 1371 726.682 1368.45 727.03V727.03Z" stroke="#1100A5" stroke-miterlimit="10"/>
<path opacity="0.6" d="M1295.08 628.62C1290.73 631.653 1286.18 635.697 1286.03 641.013C1285.93 644.775 1288.15 648.235 1290.75 650.948C1297.65 658.091 1307.46 661.475 1316.89 664.615C1319.84 665.63 1323.05 666.618 1326.01 665.628C1327.52 665.135 1328.84 664.163 1330.33 663.6C1331.82 663.037 1333.7 662.967 1334.82 664.101C1335.33 664.717 1335.74 665.411 1336.03 666.155C1336.96 667.926 1338.39 669.38 1340.15 670.33C1341.91 671.281 1343.92 671.685 1345.91 671.491C1347.6 671.307 1349.24 670.661 1350.94 670.649C1353.77 670.622 1356.29 672.286 1358.76 673.669C1362.86 675.964 1367.65 677.661 1372.21 676.531C1376.76 675.4 1380.58 670.5 1379.09 666.05C1377.68 661.833 1372.75 660.17 1368.56 658.694C1359.22 655.385 1350.62 650.272 1343.25 643.647C1341.69 642.246 1340.15 640.728 1339.33 638.813C1337.92 635.55 1338.8 631.732 1340.37 628.553C1341.95 625.374 1344.18 622.538 1345.65 619.29C1346.35 617.743 1346.88 615.954 1346.28 614.356C1345.14 611.318 1341.02 611.024 1337.79 611.269C1322.22 612.354 1308.02 620.288 1295.08 628.62Z" fill="#FF7661"/>
<path d="M1322.67 643.322C1323.63 641.136 1320.89 637.812 1316.55 635.898C1312.21 633.984 1307.91 634.204 1306.95 636.39C1305.98 638.576 1308.72 641.9 1313.06 643.814C1317.4 645.729 1321.71 645.508 1322.67 643.322Z" fill="white"/>
<path d="M1340.14 622.148C1343.42 621.791 1345.87 619.54 1345.61 617.122C1345.35 614.703 1342.47 613.031 1339.19 613.389C1335.9 613.746 1333.45 615.996 1333.72 618.415C1333.98 620.834 1336.86 622.505 1340.14 622.148Z" fill="white"/>
<path d="M1335.17 690.277C1335.17 690.277 1367.48 713.386 1403.5 705.685C1403.5 705.685 1403.09 693.893 1402.32 691.676L1340.14 677.552C1340.14 677.552 1335.85 688.078 1335.17 690.277Z" fill="#588799"/>
<path d="M1340.45 677.277C1340.45 677.277 1316.62 725.615 1346.96 737.127C1377.3 748.639 1410.72 753.928 1402.62 691.41L1340.45 677.277Z" stroke="#1100A5" stroke-miterlimit="10"/>
<path d="M1375.75 761.648C1375.75 761.648 1369.26 756.508 1370.07 747.851C1370.34 742.442 1371.72 742.173 1372.1 738.525C1375.07 739.2 1382.24 741.499 1382.92 752.728" fill="#04D493"/>
<path d="M1375.75 761.648C1375.75 761.648 1369.26 756.508 1370.07 747.851C1370.34 742.442 1371.72 742.173 1372.1 738.525C1375.07 739.2 1382.24 741.499 1382.92 752.728" stroke="#023AEC" stroke-miterlimit="10"/>
<path d="M1381.84 746.908C1381.84 746.908 1382.39 739.469 1385.76 735.678C1387.42 733.894 1388.96 731.996 1390.36 730C1390.36 730 1394.55 734.328 1394.55 739.469C1394.55 744.609 1392.79 751.368 1392.79 751.368" fill="#04D493"/>
<path d="M1381.84 746.908C1381.84 746.908 1382.39 739.469 1385.76 735.678C1387.42 733.894 1388.96 731.996 1390.36 730C1390.36 730 1394.55 734.328 1394.55 739.469C1394.55 744.609 1392.79 751.368 1392.79 751.368" stroke="#023AEC" stroke-miterlimit="10"/>
<path d="M1388.06 758.132C1388.06 758.132 1390.39 750.72 1396.42 749.623C1402.46 748.526 1404.41 746.644 1404.41 746.644C1404.41 746.644 1408.06 758.954 1397.24 763.42" fill="#04D493"/>
<path d="M1388.06 758.132C1388.06 758.132 1390.39 750.72 1396.42 749.623C1402.46 748.526 1404.41 746.644 1404.41 746.644C1404.41 746.644 1408.06 758.954 1397.24 763.42" stroke="#023AEC" stroke-miterlimit="10"/>
<path d="M78.2527 757.89C78.2527 757.89 60.5021 707.822 78.2527 681.152C78.2527 681.152 47.1297 662.388 62.047 633.749C62.047 633.749 83.6505 649.341 82.1118 676.092C82.1118 676.092 89.3109 666.316 93.9393 665.291C93.9393 665.291 95.7406 670.695 100.369 669.669C100.369 669.669 89.8238 677.387 86.7402 681.246C86.7402 681.246 103.715 668.643 127.12 682.272C127.12 682.272 111.177 699.51 83.9069 686.9C83.9069 686.9 67.9638 712.369 88.0224 754.037C88.0349 754.031 86.7402 760.717 78.2527 757.89Z" fill="#036B5A" stroke="#1100A5" stroke-miterlimit="10"/>
<path d="M90.0359 658.498C64.5295 661.169 59.2256 689.246 59.2256 689.246C85.1698 696.17 94.3328 669.856 95.1459 669.231L95.4461 669.906C82.7179 692.26 104.296 709.786 104.296 709.786C125.018 692.573 110.507 673.04 110.463 672.014H110.57C126.951 691.854 151 677.881 151 677.881C142.243 652.4 118.069 659.299 117.093 658.973L116.912 658.467C137.402 643.043 123.873 619 123.873 619C98.1043 626.556 103.859 650.967 103.521 651.924L102.895 651.468C98.8236 626.149 70.3713 625.167 70.3713 625.167C65.0236 651.48 89.2728 657.572 89.9483 658.317C89.9921 658.31 90.3611 658.46 90.0359 658.498Z" fill="#B93D00" stroke="#1100A5" stroke-linecap="square" stroke-linejoin="round"/>
<path d="M103.652 673.265C111.431 673.265 117.737 666.959 117.737 659.18C117.737 651.4 111.431 645.094 103.652 645.094C95.8727 645.094 89.5664 651.4 89.5664 659.18C89.5664 666.959 95.8727 673.265 103.652 673.265Z" fill="#E7B000" stroke="#1100A5" stroke-miterlimit="10"/>
<path d="M62.0464 633.749C62.0464 633.749 65.0611 655.083 73.6112 665.078" stroke="#1100A5" stroke-linejoin="round"/>
<path d="M58 649.417L66.5376 651.743" stroke="#1100A5" stroke-linejoin="round"/>
<path d="M58.2881 645.094L65.7436 649.416" stroke="#1100A5" stroke-linejoin="round"/>
<path d="M70.291 660.212L77.2899 652.587" stroke="#1100A5" stroke-linejoin="round"/>
<path d="M71.7725 662.657L79.178 657.028" stroke="#1100A5" stroke-linejoin="round"/>
<path d="M85.0015 683.61C85.0015 683.61 91.4437 683.072 91.4437 683.61" stroke="#1100A5" stroke-linejoin="round"/>
<path d="M114.93 683.373C114.93 683.373 125.106 682.748 126.713 682.035" stroke="#1100A5" stroke-linejoin="round"/>
<path d="M115.462 677.306L114.636 682.034" stroke="#1100A5" stroke-linejoin="round"/>
<path d="M117.738 678.394L117.006 683.229" stroke="#1100A5" stroke-linejoin="round"/>
<path d="M97.2351 654.896C97.2193 654.692 97.1445 654.498 97.0199 654.336C96.8952 654.174 96.7262 654.052 96.5333 653.985C96.3405 653.918 96.1322 653.908 95.934 653.957C95.7358 654.007 95.5563 654.113 95.4173 654.262C95.2784 654.412 95.1861 654.599 95.1517 654.8C95.1173 655.001 95.1423 655.208 95.2237 655.396C95.3051 655.583 95.4393 655.743 95.6099 655.855C95.7805 655.967 95.9801 656.027 96.1844 656.028C96.4736 656.016 96.7465 655.891 96.9435 655.679C97.1404 655.467 97.2453 655.185 97.2351 654.896V654.896Z" fill="#1100A5"/>
<path d="M99.0491 665.709C95.4152 663.652 95.6591 661.425 96.1219 660.28C96.5866 659.279 97.4235 658.498 98.4549 658.104C99.9748 657.603 101.676 658.26 103.459 660.074C103.565 660.169 103.683 660.251 103.809 660.318C104.145 660.516 104.533 660.609 104.922 660.587C105.834 660.515 106.749 660.685 107.574 661.081C108.2 661.425 109.451 662.507 108.068 664.99C106.417 667.905 103.24 667.523 101.757 666.898C100.819 666.588 99.9123 666.19 99.0491 665.709V665.709Z" fill="#A2FF5C"/>
<path d="M100.857 659.78C100.572 659.587 100.25 659.457 99.9116 659.398C99.5731 659.339 99.2258 659.352 98.8927 659.436C98.2491 659.709 97.7251 660.204 97.4166 660.831C96.91 662.082 97.6918 663.333 99.7433 664.484C100.527 664.923 101.352 665.284 102.208 665.56H102.276C102.402 665.61 105.404 666.81 106.842 664.265C107.706 662.739 107.105 662.388 106.88 662.276C106.292 662.012 105.645 661.904 105.004 661.963C104.347 662 103.695 661.844 103.127 661.513C102.9 661.381 102.69 661.221 102.502 661.037C102.013 660.546 101.459 660.123 100.857 659.78V659.78Z" fill="#FDB300"/>
<path d="M97.3037 661.901C98.7485 661.432 102.051 661.013 104.059 665.929C104.059 665.929 98.8111 665.46 97.335 662.126L97.3037 661.901Z" fill="#7EFF5C" stroke="#28F2B5" stroke-miterlimit="10"/>
<path d="M99.018 665.754C95.3466 663.677 95.5905 661.432 96.0596 660.275C96.5329 659.268 97.3748 658.482 98.4114 658.079C99.95 657.573 101.67 658.235 103.478 660.068C103.584 660.163 103.702 660.245 103.828 660.312C104.158 660.509 104.538 660.605 104.922 660.587C105.845 660.509 106.772 660.679 107.606 661.081C108.231 661.432 109.52 662.52 108.1 665.028C106.436 667.974 103.227 667.58 101.733 666.954C100.791 666.642 99.8824 666.24 99.018 665.754V665.754Z" stroke="#1100A5" stroke-linecap="round" stroke-linejoin="round"/>
<path d="M100.838 659.768C100.551 659.573 100.225 659.442 99.8835 659.383C99.5417 659.323 99.1913 659.337 98.8552 659.424C98.2057 659.698 97.6771 660.198 97.3666 660.831C96.86 662.082 97.6419 663.333 99.7184 664.515C100.514 664.96 101.352 665.325 102.22 665.603L102.295 665.634C102.42 665.684 105.423 666.885 106.899 664.327C107.768 662.789 107.168 662.451 106.942 662.319C106.354 662.056 105.708 661.948 105.066 662.007C104.41 662.037 103.759 661.878 103.19 661.55C102.96 661.419 102.749 661.257 102.564 661.069C102.052 660.557 101.471 660.119 100.838 659.768V659.768Z" stroke="#1100A5" stroke-linecap="round" stroke-linejoin="round"/>
<path d="M97.2544 661.913C98.7117 661.438 102.045 661.012 104.072 665.972" stroke="#1100A5" stroke-linecap="round" stroke-linejoin="round"/>
<path d="M113.51 662.651C113.51 662.373 113.399 662.105 113.202 661.908C113.005 661.711 112.738 661.601 112.459 661.601C112.181 661.601 111.913 661.711 111.716 661.908C111.519 662.105 111.409 662.373 111.409 662.651C111.392 662.799 111.408 662.948 111.453 663.09C111.499 663.231 111.573 663.361 111.672 663.472C111.772 663.582 111.893 663.671 112.028 663.731C112.164 663.792 112.311 663.823 112.459 663.823C112.608 663.823 112.755 663.792 112.89 663.731C113.026 663.671 113.147 663.582 113.246 663.472C113.345 663.361 113.42 663.231 113.466 663.09C113.511 662.948 113.526 662.799 113.51 662.651V662.651Z" fill="#1100A5"/>
<path d="M79.9031 635.056C81.5289 636.684 83.2747 638.187 85.1257 639.553L91.5305 644.519C91.9185 644.856 92.3632 645.12 92.844 645.301C94.3326 645.758 95.8962 644.35 96.0901 642.799C96.284 641.248 95.4647 639.759 94.4952 638.558C92.3311 635.932 89.2601 634.249 86.2641 632.629L77.5889 627.944C75.7125 626.919 73.1231 626.162 74.9933 628.983C76.4534 631.144 78.0961 633.175 79.9031 635.056V635.056Z" fill="#D94E09"/>
<path d="M123.767 622.609C125.487 627.6 126.049 632.918 125.409 638.158C124.77 643.399 122.946 648.425 120.076 652.856C119.845 653.2 119.495 653.588 119.101 653.482C118.928 653.415 118.778 653.3 118.669 653.15C117.149 651.449 113.609 648.891 114.291 646.552C115.004 644.05 117.418 641.329 118.544 638.902C119.789 636.265 120.861 633.548 121.753 630.771C122.297 628.976 124.361 624.385 123.767 622.609Z" fill="#D94E09"/>
<path d="M120.377 666.504C130.677 667.307 140.501 671.174 148.585 677.606C149.292 675.654 147.753 673.659 146.265 672.208C142.69 668.563 138.567 665.5 134.043 663.133C130.703 661.475 124.862 658.98 121.04 660.112C118.488 660.868 116.806 666.216 120.377 666.504Z" fill="#D94E09"/>
<path d="M108.375 686.056C108.01 687.323 107.825 688.635 107.825 689.953L107.293 701.136L109.995 698.916C110.699 698.367 111.356 697.761 111.959 697.102C113.579 695.226 114.173 692.624 114.379 690.134C114.536 688.258 114.48 686.313 113.548 684.699C111.878 681.809 109.182 683.692 108.375 686.056Z" fill="#D94E09"/>
<path d="M87.253 664.171C87.622 664.797 88.1912 665.51 87.7846 666.047C87.569 666.285 87.2811 666.446 86.9653 666.504C81.351 668.207 76.1004 670.934 71.4789 674.547C69.8464 675.798 68.1702 677.268 66.1187 677.531C66.5561 674.908 67.752 672.471 69.5587 670.52C73.5324 666.489 78.1918 663.198 83.3189 660.8C83.9557 660.504 84.6582 660.379 85.3578 660.437C87.4094 660.8 86.4086 662.814 87.253 664.171Z" fill="#D94E09"/>
<path d="M103.189 650.367C103.565 650.136 104.071 649.948 104.403 650.23C104.734 650.511 104.641 650.98 104.616 651.393C104.597 651.861 104.68 652.326 104.859 652.758C105.039 653.19 105.31 653.578 105.654 653.895C105.982 653.293 106.164 652.623 106.185 651.937C106.223 652.577 106.349 653.209 106.561 653.814C106.667 654.112 106.833 654.385 107.048 654.617C107.263 654.85 107.523 655.036 107.812 655.165C108.106 654.438 108.193 653.643 108.062 652.869L108.862 653.395C108.607 654.298 108.692 655.264 109.1 656.109C109.231 656.384 109.45 656.678 109.757 656.678C109.879 656.667 109.997 656.626 110.1 656.56C110.204 656.493 110.29 656.403 110.351 656.297C110.583 655.969 110.731 655.59 110.781 655.191C110.831 654.793 110.782 654.389 110.639 654.014C110.93 654.832 111.407 655.57 112.034 656.172C112.202 656.334 112.446 656.497 112.659 656.391C112.743 656.341 112.811 656.267 112.853 656.178C113.028 655.865 113.102 655.506 113.067 655.149C113.031 654.792 112.886 654.455 112.653 654.183" fill="#E7B000"/>
<path d="M103.189 650.367C103.565 650.136 104.071 649.948 104.403 650.23C104.734 650.511 104.641 650.98 104.616 651.393C104.597 651.861 104.68 652.326 104.859 652.758C105.039 653.19 105.31 653.578 105.654 653.895C105.982 653.293 106.164 652.623 106.185 651.937C106.223 652.577 106.349 653.209 106.561 653.814C106.667 654.112 106.833 654.385 107.048 654.617C107.263 654.85 107.523 655.036 107.812 655.165C108.106 654.438 108.193 653.643 108.062 652.869L108.862 653.395C108.607 654.298 108.692 655.264 109.1 656.109C109.231 656.384 109.45 656.678 109.757 656.678C109.879 656.667 109.997 656.626 110.1 656.56C110.204 656.493 110.29 656.403 110.351 656.297C110.583 655.969 110.731 655.59 110.781 655.191C110.831 654.793 110.782 654.389 110.639 654.014C110.93 654.832 111.407 655.57 112.034 656.172C112.202 656.334 112.446 656.497 112.659 656.391C112.743 656.341 112.811 656.267 112.853 656.178C113.028 655.865 113.102 655.506 113.067 655.149C113.031 654.792 112.886 654.455 112.653 654.183" stroke="#1100A5" stroke-miterlimit="10"/>
<path d="M74.2374 712.201C74.0427 725.086 75.8403 737.924 79.5664 750.26C80.0042 751.717 80.5108 753.231 81.6241 754.269C82.7375 755.307 84.6451 755.645 85.7522 754.601C79.9479 737.319 74.0686 719.031 77.7275 701.167C78.5844 696.983 80.9549 692.705 81.4803 688.614C78.1966 688.452 76.3702 696.314 75.7573 698.753C74.7389 703.163 74.229 707.675 74.2374 712.201V712.201Z" fill="#085246"/>
<path d="M74.7537 774.637C74.7537 774.637 68.2583 769.497 69.0702 760.84C69.339 755.431 70.716 755.162 71.1 751.514C74.0734 752.189 81.2434 754.487 81.9237 765.717" fill="#04D493"/>
<path d="M74.7537 774.637C74.7537 774.637 68.2583 769.497 69.0702 760.84C69.339 755.431 70.716 755.162 71.1 751.514C74.0734 752.189 81.2434 754.487 81.9237 765.717" stroke="#023AEC" stroke-miterlimit="10"/>
<path d="M80.8374 759.896C80.8374 759.896 81.3861 752.457 84.7599 748.667C86.4232 746.882 87.961 744.985 89.3625 742.989C89.3625 742.989 93.5538 747.317 93.5538 752.457C93.5538 757.598 91.7928 764.356 91.7928 764.356" fill="#04D493"/>
<path d="M80.8374 759.896C80.8374 759.896 81.3861 752.457 84.7599 748.667C86.4232 746.882 87.961 744.985 89.3625 742.989C89.3625 742.989 93.5538 747.317 93.5538 752.457C93.5538 757.598 91.7928 764.356 91.7928 764.356" stroke="#023AEC" stroke-miterlimit="10"/>
<path d="M87.0586 771.12C87.0586 771.12 89.3901 763.709 95.4246 762.612C101.459 761.514 103.407 759.633 103.407 759.633C103.407 759.633 107.06 771.943 96.2365 776.409" fill="#04D493"/>
<path d="M87.0586 771.12C87.0586 771.12 89.3901 763.709 95.4246 762.612C101.459 761.514 103.407 759.633 103.407 759.633C103.407 759.633 107.06 771.943 96.2365 776.409" stroke="#023AEC" stroke-miterlimit="10"/>
<defs>
<clipPath id="clip0_0_1">
<rect width="337" height="528" fill="white" transform="matrix(-1 0 0 1 337 39)"/>
</clipPath>
</defs>
</svg>
