<svg width="1119" height="648" viewBox="0 0 1119 648" fill="none" xmlns="http://www.w3.org/2000/svg">
<path d="M1117.92 11.8198L1102.54 1L1077.31 9.40713C1076.35 9.72827 1073.69 8.12259 1072.83 7.76028C1070.4 6.78041 1067.99 5.75937 1065.57 4.77949C1059.68 2.4245 1053.47 1.86459 1047.18 1.92223C998.239 2.28454 953.437 50.2573 963.4 99.6627C964.345 104.341 965.789 108.904 967.707 113.274C967.904 113.719 970.358 117.77 970.177 118.116C960.922 134.51 962.519 148.582 962.519 148.582L964.314 149.505L979.342 159.55C993.463 152.008 996.823 147.858 996.823 147.858C1055.01 174.52 1125.66 124.596 1114.33 57.9398C1113.3 52.3863 1111.67 46.9611 1109.47 41.7595C1109.28 41.2984 1107.52 36.6378 1107.71 36.366C1115.06 26.1391 1116.98 15.5746 1117.93 11.8362" fill="#FFD800"/>
<path d="M1063.69 103.755C1043.51 125.757 1011.97 129.668 993.266 112.5C950.209 69.2207 1019.57 -6.3367 1066.35 32.8336C1085.07 50.0185 1083.88 81.7697 1063.69 103.755Z" fill="#C98910"/>
<path d="M996.815 147.841C995.67 150.731 979.333 159.534 979.333 159.534L962.511 148.566C977.901 140.71 986.39 133.061 986.39 133.061C1045.56 164.573 1112.62 109.354 1098.75 47.2106C1097.67 41.8428 1096.09 36.5865 1094.04 31.5079C1093.85 31.0632 1091.04 26.0733 1091.23 25.8098C1096.61 18.3658 1100.46 9.93538 1102.58 1L1117.78 12.1327C1117.78 12.1327 1113.54 29.6963 1107.69 36.3496C1107.69 36.3496 1117.13 58.7468 1115.49 73.5684C1115.49 73.5684 1116.47 103.574 1094.23 126.457C1071.99 149.34 1047.97 153.226 1047.97 153.226C1047.97 153.226 1022.02 158.167 1003.02 150.386L996.815 147.841Z" fill="#023AEC"/>
<path d="M1117.92 11.8198L1102.54 1L1077.31 9.40713C1076.35 9.72827 1073.69 8.12259 1072.83 7.76028C1070.4 6.78041 1067.99 5.75937 1065.57 4.77949C1059.68 2.4245 1053.47 1.86459 1047.18 1.92223C998.239 2.28454 953.437 50.2573 963.4 99.6627C964.345 104.341 965.789 108.904 967.707 113.274C967.904 113.719 970.358 117.77 970.177 118.116C960.922 134.51 962.519 148.582 962.519 148.582L964.314 149.505L979.342 159.55C993.463 152.008 996.823 147.858 996.823 147.858C1055.01 174.52 1125.66 124.596 1114.33 57.9398C1113.3 52.3863 1111.67 46.9611 1109.47 41.7595C1109.28 41.2984 1107.52 36.6378 1107.71 36.366C1115.06 26.1391 1116.98 15.5746 1117.93 11.8362" stroke="#023AEC" stroke-miterlimit="10" stroke-linecap="round"/>
<path d="M1061.47 106.028C1039.82 126.613 1008.09 128.26 990.606 109.881C950.645 63.7696 1025.05 -6.85555 1069.03 35.452C1086.49 53.8802 1083.13 85.4751 1061.47 106.028Z" stroke="#BA8800" stroke-miterlimit="10"/>
<path d="M1061.02 29.7868C1010.89 14.8087 977.654 68.6771 989.956 109.412C989.544 108.062 987.807 106.439 987.082 105.188C984.607 100.888 982.597 96.3358 981.088 91.6095C976.427 75.4374 981.985 62.0238 989.939 49.1372C997.77 36.4565 1010.52 27.6788 1025.12 23.6687C1031.19 22.0293 1037.55 21.7273 1043.74 22.7836C1049.94 23.8399 1055.83 26.2294 1061.02 29.7868Z" fill="#023AEC"/>
<path d="M1055.8 36.9836L1064.36 59.2161C1064.36 59.2161 1061.71 89.8228 1039.96 86.1257C1018.22 82.4285 1017.06 110.721 1017.06 110.721L1010.05 104.241C1010.05 104.241 1006.75 75.6105 1032.2 75.1906C1057.64 74.7706 1055.8 36.9836 1055.8 36.9836Z" fill="#023AEC"/>
<path d="M1055.59 35.9048C1057.62 46.0494 1060.15 58.2772 1055.65 68.1171C1054.51 70.5923 1052.79 72.7586 1050.64 74.4347C1048.49 76.1107 1045.98 77.248 1043.3 77.7512C1037.15 79.044 1030.74 77.0184 1024.64 78.6735C1023.9 78.8702 1023.17 79.1235 1022.46 79.431C1013.69 83.3011 1011.5 96.0148 1010.01 104.266C1010.07 103.953 1007.92 101.935 1007.69 101.647C1005.84 99.2955 1004.3 96.7063 1003.13 93.948C1001.48 89.8142 1000.81 85.3546 1001.17 80.9188C1001.54 76.483 1002.92 72.1915 1005.22 68.3806C1010.88 59.2571 1021.08 57.5938 1031.07 58.796C1046.31 60.624 1058.31 49.4666 1055.59 35.9048Z" fill="#FDDC26"/>
<path d="M71.1347 386.07L55.4093 402.95L61.3907 435.028C61.6244 436.262 59.2225 439.224 58.6545 440.22C57.0634 442.998 55.4125 445.751 53.8263 448.537C49.9719 455.298 48.2598 462.753 47.2709 470.408C39.4963 529.98 90.3171 592.483 152.047 588.648C157.897 588.29 163.691 587.3 169.328 585.697C169.895 585.533 175.238 583.228 175.617 583.515C194.002 597.516 211.344 597.927 211.344 597.927L212.764 595.903L227.493 579.31C220.723 560.855 216.205 556.104 216.205 556.104C258.334 489.843 209.51 395.563 126.613 398.195C119.691 398.52 112.824 399.593 106.132 401.396C105.546 401.548 99.5793 402.916 99.2821 402.63C88.0698 391.977 75.5591 387.88 71.1719 386.096" fill="#FDDC26"/>
<path d="M173.826 467.402C197.189 495.629 196.663 534.621 172.652 554.501C112.817 599.59 32.5848 502.601 88.0525 452.285C112.072 432.399 150.494 439.169 173.826 467.402Z" fill="#E09812"/>
<path d="M216.205 556.103C219.55 557.969 227.492 579.31 227.492 579.31L211.344 597.927C204.363 577.902 196.486 566.346 196.486 566.346C244.714 499.684 188.821 408.91 110.935 415.349C104.229 415.775 97.5769 416.815 91.0611 418.456C90.4887 418.612 83.945 421.189 83.6527 420.912C75.5104 413.127 65.9127 407.023 55.409 402.95L71.4914 386.276C71.4914 386.276 92.1568 394.367 99.2445 402.604C99.2445 402.604 128.063 394.871 145.792 399.356C145.792 399.356 182.438 403.194 206.529 434.067C230.621 464.941 231.332 494.788 231.332 494.788C231.332 494.788 233.011 527.172 220.337 548.97L216.205 556.103Z" fill="#023AEC"/>
<path d="M71.1347 386.07L55.4093 402.95L61.3907 435.028C61.6244 436.262 59.2225 439.224 58.6545 440.22C57.0634 442.998 55.4125 445.751 53.8263 448.537C49.9719 455.298 48.2598 462.753 47.2709 470.408C39.4963 529.98 90.3171 592.483 152.047 588.648C157.897 588.29 163.691 587.3 169.327 585.697C169.895 585.533 175.238 583.228 175.617 583.515C194.002 597.516 211.344 597.927 211.344 597.927L212.764 595.903L227.493 579.31C220.723 560.855 216.205 556.104 216.205 556.104C258.334 489.843 209.51 395.563 126.613 398.195C119.691 398.52 112.824 399.593 106.132 401.396C105.546 401.548 99.5793 402.916 99.2821 402.63C88.0697 391.977 75.5591 387.88 71.1719 386.096" stroke="#1100A5" stroke-width="1.32168" stroke-miterlimit="10" stroke-linecap="round"/>
<path d="M176.207 470.485C197.554 500.245 194.341 539.121 169.022 557.289C106.18 598.164 32.8622 495.849 91.6741 449.479C116.982 431.271 154.822 440.721 176.207 470.485Z" stroke="#BA8800" stroke-width="1.32168" stroke-miterlimit="10"/>
<path d="M91.1981 450.101C54.3043 502.654 104.119 562.259 156.311 563.75C154.586 563.701 152.022 565.1 150.313 565.436C145.069 566.49 139.699 566.774 134.372 566.28C115.504 564.577 99.1649 553.451 87.2356 539.152C75.5074 525.11 68.6006 507.991 70.1713 489.508C71.4691 473.951 79.5283 460.271 91.1981 450.101Z" fill="#023AEC"/>
<path d="M90.3662 465.874L118.072 459.948C118.072 459.948 154.842 468.282 146.724 494.105C138.605 519.929 172.811 526.056 172.811 526.056L163.752 533.495C163.752 533.495 119.022 530.062 132.136 501.722C149.68 463.807 90.3662 465.874 90.3662 465.874Z" fill="#023AEC"/>
<path d="M89.974 465.895C102.652 465.127 117.942 464.088 129.153 471.217C131.968 473.016 134.313 475.461 135.991 478.349C137.669 481.238 138.633 484.485 138.802 487.822C139.353 495.524 135.813 502.976 136.798 510.669C136.911 511.608 137.098 512.536 137.355 513.446C140.589 524.756 155.686 529.557 165.457 532.735C165.09 532.615 162.283 534.888 161.89 535.117C158.722 536.989 155.313 538.421 151.759 539.373C146.458 540.686 140.925 540.754 135.593 539.571C130.262 538.388 125.277 535.986 121.029 532.554C110.894 524.135 110.569 511.466 113.703 499.512C118.461 481.296 106.95 464.834 89.974 465.895Z" fill="#FDD600"/>
<path d="M190.418 138.701L184.235 128.573L167.517 127.093C166.874 127.038 165.739 125.438 165.324 125.018C164.169 123.845 163.034 122.646 161.873 121.475C159.059 118.629 155.603 116.748 151.948 115.198C123.516 103.095 85.5164 119.611 78.8649 150.72C78.2322 153.667 77.9198 156.674 77.933 159.688C77.9359 159.992 78.3374 162.958 78.1428 163.105C68.661 170.273 66.0547 178.806 66.0547 178.806L66.8606 179.79L73.0397 189.384C83.1192 188.588 86.0984 187.007 86.0984 187.007C113.085 217.054 166.548 205.93 176.728 164.502C177.526 161.028 177.945 157.478 177.979 153.914C177.985 153.603 178.134 150.458 178.317 150.35C185.147 146.272 188.909 140.642 190.401 138.716" fill="#FFD800"/>
<path d="M135.906 178.302C118.688 185.965 99.4467 180.303 92.9249 165.656C78.879 129.772 138.036 103.464 155.276 137.909C161.799 152.562 153.123 170.656 135.906 178.302Z" fill="#E09812"/>
<path d="M86.0983 187.007C84.7109 188.406 73.0395 189.384 73.0395 189.384L66.0546 178.806C76.941 178.122 83.7559 175.821 83.7559 175.821C110.096 208.944 162.803 193.832 170.402 154.36C171.12 150.98 171.526 147.54 171.616 144.085C171.618 143.78 171.248 140.182 171.425 140.076C176.41 137.121 180.763 133.212 184.235 128.573L190.267 138.849C190.267 138.849 183.396 147.965 178.334 150.335C178.334 150.335 178.173 165.681 173.496 173.842C173.496 173.842 166.518 191.462 147.888 199.119C129.258 206.776 114.375 202.994 114.375 202.994C114.375 202.994 98.1013 199.34 89.0595 190.042L86.0983 187.007Z" fill="#023AEC"/>
<path d="M190.418 138.701L184.235 128.573L167.517 127.093C166.874 127.038 165.739 125.438 165.324 125.018C164.169 123.845 163.034 122.646 161.873 121.475C159.059 118.629 155.603 116.748 151.948 115.198C123.516 103.095 85.5164 119.611 78.8649 150.72C78.2322 153.667 77.9198 156.674 77.933 159.688C77.9359 159.992 78.3374 162.958 78.1429 163.105C68.6609 170.273 66.0547 178.806 66.0547 178.806L66.8606 179.79L73.0397 189.384C83.1192 188.588 86.0984 187.007 86.0984 187.007C113.085 217.054 166.548 205.93 176.728 164.502C177.526 161.028 177.945 157.478 177.979 153.914C177.985 153.603 178.134 150.458 178.317 150.35C185.147 146.272 188.909 140.642 190.401 138.716" stroke="#023AEC" stroke-width="0.679803" stroke-miterlimit="10" stroke-linecap="round"/>
<path d="M134.049 179.054C116.351 185.506 97.5388 178.529 92.0466 163.471C80.5045 126.681 141.341 104.536 156.164 140.092C161.678 155.15 151.755 172.585 134.049 179.054Z" stroke="#BA8800" stroke-width="0.679803" stroke-miterlimit="10"/>
<path d="M155.922 139.77C135.001 114.215 98.5754 130.634 90.6074 156.281C90.8704 155.433 90.5326 153.969 90.6032 153.076C90.8075 150.332 91.4104 147.633 92.3929 145.063C95.8503 135.953 103.625 129.4 112.36 125.472C120.94 121.607 130.377 120.558 139.314 123.896C146.841 126.694 152.501 132.581 155.922 139.77Z" fill="#023AEC"/>
<path d="M148.224 137.173L147.321 151.718C147.321 151.718 138.1 168.777 126.433 161.178C114.766 153.58 106.993 169.675 106.993 169.675L104.563 164.157C104.563 164.157 112.46 142.476 124.681 152.897C141.032 166.84 148.224 137.173 148.224 137.173Z" fill="#023AEC"/>
<path d="M148.268 136.975C146.893 143.362 145.289 151.08 140.205 155.645C138.924 156.791 137.388 157.613 135.725 158.044C134.062 158.476 132.319 158.503 130.643 158.125C126.752 157.331 123.551 154.545 119.604 153.967C119.123 153.893 118.637 153.857 118.151 153.859C112.101 153.894 107.632 160.707 104.704 165.107C104.814 164.941 104.077 163.236 104.018 163.01C103.53 161.181 103.292 159.294 103.313 157.402C103.397 154.594 104.13 151.844 105.454 149.367C106.779 146.89 108.659 144.753 110.947 143.125C116.522 139.27 122.843 140.864 128.33 144.073C136.694 148.953 146.442 145.532 148.268 136.975Z" fill="#FDD600"/>
</svg>
