<svg width="1402" height="764" viewBox="0 0 1402 764" fill="none" xmlns="http://www.w3.org/2000/svg">
<path d="M1010 411.716C1069.52 384.288 1206.99 339.016 1280.7 377.344C1354.41 415.672 1130.95 416.229 1010 411.716Z" fill="#00C587"/>
<path d="M890.133 431.39L819.396 473.356L815.516 464.604L876.691 427.437L890.133 431.39Z" fill="#66E2FF"/>
<path d="M1050.29 428.51L1003.22 511.113L992.894 502.438L1000.41 496.668L1039.77 429.231L1052.49 428.233" fill="#66E2FF"/>
<path d="M999.36 23.3621L928.485 21.3593C928.485 21.3593 882.831 18.5201 879.715 78.43L876.684 134.046L871.067 298.869L870.972 349.22C870.972 349.22 870.647 391.333 885.621 405.934L911.718 425.091L937.679 423.729L1021.03 426.894C1021.03 426.894 1086.02 425.63 1095.5 383.497C1095.88 381.825 1095.88 381.825 1095.88 381.825L1100.01 350.073L1101.04 324.281L1106.24 158.776L1107.01 107.739C1107.01 107.739 1109.93 35.5107 1065.34 26.9422C1065.33 26.9437 1049.18 23.6443 999.36 23.3621Z" fill="#000C3D"/>
<path d="M1012.7 42.5476L939.525 40.2562C939.525 40.2562 896.516 34.0527 899.343 118.661L895.679 231.445L895.241 308.836C895.241 308.836 892.805 348.701 914.5 364.321C914.5 364.321 927.067 372.511 933.032 371.436L1034.64 375.591C1034.64 375.591 1069.25 379.085 1077.27 334.969C1077.27 334.969 1077.71 321.811 1078.64 310.072L1083.52 191.734L1083.87 111.96C1083.87 111.96 1089.08 48.8627 1044.05 43.5637L1012.7 42.5476Z" fill="#9525FF"/>
<path d="M992.687 299.895C992.701 299.725 995.572 296.429 992.932 294.571C990.292 292.713 989.748 293.455 987.949 294.078C987.66 294.175 978.408 302.496 965.179 295.172C965.179 295.172 962.047 291.981 959.268 294.953C959.268 294.953 957.584 298.112 959.624 299.889L963.902 303.008L966.829 300.162C966.829 300.162 971.578 301.382 971.572 301.334C971.567 301.287 969.388 304.821 969.388 304.821C969.388 304.821 983.316 306.608 987.477 302.764C987.475 302.752 992.581 300.775 992.687 299.895Z" fill="#4AE2FF"/>
<path d="M1003.38 510.011C1003.38 510.011 1004.82 491.699 988.217 482.934C988.217 482.934 980 489.441 984.6 517.99C984.6 517.99 993.614 525.58 997.433 520.732C1001.25 515.885 1003.58 514.822 1003.38 510.011Z" fill="#0218BF"/>
<path d="M819.396 473.356C819.396 473.356 812.147 450.337 794.553 444.271C794.553 444.271 791.622 464.407 794.838 477.55C794.838 477.55 801.837 485.946 808.03 482.761C808.03 482.761 818.268 479.694 819.396 473.356Z" fill="#0218BF"/>
<path d="M1006.57 365.621C1006.57 365.621 969.587 394.548 933.526 364.468L932.347 363.413L935.7 452.01C935.7 452.01 950.028 481.863 996.565 457.268L1006.79 368.287L1006.57 365.621Z" fill="#EFD8F2"/>
<path d="M871.069 298.869L871.032 315.705C871.032 315.705 844.077 337.393 851.068 365.918C851.068 365.918 861.991 403.334 887.451 406.221C887.451 406.221 904.338 408.766 922.427 393.595L926.428 389.434C926.428 389.434 931.613 381.203 934.954 383.658C934.954 383.658 936.193 390.457 928.278 392.859C928.278 392.859 936.019 391.754 938.646 393.698C938.646 393.698 940.495 396.064 935.162 399.574C935.162 399.574 927.783 404.616 934.033 407.44C934.033 407.44 939.103 406.525 940.107 408.866C940.107 408.866 940.196 415.219 928.583 418.447C928.583 418.447 917.694 437.009 874.447 429.776C874.447 429.776 836.427 424.594 829.276 372.014C829.276 372.014 823.227 339.785 848.851 314.306C848.839 314.308 865.452 299.647 871.069 298.869Z" fill="#4AE2FF"/>
<path d="M966.5 330.835C968.271 330.756 970.063 330.748 971.885 330.795C993.112 331.399 1009.67 340.735 1008.87 351.64C1008.07 362.556 990.221 370.9 968.994 370.296C947.768 369.692 931.206 360.356 932 349.44C932.66 340.43 944.979 333.155 961.224 331.257" fill="#FF8E0C"/>
<path d="M971.572 301.322L966.828 300.15C966.828 300.15 958.688 306.118 959.234 316.685C959.81 327.681 963.598 351.4 963.598 351.4C963.598 351.4 967.149 356.006 970.807 351.131C970.807 351.131 963.29 322.347 965.164 317.347C965.166 317.359 966.713 306.793 971.572 301.322Z" fill="white"/>
<path d="M1011.35 359.402L1008.66 352.112C1008.66 352.112 1007.39 370.45 968.994 370.296C968.994 370.296 934.407 368.689 931.577 350.865L928.315 359.661C928.315 359.661 944.735 377.437 962.55 377.7C962.55 377.7 993.361 381.622 1009.97 361.776L1011.36 359.593" fill="#FF860C"/>
<path d="M999.969 427.689L1004.21 385.456C1004.21 385.456 993.126 388.185 991.255 397.419C991.255 397.419 989.416 419.728 979.921 416.939C979.921 416.939 972.843 413.462 968.867 418.87C968.867 418.87 962.019 430.246 957.217 431.86C957.217 431.86 953.02 433.591 947.414 427.282C947.414 427.282 944.405 424.207 941.431 426.013L935.196 427.422L935.441 445.258C935.441 445.258 941.769 445.545 945.976 450.683C945.976 450.683 954.61 459.066 960.405 452.526C960.405 452.526 964.689 445.166 968.029 444.554C968.029 444.554 970.232 442.46 982.445 447.349C982.445 447.349 988.166 448.074 991.224 439.857C991.224 439.857 992.19 433.468 993.812 430.773C993.81 430.761 997.592 426.581 999.969 427.689Z" fill="#59FF72"/>
<path d="M1101.85 303.197L1101.04 324.281C1101.04 324.281 1123.5 359.019 1095.5 383.497C1095.5 383.497 1056.95 419.167 1010.61 397.801C1010.61 397.801 1010.83 382.543 1008.78 379.637C1006.73 376.73 1004.17 389.023 1004.17 389.023C1004.17 389.023 1002.48 393.35 999.744 387.798C999.744 387.798 996.339 381.862 994.652 383.47C992.965 385.077 992.031 386.542 994.943 395.067C994.943 395.067 993.148 400.31 990.356 397.533C990.356 397.533 984.226 393.178 983.475 394.283C983.475 394.283 978.165 393.675 990.034 407.415C990.034 407.415 994.104 416.817 1012.5 424.67C1012.5 424.67 1034.96 431.868 1050.29 428.522C1050.29 428.522 1077.45 426.251 1105.03 405.074C1105.03 405.074 1123.52 389.419 1126.45 364.038C1126.45 364.026 1130.89 335.075 1101.85 303.197Z" fill="#4AE2FF"/>
<path d="M996.397 521.669C996.397 521.669 993.516 488.416 988.219 482.934C988.219 482.934 985.46 479.84 983.696 494.523C983.696 494.523 982.475 511.7 984.601 517.99C984.601 517.99 991.968 523.188 996.397 521.669Z" fill="#000070"/>
<path d="M794.554 444.271C799.43 447.172 808.03 482.761 808.03 482.761C801.615 485.806 794.839 477.55 794.839 477.55C791.74 467.448 793.978 447.64 794.41 444.181C794.462 444.211 794.502 444.242 794.554 444.271Z" fill="#000070"/>
<path opacity="0.9" d="M1012.7 42.5481L896.362 225.789L898.651 166.476L976.429 40.9713L1012.7 42.5481Z" fill="#955CFF"/>
<path opacity="0.5" d="M920.927 26.5928C922.441 27.3409 914.807 38.0097 903.793 46.1075C892.78 54.2054 890.288 64.4323 890.845 66.949C891.403 69.4775 882.988 49.529 902.927 33.5716C922.866 17.6143 920.927 26.5928 920.927 26.5928Z" fill="#3F41FF"/>
<path d="M855.916 308.402L871.068 298.87L870.475 315.884L863.433 323.41C863.433 323.41 865.513 310.961 855.916 308.402Z" fill="#0139F2"/>
<path d="M879.338 437.969C879.338 437.969 867.11 439.277 862.762 435.89L874.433 429.767L889.212 431.626L879.338 437.969Z" fill="#0139F2"/>
<path d="M1039.73 447.067C1039.84 446.848 1035.34 441.867 1029.84 445.097C1029.84 445.097 1037.98 429.324 1038.13 429.328C1038.3 429.331 1050.29 428.51 1050.29 428.51L1039.73 447.067Z" fill="#0139F2"/>
<path d="M969.019 299.874C969.019 299.874 962.928 304.923 961.902 311.212L960.713 313.046L961.066 315.853C961.066 315.853 964.553 348.476 965.744 353.067C965.744 353.067 965.523 353.131 963.587 351.413C963.587 351.413 958.143 317.869 959.428 315.457C959.428 315.457 959.348 305.349 966.816 300.151L969.019 299.874Z" fill="#0139F2"/>
<path d="M963.587 351.414L943.516 336.179L948.773 333.966L963.021 346.913L963.587 351.414Z" fill="#0139F2"/>
<path d="M970.386 300.894C970.386 300.894 966.1 305.559 964.987 311.727L963.429 313.018L964.371 316.015C964.371 316.015 962.111 325.407 969.406 352.053" stroke="#FF3683" stroke-width="0.329303" stroke-miterlimit="10"/>
<path d="M969.086 300.408C969.086 300.408 963.261 307.288 963.811 311.658L961.367 313.277L962.997 316.188C962.997 316.188 960.5 321.495 967.679 353.437" stroke="#FF3683" stroke-width="0.329303" stroke-miterlimit="10"/>
<path opacity="0.6" d="M964.867 353.177L965.564 353.174C965.564 353.174 959.82 324.419 961.066 315.853L959.639 313.121L961.902 311.212C961.902 311.212 961.568 307.982 967.621 300.05" stroke="#FF3683" stroke-width="0.329303" stroke-miterlimit="10"/>
<path d="M919.34 282.13C915.846 282.569 913.383 285.754 913.82 289.236C914.26 292.73 917.434 295.206 920.928 294.767C924.422 294.328 926.885 291.143 926.446 287.649C926.008 284.167 922.834 281.69 919.34 282.13Z" fill="#0000E2"/>
<path d="M1047.78 282.924C1044.28 283.364 1041.81 286.55 1042.24 290.032C1042.68 293.526 1045.87 296.001 1049.36 295.562C1052.85 295.124 1055.32 291.938 1054.88 288.444C1054.44 284.961 1051.26 282.487 1047.78 282.924Z" fill="#0000E2"/>
<path d="M1101.72 302.515L1106.86 139.064" stroke="#0000E2" stroke-width="0.658605" stroke-linecap="round" stroke-linejoin="round"/>
<path d="M1095.5 383.497C1098.33 371.447 1099.7 357.402 1100.48 341.977L1101.04 324.281" stroke="#0000E2" stroke-width="0.658605" stroke-linecap="round" stroke-linejoin="round"/>
<path d="M1000.14 426.212L1000.58 426.229L1021.03 426.895" stroke="#0000E2" stroke-width="0.658605" stroke-miterlimit="10"/>
<path d="M923.13 423.693C923.991 423.753 924.85 423.79 925.744 423.822L934.648 424.11" stroke="#0000E2" stroke-width="0.658605" stroke-linecap="round" stroke-linejoin="round"/>
<path d="M1106.86 139.064C1108.48 74.8306 1104.84 26.7659 1050.22 24.9946L935.229 21.3064C871.781 19.2363 878.581 84.1438 875.978 163.744L872.376 276.352C870.586 331.98 866.391 380.825 885.622 405.935" stroke="#0000E2" stroke-width="0.658605" stroke-linecap="round" stroke-linejoin="round"/>
<path d="M1006.14 374.061L1032.62 375.003C1070.55 376.347 1077.79 346.719 1079.76 304.59L1082.85 194.429L1084.44 137.334" stroke="#0000E2" stroke-width="0.658605" stroke-linecap="round" stroke-linejoin="round"/>
<path d="M1084.44 137.333C1085.61 84.3941 1082.56 44.7731 1038.5 43.1898L945.769 39.88C894.607 38.0219 900.229 91.5516 898.322 157.157L895.673 249.973C893.88 312.761 888.397 365.04 932.641 371.112" stroke="#0000E2" stroke-width="0.658605" stroke-linecap="round" stroke-linejoin="round"/>
<path d="M1003.38 510.011C1003.86 509.638 1004.27 509.165 1004.6 508.607L1050.29 428.51" stroke="#0000E2" stroke-width="0.658605" stroke-miterlimit="10"/>
<path d="M1038.89 429.233L1000.41 496.668" stroke="#0000E2" stroke-width="0.658605" stroke-miterlimit="10"/>
<path d="M819.396 473.356L890.068 431.639" stroke="#0000E2" stroke-width="0.658605" stroke-miterlimit="10"/>
<path d="M874.435 429.778L815.512 464.568" stroke="#0000E2" stroke-width="0.658605" stroke-miterlimit="10"/>
<path d="M1008.61 352.575C1006.91 363.04 989.462 370.899 968.84 370.316C947.613 369.712 931.051 360.376 931.845 349.46C932.505 340.45 944.825 333.174 961.069 331.277" stroke="#0000E2" stroke-width="0.658605" stroke-miterlimit="10"/>
<path d="M966.345 330.854C968.116 330.776 969.907 330.767 971.73 330.815C992.957 331.419 1009.52 340.755 1008.71 351.66" stroke="#0000E2" stroke-width="0.658605" stroke-miterlimit="10"/>
<path d="M933.102 383.302L932.641 371.112L932.346 363.413" stroke="#0000E2" stroke-width="0.658605" stroke-miterlimit="10"/>
<path d="M933.441 392.211L933.329 389.121" stroke="#0000E2" stroke-width="0.658605" stroke-miterlimit="10"/>
<path d="M934.019 407.429L933.749 400.401" stroke="#0000E2" stroke-width="0.658605" stroke-miterlimit="10"/>
<path d="M1001.08 418.045L1000.14 426.211L1000.13 426.212L1000.08 426.737L996.565 457.268C996.565 457.268 955.755 481.672 935.7 452.01L934.648 424.11L934.341 416.027" stroke="#0000E2" stroke-width="0.658605" stroke-miterlimit="10"/>
<path d="M1004.7 386.634L1004.54 387.965" stroke="#0000E2" stroke-width="0.658605" stroke-miterlimit="10"/>
<path d="M1007.17 365.04L1006.14 374.06L1004.72 386.402" stroke="#0000E2" stroke-width="0.658605" stroke-miterlimit="10"/>
<path d="M1008.71 351.66C1008.69 351.963 1008.66 352.268 1008.61 352.575" stroke="#0000E2" stroke-width="0.658605" stroke-miterlimit="10"/>
<path d="M967.142 299.857C965.465 299.154 963.781 298.198 962.115 296.904" stroke="#0000E2" stroke-width="0.658605" stroke-miterlimit="10" stroke-linecap="round"/>
<path d="M971.758 301.166C970.272 300.932 968.753 300.521 967.217 299.884" stroke="#0000E2" stroke-width="0.658605" stroke-miterlimit="10" stroke-linecap="round"/>
<path d="M990.131 296.583C990.131 296.583 981.677 302.736 971.77 301.166" stroke="#0000E2" stroke-width="0.658605" stroke-miterlimit="10" stroke-linecap="round"/>
<path d="M969.439 304.742C972.588 305.478 975.688 305.545 978.59 305.18C984.394 304.451 989.393 302.018 992.293 299.909C993.891 298.745 994.248 296.511 993.084 294.912C991.921 293.314 989.698 292.956 988.087 294.109C987.546 294.502 975.347 303.025 964.363 294.505C962.803 293.293 960.552 293.576 959.341 295.136C958.117 296.697 958.4 298.948 959.972 300.158C961.345 301.224 962.742 302.095 964.154 302.796" stroke="#0000E2" stroke-width="0.658605" stroke-miterlimit="10"/>
<path d="M1101.72 302.515C1101.72 302.515 1155.56 357.202 1105.03 405.061C1105.03 405.061 1080.8 424.47 1050.29 428.51C1046.57 429.001 1042.77 429.263 1038.89 429.233C1033.04 429.198 1027.06 428.483 1021.03 426.894C1014.5 425.165 1007.94 422.403 1001.5 418.305C1001.35 418.227 1001.22 418.135 1001.08 418.045C999.875 417.27 998.676 416.446 997.472 415.575C994.865 413.689 991.902 410.031 989.407 406.543C986.245 402.164 983.838 398.039 983.838 398.039C979.909 390.712 988.628 396.233 988.628 396.233C989.65 396.899 990.514 397.26 991.232 397.422C994.348 398.089 994.867 394.848 994.867 394.848C994.533 393.915 994.288 393.019 994.096 392.165C993.233 388.267 993.675 385.372 993.675 385.372C994.281 381.097 997.432 384.25 999.658 387.123C1000.94 388.791 1001.92 390.352 1001.92 390.352C1003.11 390.455 1003.79 389.804 1004.18 389.021C1004.34 388.688 1004.45 388.337 1004.53 388.014C1004.53 387.99 1004.53 387.978 1004.54 387.965C1004.67 387.359 1004.7 386.838 1004.7 386.634C1004.7 386.573 1004.7 386.549 1004.7 386.549C1004.71 386.5 1004.71 386.452 1004.72 386.403C1005.51 379.914 1008.13 378.899 1008.13 378.899C1010.56 379.881 1010.42 397.104 1010.42 397.104C1043.67 415.782 1083.57 392.251 1083.57 392.251C1088.31 389.478 1092.25 386.528 1095.5 383.497C1123.43 357.451 1101.04 324.281 1101.04 324.281L1101.72 302.515Z" stroke="#0000E2" stroke-width="0.658605" stroke-miterlimit="10"/>
<path d="M923.129 423.693C926.194 421.852 928.202 419.927 928.83 418.224C928.83 418.224 931.533 417.523 934.341 416.027C937.217 414.499 940.196 412.163 940.488 408.938C940.488 408.938 939.734 406.771 934.018 407.429C933.758 407.462 933.485 407.496 933.202 407.544C933.202 407.544 930.69 404.118 933.748 400.401C934.393 399.598 935.303 398.798 936.539 398.005C936.539 398.005 942.284 393.649 935.814 392.237C935.814 392.237 934.951 392.069 933.44 392.211C932.441 392.3 931.169 392.52 929.667 393.01C929.667 393.01 931.722 391.271 933.329 389.12C934.801 387.143 935.893 384.828 934.678 383.2C934.678 383.2 934.123 382.993 933.103 383.302C931.523 383.753 928.847 385.437 925.406 390.983C925.406 390.983 906.215 409.83 885.621 405.934C873.347 403.615 860.573 393.213 851.066 365.919C851.066 365.919 842.393 342.67 870.475 315.883L871.068 298.869C871.068 298.869 812.755 323.103 832.737 387.593C840.812 413.648 857.328 425.588 874.434 429.778C879.661 431.07 884.954 431.632 890.068 431.639C903.694 431.694 916.115 427.907 923.129 423.693Z" stroke="#0000E2" stroke-width="0.658605" stroke-miterlimit="10"/>
<path d="M923.115 423.695L923.129 423.693" stroke="#0000E2" stroke-width="0.658605" stroke-linecap="round" stroke-linejoin="round"/>
<path d="M808.028 482.762C808.028 482.762 818.364 478.936 819.396 473.368C819.396 473.368 819.396 473.368 819.395 473.356C819.304 473.115 817.987 469.334 815.511 464.568C811.485 456.857 804.399 446.523 794.552 444.272C794.552 444.272 792.127 455.994 794.837 477.55C794.837 477.55 799.673 484.63 808.028 482.762Z" stroke="#0000E2" stroke-width="0.658605" stroke-miterlimit="10"/>
<path d="M808.029 482.761C808.029 482.761 802.71 455.47 794.552 444.271" stroke="#0000E2" stroke-width="0.658605" stroke-miterlimit="10"/>
<path d="M1003.38 510.011C1003.45 509.22 1003.4 508.407 1003.24 507.586C1003.24 507.586 1003.13 506.481 1002.79 504.743C1002.37 502.69 1001.65 499.76 1000.41 496.668C998.259 491.224 994.531 485.304 988.218 482.933C987.978 482.843 987.74 482.765 987.501 482.687C987.501 482.687 980.236 489.688 984.6 517.99C984.6 517.99 993.964 524.428 997.433 520.732C997.634 520.514 997.818 520.25 997.974 519.966C997.974 519.966 1002.94 515.371 1003.38 510.011Z" stroke="#0000E2" stroke-width="0.658605" stroke-miterlimit="10"/>
<path d="M997.434 520.732C995.841 516.866 996.15 498.082 988.218 482.934" stroke="#0000E2" stroke-width="0.658605" stroke-miterlimit="10"/>
<path d="M965.498 315.789C965.656 314.939 965.891 314.224 966.219 313.677C966.219 313.677 965.497 311.374 969.439 304.743C970.098 303.661 970.862 302.47 971.769 301.165L971.757 301.167L967.217 299.885C967.191 299.876 967.166 299.867 967.141 299.858C967.141 299.858 965.759 300.826 964.154 302.796C962.091 305.341 959.672 309.544 959.429 315.457C959.356 316.983 959.43 318.622 959.697 320.369L961.069 331.277L963.598 351.4C963.598 351.4 966.635 356.324 970.807 351.131C970.807 351.131 967.996 340.825 966.345 330.854C965.392 324.995 964.825 319.243 965.486 315.791" stroke="#0000E2" stroke-width="0.658605" stroke-miterlimit="10"/>
<path d="M966.22 313.677C966.22 313.677 961.738 314.108 959.753 312.481" stroke="#0000E2" stroke-width="0.658605" stroke-miterlimit="10"/>
<path d="M965.499 315.79C965.499 315.79 965.499 315.79 965.487 315.791C965.183 315.865 960.926 316.93 959.429 315.458" stroke="#0000E2" stroke-width="0.658605" stroke-miterlimit="10"/>
<path d="M965.971 311.7C965.971 311.7 961.666 312.096 960.336 310.038" stroke="#0000E2" stroke-width="0.658605" stroke-miterlimit="10"/>
<path d="M970.25 348.326C973.448 348.886 975.706 350.479 975.572 352.289C975.414 354.474 971.845 356.138 967.596 356.022C963.357 355.894 960.043 354.036 960.202 351.851C960.282 350.674 961.379 349.633 963.038 348.956" stroke="#0000E2" stroke-width="0.658605" stroke-miterlimit="10"/>
<path d="M1008.84 351.019L1011.37 359.603C1011.37 359.603 1010.23 361.997 1007.17 365.04C1001.5 370.685 989.225 378.581 965.367 377.718C965.367 377.718 947.403 377.51 932.348 363.413C931.079 362.213 929.834 360.926 928.611 359.528L931.846 349.46" stroke="#0000E2" stroke-width="0.658605" stroke-miterlimit="10"/>
<path d="M994.096 392.165C992.693 393.918 991.838 395.637 991.232 397.422" stroke="#0000E2" stroke-width="0.658605" stroke-miterlimit="10"/>
<path d="M1004.18 389.021L1004.51 385.418C1004.12 385.792 1001.91 386.021 1000.69 386.585C1000.33 386.749 999.996 386.936 999.659 387.123" stroke="#0000E2" stroke-width="0.658605" stroke-miterlimit="10"/>
<path d="M989.406 406.543C989.328 406.974 989.24 407.418 989.151 407.862C988.317 411.853 987.237 416.368 982.462 417.053C978.149 417.679 976.191 413.967 971.804 416.395C964.965 420.179 962.812 434.538 953.403 431.858C949.634 430.78 947.105 425.588 943.039 425.305C939.968 425.09 938.055 428.157 935.194 427.41L935.852 445.374C941.703 444.061 945.578 452.393 951.75 454.312C962.283 457.608 961.451 445.152 969.186 443.999C977.157 442.805 983.026 452.45 989.468 443.687C992.281 439.845 991.246 435.535 993.241 431.591C994.928 428.263 998.029 428.523 1000.08 426.737C1000.26 426.593 1000.42 426.429 1000.58 426.229C1000.66 426.159 1000.73 426.078 1000.79 425.986L1001.5 418.305" stroke="#0000E2" stroke-width="0.658605" stroke-miterlimit="10"/>
<path d="M1301.45 422.277C1301.45 422.277 1277.62 470.614 1307.96 482.126C1338.3 493.638 1371.72 498.927 1363.62 436.41L1301.45 422.277Z" fill="#8FE1FF"/>
<path d="M1329.45 472.029C1328.3 472.158 1327.14 472.097 1326.01 471.849C1320.53 470.653 1317.48 465.477 1317.36 465.257C1317.25 465.085 1317.18 464.895 1317.16 464.697C1317.13 464.498 1317.14 464.296 1317.19 464.102C1317.24 463.907 1317.32 463.725 1317.45 463.565C1317.57 463.406 1317.72 463.272 1317.89 463.172C1318.07 463.073 1318.26 463.009 1318.46 462.984C1318.66 462.96 1318.86 462.976 1319.05 463.031C1319.25 463.086 1319.43 463.18 1319.58 463.305C1319.74 463.431 1319.87 463.587 1319.96 463.764C1319.97 463.816 1322.47 468.023 1326.67 468.917C1329.17 469.46 1331.88 468.698 1334.69 466.667C1334.85 466.546 1335.03 466.458 1335.23 466.408C1335.42 466.359 1335.62 466.348 1335.82 466.378C1336.02 466.408 1336.21 466.477 1336.38 466.581C1336.55 466.685 1336.7 466.823 1336.82 466.985C1336.93 467.148 1337.02 467.332 1337.06 467.527C1337.11 467.723 1337.11 467.925 1337.08 468.122C1337.04 468.32 1336.97 468.508 1336.86 468.676C1336.75 468.845 1336.61 468.99 1336.45 469.103C1334.41 470.672 1332 471.681 1329.45 472.029V472.029Z" fill="#FF6047"/>
<path d="M1266.77 412.995C1264.74 412.227 1262.72 411.406 1260.73 410.531C1255.05 408.027 1249.6 404.569 1246.03 399.49C1241.33 392.789 1241.31 384.891 1246.17 378.42C1253.59 368.556 1267.4 363.011 1278.42 358.376C1311.53 344.455 1351.49 338.96 1383.75 358.097C1387.5 360.333 1391.08 362.848 1394.45 365.622C1404.11 373.641 1412.34 383.23 1418.82 393.985C1425.25 404.541 1432.67 417.777 1431.67 430.526C1431.4 434.138 1430.33 437.79 1428.05 440.612C1420.52 449.872 1405.35 446.998 1395.36 444.461C1384.44 441.678 1373.55 438.992 1362.63 436.277L1349.09 432.917C1340.58 430.801 1332.08 428.691 1323.53 426.767C1304.67 422.496 1284.93 419.83 1266.77 412.995Z" fill="#FF2B0A" stroke="#1100A5" stroke-miterlimit="10"/>
<path d="M1343.46 394.528C1347.5 394.088 1350.47 390.934 1350.1 387.483C1349.72 384.031 1346.14 381.59 1342.1 382.03C1338.06 382.469 1335.09 385.624 1335.46 389.075C1335.84 392.526 1339.42 394.968 1343.46 394.528Z" fill="white"/>
<path d="M1325.41 364.752C1325.97 363.698 1325.42 362.303 1324.18 361.637C1322.94 360.97 1321.48 361.285 1320.91 362.339C1320.34 363.393 1320.89 364.788 1322.13 365.454C1323.38 366.121 1324.84 365.806 1325.41 364.752Z" fill="white"/>
<path d="M1366.67 369.592C1370.04 369.226 1372.6 367.379 1372.39 365.468C1372.18 363.556 1369.28 362.303 1365.92 362.669C1362.55 363.036 1359.99 364.882 1360.2 366.794C1360.4 368.706 1363.3 369.959 1366.67 369.592Z" fill="white"/>
<path d="M1402.72 403.068C1406.45 401.376 1408.38 397.612 1407.04 394.662C1405.7 391.711 1401.6 390.692 1397.87 392.385C1394.14 394.078 1392.21 397.842 1393.55 400.792C1394.89 403.742 1399 404.761 1402.72 403.068Z" fill="white"/>
<path d="M1377.2 386.84C1378.77 386.584 1379.87 385.346 1379.67 384.075C1379.46 382.804 1378.02 381.981 1376.45 382.236C1374.88 382.492 1373.78 383.73 1373.99 385.002C1374.19 386.273 1375.63 387.096 1377.2 386.84Z" fill="white"/>
<path d="M1341.78 354.967C1343.22 354.811 1344.28 353.783 1344.16 352.67C1344.04 351.557 1342.78 350.782 1341.35 350.938C1339.91 351.094 1338.85 352.122 1338.97 353.235C1339.09 354.348 1340.35 355.123 1341.78 354.967Z" fill="white"/>
<path d="M1306.34 463.253C1308.11 463.06 1309.39 461.47 1309.2 459.701C1309.01 457.931 1307.42 456.653 1305.65 456.845C1303.88 457.038 1302.6 458.628 1302.79 460.397C1302.98 462.167 1304.58 463.445 1306.34 463.253Z" fill="#1100A5"/>
<path d="M1348.06 471.389C1349.83 471.197 1351.1 469.606 1350.91 467.837C1350.72 466.068 1349.13 464.789 1347.36 464.982C1345.59 465.174 1344.31 466.764 1344.5 468.534C1344.7 470.303 1346.29 471.582 1348.06 471.389Z" fill="#1100A5"/>
<path d="M1318.66 464.514C1318.66 464.514 1324.96 475.546 1335.56 467.889" stroke="#1100A5" stroke-miterlimit="10" stroke-linecap="round"/>
<path d="M1329.45 472.029C1328.3 472.158 1327.14 472.097 1326.01 471.849C1320.53 470.653 1317.48 465.477 1317.36 465.257C1317.25 465.085 1317.18 464.895 1317.16 464.697C1317.13 464.498 1317.14 464.296 1317.19 464.102C1317.24 463.907 1317.32 463.725 1317.45 463.565C1317.57 463.406 1317.72 463.272 1317.89 463.172C1318.07 463.073 1318.26 463.009 1318.46 462.984C1318.66 462.96 1318.86 462.976 1319.05 463.031C1319.25 463.086 1319.43 463.18 1319.58 463.305C1319.74 463.431 1319.87 463.587 1319.96 463.764C1319.97 463.816 1322.47 468.023 1326.67 468.917C1329.17 469.46 1331.88 468.698 1334.69 466.667C1334.85 466.546 1335.03 466.458 1335.23 466.408C1335.42 466.359 1335.62 466.348 1335.82 466.378C1336.02 466.408 1336.21 466.477 1336.38 466.581C1336.55 466.685 1336.7 466.823 1336.82 466.985C1336.93 467.148 1337.02 467.332 1337.06 467.527C1337.11 467.723 1337.11 467.925 1337.08 468.122C1337.04 468.32 1336.97 468.508 1336.86 468.676C1336.75 468.845 1336.61 468.99 1336.45 469.103C1334.41 470.672 1332 471.681 1329.45 472.029V472.029Z" stroke="#1100A5" stroke-miterlimit="10"/>
<path opacity="0.6" d="M1256.08 373.62C1251.73 376.653 1247.18 380.696 1247.03 386.013C1246.93 389.774 1249.15 393.235 1251.75 395.947C1258.65 403.091 1268.46 406.475 1277.89 409.614C1280.84 410.629 1284.05 411.618 1287.01 410.627C1288.52 410.135 1289.84 409.163 1291.33 408.6C1292.82 408.037 1294.7 407.966 1295.82 409.1C1296.33 409.717 1296.74 410.411 1297.03 411.155C1297.96 412.926 1299.39 414.379 1301.15 415.33C1302.91 416.28 1304.92 416.684 1306.91 416.49C1308.6 416.307 1310.24 415.66 1311.94 415.649C1314.77 415.622 1317.29 417.286 1319.76 418.669C1323.86 420.964 1328.65 422.661 1333.21 421.53C1337.76 420.4 1341.58 415.5 1340.09 411.05C1338.68 406.833 1333.75 405.169 1329.56 403.693C1320.22 400.384 1311.62 395.272 1304.25 388.647C1302.69 387.245 1301.15 385.728 1300.33 383.812C1298.92 380.55 1299.8 376.731 1301.37 373.552C1302.95 370.373 1305.18 367.537 1306.65 364.289C1307.35 362.743 1307.88 360.954 1307.28 359.355C1306.14 356.318 1302.02 356.023 1298.79 356.268C1283.22 357.353 1269.02 365.287 1256.08 373.62Z" fill="#FF7661"/>
<path d="M1283.67 388.322C1284.63 386.136 1281.89 382.812 1277.55 380.898C1273.21 378.984 1268.91 379.204 1267.95 381.39C1266.98 383.576 1269.72 386.9 1274.06 388.814C1278.4 390.729 1282.7 390.508 1283.67 388.322Z" fill="white"/>
<path d="M1301.14 367.148C1304.42 366.791 1306.87 364.54 1306.61 362.121C1306.35 359.702 1303.47 358.031 1300.19 358.388C1296.9 358.745 1294.46 360.996 1294.72 363.415C1294.98 365.833 1297.86 367.505 1301.14 367.148Z" fill="white"/>
<path d="M1296.17 435.277C1296.17 435.277 1328.48 458.385 1364.5 450.685C1364.5 450.685 1364.09 438.892 1363.32 436.676L1301.14 422.552C1301.14 422.552 1296.85 433.078 1296.17 435.277Z" fill="#588799"/>
<path d="M1301.45 422.277C1301.45 422.277 1277.62 470.614 1307.96 482.126C1338.3 493.638 1371.72 498.927 1363.62 436.41L1301.45 422.277Z" stroke="#1100A5" stroke-miterlimit="10"/>
<path d="M1336.75 506.648C1336.75 506.648 1330.26 501.508 1331.07 492.851C1331.34 487.442 1332.72 487.173 1333.1 483.525C1336.07 484.2 1343.24 486.499 1343.92 497.728" fill="#04D493"/>
<path d="M1336.75 506.648C1336.75 506.648 1330.26 501.508 1331.07 492.851C1331.34 487.442 1332.72 487.173 1333.1 483.525C1336.07 484.2 1343.24 486.499 1343.92 497.728" stroke="#023AEC" stroke-miterlimit="10"/>
<path d="M1342.84 491.908C1342.84 491.908 1343.39 484.469 1346.76 480.678C1348.42 478.894 1349.96 476.996 1351.36 475C1351.36 475 1355.55 479.328 1355.55 484.469C1355.55 489.609 1353.79 496.368 1353.79 496.368" fill="#04D493"/>
<path d="M1342.84 491.908C1342.84 491.908 1343.39 484.469 1346.76 480.678C1348.42 478.894 1349.96 476.996 1351.36 475C1351.36 475 1355.55 479.328 1355.55 484.469C1355.55 489.609 1353.79 496.368 1353.79 496.368" stroke="#023AEC" stroke-miterlimit="10"/>
<path d="M1349.06 503.132C1349.06 503.132 1351.39 495.72 1357.42 494.623C1363.46 493.526 1365.41 491.644 1365.41 491.644C1365.41 491.644 1369.06 503.954 1358.24 508.42" fill="#04D493"/>
<path d="M1349.06 503.132C1349.06 503.132 1351.39 495.72 1357.42 494.623C1363.46 493.526 1365.41 491.644 1365.41 491.644C1365.41 491.644 1369.06 503.954 1358.24 508.42" stroke="#023AEC" stroke-miterlimit="10"/>
<path d="M21.2527 534.901C21.2527 534.901 3.50208 484.833 21.2527 458.163C21.2527 458.163 -9.8703 439.4 5.04698 410.76C5.04698 410.76 26.6505 426.352 25.1118 453.103C25.1118 453.103 32.3109 443.327 36.9393 442.302C36.9393 442.302 38.7406 447.706 43.369 446.68C43.369 446.68 32.8238 454.398 29.7402 458.257C29.7402 458.257 46.7153 445.654 70.1201 459.283C70.1201 459.283 54.1771 476.521 26.9069 463.911C26.9069 463.911 10.9638 489.38 31.0224 531.049C31.0349 531.042 29.7402 537.729 21.2527 534.901Z" fill="#036B5A" stroke="#1100A5" stroke-miterlimit="10"/>
<path d="M33.0359 435.509C7.52952 438.18 2.22559 466.257 2.22559 466.257C28.1698 473.181 37.3328 446.868 38.1459 446.242L38.4461 446.918C25.7179 469.272 47.2964 486.797 47.2964 486.797C68.018 469.584 53.5073 450.051 53.4635 449.025H53.5698C69.9507 468.865 93.9997 454.892 93.9997 454.892C85.2432 429.411 61.0691 436.31 60.0934 435.985L59.912 435.478C80.4021 420.054 66.8734 396.011 66.8734 396.011C41.1043 403.567 46.8586 427.979 46.5209 428.936L45.8954 428.479C41.8236 403.16 13.3713 402.178 13.3713 402.178C8.02363 428.491 32.2728 434.583 32.9483 435.328C32.9921 435.322 33.3611 435.472 33.0359 435.509Z" fill="#B93D00" stroke="#1100A5" stroke-linecap="square" stroke-linejoin="round"/>
<path d="M46.6519 450.276C54.4311 450.276 60.7374 443.97 60.7374 436.191C60.7374 428.412 54.4311 422.106 46.6519 422.106C38.8728 422.106 32.5665 428.412 32.5665 436.191C32.5665 443.97 38.8728 450.276 46.6519 450.276Z" fill="#E7B000" stroke="#1100A5" stroke-miterlimit="10"/>
<path d="M5.04626 410.76C5.04626 410.76 8.06099 432.094 16.6111 442.089" stroke="#1100A5" stroke-linejoin="round"/>
<path d="M1 426.428L9.53756 428.755" stroke="#1100A5" stroke-linejoin="round"/>
<path d="M1.28809 422.106L8.7436 426.428" stroke="#1100A5" stroke-linejoin="round"/>
<path d="M13.291 437.223L20.2899 429.599" stroke="#1100A5" stroke-linejoin="round"/>
<path d="M14.7727 439.669L22.1782 434.039" stroke="#1100A5" stroke-linejoin="round"/>
<path d="M28.0013 460.622C28.0013 460.622 34.4436 460.084 34.4436 460.622" stroke="#1100A5" stroke-linejoin="round"/>
<path d="M57.9297 460.384C57.9297 460.384 68.106 459.759 69.7134 459.046" stroke="#1100A5" stroke-linejoin="round"/>
<path d="M58.4621 454.317L57.6365 459.046" stroke="#1100A5" stroke-linejoin="round"/>
<path d="M60.7381 455.405L60.0063 460.24" stroke="#1100A5" stroke-linejoin="round"/>
<path d="M40.2353 431.907C40.2195 431.703 40.1446 431.509 40.02 431.347C39.8953 431.185 39.7263 431.063 39.5334 430.996C39.3406 430.929 39.1323 430.919 38.9341 430.968C38.7359 431.018 38.5564 431.124 38.4175 431.273C38.2785 431.423 38.1862 431.61 38.1518 431.811C38.1175 432.012 38.1425 432.219 38.2238 432.407C38.3052 432.594 38.4394 432.754 38.61 432.866C38.7806 432.978 38.9803 433.038 39.1845 433.039C39.4737 433.027 39.7467 432.902 39.9436 432.69C40.1405 432.478 40.2454 432.196 40.2353 431.907V431.907Z" fill="#1100A5"/>
<path d="M42.0492 442.721C38.4153 440.663 38.6592 438.436 39.1221 437.292C39.5867 436.29 40.4237 435.509 41.455 435.115C42.9749 434.615 44.6762 435.271 46.4587 437.085C46.5654 437.18 46.6829 437.262 46.809 437.329C47.1453 437.527 47.5328 437.621 47.9223 437.598C48.8344 437.526 49.7493 437.697 50.5743 438.092C51.1997 438.436 52.4507 439.518 51.0684 442.001C49.4172 444.916 46.2398 444.535 44.7575 443.909C43.8192 443.599 42.9124 443.202 42.0492 442.721V442.721Z" fill="#A2FF5C"/>
<path d="M43.8568 436.792C43.5723 436.599 43.2502 436.468 42.9117 436.409C42.5732 436.35 42.2259 436.363 41.8928 436.448C41.2492 436.72 40.7252 437.215 40.4168 437.842C39.9101 439.093 40.6919 440.344 42.7435 441.495C43.5271 441.935 44.3526 442.295 45.2078 442.571H45.2766C45.4017 442.621 48.4039 443.822 49.8425 441.276C50.7056 439.75 50.1052 439.4 49.88 439.287C49.2918 439.023 48.6456 438.916 48.0036 438.974C47.3475 439.011 46.695 438.855 46.1272 438.524C45.8999 438.392 45.6898 438.232 45.5018 438.049C45.0128 437.557 44.4594 437.134 43.8568 436.792V436.792Z" fill="#FDB300"/>
<path d="M40.3036 438.912C41.7484 438.443 45.0508 438.024 47.0586 442.94C47.0586 442.94 41.8109 442.471 40.3349 439.137L40.3036 438.912Z" fill="#7EFF5C" stroke="#28F2B5" stroke-miterlimit="10"/>
<path d="M42.0179 442.765C38.3465 440.689 38.5904 438.443 39.0595 437.286C39.5327 436.28 40.3747 435.494 41.4112 435.091C42.9499 434.584 44.6699 435.247 46.4775 437.08C46.5841 437.175 46.7017 437.256 46.8277 437.324C47.1577 437.521 47.5383 437.616 47.9223 437.599C48.8448 437.52 49.7714 437.691 50.6055 438.093C51.231 438.443 52.5194 439.531 51.0996 442.039C49.4359 444.985 46.2273 444.591 44.7324 443.966C43.7913 443.653 42.8822 443.251 42.0179 442.765V442.765Z" stroke="#1100A5" stroke-linecap="round" stroke-linejoin="round"/>
<path d="M43.8377 436.779C43.5504 436.584 43.2251 436.453 42.8833 436.394C42.5415 436.335 42.191 436.349 41.855 436.435C41.2055 436.709 40.6769 437.209 40.3664 437.842C39.8598 439.093 40.6416 440.344 42.7181 441.526C43.5136 441.972 44.3518 442.336 45.22 442.614L45.295 442.646C45.4201 442.696 48.4224 443.897 49.8984 441.338C50.7678 439.8 50.1674 439.462 49.9422 439.331C49.354 439.067 48.7078 438.959 48.0658 439.018C47.4096 439.048 46.7585 438.89 46.1895 438.561C45.9597 438.431 45.7491 438.269 45.564 438.08C45.0514 437.568 44.4705 437.131 43.8377 436.779V436.779Z" stroke="#1100A5" stroke-linecap="round" stroke-linejoin="round"/>
<path d="M40.2543 438.924C41.7116 438.449 45.0453 438.024 47.0718 442.984" stroke="#1100A5" stroke-linecap="round" stroke-linejoin="round"/>
<path d="M56.5101 439.662C56.5101 439.384 56.3994 439.116 56.2024 438.919C56.0053 438.722 55.7381 438.612 55.4594 438.612C55.1807 438.612 54.9134 438.722 54.7164 438.919C54.5193 439.116 54.4086 439.384 54.4086 439.662C54.3925 439.81 54.4076 439.959 54.4531 440.101C54.4985 440.242 54.5733 440.372 54.6724 440.483C54.7715 440.593 54.8929 440.682 55.0284 440.742C55.164 440.803 55.3109 440.834 55.4594 440.834C55.6079 440.834 55.7547 440.803 55.8903 440.742C56.0259 440.682 56.1472 440.593 56.2464 440.483C56.3455 440.372 56.4202 440.242 56.4657 440.101C56.5111 439.959 56.5263 439.81 56.5101 439.662V439.662Z" fill="#1100A5"/>
<path d="M22.9034 412.067C24.5291 413.695 26.2749 415.198 28.126 416.564L34.5308 421.53C34.9187 421.867 35.3635 422.131 35.8442 422.312C37.3328 422.769 38.8965 421.361 39.0904 419.81C39.2843 418.259 38.4649 416.771 37.4954 415.57C35.3313 412.943 32.2603 411.26 29.2643 409.64L20.5892 404.956C18.7128 403.93 16.1234 403.173 17.9935 405.994C19.4537 408.155 21.0963 410.187 22.9034 412.067V412.067Z" fill="#D94E09"/>
<path d="M66.7668 399.62C68.4872 404.612 69.0489 409.929 68.4096 415.169C67.7702 420.41 65.9465 425.436 63.0766 429.868C62.8451 430.212 62.4949 430.599 62.1008 430.493C61.9283 430.426 61.7785 430.311 61.6693 430.162C60.1494 428.46 56.6093 425.902 57.291 423.563C58.004 421.061 60.4184 418.34 61.5442 415.914C62.7894 413.276 63.8612 410.56 64.7528 407.783C65.2969 405.987 67.361 401.397 66.7668 399.62Z" fill="#D94E09"/>
<path d="M63.377 443.515C73.6768 444.319 83.5008 448.185 91.5854 454.617C92.2921 452.666 90.7535 450.671 89.2649 449.219C85.6905 445.574 81.5665 442.512 77.0433 440.144C73.7034 438.487 67.8616 435.991 64.04 437.123C61.4881 437.88 59.8056 443.228 63.377 443.515Z" fill="#D94E09"/>
<path d="M51.375 463.067C51.0099 464.334 50.8246 465.646 50.8246 466.964L50.293 478.147L52.995 475.927C53.6994 475.379 54.3564 474.772 54.9589 474.113C56.5789 472.237 57.1731 469.635 57.3795 467.145C57.5358 465.269 57.4795 463.324 56.5476 461.71C54.8776 458.82 52.1819 460.703 51.375 463.067Z" fill="#D94E09"/>
<path d="M30.2529 441.183C30.6219 441.808 31.1911 442.521 30.7845 443.059C30.5689 443.297 30.281 443.457 29.9652 443.516C24.3509 445.218 19.1003 447.945 14.4787 451.559C12.8463 452.81 11.17 454.28 9.11853 454.542C9.55598 451.92 10.7519 449.482 12.5586 447.531C16.5323 443.5 21.1917 440.209 26.3188 437.811C26.9555 437.516 27.6581 437.391 28.3577 437.449C30.4092 437.811 29.4085 439.825 30.2529 441.183Z" fill="#D94E09"/>
<path d="M46.1896 427.379C46.5649 427.147 47.0715 426.959 47.403 427.241C47.7345 427.522 47.6407 427.991 47.6156 428.404C47.5971 428.872 47.6803 429.337 47.8596 429.769C48.0389 430.201 48.3099 430.589 48.6539 430.906C48.9819 430.304 49.1641 429.634 49.1856 428.948C49.2226 429.588 49.3489 430.22 49.5608 430.825C49.6671 431.123 49.8328 431.396 50.0478 431.629C50.2628 431.861 50.5227 432.047 50.8118 432.176C51.1062 431.449 51.1928 430.654 51.062 429.88L51.8625 430.406C51.6073 431.309 51.6918 432.275 52.1002 433.12C52.2316 433.395 52.4505 433.689 52.7569 433.689C52.8792 433.678 52.997 433.637 53.1004 433.571C53.2038 433.504 53.2897 433.414 53.3511 433.308C53.5832 432.98 53.7309 432.601 53.7811 432.202C53.8313 431.804 53.7824 431.4 53.6389 431.025C53.93 431.843 54.4075 432.582 55.0336 433.183C55.2025 433.345 55.4464 433.508 55.6591 433.402C55.7434 433.352 55.8109 433.278 55.853 433.189C56.0279 432.876 56.1025 432.517 56.0667 432.16C56.0309 431.803 55.8865 431.466 55.6528 431.194" fill="#E7B000"/>
<path d="M46.1896 427.379C46.5649 427.147 47.0715 426.959 47.403 427.241C47.7345 427.522 47.6407 427.991 47.6156 428.404C47.5971 428.872 47.6803 429.337 47.8596 429.769C48.0389 430.201 48.3099 430.589 48.6539 430.906C48.9819 430.304 49.1641 429.634 49.1856 428.948C49.2226 429.588 49.3489 430.22 49.5608 430.825C49.6671 431.123 49.8328 431.396 50.0478 431.629C50.2628 431.861 50.5227 432.047 50.8118 432.176C51.1062 431.449 51.1928 430.654 51.062 429.88L51.8625 430.406C51.6073 431.309 51.6918 432.275 52.1002 433.12C52.2316 433.395 52.4505 433.689 52.7569 433.689C52.8792 433.678 52.997 433.637 53.1004 433.571C53.2038 433.504 53.2897 433.414 53.3511 433.308C53.5832 432.98 53.7309 432.601 53.7811 432.202C53.8313 431.804 53.7824 431.4 53.6389 431.025C53.93 431.843 54.4075 432.582 55.0336 433.183C55.2025 433.345 55.4464 433.508 55.6591 433.402C55.7434 433.352 55.8109 433.278 55.853 433.189C56.0279 432.876 56.1025 432.517 56.0667 432.16C56.0309 431.803 55.8865 431.466 55.6528 431.194" stroke="#1100A5" stroke-width="0.75" stroke-miterlimit="10"/>
<path d="M17.2374 489.212C17.0427 502.097 18.8403 514.935 22.5664 527.271C23.0042 528.728 23.5108 530.242 24.6241 531.28C25.7375 532.318 27.6451 532.656 28.7522 531.612C22.9479 514.33 17.0686 496.042 20.7275 478.178C21.5844 473.994 23.9549 469.716 24.4803 465.625C21.1966 465.463 19.3702 473.325 18.7573 475.764C17.7389 480.174 17.229 484.686 17.2374 489.212V489.212Z" fill="#085246"/>
<path d="M783.643 760.649C783.643 760.649 808.946 716.138 795.898 667.38C795.898 667.38 788.145 694.405 767.739 688.347C767.739 688.347 770.184 663.203 793.846 660.108C793.846 660.108 791.806 646.787 788.518 645.189C788.518 645.189 797.23 649.681 799.606 645.189C799.606 645.189 801.172 652.973 801.577 656.634C801.577 656.634 809.878 643.313 819.4 645.189C819.4 645.189 820.162 660.582 802.803 661.514C802.803 661.514 821.984 712.131 797.906 760.686C797.928 760.649 794.661 765.956 783.643 760.649Z" fill="#036B5A" stroke="#1100A5" stroke-miterlimit="10"/>
<path d="M781.362 641.699C755.089 639.568 743 668.249 743 668.249C767.408 680.589 782.961 654.54 783.92 654.034L784.058 654.806C765.884 675.98 783.376 698.683 783.376 698.683C808.344 684.495 798.46 661.04 798.668 659.943H798.78C810.464 684.074 838 673.95 838 673.95C835.336 645.322 809.372 647.939 808.472 647.406L808.408 646.836C832.715 634.49 824.925 606.454 824.925 606.454C797.219 609.459 797.155 636.387 796.553 637.33L796.052 636.728C798.05 609.171 769.699 602.628 769.699 602.628C757.977 629.413 780.888 640.543 781.389 641.492C781.368 641.497 781.703 641.726 781.362 641.699Z" fill="#0084E0" stroke="#1100A5" stroke-linecap="square" stroke-linejoin="round"/>
<path d="M793.792 658.275C799.398 658.275 803.942 653.731 803.942 648.125C803.942 642.519 799.398 637.975 793.792 637.975C788.186 637.975 783.642 642.519 783.642 648.125C783.642 653.731 788.186 658.275 793.792 658.275Z" fill="#FF8286" stroke="#1100A5" stroke-miterlimit="10"/>
<path d="M795.2 649.058C794.092 649.532 792.871 649.678 791.683 649.479C791.534 649.45 791.402 649.364 791.317 649.239C791.231 649.113 791.199 648.959 791.228 648.81C791.256 648.661 791.342 648.529 791.468 648.444C791.593 648.358 791.747 648.326 791.896 648.354C792.019 648.354 794.853 648.887 796.116 646.756C796.155 646.691 796.205 646.634 796.266 646.589C796.326 646.543 796.395 646.51 796.468 646.491C796.542 646.473 796.618 646.468 796.693 646.479C796.768 646.49 796.84 646.515 796.905 646.553C796.97 646.592 797.027 646.643 797.072 646.703C797.117 646.764 797.15 646.833 797.169 646.906C797.188 646.979 797.192 647.055 797.182 647.13C797.171 647.205 797.146 647.277 797.107 647.342C796.66 648.094 795.995 648.693 795.2 649.058V649.058Z" fill="#4C9534"/>
<path d="M795.263 649.078C794.141 649.557 792.907 649.705 791.704 649.505C791.572 649.459 791.46 649.368 791.39 649.247C791.32 649.127 791.296 648.985 791.322 648.848C791.347 648.71 791.422 648.587 791.531 648.5C791.641 648.414 791.777 648.369 791.917 648.375C792.039 648.375 794.906 648.908 796.179 646.75C796.258 646.617 796.386 646.521 796.535 646.482C796.685 646.444 796.843 646.466 796.976 646.545C797.109 646.623 797.205 646.751 797.243 646.901C797.282 647.05 797.259 647.209 797.181 647.341C796.732 648.101 796.063 648.706 795.263 649.078Z" stroke="#1100A5" stroke-width="0.75" stroke-linecap="round" stroke-linejoin="round"/>
<path d="M791.815 648.94C791.815 648.94 795.161 649.542 796.691 647.033" stroke="#1100A5" stroke-width="0.75" stroke-linecap="round" stroke-linejoin="round"/>
<path d="M788.423 648.711C788.41 648.549 788.351 648.393 788.251 648.264C788.152 648.135 788.017 648.038 787.863 647.985C787.709 647.931 787.543 647.924 787.385 647.964C787.227 648.003 787.084 648.088 786.974 648.208C786.864 648.327 786.79 648.477 786.764 648.637C786.737 648.798 786.757 648.963 786.823 649.112C786.889 649.261 786.996 649.388 787.133 649.476C787.269 649.565 787.429 649.612 787.592 649.611C787.705 649.607 787.817 649.581 787.921 649.533C788.024 649.486 788.117 649.418 788.195 649.334C788.272 649.251 788.332 649.152 788.371 649.046C788.41 648.939 788.428 648.825 788.423 648.711V648.711Z" fill="#1100A5"/>
<path d="M800.586 644.065C800.574 643.902 800.514 643.747 800.415 643.618C800.315 643.489 800.18 643.392 800.027 643.339C799.873 643.285 799.707 643.278 799.549 643.317C799.391 643.357 799.248 643.442 799.137 643.561C799.027 643.681 798.954 643.83 798.927 643.991C798.9 644.151 798.921 644.316 798.986 644.466C799.052 644.615 799.16 644.741 799.296 644.83C799.433 644.919 799.592 644.966 799.755 644.965C799.869 644.961 799.981 644.934 800.084 644.887C800.188 644.839 800.281 644.772 800.358 644.688C800.435 644.604 800.495 644.506 800.534 644.399C800.574 644.292 800.591 644.179 800.586 644.065V644.065Z" fill="#1100A5"/>
<path d="M781.596 620.403C784.847 624.985 786.589 630.473 787.697 635.982C787.889 636.936 788.448 638.166 789.397 637.948C790.105 637.788 790.335 636.909 790.404 636.184C790.721 632.646 790.248 629.08 789.019 625.747C786.951 620.158 781.943 612.08 776.828 608.761C773.754 606.763 775.299 610.977 776.14 612.725C777.499 615.565 779.79 617.856 781.596 620.403Z" fill="#3BA0E6"/>
<path d="M808.717 631.139C810.678 628.606 812.406 625.901 813.88 623.056C815.798 619.087 816.783 614.585 819.57 611.164C819.681 611.001 819.839 610.876 820.023 610.807C820.132 610.791 820.243 610.798 820.348 610.828C820.454 610.859 820.552 610.911 820.636 610.983C821.978 611.921 821.85 613.913 821.552 615.528C820.678 620.169 819.554 624.804 817.519 629.066C815.483 633.329 812.473 637.229 808.461 639.723C806.793 640.751 803.335 641.204 803.666 638.231C803.921 636.148 807.491 632.828 808.717 631.139Z" fill="#3BA0E6"/>
<path d="M828.282 665.239C829.88 665.521 831.633 665.676 832.96 666.651C834.286 667.626 834.899 669.794 833.69 670.913C832.896 671.638 831.697 671.633 830.621 671.558C825.122 671.185 819.576 670.173 814.636 667.669C811.263 665.995 808.34 663.538 806.111 660.502C804.939 658.845 801.098 652.872 805.946 654.38C809.58 655.51 813.235 658.984 816.602 660.833C820.289 662.831 824.152 664.525 828.282 665.239Z" fill="#3BA0E6"/>
<path d="M782.177 688.011C782.177 689.769 782.31 691.629 783.275 693.105C783.513 693.525 783.89 693.849 784.34 694.021C785.523 694.362 786.44 692.987 786.85 691.826C788.342 687.563 788.869 683.024 789.386 678.506L790.958 664.892C791.123 664.054 791.087 663.188 790.851 662.367C789.535 658.84 787.697 663.166 787.122 664.498C783.827 671.9 782.145 679.919 782.188 688.022L782.177 688.011Z" fill="#3BA0E6"/>
<path d="M777.59 648.839C768.378 649.478 760.285 655.004 753.081 660.774C751.253 662.234 749.293 664.024 749.234 666.363C749.234 666.955 749.485 667.695 750.076 667.727C750.333 667.712 750.58 667.625 750.79 667.477C757.466 663.523 763.045 657.588 770.344 654.993C773.738 653.789 777.409 653.347 780.622 651.722C784.805 649.596 779.444 648.706 777.59 648.839Z" fill="#3BA0E6"/>
<path d="M767.723 688.352L776.099 680.552" stroke="#1100A5" stroke-linejoin="round"/>
<path d="M819.421 645.157L815.729 648.125" stroke="#1100A5" stroke-linejoin="round"/>
<path d="M791.752 762.04C791.752 762.04 812.249 735.975 803.351 671.585C803.351 671.585 812.175 693.712 808.541 720.177C804.907 746.642 797.549 759.813 797.549 759.813C797.549 759.813 793.579 762.242 791.752 762.04Z" fill="#085246"/>
</svg>
