<svg width="637" height="528" viewBox="0 0 637 528" fill="none" xmlns="http://www.w3.org/2000/svg">
<path d="M485.789 172.155L480.571 95.0494C480.571 95.0494 477.389 66.5696 497.856 65.9036C516.155 65.3024 540.541 65.8828 540.541 65.8828L537.736 87.9747L514.38 87.4836C512.368 87.6 509.769 87.9706 508.009 88.9523C506.25 89.934 505.015 91.4761 503.86 93.1264C501.433 96.4317 502.001 102.636 503.018 107.306C504.729 115.16 511.553 172.441 511.553 172.441L485.789 172.155Z" fill="white"/>
<path d="M502.665 102.392L503.314 107.765C491.249 117.36 480.773 108.776 480.773 108.776C480.474 103.746 480.215 99.1133 479.998 95.2629C479.896 93.2129 479.895 91.2876 479.979 89.506C480.421 90.0431 490.572 102.115 503.527 94.4923C502.695 97.0377 502.402 99.7279 502.665 102.392V102.392Z" fill="#FF532B"/>
<path d="M540.041 65.2824C542.276 65.4232 541.538 77.681 541.538 77.681C541.105 84.8019 539.118 86.8645 537.701 87.3951C530.896 75.3721 540.041 65.2824 540.041 65.2824Z" fill="#272B71"/>
<path d="M516.673 65.1947C516.255 69.4816 516.914 73.8048 518.589 77.7728C520.265 81.7409 522.905 85.2284 526.27 87.9197C522.355 87.8448 517.696 87.8512 512.979 88.0101C511.724 88.0367 510.482 88.2706 509.303 88.7023C499.598 81.6056 501.638 67.0104 501.732 65.6556C506.381 65.2909 511.61 65.1815 516.673 65.1947Z" fill="#FF532B"/>
<path d="M505.626 129.384L508.176 149.939C495.511 160.026 483.841 153.254 483.256 152.948C482.795 146.081 482.249 138.086 481.738 130.026C481.735 130.001 493.095 140.233 505.626 129.384Z" fill="#FF532B"/>
<path d="M510.048 172.313C510.489 172.422 510.932 172.549 511.376 172.675L503.203 107.769L502.557 102.413C502.557 102.413 500.857 88.336 512.712 87.9226C517.412 87.7658 522.114 87.7627 526.011 87.8313C532.022 87.9611 536.217 88.1562 536.217 88.1562C536.7 88.2752 537.208 88.2378 537.668 88.0493C539.078 87.5197 541.064 85.4571 541.496 78.3279C541.496 78.3279 542.235 66.0784 540 65.9376C540 65.9376 528.677 65.1571 516.415 65.1062C511.351 65.093 506.148 65.1994 501.488 65.5482C497.999 65.7481 494.535 66.261 491.138 67.0806C491.138 67.0806 480.772 70.6087 479.902 89.5059" stroke="#030D78" stroke-miterlimit="10"/>
<path d="M479.921 89.5209C479.836 91.3026 479.846 93.2268 479.94 95.2779C480.133 99.1482 480.393 103.781 480.715 108.791C481.093 115.326 481.522 122.565 482.01 129.728C482.519 137.771 483.04 145.769 483.511 152.652C484.284 164.231 484.873 172.581 484.873 172.581C484.873 172.581 485.589 172.409 486.854 172.179C491.042 171.391 501.1 169.997 510.1 172.324" stroke="#030D78" stroke-miterlimit="10"/>
<path d="M539.974 65.9411C539.974 65.9411 530.828 76.0224 537.643 88.0528" stroke="#030D78" stroke-miterlimit="10"/>
<path d="M516.372 65.1114C515.953 69.3984 516.611 73.7218 518.287 77.69C519.963 81.6582 522.603 85.1457 525.969 87.8364" stroke="#030D78" stroke-miterlimit="10"/>
<path d="M501.468 65.4564C501.463 65.4878 501.467 65.5198 501.479 65.5492C501.312 66.93 499.815 82.4115 509.185 88.5795" stroke="#030D78" stroke-miterlimit="10"/>
<path d="M479.919 89.5044C480.344 90.0436 490.236 102.592 503.459 94.2778" stroke="#030D78" stroke-miterlimit="10"/>
<path d="M480.647 108.799C480.647 108.799 491.108 117.402 503.205 107.786" stroke="#030D78" stroke-miterlimit="10"/>
<path d="M481.943 129.736C481.943 129.736 493.2 140.255 505.794 129.218" stroke="#030D78" stroke-miterlimit="10"/>
<path d="M483.44 152.626C483.44 152.626 495.246 160.032 508.259 149.629" stroke="#030D78" stroke-miterlimit="10"/>
<path d="M593.54 295.513C599.185 287.857 605.025 329.408 602.809 338.293C602.809 338.293 586.974 339.795 583.087 345.194L582.485 341.843C581.576 336.091 580.02 326.892 577.782 315.669L577.75 315.399C577.75 315.399 587.892 303.144 593.54 295.513Z" fill="#9CFF3F"/>
<path d="M592.258 377.237C592.258 377.237 592.698 380.102 593.356 384.344C589.439 381.844 585.981 378.69 583.134 375.019C585.229 376.623 588.444 377.356 592.258 377.237Z" fill="#FF334A"/>
<path d="M574.978 260.82C574.978 260.82 588.976 278.008 575.991 306.66L575.632 305.172C573.334 294.59 570.531 282.794 567.19 270.729L567.156 270.451C567.156 270.451 571.009 265.407 574.978 260.82Z" fill="#9CFF3F"/>
<path d="M582.663 342.181C582.879 343.55 583.069 344.7 583.204 345.676C581.896 349.275 580.859 352.968 580.102 356.722C578.808 360.977 578.134 366.313 580.294 371.152C580.666 372.355 581.324 373.451 582.213 374.343L579.376 374.686C579.376 374.686 469.623 319.421 426.087 305.801C426.924 294.358 428.361 282.967 430.394 271.675L430.459 271.368C431.166 267.859 437.897 235.298 447.441 213.402C447.496 213.293 447.527 213.195 447.582 213.086C449.214 209.577 450.952 206.167 452.828 202.902C454.537 199.921 456.398 197.028 458.402 194.236C465.604 184.227 474.362 176.392 485.028 172.511C485.028 172.511 498.36 166.858 511.462 172.536C537.482 183.813 555.707 229.192 567.323 271.047L575.766 305.498C576.53 309.06 577.236 312.492 577.86 315.745L577.893 316.024L582.663 342.181ZM568.462 284.952C568.406 284.473 568.255 284.01 568.019 283.59C567.782 283.169 567.465 282.8 567.085 282.502C566.706 282.204 566.271 281.985 565.806 281.856C565.341 281.726 564.855 281.69 564.376 281.749C563.409 281.868 562.529 282.365 561.929 283.13C561.328 283.895 561.054 284.867 561.169 285.833C561.287 286.798 561.784 287.676 562.55 288.275C563.316 288.874 564.289 289.145 565.255 289.028C565.733 288.971 566.196 288.821 566.616 288.585C567.037 288.35 567.407 288.034 567.705 287.655C568.003 287.276 568.223 286.843 568.353 286.379C568.483 285.915 568.52 285.43 568.462 284.952ZM566.98 347.498C568.196 347.384 569.317 346.791 570.096 345.852C570.876 344.912 571.25 343.702 571.137 342.487C571.049 341.888 570.844 341.313 570.533 340.793C570.223 340.274 569.813 339.821 569.327 339.46C568.841 339.099 568.289 338.837 567.702 338.69C567.115 338.542 566.504 338.512 565.905 338.6C565.303 338.657 564.718 338.832 564.183 339.115C563.648 339.398 563.175 339.784 562.79 340.25C562.404 340.716 562.115 341.254 561.938 341.832C561.761 342.41 561.7 343.017 561.758 343.619C561.941 344.821 562.593 345.9 563.571 346.623C564.549 347.345 565.774 347.651 566.977 347.473L566.98 347.498ZM541.611 231.545C541.492 230.58 540.995 229.702 540.229 229.103C539.463 228.504 538.491 228.233 537.525 228.35C536.56 228.466 535.681 228.961 535.081 229.725C534.481 230.489 534.209 231.46 534.326 232.424C534.442 233.389 534.937 234.269 535.702 234.869C536.466 235.47 537.438 235.743 538.404 235.629C539.37 235.51 540.25 235.013 540.851 234.248C541.452 233.483 541.725 232.511 541.611 231.545ZM545.411 310.67C546.013 310.614 546.597 310.439 547.131 310.156C547.666 309.874 548.139 309.489 548.524 309.024C548.909 308.558 549.199 308.022 549.377 307.444C549.554 306.867 549.616 306.261 549.559 305.66C549.473 305.061 549.269 304.486 548.959 303.967C548.65 303.447 548.241 302.994 547.755 302.633C547.27 302.272 546.718 302.01 546.132 301.862C545.545 301.714 544.935 301.684 544.336 301.772C543.735 301.83 543.15 302.005 542.617 302.289C542.083 302.573 541.611 302.958 541.226 303.424C540.842 303.89 540.553 304.428 540.377 305.005C540.2 305.583 540.139 306.189 540.197 306.79C540.37 307.993 541.011 309.078 541.982 309.809C542.953 310.54 544.175 310.857 545.379 310.691L545.411 310.67ZM521.37 194.582C521.254 193.618 520.759 192.739 519.994 192.14C519.23 191.541 518.258 191.269 517.293 191.386C516.814 191.443 516.351 191.593 515.931 191.829C515.511 192.064 515.141 192.38 514.843 192.759C514.545 193.138 514.325 193.571 514.195 194.035C514.065 194.499 514.027 194.983 514.085 195.462C514.142 195.941 514.293 196.404 514.529 196.824C514.765 197.244 515.082 197.614 515.462 197.912C515.842 198.209 516.277 198.429 516.742 198.558C517.207 198.688 517.693 198.724 518.172 198.665C519.128 198.538 519.995 198.041 520.588 197.281C521.18 196.521 521.45 195.559 521.339 194.603L521.37 194.582ZM513.18 268.609C514.394 268.49 515.512 267.895 516.288 266.954C517.063 266.014 517.435 264.804 517.319 263.591C517.14 262.387 516.491 261.303 515.514 260.575C514.537 259.848 513.312 259.537 512.106 259.711C510.89 259.825 509.769 260.417 508.99 261.357C508.21 262.297 507.836 263.507 507.949 264.722C508.121 265.926 508.763 267.012 509.734 267.744C510.705 268.477 511.926 268.796 513.132 268.632L513.18 268.609ZM506.662 332.225C506.469 330.862 505.742 329.631 504.642 328.801C503.542 327.972 502.158 327.612 500.792 327.8C500.112 327.868 499.452 328.07 498.85 328.393C498.248 328.717 497.715 329.155 497.283 329.684C496.85 330.213 496.526 330.822 496.33 331.477C496.133 332.131 496.067 332.817 496.136 333.496C496.231 334.173 496.458 334.824 496.805 335.412C497.152 336.001 497.611 336.515 498.157 336.926C498.703 337.337 499.325 337.636 499.987 337.807C500.648 337.978 501.337 338.016 502.014 337.921C503.385 337.778 504.644 337.099 505.515 336.032C506.386 334.964 506.799 333.596 506.662 332.225ZM492.763 226.773C492.581 225.567 491.929 224.481 490.949 223.755C489.968 223.028 488.74 222.719 487.532 222.895C486.93 222.951 486.346 223.126 485.812 223.408C485.277 223.691 484.804 224.076 484.419 224.541C484.034 225.007 483.744 225.543 483.566 226.12C483.389 226.698 483.327 227.304 483.384 227.905C483.47 228.504 483.674 229.079 483.984 229.598C484.293 230.118 484.703 230.571 485.188 230.932C485.673 231.293 486.225 231.555 486.811 231.703C487.398 231.85 488.008 231.881 488.607 231.793C489.822 231.674 490.94 231.079 491.717 230.138C492.494 229.198 492.867 227.988 492.754 226.774L492.763 226.773ZM479.152 192.868C480.366 192.75 481.483 192.156 482.26 191.217C483.037 190.279 483.411 189.071 483.301 187.858C483.214 187.259 483.01 186.684 482.701 186.165C482.391 185.645 481.982 185.192 481.497 184.831C481.012 184.47 480.46 184.208 479.873 184.06C479.286 183.913 478.676 183.882 478.078 183.97C477.475 184.027 476.889 184.202 476.354 184.485C475.819 184.768 475.345 185.154 474.959 185.62C474.573 186.086 474.283 186.624 474.105 187.202C473.927 187.78 473.865 188.388 473.922 188.99C474.103 190.195 474.754 191.279 475.732 192.006C476.711 192.732 477.937 193.043 479.144 192.87L479.152 192.868ZM479.159 293.846C479.066 293.169 478.841 292.518 478.495 291.929C478.149 291.34 477.69 290.825 477.145 290.414C476.599 290.002 475.978 289.703 475.316 289.533C474.654 289.362 473.965 289.324 473.289 289.42C471.916 289.561 470.655 290.24 469.782 291.308C468.909 292.375 468.496 293.745 468.632 295.117C468.826 296.482 469.554 297.714 470.656 298.544C471.758 299.373 473.144 299.732 474.511 299.542C475.881 299.402 477.139 298.724 478.009 297.658C478.879 296.592 479.29 295.224 479.152 293.855L479.159 293.846ZM453.85 263.708C453.658 262.344 452.932 261.111 451.832 260.281C450.731 259.452 449.346 259.092 447.98 259.282C446.608 259.423 445.348 260.102 444.476 261.17C443.605 262.238 443.193 263.607 443.332 264.978C443.525 266.342 444.252 267.573 445.352 268.402C446.452 269.231 447.837 269.592 449.202 269.404C450.573 269.261 451.832 268.582 452.703 267.514C453.574 266.447 453.986 265.078 453.85 263.708Z" fill="#FF532B"/>
<path d="M565.006 289.315C567.021 289.072 568.456 287.243 568.213 285.231C567.97 283.218 566.14 281.784 564.126 282.027C562.112 282.271 560.677 284.099 560.92 286.111C561.163 288.124 562.992 289.558 565.006 289.315Z" fill="#01FF9D"/>
<path d="M570.983 342.137C571.096 343.353 570.723 344.564 569.944 345.505C569.164 346.446 568.044 347.04 566.827 347.157C566.229 347.246 565.619 347.215 565.032 347.067C564.445 346.919 563.894 346.658 563.408 346.296C562.923 345.935 562.514 345.482 562.205 344.963C561.895 344.443 561.691 343.868 561.604 343.27C561.547 342.669 561.609 342.062 561.787 341.485C561.965 340.908 562.254 340.371 562.64 339.906C563.025 339.44 563.498 339.056 564.032 338.773C564.566 338.49 565.151 338.316 565.753 338.259C566.961 338.083 568.189 338.392 569.169 339.119C570.15 339.846 570.802 340.931 570.983 342.137Z" fill="#01FF9D"/>
<path d="M538.169 235.879C540.183 235.636 541.618 233.807 541.375 231.795C541.132 229.783 539.303 228.349 537.288 228.592C535.274 228.835 533.839 230.664 534.082 232.676C534.325 234.688 536.154 236.122 538.169 235.879Z" fill="#01FF9D"/>
<path d="M545.535 311.057C548.117 310.745 549.971 308.502 549.675 306.047C549.378 303.592 547.044 301.855 544.461 302.167C541.878 302.479 540.025 304.722 540.321 307.177C540.617 309.632 542.952 311.369 545.535 311.057Z" fill="#01FF9D"/>
<path d="M517.927 199.268C519.941 199.025 521.377 197.196 521.134 195.184C520.891 193.171 519.061 191.737 517.047 191.98C515.033 192.224 513.597 194.052 513.84 196.065C514.083 198.077 515.913 199.511 517.927 199.268Z" fill="#01FF9D"/>
<path d="M517.126 263.768C517.239 264.983 516.866 266.192 516.089 267.133C515.312 268.073 514.194 268.668 512.979 268.787C511.769 268.963 510.54 268.653 509.559 267.925C508.578 267.196 507.927 266.109 507.747 264.901C507.637 263.686 508.012 262.477 508.791 261.538C509.57 260.599 510.689 260.006 511.904 259.889C513.111 259.716 514.337 260.026 515.316 260.753C516.294 261.48 516.945 262.564 517.126 263.768V263.768Z" fill="#01FF9D"/>
<path d="M500.627 327.494C501.303 327.399 501.992 327.438 502.654 327.609C503.316 327.779 503.938 328.079 504.484 328.49C505.03 328.901 505.489 329.415 505.836 330.003C506.183 330.592 506.41 331.243 506.505 331.919C506.642 333.291 506.228 334.661 505.355 335.729C504.483 336.797 503.222 337.475 501.849 337.616C500.483 337.806 499.098 337.447 497.997 336.617C496.896 335.787 496.17 334.555 495.978 333.19C495.908 332.511 495.972 331.825 496.167 331.17C496.363 330.516 496.686 329.906 497.118 329.377C497.55 328.848 498.082 328.409 498.684 328.086C499.286 327.763 499.946 327.562 500.627 327.494V327.494Z" fill="#01FF9D"/>
<path d="M487.135 222.942C488.343 222.766 489.572 223.076 490.552 223.802C491.532 224.529 492.184 225.614 492.366 226.82C492.479 228.036 492.105 229.247 491.326 230.188C490.547 231.129 489.426 231.723 488.21 231.84C487.611 231.929 487.001 231.898 486.414 231.75C485.828 231.603 485.276 231.341 484.791 230.98C484.306 230.618 483.897 230.165 483.587 229.646C483.277 229.126 483.073 228.551 482.987 227.953C482.93 227.352 482.992 226.745 483.169 226.168C483.347 225.591 483.637 225.054 484.022 224.589C484.407 224.124 484.88 223.739 485.415 223.456C485.949 223.173 486.533 222.999 487.135 222.942V222.942Z" fill="#01FF9D"/>
<path d="M482.968 188.009C483.08 189.221 482.708 190.429 481.932 191.368C481.156 192.307 480.04 192.9 478.828 193.019C477.62 193.195 476.391 192.886 475.411 192.159C474.431 191.432 473.779 190.347 473.597 189.141C473.54 188.539 473.602 187.931 473.78 187.353C473.958 186.775 474.248 186.237 474.634 185.771C475.02 185.305 475.494 184.919 476.029 184.636C476.564 184.353 477.15 184.178 477.753 184.121C478.351 184.034 478.96 184.065 479.546 184.214C480.132 184.362 480.683 184.624 481.167 184.985C481.651 185.347 482.059 185.799 482.368 186.318C482.677 186.837 482.881 187.412 482.968 188.009V188.009Z" fill="#01FF9D"/>
<path d="M473.103 289.802C473.78 289.707 474.468 289.746 475.13 289.917C475.791 290.088 476.412 290.387 476.957 290.798C477.503 291.21 477.961 291.724 478.307 292.312C478.653 292.901 478.88 293.552 478.974 294.228C479.043 294.907 478.979 295.593 478.783 296.247C478.587 296.901 478.263 297.51 477.832 298.039C477.4 298.568 476.868 299.007 476.266 299.33C475.665 299.654 475.005 299.855 474.326 299.924C472.959 300.114 471.573 299.755 470.471 298.926C469.369 298.096 468.641 296.864 468.447 295.499C468.31 294.127 468.724 292.757 469.597 291.689C470.47 290.622 471.731 289.943 473.103 289.802Z" fill="#01FF9D"/>
<path d="M447.853 258.946C449.219 258.756 450.605 259.116 451.705 259.945C452.806 260.775 453.532 262.008 453.724 263.372C453.862 264.743 453.451 266.113 452.579 267.181C451.707 268.249 450.447 268.927 449.076 269.068C448.399 269.163 447.71 269.124 447.048 268.954C446.386 268.783 445.764 268.483 445.219 268.073C444.673 267.662 444.213 267.147 443.866 266.559C443.519 265.971 443.292 265.32 443.197 264.643C443.128 263.964 443.194 263.277 443.391 262.623C443.588 261.969 443.912 261.36 444.344 260.831C444.776 260.302 445.309 259.863 445.911 259.54C446.513 259.217 447.173 259.015 447.853 258.946Z" fill="#01FF9D"/>
<path d="M627.361 336.569C627.361 336.569 637.263 334.518 627.374 354.616C620.288 368.992 603.659 376.897 592.257 377.238C588.443 377.356 585.228 376.624 583.133 375.02C582.756 374.733 582.409 374.407 582.099 374.049C581.329 373.069 580.685 371.997 580.181 370.858C579.239 368.233 578.567 363.736 579.987 356.419C581.398 351.79 581.977 348.777 581.977 348.777C582.396 348.325 582.713 347.787 582.904 347.201C583.095 346.615 583.156 345.995 583.083 345.383C583.077 345.332 583.119 345.258 583.148 345.212C583.176 345.166 585.391 340.457 606.246 338.743C616.776 337.856 627.361 336.569 627.361 336.569Z" fill="#9CFF3F"/>
<path d="M581.556 372.035C581.556 372.035 604.082 362.392 630.636 338.724" stroke="#030D78" stroke-miterlimit="10"/>
<path d="M609.062 355.826L616.468 356.788" stroke="#030D78" stroke-miterlimit="10"/>
<path d="M602.777 360.093L611.927 361.598" stroke="#030D78" stroke-miterlimit="10"/>
<path d="M595.347 352.108L592.617 366.309" stroke="#030D78" stroke-miterlimit="10"/>
<path d="M583.251 344.438C583.251 344.438 590.044 327.709 597.12 296.159" stroke="#030D78" stroke-miterlimit="10"/>
<path d="M591.222 319.729L593.752 318.199" stroke="#030D78" stroke-miterlimit="10"/>
<path d="M589.442 325.916L592.591 324.329" stroke="#030D78" stroke-miterlimit="10"/>
<path d="M586.389 320.697L586.512 335.264" stroke="#030D78" stroke-miterlimit="10"/>
<path d="M582.023 374.683L579.186 375.026C579.186 375.026 542.162 356.392 502.597 338.065C500.504 337.097 498.404 336.132 496.295 335.172C469.727 322.977 442.815 311.414 425.894 306.115C425.894 306.115 425.966 305.011 426.126 303.006" stroke="#030D78" stroke-miterlimit="10"/>
<path d="M575.827 306.86C576.489 310.066 577.125 313.138 577.691 316.048C579.512 325.318 580.863 333.096 581.732 338.52C582.347 342.339 582.745 344.995 582.909 346.208C582.968 346.697 582.998 346.95 582.998 346.95C582.998 346.95 575.453 362.837 582.02 374.666" stroke="#030D78" stroke-miterlimit="10"/>
<path d="M426.116 302.999C427.645 284.304 437.855 187.433 486.779 172.12C489.701 171.204 492.71 170.594 495.758 170.299C500.602 169.816 505.492 170.49 510.024 172.265C536.841 182.547 555.381 228.692 567.106 270.954C570.574 283.499 573.444 295.707 575.736 306.529" stroke="#030D78" stroke-miterlimit="10"/>
<path d="M453.657 264.023C453.463 262.659 452.736 261.428 451.636 260.599C450.536 259.769 449.152 259.409 447.786 259.597C446.415 259.74 445.157 260.419 444.285 261.486C443.414 262.554 443.002 263.922 443.138 265.293C443.332 266.656 444.059 267.887 445.159 268.717C446.259 269.546 447.643 269.906 449.009 269.718C450.379 269.576 451.638 268.896 452.509 267.829C453.38 266.762 453.793 265.393 453.657 264.023V264.023Z" stroke="#030D78" stroke-miterlimit="10"/>
<path d="M478.943 294.189C478.851 293.513 478.625 292.861 478.279 292.272C477.933 291.683 477.475 291.168 476.929 290.757C476.384 290.346 475.762 290.046 475.1 289.876C474.439 289.705 473.75 289.667 473.073 289.763C471.701 289.904 470.441 290.583 469.569 291.651C468.698 292.719 468.286 294.089 468.425 295.459C468.619 296.823 469.345 298.054 470.445 298.883C471.545 299.713 472.93 300.073 474.295 299.885C475.667 299.744 476.927 299.066 477.799 297.998C478.67 296.93 479.082 295.56 478.943 294.189V294.189Z" stroke="#030D78" stroke-miterlimit="10"/>
<path d="M502.591 338.091C503.789 337.782 504.836 337.054 505.542 336.039C506.248 335.024 506.566 333.79 506.437 332.56C506.243 331.197 505.517 329.966 504.417 329.137C503.317 328.307 501.932 327.947 500.567 328.135C499.887 328.203 499.227 328.405 498.625 328.728C498.022 329.052 497.49 329.491 497.058 330.02C496.625 330.549 496.301 331.158 496.104 331.812C495.907 332.466 495.842 333.152 495.91 333.832C495.964 334.304 496.092 334.765 496.289 335.198C496.753 336.234 497.541 337.092 498.534 337.643C499.527 338.194 500.672 338.409 501.798 338.255C502.067 338.225 502.332 338.17 502.591 338.091V338.091Z" stroke="#030D78" stroke-miterlimit="10"/>
<path d="M492.537 227.108C492.356 225.902 491.704 224.817 490.724 224.09C489.743 223.363 488.515 223.054 487.307 223.23C486.705 223.286 486.121 223.461 485.587 223.744C485.052 224.026 484.579 224.411 484.194 224.876C483.809 225.342 483.519 225.878 483.341 226.456C483.164 227.033 483.102 227.639 483.159 228.24C483.245 228.839 483.449 229.414 483.759 229.933C484.068 230.453 484.477 230.906 484.963 231.267C485.448 231.628 486 231.89 486.586 232.038C487.173 232.186 487.783 232.216 488.382 232.128C489.598 232.011 490.719 231.417 491.498 230.476C492.277 229.535 492.651 228.324 492.537 227.108V227.108Z" stroke="#030D78" stroke-miterlimit="10"/>
<path d="M517.054 263.948C516.875 262.744 516.226 261.659 515.249 260.932C514.272 260.205 513.046 259.894 511.84 260.068C510.624 260.182 509.504 260.774 508.724 261.714C507.945 262.654 507.57 263.864 507.683 265.079C507.771 265.678 507.976 266.253 508.287 266.773C508.597 267.292 509.007 267.745 509.493 268.106C509.979 268.467 510.531 268.729 511.118 268.876C511.705 269.024 512.316 269.054 512.915 268.966C514.129 268.847 515.246 268.252 516.022 267.311C516.798 266.371 517.169 265.161 517.054 263.948V263.948Z" stroke="#030D78" stroke-miterlimit="10"/>
<path d="M545.162 311.017C547.744 310.705 549.598 308.462 549.301 306.007C549.005 303.552 546.671 301.815 544.088 302.127C541.505 302.439 539.651 304.682 539.948 307.137C540.244 309.592 542.579 311.329 545.162 311.017Z" stroke="#030D78" stroke-miterlimit="10"/>
<path d="M570.917 342.795C570.829 342.197 570.624 341.622 570.314 341.102C570.003 340.583 569.593 340.13 569.107 339.769C568.622 339.408 568.069 339.146 567.482 338.999C566.895 338.851 566.284 338.821 565.685 338.909C565.083 338.966 564.498 339.141 563.963 339.424C563.428 339.707 562.955 340.093 562.57 340.559C562.184 341.025 561.895 341.563 561.718 342.141C561.541 342.719 561.48 343.326 561.538 343.928C561.626 344.526 561.83 345.1 562.14 345.618C562.45 346.137 562.859 346.589 563.344 346.949C563.829 347.309 564.381 347.57 564.967 347.718C565.553 347.865 566.162 347.895 566.76 347.807C567.976 347.693 569.097 347.1 569.876 346.161C570.656 345.221 571.03 344.011 570.917 342.795Z" stroke="#030D78" stroke-miterlimit="10"/>
<path d="M483.076 188.193C482.989 187.595 482.785 187.019 482.475 186.5C482.166 185.981 481.757 185.527 481.272 185.166C480.786 184.805 480.235 184.543 479.648 184.395C479.061 184.248 478.451 184.217 477.853 184.305C477.25 184.362 476.664 184.537 476.129 184.82C475.594 185.103 475.12 185.489 474.734 185.955C474.348 186.422 474.058 186.959 473.88 187.537C473.702 188.116 473.64 188.723 473.697 189.326C473.878 190.532 474.53 191.617 475.511 192.343C476.491 193.07 477.719 193.38 478.927 193.204C480.141 193.085 481.258 192.491 482.035 191.552C482.812 190.614 483.186 189.406 483.076 188.193V188.193Z" stroke="#030D78" stroke-miterlimit="10"/>
<path d="M517.923 199.02C519.938 198.777 521.373 196.948 521.13 194.936C520.887 192.923 519.057 191.489 517.043 191.732C515.029 191.976 513.593 193.804 513.837 195.817C514.08 197.829 515.909 199.263 517.923 199.02Z" stroke="#030D78" stroke-miterlimit="10"/>
<path d="M538.153 235.967C540.168 235.724 541.603 233.895 541.36 231.883C541.117 229.871 539.287 228.436 537.273 228.68C535.259 228.923 533.823 230.751 534.066 232.764C534.31 234.776 536.139 236.21 538.153 235.967Z" stroke="#030D78" stroke-miterlimit="10"/>
<path d="M565.035 289.337C567.049 289.093 568.485 287.265 568.242 285.253C567.999 283.24 566.169 281.806 564.155 282.049C562.141 282.293 560.705 284.121 560.948 286.133C561.191 288.146 563.021 289.58 565.035 289.337Z" stroke="#030D78" stroke-miterlimit="10"/>
<path d="M575.759 306.578L567.055 271.105C567.084 271.074 567.108 271.04 567.128 271.002C567.721 270.238 571.296 265.656 574.915 261.505C574.915 261.505 588.907 278.641 575.927 307.336L575.872 306.881L575.759 306.578Z" stroke="#030D78" stroke-miterlimit="10"/>
<path d="M583.044 345.841L581.735 338.545L577.693 316.073C577.693 316.073 587.827 303.819 593.476 296.197C599.125 288.574 604.819 329.057 602.808 338.644" stroke="#030D78" stroke-miterlimit="10"/>
<path d="M594.508 340.34C590.033 341.368 585.036 343.11 583.059 345.822" stroke="#030D78" stroke-miterlimit="10"/>
<path d="M594.582 340.314C597.272 339.526 600.022 338.957 602.804 338.611C605.058 338.326 607.326 338.164 609.597 338.124C615.727 338.025 621.829 337.288 627.806 335.925C627.806 335.925 637.141 335.208 627.273 355.269C620.188 369.654 603.567 377.549 592.157 377.892C587.634 378.027 583.945 376.984 581.98 374.688C581.523 374.307 575.094 368.306 582.897 346.252L583.029 345.859C583.325 345.61 587.015 342.554 594.478 340.378" stroke="#030D78" stroke-miterlimit="10"/>
<path d="M592.195 377.93C592.195 377.93 592.637 380.804 593.302 385.036" stroke="#030D78" stroke-miterlimit="10"/>
<g clip-path="url(#clip0_1_12110)">
<path d="M152.295 123.033C139.135 87.0272 119.649 48.2624 91.7845 22.9735C64.5308 -1.77345 30.4083 -3.25166 0.000100824 3.37544V527.754C35.0043 528.986 74.2478 525.512 117.749 513.33C235.498 480.317 221.608 459.13 221.608 459.13C221.608 459.13 300.164 465.634 328.724 442.624C357.759 419.22 305.998 216.305 241.078 150.293C208.838 117.477 176.598 116.11 152.295 123.033Z" fill="#9525FF"/>
<path opacity="0.1" d="M221.608 459.105C221.608 459.105 300.164 465.609 328.724 442.599C333.812 438.473 336.458 428.754 336.916 415.179C295.959 430.269 237.889 436.859 216.588 421.338C183.619 342.959 167.135 185.115 167.135 185.115C167.135 185.115 177.633 379.974 156.654 415.894C142.29 440.53 54.1514 443.646 0.000102622 443.19V527.741C35.0043 528.973 74.2478 525.499 117.749 513.317C235.498 480.317 221.608 459.105 221.608 459.105Z" fill="#F5F5F5"/>
<path d="M206.107 422.435C198.611 411.546 215.096 442.033 185.129 471.424C162.624 493.473 53.2188 507.552 0.000211926 513.219V527.754C35.0044 528.986 74.2479 525.512 117.749 513.329C235.498 480.317 221.608 459.13 221.608 459.13L223.542 459.266C221.812 443.659 210.652 429.037 206.107 422.435Z" fill="#9525FF"/>
<path opacity="0.3" d="M139.236 289.634C147.716 289.634 146.665 168.535 133.928 111.453C121.192 54.3717 75.5037 -1.94626 7.54747 8.08062L0.000215159 9.20145V22.3448C17.4345 20.7558 43.9582 22.3448 67.0229 40.4893C105.249 70.5699 117.902 160.824 124.364 204.787C130.825 248.75 130.739 289.634 139.236 289.634Z" fill="#F5F5F5"/>
<path opacity="0.1" d="M78.7079 87.1627C78.7079 87.1627 15.7707 77.3082 24.7592 160.098C33.7477 242.887 80.2176 273.3 69.7198 330.998C59.2219 388.696 132.673 406.138 141.661 326.638C150.65 247.137 157.433 98.0518 78.7079 87.1627Z" fill="#F5F5F5"/>
<path opacity="0.3" d="M160.47 138.455C160.47 138.455 188.08 133.047 219.946 161.588C251.813 190.129 273.046 261.093 278.354 268.755C283.663 276.417 283.663 257.952 269.875 215.529C256.087 173.105 224.203 138.393 194.473 127.59C164.743 116.787 155.162 132.283 160.47 138.455Z" fill="#F5F5F5"/>
<path opacity="0.1" d="M248.065 187.308C248.065 187.308 209.194 170.9 212.145 226.455C215.096 282.009 252.05 309.527 259.055 334.952C266.059 360.376 290.039 400.669 314.003 388.683C337.967 376.698 291.532 225.42 248.065 187.308Z" fill="#F5F5F5"/>
</g>
<defs>
<clipPath id="clip0_1_12110">
<rect width="337" height="528" fill="white" transform="matrix(-1 0 0 1 337 0)"/>
</clipPath>
</defs>
</svg>
