<svg width="1409" height="424" viewBox="0 0 1409 424" fill="none" xmlns="http://www.w3.org/2000/svg">
<path d="M560.929 191.285C560.929 191.285 524.59 173.297 523.629 208.256C523.344 218.626 532.086 226.541 542.398 227.669C571.079 230.808 631.377 234.55 687.915 219.801C700.903 216.413 707.976 201.662 698.198 192.466C690.208 184.952 678.141 180.437 661.182 190.57C661.182 190.57 664.151 166.662 632.667 162.714C631.153 162.522 629.63 162.414 628.105 162.388C601.684 161.954 605.934 189.977 605.934 189.977C605.934 189.977 582.547 163.943 560.929 191.285Z" fill="#FCCCF4"/>
<path d="M1248.03 371.608C1248.65 372.006 1249.24 372.436 1249.8 372.898C1249.8 372.898 1248.61 335.638 1286.8 356.218C1288.8 357.278 1290.8 358.458 1292.96 359.838C1292.96 359.838 1301.36 332.148 1324.52 336.248C1329.27 337.126 1333.81 338.89 1337.9 341.448C1348.15 347.448 1354.49 352.638 1358.32 356.858C1366.6 365.858 1363.65 370.858 1363.32 371.348C1364.69 370.628 1394.89 354.728 1408.32 404.078C1408.32 404.078 1326.19 435.588 1209.32 402.178C1209.32 402.178 1203.41 372.458 1232.32 384.348C1232.27 384.348 1231.88 360.218 1248.03 371.608Z" fill="#FCCCF4"/>
<path d="M1358.31 356.858C1354.48 352.638 1348.14 347.468 1337.89 341.448C1333.8 338.89 1329.26 337.126 1324.51 336.248C1293.25 162.248 1147.63 29.8282 971.443 28.1482C787.243 26.3882 633.783 168.148 608.543 353.348C608.35 353.328 608.156 353.328 607.963 353.348C606.393 353.413 604.827 353.564 603.273 353.798C570.933 358.688 574.613 383.228 574.613 383.228C574.183 382.998 573.763 382.758 573.373 382.598C601.273 161.898 759.743 -0.981781 968.603 1.01822C1167.59 2.90822 1323.29 151.478 1358.31 356.858Z" fill="#01C8FF"/>
<path d="M1324.51 336.248C1301.35 332.148 1292.95 359.838 1292.95 359.838C1290.8 358.458 1288.76 357.278 1286.79 356.218C1278.31 194.218 1140.32 64.6083 970.063 62.9883C793.263 61.2983 648.633 198.248 647.003 368.898V370.598C641.089 372.869 635.787 376.492 631.523 381.178C631.523 381.178 635.133 352.638 608.523 353.348C633.763 168.098 787.223 26.3483 971.423 28.1483C1147.63 29.8283 1293.25 162.228 1324.51 336.248Z" fill="#FFC001"/>
<path d="M1286.79 356.218C1248.61 335.638 1249.79 372.898 1249.79 372.898C1249.23 372.436 1248.64 372.006 1248.02 371.608C1248.42 366.458 1248.67 361.278 1248.72 356.048C1250.08 213.158 1123.21 96.048 965.383 94.578C807.553 93.108 686.893 211.158 685.523 354.098C685.443 362.029 685.964 369.955 687.083 377.808C683.91 378.721 680.827 379.923 677.873 381.398C666.763 368.088 655.613 367.598 646.993 370.648V368.948C648.623 198.298 793.253 61.3479 970.053 63.0379C1140.32 64.6079 1278.31 194.228 1286.79 356.218Z" fill="#FF334A"/>
<path d="M646.993 370.598C655.613 367.598 666.763 368.038 677.873 381.348C680.827 379.873 683.91 378.671 687.083 377.758C700.363 373.898 722.563 373.258 715.413 415.558C715.413 415.558 610.233 436.558 524.033 407.258C524.033 407.258 537.083 363.258 573.373 382.598C573.763 382.758 574.183 382.998 574.613 383.228C574.613 383.228 570.933 358.688 603.273 353.798C604.827 353.563 606.393 353.413 607.963 353.348C608.156 353.328 608.35 353.328 608.543 353.348C635.123 352.638 631.543 381.178 631.543 381.178C635.798 376.496 641.089 372.873 646.993 370.598V370.598Z" fill="#FCCCF4"/>
<path d="M608.273 353.348H608.583C635.123 352.678 631.513 381.178 631.513 381.178C635.777 376.492 641.078 372.869 646.993 370.598C655.613 367.598 666.763 368.038 677.873 381.348C680.765 379.918 683.776 378.743 686.873 377.838C700.113 373.938 722.623 372.988 715.433 415.558C715.433 415.558 610.253 436.558 524.053 407.258C524.053 407.258 537.103 363.258 573.393 382.558C573.783 382.758 574.203 382.998 574.633 383.228C574.633 383.228 570.953 358.688 603.293 353.798C604.813 353.588 606.243 353.448 607.603 353.378" stroke="#030D78" stroke-miterlimit="10"/>
<path d="M607.583 353.378C607.813 353.358 608.043 353.358 608.273 353.378" stroke="#030D78" stroke-miterlimit="10"/>
<path d="M1363.24 371.388C1364.61 370.668 1394.81 354.768 1408.24 404.118C1408.24 404.118 1326.11 435.628 1209.24 402.218C1209.24 402.218 1203.33 372.498 1232.24 384.388C1232.24 384.388 1231.85 360.258 1248 371.648C1248.62 372.046 1249.21 372.476 1249.77 372.938C1249.77 372.938 1248.58 335.868 1286.45 356.098C1288.45 357.198 1290.65 358.418 1292.92 359.878C1292.92 359.878 1301.28 332.388 1324.24 336.248C1329.07 337.117 1333.7 338.896 1337.86 341.488C1348.11 347.488 1354.45 352.678 1358.28 356.898C1366.56 365.898 1363.61 370.898 1363.28 371.388" stroke="#030D78" stroke-miterlimit="10"/>
<path d="M1286.52 356.488C1286.54 356.346 1286.54 356.201 1286.52 356.058C1279.37 192.878 1141.25 64.6181 970.103 62.9881C793.303 61.2981 648.673 198.248 647.043 368.898V371.728" stroke="#030D78" stroke-miterlimit="10"/>
<path d="M1324.35 336.548C1324.35 336.438 1324.35 336.318 1324.27 336.208C1293.41 161.568 1148.05 29.828 971.443 28.148C787.243 26.388 633.783 168.148 608.583 353.348C608.503 353.778 608.423 354.238 608.383 354.668" stroke="#030D78" stroke-miterlimit="10"/>
<path d="M1358.75 359.338C1358.6 358.528 1358.46 357.678 1358.31 356.858C1323.25 151.478 1167.56 2.85822 968.603 1.01822C759.743 -0.981781 601.273 161.898 573.373 382.558C573.373 382.718 573.373 382.908 573.293 383.068" stroke="#030D78" stroke-miterlimit="10"/>
<path d="M1247.9 373.468C1247.9 372.808 1247.99 372.188 1248.03 371.608C1248.58 363.058 1248.68 361.278 1248.73 356.048C1249.82 213.158 1123.22 96.048 965.393 94.578C807.563 93.108 686.893 211.158 685.523 354.098C685.307 362.051 685.752 370.009 686.853 377.888C686.853 378.038 686.853 378.198 686.923 378.348" stroke="#030D78" stroke-miterlimit="10"/>
<path d="M38.0206 191.686C38.0206 191.686 -4.10247 167.495 2.99321 221.341C2.99321 221.341 97.2942 243.718 176.085 220.134C176.085 220.134 165.531 179.036 131.206 196.773C131.206 196.773 135.336 174.729 106.311 169.255C104.915 168.991 103.506 168.803 102.09 168.691C77.5679 166.773 79.9097 193.052 79.9097 193.052C79.9097 193.052 59.674 167.523 38.0206 191.686Z" fill="#FCCCF4"/>
</svg>
