<svg width="162" height="230" viewBox="0 0 162 230" fill="none" xmlns="http://www.w3.org/2000/svg">
<path d="M57.7 2.27186C54.98 2.64186 17.3601 14.0119 2.55005 8.39192C2.55005 8.39192 7.15001 16.5619 12.76 17.5819C12.76 17.5819 7.66 27.2919 0 29.3319H11.23C11.23 29.3319 14.3 62.5519 14.3 64.0519C14.3 65.5519 18.9 82.9519 18.9 82.9519H22.9901L36.77 130.442L32.69 136.052L45.97 183.052L51.07 186.122H54.65L59.75 195.312V209.092C59.75 209.092 73.54 225.432 75.07 225.432C76.6 225.432 78.14 229.522 78.14 229.522L81.2 224.412V211.142L83.75 217.262L89.37 213.692L91.37 207.202C91.37 207.202 96.99 207.052 99.54 200.412V189.692C99.54 189.692 106.69 193.262 105.67 167.222L105.77 158.542L108.22 160.072L110.78 143.732L116.39 142.732L120.33 133.032L136.33 131.502L145.52 93.2019L142.47 85.5519L145.53 64.5519C145.53 64.5519 150.13 57.9219 154.21 64.5519C154.21 64.5519 158.3 56.8919 144.51 46.6819C144.51 46.6819 157.79 42.0919 161.36 42.6019C161.36 42.6019 157.28 32.8919 148.59 32.8919L144 22.1719C144 22.1719 152.68 20.1719 153.7 21.6619L152.7 20.1319C152.7 20.1319 135.34 10.9419 128.7 10.9419C128.7 10.9419 135.85 5.32188 140.96 6.85188C140.9 6.86188 109.35 -4.78814 57.7 2.27186Z" fill="#1100A5"/>
<path d="M144.55 71.262L142.47 85.5519L145.53 93.2119L136.34 131.512L120.34 133.042L116.4 142.742L110.79 143.742L108.23 160.082L105.8 158.552L105.7 167.232C106.7 193.232 99.5701 189.702 99.5701 189.702V200.422C97.0201 207.062 91.4001 207.212 91.4001 207.212L89.4001 213.702L83.7801 217.272L81.2301 211.152V224.422L78.1701 229.532C78.1701 229.532 76.6301 225.442 75.1001 225.442C73.5701 225.442 59.7801 209.102 59.7801 209.102V195.322L54.6801 186.132H51.1001L46.0001 183.062L32.7201 136.062L36.8001 130.452L22.9801 82.952H18.9001C18.9001 82.952 17.0501 75.952 15.6901 70.442L13.0801 49.442C13.0801 49.442 28.6001 49.082 37.4101 39.502C37.4101 39.502 39.7101 54.8219 42.7701 59.0319C42.7701 59.0319 46.2201 43.332 48.1401 42.572C50.0601 41.812 46.2201 43.332 46.2201 43.332L55.4101 51.332L58.4801 55.1619L61.5401 48.2719L68.8201 42.142L74.9501 44.062L84.1401 51.7219L84.9001 57.5519L92.5601 56.7919C92.5601 56.7919 95.2401 58.7019 94.4801 68.2819C93.7201 77.8619 88.7301 83.2119 88.7301 83.2119C88.7301 83.2119 102.52 79.7719 104.05 70.9619C104.05 70.9619 107.5 73.252 106.73 76.702C106.73 76.702 110.95 69.422 109.41 63.702L111.33 59.4919L115.92 62.1719L123.2 57.9619L128.95 59.1019C128.95 59.1019 126.65 54.1019 127.8 53.7419C128.95 53.3819 140.05 56.0419 140.05 56.0419L144.55 71.262Z" fill="#2B2525"/>
<path opacity="0.6" d="M144.54 71.262L142.47 85.4119L145.53 93.072L136.34 131.372L120.34 132.902L116.4 142.612L110.79 143.612L108.23 159.952L105.78 158.422L105.68 167.102C106.68 193.102 99.5501 189.562 99.5501 189.562V200.292C97.0001 206.932 91.3801 207.082 91.3801 207.082L89.3801 213.562L87.0001 215.082V209.182C87.0001 209.182 82.2301 203.442 80.7001 203.822C79.1701 204.202 68.8301 198.082 68.8301 198.082C68.8301 198.082 61.1701 176.252 66.1501 185.822C71.1301 195.392 79.3201 195.012 79.3201 195.012L90.3201 191.952L82.6601 190.032C82.6601 190.032 73.8601 182.762 72.6601 182.032C71.4601 181.302 63.8501 165.952 63.8501 165.952C63.8501 165.952 77.6401 180.122 87.0001 184.712C96.3601 189.302 101 174.372 101 174.372L99.4701 158.672L96.7801 146.802C96.7801 146.802 113.25 136.462 110.57 125.732C107.89 115.002 112.1 116.542 112.1 116.542L124.19 114.772L133.9 93.932L127.01 84.3519L124.16 69.802L115.9 62.142L123.18 57.932L128.93 59.072C128.93 59.072 125.37 51.572 130.21 53.922L140.03 56.012L144.54 71.262Z" fill="#6D3DFF"/>
<path opacity="0.6" d="M150.9 61.702C151.617 61.9316 152.28 62.3031 152.851 62.7944C153.421 63.2858 153.887 63.8869 154.22 64.562C154.22 64.562 158.31 56.902 144.52 46.692C144.52 46.692 157.8 42.102 161.37 42.612C161.37 42.612 157.29 32.902 148.6 32.902L144.01 22.182C144.01 22.182 152.69 20.182 153.71 21.672L152.71 20.142C152.71 20.142 135.35 10.952 128.71 10.952C128.71 10.952 135.86 5.33201 140.97 6.86201C140.97 6.86201 109.38 -4.78802 57.73 2.27198C56.88 2.38198 52.65 3.56199 46.73 4.97199C46.73 4.97199 101.73 10.232 63.8199 19.172C25.9099 28.112 88.36 25.552 88.36 25.552C88.36 25.552 112.19 18.152 118.06 23.762C123.93 29.372 129.29 35.762 129.29 35.762C129.29 35.762 115.76 32.952 112.19 36.272C112.19 36.272 133.63 37.272 137.19 42.402C137.19 42.402 132.08 41.642 126.19 46.742C126.19 46.742 139.47 45.212 142.79 51.082L150.9 61.702Z" fill="#313DFF"/>
</svg>








