<svg width="380" height="237" viewBox="0 0 380 237" fill="none" xmlns="http://www.w3.org/2000/svg">
<path d="M303.5 -142.617C304.998 -141.843 306.419 -140.927 307.742 -139.882C307.742 -139.882 316.212 -125.235 309.012 -122.509C309.012 -122.509 318.163 -79.4704 316.992 -74.9535C316.992 -74.9535 305.693 -69.7932 301.46 -70.7917C301.46 -70.7917 302.184 -53.2927 306.083 -53.5402C306.083 -53.5402 321.325 -52.8725 317.58 -43.1625L297.889 -10.1304C297.889 -10.1304 250.901 24.6562 242.571 26.1014L242.253 51.613C242.253 51.613 232.471 65.3323 222.344 72.0109L195.23 95.1157L195.209 115.744C195.209 115.744 169.931 148.637 157.029 156.898C157.029 156.898 55.8338 237.931 -17.2758 210.736C-17.2758 210.736 -74.0093 143.468 -65.6443 136.474L-42.6536 118.729L-48.5702 102.56C-51.8737 105.029 -74.3344 103.811 -74.3344 103.811C-74.3344 103.811 -88.0959 85.7571 -82.317 80.4713L-86.7599 56.1629C-86.7599 56.1629 -64.3711 19.9441 17.6153 -14.5095L33.0262 -57.4513L192.072 -133.041C192.072 -133.041 272.598 -158.842 303.567 -142.635" fill="#2B2525"/>
<path opacity="0.6" d="M307.738 -139.86C307.738 -139.86 316.208 -125.213 309.008 -122.487C309.008 -122.487 318.159 -79.4486 316.988 -74.9316C316.988 -74.9316 305.688 -69.7713 301.456 -70.7698C301.456 -70.7698 302.18 -53.2708 306.078 -53.5184C306.078 -53.5184 321.32 -52.8506 317.576 -43.1406L297.884 -10.1085C297.884 -10.1085 250.897 24.6781 242.567 26.1233L242.254 51.613C242.254 51.613 232.471 65.3323 222.344 72.0108L195.231 95.1157L195.209 115.744C195.209 115.744 169.931 148.637 157.029 156.898C157.029 156.898 60.8626 233.902 -11.697 212.585C-11.697 212.585 68.2268 201.305 76.6896 185.558L73.9151 175.203L63.2524 170.917L69.6119 162.08L69.1072 154.285L80.7346 138.487L69.1205 118.595L76.8543 103.065C76.8543 103.065 51.3539 111.481 45.1273 106.017L47.1438 92.7943L73.8226 88.8137L90.3375 76.4583L98.2299 57.2304C98.2299 57.2304 157.86 58.345 174.974 44.2451C192.088 30.1453 182.569 9.49535 182.569 9.49535L205.326 -3.36285L218.096 -32.4799C218.096 -32.4799 192.153 -22.5056 174.416 -20.7761L212.994 -45.6068L168.464 -42.9924C168.464 -42.9924 219.908 -67.3676 227.305 -75.0748L219.859 -67.3547L246.571 -92.5777L274.583 -100.083L294.038 -116.343C294.038 -116.343 307.343 -129.474 305.219 -134.464L307.738 -139.86Z" fill="#6D3DFF"/>
<path d="M307.738 -139.86C307.738 -139.86 316.208 -125.213 309.008 -122.487C309.008 -122.487 318.159 -79.4486 316.988 -74.9317C316.988 -74.9317 305.688 -69.7713 301.456 -70.7698C301.456 -70.7698 302.18 -53.2709 306.078 -53.5184C306.078 -53.5184 321.321 -52.8506 317.576 -43.1406L297.884 -10.1085C297.884 -10.1085 250.897 24.6781 242.567 26.1233L242.254 51.6129C242.254 51.6129 232.471 65.3323 222.345 72.0108L195.231 95.1157L195.209 115.744C195.209 115.744 169.931 148.637 157.029 156.898C157.029 156.898 55.834 237.93 -17.2756 210.736C-17.2756 210.736 -74.0091 143.468 -65.6441 136.474L-42.6534 118.729L-48.57 102.56C-51.8735 105.029 -74.3342 103.81 -74.3342 103.81C-74.3342 103.81 -88.0957 85.757 -82.3168 80.4713L-86.7597 56.1629C-86.7597 56.1629 -64.3709 19.9441 17.6155 -14.5095L33.0264 -57.4514L192.072 -133.041C192.072 -133.041 280.75 -161.451 307.738 -139.86Z" stroke="#1100A5" stroke-miterlimit="10"/>
</svg>








