<svg width="98" height="187" viewBox="0 0 98 187" fill="none" xmlns="http://www.w3.org/2000/svg">
<path d="M105.605 42.9038L106.683 45.429C112.923 45.429 115.852 52.3917 115.852 52.3917C113.291 52.0239 103.754 55.3337 103.754 55.3337C113.658 62.6886 110.716 68.1557 110.716 68.1557C107.786 63.3995 104.489 68.1557 104.489 68.1557L102.283 83.1966L104.489 88.6883L97.8942 116.184L86.4205 117.287L83.5888 124.249L79.5559 124.985L77.7294 136.716L75.9642 135.625L75.8907 141.852C76.6262 160.546 71.4899 157.984 71.4899 157.984V165.682C71.0989 166.982 70.3357 168.14 69.2944 169.011C68.2531 169.883 66.9794 170.43 65.6306 170.585L64.1595 175.244L60.1267 177.806L58.2879 173.405V182.942L56.0936 186.619C56.0936 186.619 54.9904 183.677 53.8994 183.677C53.5684 183.677 53.078 181.483 51.1045 181.226C45.7108 180.527 47.1083 172.4 47.1083 172.4V162.691L39.9006 150.801L38.025 146.412L45.8335 140.982L47.7335 134.522L52.1097 128.577L51.1781 122.95L43.0386 121.381L38.6502 116.686L43.6638 108.865V101.976L48.0399 97.2813C43.6637 101.976 33.563 94.1555 33.563 94.1555V88.8354L36.7747 84.447L29.5791 79.7521V73.8068L35.5243 68.2048C25.1906 72.3113 9.89232 63.1912 9.89232 63.1912C9.26715 55.9588 8.06586 42.9161 8.06586 42.9161H0C5.50394 41.4451 9.16913 34.4824 9.16913 34.4824C5.13617 33.7469 1.81419 27.8875 1.81419 27.8875C8.47041 30.4127 21.5499 28.1449 30.8784 26.0488L45.4412 7.77179L56.9394 8.99761L63.3872 1.2504C63.3872 1.2504 68.4376 -2.28 69.8473 3.12587L73.8435 7.82079L76.1849 13.4473L93.5547 14.1583C93.5547 14.1583 98.2496 21.9055 94.7805 27.0662L108.387 33.4037V39.7412L105.605 42.9038Z" fill="#1100A5"/>
<path d="M67.1141 0L63.4366 6.72975L68.254 7.95558V13.3492L56.2778 16.6344C56.2778 16.6344 59.3301 26.2694 79.0536 23.6829V27.4339C79.0536 27.4339 85.1827 29.7875 87.9776 27.4339L91.2627 28.4758C91.2627 28.4758 78.5877 38.0005 69.1979 33.7714C59.8081 29.5423 72.4832 37.0566 72.4832 37.0566C72.4832 37.0566 90.2576 39.8147 93.8371 34.0043L96.8893 37.6818L85.3911 41.016L91.7285 43.4677C93.0837 43.6826 94.4684 43.6218 95.7995 43.289C97.1307 42.9562 98.3812 42.3583 99.4758 41.5309L101.817 43.6025L98.5319 48.3464L104.514 45.2942L105.629 42.9161L108.388 39.6553V33.3178L94.7808 26.9804C94.7808 26.9804 98.5318 22.077 93.555 14.0724L76.1852 13.3615L72.9244 6.61947L67.7638 4.90329L69.8722 3.02775L67.1141 0Z" fill="#313DFF"/>
<path d="M103.766 71.723L102.111 83.0619L104.305 88.5658L97.7103 116.061L86.2366 117.164L83.4173 124.127L79.3843 124.862L77.5455 136.594L75.7803 135.49V141.717C76.5035 160.424 71.3796 157.849 71.3796 157.849V165.547C70.9864 166.849 70.2208 168.006 69.1774 168.878C68.134 169.749 66.8584 170.296 65.5079 170.451L64.0492 175.109L60.0162 177.671L58.1775 173.282V182.807L55.9834 186.485C55.9834 186.485 54.8801 183.555 53.7768 183.555C53.4581 183.555 52.9555 181.348 50.9819 181.103C45.5883 180.392 46.9857 172.265 46.9857 172.265V162.569L39.7902 150.666L37.9146 146.29L45.711 140.859L47.6109 134.399L51.9995 128.454L51.0555 122.815L42.9161 121.246L38.4786 116.453L43.4799 108.633V101.743L47.8684 97.0485C43.48 101.743 33.3914 93.9227 33.3914 93.9227V88.6026L36.603 84.2265L29.3952 79.5315V73.5741L35.3404 67.9843C25.019 72.0908 9.72069 62.9584 9.72069 62.9584C9.29165 58.0551 8.60521 50.4918 8.20068 46.1156C8.20068 46.1156 27.6177 56.4983 34.8991 53.9118C34.8991 53.9118 35.5978 64.0126 40.5256 65.6552C40.5256 65.6552 42.1682 54.1448 47.5741 56.2654C47.5741 56.2654 54.4265 67.9966 57.9324 67.2978C57.9324 67.2978 56.7065 55.5545 60.482 56.2654L71.5145 63.0687L72.7403 68.2294L83.27 66.3662L88.4921 63.3507L92.6231 64.1719L91.7528 61.5119L100.591 61.9655L103.815 71.674" fill="#2B2525"/>
<path opacity="0.6" d="M74.0152 156.795C74.9836 154.944 76.2585 151.009 75.8907 141.791L75.9642 135.564L77.7295 136.655L79.5559 124.923L83.5888 124.188L86.4205 117.225L97.8942 116.122L104.489 88.6269L102.283 83.1352L103.778 72.9732L100.542 62.0143L93.4935 60.5188C90.0245 58.8271 92.5742 64.1962 92.5742 64.1962L88.4432 63.3749L83.2211 66.3904L89.1541 71.8944L91.2013 82.3384L96.1046 89.2153L89.1173 104.17L80.4385 105.396C80.4385 105.396 77.4107 104.293 79.3352 111.991C81.2598 119.689 69.4429 127.118 69.4429 127.118L71.3674 135.698L72.4584 146.976C71.9224 148.593 71.1721 150.131 70.2275 151.548L63.375 153.595L67.4937 159.112L63.375 164.628L67.9596 166.038L67.6776 169.96C69.1973 168.783 70.4788 167.327 71.4533 165.67V157.972C71.4533 157.972 73.4268 157.923 74.0152 156.795Z" fill="#6D3DFF"/>
</svg>





