<svg width="395" height="161" viewBox="0 0 395 161" fill="none" xmlns="http://www.w3.org/2000/svg">
<path d="M389.118 20.8582C390.365 21.9935 391.501 23.2459 392.508 24.5981C392.508 24.5981 396.898 40.9381 389.238 41.7081C389.238 41.7081 386.938 85.6481 384.638 89.7081C384.638 89.7081 372.388 91.7681 368.558 89.7081C368.558 89.7081 364.728 106.798 368.558 107.568C368.558 107.568 383.108 112.158 376.978 120.568L349.408 147.378C349.408 147.378 295.018 168.818 286.598 168.058L279.688 192.618C279.688 192.618 266.688 203.338 255.178 207.168L223.008 222.468L217.648 242.388C217.648 242.388 184.718 267.618 170.118 272.258C170.118 272.258 51.3983 324.338 -12.1817 279.148C-12.1817 279.148 -49.5717 199.488 -39.6817 194.898L-12.8817 183.708L-14.4116 166.558C-18.2416 168.088 -39.6217 161.098 -39.6217 161.098C-39.6217 161.098 -48.2417 140.098 -41.2917 136.488L-39.2917 111.858C-39.2917 111.858 -8.29165 82.6681 79.8184 70.6081L105.818 33.1181L279.008 1.26814C279.008 1.26814 363.468 -2.81185 389.188 20.8582" fill="#2B2525"/>
<path opacity="0.6" d="M392.499 24.6182C392.499 24.6182 396.889 40.9582 389.229 41.7282C389.229 41.7282 386.928 85.6681 384.629 89.7281C384.629 89.7281 372.379 91.7881 368.549 89.7281C368.549 89.7281 364.719 106.818 368.549 107.588C368.549 107.588 383.099 112.178 376.969 120.588L349.398 147.398C349.398 147.398 295.009 168.838 286.589 168.078L279.689 192.618C279.689 192.618 266.689 203.338 255.179 207.168L223.009 222.468L217.649 242.388C217.649 242.388 184.719 267.618 170.119 272.258C170.119 272.258 57.2985 321.748 -7.27148 282.378C-7.27148 282.378 72.8485 292.168 85.0985 279.148V268.428L75.9085 261.528L84.3385 254.638L85.8685 246.978L101.189 234.728L95.1185 212.508L106.609 199.508C106.609 199.508 79.7985 201.038 75.1985 194.148L80.5685 181.898L107.369 184.958L126.519 177.298L139.119 160.768C139.119 160.768 196.429 177.278 216.609 168.088C236.789 158.898 232.939 136.488 232.939 136.488L258.249 129.958L278.119 105.138C278.119 105.138 250.479 108.058 232.899 105.138L276.589 91.1382L232.899 82.1382C232.899 82.1382 288.898 71.9082 298.039 66.3782L288.849 71.9082L321.179 54.4582H350.179L373.179 43.7882C373.179 43.7882 389.429 34.5482 388.669 29.1782L392.499 24.6182Z" fill="#6D3DFF"/>
<path d="M392.498 24.6181C392.498 24.6181 396.888 40.9581 389.228 41.7281C389.228 41.7281 386.928 85.668 384.628 89.728C384.628 89.728 372.378 91.788 368.548 89.728C368.548 89.728 364.718 106.818 368.548 107.588C368.548 107.588 383.098 112.178 376.968 120.588L349.398 147.398C349.398 147.398 295.008 168.838 286.588 168.078L279.688 192.618C279.688 192.618 266.688 203.338 255.178 207.168L223.008 222.468L217.648 242.388C217.648 242.388 184.718 267.618 170.118 272.258C170.118 272.258 51.3983 324.338 -12.1817 279.148C-12.1817 279.148 -49.5717 199.488 -39.6817 194.898L-12.8817 183.708L-14.4116 166.558C-18.2416 168.088 -39.6217 161.098 -39.6217 161.098C-39.6217 161.098 -48.2417 140.098 -41.2917 136.488L-39.2917 111.858C-39.2917 111.858 -8.29165 82.668 79.8184 70.608L105.818 33.1181L279.008 1.26805C279.008 1.26805 372.018 -3.22194 392.498 24.6181Z" stroke="#1100A5" stroke-miterlimit="10"/>
</svg>








