<svg width="266" height="360" viewBox="0 0 266 360" fill="none" xmlns="http://www.w3.org/2000/svg">
<path d="M86.4011 14.4258C82.3789 15.2678 27.4138 36.2497 4.70095 29.434C4.70095 29.434 12.4393 41.1441 20.9248 42.0701C20.9248 42.0701 14.3428 57.1122 3.12175 60.9736L19.8908 59.7784C19.8908 59.7784 28.0105 109.057 28.1702 111.297C28.3298 113.536 37.0505 139.029 37.0505 139.029L43.1579 138.594L68.7888 208.041L63.2934 216.852L88.1257 285.62L96.0679 289.662L101.414 289.281L110.007 302.461L111.474 323.037C111.474 323.037 133.804 345.969 136.089 345.806C138.374 345.643 141.109 351.587 141.109 351.587L145.134 343.631L143.722 323.815L148.181 332.683L156.193 326.754L158.488 316.85C158.488 316.85 166.865 316.028 169.966 305.841L168.825 289.834C168.825 289.834 179.881 294.404 175.587 255.629L174.812 242.657L178.633 244.681L180.717 220.009L188.988 217.918L193.839 203.015L217.567 199.027L227.214 140.859L221.846 129.76L224.18 98.0765C224.18 98.0765 230.343 87.6869 237.141 97.1527C237.141 97.1527 242.433 85.2793 220.755 71.5011C220.755 71.5011 240.096 63.2338 245.482 63.6154C245.482 63.6154 238.356 49.5504 225.38 50.4753L217.385 34.9563C217.385 34.9563 230.133 31.0461 231.815 33.1624L230.159 30.9842C230.159 30.9842 203.258 19.1091 193.343 19.8157C193.343 19.8157 203.422 10.6628 211.215 12.4036C211.126 12.4249 162.775 -1.61342 86.4011 14.4258Z" fill="#1100A5"/>
<path d="M223.43 108.2L221.845 129.76L227.23 140.872L217.583 199.041L193.854 203.029L189.003 217.932L180.733 220.023L178.649 244.695L174.858 242.668L175.632 255.64C179.893 294.358 168.87 289.846 168.87 289.846L170.011 305.853C166.91 316.039 158.534 316.862 158.534 316.862L156.238 326.765L148.226 332.694L143.767 323.827L145.18 343.642L141.154 351.598C141.154 351.598 138.419 345.655 136.135 345.818C133.85 345.981 111.519 323.049 111.519 323.049L110.053 302.472L101.459 289.292L96.1135 289.673L88.1713 285.632L63.3391 216.864L68.8345 208.052L43.1427 138.595L37.0503 139.029C37.0503 139.029 33.5428 128.773 30.9256 120.69L24.7933 89.6103C24.7933 89.6103 47.9299 87.4209 60.0656 72.1782C60.0656 72.1782 65.1305 94.8096 70.1479 100.77C70.1479 100.77 73.6286 76.9596 76.4147 75.6204C79.2008 74.2812 73.6286 76.9596 73.6286 76.9596L88.2028 87.9274L93.1946 93.3197L97.0306 82.7056L107.249 72.7774L116.607 74.992L131.145 85.452L132.9 94.0767L144.257 92.1265C144.257 92.1265 148.462 94.6934 148.347 109.079C148.232 123.465 141.35 131.985 141.35 131.985C141.35 131.985 161.576 125.381 162.923 112.063C162.923 112.063 168.318 115.115 167.535 120.349C167.535 120.349 173.062 109.029 170.154 100.651L172.573 94.1606L179.712 97.674L190.134 90.6126L198.842 91.703C198.842 91.703 194.875 84.4816 196.554 83.8217C198.233 83.1617 215.091 85.9523 215.091 85.9523L223.43 108.2Z" fill="#2B2525"/>
<path opacity="0.6" d="M223.416 108.202L221.831 129.551L227.215 140.664L217.569 198.832L193.84 202.82L188.99 217.738L180.719 219.829L178.636 244.501L174.815 242.477L175.589 255.448C179.849 294.166 168.826 289.639 168.826 289.639L169.968 305.661C166.867 315.848 158.491 316.67 158.491 316.67L156.194 326.559L152.802 329.082L152.174 320.272C152.174 320.272 144.44 312.208 142.196 312.938C139.952 313.669 123.861 305.631 123.861 305.631C123.861 305.631 110.099 273.849 118.554 287.609C127.009 301.369 139.198 299.93 139.198 299.93L155.298 294.19L143.655 292.138C143.655 292.138 129.741 282.219 127.872 281.257C126.002 280.294 113.005 258.183 113.005 258.183C113.005 258.183 135.105 277.875 149.57 283.732C164.035 289.59 169.374 266.802 169.374 266.802L165.419 243.521L160.139 226.083C160.139 226.083 183.632 208.89 178.488 193.153C173.344 177.416 179.795 179.268 179.795 179.268L197.659 175.338L209.941 143.185L198.633 129.614L192.828 108.19L179.679 97.6315L190.102 90.5702L198.809 91.6605C198.809 91.6605 192.695 80.8401 200.172 83.8341L215.058 85.9099L223.416 108.202Z" fill="#6D3DFF"/>
<path opacity="0.6" d="M231.895 93.2494C232.99 93.5159 234.021 94 234.925 94.673C235.829 95.346 236.588 96.1941 237.157 97.1667C237.157 97.1667 242.449 85.2933 220.771 71.5151C220.771 71.5151 240.113 63.2477 245.498 63.6293C245.498 63.6293 238.372 49.5643 225.396 50.4891L217.401 34.9703C217.401 34.9703 230.149 31.06 231.831 33.1764L230.175 30.9982C230.175 30.9982 203.274 19.123 193.359 19.8297C193.359 19.8297 203.438 10.6767 211.231 12.4175C211.231 12.4175 162.82 -1.61654 86.4461 14.4227C85.1886 14.6774 78.9978 16.8896 70.3079 19.6251C70.3079 19.6251 152.995 21.626 97.3385 39.0101C41.6816 56.3943 134.661 45.9252 134.661 45.9252C134.661 45.9252 169.457 32.3391 178.82 40.0914C188.182 47.8437 196.866 56.815 196.866 56.815C196.866 56.815 176.363 54.0589 171.386 59.3964C171.386 59.3964 203.507 58.6078 209.369 65.8892C209.369 65.8892 201.658 65.2982 193.405 73.5405C193.405 73.5405 213.073 69.8426 218.655 78.2545L231.895 93.2494Z" fill="#313DFF"/>
</svg>









