<svg width="379" height="552" viewBox="0 0 379 552" fill="none" xmlns="http://www.w3.org/2000/svg">
<ellipse rx="87.1575" ry="12.0037" transform="matrix(-0.998653 -0.0518905 -0.0518905 0.998653 228.241 533.333)" fill="#00C587"/>
<path d="M248.412 66.8918C248.412 66.8918 265.002 49.1274 288.278 83.5953C311.555 118.063 463.191 346.429 232.8 366.405C232.8 366.405 27.0462 359.379 176.561 110.406C176.594 110.408 214.271 36.5138 248.412 66.8918Z" fill="#A2FF81"/>
<path d="M242.94 202.281C242.94 202.281 264.523 204.149 266.306 190.296C268.09 176.443 248.969 185.592 248.969 185.592C248.969 185.592 240.4 189.758 232.595 184.237C224.791 178.717 215.916 179.628 217.953 187.818C219.808 195.27 234.587 202.594 242.94 202.281Z" fill="#C74557"/>
<path d="M252.408 64.7816C252.408 64.7816 254.031 46.2916 264.725 25.3378C264.725 25.3378 263.959 15.9891 251.819 12.51C251.819 12.51 246.128 25.5177 247.395 49.3073C247.395 49.3073 241.649 56.772 229.169 53.6834C229.169 53.6834 204.553 -1.92072 122.293 49.6757C40.0327 101.272 73.9624 232.075 78.1288 236.286C78.1288 236.286 83.3009 190.279 154.074 152.24C224.846 114.201 228.985 57.2168 228.985 57.2168C228.985 57.2168 241.257 60.5203 247.697 54.2032C247.697 54.2032 246.483 64.0309 248.574 67.5522L252.408 64.7816Z" fill="#037578"/>
<path d="M241.345 206.827C241.859 206.853 242.349 206.879 242.826 206.834C251.622 207.586 268.529 205.148 270.304 190.504C270.863 185.896 269.851 182.526 267.29 180.491C261.295 175.725 249.32 181.042 247.97 181.667L247.845 181.721C245.47 182.837 242.861 183.262 240.289 182.951C237.716 182.641 235.272 181.606 233.21 179.954C227.87 175.812 221.509 174.96 217.375 177.828C214.295 179.961 213.046 183.682 213.927 187.991C215.948 198.065 231.685 206.316 241.345 206.827ZM242.936 202.498L242.806 202.491C234.292 202.917 219.438 194.669 217.879 187.042C217.52 185.286 217.515 182.855 219.552 181.441C221.734 179.922 226.177 179.909 230.746 183.447C233.413 185.569 236.572 186.89 239.894 187.27C243.216 187.65 246.578 187.077 249.631 185.609C252.53 184.283 261.371 181.208 264.827 183.958C266.132 184.99 266.607 187.021 266.249 189.972C264.519 204.219 243.271 202.515 243.067 202.496L242.936 202.498Z" fill="#037578"/>
<path d="M231.329 183.59C231.329 183.59 232.386 188.742 227.462 186.993C222.538 185.243 225.395 180.494 225.395 180.494C227.58 181.008 229.615 182.069 231.329 183.59Z" fill="white"/>
<path d="M263.274 196.539C263.274 196.539 247.241 187.526 228.342 197.911C232.906 200.981 238.239 202.526 243.656 202.345C252.481 201.935 257.018 201.684 263.274 196.539Z" fill="#B82F5E"/>
<path d="M353.625 219.903C353.625 219.903 371.326 237.756 360.629 355.133C360.629 355.133 360.181 374.787 355.418 376.702C355.418 376.702 353.484 376.767 353.638 371.286C353.638 371.286 353.627 377.938 349.951 376.418C349.951 376.418 348.892 375.694 349.763 373.907C350.633 372.12 350.279 370.113 349.477 370.419C348.676 370.725 346.559 375.26 344.906 374.011C343.253 372.761 344.088 371.633 345.173 368.867C346.258 366.101 344.543 361.792 342.711 364.918C340.88 368.044 337.675 368.477 338.372 364.024C339.018 359.941 346.295 342.857 345.29 314.661C345.29 314.661 357.833 293.699 358.616 270.128C359.008 253.215 357.331 236.332 353.625 219.903Z" fill="#C74557"/>
<path d="M131.373 208.077C131.373 208.077 80.429 281.759 41.2125 236.486C41.2125 236.486 42.1544 230.326 38.751 227.492C38.751 227.492 35.9763 224.682 35.0034 231.283C35.0034 231.283 31.5285 221.793 29.1552 223.224C26.7819 224.655 28.8105 229.858 28.8105 229.858L27.7456 230.671C27.7456 230.671 24.464 225.178 22.5068 226.63C22.5068 226.63 19.6833 228.698 23.9929 234.245L21.1443 237.423C21.1443 237.423 17.1835 232.562 15.8086 234.931C15.8086 234.931 46.1382 312.524 124.566 236.909C124.597 236.928 127.443 218.224 131.373 208.077Z" fill="#C74557"/>
<path d="M288.974 504.616C304.763 470.146 305.436 432.32 303.071 405.417C301.531 387.951 298.375 370.699 293.647 353.911L301.306 350.731C306.286 368.189 309.596 386.145 311.186 404.328C313.669 432.114 312.988 471.042 296.932 507.027L288.974 504.616Z" fill="#C74557"/>
<path d="M155.366 499.272C179.357 444.24 171.934 372.969 168.241 347.69L177.214 352.594C179.239 368.218 180.334 383.969 180.491 399.751C180.782 428.319 177.911 467.202 163.542 501.26L155.366 499.272Z" fill="#C74557"/>
<path d="M293.323 505.945C293.323 505.945 299.699 507.935 301.386 510.263C303.073 512.591 297.305 520.471 297.305 520.471C297.305 520.471 312.095 525.225 315.139 537.028C315.139 537.028 301.531 541.636 276.325 528.247C276.325 528.247 280.638 509.628 284.642 504.843C287.579 504.617 290.526 504.991 293.323 505.945Z" fill="#FF6500"/>
<path d="M148.109 500.058C148.109 500.058 157.183 495.789 170.255 504.952L163.152 516.636C163.152 516.636 174.644 521.575 181.815 537.23C181.815 537.23 165.932 541.555 143.971 529.941L148.109 500.058Z" fill="#FF6500"/>
<path d="M251.78 12.4731C251.78 12.4731 249.989 19.7004 254.912 21.9447C254.912 21.9447 247.397 45.6601 250.594 66.0071L248.504 67.4876C248.504 67.4876 246.559 62.7234 247.635 54.1391C245.473 56.1592 242.773 57.4129 239.914 57.7237C237.562 55.6027 234.631 54.3343 231.545 54.1019C231.545 54.1019 240.737 56.212 247.148 49.3464C247.148 49.3464 246.653 35.2531 247.64 32.0046C247.64 31.996 248.72 17.1943 251.78 12.4731Z" fill="#0139F2"/>
<path d="M144.871 171.743C151.535 167.235 158.411 163.091 165.47 159.327C236.241 121.323 240.39 64.3043 240.39 64.3043C240.498 63.6552 240.532 62.9952 240.492 62.3384C240.492 62.3384 231.908 59.0615 228.323 60.3601C228.323 60.3601 223.686 96.3822 192.261 124.586C180.749 135.643 167.849 144.951 153.934 152.241L144.871 171.743Z" fill="#0139F2"/>
<path d="M114.93 245.691C114.93 245.691 115.263 233.3 103.301 237.558C113.262 229.104 122.489 219.72 130.873 209.519C130.873 209.519 124.255 228.861 124.42 237.197C124.42 237.197 116.675 244.228 114.93 245.691Z" fill="#0139F2"/>
<path d="M179.21 373.851C179.21 373.851 172.88 376.648 171.617 381.124C171.617 381.124 170.258 365.701 170.065 363.746C169.872 361.79 168.257 347.691 168.257 347.691L177.016 352.323C177.016 352.323 178.791 367.438 179.21 373.851Z" fill="#0139F2"/>
<path d="M168.241 347.69C168.241 347.69 144.669 322.368 136.351 295.884C128.625 271.377 134.302 230.763 134.479 229.887C134.622 229.173 151.357 179.183 155.272 164.294C155.404 163.797 145.139 170.367 144.918 170.833L129.412 212.777L123.88 240.512C123.88 240.512 116.181 285.076 135.337 314.762C135.371 314.738 143.669 331.868 168.241 347.69Z" fill="#0139F2"/>
<path d="M228.358 60.3191C235.005 59.6138 241.825 61.5659 248.502 67.5139C248.502 67.5139 265.093 49.7494 288.369 84.2173C311.645 118.685 463.282 347.052 232.89 367.027C232.89 367.027 50.4129 360.785 154.064 152.109" stroke="#030D78" stroke-width="1.02889" stroke-miterlimit="10"/>
<path d="M288.958 504.919C304.748 470.44 305.419 432.649 303.055 405.72C301.515 388.251 298.358 370.997 293.631 354.205L301.29 351.034C306.27 368.489 309.58 386.442 311.17 404.622C313.653 432.417 312.972 471.345 296.916 507.33L288.958 504.919Z" stroke="#030D78" stroke-width="1.02889" stroke-miterlimit="10"/>
<path d="M155.167 499.001C179.167 443.969 171.736 372.698 168.042 347.419L177.057 352.325C179.077 367.95 180.172 383.7 180.333 399.483C180.624 428.05 177.761 466.934 163.392 500.992L155.167 499.001Z" stroke="#030D78" stroke-width="1.02889" stroke-miterlimit="10"/>
<path d="M252.375 64.7797C252.375 64.7797 253.99 46.2892 264.692 25.3358C264.692 25.3358 263.926 15.9871 251.778 12.5077C251.778 12.5077 246.087 25.5153 247.362 49.3054C247.362 49.3054 241.616 56.77 229.136 53.6814C229.136 53.6814 204.52 -1.92267 122.252 49.6734C39.9835 101.269 73.9214 232.072 78.0877 236.283C78.0877 236.283 83.268 190.277 154.033 152.238C224.797 114.198 228.952 57.2148 228.952 57.2148C228.952 57.2148 241.225 60.5184 247.664 54.2013C247.664 54.2013 246.45 64.0289 248.533 67.5498L252.375 64.7797Z" stroke="#030D78" stroke-width="1.02889" stroke-miterlimit="10"/>
<path d="M131.22 208.347C131.22 208.347 80.2758 282.029 41.0593 236.756C41.0593 236.756 42.0088 230.605 38.6058 227.762C38.6058 227.762 35.8225 224.96 34.8577 231.562C34.8577 231.562 31.3833 222.064 29.01 223.495C26.6367 224.926 28.6653 230.129 28.6653 230.129L27.6004 230.942C27.6004 230.942 24.3107 225.448 22.3535 226.9C22.3535 226.9 19.5295 228.977 23.8396 234.515L20.9991 237.693C20.9991 237.693 17.0384 232.833 15.6554 235.201C15.6554 235.201 45.9849 312.794 124.421 237.179C124.42 237.197 127.265 218.501 131.22 208.347Z" stroke="#030D78" stroke-width="1.02889" stroke-miterlimit="10"/>
<path d="M353.347 219.888C353.347 219.888 371.048 237.741 360.351 355.118C360.351 355.118 359.903 374.772 355.14 376.687C355.14 376.687 353.206 376.752 353.36 371.272C353.36 371.272 353.349 377.923 349.673 376.403C349.673 376.403 348.614 375.679 349.484 373.892C350.355 372.105 350.001 370.098 349.199 370.404C348.398 370.71 346.281 375.246 344.628 373.996C342.974 372.747 343.81 371.618 344.895 368.852C345.979 366.086 344.264 361.777 342.433 364.903C340.602 368.03 337.397 368.462 338.094 364.009C338.74 359.927 346.017 342.842 345.012 314.646" stroke="#030D78" stroke-width="1.02889" stroke-miterlimit="10"/>
<path d="M293.298 505.944C293.298 505.944 299.666 507.934 301.322 510.243C302.977 512.552 297.241 520.451 297.241 520.451C297.241 520.451 312.039 525.206 315.074 537.008C315.074 537.008 301.467 541.616 276.261 528.227C276.261 528.227 280.574 509.608 284.578 504.823C287.529 504.599 290.49 504.979 293.298 505.944V505.944Z" stroke="#030D78" stroke-width="1.02889" stroke-miterlimit="10"/>
<path d="M148.107 500.102C148.107 500.102 157.173 495.832 170.253 504.995L163.142 516.679C163.142 516.679 174.634 521.618 181.813 537.274C181.813 537.274 165.921 541.598 143.969 529.985L148.107 500.102Z" stroke="#030D78" stroke-width="1.02889" stroke-miterlimit="10"/>
<path d="M302.733 183.618C299.452 183.448 296.968 179.944 297.183 175.792C297.399 171.641 300.233 168.413 303.514 168.584C306.794 168.754 309.279 172.258 309.063 176.41C308.848 180.561 306.013 183.789 302.733 183.618Z" fill="#030D78"/>
<path d="M180.5 179.003C177.219 178.833 174.735 175.329 174.95 171.178C175.166 167.026 178 163.799 181.281 163.969C184.561 164.14 187.046 167.643 186.83 171.795C186.614 175.947 183.78 179.174 180.5 179.003Z" fill="#030D78"/>
<path d="M241.407 206.596C241.921 206.622 242.411 206.648 242.879 206.611C251.684 207.364 268.582 204.925 270.365 190.282C270.924 185.673 269.905 182.303 267.344 180.26C261.357 175.503 249.373 180.82 248.032 181.436L247.906 181.499C245.531 182.615 242.923 183.04 240.35 182.729C237.777 182.418 235.333 181.383 233.272 179.731C227.924 175.589 221.562 174.738 217.429 177.597C214.357 179.73 213.1 183.45 213.988 187.769C216.001 197.834 231.746 206.094 241.407 206.596ZM242.99 202.267L242.859 202.26C234.345 202.686 219.499 194.438 217.94 186.811C217.573 185.055 217.577 182.615 219.614 181.201C221.796 179.691 226.239 179.67 230.808 183.216C233.475 185.337 236.634 186.657 239.956 187.038C243.278 187.418 246.64 186.845 249.693 185.378C252.592 184.052 261.432 180.977 264.89 183.719C266.194 184.759 266.669 186.781 266.311 189.741C264.581 203.988 243.333 202.284 243.121 202.265L242.99 202.267Z" stroke="#030D78" stroke-width="1.02889" stroke-miterlimit="10"/>
<path d="M263.274 196.539C263.274 196.539 245.387 187.924 228.334 197.91" stroke="#030D78" stroke-width="1.02889" stroke-miterlimit="10"/>
<path d="M231.329 183.59C231.329 183.59 232.386 188.742 227.462 186.993C222.538 185.243 225.395 180.494 225.395 180.494C227.58 181.008 229.615 182.069 231.329 183.59V183.59Z" stroke="#030D78" stroke-width="1.02889" stroke-miterlimit="10"/>
<path d="M312.905 532.007C312.905 532.007 292.124 531.535 277.326 523.958" stroke="#030D78" stroke-width="1.02889" stroke-miterlimit="10"/>
<path d="M178.851 531.753C178.851 531.753 159.557 534.016 144.57 525.483" stroke="#030D78" stroke-width="1.02889" stroke-miterlimit="10"/>
<path d="M228.922 57.1785C228.922 57.1785 72.5127 65.6806 78.0817 236.248" stroke="#030D78" stroke-width="1.02889" stroke-miterlimit="10"/>
<path d="M147.289 85.3526C147.289 85.3526 117.697 68.0541 87.5794 85.0983" stroke="#030D78" stroke-width="1.02889" stroke-miterlimit="10"/>
<path d="M134.827 94.3875C134.827 94.3875 100.49 83.0513 82.2982 94.9492" stroke="#030D78" stroke-width="1.02889" stroke-miterlimit="10"/>
</svg>
