<svg width="54" height="54" viewBox="0 0 54 54" fill="none" xmlns="http://www.w3.org/2000/svg">
<g clip-path="url(#clip0_725_225)">
<path d="M1.8875e-08 26.9989C-0.000196122 32.2454 1.52828 37.3783 4.39856 41.7701C7.26885 46.1619 11.3566 49.6223 16.162 51.7283C16.0861 49.8426 16.1494 47.5793 16.6324 45.5291C17.1513 43.3375 20.1066 30.8168 20.1066 30.8168C19.5196 29.4702 19.2255 28.0143 19.2438 26.5454C19.2438 22.5378 21.5641 19.5553 24.4498 19.5553C26.9072 19.5553 28.0927 21.4009 28.0927 23.6093C28.0927 26.0772 26.5191 29.7706 25.7091 33.1897C25.032 36.0541 27.1455 38.3912 29.97 38.3912C35.0852 38.3912 38.532 31.8208 38.532 24.0354C38.532 18.1188 34.5452 13.6893 27.2953 13.6893C19.1067 13.6893 14.0062 19.8063 14.0062 26.6193C14.0062 28.9711 14.7002 30.6269 15.7866 31.9157C16.2844 32.5042 16.354 32.7425 16.1747 33.4196C16.0439 33.9174 15.7528 35.1071 15.6241 35.5859C15.4448 36.2714 14.8901 36.514 14.272 36.263C10.4963 34.7232 8.74125 30.5847 8.74125 25.9443C8.74125 18.2749 15.2086 9.06996 28.0378 9.06996C38.3463 9.06996 45.1238 16.5305 45.1238 24.5374C45.1238 35.1282 39.2365 43.0401 30.5564 43.0401C27.6413 43.0401 24.8991 41.4645 23.9604 39.6758C23.9604 39.6758 22.391 45.8961 22.062 47.0984C21.4903 49.1803 20.3745 51.26 19.3451 52.8821C21.8298 53.62 24.408 53.9959 27 53.9979C34.1608 53.9979 41.0284 51.1534 46.0919 46.0901C51.1554 41.0268 54 34.1595 54 26.9989C54 19.8384 51.1554 12.9711 46.0919 7.90781C41.0284 2.84452 34.1608 0 27 0C19.8392 0 12.9716 2.84452 7.90812 7.90781C2.84463 12.9711 1.8875e-08 19.8384 1.8875e-08 26.9989Z" fill="black"/>
</g>
<defs>
<clipPath id="clip0_725_225">
<rect width="54" height="54" fill="white"/>
</clipPath>
</defs>
</svg>
