<svg width="101" height="54" viewBox="0 0 101 54" fill="none" xmlns="http://www.w3.org/2000/svg">
<g clip-path="url(#clip0_200_2759)">
<path d="M50.26 53.02C77.7417 53.02 100.02 30.7417 100.02 3.26C100.02 -24.2217 77.7417 -46.5 50.26 -46.5C22.7783 -46.5 0.5 -24.2217 0.5 3.26C0.5 30.7417 22.7783 53.02 50.26 53.02Z" fill="#6068FF"/>
<path opacity="0.6" d="M62.0602 -45.3899C62.0602 -45.3899 81.7802 -31.0799 52.1702 -21.3899C22.5602 -11.6999 74.8902 -18.5799 74.8902 -18.5799C74.8902 -18.5799 91.3502 -16.2799 73.5402 -9.12989C55.7302 -1.97989 37.4502 -4.99989 37.4502 -4.99989C37.4502 -4.99989 67.2702 8.7501 78.0802 2.8801C88.8902 -2.98989 80.8602 16.1201 49.9202 18.3001C18.9802 20.4801 69.0002 25.0901 69.0002 25.0901C69.0002 25.0901 84.7902 27.3901 65.0002 33.7701C45.2102 40.1501 62.0902 41.2201 62.0902 41.2201C62.0902 41.2201 66.5902 45.9701 57.9602 47.5301C49.3302 49.0901 58.3802 51.9101 58.3802 51.9101C58.3802 51.9101 97.8802 46.0301 99.6502 2.91011C99.6802 2.88011 100.56 -33.6499 62.0602 -45.3899Z" fill="#6D3DFF"/>
<path d="M50.26 53.02C77.7417 53.02 100.02 30.7417 100.02 3.26C100.02 -24.2217 77.7417 -46.5 50.26 -46.5C22.7783 -46.5 0.5 -24.2217 0.5 3.26C0.5 30.7417 22.7783 53.02 50.26 53.02Z" stroke="#1100A5" stroke-miterlimit="10"/>
</g>
<defs>
<clipPath id="clip0_200_2759">
<rect width="100.52" height="100.52" fill="white" transform="translate(0 -47)"/>
</clipPath>
</defs>
</svg>






