<svg width="309" height="302" viewBox="0 0 309 302" fill="none" xmlns="http://www.w3.org/2000/svg">
<g filter="url(#filter0_d_191_1374)">
<path d="M0 40C0 17.9086 17.9086 0 40 0H259C281.091 0 299 17.9086 299 40V252C299 274.091 281.091 292 259 292H40C17.9086 292 0 274.091 0 252V40Z" fill="white"/>
<path d="M1.21854 40C1.21854 18.5816 18.5816 1.21854 40 1.21854H259C280.418 1.21854 297.781 18.5816 297.781 40V252C297.781 273.418 280.418 290.781 259 290.781H40C18.5816 290.781 1.21854 273.418 1.21854 252V40Z" stroke="black" stroke-width="2.43708"/>
</g>
<path d="M297 252C297 272.987 279.987 290 259 290L40 290C19.0132 290 2 272.987 2 252L2.00001 206L297 206L297 252Z" fill="#023AEC"/>
<defs>
<filter id="filter0_d_191_1374" x="0" y="0" width="309" height="302" filterUnits="userSpaceOnUse" color-interpolation-filters="sRGB">
<feFlood flood-opacity="0" result="BackgroundImageFix"/>
<feColorMatrix in="SourceAlpha" type="matrix" values="0 0 0 0 0 0 0 0 0 0 0 0 0 0 0 0 0 0 127 0" result="hardAlpha"/>
<feOffset dx="10" dy="10"/>
<feComposite in2="hardAlpha" operator="out"/>
<feColorMatrix type="matrix" values="0 0 0 0 0 0 0 0 0 0 0 0 0 0 0 0 0 0 1 0"/>
<feBlend mode="normal" in2="BackgroundImageFix" result="effect1_dropShadow_191_1374"/>
<feBlend mode="normal" in="SourceGraphic" in2="effect1_dropShadow_191_1374" result="shape"/>
</filter>
</defs>
</svg>


