<svg width="587" height="508" viewBox="0 0 587 508" fill="none" xmlns="http://www.w3.org/2000/svg">
<g filter="url(#filter0_d_422_370)">
<rect x="2" y="2" width="568" height="484" rx="40" fill="white"/>
<rect x="1" y="1" width="570" height="486" rx="41" stroke="black" stroke-width="2"/>
</g>
<rect x="41" y="79" width="495" height="378" rx="24" fill="#023AEC" stroke="black" stroke-width="2"/>
<rect width="27.3438" height="5.12697" transform="matrix(0.707105 -0.707109 0.707105 0.707109 520 45.3351)" fill="#1F1F1F"/>
<rect width="27.3438" height="5.12697" transform="matrix(0.707112 0.707101 -0.707112 0.707101 523.626 26.0005)" fill="#1F1F1F"/>
<circle cx="53.4123" cy="40.4123" r="10.4123" fill="#FF532B" stroke="black" stroke-width="2"/>
<circle cx="80.6753" cy="40.4123" r="10.4123" fill="#A2FF5C" stroke="black" stroke-width="2"/>
<circle cx="108.572" cy="40.4123" r="10.4123" fill="#864AE5" stroke="black" stroke-width="2"/>
<path d="M248.736 30.028C250.05 30.028 251.004 29.056 251.004 27.868C251.004 26.662 250.05 25.69 248.736 25.69C247.422 25.69 246.45 26.662 246.45 27.868C246.45 29.056 247.422 30.028 248.736 30.028ZM245.658 44.23C249.06 44.23 250.932 42.88 250.932 39.838V30.37H246.558V39.622C246.558 40.288 246.018 40.558 245.172 40.558C244.902 40.558 244.542 40.504 244.326 40.414V44.068C244.74 44.176 245.316 44.23 245.658 44.23ZM255.628 40.27C257.536 40.27 258.67 39.208 258.994 37.84H259.156V40H263.53V30.37H259.156V35.644C259.156 36.796 258.58 37.462 257.734 37.462C256.906 37.462 256.276 36.832 256.276 35.806V30.37H251.884V36.58C251.884 38.65 253.288 40.27 255.628 40.27ZM266.716 30.028C268.03 30.028 269.002 29.056 269.002 27.868C269.002 26.662 268.03 25.69 266.716 25.69C265.402 25.69 264.43 26.662 264.43 27.868C264.43 29.056 265.402 30.028 266.716 30.028ZM264.502 40H268.894V30.37H264.502V40ZM275.805 40.27C277.047 40.27 278.559 39.928 279.315 39.586V35.968C278.685 36.4 277.353 36.778 276.327 36.778C275.049 36.778 274.167 36.148 274.167 35.122C274.167 34.24 274.977 33.574 276.147 33.574C277.155 33.574 277.731 33.826 278.379 34.294L279.189 31.036C278.307 30.388 276.723 30.1 275.625 30.1C272.043 30.1 269.685 32.368 269.685 35.158C269.685 38.128 272.295 40.27 275.805 40.27ZM285.135 44.23C289.797 44.23 292.191 41.404 292.191 38.794V30.37H287.817V35.5C287.817 36.652 287.241 37.318 286.395 37.318C285.567 37.318 284.937 36.688 284.937 35.662V30.37H280.545V36.526C280.545 38.596 281.949 40 284.289 40C286.197 40 287.331 38.956 287.655 37.588H287.817V37.606C287.817 39.046 286.575 40.522 284.577 40.522C283.263 40.522 282.219 40.306 281.013 39.586L280.149 43.294C281.409 43.834 283.605 44.23 285.135 44.23ZM295.549 40.27C296.665 40.27 297.619 39.406 297.619 38.164C297.619 36.958 296.665 36.076 295.549 36.076C294.397 36.076 293.443 36.958 293.443 38.164C293.443 39.406 294.397 40.27 295.549 40.27ZM303.892 40.27C306.88 40.27 308.41 38.92 308.41 36.976C308.41 35.374 307.384 34.348 305.008 33.952C303.892 33.754 303.586 33.61 303.586 33.34C303.586 33.052 303.946 32.962 304.684 32.962C305.458 32.962 306.79 33.268 307.312 33.61V30.73C306.484 30.388 305.512 30.1 303.514 30.1C300.688 30.1 299.194 31.432 299.194 33.196C299.194 34.852 300.418 35.896 302.488 36.292C303.748 36.526 303.982 36.652 303.982 36.886C303.982 37.138 303.676 37.246 302.74 37.246C301.75 37.246 300.166 36.814 299.194 36.112L298.366 39.19C299.878 39.91 301.804 40.27 303.892 40.27ZM309.19 43.96H313.564V37.192H313.744C313.924 38.92 315.058 40.27 317.02 40.27C319.576 40.27 321.304 38.2 321.304 35.194C321.304 32.404 319.306 30.1 316.372 30.1C314.608 30.1 313.222 30.856 312.376 32.026H312.304L309.586 30.37H309.19V43.96ZM315.004 36.904C313.996 36.904 313.294 36.076 313.294 35.122C313.294 34.168 313.978 33.358 314.968 33.358C315.994 33.358 316.696 34.186 316.696 35.14C316.696 36.094 316.012 36.904 315.004 36.904ZM326.085 40.27C328.047 40.27 329.343 38.83 329.541 37.102H329.703V40H334.095V30.37H333.699L330.963 32.026H330.909C330.045 30.856 328.659 30.1 326.913 30.1C323.979 30.1 321.981 32.404 321.981 35.194C321.981 38.2 323.529 40.27 326.085 40.27ZM328.281 36.904C327.273 36.904 326.589 36.094 326.589 35.14C326.589 34.186 327.291 33.358 328.299 33.358C329.307 33.358 329.973 34.168 329.973 35.122C329.973 36.076 329.289 36.904 328.281 36.904ZM341.126 40.27C342.368 40.27 343.88 39.928 344.636 39.586V35.968C344.006 36.4 342.674 36.778 341.648 36.778C340.37 36.778 339.488 36.148 339.488 35.122C339.488 34.24 340.298 33.574 341.468 33.574C342.476 33.574 343.052 33.826 343.7 34.294L344.51 31.036C343.628 30.388 342.044 30.1 340.946 30.1C337.364 30.1 335.006 32.368 335.006 35.158C335.006 38.128 337.616 40.27 341.126 40.27ZM351.137 40.27C352.523 40.27 353.819 40 354.665 39.784L354.287 36.724C353.351 37.048 352.523 37.192 351.515 37.192C350.201 37.192 349.571 36.778 349.283 36.22H355.691C355.763 35.968 355.853 35.284 355.853 34.996C355.853 32.404 353.711 30.1 350.705 30.1C347.519 30.1 345.359 32.368 345.359 35.158C345.359 37.462 346.943 40.27 351.137 40.27ZM349.139 34.546C349.319 33.7 349.895 33.214 350.777 33.214C351.713 33.214 352.307 33.988 352.199 34.546H349.139Z" fill="black"/>
<rect x="547" y="162" width="13.2164" height="41.113" rx="5.41405" fill="#FCFF3F" stroke="black" stroke-width="2"/>
<rect x="75.9609" y="136.961" width="132.078" height="134.078" rx="29.0391" fill="white" stroke="black" stroke-width="1.9218"/>
<rect x="223.961" y="136.961" width="133.078" height="134.078" rx="29.0391" fill="white" stroke="black" stroke-width="1.9218"/>
<rect x="368.961" y="136.961" width="132.078" height="134.078" rx="29.0391" fill="white" stroke="black" stroke-width="1.9218"/>
<rect x="75.9609" y="283.961" width="132.078" height="134.078" rx="29.0391" fill="white" stroke="black" stroke-width="1.9218"/>
<rect x="223.961" y="283.961" width="133.078" height="134.078" rx="29.0391" fill="white" stroke="black" stroke-width="1.9218"/>
<rect x="368.961" y="283.961" width="132.078" height="134.078" rx="29.0391" fill="white" stroke="black" stroke-width="1.9218"/>
<defs>
<filter id="filter0_d_422_370" x="0" y="0" width="587" height="508" filterUnits="userSpaceOnUse" color-interpolation-filters="sRGB">
<feFlood flood-opacity="0" result="BackgroundImageFix"/>
<feColorMatrix in="SourceAlpha" type="matrix" values="0 0 0 0 0 0 0 0 0 0 0 0 0 0 0 0 0 0 127 0" result="hardAlpha"/>
<feOffset dx="15" dy="20"/>
<feComposite in2="hardAlpha" operator="out"/>
<feColorMatrix type="matrix" values="0 0 0 0 0 0 0 0 0 0 0 0 0 0 0 0 0 0 1 0"/>
<feBlend mode="normal" in2="BackgroundImageFix" result="effect1_dropShadow_422_370"/>
<feBlend mode="normal" in="SourceGraphic" in2="effect1_dropShadow_422_370" result="shape"/>
</filter>
</defs>
</svg>
