<svg width="866" height="139" viewBox="0 0 866 139" fill="none" xmlns="http://www.w3.org/2000/svg">
<path d="M430.78 135.036C387.236 132.954 348.858 115.434 327.381 100.32C322.657 97.0033 319.444 91.9455 318.449 86.2596C317.454 80.5737 318.759 74.7254 322.076 70.0013C325.393 65.2773 330.451 62.0644 336.137 61.0695C341.823 60.0746 347.671 61.3791 352.395 64.6961V64.6961C355.98 67.1893 439.955 124.435 514.011 65.59C518.552 62.1862 524.241 60.6877 529.869 61.4131C535.498 62.1385 540.621 65.0305 544.151 69.4743C547.68 73.9182 549.338 79.5634 548.77 85.2099C548.202 90.8564 545.455 96.059 541.112 99.7115C505.183 128.219 466.293 136.732 430.78 135.036Z" fill="#FC7451"/>
<path d="M428.413 135.037C384.87 132.954 346.491 115.434 325.015 100.321C320.29 97.0038 317.078 91.946 316.083 86.2601C315.088 80.5742 316.392 74.7259 319.709 70.0018C323.026 65.2778 328.084 62.0649 333.77 61.07C339.456 60.075 345.304 61.3796 350.028 64.6966V64.6966C353.613 67.1898 437.588 124.436 511.644 65.5905C516.185 62.1867 521.874 60.6882 527.503 61.4136C533.131 62.1389 538.255 65.0309 541.784 69.4748C545.314 73.9186 546.971 79.5639 546.403 85.2104C545.836 90.8569 543.088 96.0595 538.745 99.712C502.816 128.219 463.926 136.732 428.413 135.037Z" stroke="#030D78" stroke-width="6" stroke-linecap="round" stroke-linejoin="round"/>
<path d="M339.327 85.9268C339.327 85.9268 436.603 150.488 521.965 86.2988" stroke="#030D78" stroke-width="6" stroke-linecap="round" stroke-linejoin="round"/>
<path d="M3 3.00004C3 3.00004 70.5714 80.4708 150.428 3" stroke="#030D78" stroke-width="6" stroke-linecap="round" stroke-linejoin="round"/>
<path d="M76.7144 40.0303V74.2891" stroke="#030D78" stroke-width="6" stroke-linecap="round" stroke-linejoin="round"/>
<path d="M32.307 27.7446L6.07129 53.1428" stroke="#030D78" stroke-width="6" stroke-linecap="round" stroke-linejoin="round"/>
<path d="M122.786 27.7446L147.765 53.1428" stroke="#030D78" stroke-width="6" stroke-linecap="round" stroke-linejoin="round"/>
<path d="M715.571 3.00004C715.571 3.00004 783.143 80.4708 863 3" stroke="#030D78" stroke-width="6" stroke-linecap="round" stroke-linejoin="round"/>
<path d="M789.286 40.0303V74.2891" stroke="#030D78" stroke-width="6" stroke-linecap="round" stroke-linejoin="round"/>
<path d="M744.879 27.7446L718.643 53.1428" stroke="#030D78" stroke-width="6" stroke-linecap="round" stroke-linejoin="round"/>
<path d="M835.357 27.7446L860.336 53.1428" stroke="#030D78" stroke-width="6" stroke-linecap="round" stroke-linejoin="round"/>
</svg>
