<svg width="866" height="193" viewBox="0 0 866 193" fill="none" xmlns="http://www.w3.org/2000/svg">
<path d="M3 10C3 10 70.5714 87.4708 150.428 10" stroke="#030D78" stroke-width="6" stroke-linecap="round" stroke-linejoin="round"/>
<path d="M76.7144 47.0303V81.2891" stroke="#030D78" stroke-width="6" stroke-linecap="round" stroke-linejoin="round"/>
<path d="M32.307 34.7446L6.07129 60.1428" stroke="#030D78" stroke-width="6" stroke-linecap="round" stroke-linejoin="round"/>
<path d="M122.786 34.7446L147.765 60.1428" stroke="#030D78" stroke-width="6" stroke-linecap="round" stroke-linejoin="round"/>
<path d="M715.571 10C715.571 10 783.143 87.4708 863 10" stroke="#030D78" stroke-width="6" stroke-linecap="round" stroke-linejoin="round"/>
<path d="M789.286 47.0303V81.2891" stroke="#030D78" stroke-width="6" stroke-linecap="round" stroke-linejoin="round"/>
<path d="M744.879 34.7446L718.643 60.1428" stroke="#030D78" stroke-width="6" stroke-linecap="round" stroke-linejoin="round"/>
<path d="M835.357 34.7446L860.336 60.1428" stroke="#030D78" stroke-width="6" stroke-linecap="round" stroke-linejoin="round"/>
<path d="M429.051 188.019C398.442 186.232 368.011 182.146 338.014 175.795C296.173 166.761 246.86 152.209 219.292 117.011C210.271 105.662 204.714 91.9519 203.288 77.5245C199.202 33.0488 239.348 18.0869 276.812 16.2315C305.144 14.8416 333.539 18.1217 361.288 23.6811C371.253 25.6756 381.246 27.8507 391.073 30.4359C401.371 33.1253 411.691 35.8147 422.303 36.9127C435.778 38.3025 449.35 35.4742 462.123 30.7069C476.299 25.4185 490.26 19.9355 504.805 15.6338C516.747 12.0612 528.872 9.13587 541.129 6.87072C553.822 4.46072 566.703 3.18629 579.622 3.0625C591.707 3.0625 603.944 4.33421 615.487 8.08685C626.252 11.5963 636.266 17.4059 643.938 25.8146C652.645 35.363 657.732 47.5382 660.178 60.1165C661.269 65.8495 661.919 71.6575 662.124 77.4898C663.868 122.195 635.717 153.932 595.932 170.138C546.189 190.423 489.607 191.104 436.723 188.436C434.172 188.338 431.615 188.199 429.051 188.019Z" fill="#030D78"/>
<path d="M580.518 27.3852C591.574 27.3852 600.796 28.643 608.705 31.2142C616.14 33.6396 622.367 37.4686 626.717 42.2081C632.972 49.0532 635.751 58.2541 637.058 64.7656C637.909 69.2911 638.415 73.8746 638.573 78.4766C639.177 94.0918 634.938 108.004 625.967 119.832C617.245 131.326 603.944 140.951 587.502 147.629C558.03 159.652 523.054 165.246 477.446 165.246C465.903 165.246 453.227 164.891 438.696 164.155C436.222 164.03 433.727 163.891 431.281 163.745C401.895 162.025 372.679 158.104 343.88 152.014C307.194 144.127 262.142 131.312 239.195 101.979C233.053 94.3038 229.257 85.0184 228.264 75.2383C227.242 64.1193 230.606 58.8448 233.225 55.8288C240.661 47.2533 257.687 41.5132 278.764 40.4708C282.698 40.2762 286.742 40.1719 290.801 40.1719C311.002 40.1719 332.74 42.5625 357.257 47.4757C368.028 49.63 377.327 51.7356 385.687 53.9177C396.694 56.7878 408.07 59.7551 420.517 61.0477C423.673 61.3691 426.844 61.5292 430.016 61.5272C443.033 61.5272 456.938 58.8031 471.337 53.4312L478.37 50.7975C490.059 46.3985 501.108 42.2428 512.422 38.8933C523.519 35.5653 534.789 32.8441 546.181 30.7417C557.453 28.5834 568.896 27.4392 580.372 27.3226H580.483L580.518 27.3852ZM580.483 3H580.33C567.414 3.1242 554.535 4.39863 541.845 6.80822C529.608 9.09614 517.503 12.0423 505.583 15.6339C491.039 19.9355 477.091 25.4185 462.901 30.707C452.338 34.6472 441.226 37.2671 430.079 37.2671C427.742 37.2705 425.406 37.1522 423.081 36.9127C412.469 35.8147 402.15 33.1253 391.851 30.4359C382.024 27.8786 372.031 25.6756 362.066 23.6812C338.64 18.9904 314.748 15.9049 290.828 15.9049C286.418 15.9049 282.017 16.0138 277.625 16.2315C240.119 18.087 199.952 33.0489 204.038 77.5246C205.454 91.957 211.004 105.675 220.022 117.031C247.611 152.23 296.923 166.816 338.8 175.816C368.796 182.167 399.227 186.254 429.836 188.04C432.4 188.2 434.957 188.339 437.515 188.471C450.677 189.166 464.047 189.589 477.494 189.589C518.127 189.589 559.357 185.42 596.731 170.173C636.488 153.967 664.667 122.223 662.923 77.5246C662.718 71.6923 662.068 65.8843 660.977 60.1513C658.531 47.573 653.444 35.3978 644.737 25.8494C637.093 17.4407 627.051 11.6311 616.286 8.12165C604.792 4.38291 592.61 3.09728 580.567 3.09728L580.483 3Z" fill="#FC7451"/>
<path d="M328.598 41.0682L314.755 78.2958C267.5 85.6204 275.679 49.3379 278.772 39.3795C278.772 39.3726 297.702 35.4323 328.598 41.0682Z" fill="white"/>
<path d="M289.022 136.149C289.022 136.149 366.854 95.2106 432.616 99.2065C498.377 103.202 527.217 111.521 590.254 146.462C590.254 146.462 535.563 174.259 431.282 163.738C327 153.217 289.022 136.149 289.022 136.149Z" fill="#EC425E"/>
<path opacity="0.3" d="M292.239 134.509C292.239 134.509 345.944 102.979 397.021 100.825C397.021 100.825 457.48 128.553 431.288 163.751C431.281 163.765 334.63 156.26 292.239 134.509Z" fill="#FCD8C4"/>
<path opacity="0.3" d="M412.699 36.6688C412.699 36.6688 412.004 53.4862 422.282 58.6495C422.282 58.6495 412.699 60.6231 356.263 45.008C356.263 45.008 292.739 31.8807 262.225 40.3937C262.225 40.3937 226.387 44.598 225.671 70.7066C223.656 85.057 242.35 124.717 297.944 141.263C309.369 144.369 320.05 148.018 331.475 151.11C351.934 156.67 372.9 159.88 393.949 162.459C395.339 162.625 406.083 164.634 406.618 163.765C406.618 163.765 399.342 175.579 407.591 184.912C406.854 184.078 400.343 184.655 399.252 184.592C339.487 179.095 262.927 167.087 223.246 116.808C193.642 76.6414 200.313 35.0496 251.738 21.1718C283.872 12.6102 318.229 16.3768 350.37 22.8327C350.419 22.8327 408.39 36.092 412.699 36.6688Z" fill="#FC9AC2"/>
<path d="M580.518 27.3852C591.574 27.3852 600.796 28.643 608.705 31.2142C616.14 33.6396 622.367 37.4686 626.717 42.2081C632.972 49.0532 635.751 58.2541 637.058 64.7656C637.909 69.2911 638.415 73.8746 638.573 78.4766C639.177 94.0918 634.938 108.004 625.967 119.832C617.245 131.326 603.944 140.951 587.502 147.629C558.03 159.652 523.054 165.246 477.446 165.246C465.903 165.246 453.227 164.891 438.696 164.155C436.222 164.03 433.727 163.891 431.281 163.745C401.895 162.024 372.679 158.103 343.88 152.014C307.194 144.127 262.142 131.312 239.195 101.979C233.053 94.3038 229.257 85.0184 228.264 75.2383C227.242 64.1193 230.606 58.8448 233.225 55.8288C240.661 47.2533 257.687 41.5132 278.764 40.4708C282.698 40.2762 286.749 40.1719 290.801 40.1719C311.002 40.1719 332.747 42.5625 357.264 47.4757C368.028 49.63 377.327 51.7356 385.694 53.9177C396.701 56.7878 408.084 59.7551 420.524 61.0477C423.68 61.3691 426.851 61.5292 430.023 61.5272C443.04 61.5272 456.945 58.8031 471.351 53.4312L478.377 50.7975C490.073 46.3985 501.115 42.2428 512.429 38.8933C523.526 35.5661 534.796 32.8449 546.188 30.7417C557.46 28.5834 568.903 27.4392 580.379 27.3226H580.49L580.518 27.3852ZM580.49 3H580.344C567.426 3.12379 554.544 4.39822 541.852 6.80822C529.613 9.0967 517.506 12.0429 505.583 15.6339C491.038 19.9355 477.091 25.4185 462.901 30.707C452.338 34.6472 441.226 37.2671 430.079 37.2671C427.742 37.2706 425.406 37.1522 423.081 36.9127C412.469 35.8147 402.15 33.1253 391.851 30.4359C382.024 27.8786 372.031 25.6756 362.066 23.6812C338.64 18.9904 314.748 15.9049 290.828 15.9049C286.418 15.9049 282.017 16.0138 277.625 16.2315C240.119 18.087 199.952 33.0489 204.038 77.5246C205.454 91.957 211.004 105.675 220.022 117.031C247.611 152.23 296.923 166.816 338.8 175.816C368.796 182.167 399.227 186.253 429.836 188.04C432.4 188.2 434.957 188.339 437.522 188.471C450.677 189.166 464.047 189.589 477.494 189.589C518.127 189.589 559.357 185.42 596.731 170.173C636.488 153.967 664.667 122.223 662.923 77.5246C662.718 71.6923 662.068 65.8843 660.977 60.1513C658.531 47.573 653.444 35.3978 644.737 25.8494C637.093 17.4407 627.051 11.6311 616.286 8.12165C604.799 4.38291 592.61 3.09728 580.567 3.09728L580.49 3Z" stroke="#030D78" stroke-width="6" stroke-miterlimit="10"/>
<path d="M296.499 44.9391C304.382 44.9657 312.253 45.5369 320.057 46.6486L310.134 73.3549C307.854 73.6096 305.562 73.7418 303.268 73.751C294.532 73.751 288.507 71.5828 285.366 67.3159C280.925 61.2908 282.107 51.6104 283.469 45.6201C287.797 45.1651 292.147 44.9447 296.499 44.9599V44.9391ZM296.499 38.0106C284.609 38.0106 277.944 39.4005 277.944 39.4005C275.032 48.7751 267.743 80.7003 303.275 80.7003C307.261 80.6614 311.238 80.3175 315.172 79.6718L329.501 41.1378C318.608 39.0975 307.553 38.0438 296.471 37.9897L296.499 38.0106Z" fill="#030D78"/>
<path d="M590.254 146.49C462.782 72.3404 354.185 98.5394 289.021 136.149" stroke="#030D78" stroke-width="6" stroke-linecap="round" stroke-linejoin="round"/>
</svg>


