<svg width="1078" height="589" viewBox="0 0 1078 589" fill="none" xmlns="http://www.w3.org/2000/svg">
<path d="M459.48 585.627C288.246 587.805 103.258 503.787 29.5537 341.934C-24.3682 227.34 -3.11175 82.6943 128.663 37.4379C238.025 2.14731 355.474 37.8734 457.613 80.5294C497.389 97.6428 536.17 116.299 580.574 117.381C621.339 118.377 663.46 93.5433 696.797 74.066C779.751 25.5749 916.559 -33.6907 1005.83 33.4939C1048.76 65.7737 1066.42 114.986 1071.59 167.39C1073.67 187.835 1072.85 208.47 1069.15 228.684C1024.73 474.088 677.96 583.823 459.48 585.627Z" fill="#FC7451"/>
<path d="M249.814 103.522C203.618 102.489 152.365 109.742 115.046 139.185C75.8055 170.171 66.3996 221.424 80.5519 267.85C121.466 402.045 270.964 480.77 400.724 499.836C435.92 505.035 471.574 506.432 507.069 504.004C625.332 495.78 740.685 455.93 844.858 400.509C872.752 385.666 899.695 368.59 923.564 347.794C943.47 330.438 961.138 310.388 974.518 287.545C1006.92 232.236 1027.4 128.915 956.329 92.6539C932.845 80.6602 905.044 80.9961 879.651 85.3134C850.009 90.3522 821.412 100.952 794.121 113.338C739.789 137.997 693.344 161.518 635.118 176.212C530.527 202.625 445.041 152.081 351.319 120.529C323.611 111.204 287.201 104.361 249.814 103.522Z" fill="#030D78"/>
<path d="M322.174 115.347L299.032 162.594C235.742 166.016 251.338 119.273 256.731 106.551C256.725 106.551 282.199 103.851 322.174 115.347Z" fill="white"/>
<path d="M766.725 437.379C501.812 241.088 300.631 383.495 236.638 445.012C236.638 445.012 375.076 519.426 510.179 504.595C653.761 488.857 766.725 437.379 766.725 437.379Z" fill="#EC425E"/>
<path d="M321.222 113.157L298.074 160.398C234.79 163.82 250.386 117.077 255.773 104.355C255.773 104.361 281.247 101.661 321.222 113.157Z" fill="white"/>
<path opacity="0.2" d="M237.073 445.068C237.073 445.068 345.645 339.178 483.722 337.573C483.722 337.573 442.665 374.089 476.947 383.607C511.23 393.125 580.835 393.517 544.611 421.915C508.387 450.313 524.599 474.169 565.575 471.283C606.552 468.396 585.637 492.832 585.637 492.832C585.637 492.832 418.41 538.915 237.073 445.068Z" fill="#FCD8C4"/>
<path opacity="0.3" d="M536.126 111.067C536.126 111.067 525.631 158.912 575.143 183.589C575.143 183.589 520.4 192.672 400.998 139.484C281.596 86.2962 119.755 86.0971 81.5533 180.541C43.3513 274.986 139.768 445.715 371.256 492.826C371.256 492.826 451.299 516.402 575.143 495.314C575.143 495.314 611.36 558.38 558.925 578.231C558.925 578.231 462.745 588.284 437.445 585.074C412.145 581.864 151.058 579.127 32.8631 344.621C32.8631 344.621 -39.5782 212.118 48.0978 92.9649C48.0978 92.9649 121.503 -11.8619 313.975 33.8672C313.975 33.8672 383.455 43.1984 501.669 98.0908L536.126 111.067Z" fill="#FC9AC2"/>
<path d="M766.215 437.455C501.289 241.164 300.426 384.167 236.426 445.685C236.426 445.685 371.71 519.053 510.459 504.328C655.634 488.926 766.215 437.455 766.215 437.455Z" stroke="#030D78" stroke-width="6" stroke-linecap="round" stroke-linejoin="round"/>
<path d="M461.395 585.279C290.168 587.463 105.18 503.457 31.4757 341.586C-22.4275 227.005 -1.18969 82.3587 130.561 37.1086C239.916 1.81802 357.371 37.5379 459.504 80.2001C499.286 97.3136 538.06 115.964 582.471 117.046C623.236 118.041 665.357 93.2078 698.688 73.7305C781.667 25.2456 918.481 -34.0325 1007.76 33.1335C1050.68 65.4195 1068.34 114.626 1073.51 167.036C1075.59 187.48 1074.77 208.117 1071.07 228.33C1026.65 473.753 679.864 583.488 461.395 585.279Z" stroke="#030D78" stroke-width="6" stroke-linecap="round" stroke-linejoin="round"/>
<path d="M247.898 103.522C201.702 102.489 150.436 109.718 113.111 139.186C73.9203 170.172 64.4834 221.425 78.6357 267.851C119.544 402.046 269.042 480.77 398.808 499.837C434.002 505.036 469.653 506.433 505.146 504.005C623.41 495.781 738.762 455.931 842.936 400.509C870.836 385.667 897.772 368.59 921.648 347.794C941.554 330.438 959.215 310.389 972.596 287.546C1005 232.237 1025.47 128.915 954.406 92.6544C930.923 80.6607 903.122 80.9966 877.729 85.3138C848.093 90.3527 819.49 100.953 792.199 113.339C737.873 137.998 691.422 161.519 633.195 176.212C528.599 202.626 443.131 152.082 349.409 120.53C321.695 111.205 285.285 104.362 247.898 103.522Z" stroke="#030D78" stroke-width="6" stroke-linecap="round" stroke-linejoin="round"/>
<path d="M261.446 102.844V109.065C271.325 109.065 291.138 110.153 317.602 117.033L296.582 159.957C295.493 159.988 294.423 160 293.378 160C275.033 160 262.815 155.596 257.061 146.937C249.428 135.41 254.224 117.898 257.428 109.177C258.529 109.139 259.879 109.108 261.446 109.108V102.887V102.844ZM261.446 102.887C256.016 102.887 253.098 103.198 253.098 103.198C247.269 116.965 230.778 166.246 293.378 166.246C295.655 166.246 298.043 166.184 300.538 166.047L326.485 113.021C296.003 104.25 272.986 102.844 261.44 102.844L261.446 102.887Z" fill="#030D78"/>
</svg>
