<svg width="1012" height="502" viewBox="0 0 1012 502" fill="none" xmlns="http://www.w3.org/2000/svg">
<path d="M428.246 498.758C312.49 500.231 187.441 443.432 137.61 334.023C101.175 256.554 115.529 158.776 204.592 128.185C278.523 104.327 357.919 128.477 426.965 157.315C453.857 168.878 480.072 181.491 510.091 182.224C537.648 182.896 566.12 166.105 588.654 152.939C644.751 120.166 737.226 80.0888 797.588 125.493C826.6 147.313 838.541 180.577 842.041 216.011C843.448 229.83 842.891 243.779 840.388 257.443C810.362 423.353 575.929 497.533 428.246 498.758Z" fill="#FC7451"/>
<path d="M283.907 170.793C252.688 170.097 218.013 174.983 192.812 194.875C166.286 215.849 159.927 250.493 169.525 281.905C197.151 372.596 298.205 425.815 385.931 438.701C409.722 442.219 433.823 443.165 457.817 441.524C537.766 435.966 615.714 409.024 686.158 371.558C705.019 361.525 723.233 349.981 739.371 335.919C752.829 324.189 764.765 310.637 773.81 295.196C795.716 257.804 809.548 187.975 761.514 163.445C745.643 155.364 726.851 155.563 709.681 158.472C689.646 161.878 670.313 169.04 651.869 177.42C615.142 194.086 583.724 209.987 544.381 219.921C473.669 237.768 415.887 203.622 352.53 182.287C333.806 175.984 309.189 171.359 283.907 170.793Z" fill="#030D78"/>
<path d="M335.267 177.761L318.88 211.218C274.066 213.642 285.113 180.54 288.924 171.532C288.924 171.532 306.964 169.624 335.267 177.761Z" fill="white"/>
<path d="M632.722 399.015C454.827 267.227 319.726 362.83 276.751 404.138C276.751 404.138 369.718 454.111 460.446 444.153C556.863 433.585 632.722 399.015 632.722 399.015Z" fill="#EC425E"/>
<path opacity="0.2" d="M278.207 403.398C278.207 403.398 354.103 331.189 425.641 336.267C425.641 336.267 450.681 423.223 520.305 434.599C520.28 434.599 391.065 471.505 278.207 403.398Z" fill="#FCD8C4"/>
<path opacity="0.3" d="M482.509 179.564C467.067 176.22 450.332 169.667 437.241 162.935C420.574 154.363 356.054 129.367 327.247 126.743C327.247 126.743 287.133 114.261 246.304 120.794C205.474 127.328 196.168 127.955 162.687 152.603C129.205 177.252 116.984 225.895 119.302 265.332C123.125 330.536 162.904 391.593 214.326 430.029C244.209 452.365 278.088 469.193 313.404 481.004C330.48 486.717 353.089 495.843 371.595 494.519C371.595 494.519 438.907 504.247 494.456 492.187C494.456 492.187 467.682 478.766 476.945 442.307C363.116 458.364 207.606 405.611 169.407 285.784C164.042 268.95 164.191 248.896 169.407 232.142C182.853 188.851 231.341 174.846 271.977 173.043C318.917 170.961 361.071 185.339 403.554 203.578C428.563 214.314 453.528 226.28 481.365 226.013C482.198 226.013 483.13 225.945 483.683 225.329C484.022 224.89 484.236 224.369 484.305 223.819C487.156 209.654 490.014 195.486 492.878 181.317C489.496 180.925 486.033 180.329 482.509 179.564Z" fill="#FC9AC2"/>
<path d="M3 96.8867C3 96.8867 71.1319 -19.8637 212.058 84.572" stroke="#030D78" stroke-width="6" stroke-linecap="round" stroke-linejoin="round"/>
<path d="M50.4121 53.6759L21.2012 25.3975" stroke="#030D78" stroke-width="6" stroke-linecap="round" stroke-linejoin="round"/>
<path d="M107.529 41.1439V3" stroke="#030D78" stroke-width="6" stroke-linecap="round" stroke-linejoin="round"/>
<path d="M159.231 53.6759L187.043 25.3975" stroke="#030D78" stroke-width="6" stroke-linecap="round" stroke-linejoin="round"/>
<path d="M998.366 96.8867C998.366 96.8867 930.234 -19.8637 789.401 84.572" stroke="#030D78" stroke-width="6" stroke-linecap="round" stroke-linejoin="round"/>
<path d="M851.279 50.1333L831.585 21.2954" stroke="#030D78" stroke-width="6" stroke-linecap="round" stroke-linejoin="round"/>
<path d="M911.1 39.5836L920.25 3" stroke="#030D78" stroke-width="6" stroke-linecap="round" stroke-linejoin="round"/>
<path d="M1008.82 50.1323L973.773 69.0116" stroke="#030D78" stroke-width="6" stroke-linecap="round" stroke-linejoin="round"/>
<path d="M428.246 498.758C312.49 500.232 187.441 443.432 137.61 334.023C101.176 256.554 115.53 158.777 204.592 128.186C278.524 104.327 357.92 128.478 426.966 157.316C453.858 168.878 480.072 181.491 510.091 182.225C537.649 182.896 566.12 166.106 588.654 152.939C644.751 120.166 737.227 80.0892 797.588 125.494C826.6 147.314 838.542 180.578 842.042 216.011C843.448 229.831 842.892 243.78 840.388 257.443C810.363 423.353 575.93 497.534 428.246 498.758Z" stroke="#030D78" stroke-width="6" stroke-linecap="round" stroke-linejoin="round"/>
<path d="M283.907 173.075C252.682 172.378 218.013 177.264 192.806 197.182C166.28 218.131 159.921 252.775 169.488 284.162C197.151 374.878 298.205 428.097 385.931 440.983C409.722 444.501 433.823 445.447 457.817 443.805C537.767 438.248 615.714 411.306 686.159 373.84C705.019 363.806 723.233 352.263 739.371 338.201C752.83 326.471 764.765 312.919 773.81 297.477C795.717 260.086 809.548 190.257 761.514 165.727C745.643 157.645 726.851 157.844 709.682 160.754C689.646 164.16 670.313 171.322 651.869 179.695C615.136 196.38 583.718 212.281 544.375 222.228C473.669 240.081 415.888 205.916 352.53 184.581C333.806 178.265 309.189 173.64 283.907 173.075Z" stroke="#030D78" stroke-width="6" stroke-linecap="round" stroke-linejoin="round"/>
<path d="M633.108 399.334C455.207 267.546 319.347 363.179 276.373 404.493C276.373 404.493 363.807 453.311 460.491 443.943C559.611 434.338 633.108 399.334 633.108 399.334Z" stroke="#030D78" stroke-width="6" stroke-linecap="round" stroke-linejoin="round"/>
<path d="M293.045 174.15V177.575C299.342 177.575 311.694 178.24 328.186 182.306L315.611 208.042H314.697C302.991 208.042 295.277 205.363 291.777 200.079C287.425 193.508 289.775 183.456 291.777 177.575H293.076V174.15H293.045ZM293.076 171.359C289.396 171.359 287.419 171.57 287.419 171.57C283.472 180.895 272.307 214.265 314.697 214.265C316.247 214.265 317.865 214.219 319.552 214.128L337.126 178.247C316.468 172.31 300.909 171.359 293.076 171.359Z" fill="#030D78"/>
</svg>



