<svg width="282" height="190" viewBox="0 0 282 190" fill="none" xmlns="http://www.w3.org/2000/svg">
<g clip-path="url(#clip0_200_2763)">
<path d="M167.33 83.92C167.33 82.92 200.25 62.1901 200.25 62.1901L227.93 72.29L281.14 29.09C281.14 29.09 257.95 7.25006 232.14 0.560059L172.84 48.47L195.14 57.2501C195.14 57.2501 156.25 80.36 161.67 82.1L167.33 83.92Z" fill="#1100A5"/>
<path d="M207.56 77.0101L113.86 53.8601C113.86 53.8601 76.2599 71.3301 101.53 114.99L189.53 150.79" fill="white"/>
<path d="M207.56 77.0101L113.86 53.8601C113.86 53.8601 76.2599 71.3301 101.53 114.99L189.53 150.79" stroke="#1100A5" stroke-miterlimit="10"/>
<path d="M222.988 119.99C228.101 99.5898 222.036 80.4934 209.441 77.3368C196.847 74.1803 182.492 88.1589 177.379 108.559C172.266 128.959 178.332 148.055 190.926 151.212C203.521 154.369 217.876 140.39 222.988 119.99Z" fill="white" stroke="#1100A5" stroke-miterlimit="10"/>
<path d="M222.988 119.99C228.101 99.5898 222.036 80.4934 209.441 77.3368C196.847 74.1803 182.492 88.1589 177.379 108.559C172.266 128.959 178.332 148.055 190.926 151.212C203.521 154.369 217.876 140.39 222.988 119.99Z" fill="#1100A5"/>
<path d="M153.83 135.74C147.12 80.31 190.56 73.35 190.56 73.35L176.91 69.98C139.61 78.37 139.06 122.04 139.26 129.81L153.83 135.74Z" fill="#FF532B"/>
<path d="M119.45 121.72C116.21 71.39 156.72 64.92 156.72 64.92L143.07 61.55C111.07 68.75 106.07 101.88 105.48 116.08L119.45 121.72Z" fill="#FF532B"/>
<path d="M112.69 54.6501L113.92 54.3601L127.56 57.7301C127.56 57.7301 102.41 61.7301 93.3302 88.1001C93.0961 81.9905 94.4757 75.9269 97.3302 70.5201C102.11 61.2601 112.69 54.6501 112.69 54.6501Z" fill="#FF532B"/>
<path d="M119.39 111.92C119.33 112.92 84.5 130.32 84.5 130.32L57.94 117.56L0.75 155.35C0.75 155.35 21.69 179.35 46.75 188.54L110.46 146.66L89.13 135.74C89.13 135.74 130.13 116.55 124.88 114.29L119.39 111.92Z" fill="#1100A5"/>
</g>
<defs>
<clipPath id="clip0_200_2763">
<rect width="281.9" height="189.1" fill="white"/>
</clipPath>
</defs>
</svg>







