<svg width="254" height="373" viewBox="0 0 254 373" fill="none" xmlns="http://www.w3.org/2000/svg">
<path d="M90.7303 126.861L85.0803 43.3675C85.0803 43.3675 81.6346 12.5285 103.797 11.8073C123.612 11.1563 150.018 11.7848 150.018 11.7848L146.98 35.7067L121.69 35.1749C119.511 35.301 116.696 35.7023 114.791 36.7654C112.886 37.8284 111.549 39.4982 110.298 41.2852C107.67 44.8644 108.285 51.5829 109.387 56.639C111.24 65.1442 118.628 127.171 118.628 127.171L90.7303 126.861Z" fill="white"/>
<path d="M109.004 51.3184L109.707 57.1362C96.6419 67.5264 85.2989 58.2306 85.2989 58.2306C84.975 52.7841 84.6938 47.7678 84.4593 43.5985C84.3489 41.3786 84.3475 39.2939 84.4391 37.3647C84.9174 37.9463 95.9097 51.0187 109.937 42.764C109.037 45.5203 108.719 48.4333 109.004 51.3184Z" fill="#FF532B"/>
<path d="M149.476 11.1347C151.896 11.2872 151.097 24.5605 151.097 24.5605C150.628 32.2712 148.477 34.5047 146.942 35.0792C139.573 22.0603 149.476 11.1347 149.476 11.1347Z" fill="#272B71"/>
<path d="M124.173 11.0398C123.72 15.6818 124.433 20.3631 126.247 24.6599C128.062 28.9566 130.92 32.7331 134.564 35.6473C130.325 35.5662 125.281 35.5731 120.173 35.7452C118.814 35.774 117.468 36.0273 116.192 36.4947C105.683 28.8101 107.892 13.0059 107.994 11.5389C113.028 11.144 118.69 11.0255 124.173 11.0398Z" fill="#FF532B"/>
<path d="M112.21 80.5462L114.972 102.804C101.257 113.727 88.6208 106.394 87.9872 106.063C87.488 98.6267 86.8968 89.9692 86.3437 81.2422C86.3404 81.2148 98.6409 92.2945 112.21 80.5462Z" fill="#FF532B"/>
<path d="M116.998 127.032C117.476 127.15 117.956 127.287 118.437 127.423L109.587 57.141L108.887 51.3415C108.887 51.3415 107.046 36.0982 119.883 35.6506C124.973 35.4807 130.064 35.4774 134.284 35.5516C140.793 35.6922 145.335 35.9035 145.335 35.9035C145.858 36.0324 146.409 35.9918 146.907 35.7878C148.433 35.2143 150.584 32.9808 151.052 25.261C151.052 25.261 151.852 11.9968 149.432 11.8443C149.432 11.8443 137.171 10.9992 123.893 10.9441C118.41 10.9298 112.775 11.045 107.729 11.4227C103.951 11.6392 100.201 12.1945 96.5221 13.0819C96.5221 13.0819 85.2976 16.9023 84.3558 37.365" stroke="#030D78" stroke-width="0.51046" stroke-miterlimit="10"/>
<path d="M84.3763 37.3809C84.2846 39.3101 84.2952 41.3937 84.3964 43.6147C84.6058 47.8056 84.887 52.8219 85.2361 58.2469C85.6455 65.3233 86.1099 73.1622 86.6386 80.9191C87.1895 89.6279 87.7531 98.2887 88.2637 105.742C89.1009 118.28 89.7383 127.321 89.7383 127.321C89.7383 127.321 90.5134 127.135 91.8838 126.886C96.418 126.033 107.309 124.523 117.055 127.043" stroke="#030D78" stroke-width="0.51046" stroke-miterlimit="10"/>
<path d="M149.404 11.8476C149.404 11.8476 139.5 22.7641 146.88 35.7911" stroke="#030D78" stroke-width="0.51046" stroke-miterlimit="10"/>
<path d="M123.847 10.9497C123.393 15.5918 124.106 20.2734 125.92 24.5703C127.735 28.8672 130.594 32.6436 134.238 35.5573" stroke="#030D78" stroke-width="0.51046" stroke-miterlimit="10"/>
<path d="M107.708 11.3232C107.703 11.3571 107.707 11.3918 107.72 11.4236C107.539 12.9189 105.919 29.6828 116.065 36.3618" stroke="#030D78" stroke-width="0.51046" stroke-miterlimit="10"/>
<path d="M84.374 37.363C84.8341 37.9469 95.5455 51.5351 109.863 42.5319" stroke="#030D78" stroke-width="0.51046" stroke-miterlimit="10"/>
<path d="M85.1628 58.2559C85.1628 58.2559 96.4898 67.5721 109.589 57.1593" stroke="#030D78" stroke-width="0.51046" stroke-miterlimit="10"/>
<path d="M86.5653 80.9281C86.5653 80.9281 98.7548 92.3178 112.392 80.3667" stroke="#030D78" stroke-width="0.51046" stroke-miterlimit="10"/>
<path d="M88.1862 105.714C88.1862 105.714 100.97 113.733 115.061 102.469" stroke="#030D78" stroke-width="0.51046" stroke-miterlimit="10"/>
<path d="M207.407 260.437C213.519 252.147 219.843 297.141 217.444 306.762C217.444 306.762 200.297 308.388 196.087 314.234L195.436 310.606C194.452 304.377 192.766 294.415 190.344 282.263L190.308 281.971C190.308 281.971 201.291 268.7 207.407 260.437Z" fill="#9CFF3F"/>
<path d="M206.019 348.932C206.019 348.932 206.495 352.034 207.208 356.628C202.966 353.92 199.222 350.505 196.139 346.53C198.407 348.267 201.888 349.06 206.019 348.932Z" fill="#FF334A"/>
<path d="M187.307 222.871C187.307 222.871 202.465 241.482 188.405 272.508L188.016 270.896C185.528 259.438 182.492 246.665 178.874 233.601L178.838 233.299C178.838 233.299 183.01 227.838 187.307 222.871Z" fill="#9CFF3F"/>
<path d="M195.628 310.972C195.863 312.454 196.069 313.698 196.215 314.756C194.798 318.653 193.675 322.652 192.855 326.717C191.455 331.324 190.724 337.102 193.064 342.342C193.466 343.645 194.179 344.831 195.141 345.798L192.07 346.169C192.07 346.169 73.2245 286.326 26.082 271.577C26.9879 259.187 28.5445 246.852 30.7455 234.625L30.8165 234.292C31.582 230.493 38.8707 195.234 49.2049 171.525C49.2648 171.406 49.2984 171.3 49.3583 171.182C51.1253 167.382 53.0072 163.689 55.0381 160.155C56.8893 156.926 58.9038 153.794 61.074 150.771C68.8726 139.933 78.356 131.448 89.9053 127.246C89.9053 127.246 104.342 121.124 118.53 127.273C146.705 139.484 166.44 188.622 179.018 233.945L188.16 271.25C188.988 275.107 189.752 278.823 190.428 282.346L190.464 282.647L195.628 310.972ZM180.252 249.002C180.19 248.483 180.027 247.982 179.771 247.527C179.515 247.071 179.172 246.671 178.761 246.349C178.349 246.026 177.879 245.788 177.375 245.648C176.871 245.509 176.345 245.469 175.826 245.533C174.78 245.662 173.827 246.2 173.177 247.028C172.526 247.857 172.23 248.91 172.354 249.956C172.483 251 173.021 251.951 173.85 252.6C174.679 253.248 175.733 253.541 176.778 253.415C177.297 253.354 177.798 253.191 178.253 252.936C178.708 252.681 179.109 252.338 179.431 251.928C179.754 251.518 179.992 251.049 180.133 250.547C180.274 250.045 180.314 249.52 180.252 249.002ZM178.646 316.729C179.963 316.605 181.177 315.964 182.021 314.946C182.865 313.929 183.27 312.618 183.148 311.302C183.053 310.654 182.831 310.031 182.494 309.469C182.158 308.906 181.714 308.416 181.188 308.025C180.662 307.634 180.064 307.351 179.428 307.191C178.793 307.031 178.131 306.998 177.483 307.094C176.831 307.155 176.197 307.345 175.618 307.651C175.039 307.958 174.526 308.376 174.109 308.88C173.692 309.385 173.378 309.967 173.187 310.593C172.995 311.219 172.929 311.877 172.992 312.529C173.19 313.83 173.896 314.999 174.955 315.781C176.014 316.563 177.34 316.894 178.643 316.702L178.646 316.729ZM151.176 191.17C151.047 190.125 150.509 189.174 149.68 188.526C148.85 187.877 147.797 187.584 146.752 187.71C145.707 187.837 144.755 188.372 144.105 189.2C143.455 190.027 143.161 191.079 143.287 192.123C143.413 193.167 143.949 194.119 144.777 194.77C145.605 195.42 146.657 195.716 147.703 195.592C148.75 195.463 149.703 194.926 150.353 194.097C151.004 193.268 151.3 192.216 151.176 191.17ZM155.291 276.85C155.942 276.789 156.575 276.6 157.154 276.294C157.732 275.988 158.245 275.571 158.662 275.067C159.079 274.563 159.393 273.982 159.585 273.357C159.777 272.732 159.845 272.075 159.783 271.424C159.689 270.777 159.468 270.154 159.133 269.591C158.798 269.029 158.355 268.538 157.829 268.147C157.304 267.756 156.707 267.472 156.071 267.312C155.436 267.152 154.775 267.119 154.127 267.215C153.476 267.277 152.843 267.468 152.265 267.775C151.687 268.082 151.176 268.5 150.76 269.004C150.343 269.509 150.031 270.09 149.84 270.716C149.648 271.341 149.582 271.998 149.645 272.649C149.832 273.951 150.527 275.126 151.578 275.918C152.63 276.709 153.952 277.053 155.256 276.873L155.291 276.85ZM129.259 151.145C129.133 150.101 128.597 149.15 127.769 148.501C126.941 147.852 125.888 147.558 124.843 147.684C124.325 147.746 123.824 147.909 123.369 148.164C122.914 148.419 122.513 148.761 122.191 149.171C121.868 149.581 121.629 150.051 121.489 150.553C121.348 151.055 121.307 151.58 121.37 152.098C121.431 152.616 121.595 153.118 121.851 153.573C122.106 154.028 122.45 154.429 122.861 154.751C123.272 155.073 123.743 155.311 124.247 155.451C124.75 155.591 125.277 155.63 125.795 155.566C126.83 155.429 127.77 154.891 128.411 154.068C129.053 153.245 129.345 152.204 129.224 151.168L129.259 151.145ZM120.39 231.305C121.705 231.176 122.915 230.531 123.755 229.513C124.595 228.494 124.997 227.185 124.872 225.871C124.678 224.567 123.976 223.393 122.918 222.606C121.86 221.818 120.533 221.481 119.227 221.669C117.91 221.793 116.696 222.435 115.852 223.452C115.008 224.47 114.603 225.78 114.725 227.096C114.912 228.399 115.607 229.575 116.658 230.369C117.71 231.162 119.032 231.507 120.338 231.329L120.39 231.305ZM113.332 300.191C113.122 298.714 112.336 297.381 111.144 296.483C109.953 295.585 108.454 295.195 106.976 295.399C106.239 295.473 105.525 295.691 104.873 296.041C104.221 296.392 103.644 296.867 103.176 297.44C102.707 298.012 102.357 298.672 102.144 299.38C101.93 300.088 101.859 300.832 101.933 301.567C102.036 302.3 102.283 303.005 102.658 303.642C103.034 304.279 103.532 304.836 104.123 305.281C104.714 305.726 105.387 306.05 106.104 306.235C106.82 306.42 107.566 306.462 108.299 306.358C109.784 306.204 111.147 305.468 112.09 304.312C113.033 303.157 113.48 301.675 113.332 300.191ZM98.281 186.003C98.0844 184.697 97.3782 183.522 96.3169 182.735C95.2555 181.948 93.9253 181.613 92.6172 181.803C91.9657 181.865 91.3326 182.054 90.7542 182.36C90.1758 182.666 89.6633 183.082 89.2461 183.586C88.829 184.09 88.5153 184.671 88.3229 185.296C88.1306 185.921 88.0634 186.578 88.1252 187.229C88.2191 187.877 88.4399 188.5 88.7751 189.062C89.1103 189.625 89.5533 190.115 90.0787 190.506C90.6041 190.897 91.2015 191.181 91.8368 191.341C92.4721 191.501 93.1327 191.534 93.7809 191.439C95.0963 191.31 96.3073 190.666 97.1489 189.647C97.9904 188.629 98.3942 187.319 98.2718 186.004L98.281 186.003ZM83.5434 149.29C84.8573 149.161 86.067 148.518 86.9086 147.502C87.7502 146.485 88.1553 145.178 88.0355 143.864C87.9416 143.216 87.7207 142.593 87.3855 142.031C87.0503 141.468 86.6073 140.978 86.082 140.587C85.5566 140.196 84.9592 139.912 84.3239 139.752C83.6886 139.592 83.0279 139.559 82.3798 139.654C81.727 139.716 81.0928 139.905 80.5133 140.212C79.9338 140.518 79.4204 140.936 79.0025 141.441C78.5846 141.946 78.2703 142.528 78.0777 143.154C77.885 143.78 77.8177 144.438 77.8796 145.09C78.076 146.395 78.7807 147.569 79.8401 148.355C80.8995 149.142 82.2275 149.479 83.5343 149.291L83.5434 149.29ZM83.5507 258.632C83.4501 257.9 83.2057 257.194 82.8314 256.556C82.4571 255.919 81.9604 255.361 81.3697 254.916C80.7789 254.47 80.1059 254.146 79.3893 253.961C78.6727 253.777 77.9266 253.736 77.194 253.84C75.7076 253.992 74.3422 254.727 73.397 255.883C72.4518 257.04 72.0039 258.523 72.1517 260.009C72.3618 261.487 73.1499 262.821 74.3433 263.719C75.5366 264.617 77.0377 265.006 78.5175 264.8C80.0006 264.648 81.3628 263.914 82.305 262.76C83.2472 261.605 83.6923 260.124 83.5426 258.643L83.5507 258.632ZM56.1451 225.998C55.9374 224.52 55.1513 223.186 53.9595 222.287C52.7676 221.389 51.2674 221 49.7884 221.205C48.3029 221.358 46.9385 222.093 45.9948 223.249C45.051 224.405 44.6052 225.889 44.7552 227.373C44.9652 228.85 45.7519 230.183 46.9431 231.081C48.1344 231.979 49.6334 232.369 51.112 232.165C52.5965 232.011 53.9594 231.275 54.9027 230.119C55.8459 228.964 56.2926 227.482 56.1451 225.998Z" fill="#FF532B"/>
<path d="M176.51 253.726C178.691 253.462 180.246 251.482 179.982 249.303C179.719 247.124 177.738 245.571 175.557 245.834C173.376 246.098 171.821 248.078 172.084 250.257C172.348 252.436 174.329 253.989 176.51 253.726Z" fill="#01FF9D"/>
<path d="M182.982 310.924C183.104 312.24 182.699 313.552 181.856 314.571C181.012 315.59 179.799 316.233 178.481 316.36C177.833 316.456 177.173 316.422 176.537 316.262C175.902 316.102 175.305 315.819 174.779 315.428C174.254 315.037 173.811 314.546 173.476 313.984C173.14 313.421 172.92 312.798 172.826 312.15C172.764 311.499 172.831 310.843 173.024 310.218C173.216 309.593 173.53 309.012 173.947 308.508C174.364 308.004 174.876 307.587 175.455 307.281C176.033 306.975 176.666 306.786 177.318 306.724C178.626 306.534 179.956 306.869 181.017 307.656C182.079 308.443 182.785 309.618 182.982 310.924Z" fill="#01FF9D"/>
<path d="M147.449 195.864C149.63 195.6 151.184 193.62 150.921 191.441C150.658 189.262 148.677 187.709 146.496 187.973C144.315 188.236 142.76 190.216 143.023 192.395C143.287 194.574 145.268 196.127 147.449 195.864Z" fill="#01FF9D"/>
<path d="M155.425 277.269C158.222 276.932 160.229 274.503 159.908 271.845C159.587 269.186 157.059 267.305 154.262 267.643C151.466 267.981 149.458 270.409 149.78 273.068C150.101 275.726 152.628 277.607 155.425 277.269Z" fill="#01FF9D"/>
<path d="M125.531 156.219C127.712 155.956 129.267 153.976 129.003 151.797C128.74 149.618 126.759 148.065 124.578 148.328C122.397 148.592 120.842 150.572 121.106 152.751C121.369 154.93 123.35 156.483 125.531 156.219Z" fill="#01FF9D"/>
<path d="M124.663 226.063C124.786 227.378 124.382 228.688 123.54 229.706C122.699 230.725 121.488 231.369 120.172 231.498C118.863 231.688 117.531 231.352 116.469 230.563C115.407 229.775 114.702 228.597 114.508 227.289C114.388 225.974 114.794 224.665 115.637 223.648C116.481 222.631 117.693 221.989 119.009 221.862C120.316 221.675 121.644 222.011 122.703 222.798C123.762 223.585 124.467 224.758 124.663 226.063Z" fill="#01FF9D"/>
<path d="M106.797 295.068C107.53 294.965 108.276 295.007 108.992 295.192C109.709 295.377 110.382 295.701 110.973 296.146C111.564 296.591 112.062 297.148 112.438 297.785C112.813 298.422 113.06 299.127 113.163 299.859C113.31 301.345 112.863 302.828 111.917 303.985C110.972 305.141 109.607 305.876 108.12 306.028C106.641 306.234 105.141 305.845 103.949 304.946C102.757 304.048 101.971 302.713 101.764 301.236C101.687 300.5 101.756 299.757 101.968 299.048C102.18 298.34 102.529 297.68 102.997 297.107C103.465 296.534 104.041 296.059 104.693 295.709C105.346 295.359 106.06 295.141 106.797 295.068Z" fill="#01FF9D"/>
<path d="M92.1877 181.855C93.4957 181.664 94.8259 181.999 95.8873 182.786C96.9487 183.573 97.6549 184.748 97.8514 186.054C97.974 187.371 97.5691 188.682 96.7256 189.701C95.8821 190.72 94.6686 191.364 93.3513 191.49C92.7031 191.586 92.0425 191.553 91.4072 191.393C90.7719 191.233 90.1745 190.949 89.6491 190.558C89.1238 190.167 88.6808 189.676 88.3456 189.114C88.0104 188.552 87.7895 187.929 87.6956 187.281C87.6338 186.63 87.701 185.973 87.8934 185.348C88.0857 184.723 88.3995 184.142 88.8166 183.638C89.2338 183.134 89.7462 182.717 90.3246 182.411C90.9031 182.105 91.5361 181.916 92.1877 181.855Z" fill="#01FF9D"/>
<path d="M87.675 144.028C87.7971 145.34 87.394 146.648 86.554 147.665C85.7139 148.681 84.5052 149.324 83.1921 149.453C81.8841 149.643 80.5539 149.308 79.4925 148.521C78.4311 147.734 77.7249 146.559 77.5284 145.253C77.4665 144.601 77.5337 143.943 77.7264 143.317C77.9191 142.691 78.2334 142.109 78.6513 141.604C79.0692 141.099 79.5825 140.681 80.162 140.375C80.7415 140.068 81.3757 139.879 82.0285 139.817C82.6761 139.723 83.3358 139.757 83.9701 139.918C84.6044 140.078 85.2008 140.362 85.7252 140.753C86.2495 141.145 86.6917 141.635 87.0262 142.197C87.3608 142.759 87.5813 143.381 87.675 144.028Z" fill="#01FF9D"/>
<path d="M76.9934 254.254C77.7259 254.15 78.4716 254.193 79.1877 254.378C79.9038 254.563 80.5763 254.887 81.1667 255.332C81.7572 255.777 82.254 256.334 82.6286 256.972C83.0033 257.609 83.2485 258.314 83.3502 259.046C83.4257 259.781 83.3553 260.524 83.1432 261.232C82.931 261.94 82.5811 262.599 82.1136 263.172C81.6461 263.745 81.0701 264.22 80.4186 264.571C79.7672 264.921 79.053 265.139 78.317 265.213C76.8371 265.42 75.336 265.031 74.1427 264.133C72.9494 263.235 72.1613 261.9 71.9511 260.422C71.8034 258.937 72.2512 257.453 73.1964 256.297C74.1416 255.141 75.507 254.406 76.9934 254.254Z" fill="#01FF9D"/>
<path d="M49.6519 220.842C51.1309 220.636 52.6311 221.025 53.823 221.923C55.0148 222.822 55.801 224.156 56.0087 225.634C56.1587 227.118 55.7128 228.602 54.7691 229.758C53.8254 230.915 52.461 231.649 50.9755 231.802C50.2425 231.905 49.4964 231.863 48.7798 231.678C48.0632 231.493 47.3901 231.169 46.7989 230.724C46.2077 230.279 45.7101 229.722 45.3345 229.085C44.9588 228.448 44.7125 227.743 44.6096 227.011C44.5352 226.275 44.6067 225.532 44.8198 224.823C45.033 224.115 45.3837 223.456 45.8519 222.883C46.3202 222.31 46.8968 221.835 47.5488 221.485C48.2008 221.134 48.9154 220.916 49.6519 220.842Z" fill="#01FF9D"/>
<path d="M244.03 304.895C244.03 304.895 254.752 302.673 244.044 324.436C236.371 340.003 218.364 348.563 206.018 348.932C201.888 349.06 198.407 348.267 196.138 346.53C195.73 346.219 195.355 345.867 195.019 345.479C194.185 344.418 193.488 343.257 192.942 342.024C191.921 339.182 191.194 334.312 192.732 326.389C194.26 321.376 194.886 318.113 194.886 318.113C195.341 317.624 195.683 317.042 195.89 316.407C196.097 315.773 196.163 315.101 196.084 314.438C196.077 314.383 196.123 314.303 196.154 314.253C196.185 314.203 198.584 309.104 221.166 307.248C232.569 306.288 244.03 304.895 244.03 304.895Z" fill="#9CFF3F"/>
<path d="M194.431 343.298C194.431 343.298 218.823 332.856 247.577 307.228" stroke="#030D78" stroke-width="0.51046" stroke-miterlimit="10"/>
<path d="M224.216 325.746L232.234 326.789" stroke="#030D78" stroke-width="0.51046" stroke-miterlimit="10"/>
<path d="M217.41 330.368L227.317 331.997" stroke="#030D78" stroke-width="0.51046" stroke-miterlimit="10"/>
<path d="M209.364 321.721L206.407 337.098" stroke="#030D78" stroke-width="0.51046" stroke-miterlimit="10"/>
<path d="M196.267 313.415C196.267 313.415 203.622 295.301 211.284 261.137" stroke="#030D78" stroke-width="0.51046" stroke-miterlimit="10"/>
<path d="M204.897 286.659L207.637 285.003" stroke="#030D78" stroke-width="0.51046" stroke-miterlimit="10"/>
<path d="M202.971 293.359L206.38 291.641" stroke="#030D78" stroke-width="0.51046" stroke-miterlimit="10"/>
<path d="M199.663 287.708L199.797 303.482" stroke="#030D78" stroke-width="0.51046" stroke-miterlimit="10"/>
<path d="M194.935 346.166L191.864 346.537C191.864 346.537 151.773 326.359 108.93 306.514C106.664 305.465 104.389 304.421 102.106 303.381C73.3371 290.176 44.1963 277.655 25.8727 271.917C25.8727 271.917 25.9509 270.722 26.1246 268.551" stroke="#030D78" stroke-width="0.51046" stroke-miterlimit="10"/>
<path d="M188.227 272.724C188.943 276.196 189.632 279.523 190.245 282.674C192.218 292.712 193.68 301.134 194.621 307.007C195.287 311.142 195.718 314.019 195.895 315.332C195.959 315.861 195.992 316.135 195.992 316.135C195.992 316.135 187.822 333.338 194.933 346.147" stroke="#030D78" stroke-width="0.51046" stroke-miterlimit="10"/>
<path d="M26.1145 268.543C27.7692 248.3 38.8253 143.404 91.8019 126.822C94.9658 125.831 98.2242 125.17 101.525 124.851C106.77 124.328 112.065 125.057 116.973 126.979C146.011 138.113 166.087 188.081 178.783 233.844C182.538 247.429 185.646 260.647 188.128 272.366" stroke="#030D78" stroke-width="0.51046" stroke-miterlimit="10"/>
<path d="M55.9357 226.338C55.7257 224.862 54.939 223.529 53.7477 222.631C52.5565 221.733 51.0576 221.343 49.579 221.546C48.0945 221.7 46.7315 222.436 45.7883 223.592C44.8451 224.748 44.3983 226.23 44.5459 227.714C44.7558 229.19 45.5425 230.523 46.7338 231.421C47.9251 232.319 49.424 232.709 50.9026 232.506C52.3871 232.351 53.75 231.616 54.6933 230.46C55.6365 229.304 56.0832 227.822 55.9357 226.338V226.338Z" stroke="#030D78" stroke-width="0.51046" stroke-miterlimit="10"/>
<path d="M83.3173 259.004C83.2168 258.271 82.9724 257.565 82.5981 256.928C82.2238 256.29 81.727 255.732 81.1363 255.287C80.5456 254.842 79.8726 254.517 79.156 254.333C78.4394 254.148 77.6933 254.107 76.9606 254.211C75.4751 254.363 74.1107 255.098 73.167 256.255C72.2233 257.411 71.7774 258.895 71.9274 260.379C72.1374 261.855 72.9241 263.188 74.1154 264.086C75.3067 264.985 76.8056 265.375 78.2842 265.171C79.7697 265.019 81.1341 264.284 82.0779 263.128C83.0216 261.971 83.4674 260.488 83.3173 259.004V259.004Z" stroke="#030D78" stroke-width="0.51046" stroke-miterlimit="10"/>
<path d="M108.924 306.542C110.221 306.208 111.355 305.42 112.12 304.321C112.884 303.221 113.228 301.885 113.089 300.554C112.879 299.077 112.092 297.744 110.901 296.846C109.71 295.948 108.211 295.558 106.732 295.762C105.996 295.836 105.281 296.054 104.629 296.404C103.977 296.755 103.4 297.23 102.932 297.802C102.464 298.375 102.113 299.035 101.9 299.743C101.687 300.451 101.615 301.195 101.69 301.93C101.748 302.442 101.886 302.941 102.1 303.41C102.603 304.532 103.455 305.461 104.531 306.057C105.606 306.654 106.846 306.887 108.065 306.72C108.356 306.688 108.644 306.628 108.924 306.542V306.542Z" stroke="#030D78" stroke-width="0.51046" stroke-miterlimit="10"/>
<path d="M98.0374 186.366C97.8408 185.06 97.1346 183.885 96.0732 183.098C95.0119 182.311 93.6817 181.976 92.3736 182.166C91.7221 182.228 91.089 182.417 90.5106 182.723C89.9322 183.029 89.4197 183.446 89.0025 183.95C88.5854 184.453 88.2717 185.034 88.0793 185.659C87.887 186.285 87.8197 186.941 87.8815 187.592C87.9754 188.24 88.1963 188.863 88.5315 189.425C88.8667 189.988 89.3097 190.479 89.835 190.87C90.3604 191.261 90.9579 191.544 91.5932 191.704C92.2284 191.864 92.8891 191.897 93.5373 191.802C94.8546 191.675 96.068 191.032 96.9115 190.013C97.7551 188.994 98.1599 187.682 98.0374 186.366V186.366Z" stroke="#030D78" stroke-width="0.51046" stroke-miterlimit="10"/>
<path d="M124.585 226.257C124.391 224.954 123.688 223.78 122.63 222.992C121.572 222.205 120.245 221.868 118.939 222.056C117.623 222.18 116.409 222.821 115.565 223.839C114.721 224.856 114.316 226.167 114.438 227.483C114.533 228.131 114.755 228.754 115.092 229.316C115.428 229.879 115.872 230.369 116.398 230.76C116.924 231.151 117.522 231.434 118.158 231.594C118.793 231.754 119.455 231.787 120.103 231.691C121.418 231.563 122.628 230.918 123.468 229.9C124.308 228.881 124.71 227.571 124.585 226.257V226.257Z" stroke="#030D78" stroke-width="0.51046" stroke-miterlimit="10"/>
<path d="M155.021 277.226C157.818 276.888 159.825 274.459 159.504 271.801C159.183 269.143 156.655 267.262 153.858 267.599C151.061 267.937 149.054 270.366 149.375 273.024C149.696 275.682 152.224 277.564 155.021 277.226Z" stroke="#030D78" stroke-width="0.51046" stroke-miterlimit="10"/>
<path d="M182.91 311.637C182.815 310.989 182.593 310.366 182.257 309.803C181.92 309.241 181.477 308.75 180.951 308.36C180.424 307.969 179.826 307.685 179.191 307.526C178.555 307.366 177.894 307.333 177.245 307.428C176.593 307.49 175.959 307.679 175.38 307.986C174.801 308.293 174.288 308.71 173.871 309.215C173.454 309.72 173.141 310.302 172.949 310.928C172.757 311.554 172.691 312.212 172.754 312.863C172.849 313.51 173.071 314.132 173.406 314.693C173.742 315.255 174.185 315.744 174.71 316.134C175.235 316.525 175.832 316.807 176.467 316.967C177.101 317.126 177.761 317.159 178.409 317.064C179.725 316.94 180.939 316.298 181.783 315.281C182.627 314.263 183.032 312.953 182.91 311.637Z" stroke="#030D78" stroke-width="0.51046" stroke-miterlimit="10"/>
<path d="M87.7918 144.227C87.6979 143.579 87.477 142.956 87.1418 142.394C86.8066 141.831 86.3636 141.341 85.8383 140.95C85.3129 140.559 84.7155 140.275 84.0802 140.115C83.4449 139.955 82.7842 139.922 82.136 140.017C81.4833 140.079 80.8491 140.268 80.2696 140.575C79.6901 140.881 79.1768 141.299 78.7588 141.804C78.3409 142.309 78.0267 142.891 77.834 143.517C77.6413 144.143 77.574 144.801 77.6359 145.453C77.8325 146.759 78.5387 147.934 79.6001 148.721C80.6614 149.508 81.9916 149.843 83.2997 149.653C84.6136 149.524 85.8233 148.881 86.6649 147.865C87.5065 146.848 87.9116 145.541 87.7918 144.227V144.227Z" stroke="#030D78" stroke-width="0.51046" stroke-miterlimit="10"/>
<path d="M125.527 155.951C127.708 155.688 129.262 153.708 128.999 151.528C128.736 149.349 126.755 147.796 124.574 148.06C122.393 148.323 120.838 150.303 121.101 152.482C121.364 154.661 123.346 156.214 125.527 155.951Z" stroke="#030D78" stroke-width="0.51046" stroke-miterlimit="10"/>
<path d="M147.432 195.959C149.613 195.695 151.168 193.715 150.905 191.536C150.642 189.357 148.66 187.804 146.479 188.068C144.298 188.331 142.744 190.311 143.007 192.49C143.27 194.669 145.251 196.222 147.432 195.959Z" stroke="#030D78" stroke-width="0.51046" stroke-miterlimit="10"/>
<path d="M176.54 253.75C178.721 253.486 180.276 251.506 180.013 249.327C179.75 247.148 177.768 245.595 175.587 245.859C173.406 246.122 171.852 248.102 172.115 250.281C172.378 252.46 174.359 254.013 176.54 253.75Z" stroke="#030D78" stroke-width="0.51046" stroke-miterlimit="10"/>
<path d="M188.153 272.418L178.729 234.008C178.76 233.974 178.786 233.937 178.808 233.896C179.45 233.068 183.321 228.106 187.239 223.612C187.239 223.612 202.39 242.168 188.336 273.24L188.276 272.746L188.153 272.418Z" stroke="#030D78" stroke-width="0.51046" stroke-miterlimit="10"/>
<path d="M196.042 314.934L194.624 307.034L190.248 282.701C190.248 282.701 201.222 269.431 207.338 261.178C213.455 252.924 219.621 296.76 217.443 307.142" stroke="#030D78" stroke-width="0.51046" stroke-miterlimit="10"/>
<path d="M208.455 308.978C203.609 310.092 198.198 311.977 196.058 314.914" stroke="#030D78" stroke-width="0.51046" stroke-miterlimit="10"/>
<path d="M208.535 308.95C211.449 308.097 214.426 307.48 217.439 307.105C219.879 306.798 222.335 306.622 224.795 306.579C231.432 306.471 238.04 305.673 244.512 304.197C244.512 304.197 254.62 303.421 243.935 325.144C236.263 340.721 218.264 349.27 205.909 349.641C201.011 349.787 197.017 348.657 194.89 346.171C194.395 345.759 187.433 339.26 195.882 315.38L196.026 314.955C196.346 314.684 200.342 311.376 208.423 309.019" stroke="#030D78" stroke-width="0.51046" stroke-miterlimit="10"/>
<path d="M205.951 349.682C205.951 349.682 206.429 352.793 207.15 357.376" stroke="#030D78" stroke-width="0.51046" stroke-miterlimit="10"/>
</svg>

