<svg width="829" height="196" viewBox="0 0 829 196" fill="none" xmlns="http://www.w3.org/2000/svg">
<g filter="url(#filter0_d_200_2601)">
<path d="M0.36475 75H56.7168L56.8128 54.744H23.6927V49.08H50.6688V33.432H23.6927V28.056H56.8128L56.7168 7.8H0.36475V75ZM63.6992 75H87.0273V46.584C87.0273 41.4 89.1393 38.904 92.7873 38.904C96.5313 38.904 98.6433 41.304 98.6433 45.72V75H121.971V46.584C121.971 41.4 123.987 38.904 127.731 38.904C131.475 38.904 133.587 41.304 133.587 45.72V75H156.915V44.856C156.915 31.992 148.755 22.2 134.547 22.2C126.195 22.2 120.147 26.04 116.691 31.608H116.115C112.659 25.944 106.611 22.2 97.9713 22.2C89.6193 22.2 83.1873 26.04 79.2513 31.608H78.9633L65.8113 23.64H63.6992V75ZM205.743 76.44C216.207 76.44 223.119 68.76 224.175 59.544H225.039V75H248.463V23.64H246.351L231.759 32.472H231.471C226.863 26.232 219.471 22.2 210.159 22.2C194.511 22.2 183.855 34.488 183.855 49.368C183.855 65.4 192.111 76.44 205.743 76.44ZM217.455 58.488C212.079 58.488 208.431 54.168 208.431 49.08C208.431 43.992 212.175 39.576 217.551 39.576C222.927 39.576 226.479 43.896 226.479 48.984C226.479 54.072 222.831 58.488 217.455 58.488ZM255.05 75H278.378V0.119997H255.05V75ZM310.579 97.56C335.443 97.56 348.307 82.296 348.307 68.376V23.64H346.099L331.603 32.472H331.315C326.707 26.136 319.411 22.2 310.003 22.2C294.259 22.2 283.699 34.296 283.699 48.888C283.699 64.728 292.819 74.712 306.451 74.712C316.915 74.712 322.963 67.416 324.019 58.968H324.883V61.08C324.883 68.76 318.259 77.784 307.603 77.784C300.595 77.784 295.411 76.632 288.595 72.792L283.987 92.568C290.803 95.448 302.419 97.56 310.579 97.56ZM317.299 58.488C311.923 58.488 308.275 54.168 308.275 49.08C308.275 43.992 312.019 39.576 317.395 39.576C322.771 39.576 326.323 43.896 326.323 48.984C326.323 54.072 322.675 58.488 317.299 58.488ZM374.286 76.44C384.462 76.44 390.51 70.776 392.238 63.48H393.102V75H416.43V23.64H393.102V51.768C393.102 57.912 390.03 61.464 385.518 61.464C381.102 61.464 377.742 58.104 377.742 52.632V23.64H354.318V56.76C354.318 67.8 361.806 76.44 374.286 76.44ZM422.48 75H445.809V46.584C445.809 41.4 447.921 38.904 451.569 38.904C455.313 38.904 457.425 41.304 457.425 45.72V75H480.753V46.584C480.753 41.4 482.769 38.904 486.513 38.904C490.257 38.904 492.369 41.304 492.369 45.72V75H515.697V44.856C515.697 31.992 507.537 22.2 493.329 22.2C484.977 22.2 478.929 26.04 475.473 31.608H474.897C471.441 25.944 465.393 22.2 456.753 22.2C448.401 22.2 441.969 26.04 438.033 31.608H437.745L424.593 23.64H422.48V75ZM544.269 75H567.597V0.119997H544.269V75ZM593.942 76.44C604.118 76.44 610.166 70.776 611.894 63.48H612.758V75H636.086V23.64H612.758V51.768C612.758 57.912 609.686 61.464 605.174 61.464C600.758 61.464 597.398 58.104 597.398 52.632V23.64H573.974V56.76C573.974 67.8 581.462 76.44 593.942 76.44ZM667.673 97.56C692.537 97.56 705.401 82.296 705.401 68.376V23.64H703.193L688.697 32.472H688.409C683.801 26.136 676.505 22.2 667.097 22.2C651.353 22.2 640.793 34.296 640.793 48.888C640.793 64.728 649.913 74.712 663.545 74.712C674.009 74.712 680.057 67.416 681.113 58.968H681.977V61.08C681.977 68.76 675.353 77.784 664.697 77.784C657.689 77.784 652.505 76.632 645.689 72.792L641.081 92.568C647.897 95.448 659.513 97.56 667.673 97.56ZM674.393 58.488C669.017 58.488 665.369 54.168 665.369 49.08C665.369 43.992 669.113 39.576 674.489 39.576C679.865 39.576 683.417 43.896 683.417 48.984C683.417 54.072 679.769 58.488 674.393 58.488ZM732.243 76.44C742.707 76.44 749.619 68.76 750.675 59.544H751.539V75H774.963V23.64H772.851L758.259 32.472H757.971C753.363 26.232 745.971 22.2 736.659 22.2C721.011 22.2 710.355 34.488 710.355 49.368C710.355 65.4 718.611 76.44 732.243 76.44ZM743.955 58.488C738.579 58.488 734.931 54.168 734.931 49.08C734.931 43.992 738.675 39.576 744.051 39.576C749.427 39.576 752.979 43.896 752.979 48.984C752.979 54.072 749.331 58.488 743.955 58.488ZM781.262 75H804.59V54.168C804.59 45.144 810.83 40.248 817.07 40.248C821.294 40.248 824.558 41.496 826.574 43.32V24.024C823.502 22.776 819.95 22.2 816.206 22.2C807.854 22.2 800.75 26.136 797.006 31.8H796.91L783.374 23.64H781.262V75ZM10.5899 171H34.0139V144.504C34.0139 138.36 37.0859 134.904 41.5979 134.904C46.0139 134.904 49.3739 138.168 49.3739 143.64V171H72.7979V140.856C72.7979 127.992 61.9499 118.2 47.5499 118.2C38.9099 118.2 31.4219 122.232 26.8139 128.088H26.7179L12.7979 119.64H10.5899V171ZM108.216 172.44C115.608 172.44 122.52 171 127.032 169.848L125.016 153.528C120.024 155.256 115.608 156.024 110.232 156.024C103.224 156.024 99.8639 153.816 98.3279 150.84H132.504C132.888 149.496 133.368 145.848 133.368 144.312C133.368 130.488 121.944 118.2 105.912 118.2C88.9199 118.2 77.3999 130.296 77.3999 145.176C77.3999 157.464 85.8479 172.44 108.216 172.44ZM97.5599 141.912C98.5199 137.4 101.592 134.808 106.296 134.808C111.288 134.808 114.456 138.936 113.88 141.912H97.5599ZM161.867 172.44C177.803 172.44 185.963 165.24 185.963 154.872C185.963 146.328 180.491 140.856 167.819 138.744C161.867 137.688 160.235 136.92 160.235 135.48C160.235 133.944 162.155 133.464 166.091 133.464C170.219 133.464 177.323 135.096 180.107 136.92V121.56C175.691 119.736 170.507 118.2 159.851 118.2C144.779 118.2 136.811 125.304 136.811 134.712C136.811 143.544 143.339 149.112 154.379 151.224C161.099 152.472 162.347 153.144 162.347 154.392C162.347 155.736 160.715 156.312 155.723 156.312C150.443 156.312 141.995 154.008 136.811 150.264L132.395 166.68C140.459 170.52 150.731 172.44 161.867 172.44ZM225.545 172.44C227.465 172.44 232.169 172.152 234.281 171.576V151.32C233.129 151.992 230.153 152.856 228.329 152.856C223.913 152.856 220.841 150.168 220.841 145.272V137.112H234.953V119.64H220.841V103.992H216.425L188.009 124.632V137.112H197.513V151.992C197.513 168.024 209.993 172.44 225.545 172.44ZM259.978 172.44C270.442 172.44 277.354 164.76 278.41 155.544H279.274V171H302.698V119.64H300.586L285.994 128.472H285.706C281.098 122.232 273.706 118.2 264.394 118.2C248.746 118.2 238.09 130.488 238.09 145.368C238.09 161.4 246.346 172.44 259.978 172.44ZM271.69 154.488C266.314 154.488 262.666 150.168 262.666 145.08C262.666 139.992 266.41 135.576 271.786 135.576C277.162 135.576 280.714 139.896 280.714 144.984C280.714 150.072 277.066 154.488 271.69 154.488ZM356.751 193.56C381.615 193.56 394.479 178.296 394.479 164.376V119.64H392.271L377.775 128.472H377.487C372.879 122.136 365.583 118.2 356.175 118.2C340.431 118.2 329.871 130.296 329.871 144.888C329.871 160.728 338.991 170.712 352.623 170.712C363.087 170.712 369.135 163.416 370.191 154.968H371.055V157.08C371.055 164.76 364.431 173.784 353.775 173.784C346.767 173.784 341.583 172.632 334.767 168.792L330.159 188.568C336.975 191.448 348.591 193.56 356.751 193.56ZM363.471 154.488C358.095 154.488 354.447 150.168 354.447 145.08C354.447 139.992 358.191 135.576 363.567 135.576C368.943 135.576 372.495 139.896 372.495 144.984C372.495 150.072 368.847 154.488 363.471 154.488ZM421.321 172.44C431.785 172.44 438.697 164.76 439.753 155.544H440.617V171H464.041V119.64H461.929L447.337 128.472H447.049C442.441 122.232 435.049 118.2 425.737 118.2C410.089 118.2 399.433 130.488 399.433 145.368C399.433 161.4 407.689 172.44 421.321 172.44ZM433.033 154.488C427.657 154.488 424.009 150.168 424.009 145.08C424.009 139.992 427.753 135.576 433.129 135.576C438.505 135.576 442.057 139.896 442.057 144.984C442.057 150.072 438.409 154.488 433.033 154.488ZM470.628 171H493.956V96.12H470.628V171ZM527.117 115.8H536.909L546.893 97.752H532.109L527.117 115.8ZM521.165 172.44C531.629 172.44 538.541 164.76 539.597 155.544H540.461V171H563.885V119.64H561.773L547.757 128.472H546.893C542.285 122.232 534.893 118.2 525.581 118.2C509.933 118.2 499.277 130.488 499.277 145.368C499.277 161.4 507.533 172.44 521.165 172.44ZM532.877 154.488C527.501 154.488 523.853 150.168 523.853 145.08C523.853 139.992 527.597 135.576 532.973 135.576C538.349 135.576 541.901 139.896 541.901 144.984C541.901 150.072 538.253 154.488 532.877 154.488ZM566.632 171H590.44L597.544 158.616H598.504L605.608 171H629.416L613 144.888L628.936 119.64H605.128L598.504 130.776H597.544L591.016 119.64H567.208L583.048 144.792L566.632 171ZM643.19 117.816C650.198 117.816 655.382 112.632 655.382 106.296C655.382 99.864 650.198 94.68 643.19 94.68C636.182 94.68 630.998 99.864 630.998 106.296C630.998 112.632 636.182 117.816 643.19 117.816ZM631.382 171H654.806V119.64H631.382V171ZM681.009 172.44C691.473 172.44 698.385 164.76 699.441 155.544H700.305V171H723.729V119.64H721.617L707.025 128.472H706.737C702.129 122.232 694.737 118.2 685.425 118.2C669.777 118.2 659.121 130.488 659.121 145.368C659.121 161.4 667.377 172.44 681.009 172.44ZM692.721 154.488C687.345 154.488 683.697 150.168 683.697 145.08C683.697 139.992 687.441 135.576 692.817 135.576C698.193 135.576 701.745 139.896 701.745 144.984C701.745 150.072 698.097 154.488 692.721 154.488ZM741.931 172.44C747.883 172.44 752.971 167.832 752.971 161.208C752.971 154.776 747.883 150.072 741.931 150.072C735.787 150.072 730.699 154.776 730.699 161.208C730.699 167.832 735.787 172.44 741.931 172.44ZM771.838 172.44C777.79 172.44 782.878 167.832 782.878 161.208C782.878 154.776 777.79 150.072 771.838 150.072C765.694 150.072 760.606 154.776 760.606 161.208C760.606 167.832 765.694 172.44 771.838 172.44ZM801.744 172.44C807.696 172.44 812.784 167.832 812.784 161.208C812.784 154.776 807.696 150.072 801.744 150.072C795.6 150.072 790.512 154.776 790.512 161.208C790.512 167.832 795.6 172.44 801.744 172.44Z" fill="white"/>
<path d="M0.36475 75H-1.63525V77H0.36475V75ZM56.7168 75V77H58.7073L58.7167 75.0095L56.7168 75ZM56.8128 54.744L58.8127 54.7535L58.8223 52.744H56.8128V54.744ZM23.6927 54.744H21.6927V56.744H23.6927V54.744ZM23.6927 49.08V47.08H21.6927V49.08H23.6927ZM50.6688 49.08V51.08H52.6688V49.08H50.6688ZM50.6688 33.432H52.6688V31.432H50.6688V33.432ZM23.6927 33.432H21.6927V35.432H23.6927V33.432ZM23.6927 28.056V26.056H21.6927V28.056H23.6927ZM56.8128 28.056V30.056H58.8223L58.8127 28.0465L56.8128 28.056ZM56.7168 7.8L58.7167 7.79052L58.7073 5.8H56.7168V7.8ZM0.36475 7.8V5.8H-1.63525V7.8H0.36475ZM0.36475 77H56.7168V73H0.36475V77ZM58.7167 75.0095L58.8127 54.7535L54.8128 54.7345L54.7168 74.9905L58.7167 75.0095ZM56.8128 52.744H23.6927V56.744H56.8128V52.744ZM25.6927 54.744V49.08H21.6927V54.744H25.6927ZM23.6927 51.08H50.6688V47.08H23.6927V51.08ZM52.6688 49.08V33.432H48.6688V49.08H52.6688ZM50.6688 31.432H23.6927V35.432H50.6688V31.432ZM25.6927 33.432V28.056H21.6927V33.432H25.6927ZM23.6927 30.056H56.8128V26.056H23.6927V30.056ZM58.8127 28.0465L58.7167 7.79052L54.7168 7.80947L54.8128 28.0655L58.8127 28.0465ZM56.7168 5.8H0.36475V9.8H56.7168V5.8ZM-1.63525 7.8V75H2.36475V7.8H-1.63525ZM63.6992 75H61.6992V77H63.6992V75ZM87.0273 75V77H89.0273V75H87.0273ZM98.6433 75H96.6433V77H98.6433V75ZM121.971 75V77H123.971V75H121.971ZM133.587 75H131.587V77H133.587V75ZM156.915 75V77H158.915V75H156.915ZM116.691 31.608V33.608H117.804L118.391 32.6627L116.691 31.608ZM116.115 31.608L114.408 32.6497L114.993 33.608H116.115V31.608ZM79.2513 31.608V33.608H80.2867L80.8844 32.7625L79.2513 31.608ZM78.9633 31.608L77.9269 33.3186L78.4047 33.608H78.9633V31.608ZM65.8113 23.64L66.8476 21.9294L66.3698 21.64H65.8113V23.64ZM63.6992 23.64V21.64H61.6992V23.64H63.6992ZM63.6992 77H87.0273V73H63.6992V77ZM89.0273 75V46.584H85.0273V75H89.0273ZM89.0273 46.584C89.0273 44.2165 89.5169 42.8048 90.1212 42.0237C90.6581 41.3296 91.4614 40.904 92.7873 40.904V36.904C90.4651 36.904 88.3884 37.7264 86.9573 39.5763C85.5936 41.3392 85.0273 43.7675 85.0273 46.584H89.0273ZM92.7873 40.904C94.2118 40.904 95.0696 41.3432 95.6063 41.9641C96.1823 42.6303 96.6433 43.8011 96.6433 45.72H100.643C100.643 43.2229 100.048 40.9857 98.6322 39.3479C97.1769 37.6648 95.1067 36.904 92.7873 36.904V40.904ZM96.6433 45.72V75H100.643V45.72H96.6433ZM98.6433 77H121.971V73H98.6433V77ZM123.971 75V46.584H119.971V75H123.971ZM123.971 46.584C123.971 44.1977 124.444 42.7891 125.036 42.0143C125.553 41.3378 126.344 40.904 127.731 40.904V36.904C125.374 36.904 123.285 37.7182 121.858 39.5857C120.506 41.3549 119.971 43.7863 119.971 46.584H123.971ZM127.731 40.904C129.156 40.904 130.014 41.3432 130.55 41.9641C131.126 42.6303 131.587 43.8011 131.587 45.72H135.587C135.587 43.2229 134.992 40.9857 133.576 39.3479C132.121 37.6648 130.051 36.904 127.731 36.904V40.904ZM131.587 45.72V75H135.587V45.72H131.587ZM133.587 77H156.915V73H133.587V77ZM158.915 75V44.856H154.915V75H158.915ZM158.915 44.856C158.915 38.0045 156.738 31.8212 152.516 27.3335C148.277 22.8282 142.134 20.2 134.547 20.2V24.2C141.169 24.2 146.209 26.4678 149.603 30.0745C153.013 33.6988 154.915 38.8434 154.915 44.856H158.915ZM134.547 20.2C125.508 20.2 118.815 24.3934 114.992 30.5533L118.391 32.6627C121.479 27.6866 126.882 24.2 134.547 24.2V20.2ZM116.691 29.608H116.115V33.608H116.691V29.608ZM117.823 30.5663C113.982 24.2722 107.267 20.2 97.9713 20.2V24.2C105.956 24.2 111.336 27.6157 114.408 32.6497L117.823 30.5663ZM97.9713 20.2C88.9488 20.2 81.9166 24.3727 77.6181 30.4535L80.8844 32.7625C84.4579 27.7073 90.2897 24.2 97.9713 24.2V20.2ZM79.2513 29.608H78.9633V33.608H79.2513V29.608ZM79.9996 29.8974L66.8476 21.9294L64.7749 25.3506L77.9269 33.3186L79.9996 29.8974ZM65.8113 21.64H63.6992V25.64H65.8113V21.64ZM61.6992 23.64V75H65.6992V23.64H61.6992ZM224.175 59.544V57.544H222.391L222.188 59.3163L224.175 59.544ZM225.039 59.544H227.039V57.544H225.039V59.544ZM225.039 75H223.039V77H225.039V75ZM248.463 75V77H250.463V75H248.463ZM248.463 23.64H250.463V21.64H248.463V23.64ZM246.351 23.64V21.64H245.793L245.316 21.929L246.351 23.64ZM231.759 32.472V34.472H232.317L232.795 34.183L231.759 32.472ZM231.471 32.472L229.862 33.6601L230.462 34.472H231.471V32.472ZM205.743 78.44C217.369 78.44 225.008 69.8462 226.162 59.7717L222.188 59.3163C221.231 67.6738 215.045 74.44 205.743 74.44V78.44ZM224.175 61.544H225.039V57.544H224.175V61.544ZM223.039 59.544V75H227.039V59.544H223.039ZM225.039 77H248.463V73H225.039V77ZM250.463 75V23.64H246.463V75H250.463ZM248.463 21.64H246.351V25.64H248.463V21.64ZM245.316 21.929L230.724 30.761L232.795 34.183L247.387 25.351L245.316 21.929ZM231.759 30.472H231.471V34.472H231.759V30.472ZM233.08 31.2839C228.086 24.5212 220.091 20.2 210.159 20.2V24.2C218.852 24.2 225.64 27.9428 229.862 33.6601L233.08 31.2839ZM210.159 20.2C193.286 20.2 181.855 33.5086 181.855 49.368H185.855C185.855 35.4674 195.737 24.2 210.159 24.2V20.2ZM181.855 49.368C181.855 57.7052 184 64.95 188.119 70.1567C192.275 75.4122 198.331 78.44 205.743 78.44V74.44C199.523 74.44 194.635 71.9478 191.256 67.6753C187.838 63.354 185.855 57.0628 185.855 49.368H181.855ZM217.455 56.488C213.332 56.488 210.431 53.2172 210.431 49.08H206.431C206.431 55.1188 210.827 60.488 217.455 60.488V56.488ZM210.431 49.08C210.431 44.9451 213.425 41.576 217.551 41.576V37.576C210.925 37.576 206.431 43.0389 206.431 49.08H210.431ZM217.551 41.576C221.648 41.576 224.479 44.8169 224.479 48.984H228.479C228.479 42.9751 224.207 37.576 217.551 37.576V41.576ZM224.479 48.984C224.479 53.1484 221.554 56.488 217.455 56.488V60.488C224.108 60.488 228.479 54.9956 228.479 48.984H224.479ZM255.05 75H253.05V77H255.05V75ZM278.378 75V77H280.378V75H278.378ZM278.378 0.119997H280.378V-1.88H278.378V0.119997ZM255.05 0.119997V-1.88H253.05V0.119997H255.05ZM255.05 77H278.378V73H255.05V77ZM280.378 75V0.119997H276.378V75H280.378ZM278.378 -1.88H255.05V2.12H278.378V-1.88ZM253.05 0.119997V75H257.05V0.119997H253.05ZM348.307 23.64H350.307V21.64H348.307V23.64ZM346.099 23.64V21.64H345.538L345.058 21.932L346.099 23.64ZM331.603 32.472V34.472H332.164L332.644 34.18L331.603 32.472ZM331.315 32.472L329.698 33.6483L330.297 34.472H331.315V32.472ZM324.019 58.968V56.968H322.253L322.034 58.7199L324.019 58.968ZM324.883 58.968H326.883V56.968H324.883V58.968ZM288.595 72.792L289.577 71.0495L287.253 69.7401L286.647 72.3381L288.595 72.792ZM283.987 92.568L282.039 92.1141L281.657 93.7547L283.209 94.4103L283.987 92.568ZM310.579 99.56C336.296 99.56 350.307 83.636 350.307 68.376H346.307C346.307 80.956 334.59 95.56 310.579 95.56V99.56ZM350.307 68.376V23.64H346.307V68.376H350.307ZM348.307 21.64H346.099V25.64H348.307V21.64ZM345.058 21.932L330.562 30.764L332.644 34.18L347.14 25.348L345.058 21.932ZM331.603 30.472H331.315V34.472H331.603V30.472ZM332.932 31.2957C327.931 24.4181 320.021 20.2 310.003 20.2V24.2C318.801 24.2 325.483 27.8539 329.698 33.6483L332.932 31.2957ZM310.003 20.2C293.06 20.2 281.699 33.2883 281.699 48.888H285.699C285.699 35.3037 295.458 24.2 310.003 24.2V20.2ZM281.699 48.888C281.699 57.1843 284.091 64.1504 288.469 69.0697C292.867 74.0111 299.119 76.712 306.451 76.712V72.712C300.151 72.712 295.027 70.4209 291.457 66.4103C287.867 62.3776 285.699 56.4317 285.699 48.888H281.699ZM306.451 76.712C318.096 76.712 324.845 68.4841 326.004 59.2161L322.034 58.7199C321.081 66.3479 315.734 72.712 306.451 72.712V76.712ZM324.019 60.968H324.883V56.968H324.019V60.968ZM322.883 58.968V61.08H326.883V58.968H322.883ZM322.883 61.08C322.883 67.7965 317.018 75.784 307.603 75.784V79.784C319.5 79.784 326.883 69.7235 326.883 61.08H322.883ZM307.603 75.784C300.917 75.784 296.075 74.7103 289.577 71.0495L287.613 74.5345C294.747 78.5537 300.273 79.784 307.603 79.784V75.784ZM286.647 72.3381L282.039 92.1141L285.935 93.0219L290.543 73.2459L286.647 72.3381ZM283.209 94.4103C290.31 97.4107 302.197 99.56 310.579 99.56V95.56C302.641 95.56 291.296 93.4853 284.765 90.7257L283.209 94.4103ZM317.299 56.488C313.175 56.488 310.275 53.2172 310.275 49.08H306.275C306.275 55.1188 310.671 60.488 317.299 60.488V56.488ZM310.275 49.08C310.275 44.9451 313.269 41.576 317.395 41.576V37.576C310.769 37.576 306.275 43.0389 306.275 49.08H310.275ZM317.395 41.576C321.491 41.576 324.323 44.8169 324.323 48.984H328.323C328.323 42.9751 324.051 37.576 317.395 37.576V41.576ZM324.323 48.984C324.323 53.1484 321.398 56.488 317.299 56.488V60.488C323.952 60.488 328.323 54.9956 328.323 48.984H324.323ZM392.238 63.48V61.48H390.656L390.291 63.0191L392.238 63.48ZM393.102 63.48H395.102V61.48H393.102V63.48ZM393.102 75H391.102V77H393.102V75ZM416.43 75V77H418.43V75H416.43ZM416.43 23.64H418.43V21.64H416.43V23.64ZM393.102 23.64V21.64H391.102V23.64H393.102ZM377.742 23.64H379.742V21.64H377.742V23.64ZM354.318 23.64V21.64H352.318V23.64H354.318ZM374.286 78.44C379.755 78.44 384.258 76.9124 387.656 74.2761C391.049 71.6427 393.224 67.991 394.184 63.9409L390.291 63.0191C389.523 66.265 387.81 69.0933 385.203 71.1159C382.601 73.1356 378.992 74.44 374.286 74.44V78.44ZM392.238 65.48H393.102V61.48H392.238V65.48ZM391.102 63.48V75H395.102V63.48H391.102ZM393.102 77H416.43V73H393.102V77ZM418.43 75V23.64H414.43V75H418.43ZM416.43 21.64H393.102V25.64H416.43V21.64ZM391.102 23.64V51.768H395.102V23.64H391.102ZM391.102 51.768C391.102 54.528 390.411 56.4637 389.443 57.6665C388.512 58.8245 387.202 59.464 385.518 59.464V63.464C388.345 63.464 390.827 62.3275 392.56 60.1735C394.256 58.0643 395.102 55.152 395.102 51.768H391.102ZM385.518 59.464C383.839 59.464 382.442 58.8369 381.45 57.7512C380.45 56.6562 379.742 54.9573 379.742 52.632H375.742C375.742 55.7787 376.713 58.4958 378.497 60.4488C380.289 62.4111 382.78 63.464 385.518 63.464V59.464ZM379.742 52.632V23.64H375.742V52.632H379.742ZM377.742 21.64H354.318V25.64H377.742V21.64ZM352.318 23.64V56.76H356.318V23.64H352.318ZM352.318 56.76C352.318 62.7344 354.349 68.1746 358.186 72.1321C362.034 76.1014 367.564 78.44 374.286 78.44V74.44C368.527 74.44 364.073 72.4586 361.057 69.3479C358.03 66.2254 356.318 61.8256 356.318 56.76H352.318ZM422.48 75H420.48V77H422.48V75ZM445.809 75V77H447.809V75H445.809ZM457.425 75H455.425V77H457.425V75ZM480.753 75V77H482.753V75H480.753ZM492.369 75H490.369V77H492.369V75ZM515.697 75V77H517.697V75H515.697ZM475.473 31.608V33.608H476.585L477.172 32.6627L475.473 31.608ZM474.897 31.608L473.189 32.6497L473.774 33.608H474.897V31.608ZM438.033 31.608V33.608H439.068L439.666 32.7625L438.033 31.608ZM437.745 31.608L436.708 33.3186L437.186 33.608H437.745V31.608ZM424.593 23.64L425.629 21.9294L425.151 21.64H424.593V23.64ZM422.48 23.64V21.64H420.48V23.64H422.48ZM422.48 77H445.809V73H422.48V77ZM447.809 75V46.584H443.809V75H447.809ZM447.809 46.584C447.809 44.2165 448.298 42.8048 448.902 42.0237C449.439 41.3296 450.243 40.904 451.569 40.904V36.904C449.246 36.904 447.17 37.7264 445.739 39.5763C444.375 41.3392 443.809 43.7675 443.809 46.584H447.809ZM451.569 40.904C452.993 40.904 453.851 41.3432 454.388 41.9641C454.964 42.6303 455.425 43.8011 455.425 45.72H459.425C459.425 43.2229 458.829 40.9857 457.413 39.3479C455.958 37.6648 453.888 36.904 451.569 36.904V40.904ZM455.425 45.72V75H459.425V45.72H455.425ZM457.425 77H480.753V73H457.425V77ZM482.753 75V46.584H478.753V75H482.753ZM482.753 46.584C482.753 44.1977 483.226 42.7891 483.818 42.0143C484.335 41.3378 485.126 40.904 486.513 40.904V36.904C484.155 36.904 482.066 37.7182 480.639 39.5857C479.287 41.3549 478.753 43.7863 478.753 46.584H482.753ZM486.513 40.904C487.937 40.904 488.795 41.3432 489.332 41.9641C489.908 42.6303 490.369 43.8011 490.369 45.72H494.369C494.369 43.2229 493.773 40.9857 492.357 39.3479C490.902 37.6648 488.832 36.904 486.513 36.904V40.904ZM490.369 45.72V75H494.369V45.72H490.369ZM492.369 77H515.697V73H492.369V77ZM517.697 75V44.856H513.697V75H517.697ZM517.697 44.856C517.697 38.0045 515.519 31.8212 511.297 27.3335C507.058 22.8282 500.915 20.2 493.329 20.2V24.2C499.95 24.2 504.991 26.4678 508.384 30.0745C511.794 33.6988 513.697 38.8434 513.697 44.856H517.697ZM493.329 20.2C484.29 20.2 477.597 24.3934 473.773 30.5533L477.172 32.6627C480.26 27.6866 485.663 24.2 493.329 24.2V20.2ZM475.473 29.608H474.897V33.608H475.473V29.608ZM476.604 30.5663C472.763 24.2722 466.048 20.2 456.753 20.2V24.2C464.737 24.2 470.118 27.6157 473.189 32.6497L476.604 30.5663ZM456.753 20.2C447.73 20.2 440.698 24.3727 436.399 30.4535L439.666 32.7625C443.239 27.7073 449.071 24.2 456.753 24.2V20.2ZM438.033 29.608H437.745V33.608H438.033V29.608ZM438.781 29.8974L425.629 21.9294L423.556 25.3506L436.708 33.3186L438.781 29.8974ZM424.593 21.64H422.48V25.64H424.593V21.64ZM420.48 23.64V75H424.48V23.64H420.48ZM544.269 75H542.269V77H544.269V75ZM567.597 75V77H569.597V75H567.597ZM567.597 0.119997H569.597V-1.88H567.597V0.119997ZM544.269 0.119997V-1.88H542.269V0.119997H544.269ZM544.269 77H567.597V73H544.269V77ZM569.597 75V0.119997H565.597V75H569.597ZM567.597 -1.88H544.269V2.12H567.597V-1.88ZM542.269 0.119997V75H546.269V0.119997H542.269ZM611.894 63.48V61.48H610.312L609.948 63.0191L611.894 63.48ZM612.758 63.48H614.758V61.48H612.758V63.48ZM612.758 75H610.758V77H612.758V75ZM636.086 75V77H638.086V75H636.086ZM636.086 23.64H638.086V21.64H636.086V23.64ZM612.758 23.64V21.64H610.758V23.64H612.758ZM597.398 23.64H599.398V21.64H597.398V23.64ZM573.974 23.64V21.64H571.974V23.64H573.974ZM593.942 78.44C599.411 78.44 603.915 76.9124 607.312 74.2761C610.705 71.6427 612.881 67.991 613.84 63.9409L609.948 63.0191C609.179 66.265 607.466 69.0933 604.86 71.1159C602.257 73.1356 598.649 74.44 593.942 74.44V78.44ZM611.894 65.48H612.758V61.48H611.894V65.48ZM610.758 63.48V75H614.758V63.48H610.758ZM612.758 77H636.086V73H612.758V77ZM638.086 75V23.64H634.086V75H638.086ZM636.086 21.64H612.758V25.64H636.086V21.64ZM610.758 23.64V51.768H614.758V23.64H610.758ZM610.758 51.768C610.758 54.528 610.067 56.4637 609.099 57.6665C608.168 58.8245 606.858 59.464 605.174 59.464V63.464C608.001 63.464 610.484 62.3275 612.216 60.1735C613.913 58.0643 614.758 55.152 614.758 51.768H610.758ZM605.174 59.464C603.495 59.464 602.098 58.8369 601.106 57.7512C600.106 56.6562 599.398 54.9573 599.398 52.632H595.398C595.398 55.7787 596.369 58.4958 598.153 60.4488C599.945 62.4111 602.436 63.464 605.174 63.464V59.464ZM599.398 52.632V23.64H595.398V52.632H599.398ZM597.398 21.64H573.974V25.64H597.398V21.64ZM571.974 23.64V56.76H575.974V23.64H571.974ZM571.974 56.76C571.974 62.7344 574.005 68.1746 577.842 72.1321C581.69 76.1014 587.22 78.44 593.942 78.44V74.44C588.184 74.44 583.73 72.4586 580.714 69.3479C577.686 66.2254 575.974 61.8256 575.974 56.76H571.974ZM705.401 23.64H707.401V21.64H705.401V23.64ZM703.193 23.64V21.64H702.631L702.152 21.932L703.193 23.64ZM688.697 32.472V34.472H689.258L689.737 34.18L688.697 32.472ZM688.409 32.472L686.791 33.6483L687.39 34.472H688.409V32.472ZM681.113 58.968V56.968H679.347L679.128 58.7199L681.113 58.968ZM681.977 58.968H683.977V56.968H681.977V58.968ZM645.689 72.792L646.67 71.0495L644.346 69.7401L643.741 72.3381L645.689 72.792ZM641.081 92.568L639.133 92.1141L638.751 93.7547L640.302 94.4103L641.081 92.568ZM667.673 99.56C693.39 99.56 707.401 83.636 707.401 68.376H703.401C703.401 80.956 691.683 95.56 667.673 95.56V99.56ZM707.401 68.376V23.64H703.401V68.376H707.401ZM705.401 21.64H703.193V25.64H705.401V21.64ZM702.152 21.932L687.656 30.764L689.737 34.18L704.233 25.348L702.152 21.932ZM688.697 30.472H688.409V34.472H688.697V30.472ZM690.026 31.2957C685.024 24.4181 677.114 20.2 667.097 20.2V24.2C675.895 24.2 682.577 27.8539 686.791 33.6483L690.026 31.2957ZM667.097 20.2C650.154 20.2 638.793 33.2883 638.793 48.888H642.793C642.793 35.3037 652.552 24.2 667.097 24.2V20.2ZM638.793 48.888C638.793 57.1843 641.184 64.1504 645.563 69.0697C649.961 74.0111 656.212 76.712 663.545 76.712V72.712C657.245 72.712 652.12 70.4209 648.551 66.4103C644.961 62.3776 642.793 56.4317 642.793 48.888H638.793ZM663.545 76.712C675.19 76.712 681.939 68.4841 683.097 59.2161L679.128 58.7199C678.175 66.3479 672.828 72.712 663.545 72.712V76.712ZM681.113 60.968H681.977V56.968H681.113V60.968ZM679.977 58.968V61.08H683.977V58.968H679.977ZM679.977 61.08C679.977 67.7965 674.112 75.784 664.697 75.784V79.784C676.593 79.784 683.977 69.7235 683.977 61.08H679.977ZM664.697 75.784C658.011 75.784 653.168 74.7103 646.67 71.0495L644.707 74.5345C651.841 78.5537 657.367 79.784 664.697 79.784V75.784ZM643.741 72.3381L639.133 92.1141L643.029 93.0219L647.637 73.2459L643.741 72.3381ZM640.302 94.4103C647.403 97.4107 659.291 99.56 667.673 99.56V95.56C659.735 95.56 648.39 93.4853 641.859 90.7257L640.302 94.4103ZM674.393 56.488C670.269 56.488 667.369 53.2172 667.369 49.08H663.369C663.369 55.1188 667.764 60.488 674.393 60.488V56.488ZM667.369 49.08C667.369 44.9451 670.363 41.576 674.489 41.576V37.576C667.863 37.576 663.369 43.0389 663.369 49.08H667.369ZM674.489 41.576C678.585 41.576 681.417 44.8169 681.417 48.984H685.417C685.417 42.9751 681.144 37.576 674.489 37.576V41.576ZM681.417 48.984C681.417 53.1484 678.492 56.488 674.393 56.488V60.488C681.046 60.488 685.417 54.9956 685.417 48.984H681.417ZM750.675 59.544V57.544H748.891L748.688 59.3163L750.675 59.544ZM751.539 59.544H753.539V57.544H751.539V59.544ZM751.539 75H749.539V77H751.539V75ZM774.963 75V77H776.963V75H774.963ZM774.963 23.64H776.963V21.64H774.963V23.64ZM772.851 23.64V21.64H772.293L771.816 21.929L772.851 23.64ZM758.259 32.472V34.472H758.817L759.295 34.183L758.259 32.472ZM757.971 32.472L756.362 33.6601L756.962 34.472H757.971V32.472ZM732.243 78.44C743.869 78.44 751.508 69.8462 752.662 59.7717L748.688 59.3163C747.731 67.6738 741.545 74.44 732.243 74.44V78.44ZM750.675 61.544H751.539V57.544H750.675V61.544ZM749.539 59.544V75H753.539V59.544H749.539ZM751.539 77H774.963V73H751.539V77ZM776.963 75V23.64H772.963V75H776.963ZM774.963 21.64H772.851V25.64H774.963V21.64ZM771.816 21.929L757.224 30.761L759.295 34.183L773.887 25.351L771.816 21.929ZM758.259 30.472H757.971V34.472H758.259V30.472ZM759.58 31.2839C754.586 24.5212 746.591 20.2 736.659 20.2V24.2C745.352 24.2 752.14 27.9428 756.362 33.6601L759.58 31.2839ZM736.659 20.2C719.786 20.2 708.355 33.5086 708.355 49.368H712.355C712.355 35.4674 722.237 24.2 736.659 24.2V20.2ZM708.355 49.368C708.355 57.7052 710.5 64.95 714.619 70.1567C718.775 75.4122 724.831 78.44 732.243 78.44V74.44C726.023 74.44 721.135 71.9478 717.756 67.6753C714.338 63.354 712.355 57.0628 712.355 49.368H708.355ZM743.955 56.488C739.832 56.488 736.931 53.2172 736.931 49.08H732.931C732.931 55.1188 737.327 60.488 743.955 60.488V56.488ZM736.931 49.08C736.931 44.9451 739.925 41.576 744.051 41.576V37.576C737.425 37.576 732.931 43.0389 732.931 49.08H736.931ZM744.051 41.576C748.148 41.576 750.979 44.8169 750.979 48.984H754.979C754.979 42.9751 750.707 37.576 744.051 37.576V41.576ZM750.979 48.984C750.979 53.1484 748.054 56.488 743.955 56.488V60.488C750.608 60.488 754.979 54.9956 754.979 48.984H750.979ZM781.262 75H779.262V77H781.262V75ZM804.59 75V77H806.59V75H804.59ZM826.574 43.32L825.232 44.8031L828.574 47.8266V43.32H826.574ZM826.574 24.024H828.574V22.6778L827.327 22.1711L826.574 24.024ZM797.006 31.8V33.8H798.081L798.674 32.9029L797.006 31.8ZM796.91 31.8L795.877 33.5128L796.354 33.8H796.91V31.8ZM783.374 23.64L784.406 21.9272L783.93 21.64H783.374V23.64ZM781.262 23.64V21.64H779.262V23.64H781.262ZM781.262 77H804.59V73H781.262V77ZM806.59 75V54.168H802.59V75H806.59ZM806.59 54.168C806.59 46.2389 811.944 42.248 817.07 42.248V38.248C809.716 38.248 802.59 44.0491 802.59 54.168H806.59ZM817.07 42.248C820.923 42.248 823.667 43.387 825.232 44.8031L827.916 41.8369C825.449 39.605 821.665 38.248 817.07 38.248V42.248ZM828.574 43.32V24.024H824.574V43.32H828.574ZM827.327 22.1711C823.963 20.8045 820.144 20.2 816.206 20.2V24.2C819.755 24.2 823.041 24.7475 825.821 25.8769L827.327 22.1711ZM816.206 20.2C807.238 20.2 799.481 24.428 795.337 30.6971L798.674 32.9029C802.018 27.844 808.47 24.2 816.206 24.2V20.2ZM797.006 29.8H796.91V33.8H797.006V29.8ZM797.942 30.0872L784.406 21.9272L782.341 25.3528L795.877 33.5128L797.942 30.0872ZM783.374 21.64H781.262V25.64H783.374V21.64ZM779.262 23.64V75H783.262V23.64H779.262ZM10.5899 171H8.58987V173H10.5899V171ZM34.0139 171V173H36.0139V171H34.0139ZM49.3739 171H47.3739V173H49.3739V171ZM72.7979 171V173H74.7979V171H72.7979ZM26.8139 128.088V130.088H27.7851L28.3856 129.325L26.8139 128.088ZM26.7179 128.088L25.6802 129.798L26.1585 130.088H26.7179V128.088ZM12.7979 119.64L13.8355 117.93L13.3573 117.64H12.7979V119.64ZM10.5899 119.64V117.64H8.58987V119.64H10.5899ZM10.5899 173H34.0139V169H10.5899V173ZM36.0139 171V144.504H32.0139V171H36.0139ZM36.0139 144.504C36.0139 141.744 36.7046 139.839 37.6633 138.665C38.5863 137.534 39.8949 136.904 41.5979 136.904V132.904C38.7889 132.904 36.3054 134.002 34.5644 136.135C32.8591 138.225 32.0139 141.12 32.0139 144.504H36.0139ZM41.5979 136.904C43.2945 136.904 44.6919 137.52 45.6759 138.58C46.6664 139.648 47.3739 141.316 47.3739 143.64H51.3739C51.3739 140.492 50.4013 137.792 48.6079 135.86C46.8079 133.92 44.3172 132.904 41.5979 132.904V136.904ZM47.3739 143.64V171H51.3739V143.64H47.3739ZM49.3739 173H72.7979V169H49.3739V173ZM74.7979 171V140.856H70.7979V171H74.7979ZM74.7979 140.856C74.7979 126.692 62.8487 116.2 47.5499 116.2V120.2C61.0511 120.2 70.7979 129.292 70.7979 140.856H74.7979ZM47.5499 116.2C38.2786 116.2 30.218 120.528 25.2421 126.851L28.3856 129.325C32.6257 123.936 39.5412 120.2 47.5499 120.2V116.2ZM26.8139 126.088H26.7179V130.088H26.8139V126.088ZM27.7555 126.378L13.8355 117.93L11.7602 121.35L25.6802 129.798L27.7555 126.378ZM12.7979 117.64H10.5899V121.64H12.7979V117.64ZM8.58987 119.64V171H12.5899V119.64H8.58987ZM127.032 169.848L127.527 171.786L129.233 171.35L129.017 169.603L127.032 169.848ZM125.016 153.528L127.001 153.283L126.698 150.829L124.362 151.638L125.016 153.528ZM98.3279 150.84V148.84H95.0449L96.5506 151.757L98.3279 150.84ZM132.504 150.84V152.84H134.012L134.427 151.389L132.504 150.84ZM97.5599 141.912L95.6037 141.496L95.0896 143.912H97.5599V141.912ZM113.88 141.912V143.912H115.53L115.843 142.292L113.88 141.912ZM108.216 174.44C115.847 174.44 122.942 172.956 127.527 171.786L126.537 167.91C122.098 169.044 115.369 170.44 108.216 170.44V174.44ZM129.017 169.603L127.001 153.283L123.031 153.773L125.047 170.093L129.017 169.603ZM124.362 151.638C119.576 153.295 115.38 154.024 110.232 154.024V158.024C115.835 158.024 120.472 157.217 125.67 155.418L124.362 151.638ZM110.232 154.024C103.649 154.024 101.171 151.988 100.105 149.923L96.5506 151.757C98.5565 155.644 102.799 158.024 110.232 158.024V154.024ZM98.3279 152.84H132.504V148.84H98.3279V152.84ZM134.427 151.389C134.663 150.564 134.894 149.19 135.063 147.91C135.233 146.62 135.368 145.217 135.368 144.312H131.368C131.368 144.943 131.263 146.132 131.097 147.386C130.93 148.65 130.729 149.772 130.581 150.291L134.427 151.389ZM135.368 144.312C135.368 129.36 123.025 116.2 105.912 116.2V120.2C120.863 120.2 131.368 131.616 131.368 144.312H135.368ZM105.912 116.2C87.8613 116.2 75.3999 129.146 75.3999 145.176H79.3999C79.3999 131.446 89.9784 120.2 105.912 120.2V116.2ZM75.3999 145.176C75.3999 151.751 77.6559 159.077 82.955 164.778C88.2911 170.518 96.5535 174.44 108.216 174.44V170.44C97.5102 170.44 90.3647 166.874 85.8848 162.054C81.3678 157.195 79.3999 150.889 79.3999 145.176H75.3999ZM99.5161 142.328C99.9211 140.425 100.733 139.084 101.793 138.214C102.849 137.346 104.32 136.808 106.296 136.808V132.808C103.568 132.808 101.15 133.566 99.2547 135.122C97.3624 136.676 96.1586 138.887 95.6037 141.496L99.5161 142.328ZM106.296 136.808C108.22 136.808 109.746 137.598 110.731 138.627C111.767 139.709 112.047 140.857 111.916 141.532L115.843 142.292C116.289 139.991 115.273 137.587 113.621 135.861C111.918 134.082 109.364 132.808 106.296 132.808V136.808ZM113.88 139.912H97.5599V143.912H113.88V139.912ZM167.819 138.744L167.47 140.713L167.48 140.715L167.49 140.717L167.819 138.744ZM180.107 136.92L179.011 138.593L182.107 140.621V136.92H180.107ZM180.107 121.56H182.107V120.222L180.871 119.711L180.107 121.56ZM154.379 151.224L154.003 153.188L154.014 153.19L154.379 151.224ZM136.811 150.264L137.982 148.643L135.633 146.946L134.88 149.744L136.811 150.264ZM132.395 166.68L130.464 166.16L130.031 167.769L131.535 168.486L132.395 166.68ZM161.867 174.44C170.105 174.44 176.613 172.582 181.109 169.13C185.667 165.63 187.963 160.635 187.963 154.872H183.963C183.963 159.477 182.179 163.266 178.673 165.958C175.105 168.698 169.565 170.44 161.867 170.44V174.44ZM187.963 154.872C187.963 150.125 186.419 146.053 182.993 142.92C179.64 139.854 174.674 137.859 168.148 136.771L167.49 140.717C173.636 141.741 177.742 143.538 180.293 145.872C182.772 148.139 183.963 151.075 183.963 154.872H187.963ZM168.169 136.775C165.176 136.244 163.502 135.82 162.597 135.424C162.158 135.232 162.078 135.12 162.11 135.158C162.196 135.259 162.235 135.409 162.235 135.48H158.235C158.235 136.271 158.478 137.057 159.056 137.74C159.58 138.36 160.281 138.776 160.993 139.088C162.392 139.7 164.511 140.188 167.47 140.713L168.169 136.775ZM162.235 135.48C162.235 135.559 162.191 135.738 162.065 135.875C161.986 135.96 161.993 135.898 162.298 135.8C162.946 135.592 164.132 135.464 166.091 135.464V131.464C164.114 131.464 162.372 131.576 161.076 131.992C160.409 132.206 159.69 132.552 159.129 133.159C158.519 133.818 158.235 134.633 158.235 135.48H162.235ZM166.091 135.464C167.945 135.464 170.587 135.839 173.135 136.452C175.73 137.078 177.921 137.879 179.011 138.593L181.203 135.247C179.509 134.137 176.756 133.21 174.072 132.564C171.34 131.905 168.366 131.464 166.091 131.464V135.464ZM182.107 136.92V121.56H178.107V136.92H182.107ZM180.871 119.711C176.198 117.782 170.753 116.2 159.851 116.2V120.2C170.261 120.2 175.184 121.69 179.344 123.409L180.871 119.711ZM159.851 116.2C152.025 116.2 145.793 118.042 141.467 121.337C137.092 124.669 134.811 129.387 134.811 134.712H138.811C138.811 130.629 140.514 127.091 143.891 124.519C147.317 121.91 152.605 120.2 159.851 120.2V116.2ZM134.811 134.712C134.811 139.68 136.672 143.818 140.104 146.963C143.481 150.057 148.264 152.09 154.003 153.188L154.755 149.26C149.454 148.246 145.453 146.439 142.806 144.013C140.214 141.638 138.811 138.576 138.811 134.712H134.811ZM154.014 153.19C157.402 153.82 159.188 154.268 160.114 154.654C160.569 154.844 160.604 154.936 160.531 154.85C160.387 154.683 160.347 154.469 160.347 154.392H164.347C164.347 153.691 164.151 152.925 163.563 152.242C163.046 151.64 162.349 151.252 161.652 150.962C160.275 150.388 158.077 149.876 154.744 149.258L154.014 153.19ZM160.347 154.392C160.347 154.274 160.404 154.05 160.565 153.881C160.667 153.773 160.674 153.837 160.328 153.942C159.606 154.16 158.215 154.312 155.723 154.312V158.312C158.223 158.312 160.144 158.176 161.486 157.77C162.172 157.563 162.899 157.231 163.464 156.637C164.086 155.982 164.347 155.182 164.347 154.392H160.347ZM155.723 154.312C153.332 154.312 150.101 153.782 146.815 152.779C143.529 151.776 140.341 150.346 137.982 148.643L135.64 151.885C138.465 153.926 142.093 155.52 145.647 156.605C149.201 157.69 152.835 158.312 155.723 158.312V154.312ZM134.88 149.744L130.464 166.16L134.326 167.2L138.742 150.784L134.88 149.744ZM131.535 168.486C139.94 172.488 150.525 174.44 161.867 174.44V170.44C150.937 170.44 140.978 168.552 133.255 164.874L131.535 168.486ZM234.281 171.576L234.807 173.506L236.281 173.104V171.576H234.281ZM234.281 151.32H236.281V147.838L233.273 149.592L234.281 151.32ZM220.841 137.112V135.112H218.841V137.112H220.841ZM234.953 137.112V139.112H236.953V137.112H234.953ZM234.953 119.64H236.953V117.64H234.953V119.64ZM220.841 119.64H218.841V121.64H220.841V119.64ZM220.841 103.992H222.841V101.992H220.841V103.992ZM216.425 103.992V101.992H215.775L215.25 102.374L216.425 103.992ZM188.009 124.632L186.834 123.014L186.009 123.613V124.632H188.009ZM188.009 137.112H186.009V139.112H188.009V137.112ZM197.513 137.112H199.513V135.112H197.513V137.112ZM225.545 174.44C226.576 174.44 228.291 174.364 230.012 174.217C231.696 174.072 233.56 173.846 234.807 173.506L233.755 169.646C232.89 169.882 231.346 170.088 229.67 170.231C228.031 170.372 226.434 170.44 225.545 170.44V174.44ZM236.281 171.576V151.32H232.281V171.576H236.281ZM233.273 149.592C232.926 149.795 232.094 150.125 231.038 150.409C229.996 150.689 228.989 150.856 228.329 150.856V154.856C229.493 154.856 230.886 154.591 232.076 154.271C233.252 153.955 234.485 153.517 235.289 153.048L233.273 149.592ZM228.329 150.856C226.524 150.856 225.194 150.313 224.324 149.466C223.464 148.63 222.841 147.291 222.841 145.272H218.841C218.841 148.149 219.754 150.602 221.535 152.334C223.305 154.055 225.718 154.856 228.329 154.856V150.856ZM222.841 145.272V137.112H218.841V145.272H222.841ZM220.841 139.112H234.953V135.112H220.841V139.112ZM236.953 137.112V119.64H232.953V137.112H236.953ZM234.953 117.64H220.841V121.64H234.953V117.64ZM222.841 119.64V103.992H218.841V119.64H222.841ZM220.841 101.992H216.425V105.992H220.841V101.992ZM215.25 102.374L186.834 123.014L189.184 126.25L217.6 105.61L215.25 102.374ZM186.009 124.632V137.112H190.009V124.632H186.009ZM188.009 139.112H197.513V135.112H188.009V139.112ZM195.513 137.112V151.992H199.513V137.112H195.513ZM195.513 151.992C195.513 160.631 198.935 166.425 204.651 169.933C210.191 173.333 217.652 174.44 225.545 174.44V170.44C217.886 170.44 211.331 169.339 206.743 166.523C202.331 163.815 199.513 159.385 199.513 151.992H195.513ZM278.41 155.544V153.544H276.626L276.423 155.316L278.41 155.544ZM279.274 155.544H281.274V153.544H279.274V155.544ZM279.274 171H277.274V173H279.274V171ZM302.698 171V173H304.698V171H302.698ZM302.698 119.64H304.698V117.64H302.698V119.64ZM300.586 119.64V117.64H300.027L299.55 117.929L300.586 119.64ZM285.994 128.472V130.472H286.552L287.029 130.183L285.994 128.472ZM285.706 128.472L284.097 129.66L284.696 130.472H285.706V128.472ZM259.978 174.44C271.603 174.44 279.242 165.846 280.397 155.772L276.423 155.316C275.465 163.674 269.28 170.44 259.978 170.44V174.44ZM278.41 157.544H279.274V153.544H278.41V157.544ZM277.274 155.544V171H281.274V155.544H277.274ZM279.274 173H302.698V169H279.274V173ZM304.698 171V119.64H300.698V171H304.698ZM302.698 117.64H300.586V121.64H302.698V117.64ZM299.55 117.929L284.958 126.761L287.029 130.183L301.621 121.351L299.55 117.929ZM285.994 126.472H285.706V130.472H285.994V126.472ZM287.314 127.284C282.321 120.521 274.325 116.2 264.394 116.2V120.2C273.086 120.2 279.875 123.943 284.097 129.66L287.314 127.284ZM264.394 116.2C247.52 116.2 236.09 129.509 236.09 145.368H240.09C240.09 131.467 249.971 120.2 264.394 120.2V116.2ZM236.09 145.368C236.09 153.705 238.235 160.95 242.353 166.157C246.51 171.412 252.566 174.44 259.978 174.44V170.44C253.758 170.44 248.87 167.948 245.49 163.675C242.072 159.354 240.09 153.063 240.09 145.368H236.09ZM271.69 152.488C267.566 152.488 264.666 149.217 264.666 145.08H260.666C260.666 151.119 265.061 156.488 271.69 156.488V152.488ZM264.666 145.08C264.666 140.945 267.66 137.576 271.786 137.576V133.576C265.159 133.576 260.666 139.039 260.666 145.08H264.666ZM271.786 137.576C275.882 137.576 278.714 140.817 278.714 144.984H282.714C282.714 138.975 278.441 133.576 271.786 133.576V137.576ZM278.714 144.984C278.714 149.148 275.788 152.488 271.69 152.488V156.488C278.343 156.488 282.714 150.996 282.714 144.984H278.714ZM394.479 119.64H396.479V117.64H394.479V119.64ZM392.271 119.64V117.64H391.71L391.23 117.932L392.271 119.64ZM377.775 128.472V130.472H378.336L378.815 130.18L377.775 128.472ZM377.487 128.472L375.869 129.648L376.468 130.472H377.487V128.472ZM370.191 154.968V152.968H368.425L368.206 154.72L370.191 154.968ZM371.055 154.968H373.055V152.968H371.055V154.968ZM334.767 168.792L335.749 167.05L333.424 165.74L332.819 168.338L334.767 168.792ZM330.159 188.568L328.211 188.114L327.829 189.755L329.38 190.41L330.159 188.568ZM356.751 195.56C382.468 195.56 396.479 179.636 396.479 164.376H392.479C392.479 176.956 380.761 191.56 356.751 191.56V195.56ZM396.479 164.376V119.64H392.479V164.376H396.479ZM394.479 117.64H392.271V121.64H394.479V117.64ZM391.23 117.932L376.734 126.764L378.815 130.18L393.311 121.348L391.23 117.932ZM377.775 126.472H377.487V130.472H377.775V126.472ZM379.104 127.296C374.102 120.418 366.192 116.2 356.175 116.2V120.2C364.973 120.2 371.655 123.854 375.869 129.648L379.104 127.296ZM356.175 116.2C339.232 116.2 327.871 129.288 327.871 144.888H331.871C331.871 131.304 341.63 120.2 356.175 120.2V116.2ZM327.871 144.888C327.871 153.184 330.262 160.15 334.641 165.07C339.039 170.011 345.29 172.712 352.623 172.712V168.712C346.323 168.712 341.199 166.421 337.629 162.41C334.039 158.378 331.871 152.432 331.871 144.888H327.871ZM352.623 172.712C364.268 172.712 371.017 164.484 372.175 155.216L368.206 154.72C367.253 162.348 361.906 168.712 352.623 168.712V172.712ZM370.191 156.968H371.055V152.968H370.191V156.968ZM369.055 154.968V157.08H373.055V154.968H369.055ZM369.055 157.08C369.055 163.796 363.19 171.784 353.775 171.784V175.784C365.671 175.784 373.055 165.724 373.055 157.08H369.055ZM353.775 171.784C347.089 171.784 342.246 170.71 335.749 167.05L333.785 170.534C340.919 174.554 346.445 175.784 353.775 175.784V171.784ZM332.819 168.338L328.211 188.114L332.107 189.022L336.715 169.246L332.819 168.338ZM329.38 190.41C336.481 193.411 348.369 195.56 356.751 195.56V191.56C348.813 191.56 337.468 189.485 330.937 186.726L329.38 190.41ZM363.471 152.488C359.347 152.488 356.447 149.217 356.447 145.08H352.447C352.447 151.119 356.843 156.488 363.471 156.488V152.488ZM356.447 145.08C356.447 140.945 359.441 137.576 363.567 137.576V133.576C356.941 133.576 352.447 139.039 352.447 145.08H356.447ZM363.567 137.576C367.663 137.576 370.495 140.817 370.495 144.984H374.495C374.495 138.975 370.223 133.576 363.567 133.576V137.576ZM370.495 144.984C370.495 149.148 367.57 152.488 363.471 152.488V156.488C370.124 156.488 374.495 150.996 374.495 144.984H370.495ZM439.753 155.544V153.544H437.969L437.766 155.316L439.753 155.544ZM440.617 155.544H442.617V153.544H440.617V155.544ZM440.617 171H438.617V173H440.617V171ZM464.041 171V173H466.041V171H464.041ZM464.041 119.64H466.041V117.64H464.041V119.64ZM461.929 119.64V117.64H461.371L460.894 117.929L461.929 119.64ZM447.337 128.472V130.472H447.896L448.373 130.183L447.337 128.472ZM447.049 128.472L445.441 129.66L446.04 130.472H447.049V128.472ZM421.321 174.44C432.947 174.44 440.586 165.846 441.74 155.772L437.766 155.316C436.809 163.674 430.624 170.44 421.321 170.44V174.44ZM439.753 157.544H440.617V153.544H439.753V157.544ZM438.617 155.544V171H442.617V155.544H438.617ZM440.617 173H464.041V169H440.617V173ZM466.041 171V119.64H462.041V171H466.041ZM464.041 117.64H461.929V121.64H464.041V117.64ZM460.894 117.929L446.302 126.761L448.373 130.183L462.965 121.351L460.894 117.929ZM447.337 126.472H447.049V130.472H447.337V126.472ZM448.658 127.284C443.664 120.521 435.669 116.2 425.737 116.2V120.2C434.43 120.2 441.218 123.943 445.441 129.66L448.658 127.284ZM425.737 116.2C408.864 116.2 397.433 129.509 397.433 145.368H401.433C401.433 131.467 411.315 120.2 425.737 120.2V116.2ZM397.433 145.368C397.433 153.705 399.579 160.95 403.697 166.157C407.853 171.412 413.909 174.44 421.321 174.44V170.44C415.101 170.44 410.213 167.948 406.834 163.675C403.416 159.354 401.433 153.063 401.433 145.368H397.433ZM433.033 152.488C428.91 152.488 426.009 149.217 426.009 145.08H422.009C422.009 151.119 426.405 156.488 433.033 156.488V152.488ZM426.009 145.08C426.009 140.945 429.004 137.576 433.129 137.576V133.576C426.503 133.576 422.009 139.039 422.009 145.08H426.009ZM433.129 137.576C437.226 137.576 440.057 140.817 440.057 144.984H444.057C444.057 138.975 439.785 133.576 433.129 133.576V137.576ZM440.057 144.984C440.057 149.148 437.132 152.488 433.033 152.488V156.488C439.687 156.488 444.057 150.996 444.057 144.984H440.057ZM470.628 171H468.628V173H470.628V171ZM493.956 171V173H495.956V171H493.956ZM493.956 96.12H495.956V94.12H493.956V96.12ZM470.628 96.12V94.12H468.628V96.12H470.628ZM470.628 173H493.956V169H470.628V173ZM495.956 171V96.12H491.956V171H495.956ZM493.956 94.12H470.628V98.12H493.956V94.12ZM468.628 96.12V171H472.628V96.12H468.628ZM527.117 115.8L525.19 115.267L524.489 117.8H527.117V115.8ZM536.909 115.8V117.8H538.088L538.659 116.768L536.909 115.8ZM546.893 97.752L548.643 98.7201L550.285 95.752H546.893V97.752ZM532.109 97.752V95.752H530.587L530.182 97.2188L532.109 97.752ZM539.597 155.544V153.544H537.813L537.61 155.316L539.597 155.544ZM540.461 155.544H542.461V153.544H540.461V155.544ZM540.461 171H538.461V173H540.461V171ZM563.885 171V173H565.885V171H563.885ZM563.885 119.64H565.885V117.64H563.885V119.64ZM561.773 119.64V117.64H561.196L560.707 117.948L561.773 119.64ZM547.757 128.472V130.472H548.335L548.823 130.164L547.757 128.472ZM546.893 128.472L545.284 129.66L545.884 130.472H546.893V128.472ZM527.117 117.8H536.909V113.8H527.117V117.8ZM538.659 116.768L548.643 98.7201L545.143 96.7839L535.159 114.832L538.659 116.768ZM546.893 95.752H532.109V99.752H546.893V95.752ZM530.182 97.2188L525.19 115.267L529.045 116.333L534.037 98.2852L530.182 97.2188ZM521.165 174.44C532.791 174.44 540.43 165.846 541.584 155.772L537.61 155.316C536.653 163.674 530.467 170.44 521.165 170.44V174.44ZM539.597 157.544H540.461V153.544H539.597V157.544ZM538.461 155.544V171H542.461V155.544H538.461ZM540.461 173H563.885V169H540.461V173ZM565.885 171V119.64H561.885V171H565.885ZM563.885 117.64H561.773V121.64H563.885V117.64ZM560.707 117.948L546.691 126.78L548.823 130.164L562.839 121.332L560.707 117.948ZM547.757 126.472H546.893V130.472H547.757V126.472ZM548.502 127.284C543.508 120.521 535.513 116.2 525.581 116.2V120.2C534.274 120.2 541.062 123.943 545.284 129.66L548.502 127.284ZM525.581 116.2C508.707 116.2 497.277 129.509 497.277 145.368H501.277C501.277 131.467 511.159 120.2 525.581 120.2V116.2ZM497.277 145.368C497.277 153.705 499.422 160.95 503.54 166.157C507.697 171.412 513.753 174.44 521.165 174.44V170.44C514.945 170.44 510.057 167.948 506.678 163.675C503.26 159.354 501.277 153.063 501.277 145.368H497.277ZM532.877 152.488C528.753 152.488 525.853 149.217 525.853 145.08H521.853C521.853 151.119 526.249 156.488 532.877 156.488V152.488ZM525.853 145.08C525.853 140.945 528.847 137.576 532.973 137.576V133.576C526.347 133.576 521.853 139.039 521.853 145.08H525.853ZM532.973 137.576C537.069 137.576 539.901 140.817 539.901 144.984H543.901C543.901 138.975 539.629 133.576 532.973 133.576V137.576ZM539.901 144.984C539.901 149.148 536.976 152.488 532.877 152.488V156.488C539.53 156.488 543.901 150.996 543.901 144.984H539.901ZM566.632 171L564.937 169.938L563.019 173H566.632V171ZM590.44 171V173H591.598L592.174 171.995L590.44 171ZM597.544 158.616V156.616H596.385L595.809 157.621L597.544 158.616ZM598.504 158.616L600.238 157.621L599.662 156.616H598.504V158.616ZM605.608 171L603.873 171.995L604.449 173H605.608V171ZM629.416 171V173H633.035L631.109 169.936L629.416 171ZM613 144.888L611.308 143.82L610.636 144.886L611.306 145.952L613 144.888ZM628.936 119.64L630.627 120.707L632.563 117.64H628.936V119.64ZM605.128 119.64V117.64H603.99L603.409 118.618L605.128 119.64ZM598.504 130.776V132.776H599.641L600.223 131.798L598.504 130.776ZM597.544 130.776L595.818 131.787L596.398 132.776H597.544V130.776ZM591.016 119.64L592.741 118.629L592.162 117.64H591.016V119.64ZM567.208 119.64V117.64H563.585L565.515 120.706L567.208 119.64ZM583.048 144.792L584.743 145.854L585.409 144.789L584.74 143.726L583.048 144.792ZM566.632 173H590.44V169H566.632V173ZM592.174 171.995L599.278 159.611L595.809 157.621L588.705 170.005L592.174 171.995ZM597.544 160.616H598.504V156.616H597.544V160.616ZM596.769 159.611L603.873 171.995L607.342 170.005L600.238 157.621L596.769 159.611ZM605.608 173H629.416V169H605.608V173ZM631.109 169.936L614.693 143.824L611.306 145.952L627.722 172.064L631.109 169.936ZM614.691 145.956L630.627 120.707L627.244 118.572L611.308 143.82L614.691 145.956ZM628.936 117.64H605.128V121.64H628.936V117.64ZM603.409 118.618L596.785 129.754L600.223 131.798L606.847 120.662L603.409 118.618ZM598.504 128.776H597.544V132.776H598.504V128.776ZM599.269 129.765L592.741 118.629L589.29 120.651L595.818 131.787L599.269 129.765ZM591.016 117.64H567.208V121.64H591.016V117.64ZM565.515 120.706L581.355 145.858L584.74 143.726L568.9 118.574L565.515 120.706ZM581.353 143.73L564.937 169.938L568.327 172.062L584.743 145.854L581.353 143.73ZM631.382 171H629.382V173H631.382V171ZM654.806 171V173H656.806V171H654.806ZM654.806 119.64H656.806V117.64H654.806V119.64ZM631.382 119.64V117.64H629.382V119.64H631.382ZM643.19 119.816C651.228 119.816 657.382 113.81 657.382 106.296H653.382C653.382 111.454 649.169 115.816 643.19 115.816V119.816ZM657.382 106.296C657.382 98.6964 651.239 92.68 643.19 92.68V96.68C649.158 96.68 653.382 101.032 653.382 106.296H657.382ZM643.19 92.68C635.142 92.68 628.998 98.6964 628.998 106.296H632.998C632.998 101.032 637.223 96.68 643.19 96.68V92.68ZM628.998 106.296C628.998 113.81 635.153 119.816 643.19 119.816V115.816C637.212 115.816 632.998 111.454 632.998 106.296H628.998ZM631.382 173H654.806V169H631.382V173ZM656.806 171V119.64H652.806V171H656.806ZM654.806 117.64H631.382V121.64H654.806V117.64ZM629.382 119.64V171H633.382V119.64H629.382ZM699.441 155.544V153.544H697.657L697.454 155.316L699.441 155.544ZM700.305 155.544H702.305V153.544H700.305V155.544ZM700.305 171H698.305V173H700.305V171ZM723.729 171V173H725.729V171H723.729ZM723.729 119.64H725.729V117.64H723.729V119.64ZM721.617 119.64V117.64H721.059L720.581 117.929L721.617 119.64ZM707.025 128.472V130.472H707.583L708.06 130.183L707.025 128.472ZM706.737 128.472L705.128 129.66L705.728 130.472H706.737V128.472ZM681.009 174.44C692.635 174.44 700.273 165.846 701.428 155.772L697.454 155.316C696.496 163.674 690.311 170.44 681.009 170.44V174.44ZM699.441 157.544H700.305V153.544H699.441V157.544ZM698.305 155.544V171H702.305V155.544H698.305ZM700.305 173H723.729V169H700.305V173ZM725.729 171V119.64H721.729V171H725.729ZM723.729 117.64H721.617V121.64H723.729V117.64ZM720.581 117.929L705.989 126.761L708.06 130.183L722.652 121.351L720.581 117.929ZM707.025 126.472H706.737V130.472H707.025V126.472ZM708.346 127.284C703.352 120.521 695.356 116.2 685.425 116.2V120.2C694.117 120.2 700.906 123.943 705.128 129.66L708.346 127.284ZM685.425 116.2C668.551 116.2 657.121 129.509 657.121 145.368H661.121C661.121 131.467 671.003 120.2 685.425 120.2V116.2ZM657.121 145.368C657.121 153.705 659.266 160.95 663.384 166.157C667.541 171.412 673.597 174.44 681.009 174.44V170.44C674.789 170.44 669.901 167.948 666.522 163.675C663.104 159.354 661.121 153.063 661.121 145.368H657.121ZM692.721 152.488C688.597 152.488 685.697 149.217 685.697 145.08H681.697C681.697 151.119 686.093 156.488 692.721 156.488V152.488ZM685.697 145.08C685.697 140.945 688.691 137.576 692.817 137.576V133.576C686.191 133.576 681.697 139.039 681.697 145.08H685.697ZM692.817 137.576C696.913 137.576 699.745 140.817 699.745 144.984H703.745C703.745 138.975 699.473 133.576 692.817 133.576V137.576ZM699.745 144.984C699.745 149.148 696.82 152.488 692.721 152.488V156.488C699.374 156.488 703.745 150.996 703.745 144.984H699.745ZM741.931 174.44C748.954 174.44 754.971 168.97 754.971 161.208H750.971C750.971 166.694 746.813 170.44 741.931 170.44V174.44ZM754.971 161.208C754.971 153.638 748.954 148.072 741.931 148.072V152.072C746.813 152.072 750.971 155.914 750.971 161.208H754.971ZM741.931 148.072C734.74 148.072 728.699 153.616 728.699 161.208H732.699C732.699 155.936 736.835 152.072 741.931 152.072V148.072ZM728.699 161.208C728.699 168.992 734.74 174.44 741.931 174.44V170.44C736.835 170.44 732.699 166.672 732.699 161.208H728.699ZM771.838 174.44C778.86 174.44 784.878 168.97 784.878 161.208H780.878C780.878 166.694 776.719 170.44 771.838 170.44V174.44ZM784.878 161.208C784.878 153.638 778.86 148.072 771.838 148.072V152.072C776.719 152.072 780.878 155.914 780.878 161.208H784.878ZM771.838 148.072C764.646 148.072 758.606 153.616 758.606 161.208H762.606C762.606 155.936 766.741 152.072 771.838 152.072V148.072ZM758.606 161.208C758.606 168.992 764.646 174.44 771.838 174.44V170.44C766.741 170.44 762.606 166.672 762.606 161.208H758.606ZM801.744 174.44C808.766 174.44 814.784 168.97 814.784 161.208H810.784C810.784 166.694 806.625 170.44 801.744 170.44V174.44ZM814.784 161.208C814.784 153.638 808.766 148.072 801.744 148.072V152.072C806.625 152.072 810.784 155.914 810.784 161.208H814.784ZM801.744 148.072C794.552 148.072 788.512 153.616 788.512 161.208H792.512C792.512 155.936 796.648 152.072 801.744 152.072V148.072ZM788.512 161.208C788.512 168.992 794.552 174.44 801.744 174.44V170.44C796.648 170.44 792.512 166.672 792.512 161.208H788.512Z" fill="black"/>
</g>
<defs>
<filter id="filter0_d_200_2601" x="0.364746" y="0.120117" width="828.209" height="195.44" filterUnits="userSpaceOnUse" color-interpolation-filters="sRGB">
<feFlood flood-opacity="0" result="BackgroundImageFix"/>
<feColorMatrix in="SourceAlpha" type="matrix" values="0 0 0 0 0 0 0 0 0 0 0 0 0 0 0 0 0 0 127 0" result="hardAlpha"/>
<feOffset dx="2" dy="2"/>
<feComposite in2="hardAlpha" operator="out"/>
<feColorMatrix type="matrix" values="0 0 0 0 0 0 0 0 0 0 0 0 0 0 0 0 0 0 1 0"/>
<feBlend mode="normal" in2="BackgroundImageFix" result="effect1_dropShadow_200_2601"/>
<feBlend mode="normal" in="SourceGraphic" in2="effect1_dropShadow_200_2601" result="shape"/>
</filter>
</defs>
</svg>
