<svg width="226" height="296" viewBox="0 0 226 296" fill="none" xmlns="http://www.w3.org/2000/svg">
<path d="M211.819 175.925C213.746 172.966 215.432 169.856 216.86 166.625C216.915 169.617 215.662 172.774 212.054 175.756L211.819 175.925Z" fill="#864AE5"/>
<path d="M201.566 263.797C201.843 264.815 202.103 265.777 202.338 266.681C200.379 266.833 199.007 266.795 199.007 266.795C199.701 265.67 200.564 264.659 201.566 263.797Z" fill="#864AE5"/>
<path d="M212.657 263.263C211.225 264.211 209.645 264.913 207.982 265.341C207.667 264.129 207.314 262.803 206.943 261.401C208.986 261.468 210.967 262.114 212.657 263.263Z" fill="#864AE5"/>
<path d="M126.994 152.772C128.87 152.772 130.391 151.221 130.391 149.309C130.391 147.397 128.87 145.847 126.994 145.847C125.118 145.847 123.597 147.397 123.597 149.309C123.597 151.221 125.118 152.772 126.994 152.772Z" fill="black"/>
<path d="M168.347 157.761C165.138 160.223 161.204 161.553 157.16 161.542C154.973 161.562 152.801 161.183 150.75 160.424C150.066 160.128 149.524 159.576 149.241 158.886C148.959 158.196 148.958 157.422 149.24 156.732C149.521 156.041 150.062 155.488 150.747 155.192C151.431 154.895 152.204 154.879 152.901 155.147C154.908 155.835 157.054 156.019 159.148 155.681C161.243 155.343 163.223 154.495 164.912 153.211C165.515 152.756 166.275 152.559 167.024 152.663C167.772 152.768 168.449 153.165 168.904 153.769C169.36 154.372 169.557 155.132 169.452 155.88C169.348 156.629 168.95 157.305 168.347 157.761V157.761Z" stroke="black" stroke-miterlimit="10"/>
<path d="M187.256 150.327C189.132 150.327 190.652 148.777 190.652 146.864C190.652 144.952 189.132 143.402 187.256 143.402C185.38 143.402 183.859 144.952 183.859 146.864C183.859 148.777 185.38 150.327 187.256 150.327Z" fill="black"/>
<path d="M208.921 152.848C225.752 139.271 208.921 131.127 208.921 131.127C219.859 123.385 208.228 108.375 204.215 103.749C204.239 105.214 204.215 106.592 204.09 107.904C202.854 123.319 193.284 127.817 193.284 127.817C186.359 135.48 168.243 126.865 171.906 127.471C175.57 128.077 182.9 128.898 181.882 119.736C181.321 114.694 180.026 112.918 176.567 110.214C175.123 109.082 173.316 107.79 171.027 106.038C168.811 104.341 166.155 102.209 162.956 99.3762C148.5 86.5476 159.493 73.1201 159.493 73.1201L160.21 72.483C157.662 72.4518 155.016 72.4829 152.36 72.6145C143.157 73.0369 133.874 75.9281 126.302 79.0825C117.483 82.1676 109.574 85.5297 109.574 85.5297C109.148 86.425 108.768 87.3414 108.435 88.2754C105.561 96.5404 109.567 99.6498 109.567 99.6498C84.9836 117.811 97.736 131.761 98.1584 132.218C93.2728 129.531 88.9378 143.09 88.9378 143.09C84.5889 152.862 97.0816 156.656 97.0816 156.656C92.3518 157.186 88.6365 160.257 86.9364 169.083C86.8707 169.367 86.8153 169.669 86.7633 169.973C86.3301 172.463 86.8452 175.025 88.2072 177.155C91.1295 181.926 97.0816 184.346 97.0816 184.346C87.3104 195.208 88.9378 213.663 100.89 223.981C101.503 224.511 102.095 224.982 102.684 225.415C104.216 226.572 105.905 227.505 107.701 228.185C115.467 231.045 119.899 225.595 119.899 225.595C127.482 244.057 143.233 231.028 143.233 231.028C143.233 231.028 148.119 234.836 155.726 235.37C163.333 235.903 169.836 226.679 169.836 226.679C185.043 234.296 188.298 220.709 188.298 220.709C188.545 220.869 188.804 221.008 189.073 221.125C191.017 221.95 193.162 222.179 195.237 221.783C198.717 221.18 203.277 218.885 208.394 212.566C218.02 200.651 211.4 184.485 209.087 179.731C188.938 204.439 162.277 181.334 162.277 181.334C162.094 181.127 161.84 180.997 161.565 180.97C161.29 180.943 161.015 181.021 160.795 181.188C155.91 184.152 159.164 179.457 159.164 179.457C160.501 178.308 159.614 178.235 159.614 178.235C159.614 178.235 157.09 179.121 156.349 178.235C155.608 177.348 158.132 175.856 158.132 175.856C160.21 175.115 159.019 174.53 159.019 174.53C156.796 173.934 156.349 173.339 156.349 173.339C156.349 171.41 162.724 170.223 162.724 170.223C160.795 169.333 161.983 167.106 161.983 167.106C167.765 166.068 169.988 174.672 169.988 174.672C198.613 196.392 216.039 163.72 216.386 163.066C214.506 157.276 208.921 152.848 208.921 152.848Z" fill="#864AE5"/>
<path d="M216.867 166.528C215.438 169.758 213.752 172.868 211.826 175.828C210.938 177.18 209.981 178.485 208.959 179.737C188.81 204.446 162.156 181.341 162.156 181.341C161.973 181.134 161.718 181.004 161.443 180.977C161.169 180.95 160.894 181.028 160.674 181.195C155.788 184.159 159.047 179.464 159.047 179.464C160.383 178.314 159.493 178.242 159.493 178.242C159.493 178.242 156.969 179.128 156.228 178.242C155.487 177.355 158.011 175.863 158.011 175.863C160.089 175.122 158.901 174.537 158.901 174.537C156.678 173.941 156.228 173.346 156.228 173.346C156.228 171.417 162.606 170.229 162.606 170.229C160.674 169.34 161.865 167.113 161.865 167.113C167.647 166.074 169.87 174.679 169.87 174.679C198.495 196.399 215.922 163.727 216.268 163.072V163.097L216.853 166.486L216.867 166.528Z" fill="#019AFF"/>
<path d="M216.86 166.126L216.292 162.737C216.648 163.832 216.839 164.975 216.86 166.126V166.126Z" stroke="black" stroke-linecap="round" stroke-linejoin="round"/>
<path d="M193.055 73.7329C193.014 73.8056 192.976 73.8887 192.934 73.9683C192.586 74.5935 192.206 75.2002 191.795 75.7861C186.639 74.6182 181.421 73.7477 176.165 73.1788C172.291 72.7322 167.855 72.3652 163.112 72.2197C162.118 72.1782 161.1 72.1609 160.082 72.1436C157.533 72.1124 154.888 72.1436 152.232 72.2751C143.029 72.6976 133.746 75.5888 126.17 78.7431C117.351 81.8282 109.443 85.1903 109.443 85.1903C108.989 86.1598 108.615 87.0739 108.314 87.9291C107.711 88.0572 106.929 87.8149 106.423 86.1979C106.423 86.1979 106.967 82.4653 108.615 81.8143C108.615 81.8143 90.9737 76.6587 106.423 60.2256C106.423 60.2256 126.482 40.8356 143.794 45.7627L144.559 46.5279C144.559 46.5279 145.661 44.6651 143.794 40.9325C141.928 37.2 144.341 33.921 148.503 38.5088C148.503 38.5088 150.148 42.0094 148.503 44.6409C149.147 44.1838 176.55 24.7453 193.537 38.0621C193.537 38.0621 206.576 48.0307 192.439 68.7399C192.446 68.7503 195.32 69.3459 193.055 73.7329Z" fill="#FF532B"/>
<path d="M86.6421 169.828C86.6906 169.527 86.7495 169.225 86.8118 168.938C82.7399 170.004 74.2948 171.362 67.6191 169.284C79.2704 161.539 79.1423 153.509 78.2455 149.794C76.4554 142.377 68.1385 136.789 60.4344 137.841C54.7663 138.613 48.8454 143.312 49.2228 154.184C49.4098 159.503 50.6078 164.014 52.8134 167.664C51.8855 168.031 50.9229 168.38 49.9153 168.737C33.1706 174.603 19.7257 169.624 13.0396 155.074C4.0579 135.542 9.77449 104.681 32.3327 91.6098L37.478 88.5212C37.478 88.5212 43.0492 88.6597 45.1509 86.558C47.2527 84.4563 48.2672 79.3595 45.6945 77.3235C43.1219 75.2875 43.5201 80.7202 44.1329 81.3296C44.1329 81.3296 43.5201 83.9784 41.3456 81.7382C41.0201 81.3919 40.7605 81.1046 40.5492 80.8414C39.327 79.3352 39.7252 78.8228 39.791 77.6663C39.8567 76.3055 42.561 75.0833 42.8449 75.0833C43.1288 75.0833 43.7902 73.9372 42.9107 73.1858C42.9107 73.1858 38.4302 71.2156 37.755 75.0833C37.0798 78.9509 35.1096 77.6663 35.0369 75.5646C34.9642 73.4628 31.9207 69.7268 31.5744 75.6303C31.5744 75.6303 31.8514 77.3235 31.4429 78.0091C31.0343 78.6947 29.677 77.6005 29.3342 76.1774C28.9914 74.7543 26.2803 72.7807 27.0939 77.2577C27.0939 77.2577 28.3889 79.768 28.7975 81.1911C28.7975 81.1911 30.0267 83.4798 28.2435 84.5636C2.24008 100.38 -4.80266 135.764 5.6368 158.478C11.9005 172.085 23.0151 179.325 36.737 179.325C41.723 179.325 47.0484 178.37 52.6022 176.424C54.8494 175.634 56.9027 174.828 58.7897 174C68.6025 180.752 82.823 178.259 88.0825 177.013C86.7193 174.883 86.2053 172.319 86.6421 169.828ZM57.976 157.453C57.9812 157.253 58.0009 157.054 58.0349 156.857C57.9999 156.661 57.9802 156.461 57.976 156.262C57.976 156.095 57.976 155.915 57.976 155.76C57.6775 155.095 57.5422 154.368 57.5813 153.641C57.3837 152.237 57.6409 150.808 58.3154 149.562C58.3269 149.548 58.3373 149.533 58.3465 149.517C58.587 148.732 59.0806 148.049 59.7503 147.575C60.42 147.101 61.228 146.862 62.0479 146.896C62.6081 146.892 63.163 147.003 63.6788 147.221C64.4653 147.206 65.2384 147.426 65.8982 147.855C66.718 147.984 67.4762 148.368 68.0658 148.952C68.5613 149.46 68.9137 150.089 69.0872 150.777C69.4043 151.205 69.6671 151.67 69.8697 152.162C70.8115 154.451 69.707 157.328 67.9273 158.893C66.2133 160.389 62.5569 164.451 60.289 164.693C58.0765 164.915 57.976 159.506 57.976 157.453Z" fill="#019AFF"/>
<path d="M204.09 103.403C204.115 104.868 204.09 106.246 203.969 107.558C202.73 122.973 193.163 127.471 193.163 127.471C186.238 135.134 168.118 126.519 171.785 127.125C175.452 127.731 182.779 128.551 181.761 119.39C181.2 114.348 179.905 112.572 176.442 109.868C175.002 108.735 173.194 107.444 170.902 105.692C168.69 103.995 166.034 101.862 162.835 99.03C148.379 86.2014 159.372 72.7738 159.372 72.7738L160.089 72.1367C161.107 72.154 162.125 72.1713 163.118 72.2129C167.876 72.3583 172.298 72.7253 176.172 73.172C181.428 73.7408 186.646 74.6113 191.802 75.7793C192.213 75.1934 192.593 74.5866 192.941 73.9615C192.983 73.8818 193.021 73.7987 193.062 73.726C193.691 74.2124 194.295 74.7313 194.87 75.2807L194.904 75.3049C198.021 78.2861 200.067 81.9114 201.403 85.4778C203.162 90.2718 204.028 95.3472 203.959 100.453C204.025 101.464 204.073 102.472 204.09 103.403Z" fill="#01FF9D"/>
<path d="M94.7582 294.236C94.7582 294.236 87.3865 296.791 78.2178 287.338C78.2178 287.338 80.0356 281.757 80.1638 280.334C80.2919 278.911 80.9047 269.486 83.0376 267.671C83.2408 268.391 83.6219 269.048 84.1456 269.583C85.0736 270.545 86.7287 271.456 89.6268 271.22C90.4602 271.15 91.2861 271.008 92.0956 270.798L87.8609 281.847C87.8609 281.847 94.1003 291.4 94.7582 294.236Z" fill="#FF532B"/>
<path d="M83.0411 267.671C83.5666 267.268 84.1985 267.027 84.859 266.979C84.605 267.902 84.3684 268.773 84.1491 269.593C83.6238 269.056 83.2427 268.395 83.0411 267.671V267.671Z" stroke="black" stroke-linecap="round" stroke-linejoin="round"/>
<path d="M92.2133 270.504L92.099 270.798C91.2896 271.008 90.4637 271.15 89.6302 271.22C89.883 270.285 90.16 269.281 90.4543 268.215C91.4134 268.81 92.099 269.593 92.2133 270.504Z" stroke="black" stroke-linecap="round" stroke-linejoin="round"/>
<path d="M225.045 287.425C217.774 288.557 203.114 281.947 203.114 281.947C203.114 281.947 203.585 276.179 203.772 275.136C203.959 274.094 198.633 266.941 199.007 266.342C199.007 266.342 200.392 266.383 202.338 266.227C204.245 266.087 206.134 265.77 207.982 265.282C209.645 264.854 211.225 264.152 212.657 263.205L213.522 273.201C217.757 276.289 225.045 287.425 225.045 287.425Z" fill="#FF532B"/>
<path d="M201.566 263.347C201.843 264.365 202.103 265.324 202.338 266.227C200.379 266.383 199.007 266.342 199.007 266.342C199.701 265.218 200.564 264.208 201.566 263.347V263.347Z" stroke="black" stroke-linecap="round" stroke-linejoin="round"/>
<path d="M212.657 263.222C211.225 264.169 209.645 264.872 207.982 265.299C207.667 264.088 207.314 262.761 206.943 261.359C208.986 261.426 210.967 262.072 212.657 263.222V263.222Z" stroke="black" stroke-linecap="round" stroke-linejoin="round"/>
<path d="M107.57 227.839C99.54 238.842 93.6122 256.969 90.4613 268.208C90.167 269.274 89.89 270.285 89.6372 271.213C86.7391 271.449 85.084 270.521 84.1561 269.576C84.3869 268.756 84.6235 267.885 84.8659 266.961C88.0168 255.57 94.0658 237.025 102.545 225.044C104.079 226.21 105.77 227.151 107.57 227.839Z" fill="#019AFF"/>
<path d="M207.574 265.282C205.725 265.77 203.836 266.087 201.93 266.227C201.694 265.324 201.431 264.365 201.154 263.347C197.823 251.169 191.84 231.464 188.533 220.779C190.477 221.604 192.622 221.833 194.697 221.436C197.467 230.439 203.135 248.998 206.521 261.342C206.905 262.744 207.255 264.07 207.574 265.282Z" fill="#019AFF"/>
<path d="M74.8142 40.7802C74.8142 40.7802 72.1758 38.5053 75.8979 33.6336C79.6201 28.7619 78.4152 31.7535 80.4511 23.8451C80.4511 23.8451 86.2024 31.4626 83.7786 37.5809C83.7786 37.5809 79.7275 42.9166 74.8142 40.7802Z" fill="#FF532B"/>
<path d="M152.998 161.542C152.998 161.542 147.804 160.718 149.189 157.266C150.574 153.814 155.525 156.528 156.488 156.359C157.45 156.189 161.643 156.338 164.33 154.084C167.017 151.83 171.2 154.378 168.655 158.114C168.645 158.114 162.928 163.384 152.998 161.542Z" fill="#01FF9D"/>
<path d="M72.9687 18.9214C73.0137 19.2123 71.2963 13.4126 64.7764 12.1141C58.2565 10.8157 57.5467 -3.12091 68.2389 0.642838C78.9311 4.40658 72.4701 15.5628 72.9687 18.9214Z" fill="#864AE5"/>
<path d="M78.8654 29.759C78.8654 29.759 81.2095 24.1463 80.9429 23.3742C80.6763 22.602 83.3839 30.5589 83.3839 30.5589C83.3839 30.5589 78.7476 33.6682 78.8654 29.759Z" fill="#864AE5"/>
<path d="M37.0071 85.2214L74.4679 41.2441" stroke="black" stroke-linecap="round" stroke-linejoin="round"/>
<path d="M74.2568 40.6347C74.2568 40.6347 72.8302 36.7671 76.2927 33.2007C79.7552 29.6343 80.562 24.3471 80.562 22.2073L81.3791 24.6483C81.3791 24.6483 90.7279 40.6347 76.5905 41.2476L74.2568 40.6347Z" stroke="black" stroke-linecap="round" stroke-linejoin="round"/>
<path d="M126.994 153.222C128.87 153.222 130.391 151.671 130.391 149.759C130.391 147.847 128.87 146.297 126.994 146.297C125.118 146.297 123.597 147.847 123.597 149.759C123.597 151.671 125.118 153.222 126.994 153.222Z" fill="black"/>
<path d="M168.347 158.218C165.137 160.678 161.203 162.006 157.16 161.996C154.973 162.016 152.801 161.638 150.75 160.881C150.066 160.585 149.524 160.033 149.241 159.343C148.959 158.653 148.958 157.879 149.24 157.189C149.521 156.498 150.062 155.945 150.747 155.649C151.431 155.352 152.204 155.336 152.901 155.604C154.908 156.291 157.054 156.474 159.149 156.136C161.243 155.797 163.223 154.949 164.912 153.665C165.517 153.237 166.266 153.061 166.998 153.176C167.731 153.29 168.39 153.685 168.836 154.276C169.283 154.868 169.482 155.611 169.39 156.346C169.299 157.082 168.925 157.753 168.347 158.218Z" stroke="black" stroke-miterlimit="10"/>
<path d="M187.256 150.78C189.132 150.78 190.652 149.23 190.652 147.318C190.652 145.406 189.132 143.855 187.256 143.855C185.38 143.855 183.859 145.406 183.859 147.318C183.859 149.23 185.38 150.78 187.256 150.78Z" fill="black"/>
<path d="M208.799 152.955C225.631 139.379 208.799 131.235 208.799 131.235C219.734 123.489 208.107 108.479 204.09 103.857C204.115 105.321 204.09 106.696 203.969 108.012C202.73 123.427 193.163 127.921 193.163 127.921C186.238 135.584 168.118 126.969 171.785 127.575C175.452 128.181 182.779 129.001 181.761 119.84C181.2 114.798 179.905 113.022 176.442 110.321C175.002 109.189 173.194 107.897 170.902 106.142C168.69 104.449 166.034 102.316 162.835 99.4801C148.379 86.6688 159.372 73.2239 159.372 73.2239L160.089 72.5903C157.54 72.5591 154.895 72.5902 152.239 72.7218C143.036 73.1442 133.753 76.0354 126.177 79.1863C117.358 82.2714 109.45 85.637 109.45 85.637C108.996 86.6065 108.622 87.5171 108.321 88.3724C105.444 96.6374 109.45 99.7501 109.45 99.7501C84.8658 117.911 97.6182 131.861 98.0233 132.315C93.1378 129.628 88.8062 143.187 88.8062 143.187C84.4573 152.962 96.95 156.757 96.95 156.757C92.2167 157.283 88.5049 160.354 86.8014 169.184C86.739 169.468 86.6802 169.769 86.6317 170.07C86.1958 172.564 86.7136 175.132 88.0825 177.262C91.0083 182.037 96.9604 184.453 96.9604 184.453C87.1892 195.319 88.8165 213.77 100.769 224.089C101.379 224.618 101.974 225.093 102.559 225.522C104.092 226.679 105.781 227.611 107.576 228.292C115.346 231.149 119.775 225.702 119.775 225.702C127.375 244.164 143.116 231.131 143.116 231.131C143.116 231.131 148.001 234.94 155.608 235.473C163.215 236.007 169.708 226.776 169.708 226.776C184.911 234.393 188.17 220.806 188.17 220.806C188.413 220.972 188.67 221.115 188.938 221.236C190.883 222.063 193.029 222.293 195.105 221.897C198.568 221.294 203.142 218.999 208.263 212.68C217.888 200.765 211.268 184.599 208.955 179.841C188.807 204.55 162.152 181.448 162.152 181.448C161.969 181.241 161.715 181.111 161.441 181.084C161.166 181.056 160.891 181.133 160.67 181.299C155.785 184.266 159.043 179.568 159.043 179.568C160.38 178.418 159.49 178.346 159.49 178.346C159.49 178.346 156.966 179.235 156.225 178.346C155.484 177.456 158.008 175.967 158.008 175.967C160.085 175.226 158.898 174.641 158.898 174.641C156.675 174.045 156.225 173.453 156.225 173.453C156.225 171.521 162.603 170.337 162.603 170.337C160.67 169.45 161.862 167.221 161.862 167.221C167.644 166.182 169.867 174.786 169.867 174.786C198.491 196.506 215.918 163.834 216.264 163.183C214.384 157.384 208.799 152.955 208.799 152.955Z" stroke="#0000AC" stroke-linecap="round" stroke-linejoin="round"/>
<path d="M216.867 166.618C215.439 169.849 213.753 172.959 211.826 175.918C210.939 177.271 209.982 178.576 208.959 179.828C188.81 204.536 162.156 181.434 162.156 181.434C161.973 181.228 161.719 181.097 161.444 181.07C161.169 181.042 160.894 181.119 160.674 181.285C155.788 184.253 159.047 179.554 159.047 179.554C160.383 178.404 159.493 178.332 159.493 178.332C159.493 178.332 156.969 179.222 156.228 178.332C155.487 177.442 158.011 175.953 158.011 175.953C160.089 175.212 158.901 174.627 158.901 174.627C156.678 174.031 156.228 173.439 156.228 173.439C156.228 171.507 162.606 170.323 162.606 170.323C160.674 169.437 161.865 167.207 161.865 167.207C167.647 166.168 169.87 174.772 169.87 174.772C198.495 196.493 215.922 163.82 216.268 163.169V163.194L216.853 166.58L216.867 166.618Z" stroke="#0000AC" stroke-linecap="round" stroke-linejoin="round"/>
<path d="M211.819 175.925C213.746 172.966 215.432 169.856 216.86 166.625C216.915 169.617 215.662 172.774 212.054 175.756L211.819 175.925Z" stroke="#0000AC" stroke-linecap="round" stroke-linejoin="round"/>
<path d="M193.055 74.1727C193.014 74.2454 192.976 74.325 192.934 74.4081C192.585 75.0316 192.205 75.6372 191.795 76.2225C186.639 75.0549 181.421 74.1855 176.165 73.6187C172.291 73.1685 167.855 72.8015 163.112 72.6561C162.118 72.6145 161.1 72.6007 160.082 72.5834C157.533 72.5522 154.888 72.5834 152.232 72.715C143.029 73.1374 133.746 76.0286 126.17 79.1795C117.351 82.2646 109.443 85.6301 109.443 85.6301C108.989 86.5996 108.615 87.5102 108.314 88.3655C107.711 88.4971 106.929 88.2512 106.423 86.6342C106.423 86.6342 106.967 82.9051 108.615 82.2542C108.615 82.2542 90.9737 77.0985 106.423 60.6654C106.423 60.6654 126.482 41.2754 143.794 46.2025L144.559 46.9678C144.559 46.9678 145.661 45.1015 143.794 41.3723C141.928 37.6432 144.341 34.3608 148.503 38.9486C148.503 38.9486 150.148 42.4492 148.503 45.0807C149.147 44.6236 176.55 25.1851 193.537 38.5019C193.537 38.5019 206.576 48.4705 192.439 69.1797C192.446 69.204 195.32 69.7995 193.055 74.1727Z" stroke="#0000AC" stroke-linecap="round" stroke-linejoin="round"/>
<path d="M88.0825 177.262C82.823 178.508 68.6025 181.001 58.7897 174.249C56.9027 175.073 54.8494 175.88 52.6022 176.673C47.0622 178.619 41.723 179.571 36.737 179.571C23.0151 179.571 11.9005 172.331 5.6368 158.724C-4.80266 136.009 2.24008 100.626 28.2435 84.8129C30.0267 83.7291 28.7975 81.4404 28.7975 81.4404C28.3889 80.0139 27.0939 77.507 27.0939 77.507C26.2803 73.0265 29.0018 74.9967 29.3342 76.4232C29.6666 77.8498 31.0481 78.9266 31.4429 78.2341C31.8376 77.5416 31.5744 75.8554 31.5744 75.8554C31.9207 69.9518 34.9711 73.6809 35.0369 75.7931C35.1027 77.9052 37.0729 79.1794 37.755 75.3118C38.4371 71.4441 42.9107 73.4143 42.9107 73.4143C43.7902 74.1622 43.115 75.3118 42.8449 75.3118C42.5748 75.3118 39.8567 76.534 39.791 77.8913C39.7252 79.0478 39.327 79.5637 40.5492 81.0699C40.7605 81.3296 41.0201 81.6308 41.3456 81.9632C43.5201 84.2035 44.1329 81.5581 44.1329 81.5581C43.5201 80.9453 43.115 75.5161 45.6945 77.552C48.2741 79.588 47.2527 84.6778 45.1509 86.7865C43.0492 88.8952 37.478 88.7497 37.478 88.7497L32.3327 91.8348C9.77449 104.895 4.0579 135.771 13.0431 155.299C19.7292 169.842 33.1741 174.828 49.9188 168.966C50.9264 168.619 51.8889 168.273 52.8169 167.889C50.6182 164.239 49.4133 159.728 49.2263 154.413C48.8489 143.54 54.7663 138.831 60.4379 138.066C68.142 137.027 76.4589 142.602 78.249 150.022C79.1458 153.734 79.2878 161.764 67.6226 169.509C74.2983 171.587 82.7433 170.243 86.8152 169.163C86.7529 169.447 86.6941 169.748 86.6456 170.049C86.2001 172.549 86.7132 175.124 88.0825 177.262V177.262Z" stroke="#0000AC" stroke-linecap="round" stroke-linejoin="round"/>
<path d="M62.3076 146.099C62.0495 146.1 61.7916 146.116 61.5355 146.148C57.8687 146.643 57.242 150.767 57.3805 154.136C57.5259 158.478 58.4954 161.888 60.3028 164.464C68.6336 159.887 71.1336 155.237 70.3441 151.937C69.4819 148.468 65.4758 146.099 62.3076 146.099Z" stroke="#0000AC" stroke-linecap="round" stroke-linejoin="round"/>
<path d="M58.7898 174.232C58.7898 174.232 54.2885 170.828 52.8135 167.889" stroke="#0000AC" stroke-linecap="round" stroke-linejoin="round"/>
<path d="M67.6191 169.509C67.6191 169.509 62.048 167.913 60.289 164.45" stroke="#0000AC" stroke-linecap="round" stroke-linejoin="round"/>
<path d="M94.7582 294.686C94.7582 294.686 87.3865 297.244 78.2178 287.788C78.2178 287.788 80.0356 282.21 80.1638 280.784C80.2919 279.357 80.9047 269.939 83.0376 268.121C83.2411 268.842 83.6221 269.501 84.1456 270.036C85.0736 270.995 86.7287 271.909 89.6268 271.674C90.46 271.6 91.2858 271.458 92.0956 271.248L87.8609 282.3C87.8609 282.3 94.1003 291.871 94.7582 294.686Z" stroke="black" stroke-linecap="round" stroke-linejoin="round"/>
<path d="M83.0411 268.121C83.5673 267.72 84.1988 267.479 84.859 267.429C84.6062 268.35 84.3707 269.219 84.1491 270.043C83.6246 269.506 83.2436 268.845 83.0411 268.121Z" fill="#864AE5"/>
<path d="M92.2133 270.957L92.099 271.248C91.2893 271.458 90.4635 271.6 89.6302 271.674C89.883 270.736 90.16 269.735 90.4543 268.668C91.4134 269.261 92.099 270.057 92.2133 270.957Z" fill="#864AE5"/>
<path d="M225.045 287.878C217.774 289.011 203.114 282.397 203.114 282.397C203.114 282.397 203.585 276.636 203.772 275.597C203.959 274.558 198.627 267.394 199.007 266.802C199.007 266.802 200.392 266.84 202.338 266.688C204.245 266.546 206.134 266.229 207.982 265.743C209.643 265.319 211.223 264.622 212.657 263.682L213.522 273.651C217.757 276.753 225.045 287.878 225.045 287.878Z" stroke="black" stroke-linecap="round" stroke-linejoin="round"/>
<path d="M151.831 158.246C151.831 158.246 159.431 161.362 166.629 155.933" stroke="black" stroke-miterlimit="10"/>
<path d="M171.83 127.568C171.83 127.568 200.538 137.228 195.756 101.769C195.683 101.215 195.6 100.654 195.51 100.086C195.256 99.0024 194.944 97.9332 194.575 96.8831C192.9 92.0427 190.444 87.5092 187.304 83.4625V83.4625C185.725 81.4396 183.964 79.5666 182.041 77.8671C180.233 76.276 178.281 74.8561 176.21 73.6255" stroke="#0000AC" stroke-linecap="round" stroke-linejoin="round"/>
<path d="M170.895 106.135L181.996 77.8602" stroke="#0000AC" stroke-linecap="round" stroke-linejoin="round"/>
<path d="M176.442 110.314L187.259 83.4556" stroke="#0000AC" stroke-linecap="round" stroke-linejoin="round"/>
<path d="M195.711 101.769L204.097 108.098" stroke="#0000AC" stroke-linecap="round" stroke-linejoin="round"/>
<path d="M194.53 96.8832L203.952 100.9" stroke="#0000AC" stroke-linecap="round" stroke-linejoin="round"/>
<path d="M107.57 228.292C99.54 239.293 93.6122 257.422 90.4613 268.658C90.167 269.725 89.89 270.736 89.6372 271.664C86.7391 271.899 85.084 270.971 84.1561 270.026C84.3777 269.202 84.6131 268.333 84.8659 267.412C88.0237 256.01 94.0692 237.468 102.552 225.495C104.083 226.661 105.773 227.603 107.57 228.292Z" stroke="#0000AC" stroke-linecap="round" stroke-linejoin="round"/>
<path d="M207.982 265.736C206.134 266.222 204.245 266.539 202.338 266.681C202.103 265.777 201.843 264.815 201.566 263.797C198.235 251.623 192.249 231.914 188.938 221.236C190.883 222.063 193.029 222.293 195.105 221.897C197.875 230.899 203.543 249.455 206.93 261.802C207.314 263.194 207.667 264.517 207.982 265.736Z" stroke="#0000AC" stroke-linecap="round" stroke-linejoin="round"/>
<path d="M204.09 103.857C204.115 105.321 204.09 106.696 203.969 108.012C202.73 123.427 193.163 127.921 193.163 127.921C186.238 135.584 168.118 126.969 171.785 127.575C175.452 128.181 182.779 129.001 181.761 119.84C181.2 114.798 179.905 113.022 176.442 110.321C175.002 109.189 173.194 107.897 170.902 106.142C168.69 104.449 166.034 102.316 162.835 99.48C148.379 86.6687 159.372 73.2238 159.372 73.2238L160.089 72.5902C161.107 72.6075 162.125 72.6214 163.118 72.6629C167.876 72.8083 172.298 73.1754 176.172 73.6255C181.428 74.1923 186.646 75.0617 191.802 76.2293C192.212 75.644 192.592 75.0385 192.941 74.4149C192.983 74.3318 193.021 74.2522 193.062 74.1795C193.692 74.6649 194.296 75.1838 194.87 75.7342C194.882 75.7406 194.894 75.7487 194.904 75.7584C197.805 78.6158 200.026 82.089 201.403 85.9209C203.162 90.716 204.028 95.7926 203.959 100.9C204.025 101.918 204.073 102.911 204.09 103.857Z" stroke="#0000AC" stroke-linecap="round" stroke-linejoin="round"/>
</svg>


